<svg preserveAspectRatio="none" width="100%" height="100%" overflow="visible" style="display: block;" viewBox="0 0 81.8337 78.234" fill="none" xmlns="http://www.w3.org/2000/svg">
<path id="Vector 10" opacity="0.25" d="M79.8339 52.8846L77.9687 52.1626L77.8382 52.4997L77.834 52.8613L79.8339 52.8846ZM79.8164 54.3855L77.8165 54.3622L79.8164 54.3855ZM79.505 56.5876L77.6605 55.8145L79.505 56.5876ZM79.2112 57.2887L77.3666 56.5156L79.2112 57.2887ZM78.9173 57.9898L80.7618 58.763L78.9173 57.9898ZM78.3826 59.4086L80.2787 60.0448L78.3826 59.4086ZM78.1418 60.1262L80.0379 60.7624L78.1418 60.1262ZM77.9011 60.8438L76.005 60.2075L77.9011 60.8438ZM77.4133 62.2822L75.5212 61.634L77.4133 62.2822ZM77.1663 63.0031L75.2743 62.3549L77.1663 63.0031ZM76.9193 63.724L78.8114 64.3722L76.9193 63.724ZM76.2198 65.0659L74.6035 63.888L76.2198 65.0659ZM75.7673 65.6868L74.151 64.5089L75.7673 65.6868ZM75.3148 66.3078L76.9312 67.4857L75.3148 66.3078ZM74.2771 67.4414L75.5949 68.9458L74.2771 67.4414ZM73.6919 67.954L75.0097 69.4584L73.6919 67.954ZM73.1067 68.4666L71.7889 66.9621L73.1067 68.4666ZM72.1385 69.6145L70.4256 68.5821L72.1385 69.6145ZM71.3725 70.8853L73.0855 71.9177L71.3725 70.8853ZM70.3809 71.93L71.497 73.5896L70.3809 71.93ZM69.1636 72.7487L68.0474 71.0891L69.1636 72.7487ZM67.9753 73.6225L69.226 75.1832L67.9753 73.6225ZM66.8161 74.5515L65.5654 72.9908L66.8161 74.5515ZM65.471 75.3529L64.6653 73.5224L65.471 75.3529ZM63.9399 76.0269L63.1342 74.1963L63.9399 76.0269ZM62.3663 76.1526L61.8605 78.0876L62.3663 76.1526ZM60.7503 75.7302L61.256 73.7952L60.7503 75.7302ZM59.3136 75.0193L58.0691 76.585L59.3136 75.0193ZM58.0563 74.0199L59.3008 72.4543L58.0563 74.0199ZM56.9161 72.9454L55.422 74.2749L56.9161 72.9454ZM55.893 71.7956L57.3871 70.4661L55.893 71.7956ZM54.9654 70.5812L53.289 71.6719L54.9654 70.5812ZM54.5493 69.9417L52.8729 71.0324L54.5493 69.9417ZM54.1332 69.3021L55.8096 68.2114L54.1332 69.3021ZM52.8989 68.3627L53.5872 66.4849L52.8989 68.3627ZM51.2626 67.7629L51.9509 65.8851L51.2626 67.7629ZM50.2731 66.6596L52.2291 66.2423L50.2731 66.6596ZM50.1017 65.8561L48.1457 66.2733L50.1017 65.8561ZM49.9303 65.0526L51.8863 64.6354L49.9303 65.0526ZM49.1905 63.6788L47.7738 65.0905L49.1905 63.6788ZM48.6221 63.1083L50.0389 61.6966L48.6221 63.1083ZM48.0538 62.5379L46.637 63.9496L48.0538 62.5379ZM47.4899 61.1601L49.4899 61.1713L47.4899 61.1601ZM47.4944 60.3526L45.4945 60.3414L47.4944 60.3526ZM47.499 59.5452L45.499 59.5339L47.499 59.5452ZM47.1509 58.0357L45.3637 58.9335L47.1509 58.0357ZM46.7982 57.3337L48.5854 56.4359L46.7982 57.3337ZM46.4456 56.6317L44.6584 57.5295L46.4456 56.6317ZM46.4974 55.1525L44.7232 54.2293L46.4974 55.1525ZM46.9018 54.3752L48.676 55.2983L46.9018 54.3752ZM47.3062 53.5979L45.532 52.6748L47.3062 53.5979ZM47.7172 52.1018L49.7172 52.1202L47.7172 52.1018ZM47.7305 50.6641L45.7306 50.6456L47.7305 50.6641ZM47.5238 49.1696L49.4521 48.6391L47.5238 49.1696ZM47.3104 48.3941L45.382 48.9246L47.3104 48.3941ZM47.097 47.6185L45.1687 48.149L47.097 47.6185ZM47.2643 46.1682L49.0062 47.1509L47.2643 46.1682ZM48.0255 44.8188L49.7674 45.8014L48.0255 44.8188ZM48.216 43.2864L50.1686 42.8536L48.216 43.2864ZM48.0259 42.4287L49.9785 41.9959L48.0259 42.4287ZM47.8358 41.5711L45.8832 42.0039L47.8358 41.5711ZM48.3197 40.1765L49.5658 41.7409L48.3197 40.1765ZM48.9937 39.6396L50.2398 41.204L48.9937 39.6396ZM49.6677 39.1027L48.4216 37.5384L49.6677 39.1027ZM50.3006 37.6997L48.3029 37.7944L50.3006 37.6997ZM50.2596 36.8335L52.2573 36.7388L50.2596 36.8335ZM50.2185 35.9674L48.2208 36.062L50.2185 35.9674ZM50.8206 34.5987L49.5892 33.0227L50.8206 34.5987ZM51.4637 34.0961L50.2323 32.5202L51.4637 34.0961ZM52.1069 33.5936L50.8754 32.0176L52.1069 33.5936ZM53.2564 32.5296L54.7415 33.8692L53.2564 32.5296ZM53.7628 31.9682L52.2777 30.6286L53.7628 31.9682ZM54.2692 31.4068L52.7841 30.0672L54.2692 31.4068ZM55.0573 30.1003L56.9281 30.8076L55.0573 30.1003ZM55.6208 28.6101L53.75 27.9027L55.6208 28.6101ZM56.6892 27.6352L57.2499 29.555L56.6892 27.6352ZM57.4759 27.4055L56.9152 25.4856L57.4759 27.4055ZM58.2626 27.1757L58.8232 29.0955L58.2626 27.1757ZM59.6459 26.6075L60.6327 28.3472L59.6459 26.6075ZM60.8393 25.9306L59.8526 24.191L60.8393 25.9306ZM62.055 25.677L61.7834 27.6585L62.055 25.677ZM63.2928 25.8467L63.5644 23.8652L63.2928 25.8467ZM64.7497 26.1131L65.1732 24.1584L64.7497 26.1131ZM65.5876 26.2946L65.1641 28.2493L65.5876 26.2946ZM66.4256 26.4762L66.002 28.4308L66.4256 26.4762ZM67.0784 27.5299L69.0349 27.945L67.0784 27.5299ZM66.7084 29.274L64.7519 28.8589L66.7084 29.274ZM66.689 30.8454L64.7428 31.3064L66.689 30.8454ZM67.0587 33.6616L69.028 34.0105L67.0587 33.6616ZM66.9315 34.3796L68.9008 34.7286L66.9315 34.3796ZM66.8042 35.0977L64.8349 34.7487L66.8042 35.0977ZM66.7972 36.6604L64.8171 36.9421L66.7972 36.6604ZM67.0375 38.3498L69.0176 38.0681L67.0375 38.3498ZM66.6313 39.7899L65.1329 38.4652L66.6313 39.7899ZM64.7777 42.2922L62.9101 41.5767L64.7777 42.2922ZM64.5034 43.0083L66.371 43.7238L64.5034 43.0083ZM64.2291 43.7244L66.0967 44.4399L64.2291 43.7244ZM63.1927 44.8404L62.2633 43.0694L63.1927 44.8404ZM61.6685 45.6403L62.5979 47.4112L61.6685 45.6403ZM60.4523 46.6252L62.0322 47.8516L60.4523 46.6252ZM59.9982 47.2102L61.5781 48.4366L59.9982 47.2102ZM59.5441 47.7952L57.9642 46.5688L59.5441 47.7952ZM58.655 48.9788L57.037 47.8031L58.655 48.9788ZM57.7849 50.1762L59.4028 51.3519L57.7849 50.1762ZM56.9723 51.4278L55.2409 50.4267L56.9723 51.4278ZM56.2172 52.7336L57.9487 53.7347L56.2172 52.7336ZM55.2661 53.8682L56.5522 55.3998L55.2661 53.8682ZM54.1189 54.8315L52.8328 53.2998L54.1189 54.8315ZM53.0268 55.8399L54.4522 57.2428L53.0268 55.8399ZM51.9898 56.8936L50.5644 55.4907L51.9898 56.8936ZM51.0246 58.0386L49.4035 56.8673L51.0246 58.0386ZM50.1312 59.275L51.7523 60.4464L50.1312 59.275ZM49.249 60.574L50.9338 61.6517L49.249 60.574ZM48.3781 61.9354L46.6933 60.8576L48.3781 61.9354ZM47.1627 62.8075L46.686 60.8651L47.1627 62.8075ZM45.6027 63.1903L46.0794 65.1327L45.6027 63.1903ZM44.1202 63.6329L43.4469 61.7497L44.1202 63.6329ZM43.4178 63.8841L44.0912 65.7673L43.4178 63.8841ZM42.7154 64.1353L43.3888 66.0185L42.7154 64.1353ZM41.2791 64.3717L41.2391 66.3713L41.2791 64.3717ZM39.8113 64.3424L39.8513 62.3428L39.8113 64.3424ZM38.3361 64.7898L37.2781 63.0926L38.3361 64.7898ZM37.5948 65.2519L36.5368 63.5547L37.5948 65.2519ZM36.8535 65.714L37.9115 67.4112L36.8535 65.714ZM35.4316 65.7488L34.3681 67.4426L35.4316 65.7488ZM34.0704 64.8941L35.1339 63.2003L34.0704 64.8941ZM32.6766 64.1091L31.78 65.8968L32.6766 64.1091ZM31.9633 63.7514L31.0668 65.5392L31.0668 65.5392L31.9633 63.7514ZM31.2501 63.3937L32.1466 61.6059L32.1466 61.6059L31.2501 63.3937ZM30.1179 62.3769L28.43 63.4497L30.1179 62.3769ZM29.6989 61.7177L28.011 62.7905L29.6989 61.7177ZM29.28 61.0586L30.9679 59.9858L29.28 61.0586ZM28.5197 59.7153L26.7301 60.6081L28.5197 59.7153ZM28.1784 59.031L26.3887 59.9239L28.1784 59.031ZM27.837 58.3468L29.6267 57.454L27.837 58.3468ZM26.3907 55.684L28.1368 54.7088L26.3907 55.684ZM25.612 54.3593L23.9098 55.4093L25.612 54.3593ZM24.7914 53.029L26.4935 51.979L24.7914 53.029ZM24.4338 51.568L22.4382 51.4357L24.4338 51.568ZM24.4866 50.7721L26.4822 50.9044L24.4866 50.7721ZM24.5393 49.9762L22.5437 49.8439L24.5393 49.9762ZM24.2036 48.4695L25.9585 47.5102L24.2036 48.4695ZM23.4265 47.0478L21.6715 48.007L23.4265 47.0478ZM23.4378 45.5572L25.2175 46.4699L23.4378 45.5572ZM24.2377 43.9977L22.4581 43.085L24.2377 43.9977ZM24.6213 42.4805L26.6209 42.4365L24.6213 42.4805ZM24.5889 41.0056L22.5894 41.0496L24.5889 41.0056ZM24.7183 39.5409L22.7572 39.1482L24.7183 39.5409ZM25.0095 38.0862L23.0484 37.6936L25.0095 38.0862ZM25.0919 36.6011L23.0988 36.7673L25.0919 36.6011ZM24.9655 35.0857L26.9586 34.9195L24.9655 35.0857ZM25.2528 33.6441L27.0327 34.5562L25.2528 33.6441ZM25.9538 32.2763L24.1739 31.3641L25.9538 32.2763ZM26.3741 30.848L24.3829 30.6612L26.3741 30.848ZM26.5138 29.3592L28.5051 29.546L26.5138 29.3592ZM26.5787 27.8308L28.5787 27.8182L26.5787 27.8308ZM26.5688 26.2629L24.5688 26.2756L26.5688 26.2629ZM26.9383 24.817L25.1976 23.8322L26.9383 24.817ZM27.3129 24.155L25.5722 23.1701L27.3129 24.155ZM27.6874 23.493L29.4281 24.4778L27.6874 23.493ZM28.3678 22.1481L26.5425 21.3306L28.3678 22.1481ZM28.6736 21.4652L30.4989 22.2827L28.6736 21.4652ZM28.9795 20.7824L30.8048 21.5999L28.9795 20.7824ZM29.6128 19.4295L27.816 18.5512L29.6128 19.4295ZM30.2678 18.0896L32.0646 18.9679L30.2678 18.0896ZM30.6161 16.5862L32.6155 16.6361L30.6161 16.5862ZM30.6369 15.7527L28.6375 15.7028L30.6369 15.7527ZM30.6577 14.9192L32.6571 14.969L30.6577 14.9192ZM31.2537 13.5426L32.6266 14.997L31.2537 13.5426ZM32.4042 12.4566L31.0313 11.0022L32.4042 12.4566ZM33.2161 11.1574L31.3075 10.5599L33.2161 11.1574ZM33.6896 9.64503L31.7809 9.04753L33.6896 9.64503ZM34.7532 8.61092L34.116 6.71515L34.7532 8.61092ZM36.407 8.05504L37.0442 9.95082L36.407 8.05504ZM37.4699 6.90401L39.4006 7.4258L37.4699 6.90401ZM37.9418 5.15784L36.0111 4.63605L37.9418 5.15784ZM38.965 4.0759L38.4521 2.14278L38.965 4.0759ZM40.5394 3.65819L41.0523 5.59131L40.5394 3.65819ZM42.0496 3.02471L43.0625 4.74923L42.0496 3.02471ZM43.4954 2.17548L42.4825 0.45096L43.4954 2.17548ZM45.5901 2.95843L44.2686 4.45965L45.5901 2.95843ZM46.276 3.56222L47.5975 2.061L46.276 3.56222ZM48.6046 4.26261L48.4872 6.25916L48.6046 4.26261ZM50.3566 5.18804L48.3738 5.44963L50.3566 5.18804ZM50.5753 6.84571L52.5581 6.58413L50.5753 6.84571ZM51.3654 8.23728L52.6397 6.69577L51.3654 8.23728ZM52.0462 8.80001L50.7719 10.3415L52.0462 8.80001ZM52.7269 9.36274L54.0012 7.82123L52.7269 9.36274ZM53.3358 10.7234L55.3277 10.9027L53.3358 10.7234ZM53.264 11.5212L51.272 11.3419L53.264 11.5212ZM53.1921 12.3191L51.2002 12.1398L53.1921 12.3191ZM52.6303 13.7672L54.2274 14.9709L52.6303 13.7672ZM52.1402 14.4174L53.7374 15.6211L52.1402 14.4174ZM51.6502 15.0675L50.053 13.8638L51.6502 15.0675ZM51.1889 16.5314L49.1902 16.602L51.1889 16.5314ZM51.2465 18.1587L53.2452 18.0881L51.2465 18.1587ZM50.951 19.6624L52.7612 20.5129L50.951 19.6624ZM50.3026 21.0425L48.4924 20.1921L50.3026 21.0425ZM49.4271 22.2804L48.0174 20.8617L49.4271 22.2804ZM48.3244 23.3761L46.9147 21.9574L48.3244 23.3761ZM47.3983 24.5756L45.6645 23.5786L47.3983 24.5756ZM47.0236 25.2273L48.7574 26.2243L47.0236 25.2273ZM46.6488 25.879L48.3826 26.8759L46.6488 25.879ZM45.6573 27.0094L46.8835 28.5894L45.6573 27.0094ZM45.0404 27.4881L43.8142 25.9082L45.0404 27.4881ZM44.4236 27.9669L45.6499 29.5468L44.4236 27.9669ZM43.7294 29.3216L41.7371 29.1456L43.7294 29.3216ZM43.652 30.1976L45.6442 30.3736L43.652 30.1976ZM43.5746 31.0736L41.5824 30.8976L43.5746 31.0736ZM42.6407 32.2284L42.0217 30.3266L42.6407 32.2284ZM40.9278 32.786L41.5468 34.6877L40.9278 32.786ZM39.9323 33.9251L41.9067 34.2442L39.9323 33.9251ZM39.6542 35.6459L37.6798 35.3269L39.6542 35.6459ZM38.9647 37.0261L40.3378 38.4803L38.9647 37.0261ZM38.4142 37.5459L37.0411 36.0917L38.4142 37.5459ZM37.8636 38.0658L36.4906 36.6116L37.8636 38.0658ZM36.6818 39.0194L37.8144 40.6678L37.8144 40.6678L36.6818 39.0194ZM36.0504 39.4532L34.9177 37.8049L36.0504 39.4532ZM35.419 39.8871L36.5517 41.5354L35.419 39.8871ZM34.3957 40.9997L36.1277 41.9998L34.3957 40.9997ZM33.6118 42.3574L31.8798 41.3573L33.6118 42.3574ZM32.5749 43.4465L31.5013 41.7591L32.5749 43.4465ZM31.2851 44.2672L32.3587 45.9546L31.2851 44.2672ZM30.1989 45.3428L28.5322 44.2372L30.1989 45.3428ZM29.7575 46.0081L31.4242 47.1136L29.7575 46.0081ZM29.3162 46.6734L27.6496 45.5678L29.3162 46.6734ZM24.795 48.1155L26.5604 49.0554L24.795 48.1155ZM24.3754 48.9035L22.6101 47.9635L24.3754 48.9035ZM23.9559 49.6915L25.7213 50.6314L23.9559 49.6915ZM22.6678 50.3283L23.0107 48.3579L22.6678 50.3283ZM20.9305 50.0259L20.5876 51.9963L20.9305 50.0259ZM19.3736 49.9439L19.5735 51.9339L19.3736 49.9439ZM18.6852 50.0131L18.4852 48.0231L18.6852 50.0131ZM17.9968 50.0823L17.7969 48.0923L17.9968 50.0823ZM16.5972 50.3028L17.0134 52.259L16.5972 50.3028ZM15.1746 50.6055L15.5909 52.5617L15.1746 50.6055ZM13.8613 50.3665L12.7732 52.0447L13.8613 50.3665ZM13.2592 49.9762L14.3473 48.298L13.2592 49.9762ZM12.6572 49.5858L13.7452 47.9077L12.6572 49.5858ZM11.6499 48.5864L9.98474 49.6942L9.98474 49.6942L11.6499 48.5864ZM10.8393 47.3681L12.5044 46.2603L10.8393 47.3681ZM10.0629 46.1335L8.34288 47.154L10.0629 46.1335ZM9.32067 44.8825L11.0407 43.862L9.32067 44.8825ZM8.28719 43.7792L7.11712 45.4012L8.28719 43.7792ZM6.96248 42.8236L8.13255 41.2016L6.96248 42.8236ZM6.33568 41.5219L4.33754 41.4357L6.33568 41.5219ZM6.18308 38.3715L4.31474 39.0852L6.18308 38.3715ZM5.66449 37.0139L7.53283 36.3002L5.66449 37.0139ZM3.50449 34.4782L4.90209 33.0476L3.50449 34.4782ZM3.06952 33.0652L1.12928 32.5799L3.06952 33.0652ZM3.26812 32.2711L5.20836 32.7563L3.26812 32.2711ZM3.46672 31.477L1.52648 30.9917L3.46672 31.477ZM2.00881 25.4519L0.0183875 25.6475L2.00881 25.4519ZM2.52112 23.9751L0.982811 22.6969L2.52112 23.9751ZM3.69689 22.56L2.15858 21.2818L3.69689 22.56ZM4.31646 21.1135L2.3183 21.0278L4.31646 21.1135ZM4.66962 14.3193L2.67597 14.1602L4.66962 14.3193ZM5.36451 12.1954L6.77856 13.6098L5.36451 12.1954ZM7.38375 9.80644L9.20551 10.6318L7.38375 9.80644ZM7.99697 8.4529L6.17522 7.62755L7.99697 8.4529ZM8.43051 7.53546L10.1996 8.46842L8.43051 7.53546ZM8.55743 7.2948L6.81686 6.3097L6.80223 6.33556L6.78837 6.36183L8.55743 7.2948ZM8.77673 6.90731L10.5173 7.89241L10.5974 7.75081L10.6536 7.59813L8.77673 6.90731ZM79.87 52.7913L78.0048 52.0693L77.9687 52.1626L79.8339 52.8846L81.699 53.6066L81.7351 53.5133L79.87 52.7913ZM79.8339 52.8846L77.834 52.8613L77.8165 54.3622L79.8164 54.3855L81.8163 54.4088L81.8337 52.9079L79.8339 52.8846ZM79.8164 54.3855L77.8165 54.3622C77.8055 55.3069 77.7008 55.7183 77.6605 55.8145L79.505 56.5876L81.3496 57.3608C81.7011 56.5221 81.8039 55.4655 81.8163 54.4088L79.8164 54.3855ZM79.505 56.5876L77.6605 55.8145L77.3666 56.5156L79.2112 57.2887L81.0557 58.0619L81.3496 57.3608L79.505 56.5876ZM79.2112 57.2887L77.3666 56.5156L77.0728 57.2167L78.9173 57.9898L80.7618 58.763L81.0557 58.0619L79.2112 57.2887ZM78.9173 57.9898L77.0728 57.2167C76.8581 57.7289 76.6627 58.2475 76.4865 58.7723L78.3826 59.4086L80.2787 60.0448C80.4237 59.6128 80.5847 59.1856 80.7618 58.763L78.9173 57.9898ZM78.3826 59.4086L76.4865 58.7723L76.2457 59.4899L78.1418 60.1262L80.0379 60.7624L80.2787 60.0448L78.3826 59.4086ZM78.1418 60.1262L76.2457 59.4899L76.005 60.2075L77.9011 60.8438L79.7972 61.48L80.0379 60.7624L78.1418 60.1262ZM77.9011 60.8438L76.005 60.2075C75.8458 60.6819 75.6845 61.1574 75.5212 61.634L77.4133 62.2822L79.3053 62.9305C79.4713 62.4459 79.6353 61.9624 79.7972 61.48L77.9011 60.8438ZM77.4133 62.2822L75.5212 61.634L75.2743 62.3549L77.1663 63.0031L79.0583 63.6514L79.3053 62.9305L77.4133 62.2822ZM77.1663 63.0031L75.2743 62.3549L75.0273 63.0758L76.9193 63.724L78.8114 64.3722L79.0583 63.6514L77.1663 63.0031ZM76.9193 63.724L75.0273 63.0758C74.9281 63.3655 74.7883 63.6344 74.6035 63.888L76.2198 65.0659L77.8362 66.2438C78.2548 65.6694 78.5813 65.0438 78.8114 64.3722L76.9193 63.724ZM76.2198 65.0659L74.6035 63.888L74.151 64.5089L75.7673 65.6868L77.3837 66.8647L77.8362 66.2438L76.2198 65.0659ZM75.7673 65.6868L74.151 64.5089L73.6985 65.1299L75.3148 66.3078L76.9312 67.4857L77.3837 66.8647L75.7673 65.6868ZM75.3148 66.3078L73.6985 65.1299C73.485 65.4228 73.2395 65.6914 72.9593 65.9369L74.2771 67.4414L75.5949 68.9458C76.0949 68.5078 76.5413 68.0207 76.9312 67.4857L75.3148 66.3078ZM74.2771 67.4414L72.9593 65.9369L72.3741 66.4495L73.6919 67.954L75.0097 69.4584L75.5949 68.9458L74.2771 67.4414ZM73.6919 67.954L72.3741 66.4495L71.7889 66.9621L73.1067 68.4666L74.4244 69.971L75.0097 69.4584L73.6919 67.954ZM73.1067 68.4666L71.7889 66.9621C71.251 67.4332 70.7925 67.9733 70.4256 68.5821L72.1385 69.6145L73.8514 70.647C73.995 70.4086 74.182 70.1834 74.4244 69.971L73.1067 68.4666ZM72.1385 69.6145L70.4256 68.5821L70.0426 69.2175L71.7555 70.2499L73.4684 71.2823L73.8514 70.647L72.1385 69.6145ZM71.7555 70.2499L70.0426 69.2175L69.6596 69.8528L71.3725 70.8853L73.0855 71.9177L73.4684 71.2823L71.7555 70.2499ZM71.3725 70.8853L69.6596 69.8528C69.5533 70.0293 69.4254 70.1624 69.2648 70.2704L70.3809 71.93L71.497 73.5896C72.148 73.1518 72.6812 72.5885 73.0855 71.9177L71.3725 70.8853ZM70.3809 71.93L69.2648 70.2704L68.6561 70.6797L69.7722 72.3393L70.8883 73.999L71.497 73.5896L70.3809 71.93ZM69.7722 72.3393L68.6561 70.6797L68.0474 71.0891L69.1636 72.7487L70.2797 74.4083L70.8883 73.999L69.7722 72.3393ZM69.1636 72.7487L68.0474 71.0891C67.5949 71.3935 67.1539 71.7178 66.7246 72.0619L67.9753 73.6225L69.226 75.1832C69.5695 74.9079 69.9207 74.6497 70.2797 74.4083L69.1636 72.7487ZM67.9753 73.6225L66.7246 72.0619L66.145 72.5263L67.3957 74.087L68.6465 75.6477L69.226 75.1832L67.9753 73.6225ZM67.3957 74.087L66.145 72.5263L65.5654 72.9908L66.8161 74.5515L68.0669 76.1121L68.6465 75.6477L67.3957 74.087ZM66.8161 74.5515L65.5654 72.9908C65.3308 73.1788 65.0359 73.3593 64.6653 73.5224L65.471 75.3529L66.2767 77.1835C66.9268 76.8973 67.5287 76.5435 68.0669 76.1121L66.8161 74.5515ZM65.471 75.3529L64.6653 73.5224L63.8997 73.8594L64.7054 75.6899L65.5111 77.5204L66.2767 77.1835L65.471 75.3529ZM64.7054 75.6899L63.8997 73.8594L63.1342 74.1963L63.9399 76.0269L64.7456 77.8574L65.5111 77.5204L64.7054 75.6899ZM63.9399 76.0269L63.1342 74.1963C63.036 74.2396 62.9736 74.2442 62.8721 74.2176L62.3663 76.1526L61.8605 78.0876C62.8363 78.3427 63.823 78.2635 64.7456 77.8574L63.9399 76.0269ZM62.3663 76.1526L62.8721 74.2176L62.0641 74.0064L61.5583 75.9414L61.0525 77.8764L61.8605 78.0876L62.3663 76.1526ZM61.5583 75.9414L62.0641 74.0064L61.256 73.7952L60.7503 75.7302L60.2445 77.6652L61.0525 77.8764L61.5583 75.9414ZM60.7503 75.7302L61.256 73.7952C60.9756 73.7219 60.7506 73.6067 60.5581 73.4537L59.3136 75.0193L58.0691 76.585C58.7148 77.0982 59.4476 77.4569 60.2445 77.6652L60.7503 75.7302ZM59.3136 75.0193L60.5581 73.4537L59.9295 72.954L58.685 74.5196L57.4405 76.0853L58.0691 76.585L59.3136 75.0193ZM58.685 74.5196L59.9295 72.954L59.3008 72.4543L58.0563 74.0199L56.8118 75.5856L57.4405 76.0853L58.685 74.5196ZM58.0563 74.0199L59.3008 72.4543C58.9676 72.1894 58.6717 71.9097 58.4102 71.6158L56.9161 72.9454L55.422 74.2749C55.8426 74.7475 56.3068 75.1841 56.8118 75.5856L58.0563 74.0199ZM56.9161 72.9454L58.4102 71.6158L57.8987 71.0409L56.4046 72.3705L54.9105 73.7L55.422 74.2749L56.9161 72.9454ZM56.4046 72.3705L57.8987 71.0409L57.3871 70.4661L55.893 71.7956L54.3989 73.1252L54.9105 73.7L56.4046 72.3705ZM55.893 71.7956L57.3871 70.4661C57.1122 70.1571 56.864 69.8321 56.6418 69.4905L54.9654 70.5812L53.289 71.6719C53.6215 72.1831 53.9918 72.6676 54.3989 73.1252L55.893 71.7956ZM54.9654 70.5812L56.6418 69.4905L56.2257 68.851L54.5493 69.9417L52.8729 71.0324L53.289 71.6719L54.9654 70.5812ZM54.5493 69.9417L56.2257 68.851L55.8096 68.2114L54.1332 69.3021L52.4568 70.3928L52.8729 71.0324L54.5493 69.9417ZM54.1332 69.3021L55.8096 68.2114C55.2638 67.3725 54.4783 66.8115 53.5872 66.4849L52.8989 68.3627L52.2106 70.2405C52.4105 70.3138 52.4477 70.379 52.4568 70.3928L54.1332 69.3021ZM52.8989 68.3627L53.5872 66.4849L52.7691 66.185L52.0808 68.0628L51.3925 69.9406L52.2106 70.2405L52.8989 68.3627ZM52.0808 68.0628L52.7691 66.185L51.9509 65.8851L51.2626 67.7629L50.5743 69.6407L51.3925 69.9406L52.0808 68.0628ZM51.2626 67.7629L51.9509 65.8851C51.9313 65.8779 52.006 65.9025 52.095 66.0018C52.188 66.1054 52.2214 66.2066 52.2291 66.2423L50.2731 66.6596L48.3171 67.0768C48.5849 68.3326 49.4305 69.2215 50.5743 69.6407L51.2626 67.7629ZM50.2731 66.6596L52.2291 66.2423L52.0577 65.4389L50.1017 65.8561L48.1457 66.2733L48.3171 67.0768L50.2731 66.6596ZM50.1017 65.8561L52.0577 65.4389L51.8863 64.6354L49.9303 65.0526L47.9743 65.4698L48.1457 66.2733L50.1017 65.8561ZM49.9303 65.0526L51.8863 64.6354C51.6935 63.7313 51.2637 62.9258 50.6073 62.267L49.1905 63.6788L47.7738 65.0905C47.8753 65.1923 47.9386 65.3026 47.9743 65.4698L49.9303 65.0526ZM49.1905 63.6788L50.6073 62.267L50.0389 61.6966L48.6221 63.1083L47.2054 64.5201L47.7738 65.0905L49.1905 63.6788ZM48.6221 63.1083L50.0389 61.6966L49.4705 61.1262L48.0538 62.5379L46.637 63.9496L47.2054 64.5201L48.6221 63.1083ZM48.0538 62.5379L49.4705 61.1262C49.4598 61.1155 49.4588 61.1127 49.4629 61.1187C49.4672 61.1251 49.4736 61.1361 49.4796 61.1508C49.4856 61.1654 49.4887 61.1776 49.4899 61.1844C49.4911 61.191 49.4898 61.1875 49.4899 61.1713L47.4899 61.1601L45.4899 61.1489C45.4839 62.2186 45.8807 63.1906 46.637 63.9496L48.0538 62.5379ZM47.4899 61.1601L49.4899 61.1713L49.4944 60.3638L47.4944 60.3526L45.4945 60.3414L45.4899 61.1489L47.4899 61.1601ZM47.4944 60.3526L49.4944 60.3638L49.4989 59.5564L47.499 59.5452L45.499 59.5339L45.4945 60.3414L47.4944 60.3526ZM47.499 59.5452L49.4989 59.5564C49.5037 58.7116 49.3188 57.8959 48.938 57.1379L47.1509 58.0357L45.3637 58.9335C45.4531 59.1115 45.5003 59.3021 45.499 59.5339L47.499 59.5452ZM47.1509 58.0357L48.938 57.1379L48.5854 56.4359L46.7982 57.3337L45.011 58.2315L45.3637 58.9335L47.1509 58.0357ZM46.7982 57.3337L48.5854 56.4359L48.2328 55.734L46.4456 56.6317L44.6584 57.5295L45.011 58.2315L46.7982 57.3337ZM46.4456 56.6317L48.2328 55.734C48.2421 55.7526 48.2564 55.7865 48.2671 55.8339C48.278 55.8819 48.2827 55.9323 48.281 55.9809C48.2775 56.0817 48.2492 56.1187 48.2716 56.0756L46.4974 55.1525L44.7232 54.2293C44.1967 55.2412 44.0986 56.4151 44.6584 57.5295L46.4456 56.6317ZM46.4974 55.1525L48.2716 56.0756L48.676 55.2983L46.9018 54.3752L45.1276 53.4521L44.7232 54.2293L46.4974 55.1525ZM46.9018 54.3752L48.676 55.2983L49.0804 54.5211L47.3062 53.5979L45.532 52.6748L45.1276 53.4521L46.9018 54.3752ZM47.3062 53.5979L49.0804 54.5211C49.4641 53.7836 49.7093 52.9762 49.7172 52.1202L47.7172 52.1018L45.7173 52.0833C45.7164 52.1858 45.6875 52.3759 45.532 52.6748L47.3062 53.5979ZM47.7172 52.1018L49.7172 52.1202L49.7238 51.4014L47.7239 51.3829L45.724 51.3645L45.7173 52.0833L47.7172 52.1018ZM47.7239 51.3829L49.7238 51.4014L49.7304 50.6825L47.7305 50.6641L45.7306 50.6456L45.724 51.3645L47.7239 51.3829ZM47.7305 50.6641L49.7304 50.6825C49.7367 49.9973 49.6378 49.314 49.4521 48.6391L47.5238 49.1696L45.5954 49.7002C45.6942 50.0593 45.7331 50.3723 45.7306 50.6456L47.7305 50.6641ZM47.5238 49.1696L49.4521 48.6391L49.2387 47.8635L47.3104 48.3941L45.382 48.9246L45.5954 49.7002L47.5238 49.1696ZM47.3104 48.3941L49.2387 47.8635L49.0254 47.088L47.097 47.6185L45.1687 48.149L45.382 48.9246L47.3104 48.3941ZM47.097 47.6185L49.0254 47.088C49.0199 47.068 49.0197 47.0608 49.02 47.0647C49.0204 47.0691 49.0209 47.0807 49.019 47.0972C49.0171 47.1139 49.0134 47.1293 49.0094 47.1414C49.0055 47.1532 49.003 47.1566 49.0062 47.1509L47.2643 46.1682L45.5223 45.1856C44.9982 46.1147 44.8923 47.1445 45.1687 48.149L47.097 47.6185ZM47.2643 46.1682L49.0062 47.1509L49.3868 46.4761L47.6449 45.4935L45.9029 44.5109L45.5223 45.1856L47.2643 46.1682ZM47.6449 45.4935L49.3868 46.4761L49.7674 45.8014L48.0255 44.8188L46.2835 43.8361L45.9029 44.5109L47.6449 45.4935ZM48.0255 44.8188L49.7674 45.8014C50.2962 44.864 50.3867 43.8379 50.1686 42.8536L48.216 43.2864L46.2634 43.7192C46.2738 43.7663 46.2775 43.7996 46.2788 43.8204C46.28 43.8409 46.2788 43.8506 46.2787 43.8516C46.2786 43.8523 46.2791 43.8486 46.281 43.8428C46.2829 43.837 46.2845 43.8344 46.2835 43.8361L48.0255 44.8188ZM48.216 43.2864L50.1686 42.8536L49.9785 41.9959L48.0259 42.4287L46.0733 42.8615L46.2634 43.7192L48.216 43.2864ZM48.0259 42.4287L49.9785 41.9959L49.7884 41.1383L47.8358 41.5711L45.8832 42.0039L46.0733 42.8615L48.0259 42.4287ZM47.8358 41.5711L49.7884 41.1383C49.7898 41.1446 49.8133 41.2701 49.7512 41.4492C49.6881 41.631 49.5867 41.7241 49.5658 41.7409L48.3197 40.1765L47.0736 38.6121C46.6032 38.9868 46.1966 39.4914 45.9722 40.1379C45.7487 40.782 45.755 41.4258 45.8832 42.0039L47.8358 41.5711ZM48.3197 40.1765L49.5658 41.7409L50.2398 41.204L48.9937 39.6396L47.7476 38.0753L47.0736 38.6121L48.3197 40.1765ZM48.9937 39.6396L50.2398 41.204L50.9138 40.6671L49.6677 39.1027L48.4216 37.5384L47.7476 38.0753L48.9937 39.6396ZM49.6677 39.1027L50.9138 40.6671C51.8693 39.9059 52.3559 38.8193 52.2984 37.605L50.3006 37.6997L48.3029 37.7944C48.3035 37.8082 48.2999 37.7496 48.3398 37.6611C48.38 37.5721 48.4278 37.5334 48.4216 37.5384L49.6677 39.1027ZM50.3006 37.6997L52.2984 37.605L52.2573 36.7388L50.2596 36.8335L48.2618 36.9282L48.3029 37.7944L50.3006 37.6997ZM50.2596 36.8335L52.2573 36.7388L52.2163 35.8727L50.2185 35.9674L48.2208 36.062L48.2618 36.9282L50.2596 36.8335ZM50.2185 35.9674L52.2163 35.8727C52.2149 35.8435 52.2219 35.9005 52.1792 35.9974C52.1346 36.0989 52.0736 36.1578 52.052 36.1746L50.8206 34.5987L49.5892 33.0227C48.6126 33.7858 48.1649 34.884 48.2208 36.062L50.2185 35.9674ZM50.8206 34.5987L52.052 36.1746L52.6952 35.6721L51.4637 34.0961L50.2323 32.5202L49.5892 33.0227L50.8206 34.5987ZM51.4637 34.0961L52.6952 35.6721L53.3383 35.1695L52.1069 33.5936L50.8754 32.0176L50.2323 32.5202L51.4637 34.0961ZM52.1069 33.5936L53.3383 35.1695C53.8511 34.7688 54.3205 34.3359 54.7415 33.8692L53.2564 32.5296L51.7713 31.19C51.5171 31.4718 51.2201 31.7483 50.8754 32.0176L52.1069 33.5936ZM53.2564 32.5296L54.7415 33.8692L55.2479 33.3078L53.7628 31.9682L52.2777 30.6286L51.7713 31.19L53.2564 32.5296ZM53.7628 31.9682L55.2479 33.3078L55.7543 32.7464L54.2692 31.4068L52.7841 30.0672L52.2777 30.6286L53.7628 31.9682ZM54.2692 31.4068L55.7543 32.7464C56.2675 32.1775 56.657 31.5247 56.9281 30.8076L55.0573 30.1003L53.1866 29.393C53.082 29.6695 52.9461 29.8877 52.7841 30.0672L54.2692 31.4068ZM55.0573 30.1003L56.9281 30.8076L57.2098 30.0625L55.3391 29.3552L53.4683 28.6479L53.1866 29.393L55.0573 30.1003ZM55.3391 29.3552L57.2098 30.0625L57.4915 29.3174L55.6208 28.6101L53.75 27.9027L53.4683 28.6479L55.3391 29.3552ZM55.6208 28.6101L57.4915 29.3174C57.4857 29.3329 57.454 29.4008 57.3768 29.4712C57.3012 29.5402 57.2412 29.5575 57.2499 29.555L56.6892 27.6352L56.1285 25.7154C55.0216 26.0386 54.1674 26.799 53.75 27.9027L55.6208 28.6101ZM56.6892 27.6352L57.2499 29.555L58.0365 29.3253L57.4759 27.4055L56.9152 25.4856L56.1285 25.7154L56.6892 27.6352ZM57.4759 27.4055L58.0365 29.3253L58.8232 29.0955L58.2626 27.1757L57.7019 25.2559L56.9152 25.4856L57.4759 27.4055ZM58.2626 27.1757L58.8232 29.0955C59.4684 28.9071 60.0772 28.6622 60.6327 28.3472L59.6459 26.6075L58.6592 24.8679C58.419 25.0041 58.1056 25.138 57.7019 25.2559L58.2626 27.1757ZM59.6459 26.6075L60.6327 28.3472L61.2294 28.0087L60.2426 26.2691L59.2559 24.5294L58.6592 24.8679L59.6459 26.6075ZM60.2426 26.2691L61.2294 28.0087L61.8261 27.6703L60.8393 25.9306L59.8526 24.191L59.2559 24.5294L60.2426 26.2691ZM60.8393 25.9306L61.8261 27.6703C61.8453 27.6593 61.8565 27.6547 61.8597 27.6535C61.8627 27.6523 61.8593 27.6539 61.8501 27.6558C61.8407 27.6578 61.8287 27.6594 61.8153 27.6599C61.8019 27.6603 61.7908 27.6595 61.7834 27.6585L62.055 25.677L62.3266 23.6955C61.4363 23.5735 60.5924 23.7714 59.8526 24.191L60.8393 25.9306ZM62.055 25.677L61.7834 27.6585L62.4023 27.7433L62.6739 25.7618L62.9455 23.7804L62.3266 23.6955L62.055 25.677ZM62.6739 25.7618L62.4023 27.7433L63.0212 27.8281L63.2928 25.8467L63.5644 23.8652L62.9455 23.7804L62.6739 25.7618ZM63.2928 25.8467L63.0212 27.8281C63.3681 27.8757 63.8008 27.9539 64.3262 28.0677L64.7497 26.1131L65.1732 24.1584C64.5814 24.0302 64.0428 23.9308 63.5644 23.8652L63.2928 25.8467ZM64.7497 26.1131L64.3262 28.0677L65.1641 28.2493L65.5876 26.2946L66.0112 24.34L65.1732 24.1584L64.7497 26.1131ZM65.5876 26.2946L65.1641 28.2493L66.002 28.4308L66.4256 26.4762L66.8491 24.5216L66.0112 24.34L65.5876 26.2946ZM66.4256 26.4762L66.002 28.4308C65.9595 28.4216 65.5801 28.3235 65.3077 27.8838C65.1817 27.6805 65.1318 27.4831 65.1172 27.3381C65.1034 27.2022 65.1208 27.1202 65.122 27.1147L67.0784 27.5299L69.0349 27.945C69.1567 27.3707 69.1874 26.5509 68.7078 25.777C68.2177 24.9861 67.4502 24.6518 66.8491 24.5216L66.4256 26.4762ZM67.0784 27.5299L65.122 27.1147L64.937 27.9868L66.8934 28.4019L68.8499 28.817L69.0349 27.945L67.0784 27.5299ZM66.8934 28.4019L64.937 27.9868L64.7519 28.8589L66.7084 29.274L68.6648 29.6891L68.8499 28.817L66.8934 28.4019ZM66.7084 29.274L64.7519 28.8589C64.5816 29.6616 64.5499 30.4919 64.7428 31.3064L66.689 30.8454L68.6351 30.3845C68.6072 30.2665 68.5884 30.0491 68.6648 29.6891L66.7084 29.274ZM66.689 30.8454L64.7428 31.3064L64.9085 32.0058L66.8546 31.5448L68.8008 31.0839L68.6351 30.3845L66.689 30.8454ZM66.8546 31.5448L64.9085 32.0058L65.0741 32.7051L67.0203 32.2442L68.9664 31.7832L68.8008 31.0839L66.8546 31.5448ZM67.0203 32.2442L65.0741 32.7051C65.1207 32.9018 65.1273 33.0986 65.0894 33.3126L67.0587 33.6616L69.028 34.0105C69.1597 33.2672 69.1407 32.519 68.9664 31.7832L67.0203 32.2442ZM67.0587 33.6616L65.0894 33.3126L64.9621 34.0307L66.9315 34.3796L68.9008 34.7286L69.028 34.0105L67.0587 33.6616ZM66.9315 34.3796L64.9621 34.0307L64.8349 34.7487L66.8042 35.0977L68.7735 35.4466L68.9008 34.7286L66.9315 34.3796ZM66.8042 35.0977L64.8349 34.7487C64.7075 35.4677 64.7121 36.2043 64.8171 36.9421L66.7972 36.6604L68.7772 36.3787C68.722 35.9903 68.7313 35.685 68.7735 35.4466L66.8042 35.0977ZM66.7972 36.6604L64.8171 36.9421L64.9373 37.7868L66.9173 37.5051L68.8974 37.2234L68.7772 36.3787L66.7972 36.6604ZM66.9173 37.5051L64.9373 37.7868L65.0575 38.6315L67.0375 38.3498L69.0176 38.0681L68.8974 37.2234L66.9173 37.5051ZM67.0375 38.3498L65.0575 38.6315C65.0638 38.6759 65.0534 38.6524 65.0712 38.5892C65.0795 38.5598 65.0913 38.5314 65.105 38.5066C65.1185 38.4823 65.1299 38.4686 65.1329 38.4652L66.6313 39.7899L68.1297 41.1146C68.9001 40.2432 69.1734 39.1629 69.0176 38.0681L67.0375 38.3498ZM66.6313 39.7899L65.1329 38.4652L64.6065 39.0606L66.1049 40.3853L67.6033 41.71L68.1297 41.1146L66.6313 39.7899ZM66.1049 40.3853L64.6065 39.0606L64.0801 39.656L65.5785 40.9807L67.0769 42.3055L67.6033 41.71L66.1049 40.3853ZM65.5785 40.9807L64.0801 39.656C63.5765 40.2257 63.1817 40.8677 62.9101 41.5767L64.7777 42.2922L66.6454 43.0077C66.7395 42.762 66.8786 42.5297 67.0769 42.3055L65.5785 40.9807ZM64.7777 42.2922L62.9101 41.5767L62.6358 42.2928L64.5034 43.0083L66.371 43.7238L66.6454 43.0077L64.7777 42.2922ZM64.5034 43.0083L62.6358 42.2928L62.3614 43.0088L64.2291 43.7244L66.0967 44.4399L66.371 43.7238L64.5034 43.0083ZM64.2291 43.7244L62.3614 43.0088C62.3602 43.0121 62.3606 43.0104 62.3632 43.0062C62.3658 43.002 62.3678 42.9998 62.3673 43.0004C62.3666 43.0012 62.3603 43.0078 62.345 43.0193C62.3295 43.0309 62.3034 43.0484 62.2633 43.0694L63.1927 44.8404L64.122 46.6113C65.0043 46.1483 65.7183 45.4277 66.0967 44.4399L64.2291 43.7244ZM63.1927 44.8404L62.2633 43.0694L61.5012 43.4694L62.4306 45.2403L63.36 47.0113L64.122 46.6113L63.1927 44.8404ZM62.4306 45.2403L61.5012 43.4694L60.7391 43.8693L61.6685 45.6403L62.5979 47.4112L63.36 47.0113L62.4306 45.2403ZM61.6685 45.6403L60.7391 43.8693C60.0186 44.2475 59.3768 44.7491 58.8724 45.3988L60.4523 46.6252L62.0322 47.8516C62.1333 47.7213 62.3023 47.5663 62.5979 47.4112L61.6685 45.6403ZM60.4523 46.6252L58.8724 45.3988L58.4183 45.9838L59.9982 47.2102L61.5781 48.4366L62.0322 47.8516L60.4523 46.6252ZM59.9982 47.2102L58.4183 45.9838L57.9642 46.5688L59.5441 47.7952L61.124 49.0215L61.5781 48.4366L59.9982 47.2102ZM59.5441 47.7952L57.9642 46.5688C57.6486 46.9754 57.3395 47.3869 57.037 47.8031L58.655 48.9788L60.2729 50.1545C60.5505 49.7725 60.8342 49.3949 61.124 49.0215L59.5441 47.7952ZM58.655 48.9788L57.037 47.8031L56.602 48.4018L58.2199 49.5775L59.8378 50.7532L60.2729 50.1545L58.655 48.9788ZM58.2199 49.5775L56.602 48.4018L56.1669 49.0005L57.7849 50.1762L59.4028 51.3519L59.8378 50.7532L58.2199 49.5775ZM57.7849 50.1762L56.1669 49.0005C55.8353 49.4569 55.5267 49.9324 55.2409 50.4267L56.9723 51.4278L58.7037 52.4289C58.9213 52.0526 59.1543 51.6938 59.4028 51.3519L57.7849 50.1762ZM56.9723 51.4278L55.2409 50.4267L54.8634 51.0796L56.5948 52.0807L58.3262 53.0818L58.7037 52.4289L56.9723 51.4278ZM56.5948 52.0807L54.8634 51.0796L54.4858 51.7325L56.2172 52.7336L57.9487 53.7347L58.3262 53.0818L56.5948 52.0807ZM56.2172 52.7336L54.4858 51.7325C54.3498 51.9678 54.183 52.1661 53.98 52.3365L55.2661 53.8682L56.5522 55.3998C57.114 54.9281 57.5814 54.37 57.9487 53.7347L56.2172 52.7336ZM55.2661 53.8682L53.98 52.3365L53.4064 52.8182L54.6925 54.3498L55.9786 55.8815L56.5522 55.3998L55.2661 53.8682ZM54.6925 54.3498L53.4064 52.8182L52.8328 53.2998L54.1189 54.8315L55.405 56.3631L55.9786 55.8815L54.6925 54.3498ZM54.1189 54.8315L52.8328 53.2998C52.4026 53.661 51.992 54.0401 51.6014 54.437L53.0268 55.8399L54.4522 57.2428C54.7529 56.9373 55.0704 56.6441 55.405 56.3631L54.1189 54.8315ZM53.0268 55.8399L51.6014 54.437L51.0829 54.9638L52.5083 56.3668L53.9337 57.7697L54.4522 57.2428L53.0268 55.8399ZM52.5083 56.3668L51.0829 54.9638L50.5644 55.4907L51.9898 56.8936L53.4152 58.2965L53.9337 57.7697L52.5083 56.3668ZM51.9898 56.8936L50.5644 55.4907C50.1455 55.9163 49.7587 56.3757 49.4035 56.8673L51.0246 58.0386L52.6457 59.21C52.8861 58.8773 53.1427 58.5733 53.4152 58.2965L51.9898 56.8936ZM51.0246 58.0386L49.4035 56.8673L48.9568 57.4855L50.5779 58.6568L52.199 59.8282L52.6457 59.21L51.0246 58.0386ZM50.5779 58.6568L48.9568 57.4855L48.5101 58.1037L50.1312 59.275L51.7523 60.4464L52.199 59.8282L50.5779 58.6568ZM50.1312 59.275L48.5101 58.1037C48.1889 58.5482 47.8737 59.0125 47.5643 59.4962L49.249 60.574L50.9338 61.6517C51.2049 61.2279 51.4778 60.8262 51.7523 60.4464L50.1312 59.275ZM49.249 60.574L47.5643 59.4962L47.1288 60.1769L48.8136 61.2547L50.4983 62.3324L50.9338 61.6517L49.249 60.574ZM48.8136 61.2547L47.1288 60.1769L46.6933 60.8576L48.3781 61.9354L50.0629 63.0131L50.4983 62.3324L48.8136 61.2547ZM48.3781 61.9354L46.6933 60.8576C46.6825 60.8745 46.6766 60.8806 46.6773 60.8799C46.6775 60.8797 46.6788 60.8783 46.6813 60.8761C46.6838 60.8739 46.6869 60.8714 46.6905 60.8688C46.6942 60.8662 46.6977 60.8639 46.7009 60.8621C46.704 60.8603 46.7062 60.8592 46.7071 60.8588C46.7092 60.8579 46.7032 60.8609 46.686 60.8651L47.1627 62.8075L47.6394 64.7499C48.6615 64.499 49.4977 63.8966 50.0629 63.0131L48.3781 61.9354ZM47.1627 62.8075L46.686 60.8651L45.906 61.0566L46.3827 62.9989L46.8594 64.9413L47.6394 64.7499L47.1627 62.8075ZM46.3827 62.9989L45.906 61.0566L45.126 61.248L45.6027 63.1903L46.0794 65.1327L46.8594 64.9413L46.3827 62.9989ZM45.6027 63.1903L45.126 61.248C44.5445 61.3907 43.9843 61.5575 43.4469 61.7497L44.1202 63.6329L44.7936 65.5162C45.1927 65.3735 45.6209 65.2452 46.0794 65.1327L45.6027 63.1903ZM44.1202 63.6329L43.4469 61.7497L42.7444 62.0009L43.4178 63.8841L44.0912 65.7673L44.7936 65.5162L44.1202 63.6329ZM43.4178 63.8841L42.7444 62.0009L42.042 62.252L42.7154 64.1353L43.3888 66.0185L44.0912 65.7673L43.4178 63.8841ZM42.7154 64.1353L42.042 62.252C41.7987 62.339 41.5614 62.377 41.3191 62.3721L41.2791 64.3717L41.2391 66.3713C41.9752 66.3861 42.6955 66.2664 43.3888 66.0185L42.7154 64.1353ZM41.2791 64.3717L41.3191 62.3721L40.5852 62.3575L40.5452 64.3571L40.5052 66.3567L41.2391 66.3713L41.2791 64.3717ZM40.5452 64.3571L40.5852 62.3575L39.8513 62.3428L39.8113 64.3424L39.7713 66.342L40.5052 66.3567L40.5452 64.3571ZM39.8113 64.3424L39.8513 62.3428C38.9059 62.3239 38.0378 62.619 37.2781 63.0926L38.3361 64.7898L39.3941 66.487C39.6228 66.3445 39.7382 66.3413 39.7713 66.342L39.8113 64.3424ZM38.3361 64.7898L37.2781 63.0926L36.5368 63.5547L37.5948 65.2519L38.6528 66.9491L39.3941 66.487L38.3361 64.7898ZM37.5948 65.2519L36.5368 63.5547L35.7955 64.0168L36.8535 65.714L37.9115 67.4112L38.6528 66.9491L37.5948 65.2519ZM36.8535 65.714L35.7955 64.0168C35.7828 64.0247 35.8849 63.9591 36.0785 63.9543C36.2839 63.9493 36.434 64.0165 36.4951 64.055L35.4316 65.7488L34.3681 67.4426C34.883 67.7659 35.4969 67.9697 36.1763 67.9531C36.8439 67.9368 37.4301 67.7114 37.9115 67.4112L36.8535 65.714ZM35.4316 65.7488L36.4951 64.055L35.8145 63.6276L34.751 65.3214L33.6875 67.0152L34.3681 67.4426L35.4316 65.7488ZM34.751 65.3214L35.8145 63.6276L35.1339 63.2003L34.0704 64.8941L33.0069 66.5879L33.6875 67.0152L34.751 65.3214ZM34.0704 64.8941L35.1339 63.2003C34.6265 62.8816 34.1061 62.5886 33.5731 62.3213L32.6766 64.1091L31.78 65.8968C32.198 66.1065 32.6069 66.3367 33.0069 66.5879L34.0704 64.8941ZM32.6766 64.1091L33.5731 62.3213L32.8598 61.9636L31.9633 63.7514L31.0668 65.5392L31.78 65.8968L32.6766 64.1091ZM31.9633 63.7514L32.8598 61.9636L32.1466 61.6059L31.2501 63.3937L30.3535 65.1815L31.0668 65.5392L31.9633 63.7514ZM31.2501 63.3937L32.1466 61.6059C31.9874 61.5261 31.8865 61.431 31.8058 61.3041L30.1179 62.3769L28.43 63.4497C28.9078 64.2016 29.5617 64.7844 30.3535 65.1815L31.2501 63.3937ZM30.1179 62.3769L31.8058 61.3041L31.3869 60.6449L29.6989 61.7177L28.011 62.7905L28.43 63.4497L30.1179 62.3769ZM29.6989 61.7177L31.3869 60.6449L30.9679 59.9858L29.28 61.0586L27.5921 62.1314L28.011 62.7905L29.6989 61.7177ZM29.28 61.0586L30.9679 59.9858C30.7248 59.6033 30.5055 59.2156 30.3094 58.8224L28.5197 59.7153L26.7301 60.6081C26.9891 61.1272 27.2766 61.635 27.5921 62.1314L29.28 61.0586ZM28.5197 59.7153L30.3094 58.8224L29.968 58.1382L28.1784 59.031L26.3887 59.9239L26.7301 60.6081L28.5197 59.7153ZM28.1784 59.031L29.968 58.1382L29.6267 57.454L27.837 58.3468L26.0474 59.2397L26.3887 59.9239L28.1784 59.031ZM27.837 58.3468L29.6267 57.454C29.3854 56.9704 29.1344 56.495 28.8735 56.0279L27.1274 57.0031L25.3812 57.9783C25.6115 58.3905 25.8335 58.811 26.0474 59.2397L27.837 58.3468ZM27.1274 57.0031L28.8735 56.0279L28.5052 55.3683L26.759 56.3435L25.0129 57.3187L25.3812 57.9783L27.1274 57.0031ZM26.759 56.3435L28.5052 55.3683L28.1368 54.7088L26.3907 55.684L24.6445 56.6592L25.0129 57.3187L26.759 56.3435ZM26.3907 55.684L28.1368 54.7088C27.8767 54.243 27.6024 53.7765 27.3142 53.3093L25.612 54.3593L23.9098 55.4093C24.1687 55.829 24.4136 56.2456 24.6445 56.6592L26.3907 55.684ZM25.612 54.3593L27.3142 53.3093L26.9039 52.6441L25.2017 53.6941L23.4995 54.7442L23.9098 55.4093L25.612 54.3593ZM25.2017 53.6941L26.9039 52.6441L26.4935 51.979L24.7914 53.029L23.0892 54.079L23.4995 54.7442L25.2017 53.6941ZM24.7914 53.029L26.4935 51.979C26.4431 51.8973 26.4212 51.825 26.4294 51.7003L24.4338 51.568L22.4382 51.4357C22.3761 52.3721 22.5925 53.2739 23.0892 54.079L24.7914 53.029ZM24.4338 51.568L26.4294 51.7003L26.4822 50.9044L24.4866 50.7721L22.491 50.6398L22.4382 51.4357L24.4338 51.568ZM24.4866 50.7721L26.4822 50.9044L26.535 50.1085L24.5393 49.9762L22.5437 49.8439L22.491 50.6398L24.4866 50.7721ZM24.5393 49.9762L26.535 50.1085C26.5957 49.1924 26.3969 48.3122 25.9585 47.5102L24.2036 48.4695L22.4486 49.4287C22.5283 49.5745 22.5533 49.6989 22.5437 49.8439L24.5393 49.9762ZM24.2036 48.4695L25.9585 47.5102L25.57 46.7994L23.815 47.7586L22.0601 48.7179L22.4486 49.4287L24.2036 48.4695ZM23.815 47.7586L25.57 46.7994L25.1814 46.0885L23.4265 47.0478L21.6715 48.007L22.0601 48.7179L23.815 47.7586ZM23.4265 47.0478L25.1814 46.0885C25.2006 46.1236 25.2359 46.2139 25.235 46.335C25.2341 46.4492 25.2017 46.5006 25.2175 46.4699L23.4378 45.5572L21.6582 44.6445C21.1185 45.6969 21.0652 46.8978 21.6715 48.007L23.4265 47.0478ZM23.4378 45.5572L25.2175 46.4699L25.6174 45.6901L23.8378 44.7774L22.0581 43.8647L21.6582 44.6445L23.4378 45.5572ZM23.8378 44.7774L25.6174 45.6901L26.0173 44.9103L24.2377 43.9977L22.4581 43.085L22.0581 43.8647L23.8378 44.7774ZM24.2377 43.9977L26.0173 44.9103C26.407 44.1504 26.6403 43.3175 26.6209 42.4365L24.6213 42.4805L22.6218 42.5245C22.6241 42.6266 22.6015 42.8053 22.4581 43.085L24.2377 43.9977ZM24.6213 42.4805L26.6209 42.4365L26.6046 41.699L24.6051 41.743L22.6056 41.7871L22.6218 42.5245L24.6213 42.4805ZM24.6051 41.743L26.6046 41.699L26.5884 40.9616L24.5889 41.0056L22.5894 41.0496L22.6056 41.7871L24.6051 41.743ZM24.5889 41.0056L26.5884 40.9616C26.5808 40.6174 26.6109 40.2755 26.6793 39.9335L24.7183 39.5409L22.7572 39.1482C22.6315 39.776 22.5753 40.4107 22.5894 41.0496L24.5889 41.0056ZM24.7183 39.5409L26.6793 39.9335L26.825 39.2062L24.8639 38.8135L22.9028 38.4209L22.7572 39.1482L24.7183 39.5409ZM24.8639 38.8135L26.825 39.2062L26.9706 38.4788L25.0095 38.0862L23.0484 37.6936L22.9028 38.4209L24.8639 38.8135ZM25.0095 38.0862L26.9706 38.4788C27.1054 37.8055 27.1423 37.1222 27.085 36.4349L25.0919 36.6011L23.0988 36.7673C23.1258 37.0904 23.1078 37.3971 23.0484 37.6936L25.0095 38.0862ZM25.0919 36.6011L27.085 36.4349L27.0218 35.6772L25.0287 35.8434L23.0357 36.0096L23.0988 36.7673L25.0919 36.6011ZM25.0287 35.8434L27.0218 35.6772L26.9586 34.9195L24.9655 35.0857L22.9725 35.2519L23.0357 36.0096L25.0287 35.8434ZM24.9655 35.0857L26.9586 34.9195C26.9479 34.7908 26.9675 34.6834 27.0327 34.5562L25.2528 33.6441L23.473 32.7319C23.0708 33.5166 22.8989 34.3702 22.9725 35.2519L24.9655 35.0857ZM25.2528 33.6441L27.0327 34.5562L27.3832 33.8723L25.6033 32.9602L23.8234 32.048L23.473 32.7319L25.2528 33.6441ZM25.6033 32.9602L27.3832 33.8723L27.7337 33.1885L25.9538 32.2763L24.1739 31.3641L23.8234 32.048L25.6033 32.9602ZM25.9538 32.2763L27.7337 33.1885C28.0799 32.5128 28.2944 31.7912 28.3654 31.0348L26.3741 30.848L24.3829 30.6612C24.3607 30.8974 24.295 31.1279 24.1739 31.3641L25.9538 32.2763ZM26.3741 30.848L28.3654 31.0348L28.4352 30.2904L26.444 30.1036L24.4527 29.9168L24.3829 30.6612L26.3741 30.848ZM26.444 30.1036L28.4352 30.2904L28.5051 29.546L26.5138 29.3592L24.5226 29.1724L24.4527 29.9168L26.444 30.1036ZM26.5138 29.3592L28.5051 29.546C28.5581 28.9803 28.5824 28.4042 28.5787 27.8182L26.5787 27.8308L24.5787 27.8435C24.5816 28.3027 24.5626 28.7455 24.5226 29.1724L26.5138 29.3592ZM26.5787 27.8308L28.5787 27.8182L28.5737 27.0342L26.5737 27.0469L24.5738 27.0596L24.5787 27.8435L26.5787 27.8308ZM26.5737 27.0469L28.5737 27.0342L28.5687 26.2503L26.5688 26.2629L24.5688 26.2756L24.5738 27.0596L26.5737 27.0469ZM26.5688 26.2629L28.5687 26.2503C28.5676 26.0659 28.6069 25.9294 28.6791 25.8018L26.9383 24.817L25.1976 23.8322C24.7704 24.5872 24.5633 25.4147 24.5688 26.2756L26.5688 26.2629ZM26.9383 24.817L28.6791 25.8018L29.0536 25.1398L27.3129 24.155L25.5722 23.1701L25.1976 23.8322L26.9383 24.817ZM27.3129 24.155L29.0536 25.1398L29.4281 24.4778L27.6874 23.493L25.9467 22.5081L25.5722 23.1701L27.3129 24.155ZM27.6874 23.493L29.4281 24.4778C29.7081 23.9829 29.9632 23.4788 30.1931 22.9656L28.3678 22.1481L26.5425 21.3306C26.3646 21.7278 26.1661 22.1203 25.9467 22.5081L27.6874 23.493ZM28.3678 22.1481L30.1931 22.9656L30.4989 22.2827L28.6736 21.4652L26.8484 20.6477L26.5425 21.3306L28.3678 22.1481ZM28.6736 21.4652L30.4989 22.2827L30.8048 21.5999L28.9795 20.7824L27.1542 19.9648L26.8484 20.6477L28.6736 21.4652ZM28.9795 20.7824L30.8048 21.5999C30.9995 21.165 31.2012 20.7343 31.4096 20.3079L29.6128 19.4295L27.816 18.5512C27.5878 19.018 27.3672 19.4892 27.1542 19.9648L28.9795 20.7824ZM29.6128 19.4295L31.4096 20.3079L31.7371 19.6379L29.9403 18.7596L28.1435 17.8812L27.816 18.5512L29.6128 19.4295ZM29.9403 18.7596L31.7371 19.6379L32.0646 18.9679L30.2678 18.0896L28.471 17.2113L28.1435 17.8812L29.9403 18.7596ZM30.2678 18.0896L32.0646 18.9679C32.4234 18.2339 32.5953 17.4451 32.6155 16.6361L30.6161 16.5862L28.6167 16.5363C28.6092 16.8386 28.5488 17.052 28.471 17.2113L30.2678 18.0896ZM30.6161 16.5862L32.6155 16.6361L32.6363 15.8025L30.6369 15.7527L28.6375 15.7028L28.6167 16.5363L30.6161 16.5862ZM30.6369 15.7527L32.6363 15.8025L32.6571 14.969L30.6577 14.9192L28.6583 14.8693L28.6375 15.7028L30.6369 15.7527ZM30.6577 14.9192L32.6571 14.969C32.6577 14.9425 32.6602 14.9307 32.6602 14.9307C32.6603 14.9305 32.6598 14.9327 32.6585 14.9369C32.6572 14.9411 32.6552 14.9465 32.6524 14.953C32.6465 14.9666 32.6392 14.9793 32.6321 14.9893C32.6252 14.9991 32.6219 15.0014 32.6266 14.997L31.2537 13.5426L29.8808 12.0883C29.087 12.8377 28.6847 13.8127 28.6583 14.8693L30.6577 14.9192ZM31.2537 13.5426L32.6266 14.997L33.2019 14.4539L31.829 12.9996L30.456 11.5453L29.8808 12.0883L31.2537 13.5426ZM31.829 12.9996L33.2019 14.4539L33.7771 13.9109L32.4042 12.4566L31.0313 11.0022L30.456 11.5453L31.829 12.9996ZM32.4042 12.4566L33.7771 13.9109C34.41 13.3134 34.8649 12.5852 35.1248 11.7549L33.2161 11.1574L31.3075 10.5599C31.2518 10.7378 31.1653 10.8757 31.0313 11.0022L32.4042 12.4566ZM33.2161 11.1574L35.1248 11.7549L35.3615 10.9987L33.4528 10.4012L31.5442 9.80369L31.3075 10.5599L33.2161 11.1574ZM33.4528 10.4012L35.3615 10.9987L35.5982 10.2425L33.6896 9.64503L31.7809 9.04753L31.5442 9.80369L33.4528 10.4012ZM33.6896 9.64503L35.5982 10.2425C35.593 10.2592 35.5809 10.2909 35.5571 10.3304C35.5329 10.3704 35.5024 10.409 35.468 10.4424C35.3961 10.5123 35.3488 10.5207 35.3904 10.5067L34.7532 8.61092L34.116 6.71515C33.0286 7.08063 32.1515 7.86366 31.7809 9.04753L33.6896 9.64503ZM34.7532 8.61092L35.3904 10.5067L36.2173 10.2288L35.5801 8.33298L34.9429 6.4372L34.116 6.71515L34.7532 8.61092ZM35.5801 8.33298L36.2173 10.2288L37.0442 9.95082L36.407 8.05504L35.7698 6.15926L34.9429 6.4372L35.5801 8.33298ZM36.407 8.05504L37.0442 9.95082C38.2566 9.5433 39.0766 8.62485 39.4006 7.4258L37.4699 6.90401L35.5392 6.38222C35.5316 6.41012 35.5435 6.35096 35.6168 6.27149C35.6508 6.23471 35.687 6.20586 35.7195 6.18539C35.7512 6.16548 35.7708 6.15892 35.7698 6.15926L36.407 8.05504ZM37.4699 6.90401L39.4006 7.4258L39.6366 6.55272L37.7059 6.03093L35.7751 5.50914L35.5392 6.38222L37.4699 6.90401ZM37.7059 6.03093L39.6366 6.55272L39.8725 5.67963L37.9418 5.15784L36.0111 4.63605L35.7751 5.50914L37.7059 6.03093ZM37.9418 5.15784L39.8725 5.67963C39.8833 5.63991 39.8693 5.71865 39.7687 5.82502C39.6601 5.93985 39.5398 5.99259 39.4779 6.00902L38.965 4.0759L38.4521 2.14278C37.1489 2.48853 36.33 3.45615 36.0111 4.63605L37.9418 5.15784ZM38.965 4.0759L39.4779 6.00902L40.2651 5.80017L39.7522 3.86704L39.2394 1.93392L38.4521 2.14278L38.965 4.0759ZM39.7522 3.86704L40.2651 5.80017L41.0523 5.59131L40.5394 3.65819L40.0266 1.72506L39.2394 1.93392L39.7522 3.86704ZM40.5394 3.65819L41.0523 5.59131C41.7576 5.40419 42.4288 5.12149 43.0625 4.74923L42.0496 3.02471L41.0367 1.30019C40.7065 1.49409 40.3709 1.63371 40.0266 1.72506L40.5394 3.65819ZM42.0496 3.02471L43.0625 4.74923L43.7854 4.32461L42.7725 2.6001L41.7596 0.875576L41.0367 1.30019L42.0496 3.02471ZM42.7725 2.6001L43.7854 4.32461L44.5083 3.9L43.4954 2.17548L42.4825 0.45096L41.7596 0.875576L42.7725 2.6001ZM43.4954 2.17548L44.5083 3.9C44.4394 3.94051 44.2365 4.02756 43.9567 3.99198C43.6952 3.95872 43.5686 3.84347 43.5827 3.85587L44.9042 2.35465L46.2257 0.853429C45.7825 0.463298 45.1926 0.116932 44.4614 0.0239428C43.712 -0.0713588 43.0334 0.127367 42.4825 0.45096L43.4954 2.17548ZM44.9042 2.35465L43.5827 3.85587L44.2686 4.45965L45.5901 2.95843L46.9116 1.45721L46.2257 0.853429L44.9042 2.35465ZM45.5901 2.95843L44.2686 4.45965L44.9545 5.06344L46.276 3.56222L47.5975 2.061L46.9116 1.45721L45.5901 2.95843ZM46.276 3.56222L44.9545 5.06344C45.7075 5.72624 46.6235 6.14955 47.6659 6.21086L47.7833 4.2143L47.9007 2.21775C47.848 2.21465 47.7591 2.20324 47.5975 2.061L46.276 3.56222ZM47.7833 4.2143L47.6659 6.21086L48.4872 6.25916L48.6046 4.26261L48.722 2.26605L47.9007 2.21775L47.7833 4.2143ZM48.6046 4.26261L48.4872 6.25916L49.3085 6.30746L49.4259 4.31091L49.5434 2.31436L48.722 2.26605L48.6046 4.26261ZM49.4259 4.31091L49.3085 6.30746C49.2506 6.30405 48.9722 6.26861 48.6976 6.00981C48.4266 5.7544 48.3789 5.48802 48.3738 5.44963L50.3566 5.18804L52.3394 4.92646C52.2615 4.33551 52.0222 3.64665 51.441 3.09888C50.8562 2.5477 50.1488 2.34996 49.5434 2.31436L49.4259 4.31091ZM50.3566 5.18804L48.3738 5.44963L48.4832 6.27846L50.466 6.01688L52.4488 5.75529L52.3394 4.92646L50.3566 5.18804ZM50.466 6.01688L48.4832 6.27846L48.5925 7.1073L50.5753 6.84571L52.5581 6.58413L52.4488 5.75529L50.466 6.01688ZM50.5753 6.84571L48.5925 7.1073C48.7354 8.19089 49.2721 9.10175 50.0911 9.77878L51.3654 8.23728L52.6397 6.69577C52.6092 6.67054 52.591 6.65142 52.581 6.63974C52.5713 6.62833 52.5676 6.62199 52.5667 6.62054C52.566 6.61922 52.5654 6.6181 52.5645 6.61532C52.5635 6.61235 52.5606 6.60281 52.5581 6.58413L50.5753 6.84571ZM51.3654 8.23728L50.0911 9.77878L50.7719 10.3415L52.0462 8.80001L53.3204 7.2585L52.6397 6.69577L51.3654 8.23728ZM52.0462 8.80001L50.7719 10.3415L51.4526 10.9042L52.7269 9.36274L54.0012 7.82123L53.3204 7.2585L52.0462 8.80001ZM52.7269 9.36274L51.4526 10.9042C51.4861 10.9319 51.4393 10.9025 51.394 10.8012C51.3722 10.7527 51.357 10.7007 51.349 10.65C51.3411 10.6001 51.3422 10.563 51.3439 10.544L53.3358 10.7234L55.3277 10.9027C55.4416 9.63871 54.9022 8.56608 54.0012 7.82123L52.7269 9.36274ZM53.3358 10.7234L51.3439 10.544L51.272 11.3419L53.264 11.5212L55.2559 11.7006L55.3277 10.9027L53.3358 10.7234ZM53.264 11.5212L51.272 11.3419L51.2002 12.1398L53.1921 12.3191L55.1841 12.4985L55.2559 11.7006L53.264 11.5212ZM53.1921 12.3191L51.2002 12.1398C51.1863 12.2937 51.1391 12.4228 51.0331 12.5634L52.6303 13.7672L54.2274 14.9709C54.7748 14.2447 55.1022 13.4083 55.1841 12.4985L53.1921 12.3191ZM52.6303 13.7672L51.0331 12.5634L50.5431 13.2136L52.1402 14.4174L53.7374 15.6211L54.2274 14.9709L52.6303 13.7672ZM52.1402 14.4174L50.5431 13.2136L50.053 13.8638L51.6502 15.0675L53.2474 16.2713L53.7374 15.6211L52.1402 14.4174ZM51.6502 15.0675L50.053 13.8638C49.4504 14.6634 49.1548 15.6013 49.1902 16.602L51.1889 16.5314L53.1877 16.4607C53.1847 16.3766 53.1967 16.3385 53.2474 16.2713L51.6502 15.0675ZM51.1889 16.5314L49.1902 16.602L49.2189 17.4157L51.2177 17.345L53.2165 17.2744L53.1877 16.4607L51.1889 16.5314ZM51.2177 17.345L49.2189 17.4157L49.2477 18.2293L51.2465 18.1587L53.2452 18.0881L53.2165 17.2744L51.2177 17.345ZM51.2465 18.1587L49.2477 18.2293C49.2564 18.4763 49.2127 18.659 49.1408 18.812L50.951 19.6624L52.7612 20.5129C53.1216 19.7458 53.2748 18.926 53.2452 18.0881L51.2465 18.1587ZM50.951 19.6624L49.1408 18.812L48.8166 19.502L50.6268 20.3525L52.437 21.2029L52.7612 20.5129L50.951 19.6624ZM50.6268 20.3525L48.8166 19.502L48.4924 20.1921L50.3026 21.0425L52.1128 21.893L52.437 21.2029L50.6268 20.3525ZM50.3026 21.0425L48.4924 20.1921C48.3776 20.4366 48.2226 20.6578 48.0174 20.8617L49.4271 22.2804L50.8368 23.6992C51.3667 23.1726 51.7954 22.5685 52.1128 21.893L50.3026 21.0425ZM49.4271 22.2804L48.0174 20.8617L47.466 21.4095L48.8757 22.8283L50.2854 24.247L50.8368 23.6992L49.4271 22.2804ZM48.8757 22.8283L47.466 21.4095L46.9147 21.9574L48.3244 23.3761L49.7341 24.7948L50.2854 24.247L48.8757 22.8283ZM48.3244 23.3761L46.9147 21.9574C46.4251 22.4438 46.0061 22.9846 45.6645 23.5786L47.3983 24.5756L49.1321 25.5726C49.2902 25.2977 49.4885 25.0388 49.7341 24.7948L48.3244 23.3761ZM47.3983 24.5756L45.6645 23.5786L45.2898 24.2303L47.0236 25.2273L48.7574 26.2243L49.1321 25.5726L47.3983 24.5756ZM47.0236 25.2273L45.2898 24.2303L44.915 24.882L46.6488 25.879L48.3826 26.8759L48.7574 26.2243L47.0236 25.2273ZM46.6488 25.879L44.915 24.882C44.7999 25.0823 44.6449 25.2635 44.431 25.4294L45.6573 27.0094L46.8835 28.5894C47.4921 28.117 47.9981 27.5446 48.3826 26.8759L46.6488 25.879ZM45.6573 27.0094L44.431 25.4294L43.8142 25.9082L45.0404 27.4881L46.2667 29.0681L46.8835 28.5894L45.6573 27.0094ZM45.0404 27.4881L43.8142 25.9082L43.1974 26.3869L44.4236 27.9669L45.6499 29.5468L46.2667 29.0681L45.0404 27.4881ZM44.4236 27.9669L43.1974 26.3869C42.2889 27.092 41.8309 28.0847 41.7371 29.1456L43.7294 29.3216L45.7216 29.4976C45.7282 29.4229 45.7402 29.4206 45.7215 29.457C45.7128 29.4741 45.7004 29.4934 45.685 29.5118C45.6697 29.5302 45.6565 29.5416 45.6499 29.5468L44.4236 27.9669ZM43.7294 29.3216L41.7371 29.1456L41.6598 30.0216L43.652 30.1976L45.6442 30.3736L45.7216 29.4976L43.7294 29.3216ZM43.652 30.1976L41.6598 30.0216L41.5824 30.8976L43.5746 31.0736L45.5668 31.2496L45.6442 30.3736L43.652 30.1976ZM43.5746 31.0736L41.5824 30.8976C41.585 30.868 41.6098 30.7127 41.7473 30.5427C41.8104 30.4646 41.8776 30.4089 41.9339 30.3724C41.9881 30.3374 42.0227 30.3263 42.0217 30.3266L42.6407 32.2284L43.2598 34.1302C43.834 33.9432 44.4113 33.6097 44.8576 33.0579C45.3063 32.503 45.5126 31.8631 45.5668 31.2496L43.5746 31.0736ZM42.6407 32.2284L42.0217 30.3266L41.1652 30.6054L41.7843 32.5072L42.4033 34.4089L43.2598 34.1302L42.6407 32.2284ZM41.7843 32.5072L41.1652 30.6054L40.3087 30.8842L40.9278 32.786L41.5468 34.6877L42.4033 34.4089L41.7843 32.5072ZM40.9278 32.786L40.3087 30.8842C39.746 31.0673 39.1897 31.3848 38.7447 31.8941C38.2967 32.4067 38.0547 33.0071 37.9579 33.6061L39.9323 33.9251L41.9067 34.2442C41.9026 34.2696 41.8728 34.3933 41.7567 34.5262C41.6434 34.6558 41.5385 34.6904 41.5468 34.6877L40.9278 32.786ZM39.9323 33.9251L37.9579 33.6061L37.8189 34.4665L39.7933 34.7855L41.7676 35.1046L41.9067 34.2442L39.9323 33.9251ZM39.7933 34.7855L37.8189 34.4665L37.6798 35.3269L39.6542 35.6459L41.6286 35.965L41.7676 35.1046L39.7933 34.7855ZM39.6542 35.6459L37.6798 35.3269C37.6462 35.5348 37.5918 35.5718 37.5916 35.5719L38.9647 37.0261L40.3378 38.4803C41.0716 37.7874 41.4769 36.9043 41.6286 35.965L39.6542 35.6459ZM38.9647 37.0261L37.5916 35.5719L37.0411 36.0917L38.4142 37.5459L39.7872 39.0001L40.3378 38.4803L38.9647 37.0261ZM38.4142 37.5459L37.0411 36.0917L36.4906 36.6116L37.8636 38.0658L39.2367 39.52L39.7872 39.0001L38.4142 37.5459ZM37.8636 38.0658L36.4906 36.6116C36.1995 36.8864 35.886 37.1395 35.5491 37.371L36.6818 39.0194L37.8144 40.6678C38.3193 40.3208 38.7938 39.9381 39.2367 39.52L37.8636 38.0658ZM36.6818 39.0194L35.5491 37.371L34.9177 37.8049L36.0504 39.4532L37.183 41.1016L37.8144 40.6678L36.6818 39.0194ZM36.0504 39.4532L34.9177 37.8049L34.2864 38.2387L35.419 39.8871L36.5517 41.5354L37.183 41.1016L36.0504 39.4532ZM35.419 39.8871L34.2864 38.2387C33.614 38.7007 33.0704 39.2952 32.6637 39.9997L34.3957 40.9997L36.1277 41.9998C36.2436 41.7991 36.3822 41.6519 36.5517 41.5354L35.419 39.8871ZM34.3957 40.9997L32.6637 39.9997L32.2717 40.6785L34.0037 41.6786L35.7357 42.6786L36.1277 41.9998L34.3957 40.9997ZM34.0037 41.6786L32.2717 40.6785L31.8798 41.3573L33.6118 42.3574L35.3438 43.3575L35.7357 42.6786L34.0037 41.6786ZM33.6118 42.3574L31.8798 41.3573C31.7752 41.5385 31.6526 41.6629 31.5013 41.7591L32.5749 43.4465L33.6485 45.134C34.3571 44.6831 34.9258 44.0814 35.3438 43.3575L33.6118 42.3574ZM32.5749 43.4465L31.5013 41.7591L30.8564 42.1694L31.93 43.8568L33.0036 45.5443L33.6485 45.134L32.5749 43.4465ZM31.93 43.8568L30.8564 42.1694L30.2115 42.5797L31.2851 44.2672L32.3587 45.9546L33.0036 45.5443L31.93 43.8568ZM31.2851 44.2672L30.2115 42.5797C29.5348 43.0103 28.9742 43.571 28.5322 44.2372L30.1989 45.3428L31.8655 46.4483C32.012 46.2275 32.1755 46.0711 32.3587 45.9546L31.2851 44.2672ZM30.1989 45.3428L28.5322 44.2372L28.0909 44.9025L29.7575 46.0081L31.4242 47.1136L31.8655 46.4483L30.1989 45.3428ZM29.7575 46.0081L28.0909 44.9025L27.6496 45.5678L29.3162 46.6734L30.9829 47.779L31.4242 47.1136L29.7575 46.0081ZM29.3162 46.6734L27.6496 45.5678C27.6649 45.5447 27.6928 45.509 27.7362 45.4704C27.78 45.4314 27.8291 45.3988 27.8787 45.3746C27.9802 45.325 28.0288 45.3361 27.9659 45.3359L27.9598 47.3359L27.9537 49.3359C29.1214 49.3395 30.2576 48.8723 30.9829 47.779L29.3162 46.6734ZM27.9598 47.3359L27.9659 45.3359L27.0508 45.3331L27.0447 47.3331L27.0386 49.3331L27.9537 49.3359L27.9598 47.3359ZM27.0447 47.3331L27.0508 45.3331L26.1358 45.3303L26.1296 47.3303L26.1235 49.3303L27.0386 49.3331L27.0447 47.3331ZM26.1296 47.3303L26.1358 45.3303C25.5378 45.3284 24.908 45.4579 24.3243 45.8014C23.7378 46.1464 23.3158 46.6381 23.0296 47.1755L24.795 48.1155L26.5604 49.0554C26.5539 49.0675 26.4942 49.1656 26.3526 49.249C26.2137 49.3307 26.1114 49.3302 26.1235 49.3303L26.1296 47.3303ZM24.795 48.1155L23.0296 47.1755L22.6101 47.9635L24.3754 48.9035L26.1408 49.8434L26.5604 49.0554L24.795 48.1155ZM24.3754 48.9035L22.6101 47.9635L22.1905 48.7515L23.9559 49.6915L25.7213 50.6314L26.1408 49.8434L24.3754 48.9035ZM23.9559 49.6915L22.1905 48.7515C22.199 48.7356 22.2949 48.5719 22.5378 48.4518C22.7831 48.3305 22.9787 48.3523 23.0107 48.3579L22.6678 50.3283L22.3248 52.2987C22.9359 52.405 23.6358 52.3711 24.3104 52.0375C24.9827 51.7052 25.4331 51.1727 25.7213 50.6314L23.9559 49.6915ZM22.6678 50.3283L23.0107 48.3579L22.1421 48.2067L21.7991 50.1771L21.4562 52.1475L22.3248 52.2987L22.6678 50.3283ZM21.7991 50.1771L22.1421 48.2067L21.2735 48.0556L20.9305 50.0259L20.5876 51.9963L21.4562 52.1475L21.7991 50.1771ZM20.9305 50.0259L21.2735 48.0556C20.5617 47.9317 19.8551 47.8855 19.1736 47.954L19.3736 49.9439L19.5735 51.9339C19.8098 51.9102 20.1413 51.9186 20.5876 51.9963L20.9305 50.0259ZM19.3736 49.9439L19.1736 47.954L18.4852 48.0231L18.6852 50.0131L18.8852 52.0031L19.5735 51.9339L19.3736 49.9439ZM18.6852 50.0131L18.4852 48.0231L17.7969 48.0923L17.9968 50.0823L18.1968 52.0723L18.8852 52.0031L18.6852 50.0131ZM17.9968 50.0823L17.7969 48.0923C17.2617 48.1461 16.7229 48.2313 16.1809 48.3466L16.5972 50.3028L17.0134 52.259C17.4198 52.1725 17.8141 52.1107 18.1968 52.0723L17.9968 50.0823ZM16.5972 50.3028L16.1809 48.3466L15.4696 48.498L15.8859 50.4542L16.3022 52.4104L17.0134 52.259L16.5972 50.3028ZM15.8859 50.4542L15.4696 48.498L14.7584 48.6493L15.1746 50.6055L15.5909 52.5617L16.3022 52.4104L15.8859 50.4542ZM15.1746 50.6055L14.7584 48.6493C14.7532 48.6504 14.7891 48.6429 14.8487 48.6538C14.876 48.6587 14.9004 48.6662 14.92 48.6741C14.9294 48.6779 14.9367 48.6814 14.9418 48.6841C14.9469 48.6868 14.9494 48.6884 14.9493 48.6884L13.8613 50.3665L12.7732 52.0447C13.6261 52.5976 14.6061 52.7713 15.5909 52.5617L15.1746 50.6055ZM13.8613 50.3665L14.9493 48.6884L14.3473 48.298L13.2592 49.9762L12.1712 51.6543L12.7732 52.0447L13.8613 50.3665ZM13.2592 49.9762L14.3473 48.298L13.7452 47.9077L12.6572 49.5858L11.5691 51.264L12.1712 51.6543L13.2592 49.9762ZM12.6572 49.5858L13.7452 47.9077C13.5777 47.7991 13.4368 47.6616 13.315 47.4785L11.6499 48.5864L9.98474 49.6942C10.4032 50.3232 10.9339 50.8521 11.5691 51.264L12.6572 49.5858ZM11.6499 48.5864L13.315 47.4785L12.9097 46.8694L11.2446 47.9773L9.57947 49.0851L9.98474 49.6942L11.6499 48.5864ZM11.2446 47.9773L12.9097 46.8694L12.5044 46.2603L10.8393 47.3681L9.17419 48.476L9.57947 49.0851L11.2446 47.9773ZM10.8393 47.3681L12.5044 46.2603C12.2532 45.8827 12.0127 45.5002 11.783 45.113L10.0629 46.1335L8.34288 47.154C8.60795 47.6008 8.88507 48.0415 9.17419 48.476L10.8393 47.3681ZM10.0629 46.1335L11.783 45.113L11.4118 44.4875L9.69179 45.508L7.97175 46.5285L8.34288 47.154L10.0629 46.1335ZM9.69179 45.508L11.4118 44.4875L11.0407 43.862L9.32067 44.8825L7.60063 45.903L7.97175 46.5285L9.69179 45.508ZM9.32067 44.8825L11.0407 43.862C10.6369 43.1814 10.0941 42.6166 9.45726 42.1572L8.28719 43.7792L7.11712 45.4012C7.36341 45.5789 7.50957 45.7495 7.60063 45.903L9.32067 44.8825ZM8.28719 43.7792L9.45726 42.1572L8.7949 41.6794L7.62483 43.3014L6.45476 44.9234L7.11712 45.4012L8.28719 43.7792ZM7.62483 43.3014L8.7949 41.6794L8.13255 41.2016L6.96248 42.8236L5.7924 44.4456L6.45476 44.9234L7.62483 43.3014ZM6.96248 42.8236L8.13255 41.2016C8.14615 41.2114 8.21851 41.271 8.27657 41.3915C8.33424 41.5113 8.33415 41.6006 8.33382 41.6082L6.33568 41.5219L4.33754 41.4357C4.28515 42.6495 4.79855 43.7287 5.7924 44.4456L6.96248 42.8236ZM6.33568 41.5219L8.33382 41.6082L8.36939 40.7843L6.37125 40.698L4.37311 40.6118L4.33754 41.4357L6.33568 41.5219ZM6.37125 40.698L8.36939 40.7843L8.40495 39.9604L6.40681 39.8742L4.40867 39.7879L4.37311 40.6118L6.37125 40.698ZM6.40681 39.8742L8.40495 39.9604C8.43885 39.1752 8.33397 38.3976 8.05142 37.6578L6.18308 38.3715L4.31474 39.0852C4.37791 39.2505 4.42219 39.4747 4.40867 39.7879L6.40681 39.8742ZM6.18308 38.3715L8.05142 37.6578L7.79212 36.979L5.92378 37.6927L4.05545 38.4063L4.31474 39.0852L6.18308 38.3715ZM5.92378 37.6927L7.79212 36.979L7.53283 36.3002L5.66449 37.0139L3.79615 37.7275L4.05545 38.4063L5.92378 37.6927ZM5.66449 37.0139L7.53283 36.3002C7.23669 35.5249 6.75415 34.8569 6.16923 34.2855L4.77163 35.7161L3.37403 37.1467C3.63386 37.4006 3.74656 37.5977 3.79615 37.7275L5.66449 37.0139ZM4.77163 35.7161L6.16923 34.2855L5.53566 33.6665L4.13806 35.0972L2.74046 36.5278L3.37403 37.1467L4.77163 35.7161ZM4.13806 35.0972L5.53566 33.6665L4.90209 33.0476L3.50449 34.4782L2.10689 35.9089L2.74046 36.5278L4.13806 35.0972ZM3.50449 34.4782L4.90209 33.0476C4.88266 33.0286 4.94694 33.0857 4.99045 33.2271C5.03652 33.3767 5.02227 33.5004 5.00976 33.5504L3.06952 33.0652L1.12928 32.5799C0.807852 33.8651 1.22669 35.049 2.10689 35.9089L3.50449 34.4782ZM3.06952 33.0652L5.00976 33.5504L5.20836 32.7563L3.26812 32.2711L1.32788 31.7858L1.12928 32.5799L3.06952 33.0652ZM3.26812 32.2711L5.20836 32.7563L5.40696 31.9623L3.46672 31.477L1.52648 30.9917L1.32788 31.7858L3.26812 32.2711ZM3.46672 31.477L5.40696 31.9623C5.65298 30.9786 5.55134 29.9869 5.10446 29.0734L3.30788 29.9522L1.51129 30.831C1.53369 30.8767 1.53638 30.8992 1.53708 30.906C1.5378 30.9129 1.53997 30.9378 1.52648 30.9917L3.46672 31.477ZM3.30788 29.9522L5.10446 29.0734L4.74701 28.3426L2.95043 29.2214L1.15385 30.1002L1.51129 30.831L3.30788 29.9522ZM2.95043 29.2214L4.74701 28.3426L4.38956 27.6118L2.59298 28.4906L0.796398 29.3694L1.15385 30.1002L2.95043 29.2214ZM2.59298 28.4906L4.38956 27.6118C4.25057 27.3277 4.17622 27.0582 4.15038 26.795L2.15996 26.9906L0.169538 27.1861C0.244457 27.9487 0.458791 28.6793 0.796398 29.3694L2.59298 28.4906ZM2.15996 26.9906L4.15038 26.795L4.0748 26.0257L2.08438 26.2213L0.0939629 26.4168L0.169538 27.1861L2.15996 26.9906ZM2.08438 26.2213L4.0748 26.0257L3.99923 25.2564L2.00881 25.4519L0.0183875 25.6475L0.0939629 26.4168L2.08438 26.2213ZM2.00881 25.4519L3.99923 25.2564C4.00054 25.2698 4.00079 25.2882 3.99829 25.309C3.99581 25.3297 3.99152 25.3452 3.98864 25.3535C3.98271 25.3706 3.99037 25.3363 4.05942 25.2532L2.52112 23.9751L0.982811 22.6969C0.319112 23.4957 -0.0940357 24.5031 0.0183875 25.6475L2.00881 25.4519ZM2.52112 23.9751L4.05942 25.2532L4.64731 24.5456L3.109 23.2675L1.5707 21.9894L0.982811 22.6969L2.52112 23.9751ZM3.109 23.2675L4.64731 24.5456L5.23519 23.8381L3.69689 22.56L2.15858 21.2818L1.5707 21.9894L3.109 23.2675ZM3.69689 22.56L5.23519 23.8381C5.83727 23.1134 6.27058 22.2262 6.31463 21.1992L4.31646 21.1135L2.3183 21.0278C2.31875 21.0174 2.32143 21.024 2.30728 21.0571C2.29145 21.094 2.25165 21.1698 2.15858 21.2818L3.69689 22.56ZM4.31646 21.1135L6.31463 21.1992L6.34632 20.4602L4.34815 20.3746L2.34999 20.2889L2.3183 21.0278L4.31646 21.1135ZM4.34815 20.3746L6.34632 20.4602L6.37801 19.7213L4.37984 19.6356L2.38168 19.5499L2.34999 20.2889L4.34815 20.3746ZM4.37984 19.6356L6.37801 19.7213C6.39909 19.2297 6.42079 18.7323 6.44309 18.2292L4.44505 18.1406L2.44702 18.0521C2.42463 18.557 2.40285 19.0563 2.38168 19.5499L4.37984 19.6356ZM4.44505 18.1406L6.44309 18.2292L6.47661 17.4732L4.47857 17.3846L2.48054 17.296L2.44702 18.0521L4.44505 18.1406ZM4.47857 17.3846L6.47661 17.4732L6.51013 16.7171L4.5121 16.6285L2.51406 16.54L2.48054 17.296L4.47857 17.3846ZM4.5121 16.6285L6.51013 16.7171C6.53141 16.2373 6.56176 15.75 6.60128 15.2551L4.60762 15.0959L2.61396 14.9367C2.57081 15.4773 2.53748 16.0117 2.51406 16.54L4.5121 16.6285ZM4.60762 15.0959L6.60128 15.2551L6.66328 14.4785L4.66962 14.3193L2.67597 14.1602L2.61396 14.9367L4.60762 15.0959ZM4.66962 14.3193L6.66328 14.4785L6.72528 13.7019L4.73163 13.5428L2.73797 13.3836L2.67597 14.1602L4.66962 14.3193ZM4.73163 13.5428L6.72528 13.7019C6.72666 13.6847 6.72881 13.6755 6.72963 13.6723C6.73041 13.6694 6.73086 13.6684 6.73108 13.668C6.73134 13.6674 6.73331 13.6632 6.7393 13.6548C6.74542 13.6462 6.75738 13.631 6.77856 13.6098L5.36451 12.1954L3.95046 10.7811C3.24688 11.4845 2.81862 12.3735 2.73797 13.3836L4.73163 13.5428ZM5.36451 12.1954L6.77856 13.6098L7.34943 13.0391L5.93538 11.6247L4.52133 10.2103L3.95046 10.7811L5.36451 12.1954ZM5.93538 11.6247L7.34943 13.0391L7.92031 12.4683L6.50626 11.054L5.09221 9.63957L4.52133 10.2103L5.93538 11.6247ZM6.50626 11.054L7.92031 12.4683C8.45638 11.9324 8.89349 11.3205 9.20551 10.6318L7.38375 9.80644L5.56199 8.98109C5.46519 9.19474 5.31731 9.41452 5.09221 9.63957L6.50626 11.054ZM7.38375 9.80644L9.20551 10.6318L9.51212 9.95502L7.69036 9.12967L5.86861 8.30432L5.56199 8.98109L7.38375 9.80644ZM7.69036 9.12967L9.51212 9.95502L9.81873 9.27825L7.99697 8.4529L6.17522 7.62755L5.86861 8.30432L7.69036 9.12967ZM7.99697 8.4529L9.81873 9.27825C10.0255 8.82184 10.1469 8.56833 10.1996 8.46842L8.43051 7.53546L6.66145 6.6025C6.54491 6.82347 6.37726 7.18159 6.17522 7.62755L7.99697 8.4529ZM8.43051 7.53546L10.1996 8.46842L10.3265 8.22776L8.55743 7.2948L6.78837 6.36183L6.66145 6.6025L8.43051 7.53546ZM8.55743 7.2948L10.298 8.27989L10.5173 7.89241L8.77673 6.90731L7.03616 5.92222L6.81686 6.3097L8.55743 7.2948ZM8.77673 6.90731L10.6536 7.59813L10.6882 7.50429L8.81127 6.81347L6.93437 6.12264L6.89983 6.21649L8.77673 6.90731Z" fill="var(--stroke-0, white)"/>
</svg>
