<svg preserveAspectRatio="none" width="100%" height="100%" overflow="visible" style="display: block;" viewBox="0 0 36.4086 39.8086" fill="none" xmlns="http://www.w3.org/2000/svg">
<path id="Vector 22" d="M34.0554 31.9379C34.6911 31.6687 34.9882 30.9351 34.719 30.2994C34.4498 29.6637 33.7163 29.3666 33.0806 29.6358L33.568 30.7868L34.0554 31.9379ZM33.4759 30.8258L32.9885 29.6748L32.8216 29.7454L32.6817 29.8605L33.4759 30.8258ZM32.7104 31.4555L33.5046 32.4209L33.5046 32.4208L32.7104 31.4555ZM32.4873 31.6013L32.9441 32.7648L32.9441 32.7648L32.4873 31.6013ZM31.988 31.7973L31.5312 30.6338L31.5312 30.6338L31.988 31.7973ZM31.4887 31.9933L31.9456 33.1569L31.9456 33.1569L31.4887 31.9933ZM31.3252 32.088L32.1034 33.0661L32.1035 33.0661L31.3252 32.088ZM30.8976 32.4281L30.1193 31.45L30.1193 31.45L30.8976 32.4281ZM30.4701 32.7683L31.2483 33.7465L31.2483 33.7465L30.4701 32.7683ZM30.3038 32.8564L30.673 34.0507L30.673 34.0507L30.3038 32.8564ZM29.7893 33.0155L29.4201 31.8213L29.4201 31.8213L29.7893 33.0155ZM29.2748 33.1745L29.644 34.3688L29.6441 34.3688L29.2748 33.1745ZM29.0884 33.2159L29.2602 34.454L29.2602 34.454L29.0884 33.2159ZM28.5464 33.2911L28.3746 32.0529L28.3746 32.0529L28.5464 33.2911ZM28.0044 33.3663L28.1762 34.6044L28.1762 34.6044L28.0044 33.3663ZM27.8286 33.4339L28.5303 34.4684L28.5304 34.4684L27.8286 33.4339ZM27.3743 33.7421L26.6726 32.7077L26.6726 32.7077L27.3743 33.7421ZM26.92 34.0503L27.6217 35.0847L27.6218 35.0847L26.92 34.0503ZM26.7484 34.1274L27.0492 35.3406L27.0492 35.3406L26.7484 34.1274ZM26.2298 34.2559L25.929 33.0426L25.929 33.0426L26.2298 34.2559ZM25.7113 34.3845L26.0121 35.5977L26.0121 35.5977L25.7113 34.3845ZM25.5231 34.4086L25.5416 35.6585L25.5416 35.6585L25.5231 34.4086ZM24.9756 34.4167L24.9572 33.1668L24.9572 33.1668L24.9756 34.4167ZM24.4282 34.4248L24.4466 35.6746L24.4466 35.6746L24.4282 34.4248ZM24.2427 34.4557L24.6374 35.6418L24.6374 35.6418L24.2427 34.4557ZM23.7395 34.6232L23.3448 33.4372L23.3448 33.4372L23.7395 34.6232ZM23.2362 34.7907L23.6309 35.9767L23.6309 35.9767L23.2362 34.7907ZM23.0529 34.8222L23.0789 36.0719L23.0789 36.0719L23.0529 34.8222ZM22.5175 34.8334L22.4915 33.5836L22.4915 33.5836L22.5175 34.8334ZM21.9821 34.8445L22.0081 36.0942L22.0081 36.0942L21.9821 34.8445ZM21.7995 34.8863L22.3147 36.0252L22.3147 36.0252L21.7995 34.8863ZM21.3003 35.1121L20.7851 33.9732L20.7851 33.9732L21.3003 35.1121ZM20.8011 35.3379L21.3163 36.4768L21.3163 36.4768L20.8011 35.3379ZM20.6187 35.3749L20.5805 36.6243L20.5805 36.6243L20.6187 35.3749ZM20.084 35.3585L20.1222 34.1091L20.1222 34.1091L20.084 35.3585ZM19.5493 35.3422L19.5111 36.5916L19.5111 36.5916L19.5493 35.3422ZM19.3629 35.3601L19.6381 36.5794L19.6381 36.5794L19.3629 35.3601ZM18.8412 35.4778L18.566 34.2585L18.566 34.2585L18.8412 35.4778ZM18.3195 35.5956L18.5947 36.8149L18.5947 36.8149L18.3195 35.5956ZM18.1337 35.6148L18.1122 36.8646L18.1123 36.8646L18.1337 35.6148ZM17.6028 35.6057L17.6242 34.3558L17.6242 34.3558L17.6028 35.6057ZM17.0718 35.5965L17.0504 36.8464L17.0504 36.8464L17.0718 35.5965ZM16.8851 35.5825L16.7191 36.8214L16.7191 36.8214L16.8851 35.5825ZM16.3578 35.5118L16.5237 34.2729L16.5237 34.2729L16.3578 35.5118ZM15.8305 35.4412L15.6645 36.6801L15.6645 36.6801L15.8305 35.4412ZM15.6415 35.4533L15.9524 36.6641L15.9524 36.6641L15.6415 35.4533ZM15.0982 35.5928L14.7873 34.3821L14.7873 34.3821L15.0982 35.5928ZM14.5548 35.7323L14.8656 36.9431L14.8657 36.9431L14.5548 35.7323ZM14.3666 35.735L14.0772 36.951L14.0772 36.951L14.3666 35.735ZM13.8432 35.6105L14.1326 34.3944L14.1326 34.3944L13.8432 35.6105ZM13.3199 35.4859L13.0306 36.702L13.0306 36.702L13.3199 35.4859ZM13.1411 35.4201L12.5754 36.5348L12.5755 36.5348L13.1411 35.4201ZM12.6512 35.1715L13.2168 34.0568L13.2168 34.0568L12.6512 35.1715ZM12.1612 34.9228L11.5955 36.0375L11.5956 36.0375L12.1612 34.9228ZM11.9814 34.8689L11.8481 36.1118L11.8482 36.1118L11.9814 34.8689ZM11.4523 34.8122L11.5856 33.5693L11.5856 33.5693L11.4523 34.8122ZM10.9232 34.7555L10.79 35.9984L10.79 35.9984L10.9232 34.7555ZM10.7401 34.7193L10.3896 35.9191L10.3897 35.9191L10.7401 34.7193ZM10.2312 34.5706L10.5816 33.3708L10.5816 33.3708L10.2312 34.5706ZM9.72226 34.422L9.37184 35.6219L9.37185 35.6219L9.72226 34.422ZM9.5525 34.3466L8.89743 35.4112L8.89744 35.4112L9.5525 34.3466ZM9.09944 34.0678L9.75451 33.0032L9.75451 33.0032L9.09944 34.0678ZM8.64637 33.789L7.99129 34.8536L7.9913 34.8536L8.64637 33.789ZM8.4778 33.7076L8.04993 34.882L8.04995 34.8821L8.4778 33.7076ZM7.97562 33.5246L8.40349 32.3501L8.40348 32.3501L7.97562 33.5246ZM7.47345 33.3417L7.04558 34.5162L7.04559 34.5162L7.47345 33.3417ZM7.29978 33.2663L6.73462 34.3812L6.73463 34.3812L7.29978 33.2663ZM6.81781 33.022L7.38297 31.907L7.38297 31.907L6.81781 33.022ZM6.33584 32.7777L5.77067 33.8926L5.77068 33.8926L6.33584 32.7777ZM6.18535 32.6655L5.27775 33.525L5.27776 33.525L6.18535 32.6655ZM5.81455 32.2739L6.72215 31.4144L6.72215 31.4144L5.81455 32.2739ZM5.44375 31.8824L4.53614 32.7419L4.53615 32.7419L5.44375 31.8824ZM5.33202 31.7293L4.23734 32.3328L4.23734 32.3328L5.33202 31.7293ZM5.06972 31.2535L6.16441 30.65L6.1644 30.65L5.06972 31.2535ZM4.80742 30.7777L3.71273 31.3811L3.71274 31.3811L4.80742 30.7777ZM4.69084 30.6308L3.85727 31.5623L3.85728 31.5623L4.69084 30.6308ZM4.29253 30.2744L5.1261 29.3429L5.1261 29.3429L4.29253 30.2744ZM3.89422 29.9179L3.06064 30.8494L3.06065 30.8494L3.89422 29.9179ZM3.77347 29.776L2.71982 30.4485L2.71982 30.4485L3.77347 29.776ZM3.48753 29.328L4.54118 28.6555L4.54118 28.6555L3.48753 29.328ZM3.2016 28.88L2.14794 29.5526L2.14795 29.5526L3.2016 28.88ZM3.12422 28.7105L1.92605 29.0667L1.92605 29.0667L3.12422 28.7105ZM2.97172 28.1975L4.16989 27.8413L4.16989 27.8413L2.97172 28.1975ZM2.81921 27.6845L1.62104 28.0407L1.62104 28.0407L2.81921 27.6845ZM2.76243 27.5067L1.57973 27.9113L1.57973 27.9113L2.76243 27.5067ZM2.59321 27.012L3.77591 26.6074L3.77591 26.6074L2.59321 27.012ZM2.42398 26.5173L1.24128 26.9219L1.24128 26.9219L2.42398 26.5173ZM2.35446 26.3447L1.22078 26.8712L1.22078 26.8712L2.35446 26.3447ZM2.1297 25.8608L3.26338 25.3342L3.26338 25.3342L2.1297 25.8608ZM1.90495 25.3769L0.771264 25.9034L0.771266 25.9034L1.90495 25.3769ZM1.8503 25.1992L0.616447 25.3994L0.616448 25.3995L1.8503 25.1992ZM1.76538 24.676L2.99923 24.4757L2.99923 24.4757L1.76538 24.676ZM1.68046 24.1529L0.446608 24.3532L0.446608 24.3532L1.68046 24.1529ZM1.64041 23.9685L0.434244 24.2966L0.434244 24.2966L1.64041 23.9685ZM1.4984 23.4464L2.70457 23.1183L2.70457 23.1183L1.4984 23.4464ZM1.35639 22.9244L0.150226 23.2525L0.150226 23.2525L1.35639 22.9244ZM1.33547 22.7372L2.58429 22.7915L2.58429 22.7915L1.33547 22.7372ZM1.35893 22.1983L0.110109 22.144L0.110109 22.144L1.35893 22.1983ZM1.38238 21.6595L2.6312 21.7138L2.6312 21.7138L1.38238 21.6595ZM1.37565 21.471L0.134038 21.6156L0.134038 21.6156L1.37565 21.471ZM1.31405 20.942L2.55566 20.7975L2.55566 20.7975L1.31405 20.942ZM1.25245 20.413L0.0108386 20.5576L0.0108387 20.5576L1.25245 20.413ZM1.27925 20.2276L2.43628 20.7006L2.43628 20.7006L1.27925 20.2276ZM1.49269 19.7055L0.335655 19.2324L0.335654 19.2324L1.49269 19.7055ZM1.70614 19.1834L2.86317 19.6564L2.86317 19.6564L1.70614 19.1834ZM1.71091 18.9935L0.526133 19.392L0.526134 19.392L1.71091 18.9935ZM1.52453 18.4394L2.70931 18.0409L2.70931 18.0409L1.52453 18.4394ZM1.33816 17.8852L0.153377 18.2837L0.153378 18.2837L1.33816 17.8852ZM1.32933 17.6962L2.53804 18.0148L2.53804 18.0148L1.32933 17.6962ZM1.46568 17.1789L0.256972 16.8603L0.256972 16.8603L1.46568 17.1789ZM1.60204 16.6616L2.81075 16.9802L2.81075 16.9802L1.60204 16.6616ZM1.65281 16.478L2.85356 16.8254L2.85356 16.8254L1.65281 16.478ZM1.80415 15.9549L0.603404 15.6075L0.603404 15.6075L1.80415 15.9549ZM1.95549 15.4319L3.15624 15.7793L3.15624 15.7793L1.95549 15.4319ZM2.02673 15.2523L3.14006 15.8207L3.14006 15.8207L2.02673 15.2523ZM2.27909 14.758L1.16577 14.1897L1.16577 14.1897L2.27909 14.758ZM2.53145 14.2637L3.64478 14.832L3.64478 14.832L2.53145 14.2637ZM2.5694 14.0785L3.81657 13.9945L3.81657 13.9945L2.5694 14.0785ZM2.53204 13.5236L1.28487 13.6075L1.28487 13.6075L2.53204 13.5236ZM2.49469 12.9686L3.74187 12.8847L3.74187 12.8847L2.49469 12.9686ZM2.51716 12.7808L3.70658 13.1652L3.70658 13.1652L2.51716 12.7808ZM2.68183 12.2713L1.49241 11.8869L1.49241 11.8869L2.68183 12.2713ZM2.8465 11.7618L4.03593 12.1462L4.03593 12.1462L2.8465 11.7618ZM2.94065 11.5971L3.8833 12.418L3.8833 12.418L2.94065 11.5971ZM3.30946 11.1736L2.36681 10.3527L2.36681 10.3527L3.30946 11.1736ZM3.67827 10.7501L4.62092 11.571L4.62093 11.571L3.67827 10.7501ZM3.78192 10.5923L4.91583 11.1183L4.91584 11.1183L3.78192 10.5923ZM4.00043 10.1213L2.86651 9.59521L2.86651 9.59521L4.00043 10.1213ZM4.21894 9.65027L5.35286 10.1763L5.35286 10.1763L4.21894 9.65027ZM4.2769 9.47037L5.50252 9.71607L5.50252 9.71607L4.2769 9.47037ZM4.38685 8.92193L3.16124 8.67622L3.16124 8.67622L4.38685 8.92193ZM4.4968 8.37349L5.72241 8.61919L5.72241 8.61919L4.4968 8.37349ZM4.57266 8.20064L5.57641 8.9456L5.57641 8.9456L4.57266 8.20064ZM4.89257 7.76958L3.88882 7.02462L3.88882 7.02462L4.89257 7.76958ZM5.21249 7.33853L6.21625 8.0835L6.21625 8.0835L5.21249 7.33853ZM5.3187 7.18104L6.38535 7.83276L6.38536 7.83276L5.3187 7.18104ZM5.60063 6.7196L4.53398 6.06788L4.53398 6.06788L5.60063 6.7196ZM5.88257 6.25817L6.94922 6.90989L6.94923 6.90989L5.88257 6.25817ZM5.99226 6.102L6.96736 6.8841L6.96737 6.8841L5.99226 6.102ZM6.33194 5.6785L5.35684 4.8964L5.35684 4.8964L6.33194 5.6785ZM6.67162 5.25499L7.64673 6.03709L7.64673 6.03709L6.67162 5.25499ZM6.83704 5.15806L7.09443 6.38128L7.09443 6.38128L6.83704 5.15806ZM7.43469 5.0323L7.1773 3.80909L7.1773 3.80909L7.43469 5.0323ZM8.03234 4.90654L8.28973 6.12976L8.28974 6.12976L8.03234 4.90654ZM8.18415 4.78856L9.30939 5.33293L9.30939 5.33293L8.18415 4.78856ZM8.44676 4.24573L7.32153 3.70136L7.32153 3.70136L8.44676 4.24573ZM8.70937 3.70291L9.83461 4.24728L9.83461 4.24728L8.70937 3.70291ZM8.84938 3.57888L9.21014 4.77569L9.21014 4.77569L8.84938 3.57888ZM9.38013 3.4189L9.01937 2.22209L9.01937 2.22209L9.38013 3.4189ZM9.91088 3.25891L10.2716 4.45572L10.2716 4.45572L9.91088 3.25891ZM10.0982 3.21128L10.3517 4.4353L10.3517 4.4353L10.0982 3.21128ZM10.6287 3.10138L10.3752 1.87737L10.3752 1.87737L10.6287 3.10138ZM11.1593 2.99148L11.4128 4.21549L11.4128 4.21549L11.1593 2.99148ZM11.3305 2.91438L12.0766 3.91728L12.0766 3.91728L11.3305 2.91438ZM11.77 2.58738L11.0239 1.58448L11.0239 1.58448L11.77 2.58738ZM12.2095 2.26039L12.9557 3.26329L12.9557 3.26329L12.2095 2.26039ZM12.3789 2.1822L12.6512 3.40219L12.6512 3.40219L12.3789 2.1822ZM12.8992 2.06609L12.627 0.846098L12.627 0.846098L12.8992 2.06609ZM13.4195 1.94999L13.6918 3.16999L13.6918 3.16999L13.4195 1.94999ZM13.6063 1.93062L13.5915 3.18054L13.5915 3.18054L13.6063 1.93062ZM14.1443 1.93697L14.1591 0.68706L14.1591 0.68706L14.1443 1.93697ZM14.6823 1.94332L14.6676 3.19323L14.6676 3.19323L14.6823 1.94332ZM14.8656 1.89276L15.4969 2.97162L15.4969 2.97162L14.8656 1.89276ZM15.366 1.5999L14.7347 0.52104L14.7347 0.52104L15.366 1.5999ZM15.8665 1.30704L16.4978 2.3859L16.4978 2.3859L15.8665 1.30704ZM16.05 1.25492L16.0443 0.00493606L16.0443 0.00493606L16.05 1.25492ZM16.5896 1.25247L16.5953 2.50245L16.5953 2.50245L16.5896 1.25247ZM17.1291 1.25001L17.1234 2.12486e-05L17.1234 2.1249e-05L17.1291 1.25001ZM17.318 1.27195L17.6083 0.0561371L17.6083 0.0561367L17.318 1.27195ZM17.8489 1.39873L17.5585 2.61454L17.5585 2.61454L17.8489 1.39873ZM18.3797 1.52551L18.6701 0.309699L18.6701 0.309698L18.3797 1.52551ZM18.5637 1.57883L18.969 0.39637L18.969 0.396369L18.5637 1.57883ZM19.0754 1.75421L18.67 2.93667L18.67 2.93667L19.0754 1.75421ZM19.587 1.92959L19.9923 0.747126L19.9923 0.747126L19.587 1.92959ZM19.7724 1.95492L19.8461 3.20274L19.8461 3.20274L19.7724 1.95492ZM20.3112 1.92307L20.2374 0.675246L20.2374 0.675246L20.3112 1.92307ZM20.85 1.89122L20.9237 3.13904L20.9237 3.13904L20.85 1.89122ZM21.0377 1.90121L21.2454 0.66859L21.2454 0.66859L21.0377 1.90121ZM21.5625 1.98966L21.3548 3.22228L21.3548 3.22228L21.5625 1.98966ZM22.0874 2.07811L22.2951 0.84549L22.2951 0.84549L22.0874 2.07811ZM22.2682 2.12588L22.6963 0.951465L22.6963 0.951464L22.2682 2.12588ZM22.7683 2.30817L22.3403 3.48259L22.3403 3.48259L22.7683 2.30817ZM23.2684 2.49045L23.6965 1.31603L23.6965 1.31603L23.2684 2.49045ZM23.4422 2.56077L23.9515 1.41924L23.9515 1.41923L23.4422 2.56077ZM23.9267 2.77695L23.4174 3.91848L23.4174 3.91848L23.9267 2.77695ZM24.4112 2.99313L24.9206 1.8516L24.9206 1.8516L24.4112 2.99313ZM24.5912 3.05009L24.8355 1.8242L24.8355 1.8242L24.5912 3.05009ZM25.1263 3.15673L24.882 4.38262L24.882 4.38263L25.1263 3.15673ZM25.6614 3.26336L25.9057 2.03746L25.9057 2.03746L25.6614 3.26336ZM25.8283 3.34602L26.6546 2.40809L26.6546 2.40808L25.8283 3.34602ZM26.239 3.7078L25.4127 4.64574L25.4127 4.64574L26.239 3.7078ZM26.6496 4.06958L27.4759 3.13165L27.4759 3.13165L26.6496 4.06958ZM26.7955 4.19118L27.5684 3.2088L27.5684 3.20879L26.7955 4.19118ZM27.2114 4.51843L26.4385 5.50081L26.4385 5.50081L27.2114 4.51843ZM27.6273 4.84568L28.4003 3.8633L28.4003 3.8633L27.6273 4.84568ZM27.8055 4.91806L27.9784 3.68008L27.9784 3.68008L27.8055 4.91806ZM28.3988 5.00094L28.2259 6.23892L28.2259 6.23892L28.3988 5.00094ZM28.9922 5.08383L29.1651 3.84585L29.1651 3.84585L28.9922 5.08383ZM29.1466 5.18703L30.237 4.57597L30.237 4.57596L29.1466 5.18703ZM29.4278 5.68892L28.3373 6.29997L28.3373 6.29997L29.4278 5.68892ZM29.709 6.19081L30.7995 5.57976L30.7995 5.57975L29.709 6.19081ZM29.8299 6.33968L30.6376 5.38565L30.6376 5.38565L29.8299 6.33968ZM30.2335 6.68135L29.4258 7.63537L29.4258 7.63538L30.2335 6.68135ZM30.6371 7.02303L31.4447 6.06901L31.4447 6.06901L30.6371 7.02303ZM30.7541 7.16668L31.8494 6.56435L31.8494 6.56434L30.7541 7.16668ZM31.0139 7.639L29.9186 8.24133L29.9186 8.24133L31.0139 7.639ZM31.2736 8.11133L32.3689 7.50901L32.3689 7.509L31.2736 8.11133ZM31.4045 8.24618L32.0519 7.17688L32.0519 7.17688L31.4045 8.24618ZM31.8866 8.53805L31.2392 9.60735L31.2392 9.60735L31.8866 8.53805ZM32.3687 8.82991L33.0161 7.76061L33.0161 7.76061L32.3687 8.82991ZM32.5118 8.95668L33.502 8.19382L33.502 8.19381L32.5118 8.95668ZM32.8403 9.38315L31.8501 10.146L31.8501 10.146L32.8403 9.38315ZM33.1689 9.80962L34.1591 9.04677L34.1591 9.04676L33.1689 9.80962ZM33.24 9.98383L34.4791 9.81903L34.4791 9.81902L33.24 9.98383ZM33.3146 10.5445L32.0755 10.7093L32.0755 10.7093L33.3146 10.5445ZM33.3891 11.1052L34.6282 10.9404L34.6282 10.9404L33.3891 11.1052ZM33.4356 11.2897L34.6004 10.8362L34.6004 10.8361L33.4356 11.2897ZM33.6243 11.7743L32.4595 12.2278L32.4595 12.2278L33.6243 11.7743ZM33.813 12.2589L34.9778 11.8053L34.9778 11.8053L33.813 12.2589ZM33.8999 12.425L34.9407 11.7328L34.9407 11.7328L33.8999 12.425ZM34.2039 12.8821L33.1631 13.5744L33.1631 13.5744L34.2039 12.8821ZM34.5079 13.3392L35.5487 12.647L35.5487 12.647L34.5079 13.3392ZM34.566 13.5144L35.8146 13.4552L35.8146 13.4552L34.566 13.5144ZM34.5914 14.0497L33.3428 14.1088L33.3428 14.1088L34.5914 14.0497ZM34.6167 14.585L35.8653 14.5259L35.8653 14.5259L34.6167 14.585ZM34.6622 14.7703L35.8014 14.2557L35.8014 14.2557L34.6622 14.7703ZM34.8947 15.2849L33.7555 15.7995L33.7555 15.7995L34.8947 15.2849ZM35.1271 15.7995L36.2663 15.2849L36.2663 15.2849L35.1271 15.7995ZM35.1557 15.9858L36.3954 16.1465L36.3954 16.1465L35.1557 15.9858ZM35.0856 16.5269L33.8459 16.3662L33.8459 16.3662L35.0856 16.5269ZM35.0154 17.0681L36.255 17.2289L36.255 17.2288L35.0154 17.0681ZM34.9775 17.2558L36.1825 17.5884L36.1825 17.5884L34.9775 17.2558ZM34.8333 17.7786L33.6283 17.446L33.6283 17.446L34.8333 17.7786ZM34.689 18.3013L35.8939 18.6339L35.8939 18.6339L34.689 18.3013ZM34.6631 18.489L35.9131 18.4947L35.9131 18.4946L34.6631 18.489ZM34.6606 19.0298L33.4106 19.0242L33.4106 19.0242L34.6606 19.0298ZM34.6582 19.5707L35.9081 19.5764L35.9081 19.5764L34.6582 19.5707ZM34.6434 19.7593L35.8788 19.9494L35.8789 19.9494L34.6434 19.7593ZM34.5621 20.2874L33.3267 20.0973L33.3267 20.0973L34.5621 20.2874ZM34.4809 20.8155L35.7164 21.0055L35.7164 21.0055L34.4809 20.8155ZM34.4593 21.0038L35.7056 21.0995L35.7056 21.0994L34.4593 21.0038ZM34.4179 21.5427L33.1715 21.447L33.1715 21.447L34.4179 21.5427ZM34.3765 22.0817L35.6228 22.1774L35.6228 22.1774L34.3765 22.0817ZM34.3219 22.2619L35.4144 22.8692L35.4145 22.8692L34.3219 22.2619ZM34.0539 22.744L32.9614 22.1366L32.9614 22.1366L34.0539 22.744ZM33.786 23.226L34.8785 23.8334L34.8785 23.8334L33.786 23.226ZM33.713 23.4013L34.9153 23.7433L34.9153 23.7432L33.713 23.4013ZM33.5677 23.9124L32.3653 23.5704L32.3653 23.5704L33.5677 23.9124ZM33.4223 24.4234L34.6246 24.7654L34.6246 24.7654L33.4223 24.4234ZM33.3363 24.591L34.3223 25.3593L34.3224 25.3593L33.3363 24.591ZM32.9945 25.0298L32.0084 24.2615L32.0084 24.2615L32.9945 25.0298ZM32.6526 25.4686L33.6386 26.2368L33.6386 26.2368L32.6526 25.4686ZM32.5718 25.6377L33.7917 25.9101L33.7917 25.9101L32.5718 25.6377ZM32.4557 26.1574L31.2358 25.885L31.2358 25.885L32.4557 26.1574ZM32.3397 26.6772L33.5596 26.9496L33.5596 26.9496L32.3397 26.6772ZM32.2741 26.8506L33.3685 27.4546L33.3685 27.4546L32.2741 26.8506ZM32.0186 27.3134L30.9243 26.7093L30.9243 26.7094L32.0186 27.3134ZM31.7632 27.7762L32.8575 28.3803L32.8575 28.3803L31.7632 27.7762ZM31.7116 27.961L32.9591 28.0397L32.9591 28.0396L31.7116 27.961ZM31.6748 28.5451L30.4272 28.4664L30.4272 28.4665L31.6748 28.5451ZM31.6379 29.1293L32.8854 29.2079L32.8854 29.2079L31.6379 29.1293ZM31.5804 29.313L32.6369 29.9811L32.6369 29.9811L31.5804 29.313ZM31.2915 29.7698L30.235 29.1017L30.235 29.1017L31.2915 29.7698ZM31.0026 30.2267L32.059 30.8948L32.059 30.8948L31.0026 30.2267ZM30.8712 30.3653L31.603 31.3787L31.603 31.3787L30.8712 30.3653ZM30.416 30.694L29.6843 29.6806L29.6843 29.6806L30.416 30.694ZM29.9608 31.0227L30.6925 32.0361L30.6925 32.0361L29.9608 31.0227ZM29.8052 31.1383L30.5651 32.1308L30.5651 32.1308L29.8052 31.1383ZM29.3787 31.4648L28.6188 30.4724L28.6188 30.4724L29.3787 31.4648ZM28.9523 31.7914L29.7123 32.7838L29.7123 32.7838L28.9523 31.7914ZM28.8156 31.9174L29.7455 32.7527L29.7455 32.7527L28.8156 31.9174ZM28.4671 32.3054L27.5372 31.4701L27.5372 31.4701L28.4671 32.3054ZM28.1187 32.6934L29.0486 33.5287L29.0486 33.5286L28.1187 32.6934ZM27.9854 32.8197L28.77 33.7928L28.77 33.7928L27.9854 32.8197ZM27.5785 33.1478L26.7939 32.1747L26.7939 32.1747L27.5785 33.1478ZM27.1716 33.4759L27.9562 34.449L27.9562 34.449L27.1716 33.4759ZM27.0324 33.5978L27.8931 34.5042L27.8931 34.5042L27.0324 33.5978ZM26.6504 33.9605L25.7896 33.0541L25.7896 33.0541L26.6504 33.9605ZM26.2684 34.3233L27.1291 35.2297L27.1292 35.2297L26.2684 34.3233ZM26.1431 34.4665L27.1525 35.2039L27.1525 35.2038L26.1431 34.4665ZM25.8151 34.9156L24.8057 34.1782L24.8057 34.1782L25.8151 34.9156ZM25.487 35.3646L26.4964 36.102L26.4964 36.102L25.487 35.3646ZM25.3338 35.472L25.6878 36.6708L25.6878 36.6708L25.3338 35.472ZM24.7935 35.6316L24.4395 34.4328L24.4395 34.4328L24.7935 35.6316ZM24.2532 35.7911L24.6072 36.99L24.6072 36.99L24.2532 35.7911ZM24.0801 35.8741L24.8001 36.8959L24.8001 36.8959L24.0801 35.8741ZM23.6396 36.1845L22.9196 35.1627L22.9196 35.1627L23.6396 36.1845ZM23.1991 36.4948L23.9191 37.5166L23.9192 37.5166L23.1991 36.4948ZM23.0583 36.6228L24.0049 37.4392L24.0049 37.4392L23.0583 36.6228ZM22.7006 37.0376L21.754 36.2212L21.754 36.2212L22.7006 37.0376ZM22.3429 37.4524L23.2895 38.2687L23.2895 38.2687L22.3429 37.4524ZM22.2466 37.6035L23.3967 38.093L23.3968 38.093L22.2466 37.6035ZM22.0586 38.0452L20.9084 37.5557L20.9084 37.5557L22.0586 38.0452ZM21.8706 38.4869L23.0208 38.9764L23.0208 38.9764L21.8706 38.4869ZM21.8286 38.5585L21.1005 39.5746L21.1006 39.5746L21.8286 38.5585ZM21.7783 38.5225L20.5427 38.3334L20.4266 39.0918L21.0502 39.5386L21.7783 38.5225ZM21.7948 38.4147L23.0304 38.6038L23.5437 35.2496L20.9771 37.4692L21.7948 38.4147ZM20.9015 37.5346C20.3793 37.9862 20.3221 38.7756 20.7737 39.2978C21.2253 39.82 22.0147 39.8772 22.5368 39.4256L21.7192 38.4801L20.9015 37.5346ZM33.568 30.7868L33.0806 29.6358L32.9885 29.6748L33.4759 30.8258L33.9633 31.9769L34.0554 31.9379L33.568 30.7868ZM33.4759 30.8258L32.6817 29.8605L31.9163 30.4903L32.7104 31.4555L33.5046 32.4208L34.27 31.7911L33.4759 30.8258ZM32.7104 31.4555L31.9163 30.4902C31.8964 30.5066 31.8928 30.508 31.9037 30.5009C31.9097 30.497 31.9227 30.4888 31.9419 30.4784C31.9609 30.4682 31.9907 30.4533 32.0304 30.4377L32.4873 31.6013L32.9441 32.7648C33.188 32.669 33.3838 32.5203 33.5046 32.4209L32.7104 31.4555ZM32.4873 31.6013L32.0304 30.4377L31.5312 30.6338L31.988 31.7973L32.4448 32.9608L32.9441 32.7648L32.4873 31.6013ZM31.988 31.7973L31.5312 30.6338L31.0319 30.8298L31.4887 31.9933L31.9456 33.1569L32.4448 32.9608L31.988 31.7973ZM31.4887 31.9933L31.0319 30.8298C30.8552 30.8992 30.6927 30.9938 30.5469 31.1098L31.3252 32.088L32.1035 33.0661C32.0583 33.1021 32.0048 33.1336 31.9456 33.1569L31.4887 31.9933ZM31.3252 32.088L30.5469 31.1098L30.1193 31.45L30.8976 32.4281L31.6759 33.4063L32.1034 33.0661L31.3252 32.088ZM30.8976 32.4281L30.1193 31.45L29.6918 31.7902L30.4701 32.7683L31.2483 33.7465L31.6759 33.4063L30.8976 32.4281ZM30.4701 32.7683L29.6918 31.7902C29.7614 31.7348 29.8443 31.6901 29.9346 31.6622L30.3038 32.8564L30.673 34.0507C30.8844 33.9853 31.0781 33.8819 31.2483 33.7465L30.4701 32.7683ZM30.3038 32.8564L29.9346 31.6622L29.4201 31.8213L29.7893 33.0155L30.1585 34.2097L30.673 34.0507L30.3038 32.8564ZM29.7893 33.0155L29.4201 31.8213L28.9056 31.9803L29.2748 33.1745L29.6441 34.3688L30.1585 34.2097L29.7893 33.0155ZM29.2748 33.1745L28.9057 31.9803C28.9107 31.9788 28.9146 31.978 28.9166 31.9777L29.0884 33.2159L29.2602 34.454C29.3898 34.436 29.518 34.4077 29.644 34.3688L29.2748 33.1745ZM29.0884 33.2159L28.9166 31.9777L28.3746 32.0529L28.5464 33.2911L28.7182 34.5292L29.2602 34.454L29.0884 33.2159ZM28.5464 33.2911L28.3746 32.0529L27.8326 32.1282L28.0044 33.3663L28.1762 34.6044L28.7182 34.5292L28.5464 33.2911ZM28.0044 33.3663L27.8327 32.1281C27.5783 32.1634 27.3385 32.256 27.1269 32.3995L27.8286 33.4339L28.5304 34.4684C28.4257 34.5394 28.303 34.5868 28.1762 34.6044L28.0044 33.3663ZM27.8286 33.4339L27.1269 32.3995L26.6726 32.7077L27.3743 33.7421L28.076 34.7766L28.5303 34.4684L27.8286 33.4339ZM27.3743 33.7421L26.6726 32.7077L26.2183 33.0158L26.92 34.0503L27.6218 35.0847L28.076 34.7766L27.3743 33.7421ZM26.92 34.0503L26.2183 33.0158C26.2835 32.9716 26.3615 32.9354 26.4475 32.9141L26.7484 34.1274L27.0492 35.3406C27.2573 35.289 27.4497 35.2015 27.6217 35.0847L26.92 34.0503ZM26.7484 34.1274L26.4476 32.9141L25.929 33.0426L26.2298 34.2559L26.5306 35.4692L27.0492 35.3406L26.7484 34.1274ZM26.2298 34.2559L25.929 33.0426L25.4105 33.1712L25.7113 34.3845L26.0121 35.5977L26.5306 35.4692L26.2298 34.2559ZM25.7113 34.3845L25.4105 33.1712C25.4442 33.1629 25.4763 33.1591 25.5047 33.1587L25.5231 34.4086L25.5416 35.6585C25.6988 35.6561 25.8564 35.6363 26.0121 35.5977L25.7113 34.3845ZM25.5231 34.4086L25.5047 33.1587L24.9572 33.1668L24.9756 34.4167L24.9941 35.6665L25.5416 35.6585L25.5231 34.4086ZM24.9756 34.4167L24.9572 33.1668L24.4097 33.1749L24.4282 34.4248L24.4466 35.6746L24.9941 35.6665L24.9756 34.4167ZM24.4282 34.4248L24.4097 33.1749C24.2215 33.1777 24.0325 33.2083 23.848 33.2697L24.2427 34.4557L24.6374 35.6418C24.5713 35.6638 24.506 35.6737 24.4466 35.6746L24.4282 34.4248ZM24.2427 34.4557L23.848 33.2697L23.3448 33.4372L23.7395 34.6232L24.1341 35.8093L24.6374 35.6418L24.2427 34.4557ZM23.7395 34.6232L23.3448 33.4372L22.8415 33.6046L23.2362 34.7907L23.6309 35.9767L24.1341 35.8093L23.7395 34.6232ZM23.2362 34.7907L22.8415 33.6046C22.9025 33.5843 22.9657 33.5738 23.0269 33.5725L23.0529 34.8222L23.0789 36.0719C23.2661 36.068 23.4515 36.0364 23.6309 35.9767L23.2362 34.7907ZM23.0529 34.8222L23.0269 33.5725L22.4915 33.5836L22.5175 34.8334L22.5435 36.0831L23.0789 36.0719L23.0529 34.8222ZM22.5175 34.8334L22.4915 33.5836L21.956 33.5948L21.9821 34.8445L22.0081 36.0942L22.5435 36.0831L22.5175 34.8334ZM21.9821 34.8445L21.9561 33.5948C21.7202 33.5997 21.4933 33.6529 21.2843 33.7474L21.7995 34.8863L22.3147 36.0252C22.2232 36.0666 22.1179 36.0919 22.0081 36.0942L21.9821 34.8445ZM21.7995 34.8863L21.2843 33.7474L20.7851 33.9732L21.3003 35.1121L21.8155 36.251L22.3147 36.0252L21.7995 34.8863ZM21.3003 35.1121L20.7851 33.9732L20.2859 34.199L20.8011 35.3379L21.3163 36.4768L21.8155 36.251L21.3003 35.1121ZM20.8011 35.3379L20.286 34.199C20.3965 34.149 20.5246 34.1214 20.6569 34.1255L20.6187 35.3749L20.5805 36.6243C20.8386 36.6322 21.0883 36.58 21.3163 36.4768L20.8011 35.3379ZM20.6187 35.3749L20.6569 34.1255L20.1222 34.1091L20.084 35.3585L20.0458 36.608L20.5805 36.6243L20.6187 35.3749ZM20.084 35.3585L20.1222 34.1091L19.5875 34.0928L19.5493 35.3422L19.5111 36.5916L20.0458 36.608L20.084 35.3585ZM19.5493 35.3422L19.5875 34.0928C19.4193 34.0876 19.2519 34.1037 19.0877 34.1408L19.3629 35.3601L19.6381 36.5794C19.5967 36.5888 19.5535 36.5929 19.5111 36.5916L19.5493 35.3422ZM19.3629 35.3601L19.0877 34.1408L18.566 34.2585L18.8412 35.4778L19.1164 36.6972L19.6381 36.5794L19.3629 35.3601ZM18.8412 35.4778L18.566 34.2585L18.0442 34.3763L18.3195 35.5956L18.5947 36.8149L19.1164 36.6972L18.8412 35.4778ZM18.3195 35.5956L18.0443 34.3763C18.0795 34.3683 18.1172 34.3643 18.1552 34.365L18.1337 35.6148L18.1123 36.8646C18.2752 36.8674 18.4367 36.8506 18.5947 36.8149L18.3195 35.5956ZM18.1337 35.6148L18.1552 34.365L17.6242 34.3558L17.6028 35.6057L17.5813 36.8555L18.1122 36.8646L18.1337 35.6148ZM17.6028 35.6057L17.6242 34.3558L17.0933 34.3467L17.0718 35.5965L17.0504 36.8464L17.5813 36.8555L17.6028 35.6057ZM17.0718 35.5965L17.0933 34.3467C17.0793 34.3465 17.0653 34.3454 17.051 34.3435L16.8851 35.5825L16.7191 36.8214C16.829 36.8361 16.9395 36.8444 17.0504 36.8464L17.0718 35.5965ZM16.8851 35.5825L17.0511 34.3435L16.5238 34.2729L16.3578 35.5118L16.1918 36.7508L16.7191 36.8214L16.8851 35.5825ZM16.3578 35.5118L16.5237 34.2729L15.9964 34.2023L15.8305 35.4412L15.6645 36.6801L16.1918 36.7508L16.3578 35.5118ZM15.8305 35.4412L15.9965 34.2023C15.7666 34.1715 15.5417 34.1884 15.3307 34.2426L15.6415 35.4533L15.9524 36.6641C15.8693 36.6854 15.7703 36.6943 15.6645 36.6801L15.8305 35.4412ZM15.6415 35.4533L15.3307 34.2426L14.7873 34.3821L15.0982 35.5928L15.409 36.8036L15.9524 36.6641L15.6415 35.4533ZM15.0982 35.5928L14.7873 34.3821L14.244 34.5216L14.5548 35.7323L14.8657 36.9431L15.409 36.8036L15.0982 35.5928ZM14.5548 35.7323L14.244 34.5216C14.368 34.4898 14.5114 34.4845 14.6559 34.5189L14.3666 35.735L14.0772 36.951C14.3449 37.0147 14.6138 37.0077 14.8656 36.9431L14.5548 35.7323ZM14.3666 35.735L14.6559 34.5189L14.1326 34.3944L13.8432 35.6105L13.5539 36.8265L14.0772 36.951L14.3666 35.735ZM13.8432 35.6105L14.1326 34.3944L13.6093 34.2699L13.3199 35.4859L13.0306 36.702L13.5539 36.8265L13.8432 35.6105ZM13.3199 35.4859L13.6093 34.2699C13.6455 34.2785 13.6785 34.2911 13.7068 34.3054L13.1411 35.4201L12.5755 36.5348C12.719 36.6076 12.8712 36.6641 13.0306 36.702L13.3199 35.4859ZM13.1411 35.4201L13.7068 34.3054L13.2168 34.0568L12.6512 35.1715L12.0855 36.2861L12.5754 36.5348L13.1411 35.4201ZM12.6512 35.1715L13.2168 34.0568L12.7269 33.8081L12.1612 34.9228L11.5956 36.0375L12.0855 36.2861L12.6512 35.1715ZM12.1612 34.9228L12.7269 33.8082C12.5386 33.7126 12.3325 33.6494 12.1146 33.6261L11.9814 34.8689L11.8482 36.1118C11.7548 36.1018 11.6686 36.0746 11.5955 36.0375L12.1612 34.9228ZM11.9814 34.8689L12.1146 33.6261L11.5856 33.5693L11.4523 34.8122L11.3191 36.0551L11.8481 36.1118L11.9814 34.8689ZM11.4523 34.8122L11.5856 33.5693L11.0565 33.5126L10.9232 34.7555L10.79 35.9984L11.3191 36.0551L11.4523 34.8122ZM10.9232 34.7555L11.0565 33.5126C11.0675 33.5138 11.0791 33.5161 11.0905 33.5194L10.7401 34.7193L10.3897 35.9191C10.5208 35.9574 10.6545 35.9838 10.79 35.9984L10.9232 34.7555ZM10.7401 34.7193L11.0905 33.5194L10.5816 33.3708L10.2312 34.5706L9.88074 35.7705L10.3896 35.9191L10.7401 34.7193ZM10.2312 34.5706L10.5816 33.3708L10.0727 33.2221L9.72226 34.422L9.37185 35.6219L9.88075 35.7705L10.2312 34.5706ZM9.72226 34.422L10.0727 33.2221C10.1203 33.2361 10.1661 33.2565 10.2076 33.282L9.5525 34.3466L8.89744 35.4112C9.04546 35.5023 9.20447 35.573 9.37184 35.6219L9.72226 34.422ZM9.5525 34.3466L10.2076 33.282L9.75451 33.0032L9.09944 34.0678L8.44436 35.1324L8.89743 35.4112L9.5525 34.3466ZM9.09944 34.0678L9.75451 33.0032L9.30144 32.7244L8.64637 33.789L7.9913 34.8536L8.44436 35.1324L9.09944 34.0678ZM8.64637 33.789L9.30145 32.7244C9.17597 32.6472 9.04361 32.5833 8.90565 32.5331L8.4778 33.7076L8.04995 34.8821C8.03014 34.8748 8.01016 34.8652 7.99129 34.8536L8.64637 33.789ZM8.4778 33.7076L8.90566 32.5331L8.40349 32.3501L7.97562 33.5246L7.54776 34.6991L8.04993 34.882L8.4778 33.7076ZM7.97562 33.5246L8.40348 32.3501L7.90131 32.1672L7.47345 33.3417L7.04559 34.5162L7.54776 34.6991L7.97562 33.5246ZM7.47345 33.3417L7.90132 32.1672C7.88967 32.1629 7.87759 32.1578 7.86493 32.1513L7.29978 33.2663L6.73463 34.3812C6.83537 34.4323 6.93908 34.4774 7.04558 34.5162L7.47345 33.3417ZM7.29978 33.2663L7.86494 32.1513L7.38297 31.907L6.81781 33.022L6.25265 34.1369L6.73462 34.3812L7.29978 33.2663ZM6.81781 33.022L7.38297 31.907L6.901 31.6627L6.33584 32.7777L5.77068 33.8926L6.25265 34.1369L6.81781 33.022ZM6.33584 32.7777L6.90101 31.6627C6.97199 31.6987 7.03772 31.7476 7.09294 31.8059L6.18535 32.6655L5.27776 33.525C5.42023 33.6754 5.58628 33.7991 5.77067 33.8926L6.33584 32.7777ZM6.18535 32.6655L7.09295 31.8059L6.72215 31.4144L5.81455 32.2739L4.90695 33.1334L5.27775 33.525L6.18535 32.6655ZM5.81455 32.2739L6.72215 31.4144L6.35134 31.0228L5.44375 31.8824L4.53615 32.7419L4.90695 33.1334L5.81455 32.2739ZM5.44375 31.8824L6.35135 31.0229C6.38125 31.0544 6.40671 31.0896 6.4267 31.1258L5.33202 31.7293L4.23734 32.3328C4.31905 32.481 4.41899 32.6182 4.53614 32.7419L5.44375 31.8824ZM5.33202 31.7293L6.42671 31.1258L6.16441 30.65L5.06972 31.2535L3.97504 31.8569L4.23734 32.3328L5.33202 31.7293ZM5.06972 31.2535L6.1644 30.65L5.9021 30.1742L4.80742 30.7777L3.71274 31.3811L3.97504 31.8569L5.06972 31.2535ZM4.80742 30.7777L5.90211 30.1742C5.80444 29.997 5.6779 29.8367 5.5244 29.6993L4.69084 30.6308L3.85728 31.5623C3.7975 31.5088 3.74869 31.4463 3.71273 31.3811L4.80742 30.7777ZM4.69084 30.6308L5.52441 29.6993L5.1261 29.3429L4.29253 30.2744L3.45896 31.2058L3.85727 31.5623L4.69084 30.6308ZM4.29253 30.2744L5.1261 29.3429L4.72778 28.9864L3.89422 29.9179L3.06065 30.8494L3.45896 31.2058L4.29253 30.2744ZM3.89422 29.9179L4.72779 28.9864C4.76523 29.0199 4.79917 29.0596 4.82711 29.1034L3.77347 29.776L2.71982 30.4485C2.81505 30.5977 2.92948 30.732 3.06064 30.8494L3.89422 29.9179ZM3.77347 29.776L4.82712 29.1034L4.54118 28.6555L3.48753 29.328L2.43388 30.0006L2.71982 30.4485L3.77347 29.776ZM3.48753 29.328L4.54118 28.6555L4.25524 28.2075L3.2016 28.88L2.14795 29.5526L2.43388 30.0006L3.48753 29.328ZM3.2016 28.88L4.25525 28.2075C4.28473 28.2537 4.30738 28.3037 4.3224 28.3543L3.12422 28.7105L1.92605 29.0667C1.97695 29.2379 2.05118 29.401 2.14794 29.5526L3.2016 28.88ZM3.12422 28.7105L4.3224 28.3543L4.16989 27.8413L2.97172 28.1975L1.77354 28.5537L1.92605 29.0667L3.12422 28.7105ZM2.97172 28.1975L4.16989 27.8413L4.01738 27.3283L2.81921 27.6845L1.62104 28.0407L1.77354 28.5537L2.97172 28.1975ZM2.81921 27.6845L4.01738 27.3283C3.99473 27.2521 3.97066 27.1766 3.94514 27.102L2.76243 27.5067L1.57973 27.9113C1.59403 27.9531 1.60781 27.9962 1.62104 28.0407L2.81921 27.6845ZM2.76243 27.5067L3.94514 27.1021L3.77591 26.6074L2.59321 27.012L1.4105 27.4166L1.57973 27.9113L2.76243 27.5067ZM2.59321 27.012L3.77591 26.6074L3.60669 26.1127L2.42398 26.5173L1.24128 26.9219L1.4105 27.4166L2.59321 27.012ZM2.42398 26.5173L3.60669 26.1127C3.5723 26.0122 3.53267 25.914 3.48813 25.8181L2.35446 26.3447L1.22078 26.8712C1.22913 26.8892 1.23585 26.9061 1.24128 26.9219L2.42398 26.5173ZM2.35446 26.3447L3.48813 25.8181L3.26338 25.3342L2.1297 25.8608L0.99602 26.3873L1.22078 26.8712L2.35446 26.3447ZM2.1297 25.8608L3.26338 25.3342L3.03862 24.8503L1.90495 25.3769L0.771266 25.9034L0.996021 26.3873L2.1297 25.8608ZM1.90495 25.3769L3.03863 24.8503C3.06001 24.8963 3.0757 24.9468 3.08415 24.9989L1.8503 25.1992L0.616448 25.3995C0.644877 25.5746 0.697001 25.7435 0.771264 25.9034L1.90495 25.3769ZM1.8503 25.1992L3.08415 24.9989L2.99923 24.4757L1.76538 24.676L0.531528 24.8763L0.616447 25.3994L1.8503 25.1992ZM1.76538 24.676L2.99923 24.4757L2.91431 23.9526L1.68046 24.1529L0.446608 24.3532L0.531528 24.8763L1.76538 24.676ZM1.68046 24.1529L2.91431 23.9526C2.89718 23.8471 2.8745 23.743 2.84658 23.6403L1.64041 23.9685L0.434244 24.2966C0.439737 24.3168 0.443751 24.3356 0.446608 24.3532L1.68046 24.1529ZM1.64041 23.9685L2.84658 23.6403L2.70457 23.1183L1.4984 23.4464L0.292235 23.7745L0.434244 24.2966L1.64041 23.9685ZM1.4984 23.4464L2.70457 23.1183L2.56256 22.5963L1.35639 22.9244L0.150226 23.2525L0.292235 23.7745L1.4984 23.4464ZM1.35639 22.9244L2.56256 22.5963C2.57962 22.659 2.58716 22.7256 2.58429 22.7915L1.33547 22.7372L0.0866552 22.6828C0.0782669 22.8755 0.0997507 23.0669 0.150226 23.2525L1.35639 22.9244ZM1.33547 22.7372L2.58429 22.7915L2.60774 22.2527L1.35893 22.1983L0.110109 22.144L0.0866552 22.6828L1.33547 22.7372ZM1.35893 22.1983L2.60774 22.2527L2.6312 21.7138L1.38238 21.6595L0.133562 21.6051L0.110109 22.144L1.35893 22.1983ZM1.38238 21.6595L2.6312 21.7138C2.63681 21.5849 2.63229 21.4555 2.61726 21.3265L1.37565 21.471L0.134038 21.6156C0.1335 21.611 0.133469 21.6073 0.133562 21.6051L1.38238 21.6595ZM1.37565 21.471L2.61726 21.3265L2.55566 20.7975L1.31405 20.942L0.0724383 21.0866L0.134038 21.6156L1.37565 21.471ZM1.31405 20.942L2.55566 20.7975L2.49406 20.2685L1.25245 20.413L0.0108387 20.5576L0.0724384 21.0866L1.31405 20.942ZM1.25245 20.413L2.49406 20.2685C2.51268 20.4284 2.48619 20.5785 2.43628 20.7006L1.27925 20.2276L0.12221 19.7545C0.0220779 19.9994 -0.022277 20.2732 0.0108386 20.5576L1.25245 20.413ZM1.27925 20.2276L2.43628 20.7006L2.64973 20.1785L1.49269 19.7055L0.335654 19.2324L0.122209 19.7545L1.27925 20.2276ZM1.49269 19.7055L2.64973 20.1785L2.86317 19.6564L1.70614 19.1834L0.5491 18.7104L0.335655 19.2324L1.49269 19.7055ZM1.70614 19.1834L2.86317 19.6564C3.0063 19.3064 3.00947 18.9332 2.89569 18.595L1.71091 18.9935L0.526134 19.392C0.494554 19.2981 0.473379 19.1848 0.476558 19.0584C0.479756 18.9313 0.507048 18.8132 0.549099 18.7104L1.70614 19.1834ZM1.71091 18.9935L2.89569 18.595L2.70931 18.0409L1.52453 18.4394L0.339755 18.8379L0.526133 19.392L1.71091 18.9935ZM1.52453 18.4394L2.70931 18.0409L2.52293 17.4867L1.33816 17.8852L0.153378 18.2837L0.339756 18.8379L1.52453 18.4394ZM1.33816 17.8852L2.52294 17.4867C2.57136 17.6307 2.59004 17.8175 2.53804 18.0148L1.32933 17.6962L0.120617 17.3775C0.0365386 17.6965 0.0611017 18.0094 0.153377 18.2837L1.33816 17.8852ZM1.32933 17.6962L2.53804 18.0148L2.6744 17.4975L1.46568 17.1789L0.256972 16.8603L0.120616 17.3775L1.32933 17.6962ZM1.46568 17.1789L2.6744 17.4975L2.81075 16.9802L1.60204 16.6616L0.393328 16.343L0.256972 16.8603L1.46568 17.1789ZM1.60204 16.6616L2.81075 16.9802C2.82421 16.9291 2.83847 16.8775 2.85356 16.8254L1.65281 16.478L0.452064 16.1306C0.431538 16.2015 0.411955 16.2723 0.393328 16.343L1.60204 16.6616ZM1.65281 16.478L2.85356 16.8254L3.0049 16.3024L1.80415 15.9549L0.603404 15.6075L0.452063 16.1306L1.65281 16.478ZM1.80415 15.9549L3.0049 16.3024L3.15624 15.7793L1.95549 15.4319L0.754745 15.0845L0.603404 15.6075L1.80415 15.9549ZM1.95549 15.4319L3.15624 15.7793C3.15156 15.7955 3.14576 15.8095 3.14006 15.8207L2.02673 15.2523L0.913412 14.684C0.848332 14.8115 0.795034 14.9452 0.754745 15.0845L1.95549 15.4319ZM2.02673 15.2523L3.14006 15.8207L3.39242 15.3263L2.27909 14.758L1.16577 14.1897L0.913411 14.684L2.02673 15.2523ZM2.27909 14.758L3.39242 15.3263L3.64478 14.832L2.53145 14.2637L1.41813 13.6953L1.16577 14.1897L2.27909 14.758ZM2.53145 14.2637L3.64478 14.832C3.77746 14.5721 3.83612 14.2849 3.81657 13.9945L2.5694 14.0785L1.32222 14.1624C1.31146 14.0027 1.34482 13.8389 1.41813 13.6953L2.53145 14.2637ZM2.5694 14.0785L3.81657 13.9945L3.77922 13.4396L2.53204 13.5236L1.28487 13.6075L1.32222 14.1624L2.5694 14.0785ZM2.53204 13.5236L3.77922 13.4396L3.74187 12.8847L2.49469 12.9686L1.24751 13.0526L1.28487 13.6075L2.53204 13.5236ZM2.49469 12.9686L3.74187 12.8847C3.74771 12.9716 3.73791 13.0683 3.70658 13.1652L2.51716 12.7808L1.32774 12.3964C1.25766 12.6132 1.23288 12.8352 1.24751 13.0526L2.49469 12.9686ZM2.51716 12.7808L3.70658 13.1652L3.87125 12.6557L2.68183 12.2713L1.49241 11.8869L1.32774 12.3964L2.51716 12.7808ZM2.68183 12.2713L3.87125 12.6557L4.03593 12.1462L2.8465 11.7618L1.65708 11.3774L1.49241 11.8869L2.68183 12.2713ZM2.8465 11.7618L4.03593 12.1462C4.00085 12.2547 3.9453 12.3468 3.8833 12.418L2.94065 11.5971L1.998 10.7762C1.84922 10.947 1.7309 11.1489 1.65708 11.3774L2.8465 11.7618ZM2.94065 11.5971L3.8833 12.418L4.25211 11.9945L3.30946 11.1736L2.36681 10.3527L1.998 10.7762L2.94065 11.5971ZM3.30946 11.1736L4.25211 11.9945L4.62092 11.571L3.67827 10.7501L2.73563 9.92919L2.36681 10.3527L3.30946 11.1736ZM3.67827 10.7501L4.62093 11.571C4.73536 11.4396 4.83671 11.2889 4.91583 11.1183L3.78192 10.5923L2.64801 10.0662C2.67571 10.0065 2.70796 9.96096 2.73562 9.9292L3.67827 10.7501ZM3.78192 10.5923L4.91584 11.1183L5.13435 10.6473L4.00043 10.1213L2.86651 9.59521L2.648 10.0662L3.78192 10.5923ZM4.00043 10.1213L5.13435 10.6473L5.35286 10.1763L4.21894 9.65027L3.08503 9.12421L2.86651 9.59521L4.00043 10.1213ZM4.21894 9.65027L5.35286 10.1763C5.42315 10.0248 5.47167 9.86992 5.50252 9.71607L4.2769 9.47037L3.05129 9.22466C3.05626 9.19985 3.06614 9.16491 3.08502 9.12421L4.21894 9.65027ZM4.2769 9.47037L5.50252 9.71607L5.61247 9.16763L4.38685 8.92193L3.16124 8.67622L3.05129 9.22466L4.2769 9.47037ZM4.38685 8.92193L5.61247 9.16763L5.72241 8.61919L4.4968 8.37349L3.27119 8.12778L3.16124 8.67622L4.38685 8.92193ZM4.4968 8.37349L5.72241 8.61919C5.70068 8.72761 5.65328 8.84203 5.57641 8.9456L4.57266 8.20064L3.5689 7.45567C3.41676 7.66066 3.31879 7.89031 3.27119 8.12778L4.4968 8.37349ZM4.57266 8.20064L5.57641 8.9456L5.89633 8.51455L4.89257 7.76958L3.88882 7.02462L3.5689 7.45567L4.57266 8.20064ZM4.89257 7.76958L5.89633 8.51455L6.21625 8.0835L5.21249 7.33853L4.20873 6.59357L3.88882 7.02462L4.89257 7.76958ZM5.21249 7.33853L6.21625 8.0835C6.2764 8.00244 6.33277 7.91882 6.38535 7.83276L5.3187 7.18104L4.25204 6.52931C4.23829 6.55182 4.22385 6.5732 4.20873 6.59357L5.21249 7.33853ZM5.3187 7.18104L6.38536 7.83276L6.66729 7.37132L5.60063 6.7196L4.53398 6.06788L4.25204 6.52931L5.3187 7.18104ZM5.60063 6.7196L6.66729 7.37133L6.94922 6.90989L5.88257 6.25817L4.81591 5.60644L4.53398 6.06788L5.60063 6.7196ZM5.88257 6.25817L6.94923 6.90989C6.95457 6.90115 6.96053 6.89262 6.96736 6.8841L5.99226 6.102L5.01717 5.3199C4.94407 5.41103 4.87691 5.50662 4.81591 5.60645L5.88257 6.25817ZM5.99226 6.102L6.96737 6.8841L7.30705 6.46059L6.33194 5.6785L5.35684 4.8964L5.01716 5.3199L5.99226 6.102ZM6.33194 5.6785L7.30705 6.4606L7.64673 6.03709L6.67162 5.25499L5.69652 4.47289L5.35684 4.8964L6.33194 5.6785ZM6.67162 5.25499L7.64673 6.03709C7.48308 6.24112 7.26966 6.3444 7.09443 6.38128L6.83704 5.15806L6.57965 3.93485C6.26379 4.00131 5.9401 4.16921 5.69652 4.4729L6.67162 5.25499ZM6.83704 5.15806L7.09443 6.38128L7.69208 6.25552L7.43469 5.0323L7.1773 3.80909L6.57964 3.93485L6.83704 5.15806ZM7.43469 5.0323L7.69208 6.25552L8.28973 6.12976L8.03234 4.90654L7.77495 3.68333L7.1773 3.80909L7.43469 5.0323ZM8.03234 4.90654L8.28974 6.12976C8.73313 6.03646 9.1074 5.75045 9.30939 5.33293L8.18415 4.78856L7.05892 4.24418C7.11815 4.12175 7.21379 3.98948 7.35597 3.87898C7.4977 3.76882 7.64716 3.71022 7.77495 3.68333L8.03234 4.90654ZM8.18415 4.78856L9.30939 5.33293L9.572 4.79011L8.44676 4.24573L7.32153 3.70136L7.05892 4.24419L8.18415 4.78856ZM8.44676 4.24573L9.572 4.79011L9.83461 4.24728L8.70937 3.70291L7.58414 3.15854L7.32153 3.70136L8.44676 4.24573ZM8.70937 3.70291L9.83461 4.24728C9.78797 4.34369 9.71266 4.4567 9.59642 4.55967C9.4782 4.6644 9.34384 4.73539 9.21014 4.77569L8.84938 3.57888L8.48862 2.38207C8.0598 2.51133 7.75241 2.8107 7.58414 3.15854L8.70937 3.70291ZM8.84938 3.57888L9.21014 4.77569L9.74089 4.61571L9.38013 3.4189L9.01937 2.22209L8.48862 2.38207L8.84938 3.57888ZM9.38013 3.4189L9.74089 4.61571L10.2716 4.45572L9.91088 3.25891L9.55013 2.0621L9.01937 2.22209L9.38013 3.4189ZM9.91088 3.25891L10.2716 4.45572C10.2996 4.4473 10.3262 4.44058 10.3517 4.4353L10.0982 3.21128L9.84462 1.98727C9.74526 2.00785 9.64707 2.03288 9.55013 2.0621L9.91088 3.25891ZM10.0982 3.21128L10.3517 4.4353L10.8823 4.32539L10.6287 3.10138L10.3752 1.87737L9.84462 1.98727L10.0982 3.21128ZM10.6287 3.10138L10.8823 4.32539L11.4128 4.21549L11.1593 2.99148L10.9057 1.76746L10.3752 1.87737L10.6287 3.10138ZM11.1593 2.99148L11.4128 4.21549C11.6556 4.1652 11.8804 4.06321 12.0766 3.91728L11.3305 2.91438L10.5844 1.91147C10.6771 1.84248 10.7878 1.7919 10.9057 1.76746L11.1593 2.99148ZM11.3305 2.91438L12.0766 3.91728L12.5161 3.59029L11.77 2.58738L11.0239 1.58448L10.5844 1.91148L11.3305 2.91438ZM11.77 2.58738L12.5161 3.59029L12.9557 3.26329L12.2095 2.26039L11.4634 1.25749L11.0239 1.58448L11.77 2.58738ZM12.2095 2.26039L12.9557 3.26329C12.8704 3.32671 12.7662 3.37652 12.6512 3.40219L12.3789 2.1822L12.1067 0.9622C11.8692 1.01519 11.6521 1.11713 11.4634 1.25749L12.2095 2.26039ZM12.3789 2.1822L12.6512 3.40219L13.1715 3.28609L12.8992 2.06609L12.627 0.846098L12.1067 0.962201L12.3789 2.1822ZM12.8992 2.06609L13.1715 3.28609L13.6918 3.16999L13.4195 1.94999L13.1473 0.729996L12.627 0.846098L12.8992 2.06609ZM13.4195 1.94999L13.6918 3.16999C13.6579 3.17754 13.6238 3.18092 13.5915 3.18054L13.6063 1.93062L13.621 0.68071C13.4622 0.678835 13.3036 0.695125 13.1473 0.729996L13.4195 1.94999ZM13.6063 1.93062L13.5915 3.18054L14.1295 3.18689L14.1443 1.93697L14.1591 0.68706L13.621 0.68071L13.6063 1.93062ZM14.1443 1.93697L14.1295 3.18689L14.6676 3.19323L14.6823 1.94332L14.6971 0.693409L14.1591 0.68706L14.1443 1.93697ZM14.6823 1.94332L14.6676 3.19323C14.9754 3.19687 15.2579 3.11144 15.4969 2.97162L14.8656 1.89276L14.2342 0.8139C14.3554 0.742991 14.5158 0.69127 14.6971 0.693409L14.6823 1.94332ZM14.8656 1.89276L15.4969 2.97162L15.9974 2.67876L15.366 1.5999L14.7347 0.52104L14.2342 0.813901L14.8656 1.89276ZM15.366 1.5999L15.9974 2.67876L16.4978 2.3859L15.8665 1.30704L15.2352 0.228178L14.7347 0.52104L15.366 1.5999ZM15.8665 1.30704L16.4978 2.3859C16.3815 2.45395 16.2286 2.50412 16.0557 2.50491L16.05 1.25492L16.0443 0.00493606C15.7445 0.00630175 15.4692 0.0912146 15.2352 0.22818L15.8665 1.30704ZM16.05 1.25492L16.0557 2.50491L16.5953 2.50245L16.5896 1.25247L16.5839 0.00247866L16.0443 0.00493606L16.05 1.25492ZM16.5896 1.25247L16.5953 2.50245L17.1348 2.5L17.1291 1.25001L17.1234 2.1249e-05L16.5839 0.00247866L16.5896 1.25247ZM17.1291 1.25001L17.1348 2.5C17.0974 2.50017 17.061 2.49573 17.0276 2.48776L17.318 1.27195L17.6083 0.0561367C17.4501 0.0183362 17.2877 -0.000727204 17.1234 2.12486e-05L17.1291 1.25001ZM17.318 1.27195L17.0276 2.48776L17.5585 2.61454L17.8489 1.39873L18.1392 0.182918L17.6083 0.0561371L17.318 1.27195ZM17.8489 1.39873L17.5585 2.61454L18.0894 2.74132L18.3797 1.52551L18.6701 0.309698L18.1392 0.182918L17.8489 1.39873ZM18.3797 1.52551L18.0894 2.74132C18.1134 2.74705 18.1363 2.75372 18.1584 2.76129L18.5637 1.57883L18.969 0.396369C18.8707 0.362673 18.771 0.333803 18.6701 0.309699L18.3797 1.52551ZM18.5637 1.57883L18.1584 2.76129L18.67 2.93667L19.0754 1.75421L19.4807 0.571748L18.969 0.39637L18.5637 1.57883ZM19.0754 1.75421L18.67 2.93667L19.1817 3.11205L19.587 1.92959L19.9923 0.747126L19.4807 0.571748L19.0754 1.75421ZM19.587 1.92959L19.1817 3.11205C19.3955 3.18533 19.62 3.21611 19.8461 3.20274L19.7724 1.95492L19.6986 0.707094C19.798 0.70122 19.8989 0.715111 19.9923 0.747126L19.587 1.92959ZM19.7724 1.95492L19.8461 3.20274L20.3849 3.17089L20.3112 1.92307L20.2374 0.675246L19.6986 0.707094L19.7724 1.95492ZM20.3112 1.92307L20.3849 3.17089L20.9237 3.13904L20.85 1.89122L20.7762 0.643398L20.2374 0.675246L20.3112 1.92307ZM20.85 1.89122L20.9237 3.13904C20.8944 3.14078 20.8625 3.13931 20.83 3.13383L21.0377 1.90121L21.2454 0.66859C21.0894 0.642298 20.9324 0.634167 20.7762 0.643398L20.85 1.89122ZM21.0377 1.90121L20.83 3.13383L21.3548 3.22228L21.5625 1.98966L21.7703 0.75704L21.2454 0.66859L21.0377 1.90121ZM21.5625 1.98966L21.3548 3.22228L21.8796 3.31073L22.0874 2.07811L22.2951 0.84549L21.7703 0.75704L21.5625 1.98966ZM22.0874 2.07811L21.8796 3.31073C21.8663 3.30848 21.8528 3.30493 21.8402 3.30031L22.2682 2.12588L22.6963 0.951464C22.5659 0.903955 22.4319 0.868548 22.2951 0.84549L22.0874 2.07811ZM22.2682 2.12588L21.8402 3.3003L22.3403 3.48259L22.7683 2.30817L23.1964 1.13375L22.6963 0.951465L22.2682 2.12588ZM22.7683 2.30817L22.3403 3.48259L22.8404 3.66487L23.2684 2.49045L23.6965 1.31603L23.1964 1.13375L22.7683 2.30817ZM23.2684 2.49045L22.8404 3.66487C22.8718 3.67634 22.9027 3.68881 22.9329 3.7023L23.4422 2.56077L23.9515 1.41923C23.8677 1.38185 23.7827 1.34745 23.6965 1.31603L23.2684 2.49045ZM23.4422 2.56077L22.9329 3.7023L23.4174 3.91848L23.9267 2.77695L24.436 1.63542L23.9515 1.41924L23.4422 2.56077ZM23.9267 2.77695L23.4174 3.91848L23.9019 4.13466L24.4112 2.99313L24.9206 1.8516L24.436 1.63542L23.9267 2.77695ZM24.4112 2.99313L23.9019 4.13466C24.0462 4.19905 24.1953 4.24579 24.3469 4.27599L24.5912 3.05009L24.8355 1.8242C24.8611 1.82931 24.8902 1.83807 24.9206 1.8516L24.4112 2.99313ZM24.5912 3.05009L24.3469 4.27599L24.882 4.38262L25.1263 3.15673L25.3706 1.93083L24.8355 1.8242L24.5912 3.05009ZM25.1263 3.15673L24.882 4.38263L25.4171 4.48926L25.6614 3.26336L25.9057 2.03746L25.3706 1.93083L25.1263 3.15673ZM25.6614 3.26336L25.4171 4.48926C25.2634 4.45863 25.1184 4.38651 25.002 4.28396L25.8283 3.34602L26.6546 2.40808C26.4416 2.22041 26.1853 2.09319 25.9057 2.03746L25.6614 3.26336ZM25.8283 3.34602L25.002 4.28396L25.4127 4.64574L26.239 3.7078L27.0653 2.76987L26.6546 2.40809L25.8283 3.34602ZM26.239 3.7078L25.4127 4.64574L25.8233 5.00752L26.6496 4.06958L27.4759 3.13165L27.0653 2.76987L26.239 3.7078ZM26.6496 4.06958L25.8233 5.00752C25.8884 5.06487 25.9548 5.12027 26.0226 5.17356L26.7955 4.19118L27.5684 3.20879C27.5383 3.18509 27.5074 3.15942 27.4759 3.13165L26.6496 4.06958ZM26.7955 4.19118L26.0226 5.17356L26.4385 5.50081L27.2114 4.51843L27.9843 3.53605L27.5684 3.2088L26.7955 4.19118ZM27.2114 4.51843L26.4385 5.50081L26.8544 5.82806L27.6273 4.84568L28.4003 3.8633L27.9843 3.53605L27.2114 4.51843ZM27.6273 4.84568L26.8544 5.82806C27.0992 6.02067 27.3731 6.1198 27.6325 6.15604L27.8055 4.91806L27.9784 3.68008C28.0982 3.69681 28.2533 3.74769 28.4003 3.8633L27.6273 4.84568ZM27.8055 4.91806L27.6325 6.15604L28.2259 6.23892L28.3988 5.00094L28.5718 3.76296L27.9784 3.68008L27.8055 4.91806ZM28.3988 5.00094L28.2259 6.23892L28.8193 6.32181L28.9922 5.08383L29.1651 3.84585L28.5718 3.76296L28.3988 5.00094ZM28.9922 5.08383L28.8193 6.32181C28.6935 6.30424 28.5399 6.25735 28.3884 6.15607C28.2354 6.05377 28.1267 5.92405 28.0561 5.79809L29.1466 5.18703L30.237 4.57596C30.0038 4.15985 29.6032 3.90705 29.1651 3.84585L28.9922 5.08383ZM29.1466 5.18703L28.0561 5.79808L28.3373 6.29997L29.4278 5.68892L30.5183 5.07786L30.237 4.57597L29.1466 5.18703ZM29.4278 5.68892L28.3373 6.29997L28.6186 6.80187L29.709 6.19081L30.7995 5.57975L30.5183 5.07786L29.4278 5.68892ZM29.709 6.19081L28.6186 6.80186C28.7182 6.97973 28.8511 7.14884 29.0222 7.2937L29.8299 6.33968L30.6376 5.38565C30.7137 5.45012 30.766 5.51999 30.7995 5.57976L29.709 6.19081ZM29.8299 6.33968L29.0222 7.2937L29.4258 7.63537L30.2335 6.68135L31.0412 5.72733L30.6376 5.38565L29.8299 6.33968ZM30.2335 6.68135L29.4258 7.63538L29.8294 7.97705L30.6371 7.02303L31.4447 6.06901L31.0412 5.72733L30.2335 6.68135ZM30.6371 7.02303L29.8294 7.97705C29.758 7.91664 29.7004 7.84461 29.6588 7.76901L30.7541 7.16668L31.8494 6.56434C31.7467 6.37761 31.6111 6.20981 31.4447 6.06901L30.6371 7.02303ZM30.7541 7.16668L29.6588 7.769L29.9186 8.24133L31.0139 7.639L32.1092 7.03668L31.8494 6.56435L30.7541 7.16668ZM31.0139 7.639L29.9186 8.24133L30.1783 8.71366L31.2736 8.11133L32.3689 7.509L32.1092 7.03667L31.0139 7.639ZM31.2736 8.11133L30.1783 8.71365C30.3195 8.97041 30.5216 9.1729 30.7572 9.31549L31.4045 8.24618L32.0519 7.17688C32.174 7.2508 32.2888 7.36338 32.3689 7.50901L31.2736 8.11133ZM31.4045 8.24618L30.7571 9.31549L31.2392 9.60735L31.8866 8.53805L32.534 7.46874L32.0519 7.17688L31.4045 8.24618ZM31.8866 8.53805L31.2392 9.60735L31.7213 9.89922L32.3687 8.82991L33.0161 7.76061L32.534 7.46874L31.8866 8.53805ZM32.3687 8.82991L31.7213 9.89922C31.6521 9.85729 31.5816 9.79752 31.5215 9.71955L32.5118 8.95668L33.502 8.19381C33.3646 8.01549 33.1988 7.87121 33.0161 7.76061L32.3687 8.82991ZM32.5118 8.95668L31.5215 9.71954L31.8501 10.146L32.8403 9.38315L33.8305 8.62029L33.502 8.19382L32.5118 8.95668ZM32.8403 9.38315L31.8501 10.146L32.1786 10.5725L33.1689 9.80962L34.1591 9.04676L33.8305 8.62029L32.8403 9.38315ZM33.1689 9.80962L32.1786 10.5725C32.0763 10.4397 32.0196 10.2889 32.0009 10.1486L33.24 9.98383L34.4791 9.81902C34.4429 9.54678 34.3387 9.27991 34.1591 9.04677L33.1689 9.80962ZM33.24 9.98383L32.0009 10.1486L32.0755 10.7093L33.3146 10.5445L34.5537 10.3797L34.4791 9.81903L33.24 9.98383ZM33.3146 10.5445L32.0755 10.7093L32.1501 11.27L33.3891 11.1052L34.6282 10.9404L34.5537 10.3797L33.3146 10.5445ZM33.3891 11.1052L32.1501 11.27C32.1708 11.4263 32.2094 11.5855 32.2708 11.7432L33.4356 11.2897L34.6004 10.8361C34.6174 10.8798 34.625 10.9161 34.6282 10.9404L33.3891 11.1052ZM33.4356 11.2897L32.2708 11.7432L32.4595 12.2278L33.6243 11.7743L34.7891 11.3207L34.6004 10.8362L33.4356 11.2897ZM33.6243 11.7743L32.4595 12.2278L32.6481 12.7124L33.813 12.2589L34.9778 11.8053L34.7891 11.3207L33.6243 11.7743ZM33.813 12.2589L32.6481 12.7124C32.7047 12.8577 32.7763 12.9928 32.8591 13.1173L33.8999 12.425L34.9407 11.7328C34.952 11.7498 34.9656 11.774 34.9778 11.8053L33.813 12.2589ZM33.8999 12.425L32.8591 13.1173L33.1631 13.5744L34.2039 12.8821L35.2447 12.1899L34.9407 11.7328L33.8999 12.425ZM34.2039 12.8821L33.1631 13.5744L33.4671 14.0315L34.5079 13.3392L35.5487 12.647L35.2447 12.1899L34.2039 12.8821ZM34.5079 13.3392L33.4671 14.0315C33.3808 13.9017 33.3254 13.7422 33.3174 13.5735L34.566 13.5144L35.8146 13.4552C35.8007 13.1606 35.7066 12.8843 35.5487 12.647L34.5079 13.3392ZM34.566 13.5144L33.3174 13.5735L33.3428 14.1088L34.5914 14.0497L35.84 13.9906L35.8146 13.4552L34.566 13.5144ZM34.5914 14.0497L33.3428 14.1088L33.3681 14.6441L34.6167 14.585L35.8653 14.5259L35.84 13.9906L34.5914 14.0497ZM34.6167 14.585L33.3681 14.6441C33.379 14.8728 33.4344 15.0886 33.523 15.2849L34.6622 14.7703L35.8014 14.2557C35.8354 14.331 35.8605 14.4232 35.8653 14.5259L34.6167 14.585ZM34.6622 14.7703L33.523 15.2849L33.7555 15.7995L34.8947 15.2849L36.0338 14.7703L35.8014 14.2557L34.6622 14.7703ZM34.8947 15.2849L33.7555 15.7995L33.9879 16.314L35.1271 15.7995L36.2663 15.2849L36.0338 14.7703L34.8947 15.2849ZM35.1271 15.7995L33.9879 16.314C33.9233 16.1709 33.8935 15.9997 33.9161 15.8251L35.1557 15.9858L36.3954 16.1465C36.4345 15.8445 36.3856 15.5492 36.2663 15.2849L35.1271 15.7995ZM35.1557 15.9858L33.9161 15.825L33.8459 16.3662L35.0856 16.5269L36.3252 16.6877L36.3954 16.1465L35.1557 15.9858ZM35.0856 16.5269L33.8459 16.3662L33.7758 16.9074L35.0154 17.0681L36.255 17.2288L36.3252 16.6877L35.0856 16.5269ZM35.0154 17.0681L33.7758 16.9073C33.775 16.9134 33.7739 16.9185 33.7726 16.9233L34.9775 17.2558L36.1825 17.5884C36.2151 17.4702 36.2393 17.3502 36.255 17.2289L35.0154 17.0681ZM34.9775 17.2558L33.7726 16.9232L33.6283 17.446L34.8333 17.7786L36.0382 18.1112L36.1825 17.5884L34.9775 17.2558ZM34.8333 17.7786L33.6283 17.446L33.484 17.9687L34.689 18.3013L35.8939 18.6339L36.0382 18.1112L34.8333 17.7786ZM34.689 18.3013L33.484 17.9687C33.4377 18.1364 33.4139 18.3089 33.4131 18.4833L34.6631 18.489L35.9131 18.4946C35.9128 18.5418 35.9063 18.5892 35.8939 18.6339L34.689 18.3013ZM34.6631 18.489L33.4131 18.4833L33.4106 19.0242L34.6606 19.0298L35.9106 19.0355L35.9131 18.4947L34.6631 18.489ZM34.6606 19.0298L33.4106 19.0242L33.4082 19.565L34.6582 19.5707L35.9081 19.5764L35.9106 19.0355L34.6606 19.0298ZM34.6582 19.5707L33.4082 19.565C33.4082 19.5677 33.408 19.5689 33.4079 19.5693L34.6434 19.7593L35.8789 19.9494C35.8979 19.8255 35.9076 19.701 35.9081 19.5764L34.6582 19.5707ZM34.6434 19.7593L33.4079 19.5693L33.3267 20.0973L34.5621 20.2874L35.7976 20.4775L35.8788 19.9494L34.6434 19.7593ZM34.5621 20.2874L33.3267 20.0973L33.2454 20.6254L34.4809 20.8155L35.7164 21.0055L35.7976 20.4775L34.5621 20.2874ZM34.4809 20.8155L33.2454 20.6254C33.231 20.7192 33.2202 20.8134 33.2129 20.9081L34.4593 21.0038L35.7056 21.0994C35.7081 21.0673 35.7117 21.036 35.7164 21.0055L34.4809 20.8155ZM34.4593 21.0038L33.2129 20.9081L33.1715 21.447L34.4179 21.5427L35.6642 21.6384L35.7056 21.0995L34.4593 21.0038ZM34.4179 21.5427L33.1715 21.447L33.1302 21.986L34.3765 22.0817L35.6228 22.1774L35.6642 21.6384L34.4179 21.5427ZM34.3765 22.0817L33.1302 21.986C33.1394 21.8661 33.1752 21.752 33.2294 21.6546L34.3219 22.2619L35.4145 22.8692C35.5317 22.6583 35.6039 22.4242 35.6228 22.1774L34.3765 22.0817ZM34.3219 22.2619L33.2294 21.6546L32.9614 22.1366L34.0539 22.744L35.1465 23.3513L35.4144 22.8692L34.3219 22.2619ZM34.0539 22.744L32.9614 22.1366L32.6934 22.6187L33.786 23.226L34.8785 23.8334L35.1465 23.3513L34.0539 22.744ZM33.786 23.226L32.6934 22.6187C32.617 22.7562 32.5551 22.9034 32.5107 23.0593L33.713 23.4013L34.9153 23.7432C34.9052 23.779 34.8919 23.8093 34.8785 23.8334L33.786 23.226ZM33.713 23.4013L32.5107 23.0593L32.3653 23.5704L33.5677 23.9124L34.77 24.2543L34.9153 23.7433L33.713 23.4013ZM33.5677 23.9124L32.3653 23.5704L32.22 24.0815L33.4223 24.4234L34.6246 24.7654L34.77 24.2543L33.5677 23.9124ZM33.4223 24.4234L32.22 24.0814C32.2489 23.9797 32.2964 23.892 32.3503 23.8228L33.3363 24.591L34.3224 25.3593C34.4567 25.1869 34.5615 24.9874 34.6246 24.7654L33.4223 24.4234ZM33.3363 24.591L32.3503 23.8228L32.0084 24.2615L32.9945 25.0298L33.9805 25.7981L34.3223 25.3593L33.3363 24.591ZM32.9945 25.0298L32.0084 24.2615L31.6666 24.7003L32.6526 25.4686L33.6386 26.2368L33.9805 25.7981L32.9945 25.0298ZM32.6526 25.4686L31.6666 24.7003C31.5178 24.8912 31.4076 25.1155 31.3518 25.3653L32.5718 25.6377L33.7917 25.9101C33.7633 26.0376 33.7069 26.1492 33.6386 26.2368L32.6526 25.4686ZM32.5718 25.6377L31.3518 25.3653L31.2358 25.885L32.4557 26.1574L33.6757 26.4299L33.7917 25.9101L32.5718 25.6377ZM32.4557 26.1574L31.2358 25.885L31.1197 26.4047L32.3397 26.6772L33.5596 26.9496L33.6757 26.4299L32.4557 26.1574ZM32.3397 26.6772L31.1197 26.4047C31.1318 26.3508 31.152 26.2968 31.1797 26.2465L32.2741 26.8506L33.3685 27.4546C33.4564 27.2954 33.5203 27.1258 33.5596 26.9496L32.3397 26.6772ZM32.2741 26.8506L31.1797 26.2465L30.9243 26.7093L32.0186 27.3134L33.113 27.9174L33.3685 27.4546L32.2741 26.8506ZM32.0186 27.3134L30.9243 26.7094L30.6688 27.1722L31.7632 27.7762L32.8575 28.3803L33.113 27.9174L32.0186 27.3134ZM31.7632 27.7762L30.6688 27.1722C30.5403 27.4049 30.4788 27.6492 30.4641 27.8823L31.7116 27.961L32.9591 28.0396C32.9531 28.1353 32.9259 28.2564 32.8575 28.3803L31.7632 27.7762ZM31.7116 27.961L30.4641 27.8823L30.4272 28.4664L31.6748 28.5451L32.9223 28.6238L32.9591 28.0397L31.7116 27.961ZM31.6748 28.5451L30.4272 28.4665L30.3904 29.0506L31.6379 29.1293L32.8854 29.2079L32.9223 28.6238L31.6748 28.5451ZM31.6379 29.1293L30.3904 29.0506C30.3981 28.9277 30.4366 28.7829 30.524 28.6448L31.5804 29.313L32.6369 29.9811C32.7922 29.7355 32.869 29.4683 32.8854 29.2079L31.6379 29.1293ZM31.5804 29.313L30.524 28.6448L30.235 29.1017L31.2915 29.7698L32.3479 30.438L32.6369 29.9811L31.5804 29.313ZM31.2915 29.7698L30.235 29.1017L29.9461 29.5585L31.0026 30.2267L32.059 30.8948L32.348 30.4379L31.2915 29.7698ZM31.0026 30.2267L29.9461 29.5585C30.0007 29.4723 30.0689 29.4028 30.1395 29.3519L30.8712 30.3653L31.603 31.3787C31.7807 31.2504 31.9365 31.0885 32.059 30.8948L31.0026 30.2267ZM30.8712 30.3653L30.1395 29.3519L29.6843 29.6806L30.416 30.694L31.1477 31.7074L31.603 31.3787L30.8712 30.3653ZM30.416 30.694L29.6843 29.6806L29.229 30.0093L29.9608 31.0227L30.6925 32.0361L31.1477 31.7074L30.416 30.694ZM29.9608 31.0227L29.229 30.0092C29.1664 30.0545 29.1051 30.1 29.0452 30.1459L29.8052 31.1383L30.5651 32.1308C30.6056 32.0998 30.648 32.0683 30.6925 32.0361L29.9608 31.0227ZM29.8052 31.1383L29.0452 30.1459L28.6188 30.4724L29.3787 31.4648L30.1387 32.4573L30.5651 32.1308L29.8052 31.1383ZM29.3787 31.4648L28.6188 30.4724L28.1924 30.7989L28.9523 31.7914L29.7123 32.7838L30.1387 32.4573L29.3787 31.4648ZM28.9523 31.7914L28.1924 30.7989C28.0826 30.8829 27.9798 30.9773 27.8856 31.0822L28.8156 31.9174L29.7455 32.7527C29.7333 32.7663 29.7217 32.7766 29.7123 32.7838L28.9523 31.7914ZM28.8156 31.9174L27.8856 31.0822L27.5372 31.4701L28.4671 32.3054L29.3971 33.1407L29.7455 32.7527L28.8156 31.9174ZM28.4671 32.3054L27.5372 31.4701L27.1887 31.8581L28.1187 32.6934L29.0486 33.5286L29.3971 33.1407L28.4671 32.3054ZM28.1187 32.6934L27.1887 31.8581C27.1925 31.8539 27.1967 31.8499 27.2007 31.8467L27.9854 32.8197L28.77 33.7928C28.8698 33.7123 28.9628 33.6241 29.0486 33.5287L28.1187 32.6934ZM27.9854 32.8197L27.2007 31.8466L26.7939 32.1747L27.5785 33.1478L28.3631 34.1209L28.77 33.7928L27.9854 32.8197ZM27.5785 33.1478L26.7939 32.1747L26.387 32.5028L27.1716 33.4759L27.9562 34.449L28.3631 34.1209L27.5785 33.1478ZM27.1716 33.4759L26.387 32.5028C26.3126 32.5627 26.2408 32.6256 26.1716 32.6914L27.0324 33.5978L27.8931 34.5042C27.9138 34.4846 27.9348 34.4662 27.9562 34.449L27.1716 33.4759ZM27.0324 33.5978L26.1716 32.6914L25.7896 33.0541L26.6504 33.9605L27.5111 34.867L27.8931 34.5042L27.0324 33.5978ZM26.6504 33.9605L25.7896 33.0541L25.4077 33.4168L26.2684 34.3233L27.1292 35.2297L27.5111 34.867L26.6504 33.9605ZM26.2684 34.3233L25.4077 33.4168C25.3053 33.5141 25.2142 33.619 25.1337 33.7292L26.1431 34.4665L27.1525 35.2038C27.1492 35.2084 27.1417 35.2178 27.1291 35.2297L26.2684 34.3233ZM26.1431 34.4665L25.1337 33.7292L24.8057 34.1782L25.8151 34.9156L26.8244 35.6529L27.1525 35.2039L26.1431 34.4665ZM25.8151 34.9156L24.8057 34.1782L24.4777 34.6273L25.487 35.3646L26.4964 36.102L26.8244 35.6529L25.8151 34.9156ZM25.487 35.3646L24.4777 34.6273C24.6032 34.4554 24.7839 34.331 24.9798 34.2732L25.3338 35.472L25.6878 36.6708C26.0108 36.5754 26.2937 36.3795 26.4964 36.102L25.487 35.3646ZM25.3338 35.472L24.9798 34.2732L24.4395 34.4328L24.7935 35.6316L25.1475 36.8304L25.6878 36.6708L25.3338 35.472ZM24.7935 35.6316L24.4395 34.4328L23.8991 34.5923L24.2532 35.7911L24.6072 36.99L25.1475 36.8304L24.7935 35.6316ZM24.2532 35.7911L23.8991 34.5923C23.7107 34.648 23.5284 34.7336 23.36 34.8523L24.0801 35.8741L24.8001 36.8959C24.7354 36.9415 24.6684 36.9719 24.6072 36.99L24.2532 35.7911ZM24.0801 35.8741L23.36 34.8523L22.9196 35.1627L23.6396 36.1845L24.3596 37.2063L24.8001 36.8959L24.0801 35.8741ZM23.6396 36.1845L22.9196 35.1627L22.4791 35.4731L23.1991 36.4948L23.9192 37.5166L24.3596 37.2063L23.6396 36.1845ZM23.1991 36.4948L22.4791 35.473C22.3423 35.5695 22.2195 35.6815 22.1117 35.8065L23.0583 36.6228L24.0049 37.4392C23.9812 37.4666 23.9524 37.4932 23.9191 37.5166L23.1991 36.4948ZM23.0583 36.6228L22.1117 35.8065L21.754 36.2212L22.7006 37.0376L23.6472 37.8539L24.0049 37.4392L23.0583 36.6228ZM22.7006 37.0376L21.754 36.2212L21.3963 36.636L22.3429 37.4524L23.2895 38.2687L23.6472 37.8539L22.7006 37.0376ZM22.3429 37.4524L21.3963 36.636C21.2815 36.769 21.1756 36.9278 21.0964 37.114L22.2466 37.6035L23.3968 38.093C23.3617 38.1752 23.32 38.2333 23.2895 38.2687L22.3429 37.4524ZM22.2466 37.6035L21.0964 37.114L20.9084 37.5557L22.0586 38.0452L23.2088 38.5347L23.3967 38.093L22.2466 37.6035ZM22.0586 38.0452L20.9084 37.5557L20.7204 37.9974L21.8706 38.4869L23.0208 38.9764L23.2088 38.5347L22.0586 38.0452ZM21.8706 38.4869L20.7204 37.9974C20.7135 38.0137 20.73 37.9714 20.7656 37.9108C20.7746 37.8955 20.8387 37.7827 20.9574 37.6658C21.0114 37.6127 21.1659 37.4676 21.417 37.3794C21.7312 37.269 22.1704 37.2657 22.5566 37.5424L21.8286 38.5585L21.1006 39.5746C21.4882 39.8524 21.9292 39.8492 22.2454 39.7382C22.4984 39.6493 22.6552 39.5026 22.7116 39.447C22.8353 39.3252 22.9054 39.204 22.9214 39.1768C22.971 39.0923 23.0056 39.0121 23.0208 38.9764L21.8706 38.4869ZM21.8286 38.5585L22.5566 37.5424L22.5063 37.5064L21.7783 38.5225L21.0502 39.5386L21.1005 39.5746L21.8286 38.5585ZM21.7783 38.5225L23.0139 38.7116L23.0304 38.6038L21.7948 38.4147L20.5592 38.2256L20.5427 38.3334L21.7783 38.5225ZM21.7948 38.4147L20.9771 37.4692L20.9015 37.5346L21.7192 38.4801L22.5368 39.4256L22.6125 39.3602L21.7948 38.4147Z" fill="var(--stroke-0, #FD9476)"/>
</svg>
