<svg preserveAspectRatio="none" width="100%" height="100%" overflow="visible" style="display: block;" viewBox="0 0 62.5255 59.7832" fill="none" xmlns="http://www.w3.org/2000/svg">
<path id="Vector 10" opacity="0.25" d="M60.9973 40.4342L59.572 39.8825L59.4712 40.1428L59.469 40.422L60.9973 40.4342ZM60.9882 41.5702L62.5164 41.5824L60.9882 41.5702ZM60.7545 43.2419L62.164 43.8327L60.7545 43.2419ZM60.5299 43.7777L59.1204 43.1869L60.5299 43.7777ZM60.3054 44.3135L61.7149 44.9042L60.3054 44.3135ZM59.8968 45.3976L58.4479 44.9114L59.8968 45.3976ZM59.7128 45.9459L58.2639 45.4597L59.7128 45.9459ZM59.5288 46.4943L60.9777 46.9805L59.5288 46.4943ZM59.1561 47.5935L57.7102 47.0982L59.1561 47.5935ZM58.9673 48.1444L60.4131 48.6398L58.9673 48.1444ZM58.7786 48.6953L57.3328 48.2L58.7786 48.6953ZM58.2441 49.7207L57.0089 48.8206L58.2441 49.7207ZM57.5525 50.6697L58.7876 51.5698L57.5525 50.6697ZM56.7595 51.5359L55.7525 50.3863L56.7595 51.5359ZM55.8651 52.3193L56.8721 53.469L55.8651 52.3193ZM55.1253 53.1966L56.4342 53.9855L55.1253 53.1966ZM54.54 54.1676L53.231 53.3787L54.54 54.1676ZM53.7822 54.966L52.9293 53.6978L53.7822 54.966ZM51.9439 56.2593L52.8997 57.4519L51.9439 56.2593ZM51.0582 56.9692L50.1024 55.7766L51.0582 56.9692ZM50.0303 57.5816L50.6459 58.9804L50.0303 57.5816ZM48.8602 58.0966L48.2445 56.6978L48.8602 58.0966ZM47.6578 58.1927L47.2713 59.6714L47.6578 58.1927ZM46.4229 57.8699L46.8094 56.3913L46.4229 57.8699ZM45.325 57.3267L44.374 58.5231L45.325 57.3267ZM44.8446 56.9448L43.8936 58.1412L44.8446 56.9448ZM44.3643 56.563L45.3153 55.3666L44.3643 56.563ZM43.493 55.7418L44.6347 54.7259L43.493 55.7418ZM43.1021 55.3026L41.9603 56.3185L43.1021 55.3026ZM42.7112 54.8633L43.8529 53.8473L42.7112 54.8633ZM42.0023 53.9353L43.2833 53.1018L42.0023 53.9353ZM41.3664 52.9578L40.0853 53.7913L41.3664 52.9578ZM40.4232 52.24L40.9492 50.805L40.4232 52.24ZM39.1728 51.7816L38.6468 53.2166L39.1728 51.7816ZM38.4166 50.9385L36.9219 51.2573L38.4166 50.9385ZM38.2856 50.3245L39.7803 50.0057L38.2856 50.3245ZM38.1547 49.7105L39.6494 49.3917L38.1547 49.7105ZM37.5894 48.6607L38.672 47.5819L37.5894 48.6607ZM37.1551 48.2248L38.2376 47.146L37.1551 48.2248ZM36.7207 47.7889L35.6381 48.8677L36.7207 47.7889ZM36.2898 46.736L37.8181 46.7446L36.2898 46.736ZM36.2968 45.502L34.7685 45.4934L36.2968 45.502ZM36.0307 44.3485L37.3964 43.6625L36.0307 44.3485ZM35.4918 43.2756L34.1261 43.9617L35.4918 43.2756ZM35.5314 42.1453L36.8872 42.8507L35.5314 42.1453ZM36.1495 40.9573L34.7937 40.2519L36.1495 40.9573ZM36.4636 39.814L37.9918 39.8281L36.4636 39.814ZM36.4737 38.7154L34.9454 38.7013L36.4737 38.7154ZM36.3157 37.5734L37.7893 37.168L36.3157 37.5734ZM35.9896 36.3881L34.516 36.7935L35.9896 36.3881ZM36.4082 34.7643L35.0771 34.0134L36.4082 34.7643ZM36.6991 34.2487L38.0302 34.9996L36.6991 34.2487ZM36.8447 33.0777L38.3368 32.747L36.8447 33.0777ZM36.6994 32.4223L35.2073 32.753L36.6994 32.4223ZM36.5541 31.7669L35.062 32.0976L36.5541 31.7669ZM36.9239 30.7012L35.9717 29.5058L36.9239 30.7012ZM37.954 29.8807L38.9062 31.0761L37.954 29.8807ZM38.4377 28.8085L36.9111 28.8809L38.4377 28.8085ZM38.3749 27.4848L39.9015 27.4124L38.3749 27.4848ZM38.835 26.4389L37.894 25.2346L38.835 26.4389ZM39.8179 25.6708L40.7589 26.8751L39.8179 25.6708ZM40.6964 24.8578L39.5615 23.8342L40.6964 24.8578ZM41.4703 23.9998L42.6051 25.0235L41.4703 23.9998ZM42.0725 23.0014L40.643 22.4609L42.0725 23.0014ZM42.5031 21.8626L41.0736 21.3221L42.5031 21.8626ZM43.3196 21.1177L43.748 22.5847L43.3196 21.1177ZM43.9207 20.9421L43.4923 19.4751L43.9207 20.9421ZM44.5218 20.7666L44.9503 22.2336L44.5218 20.7666ZM45.579 20.3324L44.8249 19.003L45.579 20.3324ZM46.0349 20.0737L45.2809 18.7444L46.0349 20.0737ZM46.4909 19.8151L47.2449 21.1445L46.4909 19.8151ZM47.4199 19.6213L47.2123 21.1355L47.4199 19.6213ZM48.3658 19.751L48.1582 21.2651L48.3658 19.751ZM49.4791 19.9545L49.1554 21.4482L49.4791 19.9545ZM50.1194 20.0933L50.443 18.5996L50.1194 20.0933ZM50.7597 20.232L51.0833 18.7384L50.7597 20.232ZM51.2586 21.0372L49.7636 20.72L49.7636 20.72L51.2586 21.0372ZM51.1172 21.7036L49.6222 21.3864L51.1172 21.7036ZM50.9758 22.37L52.4708 22.6872L50.9758 22.37ZM51.0876 24.1052L49.6004 24.4575L51.0876 24.1052ZM51.2141 24.6397L52.7013 24.2874L51.2141 24.6397ZM51.2435 25.7228L52.7484 25.9894L51.2435 25.7228ZM51.1463 26.2715L52.6511 26.5381L51.1463 26.2715ZM51.049 26.8202L49.5442 26.5535L51.049 26.8202ZM51.0437 28.0144L52.5567 27.7991L51.0437 28.0144ZM51.2273 29.3053L49.7142 29.5206L51.2273 29.3053ZM50.9169 30.4058L49.7719 29.3935L50.9169 30.4058ZM50.1124 31.3158L51.2574 32.3281L50.1124 31.3158ZM49.5005 32.318L48.0733 31.7712L49.5005 32.318ZM49.2909 32.8652L50.718 33.4119L49.2909 32.8652ZM49.0812 33.4124L47.6541 32.8656L49.0812 33.4124ZM48.2892 34.2652L48.9994 35.6184L48.2892 34.2652ZM47.1245 34.8764L47.8347 36.2297L47.1245 34.8764ZM46.1952 35.6291L47.4024 36.5662L46.1952 35.6291ZM45.5012 36.5231L46.7084 37.4602L45.5012 36.5231ZM44.8217 37.4276L43.5854 36.5292L44.8217 37.4276ZM44.1568 38.3426L42.9205 37.4442L44.1568 38.3426ZM43.5359 39.299L42.2128 38.534L43.5359 39.299ZM43.2474 39.7979L44.5705 40.5629L43.2474 39.7979ZM42.9589 40.2969L44.282 41.0619L42.9589 40.2969ZM42.2321 41.1638L43.2149 42.3343L42.2321 41.1638ZM41.7938 41.5319L40.811 40.3615L41.7938 41.5319ZM41.3555 41.8999L42.3382 43.0704L41.3555 41.8999ZM40.5209 42.6706L39.4317 41.5985L40.5209 42.6706ZM40.1247 43.0732L39.0354 42.0011L40.1247 43.0732ZM39.7285 43.4757L40.8177 44.5478L39.7285 43.4757ZM38.9909 44.3507L37.7521 43.4556L38.9909 44.3507ZM38.6495 44.8231L39.8883 45.7182L38.6495 44.8231ZM38.3082 45.2956L37.0694 44.4005L38.3082 45.2956ZM37.6341 46.2881L38.9215 47.1117L37.6341 46.2881ZM37.3013 46.8083L36.0139 45.9847L37.3013 46.8083ZM36.9686 47.3285L35.6811 46.5049L36.9686 47.3285ZM36.0398 47.9949L35.6755 46.5106L36.0398 47.9949ZM35.4437 48.1412L35.808 49.6255L35.4437 48.1412ZM34.8477 48.2875L34.4834 46.8032L34.8477 48.2875ZM33.7149 48.6257L34.2295 50.0648L33.7149 48.6257ZM33.1781 48.8176L32.6635 47.3785L33.1781 48.8176ZM32.6413 49.0095L32.1268 47.5705L32.6413 49.0095ZM31.5438 49.1902L31.5132 50.7183L31.5438 49.1902ZM30.4222 49.1678L30.4528 47.6398L30.4222 49.1678ZM29.2949 49.5097L28.4864 48.2127L29.2949 49.5097ZM28.162 50.2159L28.9705 51.5129L28.162 50.2159ZM27.0754 50.2425L27.8881 48.9482L27.0754 50.2425ZM26.0352 49.5894L25.2225 50.8837L26.0352 49.5894ZM24.9701 48.9895L24.285 50.3557L24.9701 48.9895ZM23.88 48.4429L24.5651 47.0767L23.88 48.4429ZM23.0148 47.6659L21.725 48.4857L23.0148 47.6659ZM22.6947 47.1622L23.9846 46.3424L22.6947 47.1622ZM22.3746 46.6585L21.0847 47.4783L22.3746 46.6585ZM21.7936 45.632L23.1612 44.9497L21.7936 45.632ZM21.2719 44.5863L19.9044 45.2685L21.2719 44.5863ZM20.7296 43.5594L22.0639 42.8142L20.7296 43.5594ZM20.4481 43.0554L19.1138 43.8006L20.4481 43.0554ZM20.1667 42.5514L18.8323 43.2966L20.1667 42.5514ZM19.5717 41.5392L18.2709 42.3416L19.5717 41.5392ZM19.2581 41.0309L17.9574 41.8333L19.2581 41.0309ZM18.9445 40.5226L20.2453 39.7202L18.9445 40.5226ZM18.6713 39.4061L20.1963 39.5072L18.6713 39.4061ZM18.752 38.1898L17.227 38.0887L18.752 38.1898ZM18.1985 36.4952L19.5395 35.7622L18.1985 36.4952ZM17.9016 35.952L16.5605 36.685L17.9016 35.952ZM17.9102 34.8129L19.2701 35.5104L17.9102 34.8129ZM18.5214 33.6212L17.1615 32.9238L18.5214 33.6212ZM18.8146 32.4618L20.3426 32.4282L18.8146 32.4618ZM18.8022 31.8983L20.3302 31.8647L18.8022 31.8983ZM18.7898 31.3348L17.2619 31.3685L18.7898 31.3348ZM18.8887 30.2155L20.3873 30.5155L18.8887 30.2155ZM19 29.6597L17.5014 29.3597L19 29.6597ZM19.1112 29.1039L17.6127 28.8039L19.1112 29.1039ZM19.1742 27.9691L20.6973 27.8421L19.1742 27.9691ZM19.1259 27.3901L20.649 27.263L19.1259 27.3901ZM19.0776 26.811L17.5546 26.9381L19.0776 26.811ZM19.2972 25.7094L20.6573 26.4065L19.2972 25.7094ZM19.8328 24.6642L18.4727 23.9672L19.8328 24.6642ZM20.154 23.5728L18.6324 23.43L20.154 23.5728ZM20.2074 23.0039L21.729 23.1467L20.2074 23.0039ZM20.2608 22.4351L18.7391 22.2923L20.2608 22.4351ZM20.3103 21.2672L18.7821 21.2769L20.3103 21.2672ZM20.3028 20.0691L21.831 20.0594L20.3028 20.0691ZM20.5852 18.9641L19.255 18.2116L20.5852 18.9641ZM20.8714 18.4582L19.5412 17.7057L20.8714 18.4582ZM21.1576 17.9524L22.4878 18.7049L21.1576 17.9524ZM21.6775 16.9247L20.2827 16.2999L21.6775 16.9247ZM21.9112 16.4028L23.306 17.0276L21.9112 16.4028ZM22.1449 15.881L20.7501 15.2563L22.1449 15.881ZM22.6289 14.8473L24.002 15.5184L22.6289 14.8473ZM22.8792 14.3353L24.2522 15.0065L22.8792 14.3353ZM23.1294 13.8234L21.7564 13.1522L23.1294 13.8234ZM23.3956 12.6745L24.9234 12.7126L23.3956 12.6745ZM23.4115 12.0375L21.8836 11.9994L23.4115 12.0375ZM23.4273 11.4006L21.8995 11.3625L23.4273 11.4006ZM23.8828 10.3487L24.9319 11.4601L23.8828 10.3487ZM25.3824 8.52601L26.8409 8.9826L25.3824 8.52601ZM25.5633 7.94818L24.1048 7.49159L25.5633 7.94818ZM25.7442 7.37035L24.2857 6.91376L24.2857 6.91376L25.7442 7.37035ZM26.557 6.58012L26.07 5.13145L26.557 6.58012ZM27.8208 6.15534L28.3077 7.60401L27.8208 6.15534ZM28.633 5.27577L27.1576 4.87704L28.633 5.27577ZM28.8133 4.60859L30.2886 5.00732L28.8133 4.60859ZM28.9936 3.94142L27.5182 3.54269L28.9936 3.94142ZM29.7754 3.11464L29.3835 1.63743L29.7754 3.11464ZM30.377 2.95504L30.7689 4.43225L30.377 2.95504ZM30.9786 2.79544L31.3705 4.27265L30.9786 2.79544ZM32.1326 2.31136L32.9066 3.62917L32.1326 2.31136ZM32.685 1.98689L33.459 3.30469L32.685 1.98689ZM33.2374 1.66241L32.4633 0.344607L33.2374 1.66241ZM34.3139 1.79932L35.3238 0.652152L34.3139 1.79932ZM37.1416 3.2573L37.0519 4.78298L37.1416 3.2573ZM37.7693 3.29421L37.859 1.76853L37.7693 3.29421ZM38.4805 3.96448L36.9653 4.16437L38.4805 3.96448ZM38.6476 5.2312L40.1628 5.03131L38.6476 5.2312ZM39.2513 6.29458L38.2776 7.47254L39.2513 6.29458ZM39.7715 6.72459L40.7453 5.54664L39.7715 6.72459ZM40.2917 7.15461L41.2655 5.97665L40.2917 7.15461ZM40.7021 8.80405L39.18 8.667L40.7021 8.80405ZM40.6472 9.41376L42.1694 9.5508L40.6472 9.41376ZM40.2179 10.5203L41.4384 11.4402L40.2179 10.5203ZM39.469 11.514L38.2485 10.5941L39.469 11.514ZM39.1165 12.6326L37.5891 12.6866L39.1165 12.6326ZM39.1604 13.8761L37.6331 13.9301L39.1604 13.8761ZM38.9347 15.0252L37.5514 14.3753L38.9347 15.0252ZM37.7702 17.0258L36.6929 15.9416L37.7702 17.0258ZM36.9275 17.863L38.0047 18.9472L36.9275 17.863ZM36.2198 18.7797L37.5447 19.5415L36.2198 18.7797ZM35.9335 19.2777L34.6086 18.5158L35.9335 19.2777ZM35.6471 19.7756L36.972 20.5375L35.6471 19.7756ZM34.8894 20.6395L35.8265 21.8468L34.8894 20.6395ZM34.4181 21.0053L33.481 19.7979L34.4181 21.0053ZM33.9467 21.3711L34.8838 22.5785L33.9467 21.3711ZM33.4162 22.4063L31.8938 22.2719L33.4162 22.4063ZM33.2979 23.7451L34.8203 23.8796L33.2979 23.7451ZM32.5843 24.6276L32.1113 23.1743L32.5843 24.6276ZM31.2753 25.0537L31.7484 26.5069L31.2753 25.0537ZM30.5146 25.9242L32.0234 26.168L30.5146 25.9242ZM30.3021 27.2392L31.8109 27.4829L30.3021 27.2392ZM29.7752 28.2938L30.8245 29.4051L29.7752 28.2938ZM28.9339 29.0883L27.8846 27.977L28.9339 29.0883ZM28.0307 29.817L27.1652 28.5574L28.0307 29.817ZM27.5482 30.1485L28.4138 31.4081L27.5482 30.1485ZM27.0658 30.48L27.9313 31.7397L27.0658 30.48ZM26.2838 31.3303L27.6073 32.0945L26.2838 31.3303ZM25.9843 31.849L24.6607 31.0848L25.9843 31.849ZM25.6847 32.3678L24.3612 31.6036L25.6847 32.3678ZM24.8924 33.2001L25.7128 34.4895L24.8924 33.2001ZM23.9068 33.8271L23.0864 32.5377L23.9068 33.8271ZM23.0767 34.6491L24.3503 35.4939L24.3503 35.4939L23.0767 34.6491ZM22.7395 35.1575L21.4659 34.3127L22.7395 35.1575ZM22.4023 35.6659L21.1287 34.8211L22.4023 35.6659ZM21.3657 36.1721L21.3704 34.6438L21.3657 36.1721ZM19.9672 36.1678L19.9625 37.6962L19.9672 36.1678ZM18.9473 36.7679L17.5983 36.0496L18.9473 36.7679ZM18.6267 37.37L17.2777 36.6518L18.6267 37.37ZM14.8045 38.1651L14.6517 36.6444L14.8045 38.1651ZM13.7525 38.2708L13.9053 39.7915L13.7525 38.2708ZM12.6829 38.4393L13.001 39.9342L12.6829 38.4393ZM12.1394 38.555L11.8213 37.0601L12.1394 38.555ZM11.5958 38.6707L11.9139 40.1655L11.5958 38.6707ZM10.5922 38.488L9.76079 39.7704L10.5922 38.488ZM9.6721 37.8915L10.5035 36.6091L9.6721 37.8915ZM8.90235 37.1277L7.62994 37.9743L8.90235 37.1277ZM8.59266 36.6623L9.86507 35.8157L8.59266 36.6623ZM7.68967 35.2533L6.37529 36.0332L7.68967 35.2533ZM7.12248 34.2974L5.8081 35.0772L7.12248 34.2974ZM6.33273 33.4543L7.22686 32.2148L6.33273 33.4543ZM5.82659 33.0891L6.72071 31.8497L5.82659 33.0891ZM5.32044 32.724L4.42632 33.9635L5.32044 32.724ZM4.84147 31.7293L3.31458 31.6634L4.84147 31.7293ZM3.64628 27.2928L2.5783 28.386L3.64628 27.2928ZM2.67799 26.3469L3.74598 25.2536L2.67799 26.3469ZM2.3456 25.2671L0.862953 24.8963L2.3456 25.2671ZM2.52775 22.8882L1.15487 23.5598L2.52775 22.8882ZM1.98145 21.7714L0.608576 22.4429L1.98145 21.7714ZM1.53505 19.4493L0.0140511 19.5988L1.53505 19.4493ZM1.92653 18.3208L0.751023 17.3441L1.92653 18.3208ZM2.82501 17.2394L4.00052 18.2161L2.82501 17.2394ZM3.29846 16.1341L1.77155 16.0686L3.29846 16.1341ZM3.61571 10.3488L2.09224 10.2272L3.61571 10.3488ZM4.53557 8.88313L3.45501 7.80232L4.53557 8.88313ZM6.44225 5.75829L7.79409 6.47123L6.44225 5.75829ZM6.53923 5.57439L5.21831 4.80568L5.20227 4.83324L5.18739 4.86145L6.53923 5.57439ZM6.69867 5.30042L8.0196 6.06913L8.08678 5.95367L8.13292 5.82831L6.69867 5.30042ZM61.0334 40.341L59.6081 39.7892L59.572 39.8825L60.9973 40.4342L62.4225 40.9859L62.4586 40.8927L61.0334 40.341ZM60.9973 40.4342L59.469 40.422L59.4599 41.5579L60.9882 41.5702L62.5164 41.5824L62.5255 40.4465L60.9973 40.4342ZM60.9882 41.5702L59.4599 41.5579C59.4542 42.2698 59.3751 42.5793 59.345 42.6511L60.7545 43.2419L62.164 43.8327C62.4333 43.1902 62.51 42.3852 62.5164 41.5824L60.9882 41.5702ZM60.7545 43.2419L59.345 42.6511L59.1204 43.1869L60.5299 43.7777L61.9394 44.3685L62.164 43.8327L60.7545 43.2419ZM60.5299 43.7777L59.1204 43.1869L58.8959 43.7227L60.3054 44.3135L61.7149 44.9042L61.9394 44.3685L60.5299 43.7777ZM60.3054 44.3135L58.8959 43.7227C58.7318 44.1141 58.5825 44.5103 58.4479 44.9114L59.8968 45.3976L61.3457 45.8838C61.4565 45.5537 61.5795 45.2272 61.7149 44.9042L60.3054 44.3135ZM59.8968 45.3976L58.4479 44.9114L58.2639 45.4597L59.7128 45.9459L61.1617 46.4321L61.3457 45.8838L59.8968 45.3976ZM59.7128 45.9459L58.2639 45.4597L58.0799 46.0081L59.5288 46.4943L60.9777 46.9805L61.1617 46.4321L59.7128 45.9459ZM59.5288 46.4943L58.0799 46.0081C57.9582 46.3706 57.835 46.734 57.7102 47.0982L59.1561 47.5935L60.6019 48.0889C60.7287 47.7186 60.854 47.3491 60.9777 46.9805L59.5288 46.4943ZM59.1561 47.5935L57.7102 47.0982L57.5215 47.6491L58.9673 48.1444L60.4131 48.6398L60.6019 48.0889L59.1561 47.5935ZM58.9673 48.1444L57.5215 47.6491L57.3328 48.2L58.7786 48.6953L60.2244 49.1906L60.4131 48.6398L58.9673 48.1444ZM58.7786 48.6953L57.3328 48.2C57.2569 48.4213 57.1501 48.6268 57.0089 48.8206L58.2441 49.7207L59.4792 50.6208C59.7991 50.1819 60.0486 49.7038 60.2244 49.1906L58.7786 48.6953ZM58.2441 49.7207L57.0089 48.8206L56.6631 49.2951L57.8983 50.1952L59.1334 51.0953L59.4792 50.6208L58.2441 49.7207ZM57.8983 50.1952L56.6631 49.2951L56.3173 49.7696L57.5525 50.6697L58.7876 51.5698L59.1334 51.0953L57.8983 50.1952ZM57.5525 50.6697L56.3173 49.7696C56.1542 49.9934 55.9667 50.1987 55.7525 50.3863L56.7595 51.5359L57.7665 52.6856C58.1486 52.3509 58.4897 51.9786 58.7876 51.5698L57.5525 50.6697ZM56.7595 51.5359L55.7525 50.3863L55.3053 50.778L56.3123 51.9276L57.3193 53.0773L57.7665 52.6856L56.7595 51.5359ZM56.3123 51.9276L55.3053 50.778L54.8581 51.1697L55.8651 52.3193L56.8721 53.469L57.3193 53.0773L56.3123 51.9276ZM55.8651 52.3193L54.8581 51.1697C54.4471 51.5297 54.0967 51.9424 53.8163 52.4076L55.1253 53.1966L56.4342 53.9855C56.544 53.8034 56.6868 53.6313 56.8721 53.469L55.8651 52.3193ZM55.1253 53.1966L53.8163 52.4076L53.5237 52.8932L54.8326 53.6821L56.1416 54.471L56.4342 53.9855L55.1253 53.1966ZM54.8326 53.6821L53.5237 52.8932L53.231 53.3787L54.54 54.1676L55.8489 54.9566L56.1416 54.471L54.8326 53.6821ZM54.54 54.1676L53.231 53.3787C53.1498 53.5135 53.052 53.6152 52.9293 53.6978L53.7822 54.966L54.6351 56.2342C55.1325 55.8996 55.54 55.4691 55.8489 54.9566L54.54 54.1676ZM53.7822 54.966L52.9293 53.6978L52.4642 54.0106L53.3171 55.2788L54.17 56.547L54.6351 56.2342L53.7822 54.966ZM53.3171 55.2788L52.4642 54.0106L51.9991 54.3234L52.852 55.5916L53.7048 56.8598L54.17 56.547L53.3171 55.2788ZM52.852 55.5916L51.9991 54.3234C51.6532 54.556 51.3162 54.8038 50.9882 55.0667L51.9439 56.2593L52.8997 57.4519C53.1622 57.2416 53.4305 57.0442 53.7048 56.8598L52.852 55.5916ZM51.9439 56.2593L50.9882 55.0667L50.5453 55.4217L51.501 56.6143L52.4568 57.8068L52.8997 57.4519L51.9439 56.2593ZM51.501 56.6143L50.5453 55.4217L50.1024 55.7766L51.0582 56.9692L52.0139 58.1618L52.4568 57.8068L51.501 56.6143ZM51.0582 56.9692L50.1024 55.7766C49.9231 55.9203 49.6978 56.0581 49.4146 56.1828L50.0303 57.5816L50.6459 58.9804C51.1427 58.7618 51.6026 58.4914 52.0139 58.1618L51.0582 56.9692ZM50.0303 57.5816L49.4146 56.1828L48.8296 56.4403L49.4452 57.8391L50.0609 59.2379L50.6459 58.9804L50.0303 57.5816ZM49.4452 57.8391L48.8296 56.4403L48.2445 56.6978L48.8602 58.0966L49.4759 59.4954L50.0609 59.2379L49.4452 57.8391ZM48.8602 58.0966L48.2445 56.6978C48.1695 56.7308 48.1218 56.7343 48.0442 56.7141L47.6578 58.1927L47.2713 59.6714C48.017 59.8663 48.7709 59.8057 49.4759 59.4954L48.8602 58.0966ZM47.6578 58.1927L48.0442 56.7141L47.4268 56.5527L47.0403 58.0313L46.6538 59.51L47.2713 59.6714L47.6578 58.1927ZM47.0403 58.0313L47.4268 56.5527L46.8094 56.3913L46.4229 57.8699L46.0364 59.3486L46.6538 59.51L47.0403 58.0313ZM46.4229 57.8699L46.8094 56.3913C46.5951 56.3353 46.4231 56.2472 46.276 56.1303L45.325 57.3267L44.374 58.5231C44.8674 58.9153 45.4274 59.1894 46.0364 59.3486L46.4229 57.8699ZM45.325 57.3267L46.276 56.1303L45.7956 55.7484L44.8446 56.9448L43.8936 58.1412L44.374 58.5231L45.325 57.3267ZM44.8446 56.9448L45.7956 55.7484L45.3153 55.3666L44.3643 56.563L43.4133 57.7594L43.8936 58.1412L44.8446 56.9448ZM44.3643 56.563L45.3153 55.3666C45.0607 55.1642 44.8345 54.9504 44.6347 54.7259L43.493 55.7418L42.3512 56.7578C42.6726 57.119 43.0273 57.4526 43.4133 57.7594L44.3643 56.563ZM43.493 55.7418L44.6347 54.7259L44.2438 54.2866L43.1021 55.3026L41.9603 56.3185L42.3512 56.7578L43.493 55.7418ZM43.1021 55.3026L44.2438 54.2866L43.8529 53.8473L42.7112 54.8633L41.5694 55.8793L41.9603 56.3185L43.1021 55.3026ZM42.7112 54.8633L43.8529 53.8473C43.6428 53.6112 43.4532 53.3628 43.2833 53.1018L42.0023 53.9353L40.7212 54.7687C40.9754 55.1593 41.2583 55.5296 41.5694 55.8793L42.7112 54.8633ZM42.0023 53.9353L43.2833 53.1018L42.9654 52.6131L41.6843 53.4466L40.4033 54.28L40.7212 54.7687L42.0023 53.9353ZM41.6843 53.4466L42.9654 52.6131L42.6474 52.1244L41.3664 52.9578L40.0853 53.7913L40.4033 54.28L41.6843 53.4466ZM41.3664 52.9578L42.6474 52.1244C42.2303 51.4833 41.63 51.0546 40.9492 50.805L40.4232 52.24L39.8972 53.6749C40.0499 53.7309 40.0784 53.7807 40.0853 53.7913L41.3664 52.9578ZM40.4232 52.24L40.9492 50.805L40.3239 50.5758L39.798 52.0108L39.272 53.4458L39.8972 53.6749L40.4232 52.24ZM39.798 52.0108L40.3239 50.5758L39.6987 50.3467L39.1728 51.7816L38.6468 53.2166L39.272 53.4458L39.798 52.0108ZM39.1728 51.7816L39.6987 50.3467C39.6838 50.3412 39.7409 50.36 39.8089 50.4359C39.8799 50.515 39.9055 50.5924 39.9113 50.6197L38.4166 50.9385L36.9219 51.2573C37.1266 52.2169 37.7728 52.8962 38.6468 53.2166L39.1728 51.7816ZM38.4166 50.9385L39.9113 50.6197L39.7803 50.0057L38.2856 50.3245L36.791 50.6433L36.9219 51.2573L38.4166 50.9385ZM38.2856 50.3245L39.7803 50.0057L39.6494 49.3917L38.1547 49.7105L36.66 50.0294L36.791 50.6433L38.2856 50.3245ZM38.1547 49.7105L39.6494 49.3917C39.502 48.7009 39.1736 48.0853 38.672 47.5819L37.5894 48.6607L36.5068 49.7395C36.5843 49.8173 36.6327 49.9016 36.66 50.0294L38.1547 49.7105ZM37.5894 48.6607L38.672 47.5819L38.2376 47.146L37.1551 48.2248L36.0725 49.3036L36.5068 49.7395L37.5894 48.6607ZM37.1551 48.2248L38.2376 47.146L37.8033 46.7102L36.7207 47.7889L35.6381 48.8677L36.0725 49.3036L37.1551 48.2248ZM36.7207 47.7889L37.8033 46.7102C37.7951 46.702 37.7944 46.6998 37.7975 46.7044C37.8008 46.7093 37.8057 46.7177 37.8103 46.7289C37.8149 46.7401 37.8172 46.7494 37.8182 46.7546C37.8191 46.7596 37.8181 46.757 37.8181 46.7446L36.2898 46.736L34.7615 46.7274C34.757 47.5449 35.0601 48.2877 35.6381 48.8677L36.7207 47.7889ZM36.2898 46.736L37.8181 46.7446L37.8216 46.1276L36.2933 46.119L34.765 46.1104L34.7615 46.7274L36.2898 46.736ZM36.2933 46.119L37.8216 46.1276L37.825 45.5105L36.2968 45.502L34.7685 45.4934L34.765 46.1104L36.2933 46.119ZM36.2968 45.502L37.825 45.5105C37.8287 44.865 37.6874 44.2417 37.3964 43.6625L36.0307 44.3485L34.6651 45.0345C34.7334 45.1706 34.7695 45.3162 34.7685 45.4934L36.2968 45.502ZM36.0307 44.3485L37.3964 43.6625L37.127 43.126L35.7613 43.8121L34.3956 44.4981L34.6651 45.0345L36.0307 44.3485ZM35.7613 43.8121L37.127 43.126L36.8575 42.5896L35.4918 43.2756L34.1261 43.9617L34.3956 44.4981L35.7613 43.8121ZM35.4918 43.2756L36.8575 42.5896C36.8647 42.6039 36.8755 42.6298 36.8837 42.666C36.8921 42.7027 36.8956 42.7412 36.8943 42.7783C36.8917 42.8554 36.87 42.8836 36.8872 42.8507L35.5314 42.1453L34.1756 41.4398C33.7733 42.213 33.6983 43.1101 34.1261 43.9617L35.4918 43.2756ZM35.5314 42.1453L36.8872 42.8507L37.1962 42.2567L35.8404 41.5513L34.4846 40.8459L34.1756 41.4398L35.5314 42.1453ZM35.8404 41.5513L37.1962 42.2567L37.5052 41.6627L36.1495 40.9573L34.7937 40.2519L34.4846 40.8459L35.8404 41.5513ZM36.1495 40.9573L37.5052 41.6627C37.7984 41.0992 37.9858 40.4822 37.9918 39.8281L36.4636 39.814L34.9353 39.8C34.9346 39.8783 34.9125 40.0235 34.7937 40.2519L36.1495 40.9573ZM36.4636 39.814L37.9918 39.8281L37.9969 39.2788L36.4686 39.2647L34.9404 39.2506L34.9353 39.8L36.4636 39.814ZM36.4686 39.2647L37.9969 39.2788L38.0019 38.7295L36.4737 38.7154L34.9454 38.7013L34.9404 39.2506L36.4686 39.2647ZM36.4737 38.7154L38.0019 38.7295C38.0068 38.2059 37.9312 37.6837 37.7893 37.168L36.3157 37.5734L34.8421 37.9788C34.9177 38.2533 34.9474 38.4925 34.9454 38.7013L36.4737 38.7154ZM36.3157 37.5734L37.7893 37.168L37.6262 36.5754L36.1527 36.9808L34.6791 37.3862L34.8421 37.9788L36.3157 37.5734ZM36.1527 36.9808L37.6262 36.5754L37.4632 35.9827L35.9896 36.3881L34.516 36.7935L34.6791 37.3862L36.1527 36.9808ZM35.9896 36.3881L37.4632 35.9827C37.459 35.9675 37.4588 35.9619 37.4591 35.9649C37.4594 35.9683 37.4598 35.9771 37.4583 35.9898C37.4568 36.0025 37.4541 36.0143 37.451 36.0235C37.448 36.0326 37.4461 36.0351 37.4485 36.0308L36.1174 35.2799L34.7863 34.529C34.3858 35.239 34.3049 36.0259 34.516 36.7935L35.9896 36.3881ZM36.1174 35.2799L37.4485 36.0308L37.7394 35.5152L36.4082 34.7643L35.0771 34.0134L34.7863 34.529L36.1174 35.2799ZM36.4082 34.7643L37.7394 35.5152L38.0302 34.9996L36.6991 34.2487L35.368 33.4978L35.0771 34.0134L36.4082 34.7643ZM36.6991 34.2487L38.0302 34.9996C38.4343 34.2832 38.5035 33.4991 38.3368 32.747L36.8447 33.0777L35.3526 33.4084C35.3605 33.4444 35.3634 33.4698 35.3643 33.4858C35.3652 33.5015 35.3644 33.5089 35.3643 33.5096C35.3642 33.5101 35.3646 33.5073 35.366 33.5029C35.3675 33.4984 35.3687 33.4965 35.368 33.4978L36.6991 34.2487ZM36.8447 33.0777L38.3368 32.747L38.1915 32.0916L36.6994 32.4223L35.2073 32.753L35.3526 33.4084L36.8447 33.0777ZM36.6994 32.4223L38.1915 32.0916L38.0462 31.4362L36.5541 31.7669L35.062 32.0976L35.2073 32.753L36.6994 32.4223ZM36.5541 31.7669L38.0462 31.4362C38.0473 31.441 38.0653 31.5369 38.0178 31.6738C37.9696 31.8127 37.8922 31.8839 37.8761 31.8967L36.9239 30.7012L35.9717 29.5058C35.6123 29.7921 35.3015 30.1777 35.1301 30.6718C34.9593 31.1639 34.9641 31.6559 35.062 32.0976L36.5541 31.7669ZM36.9239 30.7012L37.8761 31.8967L38.3912 31.4864L37.439 30.291L36.4867 29.0955L35.9717 29.5058L36.9239 30.7012ZM37.439 30.291L38.3912 31.4864L38.9062 31.0761L37.954 29.8807L37.0018 28.6853L36.4867 29.0955L37.439 30.291ZM37.954 29.8807L38.9062 31.0761C39.6364 30.4945 40.0083 29.6641 39.9643 28.7362L38.4377 28.8085L36.9111 28.8809C36.9116 28.8915 36.9088 28.8467 36.9393 28.7791C36.97 28.7111 37.0066 28.6815 37.0018 28.6853L37.954 29.8807ZM38.4377 28.8085L39.9643 28.7362L39.9329 28.0743L38.4063 28.1467L36.8797 28.219L36.9111 28.8809L38.4377 28.8085ZM38.4063 28.1467L39.9329 28.0743L39.9015 27.4124L38.3749 27.4848L36.8483 27.5571L36.8797 28.219L38.4063 28.1467ZM38.3749 27.4848L39.9015 27.4124C39.9005 27.3901 39.9058 27.4337 39.8732 27.5078C39.8391 27.5853 39.7925 27.6303 39.776 27.6431L38.835 26.4389L37.894 25.2346C37.1478 25.8177 36.8057 26.657 36.8483 27.5571L38.3749 27.4848ZM38.835 26.4389L39.776 27.6431L40.2675 27.2591L39.3265 26.0549L38.3855 24.8506L37.894 25.2346L38.835 26.4389ZM39.3265 26.0549L40.2675 27.2591L40.7589 26.8751L39.8179 25.6708L38.8769 24.4666L38.3855 24.8506L39.3265 26.0549ZM39.8179 25.6708L40.7589 26.8751C41.1508 26.5689 41.5095 26.2381 41.8312 25.8815L40.6964 24.8578L39.5615 23.8342C39.3673 24.0495 39.1403 24.2608 38.8769 24.4666L39.8179 25.6708ZM40.6964 24.8578L41.8312 25.8815L42.2182 25.4525L41.0833 24.4288L39.9485 23.4052L39.5615 23.8342L40.6964 24.8578ZM41.0833 24.4288L42.2182 25.4525L42.6051 25.0235L41.4703 23.9998L40.3354 22.9762L39.9485 23.4052L41.0833 24.4288ZM41.4703 23.9998L42.6051 25.0235C42.9973 24.5887 43.2949 24.0899 43.5021 23.5419L42.0725 23.0014L40.643 22.4609C40.5631 22.6722 40.4592 22.8389 40.3354 22.9762L41.4703 23.9998ZM42.0725 23.0014L43.5021 23.5419L43.7174 22.9725L42.2878 22.432L40.8583 21.8915L40.643 22.4609L42.0725 23.0014ZM42.2878 22.432L43.7174 22.9725L43.9327 22.4032L42.5031 21.8626L41.0736 21.3221L40.8583 21.8915L42.2878 22.432ZM42.5031 21.8626L43.9327 22.4032C43.9282 22.415 43.904 22.4669 43.845 22.5207C43.7872 22.5734 43.7414 22.5867 43.748 22.5847L43.3196 21.1177L42.8911 19.6506C42.0453 19.8977 41.3925 20.4787 41.0736 21.3221L42.5031 21.8626ZM43.3196 21.1177L43.748 22.5847L44.3491 22.4092L43.9207 20.9421L43.4923 19.4751L42.8911 19.6506L43.3196 21.1177ZM43.9207 20.9421L44.3491 22.4092L44.9503 22.2336L44.5218 20.7666L44.0934 19.2995L43.4923 19.4751L43.9207 20.9421ZM44.5218 20.7666L44.9503 22.2336C45.4433 22.0896 45.9086 21.9025 46.333 21.6617L45.579 20.3324L44.8249 19.003C44.6414 19.1071 44.4019 19.2094 44.0934 19.2995L44.5218 20.7666ZM45.579 20.3324L46.333 21.6617L46.789 21.4031L46.0349 20.0737L45.2809 18.7444L44.8249 19.003L45.579 20.3324ZM46.0349 20.0737L46.789 21.4031L47.2449 21.1445L46.4909 19.8151L45.7369 18.4857L45.2809 18.7444L46.0349 20.0737ZM46.4909 19.8151L47.2449 21.1445C47.2597 21.1361 47.2682 21.1326 47.2707 21.1317C47.273 21.1308 47.2703 21.132 47.2633 21.1334C47.2561 21.1349 47.247 21.1362 47.2367 21.1365C47.2265 21.1369 47.218 21.1362 47.2123 21.1355L47.4199 19.6213L47.6274 18.1071C46.9471 18.0139 46.3022 18.1651 45.7369 18.4857L46.4909 19.8151ZM47.4199 19.6213L47.2123 21.1355L47.6853 21.2003L47.8928 19.6861L48.1004 18.172L47.6274 18.1071L47.4199 19.6213ZM47.8928 19.6861L47.6853 21.2003L48.1582 21.2651L48.3658 19.751L48.5733 18.2368L48.1004 18.172L47.8928 19.6861ZM48.3658 19.751L48.1582 21.2651C48.4233 21.3015 48.7539 21.3612 49.1554 21.4482L49.4791 19.9545L49.8027 18.4609C49.3504 18.3629 48.9389 18.2869 48.5733 18.2368L48.3658 19.751ZM49.4791 19.9545L49.1554 21.4482L49.7957 21.5869L50.1194 20.0933L50.443 18.5996L49.8027 18.4609L49.4791 19.9545ZM50.1194 20.0933L49.7957 21.5869L50.436 21.7257L50.7597 20.232L51.0833 18.7384L50.443 18.5996L50.1194 20.0933ZM50.7597 20.232L50.436 21.7257C50.4035 21.7186 50.1136 21.6437 49.9054 21.3077C49.8092 21.1523 49.7711 21.0015 49.7599 20.8907C49.7494 20.7868 49.7627 20.7242 49.7636 20.72L51.2586 21.0372L52.7536 21.3544C52.8467 20.9155 52.8702 20.2891 52.5037 19.6977C52.1292 19.0933 51.5427 18.8379 51.0833 18.7384L50.7597 20.232ZM51.2586 21.0372L49.7636 20.72L49.6222 21.3864L51.1172 21.7036L52.6122 22.0208L52.7536 21.3544L51.2586 21.0372ZM51.1172 21.7036L49.6222 21.3864L49.4808 22.0528L50.9758 22.37L52.4708 22.6872L52.6122 22.0208L51.1172 21.7036ZM50.9758 22.37L49.4808 22.0528C49.3506 22.6662 49.3264 23.3006 49.4738 23.9231L50.961 23.5708L52.4482 23.2186C52.4268 23.1284 52.4125 22.9623 52.4708 22.6872L50.9758 22.37ZM50.961 23.5708L49.4738 23.9231L49.6004 24.4575L51.0876 24.1052L52.5747 23.753L52.4482 23.2186L50.961 23.5708ZM51.0876 24.1052L49.6004 24.4575L49.727 24.9919L51.2141 24.6397L52.7013 24.2874L52.5747 23.753L51.0876 24.1052ZM51.2141 24.6397L49.727 24.9919C49.7626 25.1422 49.7676 25.2926 49.7386 25.4561L51.2435 25.7228L52.7484 25.9894C52.849 25.4214 52.8345 24.8497 52.7013 24.2874L51.2141 24.6397ZM51.2435 25.7228L49.7386 25.4561L49.6414 26.0048L51.1463 26.2715L52.6511 26.5381L52.7484 25.9894L51.2435 25.7228ZM51.1463 26.2715L49.6414 26.0048L49.5442 26.5535L51.049 26.8202L52.5539 27.0868L52.6511 26.5381L51.1463 26.2715ZM51.049 26.8202L49.5442 26.5535C49.4468 27.103 49.4504 27.6658 49.5306 28.2296L51.0437 28.0144L52.5567 27.7991C52.5145 27.5023 52.5216 27.269 52.5539 27.0868L51.049 26.8202ZM51.0437 28.0144L49.5306 28.2296L49.6224 28.8751L51.1355 28.6598L52.6486 28.4446L52.5567 27.7991L51.0437 28.0144ZM51.1355 28.6598L49.6224 28.8751L49.7142 29.5206L51.2273 29.3053L52.7404 29.09L52.6486 28.4446L51.1355 28.6598ZM51.2273 29.3053L49.7142 29.5206C49.7191 29.5545 49.7111 29.5365 49.7247 29.4883C49.7311 29.4658 49.7401 29.4441 49.7506 29.4252C49.7609 29.4066 49.7696 29.3961 49.7719 29.3935L50.9169 30.4058L52.0619 31.4181C52.6506 30.7522 52.8594 29.9267 52.7404 29.09L51.2273 29.3053ZM50.9169 30.4058L49.7719 29.3935L49.3696 29.8485L50.5146 30.8608L51.6596 31.8731L52.0619 31.4181L50.9169 30.4058ZM50.5146 30.8608L49.3696 29.8485L48.9674 30.3035L50.1124 31.3158L51.2574 32.3281L51.6596 31.8731L50.5146 30.8608ZM50.1124 31.3158L48.9674 30.3035C48.5825 30.7388 48.2809 31.2294 48.0733 31.7712L49.5005 32.318L50.9277 32.8647C50.9996 32.677 51.1059 32.4994 51.2574 32.3281L50.1124 31.3158ZM49.5005 32.318L48.0733 31.7712L47.8637 32.3184L49.2909 32.8652L50.718 33.4119L50.9277 32.8647L49.5005 32.318ZM49.2909 32.8652L47.8637 32.3184L47.6541 32.8656L49.0812 33.4124L50.5084 33.9591L50.718 33.4119L49.2909 32.8652ZM49.0812 33.4124L47.6541 32.8656C47.6531 32.868 47.6534 32.8668 47.6554 32.8636C47.6574 32.8604 47.6589 32.8587 47.6585 32.8591C47.658 32.8597 47.6532 32.8648 47.6415 32.8736C47.6296 32.8825 47.6097 32.8958 47.579 32.9119L48.2892 34.2652L48.9994 35.6184C49.6736 35.2646 50.2192 34.714 50.5084 33.9591L49.0812 33.4124ZM48.2892 34.2652L47.579 32.9119L46.9967 33.2175L47.7069 34.5708L48.4171 35.9241L48.9994 35.6184L48.2892 34.2652ZM47.7069 34.5708L46.9967 33.2175L46.4143 33.5231L47.1245 34.8764L47.8347 36.2297L48.4171 35.9241L47.7069 34.5708ZM47.1245 34.8764L46.4143 33.5231C45.8637 33.8121 45.3733 34.1954 44.9879 34.6919L46.1952 35.6291L47.4024 36.5662C47.4797 36.4667 47.6089 36.3482 47.8347 36.2297L47.1245 34.8764ZM46.1952 35.6291L44.9879 34.6919L44.6409 35.1389L45.8482 36.0761L47.0554 37.0132L47.4024 36.5662L46.1952 35.6291ZM45.8482 36.0761L44.6409 35.1389L44.2939 35.5859L45.5012 36.5231L46.7084 37.4602L47.0554 37.0132L45.8482 36.0761ZM45.5012 36.5231L44.2939 35.5859C44.0527 35.8967 43.8165 36.2111 43.5854 36.5292L44.8217 37.4276L46.0581 38.326C46.2702 38.0341 46.487 37.7455 46.7084 37.4602L45.5012 36.5231ZM44.8217 37.4276L43.5854 36.5292L43.2529 36.9867L44.4893 37.8851L45.7256 38.7835L46.0581 38.326L44.8217 37.4276ZM44.4893 37.8851L43.2529 36.9867L42.9205 37.4442L44.1568 38.3426L45.3932 39.241L45.7256 38.7835L44.4893 37.8851ZM44.1568 38.3426L42.9205 37.4442C42.667 37.7929 42.4312 38.1563 42.2128 38.534L43.5359 39.299L44.859 40.064C45.0252 39.7765 45.2033 39.5023 45.3932 39.241L44.1568 38.3426ZM43.5359 39.299L42.2128 38.534L41.9243 39.0329L43.2474 39.7979L44.5705 40.5629L44.859 40.064L43.5359 39.299ZM43.2474 39.7979L41.9243 39.0329L41.6358 39.5319L42.9589 40.2969L44.282 41.0619L44.5705 40.5629L43.2474 39.7979ZM42.9589 40.2969L41.6358 39.5319C41.5319 39.7117 41.4044 39.8632 41.2493 39.9934L42.2321 41.1638L43.2149 42.3343C43.6442 41.9738 44.0013 41.5473 44.282 41.0619L42.9589 40.2969ZM42.2321 41.1638L41.2493 39.9934L40.811 40.3615L41.7938 41.5319L42.7766 42.7023L43.2149 42.3343L42.2321 41.1638ZM41.7938 41.5319L40.811 40.3615L40.3727 40.7295L41.3555 41.8999L42.3382 43.0704L42.7766 42.7023L41.7938 41.5319ZM41.3555 41.8999L40.3727 40.7295C40.0439 41.0056 39.7302 41.2952 39.4317 41.5985L40.5209 42.6706L41.6102 43.7426C41.8399 43.5091 42.0826 43.2851 42.3382 43.0704L41.3555 41.8999ZM40.5209 42.6706L39.4317 41.5985L39.0354 42.0011L40.1247 43.0732L41.2139 44.1452L41.6102 43.7426L40.5209 42.6706ZM40.1247 43.0732L39.0354 42.0011L38.6392 42.4037L39.7285 43.4757L40.8177 44.5478L41.2139 44.1452L40.1247 43.0732ZM39.7285 43.4757L38.6392 42.4037C38.3191 42.7289 38.0235 43.08 37.7521 43.4556L38.9909 44.3507L40.2297 45.2458C40.4134 44.9916 40.6095 44.7593 40.8177 44.5478L39.7285 43.4757ZM38.9909 44.3507L37.7521 43.4556L37.4108 43.928L38.6495 44.8231L39.8883 45.7182L40.2297 45.2458L38.9909 44.3507ZM38.6495 44.8231L37.4108 43.928L37.0694 44.4005L38.3082 45.2956L39.547 46.1907L39.8883 45.7182L38.6495 44.8231ZM38.3082 45.2956L37.0694 44.4005C36.824 44.7401 36.5831 45.0949 36.3467 45.4645L37.6341 46.2881L38.9215 47.1117C39.1287 46.7878 39.3372 46.4809 39.547 46.1907L38.3082 45.2956ZM37.6341 46.2881L36.3467 45.4645L36.0139 45.9847L37.3013 46.8083L38.5887 47.6319L38.9215 47.1117L37.6341 46.2881ZM37.3013 46.8083L36.0139 45.9847L35.6811 46.5049L36.9686 47.3285L38.256 48.152L38.5887 47.6319L37.3013 46.8083ZM36.9686 47.3285L35.6811 46.5049C35.6729 46.5178 35.6684 46.5225 35.6689 46.5219C35.6696 46.5212 35.673 46.5177 35.679 46.5134C35.685 46.5091 35.6898 46.5067 35.6916 46.5058C35.6933 46.5051 35.6887 46.5074 35.6755 46.5106L36.0398 47.9949L36.404 49.4792C37.1851 49.2875 37.8241 48.8271 38.256 48.152L36.9686 47.3285ZM36.0398 47.9949L35.6755 46.5106L35.0795 46.6569L35.4437 48.1412L35.808 49.6255L36.404 49.4792L36.0398 47.9949ZM35.4437 48.1412L35.0795 46.6569L34.4834 46.8032L34.8477 48.2875L35.212 49.7717L35.808 49.6255L35.4437 48.1412ZM34.8477 48.2875L34.4834 46.8032C34.039 46.9123 33.611 47.0397 33.2003 47.1866L33.7149 48.6257L34.2295 50.0648C34.5344 49.9557 34.8616 49.8577 35.212 49.7717L34.8477 48.2875ZM33.7149 48.6257L33.2003 47.1866L32.6635 47.3785L33.1781 48.8176L33.6927 50.2567L34.2295 50.0648L33.7149 48.6257ZM33.1781 48.8176L32.6635 47.3785L32.1268 47.5705L32.6413 49.0095L33.1559 50.4486L33.6927 50.2567L33.1781 48.8176ZM32.6413 49.0095L32.1268 47.5705C31.9408 47.6369 31.7595 47.6659 31.5744 47.6622L31.5438 49.1902L31.5132 50.7183C32.0757 50.7295 32.6262 50.638 33.1559 50.4486L32.6413 49.0095ZM31.5438 49.1902L31.5744 47.6622L31.0136 47.651L30.983 49.179L30.9524 50.707L31.5132 50.7183L31.5438 49.1902ZM30.983 49.179L31.0136 47.651L30.4528 47.6398L30.4222 49.1678L30.3916 50.6958L30.9524 50.707L30.983 49.179ZM30.4222 49.1678L30.4528 47.6398C29.7303 47.6253 29.067 47.8509 28.4864 48.2127L29.2949 49.5097L30.1034 50.8067C30.2782 50.6977 30.3663 50.6953 30.3916 50.6958L30.4222 49.1678ZM29.2949 49.5097L28.4864 48.2127L27.92 48.5659L28.7284 49.8628L29.5369 51.1598L30.1034 50.8067L29.2949 49.5097ZM28.7284 49.8628L27.92 48.5659L27.3535 48.919L28.162 50.2159L28.9705 51.5129L29.5369 51.1598L28.7284 49.8628ZM28.162 50.2159L27.3535 48.919C27.3438 48.925 27.4218 48.8749 27.5697 48.8713C27.7267 48.8674 27.8414 48.9188 27.8881 48.9482L27.0754 50.2425L26.2627 51.5368C26.6562 51.7839 27.1253 51.9397 27.6444 51.927C28.1546 51.9145 28.6025 51.7423 28.9705 51.5129L28.162 50.2159ZM27.0754 50.2425L27.8881 48.9482L27.368 48.6216L26.5553 49.9159L25.7426 51.2103L26.2627 51.5368L27.0754 50.2425ZM26.5553 49.9159L27.368 48.6216L26.8479 48.2951L26.0352 49.5894L25.2225 50.8837L25.7426 51.2103L26.5553 49.9159ZM26.0352 49.5894L26.8479 48.2951C26.4601 48.0516 26.0625 47.8276 25.6552 47.6233L24.9701 48.9895L24.285 50.3557C24.6044 50.5158 24.9169 50.6918 25.2225 50.8837L26.0352 49.5894ZM24.9701 48.9895L25.6552 47.6233L25.1102 47.35L24.4251 48.7162L23.74 50.0824L24.285 50.3557L24.9701 48.9895ZM24.4251 48.7162L25.1102 47.35L24.5651 47.0767L23.88 48.4429L23.1949 49.809L23.74 50.0824L24.4251 48.7162ZM23.88 48.4429L24.5651 47.0767C24.4434 47.0157 24.3664 46.9431 24.3047 46.8461L23.0148 47.6659L21.725 48.4857C22.0902 49.0602 22.5899 49.5056 23.1949 49.809L23.88 48.4429ZM23.0148 47.6659L24.3047 46.8461L23.9846 46.3424L22.6947 47.1622L21.4049 47.982L21.725 48.4857L23.0148 47.6659ZM22.6947 47.1622L23.9846 46.3424L23.6644 45.8387L22.3746 46.6585L21.0847 47.4783L21.4049 47.982L22.6947 47.1622ZM22.3746 46.6585L23.6644 45.8387C23.4787 45.5464 23.3111 45.2501 23.1612 44.9497L21.7936 45.632L20.426 46.3142C20.6239 46.7109 20.8437 47.099 21.0847 47.4783L22.3746 46.6585ZM21.7936 45.632L23.1612 44.9497L22.9003 44.4268L21.5328 45.1091L20.1652 45.7914L20.426 46.3142L21.7936 45.632ZM21.5328 45.1091L22.9003 44.4268L22.6395 43.904L21.2719 44.5863L19.9044 45.2685L20.1652 45.7914L21.5328 45.1091ZM21.2719 44.5863L22.6395 43.904C22.4551 43.5344 22.2633 43.1712 22.0639 42.8142L20.7296 43.5594L19.3953 44.3046C19.5712 44.6196 19.7409 44.9409 19.9044 45.2685L21.2719 44.5863ZM20.7296 43.5594L22.0639 42.8142L21.7825 42.3102L20.4481 43.0554L19.1138 43.8006L19.3953 44.3046L20.7296 43.5594ZM20.4481 43.0554L21.7825 42.3102L21.501 41.8062L20.1667 42.5514L18.8323 43.2966L19.1138 43.8006L20.4481 43.0554ZM20.1667 42.5514L21.501 41.8062C21.3022 41.4503 21.0926 41.0938 20.8724 40.7368L19.5717 41.5392L18.2709 42.3416C18.4687 42.6622 18.6558 42.9806 18.8323 43.2966L20.1667 42.5514ZM19.5717 41.5392L20.8724 40.7368L20.5588 40.2285L19.2581 41.0309L17.9574 41.8333L18.2709 42.3416L19.5717 41.5392ZM19.2581 41.0309L20.5588 40.2285L20.2453 39.7202L18.9445 40.5226L17.6438 41.325L17.9574 41.8333L19.2581 41.0309ZM18.9445 40.5226L20.2453 39.7202C20.2068 39.6578 20.19 39.6025 20.1963 39.5072L18.6713 39.4061L17.1463 39.305C17.0989 40.0206 17.2643 40.7097 17.6438 41.325L18.9445 40.5226ZM18.6713 39.4061L20.1963 39.5072L20.2366 38.899L18.7116 38.7979L17.1867 38.6968L17.1463 39.305L18.6713 39.4061ZM18.7116 38.7979L20.2366 38.899L20.2769 38.2909L18.752 38.1898L17.227 38.0887L17.1867 38.6968L18.7116 38.7979ZM18.752 38.1898L20.2769 38.2909C20.3233 37.5908 20.1714 36.9182 19.8364 36.3054L18.4954 37.0384L17.1543 37.7714C17.2152 37.8828 17.2343 37.9778 17.227 38.0887L18.752 38.1898ZM18.4954 37.0384L19.8364 36.3054L19.5395 35.7622L18.1985 36.4952L16.8574 37.2282L17.1543 37.7714L18.4954 37.0384ZM18.1985 36.4952L19.5395 35.7622L19.2426 35.219L17.9016 35.952L16.5605 36.685L16.8574 37.2282L18.1985 36.4952ZM17.9016 35.952L19.2426 35.219C19.2573 35.2458 19.2843 35.3147 19.2835 35.4073C19.2829 35.4946 19.2581 35.5339 19.2701 35.5104L17.9102 34.8129L16.5503 34.1155C16.1379 34.9197 16.0972 35.8374 16.5605 36.685L17.9016 35.952ZM17.9102 34.8129L19.2701 35.5104L19.5757 34.9145L18.2158 34.2171L16.8559 33.5196L16.5503 34.1155L17.9102 34.8129ZM18.2158 34.2171L19.5757 34.9145L19.8813 34.3186L18.5214 33.6212L17.1615 32.9238L16.8559 33.5196L18.2158 34.2171ZM18.5214 33.6212L19.8813 34.3186C20.1792 33.7379 20.3574 33.1015 20.3426 32.4282L18.8146 32.4618L17.2867 32.4955C17.2884 32.5735 17.2711 32.71 17.1615 32.9238L18.5214 33.6212ZM18.8146 32.4618L20.3426 32.4282L20.3302 31.8647L18.8022 31.8983L17.2743 31.932L17.2867 32.4955L18.8146 32.4618ZM18.8022 31.8983L20.3302 31.8647L20.3178 31.3012L18.7898 31.3348L17.2619 31.3685L17.2743 31.932L18.8022 31.8983ZM18.7898 31.3348L20.3178 31.3012C20.312 31.0381 20.3349 30.7769 20.3873 30.5155L18.8887 30.2155L17.3901 29.9155C17.2941 30.3952 17.2511 30.8802 17.2619 31.3685L18.7898 31.3348ZM18.8887 30.2155L20.3873 30.5155L20.4985 29.9597L19 29.6597L17.5014 29.3597L17.3901 29.9155L18.8887 30.2155ZM19 29.6597L20.4985 29.9597L20.6098 29.4039L19.1112 29.1039L17.6127 28.8039L17.5014 29.3597L19 29.6597ZM19.1112 29.1039L20.6098 29.4039C20.7128 28.8894 20.7411 28.3673 20.6973 27.8421L19.1742 27.9691L17.6512 28.0961C17.6718 28.3429 17.658 28.5774 17.6127 28.8039L19.1112 29.1039ZM19.1742 27.9691L20.6973 27.8421L20.649 27.263L19.1259 27.3901L17.6029 27.5171L17.6512 28.0961L19.1742 27.9691ZM19.1259 27.3901L20.649 27.263L20.6007 26.684L19.0776 26.811L17.5546 26.9381L17.6029 27.5171L19.1259 27.3901ZM19.0776 26.811L20.6007 26.684C20.5925 26.5857 20.6075 26.5036 20.6573 26.4065L19.2972 25.7094L17.9371 25.0124C17.6298 25.612 17.4984 26.2643 17.5546 26.9381L19.0776 26.811ZM19.2972 25.7094L20.6573 26.4065L20.9251 25.8839L19.565 25.1868L18.2049 24.4898L17.9371 25.0124L19.2972 25.7094ZM19.565 25.1868L20.9251 25.8839L21.1929 25.3613L19.8328 24.6642L18.4727 23.9672L18.2049 24.4898L19.565 25.1868ZM19.8328 24.6642L21.1929 25.3613C21.4575 24.845 21.6214 24.2935 21.6757 23.7156L20.154 23.5728L18.6324 23.43C18.6155 23.6105 18.5652 23.7867 18.4727 23.9672L19.8328 24.6642ZM20.154 23.5728L21.6757 23.7156L21.729 23.1467L20.2074 23.0039L18.6858 22.8612L18.6324 23.43L20.154 23.5728ZM20.2074 23.0039L21.729 23.1467L21.7824 22.5779L20.2608 22.4351L18.7391 22.2923L18.6858 22.8612L20.2074 23.0039ZM20.2608 22.4351L21.7824 22.5779C21.823 22.1456 21.8415 21.7053 21.8386 21.2575L20.3103 21.2672L18.7821 21.2769C18.7843 21.6278 18.7697 21.9661 18.7391 22.2923L20.2608 22.4351ZM20.3103 21.2672L21.8386 21.2575L21.8348 20.6584L20.3065 20.6681L18.7783 20.6778L18.7821 21.2769L20.3103 21.2672ZM20.3065 20.6681L21.8348 20.6584L21.831 20.0594L20.3028 20.0691L18.7745 20.0788L18.7783 20.6778L20.3065 20.6681ZM20.3028 20.0691L21.831 20.0594C21.8301 19.9185 21.8602 19.8142 21.9154 19.7167L20.5852 18.9641L19.255 18.2116C18.9285 18.7886 18.7703 19.4209 18.7745 20.0788L20.3028 20.0691ZM20.5852 18.9641L21.9154 19.7167L22.2016 19.2108L20.8714 18.4582L19.5412 17.7057L19.255 18.2116L20.5852 18.9641ZM20.8714 18.4582L22.2016 19.2108L22.4878 18.7049L21.1576 17.9524L19.8274 17.1998L19.5412 17.7057L20.8714 18.4582ZM21.1576 17.9524L22.4878 18.7049C22.7017 18.3268 22.8967 17.9416 23.0723 17.5494L21.6775 16.9247L20.2827 16.2999C20.1467 16.6035 19.9951 16.9034 19.8274 17.1998L21.1576 17.9524ZM21.6775 16.9247L23.0723 17.5494L23.306 17.0276L21.9112 16.4028L20.5164 15.7781L20.2827 16.2999L21.6775 16.9247ZM21.9112 16.4028L23.306 17.0276L23.5397 16.5057L22.1449 15.881L20.7501 15.2563L20.5164 15.7781L21.9112 16.4028ZM22.1449 15.881L23.5397 16.5057C23.6886 16.1734 23.8427 15.8443 24.002 15.5184L22.6289 14.8473L21.2558 14.1761C21.0815 14.5328 20.9129 14.8929 20.7501 15.2563L22.1449 15.881ZM22.6289 14.8473L24.002 15.5184L24.2522 15.0065L22.8792 14.3353L21.5061 13.6641L21.2558 14.1761L22.6289 14.8473ZM22.8792 14.3353L24.2522 15.0065L24.5025 14.4945L23.1294 13.8234L21.7564 13.1522L21.5061 13.6641L22.8792 14.3353ZM23.1294 13.8234L24.5025 14.4945C24.7766 13.9336 24.908 13.3308 24.9234 12.7126L23.3956 12.6745L21.8677 12.6363C21.862 12.8673 21.8159 13.0305 21.7564 13.1522L23.1294 13.8234ZM23.3956 12.6745L24.9234 12.7126L24.9393 12.0757L23.4115 12.0375L21.8836 11.9994L21.8677 12.6363L23.3956 12.6745ZM23.4115 12.0375L24.9393 12.0757L24.9552 11.4387L23.4273 11.4006L21.8995 11.3625L21.8836 11.9994L23.4115 12.0375ZM23.4273 11.4006L24.9552 11.4387C24.9557 11.4185 24.9576 11.4095 24.9576 11.4094C24.9576 11.4093 24.9573 11.411 24.9563 11.4142C24.9553 11.4174 24.9538 11.4215 24.9516 11.4264C24.9471 11.4369 24.9416 11.4465 24.9361 11.4542C24.9308 11.4617 24.9283 11.4635 24.9319 11.4601L23.8828 10.3487L22.8337 9.23738C22.2271 9.81003 21.9196 10.5551 21.8995 11.3625L23.4273 11.4006ZM23.8828 10.3487L24.9319 11.4601L25.3715 11.0451L24.3224 9.93376L23.2732 8.82242L22.8337 9.23738L23.8828 10.3487ZM24.3224 9.93376L25.3715 11.0451L25.8111 10.6301L24.7619 9.5188L23.7128 8.40746L23.2732 8.82242L24.3224 9.93376ZM24.7619 9.5188L25.8111 10.6301C26.2947 10.1736 26.6423 9.61708 26.8409 8.9826L25.3824 8.52601L23.9239 8.06942C23.8813 8.20537 23.8153 8.31074 23.7128 8.40746L24.7619 9.5188ZM25.3824 8.52601L26.8409 8.9826L27.0218 8.40476L25.5633 7.94818L24.1048 7.49159L23.9239 8.06942L25.3824 8.52601ZM25.5633 7.94818L27.0218 8.40476L27.2027 7.82693L25.7442 7.37035L24.2857 6.91376L24.1048 7.49159L25.5633 7.94818ZM25.7442 7.37035L27.2027 7.82693C27.1987 7.83969 27.1895 7.86386 27.1712 7.89406C27.1528 7.92467 27.1295 7.9541 27.1032 7.97966C27.0482 8.0331 27.0121 8.03947 27.0439 8.0288L26.557 6.58012L26.07 5.13145C25.2391 5.41074 24.5689 6.0091 24.2857 6.91376L25.7442 7.37035ZM26.557 6.58012L27.0439 8.0288L27.6758 7.8164L27.1889 6.36773L26.7019 4.91906L26.07 5.13145L26.557 6.58012ZM27.1889 6.36773L27.6758 7.8164L28.3077 7.60401L27.8208 6.15534L27.3338 4.70666L26.7019 4.91906L27.1889 6.36773ZM27.8208 6.15534L28.3077 7.60401C29.2341 7.29261 29.8607 6.59076 30.1083 5.6745L28.633 5.27577L27.1576 4.87704C27.1518 4.89836 27.1608 4.85315 27.2169 4.79242C27.2429 4.76432 27.2705 4.74227 27.2954 4.72663C27.3196 4.71141 27.3346 4.7064 27.3338 4.70666L27.8208 6.15534ZM28.633 5.27577L30.1083 5.6745L30.2886 5.00732L28.8133 4.60859L27.3379 4.20986L27.1576 4.87704L28.633 5.27577ZM28.8133 4.60859L30.2886 5.00732L30.469 4.34015L28.9936 3.94142L27.5182 3.54269L27.3379 4.20986L28.8133 4.60859ZM28.9936 3.94142L30.469 4.34015C30.4772 4.3098 30.4665 4.36996 30.3896 4.45124C30.3066 4.53899 30.2147 4.5793 30.1674 4.59185L29.7754 3.11464L29.3835 1.63743C28.3876 1.90164 27.7618 2.64105 27.5182 3.54269L28.9936 3.94142ZM29.7754 3.11464L30.1674 4.59185L30.7689 4.43225L30.377 2.95504L29.9851 1.47783L29.3835 1.63743L29.7754 3.11464ZM30.377 2.95504L30.7689 4.43225L31.3705 4.27265L30.9786 2.79544L30.5867 1.31823L29.9851 1.47783L30.377 2.95504ZM30.9786 2.79544L31.3705 4.27265C31.9095 4.12966 32.4223 3.91363 32.9066 3.62917L32.1326 2.31136L31.3585 0.993558C31.1063 1.14173 30.8498 1.24842 30.5867 1.31823L30.9786 2.79544ZM32.1326 2.31136L32.9066 3.62917L33.459 3.30469L32.685 1.98689L31.9109 0.669083L31.3585 0.993558L32.1326 2.31136ZM32.685 1.98689L33.459 3.30469L34.0114 2.98022L33.2374 1.66241L32.4633 0.344607L31.9109 0.669083L32.685 1.98689ZM33.2374 1.66241L34.0114 2.98022C33.9587 3.01118 33.8037 3.0777 33.5899 3.05051C33.39 3.02509 33.2934 2.93703 33.3041 2.9465L34.3139 1.79932L35.3238 0.652152C34.9851 0.354031 34.5343 0.0893528 33.9756 0.0182956C33.4029 -0.0545288 32.8843 0.0973305 32.4633 0.344607L33.2374 1.66241ZM34.3139 1.79932L33.3041 2.9465L33.8283 3.40788L34.8381 2.26071L35.8479 1.11354L35.3238 0.652152L34.3139 1.79932ZM34.8381 2.26071L33.8283 3.40788L34.3524 3.86927L35.3622 2.7221L36.3721 1.57493L35.8479 1.11354L34.8381 2.26071ZM35.3622 2.7221L34.3524 3.86927C34.9278 4.37576 35.6277 4.69923 36.4243 4.74607L36.514 3.22039L36.6037 1.69471C36.5634 1.69234 36.4955 1.68362 36.3721 1.57493L35.3622 2.7221ZM36.514 3.22039L36.4243 4.74607L37.0519 4.78298L37.1416 3.2573L37.2314 1.73162L36.6037 1.69471L36.514 3.22039ZM37.1416 3.2573L37.0519 4.78298L37.6795 4.81989L37.7693 3.29421L37.859 1.76853L37.2314 1.73162L37.1416 3.2573ZM37.7693 3.29421L37.6795 4.81989C37.6353 4.81729 37.4225 4.7902 37.2127 4.59244C37.0056 4.39727 36.9691 4.19371 36.9653 4.16437L38.4805 3.96448L39.9956 3.76458C39.9361 3.313 39.7532 2.78661 39.3091 2.36802C38.8622 1.94683 38.3217 1.79573 37.859 1.76853L37.7693 3.29421ZM38.4805 3.96448L36.9653 4.16437L37.0488 4.79774L38.564 4.59784L40.0792 4.39794L39.9956 3.76458L38.4805 3.96448ZM38.564 4.59784L37.0488 4.79774L37.1324 5.4311L38.6476 5.2312L40.1628 5.03131L40.0792 4.39794L38.564 4.59784ZM38.6476 5.2312L37.1324 5.4311C37.2416 6.25914 37.6517 6.95517 38.2776 7.47254L39.2513 6.29458L40.2251 5.11662C40.2018 5.09734 40.1879 5.08273 40.1802 5.07381C40.1728 5.06509 40.17 5.06024 40.1693 5.05913C40.1688 5.05812 40.1683 5.05727 40.1676 5.05514C40.1669 5.05288 40.1646 5.04558 40.1628 5.03131L38.6476 5.2312ZM39.2513 6.29458L38.2776 7.47254L38.7978 7.90255L39.7715 6.72459L40.7453 5.54664L40.2251 5.11662L39.2513 6.29458ZM39.7715 6.72459L38.7978 7.90255L39.318 8.33257L40.2917 7.15461L41.2655 5.97665L40.7453 5.54664L39.7715 6.72459ZM40.2917 7.15461L39.318 8.33257C39.3435 8.35369 39.3078 8.33124 39.2732 8.25384C39.2566 8.21674 39.2449 8.17705 39.2388 8.13829C39.2328 8.10012 39.2336 8.07181 39.2349 8.05729L40.757 8.19433L42.2792 8.33138C42.3662 7.3655 41.954 6.54583 41.2655 5.97665L40.2917 7.15461ZM40.757 8.19433L39.2349 8.05729L39.18 8.667L40.7021 8.80405L42.2243 8.94109L42.2792 8.33138L40.757 8.19433ZM40.7021 8.80405L39.18 8.667L39.1251 9.27671L40.6472 9.41376L42.1694 9.5508L42.2243 8.94109L40.7021 8.80405ZM40.6472 9.41376L39.1251 9.27671C39.1145 9.39437 39.0784 9.49299 38.9974 9.60044L40.2179 10.5203L41.4384 11.4402C41.8567 10.8852 42.1068 10.2461 42.1694 9.5508L40.6472 9.41376ZM40.2179 10.5203L38.9974 9.60044L38.6229 10.0973L39.8434 11.0171L41.0639 11.937L41.4384 11.4402L40.2179 10.5203ZM39.8434 11.0171L38.6229 10.0973L38.2485 10.5941L39.469 11.514L40.6895 12.4338L41.0639 11.937L39.8434 11.0171ZM39.469 11.514L38.2485 10.5941C37.7879 11.2052 37.5621 11.9219 37.5891 12.6866L39.1165 12.6326L40.6439 12.5786C40.6416 12.5143 40.6507 12.4852 40.6895 12.4338L39.469 11.514ZM39.1165 12.6326L37.5891 12.6866L37.6111 13.3083L39.1385 13.2544L40.6658 13.2004L40.6439 12.5786L39.1165 12.6326ZM39.1385 13.2544L37.6111 13.3083L37.6331 13.9301L39.1604 13.8761L40.6878 13.8221L40.6658 13.2004L39.1385 13.2544ZM39.1604 13.8761L37.6331 13.9301C37.6397 14.1188 37.6063 14.2584 37.5514 14.3753L38.9347 15.0252L40.3179 15.6751C40.5933 15.0889 40.7104 14.4625 40.6878 13.8221L39.1604 13.8761ZM38.9347 15.0252L37.5514 14.3753L37.3037 14.9027L38.6869 15.5525L40.0702 16.2024L40.3179 15.6751L38.9347 15.0252ZM38.6869 15.5525L37.3037 14.9027L37.0559 15.43L38.4392 16.0798L39.8225 16.7297L40.0702 16.2024L38.6869 15.5525ZM38.4392 16.0798L37.0559 15.43C36.9682 15.6168 36.8497 15.7858 36.6929 15.9416L37.7702 17.0258L38.8474 18.1099C39.2523 17.7075 39.5799 17.2459 39.8225 16.7297L38.4392 16.0798ZM37.7702 17.0258L36.6929 15.9416L36.2716 16.3603L37.3488 17.4444L38.4261 18.5285L38.8474 18.1099L37.7702 17.0258ZM37.3488 17.4444L36.2716 16.3603L35.8503 16.7789L36.9275 17.863L38.0047 18.9472L38.4261 18.5285L37.3488 17.4444ZM36.9275 17.863L35.8503 16.7789C35.4762 17.1506 35.156 17.5639 34.8949 18.0178L36.2198 18.7797L37.5447 19.5415C37.6655 19.3315 37.8171 19.1336 38.0047 18.9472L36.9275 17.863ZM36.2198 18.7797L34.8949 18.0178L34.6086 18.5158L35.9335 19.2777L37.2584 20.0395L37.5447 19.5415L36.2198 18.7797ZM35.9335 19.2777L34.6086 18.5158L34.3222 19.0138L35.6471 19.7756L36.972 20.5375L37.2584 20.0395L35.9335 19.2777ZM35.6471 19.7756L34.3222 19.0138C34.2342 19.1668 34.1158 19.3053 33.9524 19.4321L34.8894 20.6395L35.8265 21.8468C36.2915 21.4859 36.6782 21.0485 36.972 20.5375L35.6471 19.7756ZM34.8894 20.6395L33.9524 19.4321L33.481 19.7979L34.4181 21.0053L35.3551 22.2126L35.8265 21.8468L34.8894 20.6395ZM34.4181 21.0053L33.481 19.7979L33.0097 20.1638L33.9467 21.3711L34.8838 22.5785L35.3551 22.2126L34.4181 21.0053ZM33.9467 21.3711L33.0097 20.1638C32.3155 20.7026 31.9654 21.4612 31.8938 22.2719L33.4162 22.4063L34.9386 22.5408C34.9436 22.4838 34.9528 22.482 34.9385 22.5098C34.9318 22.5229 34.9224 22.5376 34.9106 22.5517C34.8989 22.5657 34.8889 22.5745 34.8838 22.5785L33.9467 21.3711ZM33.4162 22.4063L31.8938 22.2719L31.8347 22.9413L33.3571 23.0757L34.8795 23.2102L34.9386 22.5408L33.4162 22.4063ZM33.3571 23.0757L31.8347 22.9413L31.7755 23.6107L33.2979 23.7451L34.8203 23.8796L34.8795 23.2102L33.3571 23.0757ZM33.2979 23.7451L31.7755 23.6107C31.7775 23.5881 31.7965 23.4694 31.9016 23.3394C31.9498 23.2798 32.0011 23.2372 32.0442 23.2094C32.0856 23.1826 32.112 23.1741 32.1113 23.1743L32.5843 24.6276L33.0574 26.0809C33.4962 25.938 33.9373 25.6832 34.2783 25.2615C34.6213 24.8374 34.7789 24.3485 34.8203 23.8796L33.2979 23.7451ZM32.5843 24.6276L32.1113 23.1743L31.4568 23.3874L31.9298 24.8406L32.4029 26.2939L33.0574 26.0809L32.5843 24.6276ZM31.9298 24.8406L31.4568 23.3874L30.8023 23.6004L31.2753 25.0537L31.7484 26.5069L32.4029 26.2939L31.9298 24.8406ZM31.2753 25.0537L30.8023 23.6004C30.3723 23.7404 29.9472 23.9829 29.6071 24.3722C29.2648 24.7639 29.0798 25.2227 29.0059 25.6804L30.5146 25.9242L32.0234 26.168C32.0202 26.1874 31.9975 26.2819 31.9087 26.3835C31.8222 26.4825 31.7421 26.509 31.7484 26.5069L31.2753 25.0537ZM30.5146 25.9242L29.0059 25.6804L28.8996 26.3379L30.4084 26.5817L31.9171 26.8255L32.0234 26.168L30.5146 25.9242ZM30.4084 26.5817L28.8996 26.3379L28.7934 26.9954L30.3021 27.2392L31.8109 27.4829L31.9171 26.8255L30.4084 26.5817ZM30.3021 27.2392L28.7934 26.9954C28.7677 27.1542 28.7261 27.1825 28.726 27.1826L29.7752 28.2938L30.8245 29.4051C31.3853 28.8756 31.6949 28.2007 31.8109 27.4829L30.3021 27.2392ZM29.7752 28.2938L28.726 27.1826L28.3053 27.5798L29.3545 28.6911L30.4038 29.8023L30.8245 29.4051L29.7752 28.2938ZM29.3545 28.6911L28.3053 27.5798L27.8846 27.977L28.9339 29.0883L29.9831 30.1995L30.4038 29.8023L29.3545 28.6911ZM28.9339 29.0883L27.8846 27.977C27.6621 28.1871 27.4226 28.3805 27.1652 28.5574L28.0307 29.817L28.8962 31.0766C29.2821 30.8115 29.6446 30.5191 29.9831 30.1995L28.9339 29.0883ZM28.0307 29.817L27.1652 28.5574L26.6827 28.8889L27.5482 30.1485L28.4138 31.4081L28.8962 31.0766L28.0307 29.817ZM27.5482 30.1485L26.6827 28.8889L26.2002 29.2204L27.0658 30.48L27.9313 31.7397L28.4138 31.4081L27.5482 30.1485ZM27.0658 30.48L26.2002 29.2204C25.6865 29.5735 25.2711 30.0278 24.9602 30.5661L26.2838 31.3303L27.6073 32.0945C27.6959 31.9411 27.8018 31.8287 27.9313 31.7397L27.0658 30.48ZM26.2838 31.3303L24.9602 30.5661L24.6607 31.0848L25.9843 31.849L27.3078 32.6132L27.6073 32.0945L26.2838 31.3303ZM25.9843 31.849L24.6607 31.0848L24.3612 31.6036L25.6847 32.3678L27.0083 33.132L27.3078 32.6132L25.9843 31.849ZM25.6847 32.3678L24.3612 31.6036C24.2813 31.742 24.1876 31.8371 24.072 31.9106L24.8924 33.2001L25.7128 34.4895C26.2543 34.145 26.6889 33.6852 27.0083 33.132L25.6847 32.3678ZM24.8924 33.2001L24.072 31.9106L23.5792 32.2241L24.3996 33.5136L25.22 34.8031L25.7128 34.4895L24.8924 33.2001ZM24.3996 33.5136L23.5792 32.2241L23.0864 32.5377L23.9068 33.8271L24.7272 35.1166L25.22 34.8031L24.3996 33.5136ZM23.9068 33.8271L23.0864 32.5377C22.5693 32.8667 22.1409 33.2951 21.8032 33.8043L23.0767 34.6491L24.3503 35.4939C24.4623 35.3252 24.5872 35.2057 24.7272 35.1166L23.9068 33.8271ZM23.0767 34.6491L21.8032 33.8043L21.4659 34.3127L22.7395 35.1575L24.0131 36.0023L24.3503 35.4939L23.0767 34.6491ZM22.7395 35.1575L21.4659 34.3127L21.1287 34.8211L22.4023 35.6659L23.6758 36.5107L24.0131 36.0023L22.7395 35.1575ZM22.4023 35.6659L21.1287 34.8211C21.1404 34.8033 21.1617 34.7761 21.1948 34.7466C21.2283 34.7168 21.2659 34.6919 21.3038 34.6734C21.3813 34.6355 21.4185 34.644 21.3704 34.6438L21.3657 36.1721L21.361 37.7004C22.2534 37.7032 23.1216 37.3462 23.6758 36.5107L22.4023 35.6659ZM21.3657 36.1721L21.3704 34.6438L20.6712 34.6417L20.6665 36.17L20.6618 37.6983L21.361 37.7004L21.3657 36.1721ZM20.6665 36.17L20.6712 34.6417L19.9719 34.6395L19.9672 36.1678L19.9625 37.6962L20.6618 37.6983L20.6665 36.17ZM19.9672 36.1678L19.9719 34.6395C19.5149 34.6381 19.0337 34.7371 18.5876 34.9995C18.1394 35.2632 17.817 35.6389 17.5983 36.0496L18.9473 36.7679L20.2963 37.4861C20.2914 37.4954 20.2458 37.5704 20.1376 37.634C20.0314 37.6965 19.9532 37.6961 19.9625 37.6962L19.9672 36.1678ZM18.9473 36.7679L17.5983 36.0496L17.2777 36.6518L18.6267 37.37L19.9758 38.0883L20.2963 37.4861L18.9473 36.7679ZM18.6267 37.37L17.2777 36.6518L16.9571 37.2539L18.3061 37.9722L19.6552 38.6904L19.9758 38.0883L18.6267 37.37ZM18.3061 37.9722L16.9571 37.2539C16.9636 37.2417 17.0368 37.1166 17.2224 37.0249C17.4099 36.9322 17.5594 36.9489 17.5838 36.9531L17.3218 38.4588L17.0597 39.9645C17.5267 40.0458 18.0615 40.0198 18.5771 39.7649C19.0908 39.511 19.4349 39.1041 19.6552 38.6904L18.3061 37.9722ZM17.3218 38.4588L17.5838 36.9531L16.9201 36.8376L16.658 38.3433L16.396 39.849L17.0597 39.9645L17.3218 38.4588ZM16.658 38.3433L16.9201 36.8376L16.2563 36.7221L15.9943 38.2278L15.7322 39.7334L16.396 39.849L16.658 38.3433ZM15.9943 38.2278L16.2563 36.7221C15.7124 36.6274 15.1725 36.5921 14.6517 36.6444L14.8045 38.1651L14.9573 39.6858C15.1379 39.6676 15.3911 39.6741 15.7322 39.7334L15.9943 38.2278ZM14.8045 38.1651L14.6517 36.6444L14.1257 36.6973L14.2785 38.218L14.4313 39.7386L14.9573 39.6858L14.8045 38.1651ZM14.2785 38.218L14.1257 36.6973L13.5996 36.7502L13.7525 38.2708L13.9053 39.7915L14.4313 39.7386L14.2785 38.218ZM13.7525 38.2708L13.5996 36.7502C13.1907 36.7913 12.779 36.8564 12.3648 36.9445L12.6829 38.4393L13.001 39.9342C13.3115 39.8681 13.6128 39.8209 13.9053 39.7915L13.7525 38.2708ZM12.6829 38.4393L12.3648 36.9445L11.8213 37.0601L12.1394 38.555L12.4574 40.0498L13.001 39.9342L12.6829 38.4393ZM12.1394 38.555L11.8213 37.0601L11.2777 37.1758L11.5958 38.6707L11.9139 40.1655L12.4574 40.0498L12.1394 38.555ZM11.5958 38.6707L11.2777 37.1758C11.2738 37.1766 11.3012 37.1709 11.3468 37.1792C11.3677 37.183 11.3863 37.1887 11.4012 37.1948C11.4084 37.1977 11.414 37.2004 11.4179 37.2024C11.4218 37.2044 11.4237 37.2057 11.4237 37.2057L10.5922 38.488L9.76079 39.7704C10.4125 40.1929 11.1614 40.3256 11.9139 40.1655L11.5958 38.6707ZM10.5922 38.488L11.4237 37.2057L10.9636 36.9074L10.1322 38.1897L9.30073 39.4721L9.76079 39.7704L10.5922 38.488ZM10.1322 38.1897L10.9636 36.9074L10.5035 36.6091L9.6721 37.8915L8.84067 39.1738L9.30073 39.4721L10.1322 38.1897ZM9.6721 37.8915L10.5035 36.6091C10.3756 36.5261 10.2679 36.4211 10.1748 36.2811L8.90235 37.1277L7.62994 37.9743C7.94974 38.455 8.35524 38.8591 8.84067 39.1738L9.6721 37.8915ZM8.90235 37.1277L10.1748 36.2811L9.86507 35.8157L8.59266 36.6623L7.32024 37.5089L7.62994 37.9743L8.90235 37.1277ZM8.59266 36.6623L9.86507 35.8157L9.55538 35.3502L8.28296 36.1968L7.01055 37.0434L7.32024 37.5089L8.59266 36.6623ZM8.28296 36.1968L9.55538 35.3502C9.36339 35.0617 9.17963 34.7694 9.00406 34.4735L7.68967 35.2533L6.37529 36.0332C6.57785 36.3746 6.78961 36.7113 7.01055 37.0434L8.28296 36.1968ZM7.68967 35.2533L9.00406 34.4735L8.72046 33.9955L7.40608 34.7754L6.09169 35.5552L6.37529 36.0332L7.68967 35.2533ZM7.40608 34.7754L8.72046 33.9955L8.43686 33.5175L7.12248 34.2974L5.8081 35.0772L6.09169 35.5552L7.40608 34.7754ZM7.12248 34.2974L8.43686 33.5175C8.12832 32.9975 7.71351 32.5658 7.22686 32.2148L6.33273 33.4543L5.43861 34.6937C5.62682 34.8295 5.73851 34.9599 5.8081 35.0772L7.12248 34.2974ZM6.33273 33.4543L7.22686 32.2148L6.72071 31.8497L5.82659 33.0891L4.93247 34.3286L5.43861 34.6937L6.33273 33.4543ZM5.82659 33.0891L6.72071 31.8497L6.21456 31.4845L5.32044 32.724L4.42632 33.9635L4.93247 34.3286L5.82659 33.0891ZM5.32044 32.724L6.21456 31.4845C6.22496 31.492 6.28025 31.5376 6.32462 31.6297C6.36869 31.7213 6.36862 31.7895 6.36837 31.7953L4.84147 31.7293L3.31458 31.6634C3.27454 32.591 3.66686 33.4157 4.42632 33.9635L5.32044 32.724ZM4.84147 31.7293L6.36837 31.7953L6.39555 31.1657L4.86865 31.0998L3.34175 31.0339L3.31458 31.6634L4.84147 31.7293ZM4.86865 31.0998L6.39555 31.1657L6.42272 30.5361L4.89583 30.4702L3.36893 30.4043L3.34175 31.0339L4.86865 31.0998ZM4.89583 30.4702L6.42272 30.5361C6.44863 29.9361 6.36849 29.3418 6.15257 28.7766L4.72486 29.3219L3.29715 29.8673C3.34543 29.9937 3.37926 30.165 3.36893 30.4043L4.89583 30.4702ZM4.72486 29.3219L6.15257 28.7766L5.95442 28.2579L4.52672 28.8032L3.09901 29.3486L3.29715 29.8673L4.72486 29.3219ZM4.52672 28.8032L5.95442 28.2579L5.75628 27.7391L4.32857 28.2845L2.90087 28.8298L3.09901 29.3486L4.52672 28.8032ZM4.32857 28.2845L5.75628 27.7391C5.52999 27.1467 5.16125 26.6362 4.71427 26.1996L3.64628 27.2928L2.5783 28.386C2.77685 28.58 2.86297 28.7306 2.90087 28.8298L4.32857 28.2845ZM3.64628 27.2928L4.71427 26.1996L4.23013 25.7266L3.16214 26.8198L2.09415 27.9131L2.5783 28.386L3.64628 27.2928ZM3.16214 26.8198L4.23013 25.7266L3.74598 25.2536L2.67799 26.3469L1.61 27.4401L2.09415 27.9131L3.16214 26.8198ZM2.67799 26.3469L3.74598 25.2536C3.73113 25.2391 3.78025 25.2828 3.8135 25.3908C3.8487 25.5051 3.83782 25.5996 3.82826 25.6379L2.3456 25.2671L0.862953 24.8963C0.61733 25.8784 0.937391 26.783 1.61 27.4401L2.67799 26.3469ZM2.3456 25.2671L3.82826 25.6379L3.98002 25.0311L2.49737 24.6603L1.01472 24.2894L0.862953 24.8963L2.3456 25.2671ZM2.49737 24.6603L3.98002 25.0311L4.13178 24.4243L2.64913 24.0534L1.16648 23.6826L1.01472 24.2894L2.49737 24.6603ZM2.64913 24.0534L4.13178 24.4243C4.31978 23.6726 4.24211 22.9148 3.90062 22.2167L2.52775 22.8882L1.15487 23.5598C1.17198 23.5947 1.17404 23.6119 1.17457 23.6171C1.17512 23.6224 1.17679 23.6414 1.16648 23.6826L2.64913 24.0534ZM2.52775 22.8882L3.90062 22.2167L3.62747 21.6583L2.2546 22.3298L0.881723 23.0013L1.15487 23.5598L2.52775 22.8882ZM2.2546 22.3298L3.62747 21.6583L3.35433 21.0999L1.98145 21.7714L0.608576 22.4429L0.881723 23.0013L2.2546 22.3298ZM1.98145 21.7714L3.35433 21.0999C3.24811 20.8827 3.1913 20.6768 3.17155 20.4757L1.65055 20.6251L0.129555 20.7745C0.186805 21.3573 0.35059 21.9155 0.608576 22.4429L1.98145 21.7714ZM1.65055 20.6251L3.17155 20.4757L3.1138 19.8878L1.5928 20.0372L0.071803 20.1866L0.129555 20.7745L1.65055 20.6251ZM1.5928 20.0372L3.1138 19.8878L3.05604 19.2999L1.53505 19.4493L0.0140511 19.5988L0.071803 20.1866L1.5928 20.0372ZM1.53505 19.4493L3.05604 19.2999C3.05705 19.3101 3.05724 19.3242 3.05533 19.3401C3.05343 19.3559 3.05015 19.3678 3.04795 19.3741C3.04342 19.3872 3.04928 19.361 3.10204 19.2975L1.92653 18.3208L0.751023 17.3441C0.243852 17.9545 -0.0718584 18.7243 0.0140511 19.5988L1.53505 19.4493ZM1.92653 18.3208L3.10204 19.2975L3.55128 18.7568L2.37577 17.7801L1.20026 16.8034L0.751023 17.3441L1.92653 18.3208ZM2.37577 17.7801L3.55128 18.7568L4.00052 18.2161L2.82501 17.2394L1.6495 16.2627L1.20026 16.8034L2.37577 17.7801ZM2.82501 17.2394L4.00052 18.2161C4.4606 17.6624 4.79172 16.9844 4.82538 16.1995L3.29846 16.1341L1.77155 16.0686C1.77189 16.0606 1.77394 16.0657 1.76312 16.091C1.75103 16.1192 1.72062 16.1771 1.6495 16.2627L2.82501 17.2394ZM3.29846 16.1341L4.82538 16.1995L4.84959 15.6349L3.32268 15.5694L1.79576 15.5039L1.77155 16.0686L3.29846 16.1341ZM3.32268 15.5694L4.84959 15.6349L4.87381 15.0702L3.3469 15.0047L1.81998 14.9393L1.79576 15.5039L3.32268 15.5694ZM3.3469 15.0047L4.87381 15.0702C4.88992 14.6945 4.9065 14.3145 4.92354 13.93L3.39673 13.8623L1.86991 13.7947C1.8528 14.1805 1.83616 14.5621 1.81998 14.9393L3.3469 15.0047ZM3.39673 13.8623L4.92354 13.93L4.94916 13.3523L3.42234 13.2846L1.89552 13.2169L1.86991 13.7947L3.39673 13.8623ZM3.42234 13.2846L4.94916 13.3523L4.97477 12.7746L3.44796 12.7069L1.92114 12.6392L1.89552 13.2169L3.42234 13.2846ZM3.44796 12.7069L4.97477 12.7746C4.99103 12.4079 5.01423 12.0355 5.04442 11.6573L3.52095 11.5357L1.99748 11.4141C1.9645 11.8271 1.93903 12.2355 1.92114 12.6392L3.44796 12.7069ZM3.52095 11.5357L5.04442 11.6573L5.0918 11.0639L3.56833 10.9423L2.04486 10.8206L1.99748 11.4141L3.52095 11.5357ZM3.56833 10.9423L5.0918 11.0639L5.13918 10.4705L3.61571 10.3488L2.09224 10.2272L2.04486 10.8206L3.56833 10.9423ZM3.61571 10.3488L5.13918 10.4705C5.14024 10.4573 5.14188 10.4502 5.1425 10.4478C5.1431 10.4456 5.14344 10.4449 5.14361 10.4445C5.14381 10.4441 5.14532 10.4409 5.14989 10.4345C5.15457 10.4279 5.16371 10.4163 5.17989 10.4001L4.09933 9.31927L3.01877 8.23846C2.48113 8.77598 2.15387 9.45532 2.09224 10.2272L3.61571 10.3488ZM4.09933 9.31927L5.17989 10.4001L5.61613 9.96393L4.53557 8.88313L3.45501 7.80232L3.01877 8.23846L4.09933 9.31927ZM4.53557 8.88313L5.61613 9.96393L6.05237 9.52779L4.97181 8.44699L3.89125 7.36618L3.45501 7.80232L4.53557 8.88313ZM4.97181 8.44699L6.05237 9.52779C6.46201 9.11825 6.79603 8.65066 7.03446 8.12439L5.64235 7.49369L4.25024 6.86299C4.17627 7.02626 4.06327 7.1942 3.89125 7.36618L4.97181 8.44699ZM5.64235 7.49369L7.03446 8.12439L7.26877 7.60722L5.87665 6.97653L4.48454 6.34583L4.25024 6.86299L5.64235 7.49369ZM5.87665 6.97653L7.26877 7.60722L7.50307 7.09006L6.11096 6.45936L4.71884 5.82867L4.48454 6.34583L5.87665 6.97653ZM6.11096 6.45936L7.50307 7.09006C7.66108 6.74129 7.75382 6.54758 7.79409 6.47123L6.44225 5.75829L5.0904 5.04536C5.00135 5.21422 4.87323 5.48789 4.71884 5.82867L6.11096 6.45936ZM6.44225 5.75829L7.79409 6.47123L7.89108 6.28732L6.53923 5.57439L5.18739 4.86145L5.0904 5.04536L6.44225 5.75829ZM6.53923 5.57439L7.86016 6.3431L8.0196 6.06913L6.69867 5.30042L5.37775 4.5317L5.21831 4.80568L6.53923 5.57439ZM6.69867 5.30042L8.13292 5.82831L8.16747 5.73447L6.73321 5.20657L5.29896 4.67867L5.26442 4.77252L6.69867 5.30042Z" fill="var(--stroke-0, white)"/>
</svg>
