<svg width="70" height="41" viewBox="0 0 70 41" fill="none" xmlns="http://www.w3.org/2000/svg">
<path d="M1.43486 31.9545C0.369731 32.2745 -0.234338 33.3974 0.0856346 34.4625C0.405607 35.5276 1.52845 36.1317 2.59358 35.8117L2.01422 33.8831L1.43486 31.9545ZM2.20708 33.8252L2.78644 35.7538L3.29635 35.6006L3.66392 35.2154L2.20708 33.8252ZM2.82812 33.1744L4.28496 34.5646L4.28497 34.5646L2.82812 33.1744ZM3.03944 33.0581L3.06796 35.0716H3.06798L3.03944 33.0581ZM3.61588 33.0499L3.58734 31.0364H3.58733L3.61588 33.0499ZM4.19231 33.0418L4.22085 35.0553H4.22087L4.19231 33.0418ZM4.35657 32.9622L5.92862 34.2207L5.92863 34.2207L4.35657 32.9622ZM4.71094 32.5195L3.13888 31.2611L3.13887 31.2611L4.71094 32.5195ZM5.06531 32.0768L6.63737 33.3353L6.63738 33.3353L5.06531 32.0768ZM5.20452 31.9457L6.35037 33.6016L6.35039 33.6016L5.20452 31.9457ZM5.63906 31.645L4.4932 29.989L4.49319 29.989L5.63906 31.645ZM6.07359 31.3443L7.21945 33.0002L7.21947 33.0002L6.07359 31.3443ZM6.24776 31.29L6.27405 33.3035L6.27407 33.3035L6.24776 31.29ZM6.80016 31.2827L6.77385 29.2692H6.77385L6.80016 31.2827ZM7.35256 31.2755L7.37886 33.2891H7.37889L7.35256 31.2755ZM7.536 31.2459L8.16712 33.1582L8.16715 33.1581L7.536 31.2459ZM8.02313 31.0851L7.392 29.1728L7.39199 29.1728L8.02313 31.0851ZM8.51026 30.9243L9.1414 32.8366L9.14142 32.8366L8.51026 30.9243ZM8.674 30.8389L9.86577 32.4621L9.86578 32.462L8.674 30.8389ZM9.11471 30.5153L7.92293 28.8921L7.92292 28.8921L9.11471 30.5153ZM9.55542 30.1917L10.7472 31.8149L10.7472 31.8149L9.55542 30.1917ZM9.7248 30.1232L9.97294 32.1216L9.97296 32.1216L9.7248 30.1232ZM10.2439 30.0588L9.99574 28.0604H9.99573L10.2439 30.0588ZM10.763 29.9943L11.0111 31.9927L11.0112 31.9927L10.763 29.9943ZM10.9541 30.0143L10.3492 31.935L10.3492 31.935L10.9541 30.0143ZM11.5181 30.1919L12.123 28.2711H12.123L11.5181 30.1919ZM12.082 30.3695L11.4771 32.2902L11.4771 32.2902L12.082 30.3695ZM12.2574 30.3128L13.7833 31.6268L13.7833 31.6268L12.2574 30.3128ZM12.6871 29.8137L11.1612 28.4997L11.1612 28.4997L12.6871 29.8137ZM13.1169 29.3147L14.6428 30.6287L14.6428 30.6287L13.1169 29.3147ZM13.2867 29.2366L13.0744 31.2391L13.0744 31.2391L13.2867 29.2366ZM13.8192 29.293L14.0315 27.2905H14.0315L13.8192 29.293ZM14.3517 29.3495L14.1395 31.352L14.1395 31.352L14.3517 29.3495ZM14.5337 29.3208L15.3428 31.1649L15.3428 31.1649L14.5337 29.3208ZM15.0325 29.102L14.2234 27.2579L14.2234 27.2579L15.0325 29.102ZM15.5313 28.8831L16.3404 30.7272L16.3404 30.7272L15.5313 28.8831ZM15.714 28.8921L14.8098 30.6914L14.8098 30.6914L15.714 28.8921ZM16.2507 29.1618L17.1549 27.3625L17.1549 27.3625L16.2507 29.1618ZM16.7874 29.4315L15.8831 31.2308L15.8831 31.2308L16.7874 29.4315ZM16.972 29.4617L17.3543 31.4389L17.3543 31.4389L16.972 29.4617ZM17.4815 29.3632L17.0992 27.3861H17.0992L17.4815 29.3632ZM17.991 29.2647L18.3733 31.2418L18.3733 31.2418L17.991 29.2647ZM18.172 29.2336L18.4719 31.2249L18.4719 31.2249L18.172 29.2336ZM18.6881 29.1559L18.3882 27.1646L18.3882 27.1646L18.6881 29.1559ZM19.2041 29.0782L19.504 31.0695L19.504 31.0695L19.2041 29.0782ZM19.3881 29.041L19.8811 30.9935L19.8811 30.9934L19.3881 29.041ZM19.9144 28.9081L19.4213 26.9557H19.4213L19.9144 28.9081ZM20.4407 28.7752L20.9337 30.7276L20.9338 30.7276L20.4407 28.7752ZM20.6176 28.8372L19.1821 30.2494L19.1821 30.2494L20.6176 28.8372ZM21.0942 29.3216L22.5297 27.9094H22.5297L21.0942 29.3216ZM21.5708 29.8061L20.1352 31.2183L20.1352 31.2183L21.5708 29.8061ZM21.7543 29.8252L22.8724 31.5L22.8724 31.5L21.7543 29.8252ZM22.3176 29.4491L21.1995 27.7743L21.1995 27.7743L22.3176 29.4491ZM22.881 29.073L23.9991 30.7478L23.9991 30.7478L22.881 29.073ZM23.0642 29.0622L21.951 30.7403L21.951 30.7403L23.0642 29.0622ZM23.539 29.3772L24.6522 27.6991L24.6522 27.6991L23.539 29.3772ZM24.0138 29.6922L22.9006 31.3702L22.9006 31.3702L24.0138 29.6922ZM24.1917 29.742L24.3151 31.7519H24.3151L24.1917 29.742ZM24.7246 29.7093L24.6012 27.6993L24.6012 27.6993L24.7246 29.7093ZM25.2575 29.6765L25.3809 31.6865L25.3809 31.6865L25.2575 29.6765ZM25.4248 29.7534L23.9183 31.0896V31.0896L25.4248 29.7534ZM25.84 30.2214L27.3465 28.8852V28.8852L25.84 30.2214ZM26.2551 30.6895L24.7486 32.0257V32.0257L26.2551 30.6895ZM26.4378 30.7172L27.34 32.5176L27.34 32.5176L26.4378 30.7172ZM27.0581 30.4064L26.156 28.6061L26.156 28.6061L27.0581 30.4064ZM27.6785 30.0955L28.5806 31.8959L28.5807 31.8959L27.6785 30.0955ZM27.8684 30.0907L26.8047 31.8006L26.8047 31.8006L27.8684 30.0907ZM28.3242 30.3743L29.3879 28.6644L29.3879 28.6644L28.3242 30.3743ZM28.7801 30.6579L27.7164 32.3678L27.7164 32.3678L28.7801 30.6579ZM28.9431 30.748L28.0634 32.5594L28.0634 32.5594L28.9431 30.748ZM29.4107 30.9751L30.2904 29.1636L30.2904 29.1636L29.4107 30.9751ZM29.8784 31.2022L28.9987 33.0136L28.9987 33.0136L29.8784 31.2022ZM30.0482 31.2698L29.4416 33.19L29.4416 33.19L30.0482 31.2698ZM30.5426 31.426L31.1492 29.5058L31.1492 29.5058L30.5426 31.426ZM31.0371 31.5822L30.4305 33.5024L30.4305 33.5024L31.0371 31.5822ZM31.1839 31.6972L32.848 30.5632L32.848 30.5632L31.1839 31.6972ZM31.5213 32.1923L29.8572 33.3263V33.3263L31.5213 32.1923ZM31.8587 32.6875L33.5229 31.5536L33.5229 31.5536L31.8587 32.6875ZM32.0169 32.779L31.9338 34.791L31.9338 34.791L32.0169 32.779ZM32.5756 32.8021L32.6587 30.7901H32.6587L32.5756 32.8021ZM33.1344 32.8251L33.0513 34.8372L33.0514 34.8372L33.1344 32.8251ZM33.3143 32.87L32.4101 34.6694L32.4101 34.6694L33.3143 32.87ZM33.7746 33.1014L34.6787 31.302L34.6787 31.302L33.7746 33.1014ZM34.235 33.3327L33.3309 35.132L33.3309 35.132L34.235 33.3327ZM34.3685 33.4631L36.1078 32.4481L36.1078 32.4481L34.3685 33.4631ZM34.6649 33.9709L32.9256 34.9859L32.9256 34.9859L34.6649 33.9709ZM34.9612 34.4786L36.7004 33.4637L36.7004 33.4637L34.9612 34.4786ZM35.1255 34.5553L35.3569 36.5557L35.3569 36.5557L35.1255 34.5553ZM35.76 34.4819L35.5285 32.4815H35.5285L35.76 34.4819ZM36.3945 34.4084L36.626 36.4088L36.626 36.4088L36.3945 34.4084ZM36.5765 34.4562L35.2576 35.9779L35.2576 35.9779L36.5765 34.4562ZM36.9733 34.8001L38.2922 33.2784V33.2784L36.9733 34.8001ZM37.3701 35.144L36.0512 36.6657L36.0512 36.6657L37.3701 35.144ZM37.5118 35.2663L36.1994 36.7936V36.7936L37.5118 35.2663ZM37.9177 35.6151L39.2301 34.0877V34.0877L37.9177 35.6151ZM38.3236 35.9638L37.0112 37.4912H37.0112L38.3236 35.9638ZM38.4928 36.0278L38.4432 38.0409H38.4432L38.4928 36.0278ZM39.0457 36.0414L39.0953 34.0283H39.0952L39.0457 36.0414ZM39.5985 36.055L39.5489 38.0682H39.549L39.5985 36.055ZM39.7814 36.0865L39.1318 37.9926L39.1318 37.9926L39.7814 36.0865ZM40.2646 36.2512L40.9142 34.3451L40.9142 34.3451L40.2646 36.2512ZM40.7479 36.4159L40.0983 38.322L40.0983 38.322L40.7479 36.4159ZM40.9005 36.5309L42.4855 35.2887L42.4855 35.2887L40.9005 36.5309ZM41.2821 37.0177L39.6971 38.2599V38.2599L41.2821 37.0177ZM41.6636 37.5046L43.2486 36.2624L43.2486 36.2624L41.6636 37.5046ZM41.8406 37.5391L42.6952 39.3625L42.6952 39.3625L41.8406 37.5391ZM42.4618 37.248L41.6073 35.4246L41.6073 35.4246L42.4618 37.248ZM43.0831 36.9568L43.9376 38.7802L43.9377 38.7802L43.0831 36.9568ZM43.2627 36.9983L44.8705 35.7858L44.8705 35.7858L43.2627 36.9983ZM43.6597 37.5246L42.0519 38.7371L42.0519 38.7371L43.6597 37.5246ZM44.0566 38.0509L45.6644 36.8384L45.6643 36.8384L44.0566 38.0509ZM44.2188 38.1517L44.0468 40.1581L44.0468 40.1581L44.2188 38.1517ZM44.741 38.1965L44.913 36.1901H44.913L44.741 38.1965ZM45.2632 38.2412L45.0913 40.2476H45.0913L45.2632 38.2412ZM45.4559 38.1979L46.3707 39.9918L46.3707 39.9918L45.4559 38.1979ZM46.0252 37.9075L45.1103 36.1136L45.1103 36.1136L46.0252 37.9075ZM46.5945 37.6172L47.5093 39.4111L47.5094 39.4111L46.5945 37.6172ZM46.783 37.5793L46.4808 39.5703H46.4808L46.783 37.5793ZM47.2819 37.655L47.5841 35.6641H47.5841L47.2819 37.655ZM47.7808 37.7308L47.4787 39.7217H47.4787L47.7808 37.7308ZM47.9526 37.8171L49.2758 36.2992V36.2992L47.9526 37.8171ZM48.4272 38.2308L47.1039 39.7488V39.7488L48.4272 38.2308ZM48.9017 38.6445L50.2249 37.1265H50.2249L48.9017 38.6445ZM49.0778 38.6978L49.4979 40.6672L49.4979 40.6672L49.0778 38.6978ZM49.601 38.5861L49.1808 36.6167L49.1808 36.6167L49.601 38.5861ZM50.1242 38.4745L50.5443 40.4439L50.5443 40.4439L50.1242 38.4745ZM50.3071 38.4542L50.3204 40.4679H50.3205L50.3071 38.4542ZM50.8203 38.4508L50.8069 36.4371H50.8069L50.8203 38.4508ZM51.3335 38.4474L51.3469 40.4611H51.3469L51.3335 38.4474ZM51.5152 38.4558L51.318 40.4598L51.318 40.4598L51.5152 38.4558ZM52.0317 38.5066L52.2289 36.5025H52.2289L52.0317 38.5066ZM52.5482 38.5574L52.351 40.5615L52.351 40.5615L52.5482 38.5574ZM52.7313 38.5664L52.7309 40.5801H52.731L52.7313 38.5664ZM53.2522 38.5665L53.2525 36.5527H53.2525L53.2522 38.5665ZM53.7731 38.5665L53.7728 40.5803H53.7728L53.7731 38.5665ZM53.9583 38.5664L53.9617 40.5801H53.9617L53.9583 38.5664ZM54.4871 38.5655L54.4837 36.5518H54.4837L54.4871 38.5655ZM55.0159 38.5646L55.0192 40.5784H55.0193L55.0159 38.5646ZM55.185 38.4871L56.6233 39.8965L56.6234 39.8964L55.185 38.4871ZM55.6146 38.0486L54.1763 36.6393L54.1763 36.6393L55.6146 38.0486ZM56.0443 37.6101L57.4826 39.0195L57.4827 39.0195L56.0443 37.6101ZM56.2125 37.5297L56.279 39.5423L56.279 39.5423L56.2125 37.5297ZM56.7362 37.5124L56.6697 35.4998H56.6697L56.7362 37.5124ZM57.2598 37.4951L57.3263 39.5077H57.3263L57.2598 37.4951ZM57.4263 37.4301L58.718 38.975L58.718 38.975L57.4263 37.4301ZM57.8461 37.0791L56.5543 35.5343L56.5543 35.5343L57.8461 37.0791ZM58.2658 36.7281L59.5575 38.273L59.5576 38.273L58.2658 36.7281ZM58.442 36.6824L58.127 38.6713H58.127L58.442 36.6824ZM59.0207 36.774L59.3357 34.7851H59.3357L59.0207 36.774ZM59.5993 36.8657L59.2843 38.8546L59.2843 38.8546L59.5993 36.8657ZM59.7804 36.8354L60.8012 38.5713L60.8012 38.5712L59.7804 36.8354ZM60.2281 36.5722L59.2073 34.8363L59.2073 34.8363L60.2281 36.5722ZM60.6757 36.3089L61.6965 38.0448L61.6965 38.0447L60.6757 36.3089ZM60.8368 36.2243L61.6857 38.0503L61.6858 38.0503L60.8368 36.2243ZM61.3021 36.008L60.4532 34.1819L60.4531 34.1819L61.3021 36.008ZM61.7674 35.7916L62.6163 37.6177L62.6164 37.6177L61.7674 35.7916ZM61.921 35.6943L63.2049 37.2457L63.2049 37.2457L61.921 35.6943ZM62.3264 35.3588L61.0425 33.8074L61.0425 33.8074L62.3264 35.3588ZM62.7317 35.0234L64.0156 36.5748L64.0156 36.5747L62.7317 35.0234ZM62.8872 34.9303L63.6415 36.7974L63.6415 36.7974L62.8872 34.9303ZM63.3631 34.738L62.6088 32.8709L62.6088 32.8709L63.3631 34.738ZM63.8389 34.5458L64.5931 36.413L64.5932 36.413L63.8389 34.5458ZM64.0065 34.4765L64.7915 36.3309L64.7915 36.3309L64.0065 34.4765ZM64.4806 34.2758L63.6955 32.4214L63.6955 32.4214L64.4806 34.2758ZM64.9546 34.0751L65.7397 35.9295L65.7397 35.9295L64.9546 34.0751ZM65.1195 33.9993L66.0162 35.8024L66.0162 35.8023L65.1195 33.9993ZM65.5798 33.7704L64.683 31.9673L64.683 31.9674L65.5798 33.7704ZM66.04 33.5415L66.9368 35.3445L66.9368 35.3445L66.04 33.5415ZM66.1913 33.4417L67.493 34.9782L67.493 34.9782L66.1913 33.4417ZM66.5882 33.1054L65.2865 31.569L65.2865 31.569L66.5882 33.1054ZM66.9852 32.7691L68.2869 34.3056L68.2869 34.3056L66.9852 32.7691ZM67.1036 32.6635L68.496 34.1183L68.496 34.1183L67.1036 32.6635ZM67.3775 32.4013L65.9851 30.9466L65.9851 30.9466L67.3775 32.4013ZM67.6515 32.1391L69.0439 33.5938L69.0439 33.5938L67.6515 32.1391ZM67.7162 32.1196L69.4341 31.069L69.4341 31.0689L67.7162 32.1196ZM67.809 32.2713L69.7345 32.8609L69.9999 31.9941L69.5269 31.2207L67.809 32.2713ZM67.7313 32.5249L65.8058 31.9354L64.5713 35.967L68.483 34.3931L67.7313 32.5249ZM68.6698 34.318C69.7016 33.9028 70.2015 32.7299 69.7863 31.6981C69.3712 30.6663 68.1982 30.1665 67.1664 30.5816L67.9181 32.4498L68.6698 34.318ZM1.43486 4.92307C0.369731 5.24305 -0.234338 6.36589 0.0856345 7.43102C0.405607 8.49615 1.52845 9.10022 2.59358 8.78025L2.01422 6.85166L1.43486 4.92307ZM2.20708 6.79373L2.78644 8.72231L2.86015 8.70017L2.93195 8.67247L2.20708 6.79373ZM3.01721 6.48116L3.74207 8.3599L3.74208 8.3599L3.01721 6.48116ZM3.23087 6.36653L4.52723 7.90749L4.52723 7.90748L3.23087 6.36653ZM3.63146 6.02952L2.3351 4.48856L2.3351 4.48856L3.63146 6.02952ZM4.03206 5.69251L5.32842 7.23346L5.32842 7.23346L4.03206 5.69251ZM4.17157 5.56561L5.58087 7.00401L5.58087 7.00401L4.17157 5.56561ZM4.56153 5.18354L3.15223 3.74514L3.15223 3.74514L4.56153 5.18354ZM4.95149 4.80146L6.36079 6.23986L6.36079 6.23986L4.95149 4.80146ZM5.1034 4.69447L5.96918 6.51258L5.96918 6.51258L5.1034 4.69447ZM5.57423 4.47026L4.70845 2.65215L4.70845 2.65215L5.57423 4.47026ZM6.04507 4.24605L6.91086 6.06416L6.91086 6.06416L6.04507 4.24605ZM6.21235 4.16885L7.03402 6.00732L7.03402 6.00732L6.21235 4.16885ZM6.68941 3.95564L5.86775 2.11717L5.86774 2.11717L6.68941 3.95564ZM7.16648 3.74242L7.98815 5.58089L7.98815 5.58089L7.16648 3.74242ZM7.33821 3.67592L7.96893 5.58833L7.96893 5.58833L7.33821 3.67592ZM7.83425 3.51232L7.20353 1.59992L7.20353 1.59992L7.83425 3.51232ZM8.3303 3.34872L8.96102 5.26113L8.96102 5.26113L8.3303 3.34872ZM8.52885 3.37313L9.40009 1.55763L9.40009 1.55763L8.52885 3.37313ZM9.15795 3.67503L8.28671 5.49053L8.28671 5.49053L9.15795 3.67503ZM9.78705 3.97693L10.6583 2.16143L10.6583 2.16143L9.78705 3.97693ZM9.97533 3.97186L11.1889 5.57885L11.1889 5.57885L9.97533 3.97186ZM10.4132 3.64123L9.19962 2.03423L9.19962 2.03423L10.4132 3.64123ZM10.851 3.3106L12.0645 4.91759L12.0645 4.91759L10.851 3.3106ZM11.0141 3.22131L11.6967 5.11582L11.6967 5.11582L11.0141 3.22131ZM11.5006 3.04601L10.818 1.15151L10.818 1.15151L11.5006 3.04601ZM11.9872 2.87071L12.6698 4.76521L12.6698 4.76521L11.9872 2.87071ZM12.1627 2.82602L12.468 4.81647L12.468 4.81647L12.1627 2.82602ZM12.6711 2.74805L12.3658 0.757592L12.3658 0.757592L12.6711 2.74805ZM13.1794 2.67008L13.4847 4.66053L13.4847 4.66053L13.1794 2.67008ZM13.3555 2.61697L14.1903 4.44948L14.1903 4.44948L13.3555 2.61697ZM13.8449 2.39397L13.0101 0.561456L13.0101 0.561456L13.8449 2.39397ZM14.3344 2.17098L15.1693 4.0035L15.1693 4.0035L14.3344 2.17098ZM14.5166 2.17471L15.3424 0.338081L15.3424 0.338079L14.5166 2.17471ZM15.0596 2.41885L14.2339 4.25549L14.2339 4.25549L15.0596 2.41885ZM15.6026 2.66299L16.4284 0.826362L16.4284 0.82636L15.6026 2.66299ZM15.7855 2.65361L16.8246 4.37855L16.8246 4.37855L15.7855 2.65361ZM16.2791 2.3563L15.24 0.631362L15.24 0.631363L16.2791 2.3563ZM16.7727 2.05899L17.8117 3.78393L17.8117 3.78393L16.7727 2.05899ZM16.9513 2.01556L17.1491 0.0115728H17.1491L16.9513 2.01556ZM17.4698 2.06675L17.2719 4.07074V4.07074L17.4698 2.06675ZM17.9883 2.11795L18.1862 0.113961H18.1862L17.9883 2.11795ZM18.1704 2.14276L18.516 0.158919L18.516 0.158919L18.1704 2.14276ZM18.6837 2.23219L18.3381 4.21604V4.21604L18.6837 2.23219ZM19.197 2.32162L19.5426 0.337779L19.5426 0.337779L19.197 2.32162ZM19.379 2.32239L19.7053 4.30951L19.7053 4.30951L19.379 2.32239ZM19.8974 2.23727L19.5712 0.250146V0.250146L19.8974 2.23727ZM20.4158 2.15215L20.7421 4.13928L20.7421 4.13928L20.4158 2.15215ZM20.593 2.19568L21.7296 0.533405L21.7296 0.533401L20.593 2.19568ZM21.0782 2.52747L19.9415 4.18975L19.9415 4.18975L21.0782 2.52747ZM21.5634 2.85926L22.7 1.19698L22.7 1.19698L21.5634 2.85926ZM21.7425 2.89319L22.2555 4.84047L22.2555 4.84047L21.7425 2.89319ZM22.2719 2.75371L21.7588 0.806427V0.806427L22.2719 2.75371ZM22.8013 2.61422L23.3144 4.5615L23.3144 4.5615L22.8013 2.61422ZM22.9818 2.61664L23.5788 0.693429L23.5788 0.693427L22.9818 2.61664ZM23.4753 2.76983L22.8784 4.69304L22.8784 4.69304L23.4753 2.76983ZM23.9689 2.92302L24.5658 0.999805L24.5658 0.999804L23.9689 2.92302ZM24.1413 2.981L24.8278 1.08789L24.8278 1.08789L24.1413 2.981ZM24.625 3.15639L23.9385 5.0495V5.0495L24.625 3.15639ZM25.1087 3.33179L25.7951 1.43868L25.7951 1.43868L25.1087 3.33179ZM25.2864 3.36258L25.2898 5.37631V5.37631L25.2864 3.36258ZM25.8102 3.3617L25.8068 1.34797V1.34797L25.8102 3.3617ZM26.334 3.36081L26.3374 5.37454H26.3374L26.334 3.36081ZM26.5151 3.37903L26.9234 1.40713L26.9234 1.40713L26.5151 3.37903ZM27.018 3.48315L26.6097 5.45505V5.45505L27.018 3.48315ZM27.5208 3.58726L27.9291 1.61536L27.9291 1.61536L27.5208 3.58726ZM27.6869 3.65916L28.8325 2.00304L28.8325 2.00303L27.6869 3.65916ZM28.1253 3.96244L26.9797 5.61856L26.9797 5.61856L28.1253 3.96244ZM28.5638 4.26572L29.7094 2.60961L29.7094 2.6096L28.5638 4.26572ZM28.7454 4.29731L29.1599 6.26792L29.1599 6.26792L28.7454 4.29731ZM29.3364 4.173L28.9219 2.20239L28.9219 2.20239L29.3364 4.173ZM29.9274 4.04869L30.3419 6.0193L30.3419 6.0193L29.9274 4.04869ZM30.1215 4.04992L30.6247 2.10007L30.6247 2.10006L30.1215 4.04992ZM30.6302 4.18119L30.127 6.13104V6.13104L30.6302 4.18119ZM31.1389 4.31245L31.642 2.3626L31.642 2.3626L31.1389 4.31245ZM31.2849 4.43165L33.0223 3.4135L33.0223 3.41348L31.2849 4.43165ZM31.6038 4.97582L29.8664 5.99397L29.8664 5.99397L31.6038 4.97582ZM31.9227 5.51999L33.6601 4.50185L33.6601 4.50183L31.9227 5.51999ZM32.0722 5.63128L32.3975 3.64401L32.3975 3.64401L32.0722 5.63128ZM32.6003 5.71775L32.2749 7.70502H32.2749L32.6003 5.71775ZM33.1284 5.80422L33.4538 3.81695L33.4538 3.81695L33.1284 5.80422ZM33.3145 5.84L33.7491 3.87374L33.7491 3.87374L33.3145 5.84ZM33.8406 5.95631L33.4059 7.92256L33.4059 7.92256L33.8406 5.95631ZM34.3667 6.07261L34.8014 4.10635V4.10635L34.3667 6.07261ZM34.5384 6.13866L35.5453 4.39477L35.5453 4.39476L34.5384 6.13866ZM34.9851 6.39662L33.9782 8.14051L33.9782 8.14051L34.9851 6.39662ZM35.4319 6.65458L36.4388 4.91069L36.4388 4.91068L35.4319 6.65458ZM35.5813 6.75747L36.8516 5.19496L36.8516 5.19495L35.5813 6.75747ZM35.9812 7.08258L34.7109 8.6451L34.7109 8.6451L35.9812 7.08258ZM36.3811 7.4077L37.6514 5.84519L37.6514 5.84518L36.3811 7.4077ZM36.5214 7.52703L37.8585 6.02124L37.8585 6.02123L36.5214 7.52703ZM36.9168 7.8781L35.5798 9.38389L35.5798 9.38389L36.9168 7.8781ZM37.3122 8.22918L38.6493 6.72341L38.6493 6.7234L37.3122 8.22918ZM37.4561 8.34809L38.6831 6.75139L38.6831 6.75138L37.4561 8.34809ZM37.876 8.67079L36.6489 10.2675V10.2675L37.876 8.67079ZM38.2959 8.9935L39.523 7.39681L39.523 7.3968L38.2959 8.9935ZM38.4655 9.05864L38.2933 11.065H38.2933L38.4655 9.05864ZM39.0063 9.10505L39.1785 7.0987H39.1785L39.0063 9.10505ZM39.5471 9.15147L39.3749 11.1578L39.3749 11.1578L39.5471 9.15147ZM39.7194 9.21373L40.8785 7.56707L40.8785 7.56706L39.7194 9.21373ZM40.1546 9.52011L38.9955 11.1668V11.1668L40.1546 9.52011ZM40.5899 9.82649L41.749 8.17983L41.749 8.17983L40.5899 9.82649ZM40.7669 9.8665L41.0466 11.8607L41.0467 11.8607L40.7669 9.8665ZM41.3347 9.78683L41.0549 7.79263L41.0549 7.79263L41.3347 9.78683ZM41.9026 9.70716L42.1824 11.7014L42.1824 11.7014L41.9026 9.70716ZM42.0921 9.70648L41.7936 11.698H41.7936L42.0921 9.70648ZM42.5981 9.78232L42.8965 7.79083V7.79083L42.5981 9.78232ZM43.1041 9.85815L42.8056 11.8496V11.8496L43.1041 9.85815ZM43.2616 9.97234L44.9295 8.844L44.9295 8.84398L43.2616 9.97234ZM43.648 10.5436L41.9801 11.6719L41.9801 11.6719L43.648 10.5436ZM44.0345 11.1149L45.7024 9.98651L45.7024 9.9865L44.0345 11.1149ZM44.1937 11.231L43.86 13.2168V13.2168L44.1937 11.231ZM44.7096 11.3177L45.0434 9.33178V9.33178L44.7096 11.3177ZM45.2255 11.4044L44.8918 13.3902V13.3902L45.2255 11.4044ZM45.4102 11.4168L45.4721 13.4296L45.4721 13.4296L45.4102 11.4168ZM45.9409 11.4005L45.8791 9.3877L45.8791 9.3877L45.9409 11.4005ZM46.4717 11.3842L46.5335 13.397H46.5335L46.4717 11.3842ZM46.6596 11.3619L47.0662 13.3341L47.0662 13.3341L46.6596 11.3619ZM47.1936 11.2518L46.787 9.27951L46.787 9.27951L47.1936 11.2518ZM47.7277 11.1417L48.1343 13.1139L48.1343 13.1139L47.7277 11.1417ZM47.9098 11.1569L48.6484 9.28349L48.6484 9.28349L47.9098 11.1569ZM48.4076 11.3531L47.669 13.2265L47.669 13.2265L48.4076 11.3531ZM48.9054 11.5494L49.644 9.67602L49.644 9.67602L48.9054 11.5494ZM49.0865 11.5327L50.0572 13.297L50.0572 13.297L49.0865 11.5327ZM49.6149 11.242L48.6441 9.47767L48.6441 9.47767L49.6149 11.242ZM50.1433 10.9512L51.1141 12.7155L51.1141 12.7155L50.1433 10.9512ZM50.3256 10.9439L51.2176 9.13848L51.2176 9.13848L50.3256 10.9439ZM50.8303 11.1932L49.9383 12.9986L49.9383 12.9986L50.8303 11.1932ZM51.3349 11.4425L52.2269 9.63713L52.2269 9.63713L51.3349 11.4425ZM51.5107 11.4381L52.4933 13.1958L52.4933 13.1958L51.5107 11.4381ZM52.0017 11.1636L51.0191 9.40584L51.0191 9.40584L52.0017 11.1636ZM52.4928 10.889L53.4754 12.6467L53.4755 12.6467L52.4928 10.889ZM52.6731 10.8708L53.2924 8.95469L53.2924 8.95469L52.6731 10.8708ZM53.2034 11.0422L52.5841 12.9584V12.9584L53.2034 11.0422ZM53.7338 11.2137L54.3531 9.29753L54.3531 9.29753L53.7338 11.2137ZM53.9084 11.1882L55.0487 12.848L55.0487 12.848L53.9084 11.1882ZM54.3676 10.8727L53.2273 9.21298L53.2273 9.21298L54.3676 10.8727ZM54.8268 10.5572L55.9672 12.217L55.9672 12.2169L54.8268 10.5572ZM55.0075 10.5343L55.6361 8.62117L55.6361 8.62117L55.0075 10.5343ZM55.5722 10.7198L54.9436 12.6329V12.6329L55.5722 10.7198ZM56.1368 10.9053L56.7654 8.99222L56.7654 8.99222L56.1368 10.9053ZM56.3108 10.8653L57.7193 12.3045L57.7193 12.3045L56.3108 10.8653ZM56.7319 10.4532L55.3233 9.01406L55.3233 9.01407L56.7319 10.4532ZM57.153 10.0411L58.5615 11.4802L58.5615 11.4802L57.153 10.0411ZM57.3359 10.0176L58.1675 8.18359L58.1675 8.18358L57.3359 10.0176ZM57.9517 10.2968L57.1201 12.1308V12.1308L57.9517 10.2968ZM58.5674 10.576L59.399 8.74198L59.399 8.74198L58.5674 10.576ZM58.7604 10.5888L59.5592 12.4374L59.5592 12.4374L58.7604 10.5888ZM59.238 10.3825L58.4392 8.53394L58.4392 8.53394L59.238 10.3825ZM59.7155 10.1761L60.5143 12.0246L60.5144 12.0246L59.7155 10.1761ZM59.8727 10.0714L61.25 11.5404L61.2501 11.5403L59.8727 10.0714ZM60.2854 9.68433L58.908 8.21535L58.908 8.21536L60.2854 9.68433ZM60.6982 9.29728L62.0756 10.7663L62.0756 10.7662L60.6982 9.29728ZM60.874 9.24789L61.2376 7.26726L61.2376 7.26726L60.874 9.24789ZM61.4576 9.35501L61.094 11.3356V11.3356L61.4576 9.35501ZM62.0411 9.46214L62.4047 7.48151L62.4047 7.48151L62.0411 9.46214ZM62.2284 9.44634L62.9952 11.3083L62.9953 11.3083L62.2284 9.44634ZM62.706 9.24964L61.9391 7.38764L61.9391 7.38764L62.706 9.24964ZM63.1836 9.05294L63.9504 10.9149L63.9505 10.9149L63.1836 9.05294ZM63.3398 8.95172L64.7069 10.4303L64.7069 10.4303L63.3398 8.95172ZM63.7474 8.57482L62.3804 7.09622L62.3804 7.09623L63.7474 8.57482ZM64.1551 8.19792L65.5222 9.67651L65.5222 9.67649L64.1551 8.19792ZM64.3255 8.13527L64.2467 10.1475V10.1475L64.3255 8.13527ZM64.8837 8.15713L64.9625 6.14495V6.14495L64.8837 8.15713ZM65.4419 8.179L65.3631 10.1912H65.3631L65.4419 8.179ZM65.6077 8.10492L67.1318 9.42106L67.1318 9.42103L65.6077 8.10492ZM65.9891 7.66326L64.465 6.34713L64.465 6.34714L65.9891 7.66326ZM66.3705 7.22159L67.8946 8.53771L67.8946 8.53769L66.3705 7.22159ZM66.5277 7.12583L66.9193 9.10112L66.9193 9.10112L66.5277 7.12583ZM67.037 7.02486L66.6454 5.04957V5.04957L67.037 7.02486ZM67.5463 6.92388L67.9379 8.89917L67.9379 8.89917L67.5463 6.92388ZM67.6573 6.90199L68.0388 8.87926L68.0388 8.87924L67.6573 6.90199ZM67.7772 6.87886L68.7814 8.62429L67.3956 4.9016L67.7772 6.87886ZM67.7251 6.90884L66.7208 5.16342L68.2969 8.83968L67.7251 6.90884ZM68.49 8.7825C69.5563 8.46669 70.1648 7.34621 69.849 6.27984C69.5332 5.21347 68.4127 4.60502 67.3463 4.92083L67.9181 6.85166L68.49 8.7825ZM2.01422 33.8831L2.59358 35.8117L2.78644 35.7538L2.20708 33.8252L1.62772 31.8966L1.43486 31.9545L2.01422 33.8831ZM2.20708 33.8252L3.66392 35.2154L4.28496 34.5646L2.82812 33.1744L1.37128 31.7842L0.750238 32.435L2.20708 33.8252ZM2.82812 33.1744L4.28497 34.5646C4.18882 34.6654 3.77783 35.0616 3.06796 35.0716L3.03944 33.0581L3.01092 31.0446C2.16542 31.0565 1.61355 31.5303 1.37127 31.7842L2.82812 33.1744ZM3.03944 33.0581L3.06798 35.0716L3.64442 35.0635L3.61588 33.0499L3.58733 31.0364L3.0109 31.0446L3.03944 33.0581ZM3.61588 33.0499L3.64441 35.0635L4.22085 35.0553L4.19231 33.0418L4.16378 31.0282L3.58734 31.0364L3.61588 33.0499ZM4.19231 33.0418L4.22087 35.0553C4.8785 35.046 5.50382 34.7513 5.92862 34.2207L4.35657 32.9622L2.78452 31.7037C2.93266 31.5187 3.13886 31.3384 3.40642 31.2088C3.67304 31.0797 3.93731 31.0314 4.16375 31.0282L4.19231 33.0418ZM4.35657 32.9622L5.92863 34.2207L6.283 33.778L4.71094 32.5195L3.13887 31.2611L2.78451 31.7037L4.35657 32.9622ZM4.71094 32.5195L6.283 33.778L6.63737 33.3353L5.06531 32.0768L3.49324 30.8184L3.13888 31.2611L4.71094 32.5195ZM5.06531 32.0768L6.63738 33.3353C6.56592 33.4246 6.47115 33.518 6.35037 33.6016L5.20452 31.9457L4.05868 30.2897C3.83565 30.444 3.64808 30.625 3.49323 30.8184L5.06531 32.0768ZM5.20452 31.9457L6.35039 33.6016L6.78492 33.3009L5.63906 31.645L4.49319 29.989L4.05866 30.2897L5.20452 31.9457ZM5.63906 31.645L6.78492 33.3009L7.21945 33.0002L6.07359 31.3443L4.92773 29.6884L4.4932 29.989L5.63906 31.645ZM6.07359 31.3443L7.21947 33.0002C6.92579 33.2034 6.59027 33.2994 6.27405 33.3035L6.24776 31.29L6.22147 29.2764C5.77527 29.2822 5.32365 29.4144 4.92772 29.6884L6.07359 31.3443ZM6.24776 31.29L6.27407 33.3035L6.82647 33.2963L6.80016 31.2827L6.77385 29.2692L6.22145 29.2764L6.24776 31.29ZM6.80016 31.2827L6.82646 33.2963L7.37886 33.2891L7.35256 31.2755L7.32625 29.262L6.77385 29.2692L6.80016 31.2827ZM7.35256 31.2755L7.37889 33.2891C7.63367 33.2857 7.90012 33.2463 8.16712 33.1582L7.536 31.2459L6.90488 29.3336C7.05727 29.2833 7.20142 29.2636 7.32623 29.262L7.35256 31.2755ZM7.536 31.2459L8.16715 33.1581L8.65428 32.9974L8.02313 31.0851L7.39199 29.1728L6.90486 29.3336L7.536 31.2459ZM8.02313 31.0851L8.65427 32.9974L9.1414 32.8366L8.51026 30.9243L7.87913 29.0121L7.392 29.1728L8.02313 31.0851ZM8.51026 30.9243L9.14142 32.8366C9.41246 32.7471 9.65464 32.6171 9.86577 32.4621L8.674 30.8389L7.48223 29.2156C7.58966 29.1368 7.72269 29.0637 7.8791 29.0121L8.51026 30.9243ZM8.674 30.8389L9.86578 32.462L10.3065 32.1385L9.11471 30.5153L7.92292 28.8921L7.48221 29.2157L8.674 30.8389ZM9.11471 30.5153L10.3065 32.1385L10.7472 31.8149L9.55542 30.1917L8.36364 28.5685L7.92293 28.8921L9.11471 30.5153ZM9.55542 30.1917L10.7472 31.8149C10.5348 31.9709 10.269 32.0848 9.97294 32.1216L9.7248 30.1232L9.47666 28.1248C9.05845 28.1768 8.67977 28.3364 8.36362 28.5685L9.55542 30.1917ZM9.7248 30.1232L9.97296 32.1216L10.4921 32.0571L10.2439 30.0588L9.99573 28.0604L9.47663 28.1248L9.7248 30.1232ZM10.2439 30.0588L10.492 32.0571L11.0111 31.9927L10.763 29.9943L10.5148 27.9959L9.99574 28.0604L10.2439 30.0588ZM10.763 29.9943L11.0112 31.9927C10.7504 32.0251 10.5224 31.9895 10.3492 31.935L10.9541 30.0143L11.559 28.0935C11.2532 27.9972 10.8977 27.9484 10.5148 27.9959L10.763 29.9943ZM10.9541 30.0143L10.3492 31.935L10.9131 32.1126L11.5181 30.1919L12.123 28.2711L11.559 28.0935L10.9541 30.0143ZM11.5181 30.1919L10.9131 32.1126L11.4771 32.2902L12.082 30.3695L12.6869 28.4488L12.123 28.2711L11.5181 30.1919ZM12.082 30.3695L11.4771 32.2902C11.8542 32.409 12.3169 32.4417 12.7954 32.287C13.2571 32.1376 13.5792 31.8638 13.7833 31.6268L12.2574 30.3128L10.7315 28.9987C10.885 28.8205 11.1526 28.5854 11.5559 28.455C11.9759 28.3191 12.3761 28.3509 12.6869 28.4488L12.082 30.3695ZM12.2574 30.3128L13.7833 31.6268L14.213 31.1278L12.6871 29.8137L11.1612 28.4997L10.7315 28.9987L12.2574 30.3128ZM12.6871 29.8137L14.213 31.1278L14.6428 30.6287L13.1169 29.3147L11.591 28.0006L11.1612 28.4997L12.6871 29.8137ZM13.1169 29.3147L14.6428 30.6287C14.5242 30.7664 14.3287 30.9472 14.0387 31.0806C13.7339 31.2208 13.3992 31.2735 13.0744 31.2391L13.2867 29.2366L13.499 27.2341C12.6248 27.1414 11.9606 27.5714 11.5909 28.0007L13.1169 29.3147ZM13.2867 29.2366L13.0744 31.2391L13.6069 31.2955L13.8192 29.293L14.0315 27.2905L13.4989 27.2341L13.2867 29.2366ZM13.8192 29.293L13.6069 31.2955L14.1395 31.352L14.3517 29.3495L14.564 27.347L14.0315 27.2905L13.8192 29.293ZM14.3517 29.3495L14.1395 31.352C14.5568 31.3962 14.969 31.3289 15.3428 31.1649L14.5337 29.3208L13.7247 27.4768C13.9811 27.3643 14.272 27.316 14.564 27.347L14.3517 29.3495ZM14.5337 29.3208L15.3428 31.1649L15.8416 30.946L15.0325 29.102L14.2234 27.2579L13.7247 27.4768L14.5337 29.3208ZM15.0325 29.102L15.8416 30.946L16.3404 30.7272L15.5313 28.8831L14.7222 27.0391L14.2234 27.2579L15.0325 29.102ZM15.5313 28.8831L16.3404 30.7272C16.099 30.8331 15.8191 30.892 15.5222 30.8774C15.2313 30.8631 14.9895 30.7817 14.8098 30.6914L15.714 28.8921L16.6183 27.0928C16.0816 26.8231 15.391 26.7456 14.7222 27.0391L15.5313 28.8831ZM15.714 28.8921L14.8098 30.6914L15.3465 30.9611L16.2507 29.1618L17.1549 27.3625L16.6182 27.0928L15.714 28.8921ZM16.2507 29.1618L15.3465 30.9611L15.8831 31.2308L16.7874 29.4315L17.6916 27.6322L17.1549 27.3625L16.2507 29.1618ZM16.7874 29.4315L15.8831 31.2308C16.2785 31.4295 16.791 31.5478 17.3543 31.4389L16.972 29.4617L16.5897 27.4846C17.0331 27.3989 17.4226 27.497 17.6916 27.6322L16.7874 29.4315ZM16.972 29.4617L17.3543 31.4389L17.8638 31.3403L17.4815 29.3632L17.0992 27.3861L16.5897 27.4846L16.972 29.4617ZM17.4815 29.3632L17.8638 31.3403L18.3733 31.2418L17.991 29.2647L17.6088 27.2876L17.0992 27.3861L17.4815 29.3632ZM17.991 29.2647L18.3733 31.2418C18.4058 31.2355 18.4386 31.2299 18.4719 31.2249L18.172 29.2336L17.8722 27.2423C17.784 27.2556 17.6962 27.2707 17.6087 27.2876L17.991 29.2647ZM18.172 29.2336L18.4719 31.2249L18.9879 31.1472L18.6881 29.1559L18.3882 27.1646L17.8722 27.2423L18.172 29.2336ZM18.6881 29.1559L18.9879 31.1472L19.504 31.0695L19.2041 29.0782L18.9043 27.0869L18.3882 27.1646L18.6881 29.1559ZM19.2041 29.0782L19.504 31.0695C19.6322 31.0502 19.758 31.0245 19.8811 30.9935L19.3881 29.041L18.895 27.0886C18.8943 27.0888 18.8974 27.0879 18.9042 27.0869L19.2041 29.0782ZM19.3881 29.041L19.8811 30.9934L20.4074 30.8605L19.9144 28.9081L19.4213 26.9557L18.895 27.0886L19.3881 29.041ZM19.9144 28.9081L20.4074 30.8605L20.9337 30.7276L20.4407 28.7752L19.9476 26.8228L19.4213 26.9557L19.9144 28.9081ZM20.4407 28.7752L20.9338 30.7276C20.5904 30.8143 20.2172 30.8027 19.8653 30.6793C19.535 30.5636 19.3116 30.3811 19.1821 30.2494L20.6176 28.8372L22.0532 27.425C21.6423 27.0074 20.8839 26.5863 19.9476 26.8228L20.4407 28.7752ZM20.6176 28.8372L19.1821 30.2494L19.6587 30.7339L21.0942 29.3216L22.5297 27.9094L22.0532 27.425L20.6176 28.8372ZM21.0942 29.3216L19.6587 30.7339L20.1352 31.2183L21.5708 29.8061L23.0063 28.3938L22.5297 27.9094L21.0942 29.3216ZM21.5708 29.8061L20.1352 31.2183C20.3915 31.4788 20.8302 31.7919 21.4501 31.8565C22.0709 31.9211 22.566 31.7045 22.8724 31.5L21.7543 29.8252L20.6362 28.1504C20.8762 27.9901 21.3076 27.7924 21.8673 27.8507C22.426 27.9089 22.8061 28.1903 23.0063 28.3938L21.5708 29.8061ZM21.7543 29.8252L22.8724 31.5L23.4357 31.1239L22.3176 29.4491L21.1995 27.7743L20.6362 28.1504L21.7543 29.8252ZM22.3176 29.4491L23.4357 31.1239L23.9991 30.7478L22.881 29.073L21.7629 27.3982L21.1995 27.7743L22.3176 29.4491ZM22.881 29.073L23.9991 30.7478C23.8226 30.8656 23.5139 31.0227 23.0948 31.0473C22.6475 31.0737 22.2499 30.9385 21.951 30.7403L23.0642 29.0622L24.1774 27.3841C23.8226 27.1488 23.3665 26.9969 22.8582 27.0268C22.378 27.0551 22.0057 27.2361 21.7629 27.3982L22.881 29.073ZM23.0642 29.0622L21.951 30.7403L22.4258 31.0552L23.539 29.3772L24.6522 27.6991L24.1774 27.3841L23.0642 29.0622ZM23.539 29.3772L22.4258 31.0552L22.9006 31.3702L24.0138 29.6922L25.127 28.0141L24.6522 27.6991L23.539 29.3772ZM24.0138 29.6922L22.9006 31.3702C23.2955 31.6322 23.7847 31.7845 24.3151 31.7519L24.1917 29.742L24.0683 27.732C24.4732 27.7072 24.8439 27.8263 25.127 28.0141L24.0138 29.6922ZM24.1917 29.742L24.3151 31.7519L24.848 31.7192L24.7246 29.7093L24.6012 27.6993L24.0683 27.732L24.1917 29.742ZM24.7246 29.7093L24.848 31.7192L25.3809 31.6865L25.2575 29.6765L25.1341 27.6666L24.6012 27.6993L24.7246 29.7093ZM25.2575 29.6765L25.3809 31.6865C25.0892 31.7044 24.787 31.6519 24.506 31.5229C24.2346 31.3982 24.043 31.2301 23.9183 31.0896L25.4248 29.7534L26.9314 28.4172C26.551 27.9883 25.925 27.618 25.1341 27.6666L25.2575 29.6765ZM25.4248 29.7534L23.9183 31.0896L24.3334 31.5576L25.84 30.2214L27.3465 28.8852L26.9314 28.4172L25.4248 29.7534ZM25.84 30.2214L24.3334 31.5576L24.7486 32.0257L26.2551 30.6895L27.7616 29.3533L27.3465 28.8852L25.84 30.2214ZM26.2551 30.6895L24.7486 32.0257C25.022 32.334 25.4525 32.6402 26.0351 32.7286C26.5921 32.8132 27.0509 32.6624 27.34 32.5176L26.4378 30.7172L25.5357 28.9169C25.7518 28.8086 26.1437 28.6715 26.6397 28.7468C27.1615 28.826 27.5371 29.1001 27.7616 29.3533L26.2551 30.6895ZM26.4378 30.7172L27.34 32.5176L27.9603 32.2067L27.0581 30.4064L26.156 28.6061L25.5356 28.9169L26.4378 30.7172ZM27.0581 30.4064L27.9603 32.2067L28.5806 31.8959L27.6785 30.0955L26.7763 28.2952L26.156 28.6061L27.0581 30.4064ZM27.6785 30.0955L28.5807 31.8959C28.4262 31.9733 28.1685 32.0714 27.8317 32.08C27.4712 32.0891 27.1128 31.9923 26.8047 31.8006L27.8684 30.0907L28.932 28.3808C28.1092 27.8689 27.2671 28.0492 26.7762 28.2952L27.6785 30.0955ZM27.8684 30.0907L26.8047 31.8006L27.2606 32.0842L28.3242 30.3743L29.3879 28.6644L28.932 28.3808L27.8684 30.0907ZM28.3242 30.3743L27.2606 32.0842L27.7164 32.3678L28.7801 30.6579L29.8438 28.948L29.3879 28.6644L28.3242 30.3743ZM28.7801 30.6579L27.7164 32.3678C27.8277 32.437 27.9433 32.5011 28.0634 32.5594L28.9431 30.748L29.8227 28.9365C29.8328 28.9414 29.8398 28.9455 29.8437 28.948L28.7801 30.6579ZM28.9431 30.748L28.0634 32.5594L28.5311 32.7865L29.4107 30.9751L30.2904 29.1636L29.8227 28.9365L28.9431 30.748ZM29.4107 30.9751L28.5311 32.7865L28.9987 33.0136L29.8784 31.2022L30.758 29.3907L30.2904 29.1636L29.4107 30.9751ZM29.8784 31.2022L28.9987 33.0136C29.1418 33.0831 29.2896 33.142 29.4416 33.19L30.0482 31.2698L30.6547 29.3496C30.6904 29.3609 30.725 29.3747 30.758 29.3907L29.8784 31.2022ZM30.0482 31.2698L29.4416 33.19L29.9361 33.3462L30.5426 31.426L31.1492 29.5058L30.6547 29.3496L30.0482 31.2698ZM30.5426 31.426L29.9361 33.3462L30.4305 33.5024L31.0371 31.5822L31.6436 29.662L31.1492 29.5058L30.5426 31.426ZM31.0371 31.5822L30.4305 33.5024C29.9927 33.3641 29.693 33.0853 29.5197 32.8311L31.1839 31.6972L32.848 30.5632C32.5954 30.1925 32.1978 29.837 31.6436 29.662L31.0371 31.5822ZM31.1839 31.6972L29.5197 32.8311L29.8572 33.3263L31.5213 32.1923L33.1854 31.0584L32.848 30.5632L31.1839 31.6972ZM31.5213 32.1923L29.8572 33.3263L30.1946 33.8215L31.8587 32.6875L33.5229 31.5536L33.1854 31.0584L31.5213 32.1923ZM31.8587 32.6875L30.1946 33.8215C30.563 34.3621 31.1807 34.7599 31.9338 34.791L32.0169 32.779L32.1 30.767C32.3658 30.778 32.6581 30.8501 32.9361 31.0109C33.2097 31.1691 33.3993 31.3723 33.5229 31.5536L31.8587 32.6875ZM32.0169 32.779L31.9338 34.791L32.4926 34.8141L32.5756 32.8021L32.6587 30.7901L32.0999 30.767L32.0169 32.779ZM32.5756 32.8021L32.4926 34.8141L33.0513 34.8372L33.1344 32.8251L33.2175 30.8131L32.6587 30.7901L32.5756 32.8021ZM33.1344 32.8251L33.0514 34.8372C32.8561 34.8291 32.6327 34.7812 32.4101 34.6694L33.3143 32.87L34.2184 31.0707C33.8875 30.9044 33.5442 30.8266 33.2175 30.8131L33.1344 32.8251ZM33.3143 32.87L32.4101 34.6694L32.8705 34.9007L33.7746 33.1014L34.6787 31.302L34.2184 31.0707L33.3143 32.87ZM33.7746 33.1014L32.8705 34.9007L33.3309 35.132L34.235 33.3327L35.1391 31.5333L34.6787 31.302L33.7746 33.1014ZM34.235 33.3327L33.3309 35.132C32.9893 34.9604 32.7625 34.7063 32.6293 34.4781L34.3685 33.4631L36.1078 32.4481C35.9049 32.1004 35.589 31.7594 35.1391 31.5333L34.235 33.3327ZM34.3685 33.4631L32.6293 34.4781L32.9256 34.9859L34.6649 33.9709L36.4041 32.9559L36.1078 32.4481L34.3685 33.4631ZM34.6649 33.9709L32.9256 34.9859L33.222 35.4936L34.9612 34.4786L36.7004 33.4637L36.4041 32.9559L34.6649 33.9709ZM34.9612 34.4786L33.2219 35.4936C33.4151 35.8246 33.7262 36.1571 34.1769 36.3675C34.6156 36.5721 35.0391 36.5924 35.3569 36.5557L35.1255 34.5553L34.894 32.5549C35.1371 32.5268 35.496 32.5386 35.8799 32.7178C36.2759 32.9025 36.5422 33.1925 36.7004 33.4637L34.9612 34.4786ZM35.1255 34.5553L35.3569 36.5557L35.9915 36.4822L35.76 34.4819L35.5285 32.4815L34.894 32.5549L35.1255 34.5553ZM35.76 34.4819L35.9915 36.4822L36.626 36.4088L36.3945 34.4084L36.163 32.4081L35.5285 32.4815L35.76 34.4819ZM36.3945 34.4084L36.626 36.4088C36.4628 36.4277 36.2396 36.4285 35.9851 36.3617C35.7217 36.2927 35.471 36.1629 35.2576 35.9779L36.5765 34.4562L37.8954 32.9345C37.3314 32.4456 36.6675 32.3497 36.163 32.4081L36.3945 34.4084ZM36.5765 34.4562L35.2576 35.9779L35.6544 36.3218L36.9733 34.8001L38.2922 33.2784L37.8954 32.9345L36.5765 34.4562ZM36.9733 34.8001L35.6544 36.3218L36.0512 36.6657L37.3701 35.144L38.689 33.6223L38.2922 33.2784L36.9733 34.8001ZM37.3701 35.144L36.0512 36.6657C36.1001 36.7081 36.1495 36.7507 36.1994 36.7936L37.5118 35.2663L38.8241 33.7389C38.7785 33.6997 38.7335 33.6609 38.689 33.6223L37.3701 35.144ZM37.5118 35.2663L36.1994 36.7936L36.6053 37.1424L37.9177 35.6151L39.2301 34.0877L38.8241 33.7389L37.5118 35.2663ZM37.9177 35.6151L36.6053 37.1424L37.0112 37.4912L38.3236 35.9638L39.636 34.4365L39.2301 34.0877L37.9177 35.6151ZM38.3236 35.9638L37.0112 37.4912C37.4238 37.8457 37.9306 38.0283 38.4432 38.0409L38.4928 36.0278L38.5424 34.0147C38.9249 34.0241 39.3189 34.164 39.636 34.4365L38.3236 35.9638ZM38.4928 36.0278L38.4432 38.0409L38.9961 38.0545L39.0457 36.0414L39.0952 34.0283L38.5424 34.0147L38.4928 36.0278ZM39.0457 36.0414L38.9961 38.0545L39.5489 38.0682L39.5985 36.055L39.6481 34.0419L39.0953 34.0283L39.0457 36.0414ZM39.5985 36.055L39.549 38.0682C39.4267 38.0652 39.2838 38.0444 39.1318 37.9926L39.7814 36.0865L40.431 34.1804C40.1653 34.0899 39.9005 34.0481 39.6481 34.0419L39.5985 36.055ZM39.7814 36.0865L39.1318 37.9926L39.6151 38.1573L40.2646 36.2512L40.9142 34.3451L40.431 34.1804L39.7814 36.0865ZM40.2646 36.2512L39.6151 38.1573L40.0983 38.322L40.7479 36.4159L41.3975 34.5098L40.9142 34.3451L40.2646 36.2512ZM40.7479 36.4159L40.0983 38.322C39.7139 38.191 39.4601 37.9574 39.3156 37.773L40.9005 36.5309L42.4855 35.2887C42.2512 34.9897 41.8956 34.6796 41.3975 34.5098L40.7479 36.4159ZM40.9005 36.5309L39.3156 37.773L39.6971 38.2599L41.2821 37.0177L42.867 35.7756L42.4855 35.2887L40.9005 36.5309ZM41.2821 37.0177L39.6971 38.2599L40.0787 38.7468L41.6636 37.5046L43.2486 36.2624L42.867 35.7756L41.2821 37.0177ZM41.6636 37.5046L40.0787 38.7468C40.3339 39.0724 40.7562 39.4156 41.3558 39.5326C41.9271 39.6441 42.4029 39.4995 42.6952 39.3625L41.8406 37.5391L40.9861 35.7157C41.2053 35.613 41.615 35.4797 42.1273 35.5797C42.6679 35.6852 43.0383 35.994 43.2486 36.2624L41.6636 37.5046ZM41.8406 37.5391L42.6952 39.3625L43.3164 39.0714L42.4618 37.248L41.6073 35.4246L40.986 35.7157L41.8406 37.5391ZM42.4618 37.248L43.3164 39.0714L43.9376 38.7802L43.0831 36.9568L42.2285 35.1334L41.6073 35.4246L42.4618 37.248ZM43.0831 36.9568L43.9377 38.7802C43.6944 38.8942 43.2594 39.0259 42.7296 38.9036C42.1884 38.7786 41.84 38.4562 41.655 38.2109L43.2627 36.9983L44.8705 35.7858C44.6388 35.4786 44.2371 35.1183 43.636 34.9794C43.0463 34.8432 42.5449 34.9851 42.2285 35.1334L43.0831 36.9568ZM43.2627 36.9983L41.655 38.2108L42.0519 38.7371L43.6597 37.5246L45.2674 36.3121L44.8705 35.7858L43.2627 36.9983ZM43.6597 37.5246L42.0519 38.7371L42.4488 39.2634L44.0566 38.0509L45.6643 36.8384L45.2674 36.3121L43.6597 37.5246ZM44.0566 38.0509L42.4488 39.2634C42.7446 39.6556 43.2754 40.0919 44.0468 40.1581L44.2188 38.1517L44.3908 36.1453C45.0393 36.2009 45.462 36.57 45.6644 36.8384L44.0566 38.0509ZM44.2188 38.1517L44.0468 40.1581L44.569 40.2028L44.741 38.1965L44.913 36.1901L44.3908 36.1453L44.2188 38.1517ZM44.741 38.1965L44.569 40.2028L45.0913 40.2476L45.2632 38.2412L45.4352 36.2348L44.913 36.1901L44.741 38.1965ZM45.2632 38.2412L45.0913 40.2476C45.6024 40.2914 46.0422 40.1593 46.3707 39.9918L45.4559 38.1979L44.541 36.404C44.7356 36.3047 45.0469 36.2016 45.4352 36.2348L45.2632 38.2412ZM45.4559 38.1979L46.3707 39.9918L46.94 39.7015L46.0252 37.9075L45.1103 36.1136L44.541 36.404L45.4559 38.1979ZM46.0252 37.9075L46.94 39.7015L47.5093 39.4111L46.5945 37.6172L45.6796 35.8233L45.1103 36.1136L46.0252 37.9075ZM46.5945 37.6172L47.5094 39.4111C47.3017 39.517 46.9376 39.6396 46.4808 39.5703L46.783 37.5793L47.0852 35.5884C46.511 35.5013 46.0212 35.6491 45.6796 35.8233L46.5945 37.6172ZM46.783 37.5793L46.4808 39.5703L46.9797 39.646L47.2819 37.655L47.5841 35.6641L47.0851 35.5884L46.783 37.5793ZM47.2819 37.655L46.9797 39.646L47.4787 39.7217L47.7808 37.7308L48.083 35.7398L47.5841 35.6641L47.2819 37.655ZM47.7808 37.7308L47.4787 39.7217C47.0753 39.6605 46.7908 39.4758 46.6294 39.3351L47.9526 37.8171L49.2758 36.2992C49.0027 36.0611 48.6037 35.8189 48.083 35.7398L47.7808 37.7308ZM47.9526 37.8171L46.6294 39.3351L47.1039 39.7488L48.4272 38.2308L49.7504 36.7128L49.2758 36.2992L47.9526 37.8171ZM48.4272 38.2308L47.1039 39.7488L47.5785 40.1624L48.9017 38.6445L50.2249 37.1265L49.7504 36.7128L48.4272 38.2308ZM48.9017 38.6445L47.5785 40.1624C48.0165 40.5443 48.7023 40.8369 49.4979 40.6672L49.0778 38.6978L48.6577 36.7283C48.9504 36.6659 49.266 36.6746 49.5711 36.7669C49.8651 36.8559 50.0818 37.0017 50.2249 37.1265L48.9017 38.6445ZM49.0778 38.6978L49.4979 40.6672L50.0211 40.5556L49.601 38.5861L49.1808 36.6167L48.6576 36.7283L49.0778 38.6978ZM49.601 38.5861L50.0211 40.5556L50.5443 40.4439L50.1242 38.4745L49.704 36.5051L49.1808 36.6167L49.601 38.5861ZM50.1242 38.4745L50.5443 40.4439C50.4778 40.4581 50.4025 40.4674 50.3204 40.4679L50.3071 38.4542L50.2937 36.4405C50.0909 36.4419 49.8936 36.4647 49.704 36.5051L50.1242 38.4745ZM50.3071 38.4542L50.3205 40.4679L50.8337 40.4645L50.8203 38.4508L50.8069 36.4371L50.2937 36.4405L50.3071 38.4542ZM50.8203 38.4508L50.8337 40.4645L51.3469 40.4611L51.3335 38.4474L51.3201 36.4337L50.8069 36.4371L50.8203 38.4508ZM51.3335 38.4474L51.3469 40.4611C51.3361 40.4612 51.3264 40.4607 51.318 40.4598L51.5152 38.4558L51.7124 36.4517C51.5824 36.4389 51.4515 36.4328 51.3201 36.4337L51.3335 38.4474ZM51.5152 38.4558L51.318 40.4598L51.8345 40.5106L52.0317 38.5066L52.2289 36.5025L51.7124 36.4517L51.5152 38.4558ZM52.0317 38.5066L51.8345 40.5106L52.351 40.5615L52.5482 38.5574L52.7454 36.5534L52.2289 36.5025L52.0317 38.5066ZM52.5482 38.5574L52.351 40.5615C52.4774 40.5739 52.6042 40.5801 52.7309 40.5801L52.7313 38.5664L52.7316 36.5527C52.7358 36.5527 52.7404 36.5529 52.7453 36.5534L52.5482 38.5574ZM52.7313 38.5664L52.731 40.5801L53.2519 40.5802L53.2522 38.5665L53.2525 36.5527L52.7315 36.5527L52.7313 38.5664ZM53.2522 38.5665L53.2519 40.5802L53.7728 40.5803L53.7731 38.5665L53.7734 36.5528L53.2525 36.5527L53.2522 38.5665ZM53.7731 38.5665L53.7728 40.5803C53.8353 40.5803 53.8983 40.5802 53.9617 40.5801L53.9583 38.5664L53.955 36.5527C53.894 36.5528 53.8334 36.5528 53.7734 36.5528L53.7731 38.5665ZM53.9583 38.5664L53.9617 40.5801L54.4905 40.5792L54.4871 38.5655L54.4837 36.5518L53.955 36.5527L53.9583 38.5664ZM54.4871 38.5655L54.4905 40.5792L55.0192 40.5784L55.0159 38.5646L55.0125 36.5509L54.4837 36.5518L54.4871 38.5655ZM55.0159 38.5646L55.0193 40.5784C55.709 40.5772 56.2608 40.2664 56.6233 39.8965L55.185 38.4871L53.7467 37.0777C53.8658 36.9561 54.0365 36.8197 54.2656 36.7146C54.5005 36.6069 54.756 36.5513 55.0125 36.5509L55.0159 38.5646ZM55.185 38.4871L56.6234 39.8964L57.053 39.458L55.6146 38.0486L54.1763 36.6393L53.7467 37.0778L55.185 38.4871ZM55.6146 38.0486L57.053 39.458L57.4826 39.0195L56.0443 37.6101L54.6059 36.2008L54.1763 36.6393L55.6146 38.0486ZM56.0443 37.6101L57.4827 39.0195C57.2372 39.27 56.8232 39.5244 56.279 39.5423L56.2125 37.5297L56.146 35.5171C55.4786 35.5391 54.9524 35.8471 54.6059 36.2008L56.0443 37.6101ZM56.2125 37.5297L56.279 39.5423L56.8027 39.525L56.7362 37.5124L56.6697 35.4998L56.146 35.5171L56.2125 37.5297ZM56.7362 37.5124L56.8027 39.525L57.3263 39.5077L57.2598 37.4951L57.1933 35.4825L56.6697 35.4998L56.7362 37.5124ZM57.2598 37.4951L57.3263 39.5077C57.8581 39.4901 58.3403 39.2908 58.718 38.975L57.4263 37.4301L56.1346 35.8852C56.4135 35.652 56.7848 35.496 57.1933 35.4825L57.2598 37.4951ZM57.4263 37.4301L58.718 38.975L59.1378 38.624L57.8461 37.0791L56.5543 35.5343L56.1346 35.8853L57.4263 37.4301ZM57.8461 37.0791L59.1378 38.624L59.5575 38.273L58.2658 36.7281L56.9741 35.1833L56.5543 35.5343L57.8461 37.0791ZM58.2658 36.7281L59.5576 38.273C59.3678 38.4317 59.1297 38.563 58.8531 38.6348C58.5803 38.7057 58.3294 38.7034 58.127 38.6713L58.442 36.6824L58.757 34.6934C58.1604 34.5989 57.5043 34.7399 56.9741 35.1833L58.2658 36.7281ZM58.442 36.6824L58.127 38.6713L58.7056 38.763L59.0207 36.774L59.3357 34.7851L58.757 34.6934L58.442 36.6824ZM59.0207 36.774L58.7056 38.763L59.2843 38.8546L59.5993 36.8657L59.9143 34.8767L59.3357 34.7851L59.0207 36.774ZM59.5993 36.8657L59.2843 38.8546C59.7508 38.9285 60.2946 38.8692 60.8012 38.5713L59.7804 36.8354L58.7597 35.0996C59.1609 34.8636 59.5839 34.8244 59.9143 34.8767L59.5993 36.8657ZM59.7804 36.8354L60.8012 38.5712L61.2488 38.308L60.2281 36.5722L59.2073 34.8363L58.7596 35.0996L59.7804 36.8354ZM60.2281 36.5722L61.2488 38.308L61.6965 38.0448L60.6757 36.3089L59.6549 34.5731L59.2073 34.8363L60.2281 36.5722ZM60.6757 36.3089L61.6965 38.0447C61.694 38.0462 61.6904 38.0482 61.6857 38.0503L60.8368 36.2243L59.9879 34.3983C59.8737 34.4513 59.7627 34.5097 59.6549 34.5731L60.6757 36.3089ZM60.8368 36.2243L61.6858 38.0503L62.1511 37.834L61.3021 36.008L60.4531 34.1819L59.9878 34.3983L60.8368 36.2243ZM61.3021 36.008L62.151 37.834L62.6163 37.6177L61.7674 35.7916L60.9185 33.9656L60.4532 34.1819L61.3021 36.008ZM61.7674 35.7916L62.6164 37.6177C62.8312 37.5178 63.028 37.3921 63.2049 37.2457L61.921 35.6943L60.6372 34.1429C60.7187 34.0754 60.8131 34.0146 60.9184 33.9656L61.7674 35.7916ZM61.921 35.6943L63.2049 37.2457L63.6103 36.9102L62.3264 35.3588L61.0425 33.8074L60.6372 34.1429L61.921 35.6943ZM62.3264 35.3588L63.6103 36.9102L64.0156 36.5748L62.7317 35.0234L61.4479 33.472L61.0425 33.8074L62.3264 35.3588ZM62.7317 35.0234L64.0156 36.5747C63.9081 36.6637 63.7821 36.7406 63.6415 36.7974L62.8872 34.9303L62.133 33.0631C61.8805 33.1651 61.6508 33.3041 61.4479 33.472L62.7317 35.0234ZM62.8872 34.9303L63.6415 36.7974L64.1173 36.6052L63.3631 34.738L62.6088 32.8709L62.133 33.0631L62.8872 34.9303ZM63.3631 34.738L64.1173 36.6052L64.5931 36.413L63.8389 34.5458L63.0846 32.6787L62.6088 32.8709L63.3631 34.738ZM63.8389 34.5458L64.5932 36.413C64.6595 36.3862 64.7256 36.3588 64.7915 36.3309L64.0065 34.4765L63.2215 32.6221C63.1759 32.6414 63.1303 32.6603 63.0846 32.6787L63.8389 34.5458ZM64.0065 34.4765L64.7915 36.3309L65.2656 36.1302L64.4806 34.2758L63.6955 32.4214L63.2215 32.6221L64.0065 34.4765ZM64.4806 34.2758L65.2656 36.1302L65.7397 35.9295L64.9546 34.0751L64.1696 32.2207L63.6955 32.4214L64.4806 34.2758ZM64.9546 34.0751L65.7397 35.9295C65.8331 35.8899 65.9253 35.8476 66.0162 35.8024L65.1195 33.9993L64.2228 32.1962C64.2054 32.2049 64.1877 32.2131 64.1696 32.2207L64.9546 34.0751ZM65.1195 33.9993L66.0162 35.8023L66.4765 35.5734L65.5798 33.7704L64.683 31.9674L64.2228 32.1963L65.1195 33.9993ZM65.5798 33.7704L66.4765 35.5734L66.9368 35.3445L66.04 33.5415L65.1433 31.7384L64.683 31.9673L65.5798 33.7704ZM66.04 33.5415L66.9368 35.3445C67.1379 35.2445 67.324 35.1213 67.493 34.9782L66.1913 33.4417L64.8896 31.9053C64.9652 31.8413 65.0504 31.7846 65.1433 31.7385L66.04 33.5415ZM66.1913 33.4417L67.493 34.9782L67.89 34.6419L66.5882 33.1054L65.2865 31.569L64.8896 31.9053L66.1913 33.4417ZM66.5882 33.1054L67.8899 34.6419L68.2869 34.3056L66.9852 32.7691L65.6835 31.2327L65.2865 31.569L66.5882 33.1054ZM66.9852 32.7691L68.2869 34.3056C68.3542 34.2486 68.4259 34.1854 68.496 34.1183L67.1036 32.6635L65.7112 31.2087C65.7148 31.2053 65.7145 31.2057 65.7092 31.2104C65.7041 31.215 65.6957 31.2224 65.6834 31.2327L66.9852 32.7691ZM67.1036 32.6635L68.496 34.1183L68.77 33.856L67.3775 32.4013L65.9851 30.9466L65.7112 31.2088L67.1036 32.6635ZM67.3775 32.4013L68.7699 33.8561L69.0439 33.5938L67.6515 32.1391L66.2591 30.6843L65.9851 30.9466L67.3775 32.4013ZM67.6515 32.1391L69.0439 33.5938C69.0133 33.6231 68.7399 33.8984 68.2728 34.0392C67.9963 34.1225 67.5479 34.1886 67.042 34.0119C66.5181 33.8289 66.1839 33.4738 65.9983 33.1703L67.7162 32.1196L69.4341 31.0689C69.243 30.7565 68.9021 30.3955 68.37 30.2097C67.856 30.0301 67.3981 30.0964 67.1108 30.183C66.6222 30.3302 66.3219 30.6242 66.259 30.6844L67.6515 32.1391ZM67.7162 32.1196L65.9983 33.1702L66.091 33.3219L67.809 32.2713L69.5269 31.2207L69.4341 31.069L67.7162 32.1196ZM67.809 32.2713L65.8835 31.6817L65.8058 31.9354L67.7313 32.5249L69.6568 33.1145L69.7345 32.8609L67.809 32.2713ZM67.7313 32.5249L68.483 34.3931L68.6698 34.318L67.9181 32.4498L67.1664 30.5816L66.9796 30.6568L67.7313 32.5249ZM2.01422 6.85166L2.59358 8.78025L2.78644 8.72231L2.20708 6.79373L1.62772 4.86514L1.43486 4.92307L2.01422 6.85166ZM2.20708 6.79373L2.93195 8.67247L3.74207 8.3599L3.01721 6.48116L2.29234 4.60241L1.48222 4.91498L2.20708 6.79373ZM3.01721 6.48116L3.74208 8.3599C3.92718 8.28848 4.2341 8.15409 4.52723 7.90749L3.23087 6.36653L1.9345 4.82557C2.04436 4.73315 2.13876 4.67798 2.19007 4.65045C2.24414 4.62145 2.28145 4.60662 2.29234 4.60241L3.01721 6.48116ZM3.23087 6.36653L4.52723 7.90748L4.92783 7.57047L3.63146 6.02952L2.3351 4.48856L1.9345 4.82557L3.23087 6.36653ZM3.63146 6.02952L4.92783 7.57047L5.32842 7.23346L4.03206 5.69251L2.73569 4.15155L2.3351 4.48856L3.63146 6.02952ZM4.03206 5.69251L5.32842 7.23346C5.4161 7.15971 5.5002 7.08305 5.58087 7.00401L4.17157 5.56561L2.76227 4.12721C2.75118 4.13807 2.74227 4.14601 2.73569 4.15155L4.03206 5.69251ZM4.17157 5.56561L5.58087 7.00401L5.97083 6.62193L4.56153 5.18354L3.15223 3.74514L2.76227 4.12721L4.17157 5.56561ZM4.56153 5.18354L5.97083 6.62193L6.36079 6.23986L4.95149 4.80146L3.54219 3.36307L3.15223 3.74514L4.56153 5.18354ZM4.95149 4.80146L6.36079 6.23986C6.25524 6.34328 6.12398 6.43887 5.96918 6.51258L5.1034 4.69447L4.23761 2.87636C3.97203 3.00283 3.7395 3.16975 3.54219 3.36307L4.95149 4.80146ZM5.1034 4.69447L5.96918 6.51258L6.44002 6.28837L5.57423 4.47026L4.70845 2.65215L4.23761 2.87636L5.1034 4.69447ZM5.57423 4.47026L6.44002 6.28837L6.91086 6.06416L6.04507 4.24605L5.17929 2.42793L4.70845 2.65215L5.57423 4.47026ZM6.04507 4.24605L6.91086 6.06416C6.9516 6.04476 6.99265 6.02581 7.03402 6.00732L6.21235 4.16885L5.39068 2.33038C5.3198 2.36206 5.24933 2.39458 5.17928 2.42794L6.04507 4.24605ZM6.21235 4.16885L7.03402 6.00732L7.51109 5.7941L6.68941 3.95564L5.86774 2.11717L5.39068 2.33038L6.21235 4.16885ZM6.68941 3.95564L7.51108 5.79411L7.98815 5.58089L7.16648 3.74242L6.34481 1.90395L5.86775 2.11717L6.68941 3.95564ZM7.16648 3.74242L7.98815 5.58089C7.98195 5.58366 7.97546 5.58618 7.96893 5.58833L7.33821 3.67592L6.70748 1.76352C6.58424 1.80416 6.46326 1.85101 6.34481 1.90395L7.16648 3.74242ZM7.33821 3.67592L7.96893 5.58833L8.46498 5.42473L7.83425 3.51232L7.20353 1.59992L6.70748 1.76352L7.33821 3.67592ZM7.83425 3.51232L8.46498 5.42473L8.96102 5.26113L8.3303 3.34872L7.69957 1.43632L7.20353 1.59992L7.83425 3.51232ZM8.3303 3.34872L8.96102 5.26113C8.37743 5.4536 7.89111 5.30069 7.65761 5.18863L8.52885 3.37313L9.40009 1.55763C9.01857 1.37454 8.39988 1.20535 7.69957 1.43632L8.3303 3.34872ZM8.52885 3.37313L7.65761 5.18863L8.28671 5.49053L9.15795 3.67503L10.0292 1.85953L9.40009 1.55763L8.52885 3.37313ZM9.15795 3.67503L8.28671 5.49053L8.91581 5.79243L9.78705 3.97693L10.6583 2.16143L10.0292 1.85953L9.15795 3.67503ZM9.78705 3.97693L8.91581 5.79243C9.45068 6.04911 10.3647 6.20126 11.1889 5.57885L9.97533 3.97186L8.76179 2.36486C9.06072 2.13913 9.43509 2.00008 9.83542 1.9893C10.2068 1.9793 10.4924 2.08183 10.6583 2.16143L9.78705 3.97693ZM9.97533 3.97186L11.1889 5.57885L11.6267 5.24822L10.4132 3.64123L9.19962 2.03423L8.76179 2.36486L9.97533 3.97186ZM10.4132 3.64123L11.6267 5.24822L12.0645 4.91759L10.851 3.3106L9.63745 1.7036L9.19962 2.03423L10.4132 3.64123ZM10.851 3.3106L12.0645 4.91759C11.9644 4.99322 11.8412 5.06376 11.6967 5.11582L11.0141 3.22131L10.3315 1.32681C10.0726 1.42011 9.84062 1.55017 9.63744 1.7036L10.851 3.3106ZM11.0141 3.22131L11.6967 5.11582L12.1833 4.94051L11.5006 3.04601L10.818 1.15151L10.3315 1.32681L11.0141 3.22131ZM11.5006 3.04601L12.1833 4.94051L12.6698 4.76521L11.9872 2.87071L11.3045 0.976207L10.818 1.15151L11.5006 3.04601ZM11.9872 2.87071L12.6698 4.76521C12.6053 4.78844 12.5375 4.80581 12.468 4.81647L12.1627 2.82602L11.8574 0.835561C11.6683 0.864566 11.4835 0.911734 11.3045 0.976208L11.9872 2.87071ZM12.1627 2.82602L12.468 4.81647L12.9764 4.7385L12.6711 2.74805L12.3658 0.757592L11.8574 0.835562L12.1627 2.82602ZM12.6711 2.74805L12.9764 4.7385L13.4847 4.66053L13.1794 2.67008L12.8741 0.679623L12.3658 0.757592L12.6711 2.74805ZM13.1794 2.67008L13.4847 4.66053C13.7357 4.62204 13.9721 4.54892 14.1903 4.44948L13.3555 2.61697L12.5206 0.784446C12.6237 0.73748 12.7427 0.699771 12.8741 0.679623L13.1794 2.67008ZM13.3555 2.61697L14.1903 4.44948L14.6798 4.22649L13.8449 2.39397L13.0101 0.561456L12.5206 0.784448L13.3555 2.61697ZM13.8449 2.39397L14.6798 4.22649L15.1693 4.0035L14.3344 2.17098L13.4996 0.338464L13.0101 0.561456L13.8449 2.39397ZM14.3344 2.17098L15.1693 4.0035C14.9351 4.11021 14.6661 4.17137 14.3819 4.16555C14.1033 4.15984 13.8684 4.09117 13.6908 4.01135L14.5166 2.17471L15.3424 0.338079C14.8134 0.100251 14.1443 0.0447175 13.4995 0.338466L14.3344 2.17098ZM14.5166 2.17471L13.6908 4.01135L14.2339 4.25549L15.0596 2.41885L15.8854 0.582221L15.3424 0.338081L14.5166 2.17471ZM15.0596 2.41885L14.2339 4.25549L14.7769 4.49963L15.6026 2.66299L16.4284 0.82636L15.8854 0.58222L15.0596 2.41885ZM15.6026 2.66299L14.7769 4.49963C15.4192 4.78842 16.1788 4.76759 16.8246 4.37855L15.7855 2.65361L14.7465 0.92867C14.9693 0.794446 15.2576 0.688313 15.5931 0.671104C15.9258 0.654038 16.212 0.729088 16.4284 0.826362L15.6026 2.66299ZM15.7855 2.65361L16.8246 4.37855L17.3182 4.08124L16.2791 2.3563L15.24 0.631363L14.7465 0.928672L15.7855 2.65361ZM16.2791 2.3563L17.3182 4.08124L17.8117 3.78393L16.7727 2.05899L15.7336 0.334052L15.24 0.631362L16.2791 2.3563ZM16.7727 2.05899L17.8117 3.78393C17.5397 3.94781 17.1697 4.06065 16.7534 4.01955L16.9513 2.01556L17.1491 0.0115728C16.6108 -0.0415762 16.1217 0.10022 15.7336 0.334055L16.7727 2.05899ZM16.9513 2.01556L16.7534 4.01955L17.2719 4.07074L17.4698 2.06675L17.6676 0.0627668L17.1491 0.0115728L16.9513 2.01556ZM17.4698 2.06675L17.2719 4.07074L17.7905 4.12194L17.9883 2.11795L18.1862 0.113961L17.6676 0.0627668L17.4698 2.06675ZM17.9883 2.11795L17.7905 4.12194C17.802 4.12307 17.8134 4.12463 17.8248 4.12661L18.1704 2.14276L18.516 0.158919C18.4067 0.13986 18.2967 0.12487 18.1862 0.113961L17.9883 2.11795ZM18.1704 2.14276L17.8248 4.12661L18.3381 4.21604L18.6837 2.23219L19.0293 0.248349L18.516 0.158919L18.1704 2.14276ZM18.6837 2.23219L18.3381 4.21604L18.8513 4.30547L19.197 2.32162L19.5426 0.337779L19.0293 0.248349L18.6837 2.23219ZM19.197 2.32162L18.8513 4.30547C19.1358 4.35503 19.4236 4.35576 19.7053 4.30951L19.379 2.32239L19.0528 0.335261C19.2125 0.30904 19.3789 0.30926 19.5426 0.337779L19.197 2.32162ZM19.379 2.32239L19.7053 4.30951L20.2237 4.22439L19.8974 2.23727L19.5712 0.250146L19.0528 0.335262L19.379 2.32239ZM19.8974 2.23727L20.2237 4.22439L20.7421 4.13928L20.4158 2.15215L20.0896 0.16503L19.5712 0.250146L19.8974 2.23727ZM20.4158 2.15215L20.7421 4.13928C20.5089 4.17758 20.2643 4.16981 20.0252 4.11106C19.7904 4.05333 19.6 3.95619 19.4563 3.85797L20.593 2.19568L21.7296 0.533401C21.3 0.239682 20.7242 0.0608248 20.0896 0.16503L20.4158 2.15215ZM20.593 2.19568L19.4563 3.85796L19.9415 4.18975L21.0782 2.52747L22.2148 0.865192L21.7296 0.533405L20.593 2.19568ZM21.0782 2.52747L19.9415 4.18975L20.4268 4.52154L21.5634 2.85926L22.7 1.19698L22.2148 0.865191L21.0782 2.52747ZM21.5634 2.85926L20.4268 4.52153C20.9261 4.86296 21.5825 5.01778 22.2555 4.84047L21.7425 2.89319L21.2294 0.945912C21.4704 0.882427 21.7435 0.864976 22.026 0.918506C22.3044 0.971278 22.5309 1.08131 22.7 1.19698L21.5634 2.85926ZM21.7425 2.89319L22.2555 4.84047L22.7849 4.70099L22.2719 2.75371L21.7588 0.806427L21.2294 0.945913L21.7425 2.89319ZM22.2719 2.75371L22.7849 4.70099L23.3144 4.5615L22.8013 2.61422L22.2883 0.666941L21.7588 0.806427L22.2719 2.75371ZM22.8013 2.61422L23.3144 4.5615C23.0344 4.63526 22.709 4.64047 22.3849 4.53985L22.9818 2.61664L23.5788 0.693427C23.1385 0.556766 22.6928 0.560361 22.2883 0.666943L22.8013 2.61422ZM22.9818 2.61664L22.3849 4.53985L22.8784 4.69304L23.4753 2.76983L24.0723 0.846616L23.5788 0.693429L22.9818 2.61664ZM23.4753 2.76983L22.8784 4.69304L23.3719 4.84623L23.9689 2.92302L24.5658 0.999804L24.0723 0.846616L23.4753 2.76983ZM23.9689 2.92302L23.3719 4.84623C23.4 4.85495 23.4276 4.86425 23.4548 4.87411L24.1413 2.981L24.8278 1.08789C24.7412 1.05648 24.6538 1.02712 24.5658 0.999805L23.9689 2.92302ZM24.1413 2.981L23.4548 4.87411L23.9385 5.0495L24.625 3.15639L25.3115 1.26329L24.8278 1.08789L24.1413 2.981ZM24.625 3.15639L23.9385 5.0495L24.4222 5.22489L25.1087 3.33179L25.7951 1.43868L25.3115 1.26329L24.625 3.15639ZM25.1087 3.33179L24.4222 5.22489C24.7043 5.32718 24.9973 5.3768 25.2898 5.37631L25.2864 3.36258L25.283 1.34885C25.4524 1.34857 25.6269 1.37766 25.7951 1.43868L25.1087 3.33179ZM25.2864 3.36258L25.2898 5.37631L25.8136 5.37543L25.8102 3.3617L25.8068 1.34797L25.283 1.34885L25.2864 3.36258ZM25.8102 3.3617L25.8136 5.37543L26.3374 5.37454L26.334 3.36081L26.3306 1.34709L25.8068 1.34797L25.8102 3.3617ZM26.334 3.36081L26.3374 5.37454C26.2634 5.37467 26.1858 5.36728 26.1068 5.35093L26.5151 3.37903L26.9234 1.40713C26.7262 1.36628 26.5277 1.34675 26.3306 1.34709L26.334 3.36081ZM26.5151 3.37903L26.1068 5.35093L26.6097 5.45505L27.018 3.48315L27.4263 1.51124L26.9234 1.40713L26.5151 3.37903ZM27.018 3.48315L26.6097 5.45505L27.1125 5.55917L27.5208 3.58726L27.9291 1.61536L27.4263 1.51124L27.018 3.48315ZM27.5208 3.58726L27.1125 5.55916C26.8971 5.51456 26.7032 5.42724 26.5413 5.31528L27.6869 3.65916L28.8325 2.00303C28.5675 1.81972 28.2628 1.68446 27.9291 1.61536L27.5208 3.58726ZM27.6869 3.65916L26.5413 5.31528L26.9797 5.61856L28.1253 3.96244L29.2709 2.30632L28.8325 2.00304L27.6869 3.65916ZM28.1253 3.96244L26.9797 5.61856L27.4182 5.92184L28.5638 4.26572L29.7094 2.6096L29.2709 2.30632L28.1253 3.96244ZM28.5638 4.26572L27.4182 5.92184C27.9869 6.31526 28.6282 6.37975 29.1599 6.26792L28.7454 4.29731L28.331 2.32669C28.5077 2.28952 28.7353 2.27164 28.9928 2.31641C29.256 2.36217 29.5002 2.46494 29.7094 2.60961L28.5638 4.26572ZM28.7454 4.29731L29.1599 6.26792L29.7509 6.14361L29.3364 4.173L28.9219 2.20239L28.3309 2.32669L28.7454 4.29731ZM29.3364 4.173L29.7509 6.14361L30.3419 6.0193L29.9274 4.04869L29.513 2.07808L28.9219 2.20239L29.3364 4.173ZM29.9274 4.04869L30.3419 6.0193C30.1535 6.05893 29.9007 6.07263 29.6183 5.99977L30.1215 4.04992L30.6247 2.10006C30.2226 1.99632 29.8404 2.0092 29.5129 2.07808L29.9274 4.04869ZM30.1215 4.04992L29.6183 5.99977L30.127 6.13104L30.6302 4.18119L31.1333 2.23133L30.6247 2.10007L30.1215 4.04992ZM30.6302 4.18119L30.127 6.13104L30.6357 6.26231L31.1389 4.31245L31.642 2.3626L31.1333 2.23133L30.6302 4.18119ZM31.1389 4.31245L30.6357 6.26231C30.0747 6.11755 29.7228 5.74887 29.5475 5.44981L31.2849 4.43165L33.0223 3.41348C32.772 2.98639 32.3227 2.53825 31.642 2.3626L31.1389 4.31245ZM31.2849 4.43165L29.5475 5.4498L29.8664 5.99397L31.6038 4.97582L33.3412 3.95767L33.0223 3.4135L31.2849 4.43165ZM31.6038 4.97582L29.8664 5.99397L30.1853 6.53814L31.9227 5.51999L33.6601 4.50183L33.3412 3.95766L31.6038 4.97582ZM31.9227 5.51999L30.1853 6.53813C30.4658 7.01669 30.9852 7.49385 31.7468 7.61855L32.0722 5.63128L32.3975 3.64401C32.6799 3.69024 32.9536 3.80406 33.1908 3.98061C33.4202 4.15139 33.5684 4.34544 33.6601 4.50185L31.9227 5.51999ZM32.0722 5.63128L31.7468 7.61855L32.2749 7.70502L32.6003 5.71775L32.9257 3.73048L32.3975 3.64401L32.0722 5.63128ZM32.6003 5.71775L32.2749 7.70502L32.803 7.79149L33.1284 5.80422L33.4538 3.81695L32.9257 3.73048L32.6003 5.71775ZM33.1284 5.80422L32.803 7.79149C32.8283 7.79562 32.8539 7.80053 32.8798 7.80626L33.3145 5.84L33.7491 3.87374C33.6513 3.8521 33.5528 3.83315 33.4538 3.81695L33.1284 5.80422ZM33.3145 5.84L32.8798 7.80626L33.4059 7.92256L33.8406 5.95631L34.2753 3.99005L33.7491 3.87374L33.3145 5.84ZM33.8406 5.95631L33.4059 7.92256L33.932 8.03887L34.3667 6.07261L34.8014 4.10635L34.2753 3.99005L33.8406 5.95631ZM34.3667 6.07261L33.932 8.03887C33.8019 8.01011 33.665 7.95965 33.5314 7.88256L34.5384 6.13866L35.5453 4.39476C35.3067 4.25697 35.0553 4.16248 34.8014 4.10635L34.3667 6.07261ZM34.5384 6.13866L33.5314 7.88255L33.9782 8.14051L34.9851 6.39662L35.9921 4.65272L35.5453 4.39477L34.5384 6.13866ZM34.9851 6.39662L33.9782 8.14051L34.4249 8.39847L35.4319 6.65458L36.4388 4.91068L35.9921 4.65272L34.9851 6.39662ZM35.4319 6.65458L34.4249 8.39847C34.3851 8.37548 34.3469 8.34915 34.311 8.31999L35.5813 6.75747L36.8516 5.19495C36.7216 5.0893 36.5838 4.99436 36.4388 4.91069L35.4319 6.65458ZM35.5813 6.75747L34.311 8.31998L34.7109 8.6451L35.9812 7.08258L37.2515 5.52007L36.8516 5.19496L35.5813 6.75747ZM35.9812 7.08258L34.7109 8.6451L35.1108 8.97021L36.3811 7.4077L37.6514 5.84518L37.2515 5.52007L35.9812 7.08258ZM36.3811 7.4077L35.1108 8.9702C35.1346 8.98956 35.1591 9.0104 35.1844 9.03282L36.5214 7.52703L37.8585 6.02123C37.7907 5.96104 37.7217 5.90233 37.6514 5.84519L36.3811 7.4077ZM36.5214 7.52703L35.1844 9.03281L35.5798 9.38389L36.9168 7.8781L38.2539 6.37232L37.8585 6.02124L36.5214 7.52703ZM36.9168 7.8781L35.5798 9.38389L35.9751 9.73497L37.3122 8.22918L38.6493 6.7234L38.2539 6.37232L36.9168 7.8781ZM37.3122 8.22918L35.9751 9.73496C36.0573 9.80791 36.1419 9.87787 36.229 9.94479L37.4561 8.34809L38.6831 6.75138C38.6714 6.74237 38.6601 6.73306 38.6493 6.72341L37.3122 8.22918ZM37.4561 8.34809L36.229 9.94478L36.6489 10.2675L37.876 8.67079L39.103 7.0741L38.6831 6.75139L37.4561 8.34809ZM37.876 8.67079L36.6489 10.2675L37.0689 10.5902L38.2959 8.9935L39.523 7.3968L39.103 7.0741L37.876 8.67079ZM38.2959 8.9935L37.0688 10.5902C37.4315 10.8689 37.8562 11.0275 38.2933 11.065L38.4655 9.05864L38.6376 7.05228C38.9474 7.07887 39.2592 7.19407 39.523 7.39681L38.2959 8.9935ZM38.4655 9.05864L38.2933 11.065L38.8341 11.1114L39.0063 9.10505L39.1785 7.0987L38.6376 7.05228L38.4655 9.05864ZM39.0063 9.10505L38.8341 11.1114L39.3749 11.1578L39.5471 9.15147L39.7193 7.14511L39.1785 7.0987L39.0063 9.10505ZM39.5471 9.15147L39.3749 11.1578C39.0909 11.1334 38.8064 11.0337 38.5602 10.8604L39.7194 9.21373L40.8785 7.56706C40.5299 7.32169 40.1306 7.1804 39.7193 7.14511L39.5471 9.15147ZM39.7194 9.21373L38.5602 10.8604L38.9955 11.1668L40.1546 9.52011L41.3138 7.87345L40.8785 7.56707L39.7194 9.21373ZM40.1546 9.52011L38.9955 11.1668L39.4307 11.4732L40.5899 9.82649L41.749 8.17983L41.3138 7.87345L40.1546 9.52011ZM40.5899 9.82649L39.4307 11.4731C39.9341 11.8275 40.5163 11.9351 41.0466 11.8607L40.7669 9.8665L40.4871 7.8723C40.6671 7.84704 40.8827 7.84651 41.1164 7.89934C41.3529 7.95277 41.567 8.05169 41.749 8.17983L40.5899 9.82649ZM40.7669 9.8665L41.0467 11.8607L41.6145 11.781L41.3347 9.78683L41.0549 7.79263L40.4871 7.8723L40.7669 9.8665ZM41.3347 9.78683L41.6145 11.781L42.1824 11.7014L41.9026 9.70716L41.6228 7.71296L41.0549 7.79263L41.3347 9.78683ZM41.9026 9.70716L42.1824 11.7014C42.0801 11.7157 41.9472 11.721 41.7936 11.698L42.0921 9.70648L42.3906 7.71499C42.1179 7.67413 41.8587 7.67987 41.6228 7.71296L41.9026 9.70716ZM42.0921 9.70648L41.7936 11.698L42.2996 11.7738L42.5981 9.78232L42.8965 7.79083L42.3906 7.71499L42.0921 9.70648ZM42.5981 9.78232L42.2996 11.7738L42.8056 11.8496L43.1041 9.85815L43.4025 7.86666L42.8965 7.79083L42.5981 9.78232ZM43.1041 9.85815L42.8056 11.8496C42.1337 11.7489 41.7493 11.3307 41.5937 11.1007L43.2616 9.97234L44.9295 8.84398C44.6829 8.47953 44.1935 7.98521 43.4025 7.86666L43.1041 9.85815ZM43.2616 9.97234L41.5936 11.1007L41.9801 11.6719L43.648 10.5436L45.3159 9.41525L44.9295 8.844L43.2616 9.97234ZM43.648 10.5436L41.9801 11.6719L42.3666 12.2432L44.0345 11.1149L45.7024 9.9865L45.3159 9.41524L43.648 10.5436ZM44.0345 11.1149L42.3666 12.2432C42.618 12.6149 43.0984 13.0889 43.86 13.2168L44.1937 11.231L44.5275 9.24508C45.1676 9.35266 45.5419 9.74923 45.7024 9.98651L44.0345 11.1149ZM44.1937 11.231L43.86 13.2168L44.3759 13.3035L44.7096 11.3177L45.0434 9.33178L44.5275 9.24508L44.1937 11.231ZM44.7096 11.3177L44.3759 13.3035L44.8918 13.3902L45.2255 11.4044L45.5593 9.41848L45.0434 9.33178L44.7096 11.3177ZM45.2255 11.4044L44.8918 13.3902C45.0851 13.4227 45.2792 13.4355 45.4721 13.4296L45.4102 11.4168L45.3484 9.40401C45.4164 9.40192 45.4874 9.4064 45.5593 9.41848L45.2255 11.4044ZM45.4102 11.4168L45.4721 13.4296L46.0028 13.4133L45.9409 11.4005L45.8791 9.3877L45.3484 9.40401L45.4102 11.4168ZM45.9409 11.4005L46.0028 13.4133L46.5335 13.397L46.4717 11.3842L46.4098 9.3714L45.8791 9.3877L45.9409 11.4005ZM46.4717 11.3842L46.5335 13.397C46.7149 13.3914 46.8929 13.3699 47.0662 13.3341L46.6596 11.3619L46.253 9.38962C46.3006 9.3798 46.3533 9.37314 46.4098 9.3714L46.4717 11.3842ZM46.6596 11.3619L47.0662 13.3341L47.6002 13.224L47.1936 11.2518L46.787 9.27951L46.253 9.38962L46.6596 11.3619ZM47.1936 11.2518L47.6002 13.224L48.1343 13.1139L47.7277 11.1417L47.3211 9.16941L46.787 9.27951L47.1936 11.2518ZM47.7277 11.1417L48.1343 13.1139C47.8217 13.1784 47.484 13.1536 47.1712 13.0302L47.9098 11.1569L48.6484 9.28349C48.2185 9.11399 47.7594 9.07904 47.3211 9.16941L47.7277 11.1417ZM47.9098 11.1569L47.1712 13.0302L47.669 13.2265L48.4076 11.3531L49.1462 9.47975L48.6484 9.28349L47.9098 11.1569ZM48.4076 11.3531L47.669 13.2265L48.1667 13.4228L48.9054 11.5494L49.644 9.67602L49.1462 9.47975L48.4076 11.3531ZM48.9054 11.5494L48.1667 13.4228C48.8582 13.6954 49.5451 13.5788 50.0572 13.297L49.0865 11.5327L48.1157 9.76842C48.2864 9.67451 48.5213 9.58387 48.8099 9.5573C49.1058 9.53005 49.3917 9.57655 49.644 9.67602L48.9054 11.5494ZM49.0865 11.5327L50.0572 13.297L50.5857 13.0062L49.6149 11.242L48.6441 9.47767L48.1157 9.76843L49.0865 11.5327ZM49.6149 11.242L50.5857 13.0062L51.1141 12.7155L50.1433 10.9512L49.1726 9.18691L48.6441 9.47767L49.6149 11.242ZM50.1433 10.9512L51.1141 12.7155C50.9172 12.8238 50.6458 12.9226 50.3162 12.9358C49.9808 12.9493 49.6783 12.8702 49.4337 12.7493L50.3256 10.9439L51.2176 9.13848C50.5199 8.79377 49.763 8.86205 49.1725 9.18692L50.1433 10.9512ZM50.3256 10.9439L49.4337 12.7493L49.9383 12.9986L50.8303 11.1932L51.7223 9.3878L51.2176 9.13848L50.3256 10.9439ZM50.8303 11.1932L49.9383 12.9986L50.443 13.2479L51.3349 11.4425L52.2269 9.63713L51.7223 9.3878L50.8303 11.1932ZM51.3349 11.4425L50.443 13.2479C51.0966 13.5709 51.8563 13.5519 52.4933 13.1958L51.5107 11.4381L50.528 9.68037C50.747 9.55799 51.0347 9.45889 51.3724 9.45034C51.7101 9.44179 52.0023 9.52618 52.2269 9.63713L51.3349 11.4425ZM51.5107 11.4381L52.4933 13.1958L52.9844 12.9213L52.0017 11.1636L51.0191 9.40584L50.528 9.68038L51.5107 11.4381ZM52.0017 11.1636L52.9844 12.9213L53.4754 12.6467L52.4928 10.889L51.5102 9.1313L51.0191 9.40584L52.0017 11.1636ZM52.4928 10.889L53.4755 12.6467C53.2871 12.752 53.053 12.8366 52.7835 12.8638C52.5135 12.891 52.2644 12.8551 52.0538 12.7869L52.6731 10.8708L53.2924 8.95469C52.6915 8.76049 52.0515 8.82871 51.5102 9.13132L52.4928 10.889ZM52.6731 10.8708L52.0537 12.7869L52.5841 12.9584L53.2034 11.0422L53.8227 9.12611L53.2924 8.95469L52.6731 10.8708ZM53.2034 11.0422L52.5841 12.9584L53.1144 13.1298L53.7338 11.2137L54.3531 9.29753L53.8227 9.12611L53.2034 11.0422ZM53.7338 11.2137L53.1144 13.1298C53.7711 13.342 54.4795 13.2391 55.0487 12.848L53.9084 11.1882L52.7681 9.52847C52.9659 9.3926 53.2246 9.27477 53.5341 9.22971C53.8435 9.18465 54.125 9.2238 54.3531 9.29753L53.7338 11.2137ZM53.9084 11.1882L55.0487 12.848L55.5079 12.5325L54.3676 10.8727L53.2273 9.21298L52.7681 9.52849L53.9084 11.1882ZM54.3676 10.8727L55.5079 12.5325L55.9672 12.217L54.8268 10.5572L53.6865 8.89747L53.2273 9.21298L54.3676 10.8727ZM54.8268 10.5572L55.9672 12.2169C55.7513 12.3653 55.4793 12.4816 55.1661 12.5213C54.8576 12.5605 54.5868 12.5157 54.3789 12.4474L55.0075 10.5343L55.6361 8.62117C55.019 8.41843 54.2972 8.47788 53.6865 8.89748L54.8268 10.5572ZM55.0075 10.5343L54.3789 12.4474L54.9436 12.6329L55.5722 10.7198L56.2008 8.80669L55.6361 8.62117L55.0075 10.5343ZM55.5722 10.7198L54.9436 12.6329L55.5082 12.8184L56.1368 10.9053L56.7654 8.99222L56.2007 8.80669L55.5722 10.7198ZM56.1368 10.9053L55.5082 12.8184C55.8283 12.9236 56.2361 12.9766 56.6813 12.8742C57.1276 12.7716 57.4741 12.5445 57.7193 12.3045L56.3108 10.8653L54.9023 9.42619C55.098 9.23465 55.3907 9.03843 55.779 8.94916C56.1662 8.86015 56.5117 8.90887 56.7654 8.99222L56.1368 10.9053ZM56.3108 10.8653L57.7193 12.3045L58.1404 11.8923L56.7319 10.4532L55.3233 9.01407L54.9022 9.42621L56.3108 10.8653ZM56.7319 10.4532L58.1404 11.8923L58.5615 11.4802L57.153 10.0411L55.7444 8.60192L55.3233 9.01406L56.7319 10.4532ZM57.153 10.0411L58.5615 11.4802C58.3149 11.7215 57.9508 11.9374 57.492 11.9962C57.0577 12.0519 56.7103 11.945 56.5044 11.8516L57.3359 10.0176L58.1675 8.18358C57.8891 8.05736 57.475 7.93795 56.9798 8.00145C56.4599 8.0681 56.0405 8.31211 55.7444 8.60194L57.153 10.0411ZM57.3359 10.0176L56.5044 11.8516L57.1201 12.1308L57.9517 10.2968L58.7833 8.46278L58.1675 8.18359L57.3359 10.0176ZM57.9517 10.2968L57.1201 12.1308L57.7359 12.41L58.5674 10.576L59.399 8.74198L58.7833 8.46278L57.9517 10.2968ZM58.5674 10.576L57.7359 12.41C58.1614 12.603 58.8367 12.7496 59.5592 12.4374L58.7604 10.5888L57.9616 8.74031C58.5717 8.47668 59.1183 8.61471 59.399 8.74198L58.5674 10.576ZM58.7604 10.5888L59.5592 12.4374L60.0368 12.231L59.238 10.3825L58.4392 8.53394L57.9616 8.74032L58.7604 10.5888ZM59.238 10.3825L60.0368 12.231L60.5143 12.0246L59.7155 10.1761L58.9167 8.32757L58.4392 8.53394L59.238 10.3825ZM59.7155 10.1761L60.5144 12.0246C60.8018 11.9004 61.0468 11.7309 61.25 11.5404L59.8727 10.0714L58.4953 8.60238C58.6014 8.50291 58.7417 8.40323 58.9167 8.32758L59.7155 10.1761ZM59.8727 10.0714L61.2501 11.5403L61.6628 11.1533L60.2854 9.68433L58.908 8.21536L58.4953 8.6024L59.8727 10.0714ZM60.2854 9.68433L61.6628 11.1533L62.0756 10.7663L60.6982 9.29728L59.3208 7.82831L58.908 8.21535L60.2854 9.68433ZM60.6982 9.29728L62.0756 10.7662C61.8866 10.9435 61.6336 11.1023 61.3233 11.1895C61.0164 11.2757 60.7337 11.2695 60.5104 11.2285L60.874 9.24789L61.2376 7.26726C60.5761 7.14582 59.8615 7.32129 59.3208 7.82833L60.6982 9.29728ZM60.874 9.24789L60.5104 11.2285L61.094 11.3356L61.4576 9.35501L61.8212 7.37438L61.2376 7.26726L60.874 9.24789ZM61.4576 9.35501L61.094 11.3356L61.6775 11.4428L62.0411 9.46214L62.4047 7.48151L61.8212 7.37438L61.4576 9.35501ZM62.0411 9.46214L61.6775 11.4428C62.0686 11.5146 62.5306 11.4997 62.9952 11.3083L62.2284 9.44634L61.4615 7.58433C61.8138 7.43926 62.1509 7.43492 62.4047 7.48151L62.0411 9.46214ZM62.2284 9.44634L62.9953 11.3083L63.4729 11.1116L62.706 9.24964L61.9391 7.38764L61.4615 7.58434L62.2284 9.44634ZM62.706 9.24964L63.4729 11.1116L63.9504 10.9149L63.1836 9.05294L62.4167 7.19094L61.9391 7.38764L62.706 9.24964ZM63.1836 9.05294L63.9505 10.9149C64.244 10.794 64.4964 10.6249 64.7069 10.4303L63.3398 8.95172L61.9728 7.47311C62.0873 7.36724 62.2356 7.26555 62.4167 7.19095L63.1836 9.05294ZM63.3398 8.95172L64.7069 10.4303L65.1145 10.0534L63.7474 8.57482L62.3804 7.09623L61.9727 7.47313L63.3398 8.95172ZM63.7474 8.57482L65.1145 10.0534L65.5222 9.67651L64.1551 8.19792L62.788 6.71933L62.3804 7.09622L63.7474 8.57482ZM64.1551 8.19792L65.5222 9.67649C65.3669 9.82007 65.1682 9.95095 64.9284 10.0391C64.6889 10.1271 64.4545 10.1556 64.2467 10.1475L64.3255 8.13527L64.4044 6.12308C63.8088 6.09974 63.2308 6.3099 62.788 6.71935L64.1551 8.19792ZM64.3255 8.13527L64.2467 10.1475L64.8049 10.1693L64.8837 8.15713L64.9625 6.14495L64.4044 6.12308L64.3255 8.13527ZM64.8837 8.15713L64.8049 10.1693L65.3631 10.1912L65.4419 8.179L65.5207 6.16681L64.9625 6.14495L64.8837 8.15713ZM65.4419 8.179L65.3631 10.1912C66.0721 10.219 66.7071 9.91288 67.1318 9.42106L65.6077 8.10492L64.0836 6.78878C64.2283 6.62124 64.435 6.44721 64.7111 6.32385C64.9899 6.19929 65.2711 6.15703 65.5207 6.16681L65.4419 8.179ZM65.6077 8.10492L67.1318 9.42103L67.5132 8.97937L65.9891 7.66326L64.465 6.34714L64.0836 6.78881L65.6077 8.10492ZM65.9891 7.66326L67.5132 8.97938L67.8946 8.53771L66.3705 7.22159L64.8464 5.90547L64.465 6.34713L65.9891 7.66326ZM66.3705 7.22159L67.8946 8.53769C67.6843 8.78121 67.354 9.01493 66.9193 9.10112L66.5277 7.12583L66.1361 5.15054C65.5815 5.26049 65.1464 5.55805 64.8463 5.9055L66.3705 7.22159ZM66.5277 7.12583L66.9193 9.10112L67.4286 9.00014L67.037 7.02486L66.6454 5.04957L66.1361 5.15055L66.5277 7.12583ZM67.037 7.02486L67.4286 9.00014L67.9379 8.89917L67.5463 6.92388L67.1547 4.9486L66.6454 5.04957L67.037 7.02486ZM67.5463 6.92388L67.9379 8.89917C67.9676 8.89329 67.9911 8.88864 68.0087 8.88517C68.0175 8.88343 68.0245 8.88205 68.0299 8.881C68.0326 8.88047 68.0347 8.88006 68.0363 8.87975C68.0371 8.87959 68.0377 8.87947 68.0381 8.87938C68.0383 8.87934 68.0385 8.87931 68.0386 8.87929C68.0387 8.87926 68.0388 8.87925 68.0388 8.87926L67.6573 6.90199L67.2759 4.92472C67.2555 4.92865 67.2125 4.93714 67.1547 4.9486L67.5463 6.92388ZM67.6573 6.90199L68.0388 8.87924L68.1587 8.85612L67.7772 6.87886L67.3956 4.9016L67.2758 4.92473L67.6573 6.90199ZM67.7772 6.87886L66.7729 5.13344L66.7208 5.16342L67.7251 6.90884L68.7293 8.65427L68.7814 8.62429L67.7772 6.87886ZM67.7251 6.90884L68.2969 8.83968L68.49 8.7825L67.9181 6.85166L67.3463 4.92083L67.1532 4.97801L67.7251 6.90884Z" fill="#E91B0E"/>
</svg>
