<svg preserveAspectRatio="none" width="100%" height="100%" overflow="visible" style="display: block;" viewBox="0 0 92.0869 7.54049" fill="none" xmlns="http://www.w3.org/2000/svg">
<g id="Group 1707481823">
<path id="Vector 20" d="M2.88757 2.66411L3.02109 1.67307L2.90977 1.65807L2.79789 1.66814L2.88757 2.66411ZM3.60114 2.76025L3.46761 3.7513L3.60114 2.76025ZM5.05111 2.70682L4.85207 1.72683L5.05111 2.70682ZM6.1564 2.47702L5.94387 1.49986L6.1564 2.47702ZM6.89417 2.31655L7.1067 3.2937L6.89417 2.31655ZM8.01823 2.32909L7.8963 3.32163L8.01823 2.32909ZM10.9874 1.86524L11.373 2.7879L10.9874 1.86524ZM11.3543 1.71188L10.9687 0.789226L11.3543 1.71188ZM12.8688 1.87663L12.6017 2.84029L12.8688 1.87663ZM13.6227 1.88656L13.3722 0.918446L13.6227 1.88656ZM15.8689 1.88646L16.1156 0.917382L15.8689 1.88646ZM16.6174 1.84162L16.2625 0.906717L16.6174 1.84162ZM17.3599 1.55979L17.005 0.624886L17.3599 1.55979ZM18.109 1.4677L17.9809 2.45946L18.109 1.4677ZM18.8648 1.56534L18.9929 0.573587L18.8648 1.56534ZM19.6186 1.72328L19.3399 2.68364L19.6186 1.72328ZM19.9945 1.83238L19.7158 2.79275L19.9945 1.83238ZM20.3705 1.94149L20.6492 0.981122L20.3705 1.94149ZM21.1193 1.90076L20.7464 0.972885L21.1193 1.90076ZM22.6136 1.50853L22.463 2.49712L22.6136 1.50853ZM22.9895 1.56582L22.8388 2.5544L22.9895 1.56582ZM23.3653 1.6231L23.516 0.634518L23.3653 1.6231ZM25.6133 1.5319L25.4915 2.52445L25.6133 1.5319ZM25.991 1.57827L26.1128 0.585718L25.991 1.57827ZM27.8643 1.62246L27.8209 0.623404L27.8643 1.62246ZM28.6129 1.55426L28.4758 0.563701L28.6129 1.55426ZM29.3648 1.45022L29.5019 2.44078L29.3648 1.45022ZM30.1145 1.35635L30.0033 0.362559L30.1145 1.35635ZM30.8621 1.27267L30.9733 2.26646L30.8621 1.27267ZM31.6118 1.33429L31.8771 0.370136L31.6118 1.33429ZM32.3636 1.5412L32.0982 2.50535L32.3636 1.5412ZM33.1144 1.65255L33.0934 2.65233L33.1144 1.65255ZM35.3632 1.70406L35.3384 2.70375L35.3632 1.70406ZM36.1133 1.78612L35.923 2.76784L36.1133 1.78612ZM36.8641 1.93167L37.0544 0.949949L36.8641 1.93167ZM37.6138 1.94359L37.7743 2.93063L37.6138 1.94359ZM38.3624 1.82188L38.2019 0.834841L38.3624 1.82188ZM39.1124 1.7968L39.2072 0.801307L39.1124 1.7968ZM39.8638 1.86836L39.769 2.86386L39.8638 1.86836ZM40.6143 1.7642L40.9641 2.70102L40.6143 1.7642ZM41.3638 1.48433L41.014 0.54751L41.3638 1.48433ZM42.4892 1.56265L42.7684 0.602408L42.4892 1.56265ZM42.8645 1.67177L42.5854 2.63201L42.8645 1.67177ZM43.6143 1.728L43.7542 2.71816L43.6143 1.728ZM43.9887 1.6751L43.8487 0.684932L43.9887 1.6751ZM44.363 1.62219L44.2231 0.63203L44.363 1.62219ZM45.4899 1.51994L45.4245 0.522085L45.4899 1.51994ZM45.8661 1.49527L45.9316 2.49312L45.8661 1.49527ZM46.6174 1.37978L46.8527 2.3517L46.6174 1.37978ZM47.3676 1.19816L47.1323 0.226245L47.3676 1.19816ZM48.1177 1.18984L47.9029 2.1665L48.1177 1.18984ZM48.8678 1.35481L49.0826 0.37815L48.8678 1.35481ZM49.6187 1.30864L49.9425 2.25476L49.6187 1.30864ZM50.3706 1.05134L50.0467 0.105214L50.3706 1.05134ZM51.493 1.3109L51.0316 2.1981L51.493 1.3109ZM51.8662 1.50501L51.4049 2.39221L51.8662 1.50501ZM52.6161 1.55082L52.9825 2.48128L52.6161 1.55082ZM53.3693 1.25423L53.0029 0.323768L53.3693 1.25423ZM54.1192 1.25367L54.4872 0.323828L54.1192 1.25367ZM54.4926 1.40141L54.8605 0.471568L54.4926 1.40141ZM54.8659 1.54915L54.498 2.479L54.8659 1.54915ZM55.6139 1.70579L55.5902 2.70551L55.6139 1.70579ZM57.1112 1.8496L57.4106 0.895463L57.1112 1.8496ZM57.8578 2.08384L57.5584 3.03798L57.8578 2.08384ZM58.6099 1.97121L59.1284 2.82629L58.6099 1.97121ZM59.3678 1.51171L58.8493 0.656621L59.3678 1.51171ZM60.118 1.49348L59.623 2.36239L60.118 1.49348ZM60.8606 1.91651L60.3657 2.78542L60.8606 1.91651ZM62.3683 1.54888L61.9143 0.65791L62.3683 1.54888ZM63.1198 1.47173L63.4168 0.516847L63.1198 1.47173ZM64.6149 1.74014L64.8207 2.71873L64.6149 1.74014ZM65.3691 1.58152L65.1633 0.602932L65.3691 1.58152ZM66.1174 1.67558L65.6943 2.58165L66.1174 1.67558ZM66.8599 2.0223L67.283 1.11622L66.8599 2.0223ZM67.6071 2.17756L67.6552 3.1764L67.6071 2.17756ZM68.3592 2.14135L68.3111 1.14251L68.3592 2.14135ZM69.1127 1.97942L68.7567 1.04493L69.1127 1.97942ZM69.8678 1.69177L70.2238 2.62626L69.8678 1.69177ZM70.6178 1.69665L70.9886 0.767966L70.6178 1.69665ZM71.3626 1.99407L70.9917 2.92276L71.3626 1.99407ZM72.109 2.17611L72.0202 3.17217L72.109 2.17611ZM72.857 2.24277L72.9458 1.24671L72.857 2.24277ZM75.1203 1.68022L75.6859 0.855488L75.1203 1.68022ZM75.4897 1.9335L74.9242 2.75824L75.4897 1.9335ZM75.8591 2.18678L76.4246 1.36205L75.8591 2.18678ZM76.6031 2.46167L76.5455 3.46001L76.6031 2.46167ZM76.9777 2.48328L77.0353 1.48494L76.9777 2.48328ZM77.3523 2.50489L77.2947 3.50323L77.3523 2.50489ZM78.1034 2.47226L77.9607 1.48248L78.1034 2.47226ZM78.4798 2.41802L78.3371 1.42824L78.4798 2.41802ZM78.8562 2.36378L78.9988 3.35355L78.8562 2.36378ZM79.6062 2.37071L79.4446 3.35757L79.6062 2.37071ZM80.3534 2.49306L80.515 1.5062L80.3534 2.49306ZM81.1042 2.47112L80.889 1.49455L81.1042 2.47112ZM82.6093 2.2851L82.4422 3.27103L82.6093 2.2851ZM83.3564 2.41175L83.5236 1.42581L83.3564 2.41175ZM84.1036 2.5384L83.9365 3.52434L84.1036 2.5384ZM84.8508 2.66506L84.6837 3.65099L84.8508 2.66506ZM85.6062 2.45654L86.1862 3.27118L85.6062 2.45654ZM86.3699 1.91284L85.7899 1.0982L86.3699 1.91284ZM87.1225 1.81689L87.5511 0.91342L87.1225 1.81689ZM87.4932 1.99278L87.0645 2.89625L87.4932 1.99278ZM88.2888 2.32504L88.6279 3.26582L88.2888 2.32504ZM88.343 2.30552L88.682 3.2463L89.2118 3.05538L89.3232 2.50341L88.343 2.30552ZM88.3514 2.26406L88.3755 1.26435L87.5371 1.24408L87.3711 2.06618L88.3514 2.26406ZM2.78797 2.67308L2.87766 3.66905L2.97725 3.66008L2.88757 2.66411L2.79789 1.66814L2.69829 1.67711L2.78797 2.67308ZM2.88757 2.66411L2.75405 3.65516L3.46761 3.7513L3.60114 2.76025L3.73466 1.76921L3.02109 1.67307L2.88757 2.66411ZM3.60114 2.76025L3.46761 3.7513C3.97194 3.81924 4.46788 3.8457 4.88195 3.7616L4.68291 2.78161L4.48386 1.80161C4.407 1.81723 4.18176 1.82944 3.73466 1.76921L3.60114 2.76025ZM4.68291 2.78161L4.88195 3.7616L5.25016 3.68681L5.05111 2.70682L4.85207 1.72683L4.48386 1.80161L4.68291 2.78161ZM5.05111 2.70682L5.25016 3.68681L5.61836 3.61202L5.41932 2.63203L5.22027 1.65204L4.85207 1.72683L5.05111 2.70682ZM5.41932 2.63203L5.61836 3.61202C5.86836 3.56125 6.11855 3.50863 6.36894 3.45417L6.1564 2.47702L5.94387 1.49986C5.70242 1.55238 5.46122 1.60311 5.22027 1.65204L5.41932 2.63203ZM6.1564 2.47702L6.36894 3.45417L6.73782 3.37394L6.52529 2.39678L6.31275 1.41963L5.94387 1.49986L6.1564 2.47702ZM6.52529 2.39678L6.73782 3.37394L7.1067 3.2937L6.89417 2.31655L6.68164 1.3394L6.31275 1.41963L6.52529 2.39678ZM6.89417 2.31655L7.1067 3.2937C7.24193 3.26429 7.37766 3.25792 7.51871 3.27524L7.64064 2.28271L7.76258 1.29017C7.40017 1.24565 7.03825 1.26183 6.68164 1.3394L6.89417 2.31655ZM7.64064 2.28271L7.51871 3.27524L7.8963 3.32163L8.01823 2.32909L8.14017 1.33656L7.76258 1.29017L7.64064 2.28271ZM8.01823 2.32909L7.8963 3.32163L8.27389 3.36802L8.39582 2.37548L8.51776 1.38294L8.14017 1.33656L8.01823 2.32909ZM8.39582 2.37548L8.27389 3.36802C8.62023 3.41057 8.96661 3.4034 9.30994 3.34543L9.14345 2.35939L8.97696 1.37335C8.82691 1.39868 8.67487 1.40225 8.51776 1.38294L8.39582 2.37548ZM9.14345 2.35939L9.30994 3.34543L9.67998 3.28295L9.51349 2.29691L9.347 1.31087L8.97696 1.37335L9.14345 2.35939ZM9.51349 2.29691L9.67998 3.28295L10.05 3.22048L9.88352 2.23443L9.71703 1.24839L9.347 1.31087L9.51349 2.29691ZM9.88352 2.23443L10.05 3.22048C10.3763 3.16539 10.6953 3.07116 11.0061 2.94125L10.6205 2.0186L10.2349 1.09594C10.0565 1.17051 9.88416 1.22017 9.71703 1.24839L9.88352 2.23443ZM10.6205 2.0186L11.0061 2.94125L11.373 2.7879L10.9874 1.86524L10.6018 0.942583L10.2349 1.09594L10.6205 2.0186ZM10.9874 1.86524L11.373 2.7879L11.74 2.63454L11.3543 1.71188L10.9687 0.789226L10.6018 0.942583L10.9874 1.86524ZM11.3543 1.71188L11.74 2.63454C11.7782 2.61857 11.7981 2.61754 11.8367 2.62822L12.1038 1.66456L12.3709 0.700899C11.8994 0.570205 11.4198 0.600719 10.9687 0.789226L11.3543 1.71188ZM12.1038 1.66456L11.8367 2.62822L12.2192 2.73426L12.4863 1.77059L12.7534 0.806933L12.3709 0.700899L12.1038 1.66456ZM12.4863 1.77059L12.2192 2.73426L12.6017 2.84029L12.8688 1.87663L13.136 0.912967L12.7534 0.806933L12.4863 1.77059ZM12.8688 1.87663L12.6017 2.84029C13.0197 2.95617 13.4496 2.96428 13.8732 2.85467L13.6227 1.88656L13.3722 0.918446C13.3006 0.93697 13.2279 0.938463 13.136 0.912967L12.8688 1.87663ZM13.6227 1.88656L13.8732 2.85467L14.2446 2.75857L13.9941 1.79045L13.7436 0.822342L13.3722 0.918446L13.6227 1.88656ZM13.9941 1.79045L14.2446 2.75857L14.616 2.66246L14.3655 1.69435L14.115 0.726238L13.7436 0.822342L13.9941 1.79045ZM14.3655 1.69435L14.616 2.66246C14.6981 2.64124 14.7766 2.64025 14.8675 2.6634L15.1142 1.69432L15.361 0.725237C14.9488 0.62029 14.5281 0.619327 14.115 0.726238L14.3655 1.69435ZM15.1142 1.69432L14.8675 2.6634L15.2448 2.75947L15.4916 1.79039L15.7383 0.821309L15.361 0.725237L15.1142 1.69432ZM15.4916 1.79039L15.2448 2.75947L15.6222 2.85555L15.8689 1.88646L16.1156 0.917382L15.7383 0.821309L15.4916 1.79039ZM15.8689 1.88646L15.6222 2.85555C16.0772 2.9714 16.5367 2.94191 16.9723 2.77653L16.6174 1.84162L16.2625 0.906717C16.2033 0.929217 16.1637 0.929629 16.1156 0.917382L15.8689 1.88646ZM16.6174 1.84162L16.9723 2.77653L17.3436 2.63561L16.9887 1.70071L16.6338 0.765801L16.2625 0.906717L16.6174 1.84162ZM16.9887 1.70071L17.3436 2.63561L17.7148 2.49469L17.3599 1.55979L17.005 0.624886L16.6338 0.765801L16.9887 1.70071ZM17.3599 1.55979L17.7148 2.49469C17.8151 2.45662 17.8991 2.4489 17.9809 2.45946L18.109 1.4677L18.2371 0.475941C17.815 0.421403 17.3996 0.475072 17.005 0.624886L17.3599 1.55979ZM18.109 1.4677L17.9809 2.45946L18.3588 2.50828L18.4869 1.51652L18.615 0.524764L18.2371 0.475941L18.109 1.4677ZM18.4869 1.51652L18.3588 2.50828L18.7367 2.5571L18.8648 1.56534L18.9929 0.573587L18.615 0.524764L18.4869 1.51652ZM18.8648 1.56534L18.7367 2.5571C18.9363 2.58289 19.1372 2.62483 19.3399 2.68364L19.6186 1.72328L19.8974 0.762907C19.5988 0.676243 19.2972 0.612893 18.9929 0.573587L18.8648 1.56534ZM19.6186 1.72328L19.3399 2.68364L19.7158 2.79275L19.9945 1.83238L20.2733 0.872014L19.8974 0.762907L19.6186 1.72328ZM19.9945 1.83238L19.7158 2.79275L20.0917 2.90186L20.3705 1.94149L20.6492 0.981122L20.2733 0.872014L19.9945 1.83238ZM20.3705 1.94149L20.0917 2.90186C20.5632 3.03869 21.0421 3.00951 21.4921 2.82864L21.1193 1.90076L20.7464 0.972885C20.6993 0.991794 20.679 0.989773 20.6492 0.981122L20.3705 1.94149ZM21.1193 1.90076L21.4921 2.82864L21.865 2.6788L21.4921 1.75092L21.1192 0.823048L20.7464 0.972885L21.1193 1.90076ZM21.4921 1.75092L21.865 2.6788L22.2378 2.52896L21.8649 1.60109L21.4921 0.673211L21.1192 0.823048L21.4921 1.75092ZM21.8649 1.60109L22.2378 2.52896C22.3303 2.49181 22.3994 2.48743 22.463 2.49712L22.6136 1.50853L22.7643 0.519951C22.3267 0.453259 21.8967 0.510581 21.4921 0.673211L21.8649 1.60109ZM22.6136 1.50853L22.463 2.49712L22.8388 2.5544L22.9895 1.56582L23.1401 0.577235L22.7643 0.519951L22.6136 1.50853ZM22.9895 1.56582L22.8388 2.5544L23.2146 2.61168L23.3653 1.6231L23.516 0.634518L23.1401 0.577235L22.9895 1.56582ZM23.3653 1.6231L23.2146 2.61168C23.5571 2.66388 23.9011 2.66799 24.244 2.62328L24.1148 1.63167L23.9855 0.640066C23.8302 0.660305 23.6747 0.658705 23.516 0.634518L23.3653 1.6231ZM24.1148 1.63167L24.244 2.62328L24.6176 2.57457L24.4884 1.58296L24.3591 0.591355L23.9855 0.640066L24.1148 1.63167ZM24.4884 1.58296L24.6176 2.57457L24.9913 2.52586L24.862 1.53425L24.7327 0.542644L24.3591 0.591355L24.4884 1.58296ZM24.862 1.53425L24.9913 2.52586C25.1562 2.50436 25.3222 2.50368 25.4915 2.52445L25.6133 1.5319L25.7351 0.539354C25.4008 0.498309 25.0659 0.499196 24.7327 0.542644L24.862 1.53425ZM25.6133 1.5319L25.4915 2.52445L25.8692 2.57082L25.991 1.57827L26.1128 0.585718L25.7351 0.539354L25.6133 1.5319ZM25.991 1.57827L25.8692 2.57082L26.2469 2.61718L26.3687 1.62463L26.4905 0.632082L26.1128 0.585718L25.991 1.57827ZM26.3687 1.62463L26.2469 2.61718C26.5524 2.65468 26.8577 2.66711 27.1624 2.65388L27.119 1.65482L27.0757 0.65576C26.8835 0.664102 26.6887 0.656402 26.4905 0.632082L26.3687 1.62463ZM27.119 1.65482L27.1624 2.65388L27.535 2.6377L27.4917 1.63864L27.4483 0.639582L27.0757 0.65576L27.119 1.65482ZM27.4917 1.63864L27.535 2.6377L27.9077 2.62152L27.8643 1.62246L27.8209 0.623404L27.4483 0.639582L27.4917 1.63864ZM27.8643 1.62246L27.9077 2.62152C28.188 2.60935 28.4688 2.58373 28.75 2.54482L28.6129 1.55426L28.4758 0.563701C28.2557 0.594158 28.0375 0.614004 27.8209 0.623404L27.8643 1.62246ZM28.6129 1.55426L28.75 2.54482L29.1259 2.4928L28.9888 1.50224L28.8518 0.511678L28.4758 0.563701L28.6129 1.55426ZM28.9888 1.50224L29.1259 2.4928L29.5019 2.44078L29.3648 1.45022L29.2277 0.459655L28.8518 0.511678L28.9888 1.50224ZM29.3648 1.45022L29.5019 2.44078C29.744 2.40727 29.9853 2.37707 30.2258 2.35015L30.1145 1.35635L30.0033 0.362559C29.7454 0.391427 29.4869 0.423794 29.2277 0.459655L29.3648 1.45022ZM30.1145 1.35635L30.2258 2.35015L30.5995 2.3083L30.4883 1.31451L30.3771 0.320718L30.0033 0.362559L30.1145 1.35635ZM30.4883 1.31451L30.5995 2.3083L30.9733 2.26646L30.8621 1.27267L30.7508 0.278878L30.3771 0.320718L30.4883 1.31451ZM30.8621 1.27267L30.9733 2.26646C31.0916 2.25322 31.2137 2.26193 31.3464 2.29844L31.6118 1.33429L31.8771 0.370136C31.5086 0.268705 31.1309 0.236332 30.7508 0.278878L30.8621 1.27267ZM31.6118 1.33429L31.3464 2.29844L31.7223 2.40189L31.9877 1.43774L32.253 0.473592L31.8771 0.370136L31.6118 1.33429ZM31.9877 1.43774L31.7223 2.40189L32.0982 2.50535L32.3636 1.5412L32.6289 0.577048L32.253 0.473592L31.9877 1.43774ZM32.3636 1.5412L32.0982 2.50535C32.4253 2.59537 32.7576 2.64526 33.0934 2.65233L33.1144 1.65255L33.1355 0.652769C32.9713 0.649314 32.803 0.624968 32.6289 0.577048L32.3636 1.5412ZM33.1144 1.65255L33.0934 2.65233L33.4683 2.66022L33.4893 1.66044L33.5104 0.660661L33.1355 0.652769L33.1144 1.65255ZM33.4893 1.66044L33.4683 2.66022L33.8432 2.66811L33.8643 1.66833L33.8853 0.668552L33.5104 0.660661L33.4893 1.66044ZM33.8643 1.66833L33.8432 2.66811C34.092 2.67334 34.3406 2.67904 34.5891 2.6852L34.6139 1.6855L34.6386 0.685808C34.3876 0.679591 34.1365 0.673839 33.8853 0.668552L33.8643 1.66833ZM34.6139 1.6855L34.5891 2.6852L34.9638 2.69447L34.9885 1.69478L35.0133 0.695088L34.6386 0.685808L34.6139 1.6855ZM34.9885 1.69478L34.9638 2.69447L35.3384 2.70375L35.3632 1.70406L35.388 0.704367L35.0133 0.695088L34.9885 1.69478ZM35.3632 1.70406L35.3384 2.70375C35.5315 2.70854 35.7262 2.72969 35.923 2.76784L36.1133 1.78612L36.3036 0.804394C35.9998 0.745509 35.6944 0.711958 35.388 0.704367L35.3632 1.70406ZM36.1133 1.78612L35.923 2.76784L36.2984 2.84062L36.4887 1.85889L36.679 0.877172L36.3036 0.804394L36.1133 1.78612ZM36.4887 1.85889L36.2984 2.84062L36.6738 2.91339L36.8641 1.93167L37.0544 0.949949L36.679 0.877172L36.4887 1.85889ZM36.8641 1.93167L36.6738 2.91339C37.0388 2.98415 37.4074 2.99028 37.7743 2.93063L37.6138 1.94359L37.4533 0.956553C37.3211 0.978049 37.19 0.976229 37.0544 0.949949L36.8641 1.93167ZM37.6138 1.94359L37.7743 2.93063L38.1486 2.86978L37.9881 1.88274L37.8276 0.895697L37.4533 0.956553L37.6138 1.94359ZM37.9881 1.88274L38.1486 2.86978L38.5229 2.80892L38.3624 1.82188L38.2019 0.834841L37.8276 0.895697L37.9881 1.88274ZM38.3624 1.82188L38.5229 2.80892C38.6885 2.782 38.8527 2.77659 39.0176 2.7923L39.1124 1.7968L39.2072 0.801307C38.8712 0.76931 38.5354 0.780617 38.2019 0.834841L38.3624 1.82188ZM39.1124 1.7968L39.0176 2.7923L39.3933 2.82808L39.4881 1.83258L39.5829 0.837087L39.2072 0.801307L39.1124 1.7968ZM39.4881 1.83258L39.3933 2.82808L39.769 2.86386L39.8638 1.86836L39.9586 0.872866L39.5829 0.837087L39.4881 1.83258ZM39.8638 1.86836L39.769 2.86386C40.1792 2.90292 40.5811 2.84403 40.9641 2.70102L40.6143 1.7642L40.2644 0.827385C40.1477 0.870962 40.0493 0.881507 39.9586 0.872866L39.8638 1.86836ZM40.6143 1.7642L40.9641 2.70102L41.3388 2.56109L40.989 1.62427L40.6392 0.687447L40.2644 0.827385L40.6143 1.7642ZM40.989 1.62427L41.3388 2.56109L41.7136 2.42115L41.3638 1.48433L41.014 0.54751L40.6392 0.687447L40.989 1.62427ZM41.3638 1.48433L41.7136 2.42115C41.7668 2.40127 41.7963 2.4026 41.8347 2.41376L42.1139 1.45352L42.3931 0.493281C41.931 0.358931 41.4604 0.380807 41.014 0.54751L41.3638 1.48433ZM42.1139 1.45352L41.8347 2.41376L42.21 2.52288L42.4892 1.56265L42.7684 0.602408L42.3931 0.493281L42.1139 1.45352ZM42.4892 1.56265L42.21 2.52288L42.5854 2.63201L42.8645 1.67177L43.1437 0.711536L42.7684 0.602408L42.4892 1.56265ZM42.8645 1.67177L42.5854 2.63201C42.9669 2.74293 43.3596 2.77392 43.7542 2.71816L43.6143 1.728L43.4744 0.737834C43.3698 0.752611 43.2627 0.746115 43.1437 0.711536L42.8645 1.67177ZM43.6143 1.728L43.7542 2.71816L44.1286 2.66526L43.9887 1.6751L43.8487 0.684932L43.4744 0.737834L43.6143 1.728ZM43.9887 1.6751L44.1286 2.66526L44.503 2.61236L44.363 1.62219L44.2231 0.63203L43.8487 0.684932L43.9887 1.6751ZM44.363 1.62219L44.503 2.61236C44.7279 2.58057 44.9533 2.55728 45.1791 2.54247L45.1137 1.54462L45.0482 0.54676C44.7724 0.564848 44.4974 0.593278 44.2231 0.63203L44.363 1.62219ZM45.1137 1.54462L45.1791 2.54247L45.5553 2.5178L45.4899 1.51994L45.4245 0.522085L45.0482 0.54676L45.1137 1.54462ZM45.4899 1.51994L45.5553 2.5178L45.9316 2.49312L45.8661 1.49527L45.8007 0.497411L45.4245 0.522085L45.4899 1.51994ZM45.8661 1.49527L45.9316 2.49312C46.241 2.47283 46.5482 2.42543 46.8527 2.3517L46.6174 1.37978L46.3821 0.407864C46.1865 0.455217 45.9929 0.484804 45.8007 0.497411L45.8661 1.49527ZM46.6174 1.37978L46.8527 2.3517L47.2278 2.26089L46.9925 1.28897L46.7572 0.317055L46.3821 0.407864L46.6174 1.37978ZM46.9925 1.28897L47.2278 2.26089L47.6029 2.17008L47.3676 1.19816L47.1323 0.226245L46.7572 0.317055L46.9925 1.28897ZM47.3676 1.19816L47.6029 2.17008C47.706 2.14513 47.8021 2.14432 47.9029 2.1665L48.1177 1.18984L48.3325 0.213181C47.9333 0.125376 47.5293 0.130123 47.1323 0.226245L47.3676 1.19816ZM48.1177 1.18984L47.9029 2.1665L48.2779 2.24898L48.4927 1.27232L48.7075 0.295666L48.3325 0.213181L48.1177 1.18984ZM48.4927 1.27232L48.2779 2.24898L48.653 2.33147L48.8678 1.35481L49.0826 0.37815L48.7075 0.295666L48.4927 1.27232ZM48.8678 1.35481L48.653 2.33147C49.0884 2.42722 49.5249 2.3977 49.9425 2.25476L49.6187 1.30864L49.2949 0.362517C49.2114 0.391114 49.1473 0.392378 49.0826 0.37815L48.8678 1.35481ZM49.6187 1.30864L49.9425 2.25476L50.3185 2.12611L49.9946 1.17999L49.6708 0.233865L49.2949 0.362517L49.6187 1.30864ZM49.9946 1.17999L50.3185 2.12611L50.6944 1.99746L50.3706 1.05134L50.0467 0.105214L49.6708 0.233865L49.9946 1.17999ZM50.3706 1.05134L50.6944 1.99746C50.6962 1.99681 50.6929 1.99812 50.6851 1.99911C50.6772 2.00013 50.668 2.00039 50.6588 1.99958C50.6496 1.99878 50.6439 1.99725 50.6427 1.99686C50.6416 1.99654 50.6467 1.99797 50.6583 2.004L51.1197 1.11679L51.5811 0.22959C51.1056 -0.0176903 50.5727 -0.0747892 50.0467 0.105214L50.3706 1.05134ZM51.1197 1.11679L50.6583 2.004L51.0316 2.1981L51.493 1.3109L51.9544 0.423698L51.5811 0.22959L51.1197 1.11679ZM51.493 1.3109L51.0316 2.1981L51.4049 2.39221L51.8662 1.50501L52.3276 0.617806L51.9544 0.423698L51.493 1.3109ZM51.8662 1.50501L51.4049 2.39221C51.8988 2.64909 52.4503 2.69083 52.9825 2.48128L52.6161 1.55082L52.2497 0.620361C52.248 0.621019 52.2529 0.618967 52.2634 0.617203C52.2742 0.6154 52.2873 0.614523 52.3013 0.615377C52.3152 0.616225 52.3257 0.618523 52.3316 0.620247C52.3373 0.621888 52.3361 0.622199 52.3276 0.617806L51.8662 1.50501ZM52.6161 1.55082L52.9825 2.48128L53.3591 2.33298L52.9927 1.40252L52.6263 0.472065L52.2497 0.620361L52.6161 1.55082ZM52.9927 1.40252L53.3591 2.33298L53.7357 2.18469L53.3693 1.25423L53.0029 0.323768L52.6263 0.472065L52.9927 1.40252ZM53.3693 1.25423L53.7357 2.18469C53.7457 2.18073 53.7508 2.1797 53.7513 2.1796C53.7517 2.17952 53.7496 2.17994 53.7458 2.17994C53.742 2.17994 53.7395 2.17953 53.739 2.17944C53.7387 2.17937 53.7426 2.18009 53.7513 2.18352L54.1192 1.25367L54.4872 0.323828C54.0003 0.131174 53.4878 0.132802 53.0029 0.323768L53.3693 1.25423ZM54.1192 1.25367L53.7513 2.18352L54.1246 2.33126L54.4926 1.40141L54.8605 0.471568L54.4872 0.323828L54.1192 1.25367ZM54.4926 1.40141L54.1246 2.33126L54.498 2.479L54.8659 1.54915L55.2339 0.619309L54.8605 0.471568L54.4926 1.40141ZM54.8659 1.54915L54.498 2.479C54.8487 2.61779 55.2143 2.69658 55.5902 2.70551L55.6139 1.70579L55.6377 0.706073C55.514 0.703137 55.3809 0.677502 55.2339 0.619309L54.8659 1.54915ZM55.6139 1.70579L55.5902 2.70551L55.9649 2.71441L55.9886 1.71469L56.0123 0.714971L55.6377 0.706073L55.6139 1.70579ZM55.9886 1.71469L55.9649 2.71441L56.3395 2.72331L56.3633 1.72359L56.387 0.723869L56.0123 0.714971L55.9886 1.71469ZM56.3633 1.72359L56.3395 2.72331C56.4917 2.72692 56.6483 2.75244 56.8118 2.80374L57.1112 1.8496L57.4106 0.895463C57.0764 0.790605 56.7344 0.732118 56.387 0.723869L56.3633 1.72359ZM57.1112 1.8496L56.8118 2.80374L57.1851 2.92086L57.4845 1.96672L57.7838 1.01258L57.4106 0.895463L57.1112 1.8496ZM57.4845 1.96672L57.1851 2.92086L57.5584 3.03798L57.8578 2.08384L58.1571 1.1297L57.7838 1.01258L57.4845 1.96672ZM57.8578 2.08384L57.5584 3.03798C58.1195 3.21401 58.6664 3.10647 59.1284 2.82629L58.6099 1.97121L58.0915 1.11612C58.06 1.13518 58.0588 1.12909 58.0844 1.12526C58.0966 1.12344 58.1108 1.12279 58.1256 1.12399C58.1403 1.12518 58.1512 1.12784 58.1571 1.1297L57.8578 2.08384ZM58.6099 1.97121L59.1284 2.82629L59.5073 2.59654L58.9888 1.74146L58.4704 0.88637L58.0915 1.11612L58.6099 1.97121ZM58.9888 1.74146L59.5073 2.59654L59.8862 2.36679L59.3678 1.51171L58.8493 0.656621L58.4704 0.88637L58.9888 1.74146ZM59.3678 1.51171L59.8862 2.36679C59.8904 2.36426 59.8478 2.39007 59.769 2.39198C59.6882 2.39394 59.6348 2.36911 59.623 2.36239L60.118 1.49348L60.6129 0.624562C60.3536 0.476826 60.0514 0.384527 59.7205 0.39257C59.3917 0.40056 59.0977 0.505986 58.8493 0.656621L59.3678 1.51171ZM60.118 1.49348L59.623 2.36239L59.9943 2.57391L60.4893 1.70499L60.9843 0.836079L60.6129 0.624562L60.118 1.49348ZM60.4893 1.70499L59.9943 2.57391L60.3657 2.78542L60.8606 1.91651L61.3556 1.0476L60.9843 0.836079L60.4893 1.70499ZM60.8606 1.91651L60.3657 2.78542C60.9039 3.092 61.5105 3.10843 62.0648 2.82595L61.6107 1.93498L61.1567 1.04401C61.156 1.04433 61.1657 1.03937 61.1849 1.03468C61.2047 1.02985 61.2299 1.02649 61.2584 1.02719C61.3203 1.02871 61.356 1.04781 61.3556 1.0476L60.8606 1.91651ZM61.6107 1.93498L62.0648 2.82595L62.4436 2.6329L61.9895 1.74193L61.5355 0.850959L61.1567 1.04401L61.6107 1.93498ZM61.9895 1.74193L62.4436 2.6329L62.8224 2.43985L62.3683 1.54888L61.9143 0.65791L61.5355 0.850959L61.9895 1.74193ZM62.3683 1.54888L62.8224 2.43985C62.8379 2.43194 62.8473 2.42871 62.8508 2.42763C62.8541 2.42662 62.8528 2.42731 62.8477 2.42784C62.8425 2.42837 62.8363 2.42842 62.8303 2.42779C62.8244 2.42718 62.8216 2.42624 62.8228 2.42662L63.1198 1.47173L63.4168 0.516847C62.8958 0.354826 62.3764 0.422374 61.9143 0.65791L62.3683 1.54888ZM63.1198 1.47173L62.8228 2.42662L63.1955 2.54252L63.4925 1.58764L63.7895 0.63275L63.4168 0.516847L63.1198 1.47173ZM63.4925 1.58764L63.1955 2.54252L63.5682 2.65842L63.8652 1.70354L64.1621 0.748654L63.7895 0.63275L63.4925 1.58764ZM63.8652 1.70354L63.5682 2.65842C63.9773 2.78565 64.4002 2.80716 64.8207 2.71873L64.6149 1.74014L64.4091 0.761545C64.3268 0.77885 64.2499 0.775962 64.1621 0.748654L63.8652 1.70354ZM64.6149 1.74014L64.8207 2.71873L65.1978 2.63942L64.992 1.66083L64.7862 0.682239L64.4091 0.761545L64.6149 1.74014ZM64.992 1.66083L65.1978 2.63942L65.5749 2.56011L65.3691 1.58152L65.1633 0.602932L64.7862 0.682239L64.992 1.66083ZM65.3691 1.58152L65.5749 2.56011C65.6004 2.55474 65.6298 2.55154 65.6943 2.58165L66.1174 1.67558L66.5405 0.769499C66.11 0.568463 65.6405 0.502564 65.1633 0.602932L65.3691 1.58152ZM66.1174 1.67558L65.6943 2.58165L66.0655 2.75501L66.4886 1.84894L66.9118 0.942859L66.5405 0.769499L66.1174 1.67558ZM66.4886 1.84894L66.0655 2.75501L66.4368 2.92837L66.8599 2.0223L67.283 1.11622L66.9118 0.942859L66.4886 1.84894ZM66.8599 2.0223L66.4368 2.92837C66.8182 3.10647 67.2282 3.19696 67.6552 3.1764L67.6071 2.17756L67.5591 1.17871C67.4847 1.18229 67.3966 1.16927 67.283 1.11622L66.8599 2.0223ZM67.6071 2.17756L67.6552 3.1764L68.0312 3.1583L67.9831 2.15945L67.9351 1.16061L67.5591 1.17871L67.6071 2.17756ZM67.9831 2.15945L68.0312 3.1583L68.4072 3.14019L68.3592 2.14135L68.3111 1.14251L67.9351 1.16061L67.9831 2.15945ZM68.3592 2.14135L68.4072 3.14019C68.7708 3.12269 69.1256 3.0446 69.4687 2.91391L69.1127 1.97942L68.7567 1.04493C68.5964 1.10601 68.4489 1.13587 68.3111 1.14251L68.3592 2.14135ZM69.1127 1.97942L69.4687 2.91391L69.8463 2.77009L69.4903 1.8356L69.1343 0.901105L68.7567 1.04493L69.1127 1.97942ZM69.4903 1.8356L69.8463 2.77009L70.2238 2.62626L69.8678 1.69177L69.5118 0.757279L69.1343 0.901105L69.4903 1.8356ZM69.8678 1.69177L70.2238 2.62626C70.2342 2.62229 70.2398 2.62116 70.2409 2.62094C70.2419 2.62075 70.2405 2.62108 70.2376 2.62106C70.2346 2.62104 70.2328 2.62069 70.233 2.62074C70.2334 2.62081 70.2378 2.62172 70.2469 2.62534L70.6178 1.69665L70.9886 0.767966C70.5054 0.575008 69.996 0.57284 69.5118 0.757279L69.8678 1.69177ZM70.6178 1.69665L70.2469 2.62534L70.6193 2.77405L70.9902 1.84536L71.361 0.916677L70.9886 0.767966L70.6178 1.69665ZM70.9902 1.84536L70.6193 2.77405L70.9917 2.92276L71.3626 1.99407L71.7334 1.06539L71.361 0.916677L70.9902 1.84536ZM71.3626 1.99407L70.9917 2.92276C71.3241 3.05551 71.6677 3.14076 72.0202 3.17217L72.109 2.17611L72.1977 1.18006C72.0515 1.16703 71.8975 1.13092 71.7334 1.06539L71.3626 1.99407ZM72.109 2.17611L72.0202 3.17217L72.3943 3.20549L72.483 2.20944L72.5718 1.21338L72.1977 1.18006L72.109 2.17611ZM72.483 2.20944L72.3943 3.20549L72.7683 3.23882L72.857 2.24277L72.9458 1.24671L72.5718 1.21338L72.483 2.20944ZM72.857 2.24277L72.7683 3.23882C73.2482 3.28158 73.6987 3.1603 74.0988 2.9368L73.6111 2.0638L73.1233 1.19081C73.0167 1.25036 72.9646 1.24838 72.9458 1.24671L72.857 2.24277ZM73.6111 2.0638L74.0988 2.9368L74.4788 2.72451L73.991 1.85152L73.5033 0.978523L73.1233 1.19081L73.6111 2.0638ZM73.991 1.85152L74.4788 2.72451L74.8587 2.51222L74.371 1.63923L73.8833 0.766235L73.5033 0.978523L73.991 1.85152ZM74.371 1.63923L74.8587 2.51222C74.8471 2.51872 74.7865 2.54691 74.6937 2.54184C74.6029 2.53687 74.5534 2.50396 74.5548 2.50496L75.1203 1.68022L75.6859 0.855488C75.4411 0.687624 75.1435 0.563457 74.803 0.544826C74.4604 0.526086 74.1482 0.618207 73.8833 0.766235L74.371 1.63923ZM75.1203 1.68022L74.5548 2.50496L74.9242 2.75824L75.4897 1.9335L76.0552 1.10877L75.6859 0.855488L75.1203 1.68022ZM75.4897 1.9335L74.9242 2.75824L75.2936 3.01152L75.8591 2.18678L76.4246 1.36205L76.0552 1.10877L75.4897 1.9335ZM75.8591 2.18678L75.2936 3.01152C75.6609 3.26336 76.0813 3.43324 76.5455 3.46001L76.6031 2.46167L76.6607 1.46333C76.6254 1.4613 76.5498 1.44791 76.4246 1.36205L75.8591 2.18678ZM76.6031 2.46167L76.5455 3.46001L76.9201 3.48162L76.9777 2.48328L77.0353 1.48494L76.6607 1.46333L76.6031 2.46167ZM76.9777 2.48328L76.9201 3.48162L77.2947 3.50323L77.3523 2.50489L77.4099 1.50655L77.0353 1.48494L76.9777 2.48328ZM77.3523 2.50489L77.2947 3.50323C77.6122 3.52155 77.9297 3.50762 78.246 3.46203L78.1034 2.47226L77.9607 1.48248C77.7752 1.50922 77.5919 1.51705 77.4099 1.50655L77.3523 2.50489ZM78.1034 2.47226L78.246 3.46203L78.6224 3.40779L78.4798 2.41802L78.3371 1.42824L77.9607 1.48248L78.1034 2.47226ZM78.4798 2.41802L78.6224 3.40779L78.9988 3.35355L78.8562 2.36378L78.7135 1.374L78.3371 1.42824L78.4798 2.41802ZM78.8562 2.36378L78.9988 3.35355C79.1492 3.33187 79.2966 3.33334 79.4446 3.35757L79.6062 2.37071L79.7678 1.38385C79.4176 1.32651 79.065 1.32336 78.7135 1.374L78.8562 2.36378ZM79.6062 2.37071L79.4446 3.35757L79.8182 3.41874L79.9798 2.43188L80.1414 1.44503L79.7678 1.38385L79.6062 2.37071ZM79.9798 2.43188L79.8182 3.41874L80.1919 3.47992L80.3534 2.49306L80.515 1.5062L80.1414 1.44503L79.9798 2.43188ZM80.3534 2.49306L80.1919 3.47992C80.5686 3.5416 80.9467 3.52982 81.3194 3.44769L81.1042 2.47112L80.889 1.49455C80.7588 1.52324 80.6364 1.52608 80.515 1.5062L80.3534 2.49306ZM81.1042 2.47112L81.3194 3.44769L81.6966 3.36457L81.4814 2.388L81.2662 1.41143L80.889 1.49455L81.1042 2.47112ZM81.4814 2.388L81.6966 3.36457L82.0738 3.28146L81.8586 2.30489L81.6434 1.32832L81.2662 1.41143L81.4814 2.388ZM81.8586 2.30489L82.0738 3.28146C82.2021 3.25319 82.3225 3.25074 82.4422 3.27103L82.6093 2.2851L82.7764 1.29916C82.3981 1.23502 82.018 1.24576 81.6434 1.32832L81.8586 2.30489ZM82.6093 2.2851L82.4422 3.27103L82.8157 3.33436L82.9829 2.34842L83.15 1.36249L82.7764 1.29916L82.6093 2.2851ZM82.9829 2.34842L82.8157 3.33436L83.1893 3.39768L83.3564 2.41175L83.5236 1.42581L83.15 1.36249L82.9829 2.34842ZM83.3564 2.41175L83.1893 3.39768C83.4384 3.4399 83.6874 3.48212 83.9365 3.52434L84.1036 2.5384L84.2707 1.55247C84.0217 1.51025 83.7726 1.46803 83.5236 1.42581L83.3564 2.41175ZM84.1036 2.5384L83.9365 3.52434L84.3101 3.58767L84.4772 2.60173L84.6443 1.6158L84.2707 1.55247L84.1036 2.5384ZM84.4772 2.60173L84.3101 3.58767L84.6837 3.65099L84.8508 2.66506L85.0179 1.67912L84.6443 1.6158L84.4772 2.60173ZM84.8508 2.66506L84.6837 3.65099C85.2538 3.74764 85.7696 3.56775 86.1862 3.27118L85.6062 2.45654L85.0263 1.6419C84.9759 1.67774 84.9541 1.68238 84.9604 1.68064C84.9637 1.67973 84.9718 1.6779 84.9837 1.67726C84.9957 1.6766 85.0076 1.67737 85.0179 1.67912L84.8508 2.66506ZM85.6062 2.45654L86.1862 3.27118L86.568 2.99933L85.9881 2.18469L85.4081 1.37005L85.0263 1.6419L85.6062 2.45654ZM85.9881 2.18469L86.568 2.99933L86.9499 2.72748L86.3699 1.91284L85.7899 1.0982L85.4081 1.37005L85.9881 2.18469ZM86.3699 1.91284L86.9499 2.72748C86.9741 2.71024 86.9477 2.73569 86.8755 2.7449C86.8401 2.74941 86.8031 2.74864 86.7676 2.74258C86.7328 2.73661 86.7077 2.72695 86.6938 2.72035L87.1225 1.81689L87.5511 0.91342C86.9239 0.615822 86.2891 0.742864 85.7899 1.0982L86.3699 1.91284ZM87.1225 1.81689L86.6938 2.72035L87.0645 2.89625L87.4932 1.99278L87.9219 1.08931L87.5511 0.91342L87.1225 1.81689ZM87.4932 1.99278L87.0645 2.89625L87.4353 3.07214L87.8639 2.16867L88.2926 1.26521L87.9219 1.08931L87.4932 1.99278ZM87.8639 2.16867L87.4353 3.07214C87.568 3.13513 87.697 3.19256 87.8101 3.23418C87.8643 3.25412 87.9412 3.28034 88.0271 3.29923C88.0699 3.30866 88.1371 3.32127 88.2181 3.3255C88.2854 3.32903 88.4437 3.33219 88.6279 3.26582L88.2888 2.32504L87.9498 1.38427C88.0439 1.35036 88.1258 1.33717 88.1825 1.33157C88.2404 1.32584 88.2887 1.32646 88.3226 1.32824C88.388 1.33166 88.4362 1.34141 88.4568 1.34595C88.4982 1.35506 88.5175 1.36336 88.5009 1.35725C88.4723 1.34674 88.407 1.31947 88.2926 1.26521L87.8639 2.16867ZM88.2888 2.32504L88.6279 3.26582L88.682 3.2463L88.343 2.30552L88.004 1.36475L87.9498 1.38427L88.2888 2.32504ZM88.343 2.30552L89.3232 2.50341L89.3316 2.46194L88.3514 2.26406L87.3711 2.06618L87.3628 2.10764L88.343 2.30552ZM88.3514 2.26406L88.3272 3.26377L88.4272 3.26619L88.4513 2.26648L88.4755 1.26677L88.3755 1.26435L88.3514 2.26406Z" fill="var(--stroke-0, #FD9476)"/>
<path id="Vector 21" d="M0.185835 6.38126L0.325505 5.39106L0.212912 5.37518L0.0996277 5.38498L0.185835 6.38126ZM0.900543 6.48207L0.760873 7.47227L0.900543 6.48207ZM2.35024 6.43694L2.15548 5.45609L2.35024 6.43694ZM3.45291 6.21209L3.24308 5.23436L3.45291 6.21209ZM3.8206 6.13318L3.61076 5.15545L3.8206 6.13318ZM4.18829 6.05427L4.39812 7.03201L4.18829 6.05427ZM5.31199 6.06977L5.18808 7.06206L5.31199 6.06977ZM6.43932 6.10219L6.27466 5.11584L6.43932 6.10219ZM7.18194 5.97822L7.01728 4.99187L7.18194 5.97822ZM7.92207 5.76314L7.53871 4.83955L7.92207 5.76314ZM8.65973 5.45696L8.27636 4.53336L8.65973 5.45696ZM9.79029 5.51649L9.52143 6.47967L9.79029 5.51649ZM10.1712 5.6228L10.44 4.65962L10.1712 5.6228ZM11.2911 5.53714L11.0397 4.56926L11.2911 5.53714ZM12.4103 5.44106L12.1658 6.41069L12.4103 5.44106ZM13.1706 5.63283L13.4152 4.66319L13.1706 5.63283ZM13.9217 5.58763L13.5661 4.65297L13.9217 5.58763ZM14.2926 5.44655L13.937 4.51189L14.2926 5.44655ZM14.6634 5.30547L15.019 6.24013L14.6634 5.30547ZM15.4096 5.21302L15.5381 4.22131L15.4096 5.21302ZM15.7848 5.26165L15.6563 6.25336L15.7848 5.26165ZM16.1601 5.31028L16.2886 4.31857L16.1601 5.31028ZM16.9152 5.46757L17.1902 4.50614L16.9152 5.46757ZM17.6748 5.6849L17.3998 6.64633L17.6748 5.6849ZM18.4247 5.64338L18.8008 6.56997L18.4247 5.64338ZM19.1647 5.34301L19.5408 6.2696L19.1647 5.34301ZM19.9111 5.24963L19.7619 6.23844L19.9111 5.24963ZM22.1655 5.27227L22.0353 4.28079L22.1655 5.27227ZM23.2894 5.3147L23.1679 6.30729L23.2894 5.3147ZM24.4153 5.38955L24.3707 4.39054L24.4153 5.38955ZM24.7924 5.37271L24.7478 4.37371L24.7924 5.37271ZM25.9187 5.2864L26.0587 6.27655L25.9187 5.2864ZM26.2909 5.23377L26.1508 4.24363L26.2909 5.23377ZM27.4119 5.08597L27.2997 4.09229L27.4119 5.08597ZM27.7886 5.04343L27.6764 4.04975L27.7886 5.04343ZM28.1654 5.00089L28.2776 5.99458L28.1654 5.00089ZM28.9159 5.06111L28.6509 6.02534L28.9159 5.06111ZM29.6636 5.26664L29.9286 4.3024L29.6636 5.26664ZM30.4138 5.37655L30.3948 6.37637L30.4138 5.37655ZM31.1666 5.39085L31.1476 6.39067L31.1666 5.39085ZM32.2903 5.41505L32.2675 6.41479L32.2903 5.41505ZM33.4137 5.5041L33.6017 4.52193L33.4137 5.5041ZM34.1659 5.64809L34.3539 4.66592L34.1659 5.64809ZM35.2896 5.59677L35.4524 6.58344L35.2896 5.59677ZM35.6634 5.53512L35.5007 4.54845L35.6634 5.53512ZM36.4132 5.50842L36.5058 4.51272L36.4132 5.50842ZM36.7891 5.54338L36.6965 6.53909L36.7891 5.54338ZM37.165 5.57834L37.2576 4.58264L37.165 5.57834ZM37.9153 5.47253L37.5633 4.53653L37.9153 5.47253ZM38.6639 5.19099L39.0159 6.12699L38.6639 5.19099ZM40.1655 5.37505L39.8886 6.33595L40.1655 5.37505ZM40.9153 5.42956L41.0575 6.41939L40.9153 5.42956ZM41.6635 5.32204L41.5212 4.33221L41.6635 5.32204ZM43.1673 5.19163L43.0996 4.19392L43.1673 5.19163ZM43.9183 5.07438L43.6804 4.10309L43.9183 5.07438ZM44.6671 4.89099L44.4293 3.91969L44.6671 4.89099ZM45.4176 4.88089L45.2056 5.85815L45.4176 4.88089ZM46.1698 5.04409L46.3818 4.06682L46.1698 5.04409ZM46.9206 4.99612L46.5938 4.05101L46.9206 4.99612ZM47.6701 4.73699L47.3433 3.79189L47.6701 4.73699ZM48.4191 4.80064L47.9603 5.6892L48.4191 4.80064ZM48.7933 4.99385L49.252 4.10529L48.7933 4.99385ZM49.9175 5.23104L50.2865 6.16045L49.9175 5.23104ZM50.2933 5.08183L50.6623 6.01123L50.2933 5.08183ZM50.669 4.93261L50.3 4.0032L50.669 4.93261ZM51.4187 4.93021L51.7842 3.99941L51.4187 4.93021ZM51.7926 5.07704L51.4271 6.00785L51.7926 5.07704ZM52.1665 5.22387L52.532 4.29306L52.1665 5.22387ZM53.6642 5.39462L53.6429 6.39439L53.6642 5.39462ZM54.4123 5.51878L54.1152 6.47365L54.4123 5.51878ZM54.7858 5.63498L55.0828 4.68011L54.7858 5.63498ZM55.9113 5.63668L55.3909 4.78275L55.9113 5.63668ZM56.6684 5.17531L57.1888 6.02924L56.6684 5.17531ZM57.4185 5.15522L56.9255 6.02521L57.4185 5.15522ZM58.1617 5.5764L58.6547 4.70641L58.1617 5.5764ZM58.912 5.59301L59.3679 6.48308L58.912 5.59301ZM59.2908 5.39903L58.835 4.50896L59.2908 5.39903ZM59.6696 5.20504L59.2138 4.31497L59.6696 5.20504ZM60.4209 5.12603L60.126 6.08156L60.4209 5.12603ZM61.166 5.35597L61.4609 4.40045L61.166 5.35597ZM61.9157 5.39071L61.7077 4.41259L61.9157 5.39071ZM62.293 5.31047L62.501 6.2886L62.293 5.31047ZM62.6703 5.23024L62.4623 4.25211L62.6703 5.23024ZM63.4189 5.32244L63.8401 4.41544L63.4189 5.32244ZM64.1617 5.66731L64.5828 4.76032L64.1617 5.66731ZM64.9088 5.82071L64.8582 4.82199L64.9088 5.82071ZM65.6602 5.78264L65.7108 6.78136L65.6602 5.78264ZM66.4135 5.61886L66.0556 4.68513L66.4135 5.61886ZM66.7911 5.47411L66.4331 4.54038L66.7911 5.47411ZM67.1687 5.32937L67.5266 6.2631L67.1687 5.32937ZM68.6631 5.62799L68.2942 6.55743L68.6631 5.62799ZM69.4102 5.8082L69.3239 6.80448L69.4102 5.8082ZM69.7849 5.84063L69.8711 4.84435V4.84435L69.7849 5.84063ZM70.1596 5.87306L70.0734 6.86933L70.1596 5.87306ZM71.6712 5.26584L71.1809 4.39431L71.6712 5.26584ZM73.162 5.80984L72.5991 6.63636L73.162 5.80984ZM73.9068 6.08295L73.8515 7.08142L73.9068 6.08295ZM74.281 6.10365L74.3362 5.10518L74.281 6.10365ZM74.6551 6.12436L74.7104 5.12589L74.6551 6.12436ZM75.4057 6.08994L75.5506 7.07938L75.4057 6.08994ZM76.1586 5.97968L76.3035 6.96913L76.1586 5.97968ZM76.9087 5.98486L76.7495 6.97209L76.9087 5.98486ZM77.6562 6.10546L77.8155 5.11823L77.6562 6.10546ZM78.4068 6.08177L78.1893 5.10571L78.4068 6.08177ZM78.7837 5.99778L78.5661 5.02172L78.7837 5.99778ZM79.1605 5.91379L79.3781 6.88985L79.1605 5.91379ZM79.9113 5.89228L80.0761 4.90595L79.9113 5.89228ZM80.2852 5.95475L80.1203 6.94108L80.2852 5.95475ZM80.659 6.01723L80.4942 7.00355L80.659 6.01723ZM81.4065 6.14219L81.2416 7.12849L81.4065 6.14219ZM82.1537 6.26716L82.3187 5.28086L82.1537 6.26716ZM82.9087 6.05695L83.4904 6.87037L82.9087 6.05695ZM83.6713 5.51157L83.0896 4.69816L83.6713 5.51157ZM84.4238 5.41396L84.8505 4.50955L84.4238 5.41396ZM85.1661 5.76413L84.7394 6.66854L85.1661 5.76413ZM85.9142 5.85618L85.6991 4.87958L85.9142 5.85618ZM86.6682 5.6901L86.8833 6.66669L86.6682 5.6901ZM87.4173 5.74619L87.7676 4.80957L87.4173 5.74619ZM88.1612 6.02447L87.8109 6.9611L88.1612 6.02447ZM88.9065 6.24428L88.6952 7.22171L88.9065 6.24428ZM89.2797 6.32495L89.491 5.34752L89.2797 6.32495ZM89.653 6.40562L89.4417 7.38305L89.653 6.40562ZM90.8219 6.07813L90.3655 5.18836L90.8219 6.07813ZM91.0869 5.95237L92.0867 5.97569L91.0869 5.95237ZM91.0867 5.96267L91.2661 6.94644L92.0674 6.80029L92.0864 5.98599L91.0867 5.96267ZM90.9862 5.981L90.8068 4.99723L90.9634 6.98074L90.9862 5.981ZM0.0862068 6.38988L0.172414 7.38616L0.272041 7.37754L0.185835 6.38126L0.0996277 5.38498L0 5.3936L0.0862068 6.38988ZM0.185835 6.38126L0.0461645 7.37146L0.760873 7.47227L0.900543 6.48207L1.04021 5.49187L0.325505 5.39106L0.185835 6.38126ZM0.900543 6.48207L0.760873 7.47227C1.26537 7.54343 1.76245 7.57318 2.1775 7.49076L1.98274 6.50991L1.78799 5.52906C1.71305 5.54394 1.48866 5.55513 1.04021 5.49187L0.900543 6.48207ZM1.98274 6.50991L2.1775 7.49076L2.54499 7.41779L2.35024 6.43694L2.15548 5.45609L1.78799 5.52906L1.98274 6.50991ZM2.35024 6.43694L2.54499 7.41779L2.91249 7.34482L2.71773 6.36397L2.52297 5.38312L2.15548 5.45609L2.35024 6.43694ZM2.71773 6.36397L2.91249 7.34482C3.16253 7.29518 3.41262 7.24351 3.66274 7.18983L3.45291 6.21209L3.24308 5.23436C3.00295 5.28589 2.76291 5.33548 2.52297 5.38312L2.71773 6.36397ZM3.45291 6.21209L3.66274 7.18983L4.03043 7.11092L3.8206 6.13318L3.61076 5.15545L3.24308 5.23436L3.45291 6.21209ZM3.8206 6.13318L4.03043 7.11092L4.39812 7.03201L4.18829 6.05427L3.97845 5.07654L3.61076 5.15545L3.8206 6.13318ZM4.18829 6.05427L4.39812 7.03201C4.53216 7.00324 4.66787 6.9971 4.81007 7.01486L4.93398 6.02257L5.05789 5.03027C4.69608 4.98509 4.33466 5.00009 3.97845 5.07654L4.18829 6.05427ZM4.93398 6.02257L4.81007 7.01486L5.18808 7.06206L5.31199 6.06977L5.4359 5.07748L5.05789 5.03027L4.93398 6.02257ZM5.31199 6.06977L5.18808 7.06206L5.56609 7.10927L5.69 6.11697L5.81391 5.12468L5.4359 5.07748L5.31199 6.06977ZM5.69 6.11697L5.56609 7.10927C5.9129 7.15257 6.25989 7.14598 6.60397 7.08854L6.43932 6.10219L6.27466 5.11584C6.12366 5.14105 5.9711 5.14431 5.81391 5.12468L5.69 6.11697ZM6.43932 6.10219L6.60397 7.08854L6.97528 7.02656L6.81063 6.0402L6.64597 5.05385L6.27466 5.11584L6.43932 6.10219ZM6.81063 6.0402L6.97528 7.02656L7.34659 6.96457L7.18194 5.97822L7.01728 4.99187L6.64597 5.05385L6.81063 6.0402ZM7.18194 5.97822L7.34659 6.96457C7.67359 6.90998 7.99353 6.81621 8.30544 6.68674L7.92207 5.76314L7.53871 4.83955C7.35885 4.9142 7.18536 4.96381 7.01728 4.99187L7.18194 5.97822ZM7.92207 5.76314L8.30544 6.68674L8.67427 6.53364L8.2909 5.61005L7.90753 4.68645L7.53871 4.83955L7.92207 5.76314ZM8.2909 5.61005L8.67427 6.53364L9.04309 6.38055L8.65973 5.45696L8.27636 4.53336L7.90753 4.68645L8.2909 5.61005ZM8.65973 5.45696L9.04309 6.38055C9.08436 6.36342 9.10467 6.36334 9.14057 6.37336L9.40942 5.41017L9.67827 4.44699C9.20635 4.31527 8.72686 4.34636 8.27636 4.53336L8.65973 5.45696ZM9.40942 5.41017L9.14057 6.37336L9.52143 6.47967L9.79029 5.51649L10.0591 4.55331L9.67827 4.44699L9.40942 5.41017ZM9.79029 5.51649L9.52143 6.47967L9.9023 6.58598L10.1712 5.6228L10.44 4.65962L10.0591 4.55331L9.79029 5.51649ZM10.1712 5.6228L9.9023 6.58598C10.3198 6.70253 10.7495 6.71099 11.173 6.60101L10.9216 5.63313L10.6702 4.66524C10.6009 4.68324 10.5303 4.68482 10.44 4.65962L10.1712 5.6228ZM10.9216 5.63313L11.173 6.60101L11.5425 6.50503L11.2911 5.53714L11.0397 4.56926L10.6702 4.66524L10.9216 5.63313ZM11.2911 5.53714L11.5425 6.50503L11.912 6.40904L11.6606 5.44116L11.4092 4.47328L11.0397 4.56926L11.2911 5.53714ZM11.6606 5.44116L11.912 6.40904C11.9913 6.38844 12.0706 6.38669 12.1658 6.41069L12.4103 5.44106L12.6549 4.47143C12.2432 4.36758 11.8226 4.3659 11.4092 4.47328L11.6606 5.44116ZM12.4103 5.44106L12.1658 6.41069L12.5459 6.50658L12.7905 5.53694L13.035 4.56731L12.6549 4.47143L12.4103 5.44106ZM12.7905 5.53694L12.5459 6.50658L12.9261 6.60246L13.1706 5.63283L13.4152 4.66319L13.035 4.56731L12.7905 5.53694ZM13.1706 5.63283L12.9261 6.60246C13.381 6.71719 13.8407 6.68833 14.2772 6.52229L13.9217 5.58763L13.5661 4.65297C13.5081 4.67504 13.4672 4.67631 13.4152 4.66319L13.1706 5.63283ZM13.9217 5.58763L14.2772 6.52229L14.6481 6.38121L14.2926 5.44655L13.937 4.51189L13.5661 4.65297L13.9217 5.58763ZM14.2926 5.44655L14.6481 6.38121L15.019 6.24013L14.6634 5.30547L14.3079 4.3708L13.937 4.51189L14.2926 5.44655ZM14.6634 5.30547L15.019 6.24013C15.1198 6.20177 15.2025 6.19455 15.2811 6.20472L15.4096 5.21302L15.5381 4.22131C15.1163 4.16665 14.7016 4.22106 14.3079 4.3708L14.6634 5.30547ZM15.4096 5.21302L15.2811 6.20472L15.6563 6.25336L15.7848 5.26165L15.9134 4.26994L15.5381 4.22131L15.4096 5.21302ZM15.7848 5.26165L15.6563 6.25336L16.0316 6.30199L16.1601 5.31028L16.2886 4.31857L15.9134 4.26994L15.7848 5.26165ZM16.1601 5.31028L16.0316 6.30199C16.2301 6.32772 16.4328 6.3697 16.6401 6.42901L16.9152 5.46757L17.1902 4.50614C16.8911 4.42057 16.5904 4.35769 16.2886 4.31857L16.1601 5.31028ZM16.9152 5.46757L16.6401 6.42901L17.02 6.53767L17.295 5.57624L17.57 4.61481L17.1902 4.50614L16.9152 5.46757ZM17.295 5.57624L17.02 6.53767L17.3998 6.64633L17.6748 5.6849L17.9499 4.72347L17.57 4.61481L17.295 5.57624ZM17.6748 5.6849L17.3998 6.64633C17.8703 6.78095 18.3495 6.75314 18.8008 6.56997L18.4247 5.64338L18.0486 4.71679C18.0065 4.73386 17.9857 4.73373 17.9499 4.72347L17.6748 5.6849ZM18.4247 5.64338L18.8008 6.56997L19.1708 6.41978L18.7947 5.4932L18.4186 4.56661L18.0486 4.71679L18.4247 5.64338ZM18.7947 5.4932L19.1708 6.41978L19.5408 6.2696L19.1647 5.34301L18.7887 4.41642L18.4186 4.56661L18.7947 5.4932ZM19.1647 5.34301L19.5408 6.2696C19.6297 6.23354 19.6974 6.2287 19.7619 6.23844L19.9111 5.24963L20.0604 4.26083C19.6231 4.19483 19.1932 4.25225 18.7887 4.41642L19.1647 5.34301ZM19.9111 5.24963L19.7619 6.23844L20.1383 6.29524L20.2875 5.30644L20.4368 4.31763L20.0604 4.26083L19.9111 5.24963ZM20.2875 5.30644L20.1383 6.29524L20.5147 6.35204L20.6639 5.36324L20.8131 4.37443L20.4368 4.31763L20.2875 5.30644ZM20.6639 5.36324L20.5147 6.35204C20.8576 6.40379 21.2021 6.40737 21.5456 6.36227L21.4154 5.37078L21.2852 4.3793C21.1285 4.39987 20.9721 4.39842 20.8131 4.37443L20.6639 5.36324ZM21.4154 5.37078L21.5456 6.36227L21.9207 6.31302L21.7904 5.32153L21.6602 4.33004L21.2852 4.3793L21.4154 5.37078ZM21.7904 5.32153L21.9207 6.31302L22.2957 6.26376L22.1655 5.27227L22.0353 4.28079L21.6602 4.33004L21.7904 5.32153ZM22.1655 5.27227L22.2957 6.26376C22.4625 6.24186 22.6277 6.24115 22.7935 6.26145L22.915 5.26886L23.0365 4.27627C22.7031 4.23544 22.3687 4.23701 22.0353 4.28079L22.1655 5.27227ZM22.915 5.26886L22.7935 6.26145L23.1679 6.30729L23.2894 5.3147L23.4109 4.32211L23.0365 4.27627L22.915 5.26886ZM23.2894 5.3147L23.1679 6.30729L23.5423 6.35313L23.6638 5.36054L23.7853 4.36796L23.4109 4.32211L23.2894 5.3147ZM23.6638 5.36054L23.5423 6.35313C23.847 6.39044 24.1531 6.40225 24.4599 6.38855L24.4153 5.38955L24.3707 4.39054C24.1747 4.39929 23.9798 4.39176 23.7853 4.36796L23.6638 5.36054ZM24.4153 5.38955L24.4599 6.38855L24.837 6.37171L24.7924 5.37271L24.7478 4.37371L24.3707 4.39054L24.4153 5.38955ZM24.7924 5.37271L24.837 6.37171L25.2141 6.35488L25.1695 5.35587L25.1249 4.35687L24.7478 4.37371L24.7924 5.37271ZM25.1695 5.35587L25.2141 6.35488C25.4973 6.34223 25.7788 6.31613 26.0587 6.27655L25.9187 5.2864L25.7787 4.29626C25.5624 4.32685 25.3445 4.34706 25.1249 4.35687L25.1695 5.35587ZM25.9187 5.2864L26.0587 6.27655L26.4309 6.22392L26.2909 5.23377L26.1508 4.24363L25.7787 4.29626L25.9187 5.2864ZM26.2909 5.23377L26.4309 6.22392L26.803 6.17129L26.663 5.18114L26.523 4.191L26.1508 4.24363L26.2909 5.23377ZM26.663 5.18114L26.803 6.17129C27.0418 6.13752 27.2821 6.10698 27.5241 6.07966L27.4119 5.08597L27.2997 4.09229C27.0393 4.12169 26.7804 4.15459 26.523 4.191L26.663 5.18114ZM27.4119 5.08597L27.5241 6.07966L27.9008 6.03712L27.7886 5.04343L27.6764 4.04975L27.2997 4.09229L27.4119 5.08597ZM27.7886 5.04343L27.9008 6.03712L28.2776 5.99458L28.1654 5.00089L28.0532 4.00721L27.6764 4.04975L27.7886 5.04343ZM28.1654 5.00089L28.2776 5.99458C28.3994 5.98082 28.5216 5.9898 28.6509 6.02534L28.9159 5.06111L29.181 4.09688C28.8119 3.99541 28.4337 3.96424 28.0532 4.00721L28.1654 5.00089ZM28.9159 5.06111L28.6509 6.02534L29.0247 6.12811L29.2898 5.16387L29.5548 4.19964L29.181 4.09688L28.9159 5.06111ZM29.2898 5.16387L29.0247 6.12811L29.3985 6.23087L29.6636 5.26664L29.9286 4.3024L29.5548 4.19964L29.2898 5.16387ZM29.6636 5.26664L29.3985 6.23087C29.7256 6.32077 30.0583 6.36998 30.3948 6.37637L30.4138 5.37655L30.4328 4.37673C30.2675 4.37359 30.1 4.34952 29.9286 4.3024L29.6636 5.26664ZM30.4138 5.37655L30.3948 6.37637L30.7712 6.38352L30.7902 5.3837L30.8092 4.38388L30.4328 4.37673L30.4138 5.37655ZM30.7902 5.3837L30.7712 6.38352L31.1476 6.39067L31.1666 5.39085L31.1856 4.39103L30.8092 4.38388L30.7902 5.3837ZM31.1666 5.39085L31.1476 6.39067C31.3973 6.39541 31.6461 6.40061 31.8939 6.40627L31.9167 5.40653L31.9395 4.40679C31.6891 4.40108 31.4378 4.39582 31.1856 4.39103L31.1666 5.39085ZM31.9167 5.40653L31.8939 6.40627L32.2675 6.41479L32.2903 5.41505L32.3131 4.41531L31.9395 4.40679L31.9167 5.40653ZM32.2903 5.41505L32.2675 6.41479L32.6411 6.42332L32.6639 5.42358L32.6867 4.42384L32.3131 4.41531L32.2903 5.41505ZM32.6639 5.42358L32.6411 6.42332C32.8334 6.4277 33.0281 6.44844 33.2257 6.48627L33.4137 5.5041L33.6017 4.52193C33.2978 4.46376 32.9926 4.43082 32.6867 4.42384L32.6639 5.42358ZM33.4137 5.5041L33.2257 6.48627L33.6018 6.55826L33.7898 5.57609L33.9778 4.59392L33.6017 4.52193L33.4137 5.5041ZM33.7898 5.57609L33.6018 6.55826L33.9779 6.63026L34.1659 5.64809L34.3539 4.66592L33.9778 4.59392L33.7898 5.57609ZM34.1659 5.64809L33.9779 6.63026C34.3431 6.70016 34.7118 6.70559 35.0786 6.6451L34.9158 5.65843L34.7531 4.67176C34.6214 4.69348 34.4902 4.69201 34.3539 4.66592L34.1659 5.64809ZM34.9158 5.65843L35.0786 6.6451L35.4524 6.58344L35.2896 5.59677L35.1269 4.6101L34.7531 4.67176L34.9158 5.65843ZM35.2896 5.59677L35.4524 6.58344L35.8262 6.52179L35.6634 5.53512L35.5007 4.54845L35.1269 4.6101L35.2896 5.59677ZM35.6634 5.53512L35.8262 6.52179C35.9913 6.49455 36.1554 6.48877 36.3206 6.50413L36.4132 5.50842L36.5058 4.51272C36.1697 4.48147 35.834 4.49348 35.5007 4.54845L35.6634 5.53512ZM36.4132 5.50842L36.3206 6.50413L36.6965 6.53909L36.7891 5.54338L36.8817 4.54768L36.5058 4.51272L36.4132 5.50842ZM36.7891 5.54338L36.6965 6.53909L37.0724 6.57405L37.165 5.57834L37.2576 4.58264L36.8817 4.54768L36.7891 5.54338ZM37.165 5.57834L37.0724 6.57405C37.4827 6.6122 37.8846 6.55246 38.2673 6.40853L37.9153 5.47253L37.5633 4.53653C37.4469 4.5803 37.3485 4.59109 37.2576 4.58264L37.165 5.57834ZM37.9153 5.47253L38.2673 6.40853L38.6416 6.26776L38.2896 5.33176L37.9376 4.39576L37.5633 4.53653L37.9153 5.47253ZM38.2896 5.33176L38.6416 6.26776L39.0159 6.12699L38.6639 5.19099L38.3119 4.25499L37.9376 4.39576L38.2896 5.33176ZM38.6639 5.19099L39.0159 6.12699C39.0689 6.10706 39.0985 6.10826 39.1371 6.11939L39.414 5.15849L39.6909 4.1976C39.2286 4.06436 38.7581 4.08722 38.3119 4.25499L38.6639 5.19099ZM39.414 5.15849L39.1371 6.11939L39.5128 6.22767L39.7897 5.26677L40.0666 4.30588L39.6909 4.1976L39.414 5.15849ZM39.7897 5.26677L39.5128 6.22767L39.8886 6.33595L40.1655 5.37505L40.4424 4.41415L40.0666 4.30588L39.7897 5.26677ZM40.1655 5.37505L39.8886 6.33595C40.2703 6.44596 40.6631 6.47609 41.0575 6.41939L40.9153 5.42956L40.773 4.43973C40.6687 4.45473 40.5616 4.44851 40.4424 4.41415L40.1655 5.37505ZM40.9153 5.42956L41.0575 6.41939L41.4316 6.36563L41.2894 5.3758L41.1471 4.38597L40.773 4.43973L40.9153 5.42956ZM41.2894 5.3758L41.4316 6.36563L41.8057 6.31187L41.6635 5.32204L41.5212 4.33221L41.1471 4.38597L41.2894 5.3758ZM41.6635 5.32204L41.8057 6.31187C42.0304 6.27958 42.2558 6.25577 42.4818 6.24043L42.4142 5.24272L42.3465 4.24502C42.0704 4.26374 41.7953 4.29281 41.5212 4.33221L41.6635 5.32204ZM42.4142 5.24272L42.4818 6.24043L42.8584 6.21488L42.7907 5.21718L42.723 4.21947L42.3465 4.24502L42.4142 5.24272ZM42.7907 5.21718L42.8584 6.21488L43.235 6.18933L43.1673 5.19163L43.0996 4.19392L42.723 4.21947L42.7907 5.21718ZM43.1673 5.19163L43.235 6.18933C43.5446 6.16833 43.8519 6.1202 44.1562 6.04568L43.9183 5.07438L43.6804 4.10309C43.4855 4.15083 43.2921 4.18086 43.0996 4.19392L43.1673 5.19163ZM43.9183 5.07438L44.1562 6.04568L44.5306 5.95398L44.2927 4.98269L44.0548 4.01139L43.6804 4.10309L43.9183 5.07438ZM44.2927 4.98269L44.5306 5.95398L44.905 5.86228L44.6671 4.89099L44.4293 3.91969L44.0548 4.01139L44.2927 4.98269ZM44.6671 4.89099L44.905 5.86228C45.0073 5.83723 45.1036 5.83602 45.2056 5.85815L45.4176 4.88089L45.6297 3.90363C45.2302 3.81696 44.8262 3.82248 44.4293 3.91969L44.6671 4.89099ZM45.4176 4.88089L45.2056 5.85815L45.5817 5.93975L45.7937 4.96249L46.0057 3.98523L45.6297 3.90363L45.4176 4.88089ZM45.7937 4.96249L45.5817 5.93975L45.9577 6.02135L46.1698 5.04409L46.3818 4.06682L46.0057 3.98523L45.7937 4.96249ZM46.1698 5.04409L45.9577 6.02135C46.3932 6.11584 46.8298 6.08559 47.2473 5.94123L46.9206 4.99612L46.5938 4.05101C46.5117 4.0794 46.4477 4.08113 46.3818 4.06682L46.1698 5.04409ZM46.9206 4.99612L47.2473 5.94123L47.6221 5.81167L47.2953 4.86656L46.9686 3.92145L46.5938 4.05101L46.9206 4.99612ZM47.2953 4.86656L47.6221 5.81167L47.9968 5.6821L47.6701 4.73699L47.3433 3.79189L46.9686 3.92145L47.2953 4.86656ZM47.6701 4.73699L47.9968 5.6821C47.9984 5.68156 47.9948 5.68294 47.9868 5.68398C47.9786 5.68505 47.9693 5.68532 47.96 5.68453C47.9509 5.68375 47.9452 5.68224 47.9441 5.68189C47.9431 5.68161 47.9485 5.68309 47.9603 5.6892L48.4191 4.80064L48.8778 3.91208C48.4021 3.66649 47.8691 3.6101 47.3433 3.79189L47.6701 4.73699ZM48.4191 4.80064L47.9603 5.6892L48.3345 5.88241L48.7933 4.99385L49.252 4.10529L48.8778 3.91208L48.4191 4.80064ZM48.7933 4.99385L48.3345 5.88241L48.7087 6.07561L49.1675 5.18706L49.6262 4.2985L49.252 4.10529L48.7933 4.99385ZM49.1675 5.18706L48.7087 6.07561C49.203 6.33083 49.7546 6.37166 50.2865 6.16045L49.9175 5.23104L49.5484 4.30164C49.5469 4.30222 49.5519 4.30012 49.5626 4.29831C49.5735 4.29646 49.5867 4.29555 49.6006 4.29637C49.6145 4.29719 49.6249 4.29945 49.6308 4.30112C49.6363 4.30271 49.6349 4.30296 49.6262 4.2985L49.1675 5.18706ZM49.9175 5.23104L50.2865 6.16045L50.6623 6.01123L50.2933 5.08183L49.9242 4.15242L49.5484 4.30164L49.9175 5.23104ZM50.2933 5.08183L50.6623 6.01123L51.0381 5.86201L50.669 4.93261L50.3 4.0032L49.9242 4.15242L50.2933 5.08183ZM50.669 4.93261L51.0381 5.86201C51.048 5.85809 51.0529 5.85709 51.0533 5.85701C51.0536 5.85696 51.0513 5.85738 51.0475 5.85739C51.0437 5.85741 51.0412 5.85699 51.0407 5.85691C51.0404 5.85685 51.0444 5.85757 51.0532 5.86102L51.4187 4.93021L51.7842 3.99941C51.2971 3.80811 50.7846 3.81076 50.3 4.0032L50.669 4.93261ZM51.4187 4.93021L51.0532 5.86102L51.4271 6.00785L51.7926 5.07704L52.1581 4.14623L51.7842 3.99941L51.4187 4.93021ZM51.7926 5.07704L51.4271 6.00785L51.801 6.15467L52.1665 5.22387L52.532 4.29306L52.1581 4.14623L51.7926 5.07704ZM52.1665 5.22387L51.801 6.15467C52.1521 6.29254 52.5178 6.37044 52.8937 6.37844L52.915 5.37867L52.9363 4.37889C52.8128 4.37626 52.6795 4.35096 52.532 4.29306L52.1665 5.22387ZM52.915 5.37867L52.8937 6.37844L53.2683 6.38641L53.2896 5.38664L53.3109 4.38687L52.9363 4.37889L52.915 5.37867ZM53.2896 5.38664L53.2683 6.38641L53.6429 6.39439L53.6642 5.39462L53.6855 4.39484L53.3109 4.38687L53.2896 5.38664ZM53.6642 5.39462L53.6429 6.39439C53.795 6.39763 53.9516 6.42276 54.1152 6.47365L54.4123 5.51878L54.7093 4.56392C54.3749 4.45988 54.0328 4.40224 53.6855 4.39484L53.6642 5.39462ZM54.4123 5.51878L54.1152 6.47365L54.4887 6.58984L54.7858 5.63498L55.0828 4.68011L54.7093 4.56392L54.4123 5.51878ZM54.7858 5.63498L54.4887 6.58984L54.8622 6.70603L55.1593 5.75117L55.4563 4.79631L55.0828 4.68011L54.7858 5.63498ZM55.1593 5.75117L54.8622 6.70603C55.4238 6.88072 55.9704 6.77175 56.4317 6.49061L55.9113 5.63668L55.3909 4.78275C55.3594 4.80196 55.3581 4.79592 55.3836 4.79203C55.3957 4.79018 55.41 4.7895 55.4248 4.79066C55.4395 4.79182 55.4504 4.79445 55.4563 4.79631L55.1593 5.75117ZM55.9113 5.63668L56.4317 6.49061L56.8103 6.25992L56.2899 5.40599L55.7695 4.55207L55.3909 4.78275L55.9113 5.63668ZM56.2899 5.40599L56.8103 6.25992L57.1888 6.02924L56.6684 5.17531L56.148 4.32138L55.7695 4.55207L56.2899 5.40599ZM56.6684 5.17531L57.1888 6.02924C57.1932 6.02658 57.1507 6.05248 57.072 6.05459C56.9911 6.05675 56.9375 6.03204 56.9255 6.02521L57.4185 5.15522L57.9116 4.28523C57.6518 4.13801 57.3494 4.04644 57.0184 4.0553C56.6897 4.06411 56.396 4.17025 56.148 4.32138L56.6684 5.17531ZM57.4185 5.15522L56.9255 6.02521L57.297 6.2358L57.7901 5.36581L58.2832 4.49582L57.9116 4.28523L57.4185 5.15522ZM57.7901 5.36581L57.297 6.2358L57.6686 6.44639L58.1617 5.5764L58.6547 4.70641L58.2832 4.49582L57.7901 5.36581ZM58.1617 5.5764L57.6686 6.44639C58.2078 6.75198 58.8145 6.76647 59.3679 6.48308L58.912 5.59301L58.4562 4.70294C58.4554 4.70335 58.4649 4.69843 58.484 4.69373C58.5036 4.68889 58.5287 4.68546 58.5572 4.68609C58.6191 4.68746 58.6549 4.70647 58.6547 4.70641L58.1617 5.5764ZM58.912 5.59301L59.3679 6.48308L59.7466 6.28909L59.2908 5.39903L58.835 4.50896L58.4562 4.70294L58.912 5.59301ZM59.2908 5.39903L59.7466 6.28909L60.1254 6.09511L59.6696 5.20504L59.2138 4.31497L58.835 4.50896L59.2908 5.39903ZM59.6696 5.20504L60.1254 6.09511C60.1411 6.08709 60.1506 6.08378 60.1543 6.08266C60.1577 6.0816 60.1565 6.08228 60.1514 6.08281C60.1462 6.08336 60.14 6.08342 60.1339 6.08281C60.1279 6.0822 60.125 6.08124 60.126 6.08156L60.4209 5.12603L60.7158 4.1705C60.1943 4.00955 59.6751 4.07871 59.2138 4.31497L59.6696 5.20504ZM60.4209 5.12603L60.126 6.08156L60.4985 6.19653L60.7934 5.241L61.0883 4.28548L60.7158 4.1705L60.4209 5.12603ZM60.7934 5.241L60.4985 6.19653L60.8711 6.3115L61.166 5.35597L61.4609 4.40045L61.0883 4.28548L60.7934 5.241ZM61.166 5.35597L60.8711 6.3115C61.2805 6.43788 61.7036 6.4582 62.1238 6.36883L61.9157 5.39071L61.7077 4.41259C61.6249 4.4302 61.5481 4.42736 61.4609 4.40045L61.166 5.35597ZM61.9157 5.39071L62.1238 6.36883L62.501 6.2886L62.293 5.31047L62.085 4.33235L61.7077 4.41259L61.9157 5.39071ZM62.293 5.31047L62.501 6.2886L62.8783 6.20836L62.6703 5.23024L62.4623 4.25211L62.085 4.33235L62.293 5.31047ZM62.6703 5.23024L62.8783 6.20836C62.9044 6.20281 62.9338 6.19972 62.9978 6.22944L63.4189 5.32244L63.8401 4.41544C63.4089 4.21524 62.9392 4.15069 62.4623 4.25211L62.6703 5.23024ZM63.4189 5.32244L62.9978 6.22944L63.3692 6.40187L63.7903 5.49488L64.2114 4.58788L63.8401 4.41544L63.4189 5.32244ZM63.7903 5.49488L63.3692 6.40187L63.7405 6.57431L64.1617 5.66731L64.5828 4.76032L64.2114 4.58788L63.7903 5.49488ZM64.1617 5.66731L63.7405 6.57431C64.1223 6.75154 64.5325 6.84106 64.9594 6.81943L64.9088 5.82071L64.8582 4.82199C64.7841 4.82575 64.6963 4.81299 64.5828 4.76032L64.1617 5.66731ZM64.9088 5.82071L64.9594 6.81943L65.3351 6.8004L65.2845 5.80168L65.2339 4.80296L64.8582 4.82199L64.9088 5.82071ZM65.2845 5.80168L65.3351 6.8004L65.7108 6.78136L65.6602 5.78264L65.6097 4.78392L65.2339 4.80296L65.2845 5.80168ZM65.6602 5.78264L65.7108 6.78136C66.0742 6.76296 66.4288 6.68399 66.7715 6.5526L66.4135 5.61886L66.0556 4.68513C65.8949 4.74673 65.7473 4.77695 65.6097 4.78392L65.6602 5.78264ZM66.4135 5.61886L66.7715 6.5526L67.1491 6.40785L66.7911 5.47411L66.4331 4.54038L66.0556 4.68513L66.4135 5.61886ZM66.7911 5.47411L67.1491 6.40785L67.5266 6.2631L67.1687 5.32937L66.8107 4.39563L66.4331 4.54038L66.7911 5.47411ZM67.1687 5.32937L67.5266 6.2631C67.5372 6.25905 67.5429 6.25788 67.5441 6.25764C67.5452 6.25743 67.5438 6.25776 67.5409 6.25774C67.5379 6.25773 67.536 6.25739 67.5361 6.25741C67.5364 6.25746 67.5407 6.25832 67.5496 6.26185L67.9186 5.33241L68.2875 4.40296C67.8037 4.2109 67.2942 4.21027 66.8107 4.39563L67.1687 5.32937ZM67.9186 5.33241L67.5496 6.26185L67.9219 6.40964L68.2909 5.4802L68.6598 4.55075L68.2875 4.40296L67.9186 5.33241ZM68.2909 5.4802L67.9219 6.40964L68.2942 6.55743L68.6631 5.62799L69.0321 4.69854L68.6598 4.55075L68.2909 5.4802ZM68.6631 5.62799L68.2942 6.55743C68.627 6.68955 68.971 6.77394 69.3239 6.80448L69.4102 5.8082L69.4964 4.81193C69.3497 4.79923 69.1957 4.76348 69.0321 4.69854L68.6631 5.62799ZM69.4102 5.8082L69.3239 6.80448L69.6987 6.83691L69.7849 5.84063L69.8711 4.84435L69.4964 4.81193L69.4102 5.8082ZM69.7849 5.84063L69.6987 6.83691L70.0734 6.86933L70.1596 5.87306L70.2458 4.87678L69.8711 4.84435L69.7849 5.84063ZM70.1596 5.87306L70.0734 6.86933C70.5535 6.91088 71.0039 6.78871 71.4036 6.5638L70.9133 5.69227L70.4229 4.82074C70.3174 4.88011 70.2653 4.87847 70.2458 4.87678L70.1596 5.87306ZM70.9133 5.69227L71.4036 6.5638L71.7826 6.35058L71.2922 5.47905L70.8019 4.60752L70.4229 4.82074L70.9133 5.69227ZM71.2922 5.47905L71.7826 6.35058L72.1616 6.13736L71.6712 5.26584L71.1809 4.39431L70.8019 4.60752L71.2922 5.47905ZM71.6712 5.26584L72.1616 6.13736C72.1495 6.14417 72.0887 6.17251 71.9959 6.16766C71.9052 6.16292 71.856 6.13023 71.8579 6.13155L72.4208 5.30503L72.9837 4.4785C72.7386 4.31155 72.4408 4.18819 72.1003 4.17039C71.7577 4.15248 71.4456 4.24536 71.1809 4.39431L71.6712 5.26584ZM72.4208 5.30503L71.8579 6.13155L72.2285 6.38396L72.7914 5.55743L73.3543 4.73091L72.9837 4.4785L72.4208 5.30503ZM72.7914 5.55743L72.2285 6.38396L72.5991 6.63636L73.162 5.80984L73.7249 4.98331L73.3543 4.73091L72.7914 5.55743ZM73.162 5.80984L72.5991 6.63636C72.9669 6.88682 73.3875 7.05574 73.8515 7.08142L73.9068 6.08295L73.9621 5.08448C73.9272 5.08255 73.8513 5.0694 73.7249 4.98331L73.162 5.80984ZM73.9068 6.08295L73.8515 7.08142L74.2257 7.10213L74.281 6.10365L74.3362 5.10518L73.9621 5.08448L73.9068 6.08295ZM74.281 6.10365L74.2257 7.10213L74.5999 7.12283L74.6551 6.12436L74.7104 5.12589L74.3362 5.10518L74.281 6.10365ZM74.6551 6.12436L74.5999 7.12283C74.9172 7.14039 75.2344 7.12569 75.5506 7.07938L75.4057 6.08994L75.2608 5.10049C75.0751 5.12769 74.892 5.13593 74.7104 5.12589L74.6551 6.12436ZM75.4057 6.08994L75.5506 7.07938L75.9271 7.02426L75.7822 6.03481L75.6373 5.04537L75.2608 5.10049L75.4057 6.08994ZM75.7822 6.03481L75.9271 7.02426L76.3035 6.96913L76.1586 5.97968L76.0137 4.99024L75.6373 5.04537L75.7822 6.03481ZM76.1586 5.97968L76.3035 6.96913C76.454 6.94708 76.6015 6.94822 76.7495 6.97209L76.9087 5.98486L77.068 4.99763C76.7177 4.9411 76.365 4.93878 76.0137 4.99024L76.1586 5.97968ZM76.9087 5.98486L76.7495 6.97209L77.1232 7.03239L77.2825 6.04516L77.4418 5.05793L77.068 4.99763L76.9087 5.98486ZM77.2825 6.04516L77.1232 7.03239L77.4969 7.09269L77.6562 6.10546L77.8155 5.11823L77.4418 5.05793L77.2825 6.04516ZM77.6562 6.10546L77.4969 7.09269C77.8738 7.1535 78.2518 7.14084 78.6243 7.05783L78.4068 6.08177L78.1893 5.10571C78.0593 5.13469 77.9369 5.13782 77.8155 5.11823L77.6562 6.10546ZM78.4068 6.08177L78.6243 7.05783L79.0012 6.97384L78.7837 5.99778L78.5661 5.02172L78.1893 5.10571L78.4068 6.08177ZM78.7837 5.99778L79.0012 6.97384L79.3781 6.88985L79.1605 5.91379L78.943 4.93774L78.5661 5.02172L78.7837 5.99778ZM79.1605 5.91379L79.3781 6.88985C79.5061 6.86131 79.6265 6.85856 79.7465 6.8786L79.9113 5.89228L80.0761 4.90595C79.6976 4.84269 79.3175 4.85429 78.943 4.93774L79.1605 5.91379ZM79.9113 5.89228L79.7465 6.8786L80.1203 6.94108L80.2852 5.95475L80.45 4.96843L80.0761 4.90595L79.9113 5.89228ZM80.2852 5.95475L80.1203 6.94108L80.4942 7.00355L80.659 6.01723L80.8239 5.03091L80.45 4.96843L80.2852 5.95475ZM80.659 6.01723L80.4942 7.00355C80.7434 7.0452 80.9925 7.08685 81.2416 7.12849L81.4065 6.14219L81.5715 5.15589C81.3224 5.11423 81.0732 5.07257 80.8239 5.03091L80.659 6.01723ZM81.4065 6.14219L81.2416 7.12849L81.6152 7.19098L81.7801 6.20468L81.9451 5.21838L81.5715 5.15589L81.4065 6.14219ZM81.7801 6.20468L81.6152 7.19098L81.9888 7.25346L82.1537 6.26716L82.3187 5.28086L81.9451 5.21838L81.7801 6.20468ZM82.1537 6.26716L81.9888 7.25346C82.5592 7.34885 83.0745 7.16775 83.4904 6.87037L82.9087 6.05695L82.327 5.24354C82.2767 5.27953 82.2548 5.28424 82.261 5.2825C82.2643 5.28159 82.2725 5.27974 82.2844 5.27906C82.2964 5.27838 82.3083 5.27912 82.3187 5.28086L82.1537 6.26716ZM82.9087 6.05695L83.4904 6.87037L83.8717 6.59767L83.29 5.78426L82.7083 4.97085L82.327 5.24354L82.9087 6.05695ZM83.29 5.78426L83.8717 6.59767L84.253 6.32498L83.6713 5.51157L83.0896 4.69816L82.7083 4.97085L83.29 5.78426ZM83.6713 5.51157L84.253 6.32498C84.2772 6.30766 84.2509 6.33315 84.1787 6.34251C84.1434 6.3471 84.1064 6.34641 84.071 6.34043C84.0361 6.33454 84.011 6.32493 83.9971 6.31837L84.4238 5.41396L84.8505 4.50955C84.2226 4.21334 83.588 4.34177 83.0896 4.69816L83.6713 5.51157ZM84.4238 5.41396L83.9971 6.31837L84.3683 6.49346L84.7949 5.58905L85.2216 4.68463L84.8505 4.50955L84.4238 5.41396ZM84.7949 5.58905L84.3683 6.49346L84.7394 6.66854L85.1661 5.76413L85.5927 4.85972L85.2216 4.68463L84.7949 5.58905ZM85.1661 5.76413L84.7394 6.66854C85.1734 6.87329 85.6478 6.93881 86.1293 6.83277L85.9142 5.85618L85.6991 4.87958C85.6779 4.88426 85.6536 4.88842 85.5927 4.85972L85.1661 5.76413ZM85.9142 5.85618L86.1293 6.83277L86.5063 6.74973L86.2912 5.77314L86.0761 4.79654L85.6991 4.87958L85.9142 5.85618ZM86.2912 5.77314L86.5063 6.74973L86.8833 6.66669L86.6682 5.6901L86.4532 4.7135L86.0761 4.79654L86.2912 5.77314ZM86.6682 5.6901L86.8833 6.66669C86.9407 6.65407 86.9941 6.65558 87.0669 6.68282L87.4173 5.74619L87.7676 4.80957C87.3444 4.65129 86.8985 4.61541 86.4532 4.7135L86.6682 5.6901ZM87.4173 5.74619L87.0669 6.68282L87.4389 6.82196L87.7893 5.88533L88.1396 4.9487L87.7676 4.80957L87.4173 5.74619ZM87.7893 5.88533L87.4389 6.82196L87.8109 6.9611L88.1612 6.02447L88.5116 5.08784L88.1396 4.9487L87.7893 5.88533ZM88.1612 6.02447L87.8109 6.9611C88.1024 7.07013 88.3973 7.15731 88.6952 7.22171L88.9065 6.24428L89.1177 5.26685C88.9181 5.22369 88.7161 5.16433 88.5116 5.08784L88.1612 6.02447ZM88.9065 6.24428L88.6952 7.22171L89.0685 7.30238L89.2797 6.32495L89.491 5.34752L89.1177 5.26685L88.9065 6.24428ZM89.2797 6.32495L89.0685 7.30238L89.4417 7.38305L89.653 6.40562L89.8642 5.42819L89.491 5.34752L89.2797 6.32495ZM89.653 6.40562L89.4417 7.38305C89.8519 7.47171 90.3133 7.46293 90.7478 7.24001L90.2914 6.35024L89.835 5.46047C89.8515 5.45202 89.8677 5.4459 89.8823 5.4418C89.8968 5.43774 89.9074 5.43632 89.9128 5.43586C89.9229 5.43498 89.909 5.43788 89.8642 5.42819L89.653 6.40562ZM90.2914 6.35024L90.7478 7.24001L91.0131 7.10395L90.5567 6.21418L90.1003 5.32441L89.835 5.46047L90.2914 6.35024ZM90.5567 6.21418L91.0131 7.10395L91.2783 6.9679L90.8219 6.07813L90.3655 5.18836L90.1003 5.32441L90.5567 6.21418ZM90.8219 6.07813L91.2783 6.9679C91.3649 6.9235 91.4199 6.89615 91.4495 6.8821C91.468 6.87334 91.4604 6.87748 91.4399 6.88564C91.4383 6.88625 91.388 6.90706 91.3186 6.92389C91.3031 6.92766 91.1777 6.96062 91.0156 6.94918C90.9404 6.94388 90.7254 6.92201 90.5073 6.7669C90.2234 6.56512 90.0799 6.24392 90.0872 5.92905L91.0869 5.95237L92.0867 5.97569C92.094 5.6604 91.9503 5.33886 91.6661 5.13684C91.4476 4.9815 91.2321 4.95949 91.1563 4.95414C90.9927 4.9426 90.8653 4.97584 90.847 4.98028C90.7722 4.99844 90.7136 5.02211 90.7011 5.0271C90.6585 5.04402 90.6178 5.06302 90.5921 5.07522C90.5334 5.10309 90.4558 5.14205 90.3655 5.18836L90.8219 6.07813ZM91.0869 5.95237L90.0872 5.92905L90.087 5.93935L91.0867 5.96267L92.0864 5.98599L92.0867 5.97569L91.0869 5.95237ZM91.0867 5.96267L90.9073 4.9789L90.8068 4.99723L90.9862 5.981L91.1657 6.96477L91.2661 6.94644L91.0867 5.96267ZM90.9862 5.981L90.9634 6.98074L91.0634 6.98302L91.0862 5.98327L91.109 4.98353L91.009 4.98126L90.9862 5.981Z" fill="var(--stroke-0, #FD9476)"/>
</g>
</svg>
