<svg width="90" height="90" viewBox="0 0 90 90" fill="none" xmlns="http://www.w3.org/2000/svg">
<path d="M11.6973 56.0081C10.6394 56.3259 10.0395 57.4411 10.3573 58.499C10.6751 59.5569 11.7902 60.1568 12.8481 59.839L12.2727 57.9236L11.6973 56.0081ZM12.4642 57.866L13.0397 59.7815L13.5461 59.6293L13.9112 59.2468L12.4642 57.866ZM13.0811 57.2197L14.528 58.6004L14.528 58.6004L13.0811 57.2197ZM13.2909 57.1042L13.3193 59.104H13.3193L13.2909 57.1042ZM13.8634 57.0961L13.8351 55.0963H13.8351L13.8634 57.0961ZM14.4359 57.0879L14.4643 59.0877H14.4643L14.4359 57.0879ZM14.5991 57.0089L16.1604 58.2588L16.1604 58.2588L14.5991 57.0089ZM14.951 56.5693L13.3897 55.3194L13.3897 55.3194L14.951 56.5693ZM15.303 56.1296L16.8643 57.3795L16.8643 57.3795L15.303 56.1296ZM15.4413 55.9993L16.5793 57.644L16.5793 57.644L15.4413 55.9993ZM15.8728 55.7007L14.7348 54.056L14.7348 54.0561L15.8728 55.7007ZM16.3044 55.4021L17.4424 57.0467L17.4425 57.0467L16.3044 55.4021ZM16.4774 55.3481L16.5035 57.3479L16.5035 57.3479L16.4774 55.3481ZM17.026 55.3409L16.9999 53.3411H16.9999L17.026 55.3409ZM17.5746 55.3338L17.6008 57.3336H17.6008L17.5746 55.3338ZM17.7568 55.3043L18.3837 57.2035L18.3837 57.2035L17.7568 55.3043ZM18.2406 55.1446L17.6138 53.2454L17.6138 53.2454L18.2406 55.1446ZM18.7245 54.985L19.3513 56.8842L19.3513 56.8842L18.7245 54.985ZM18.8871 54.9001L20.0707 56.5122L20.0707 56.5122L18.8871 54.9001ZM19.3248 54.5787L18.1411 52.9666L18.1411 52.9666L19.3248 54.5787ZM19.7625 54.2573L20.9461 55.8694L20.9462 55.8694L19.7625 54.2573ZM19.9307 54.1893L20.1772 56.1741L20.1772 56.1741L19.9307 54.1893ZM20.4463 54.1253L20.1998 52.1405H20.1998L20.4463 54.1253ZM20.9618 54.0613L21.2083 56.046L21.2083 56.046L20.9618 54.0613ZM21.1516 54.0811L20.5508 55.9887L20.5508 55.9887L21.1516 54.0811ZM21.7117 54.2575L22.3125 52.3499H22.3125L21.7117 54.2575ZM22.2718 54.4339L21.6711 56.3415L21.6711 56.3415L22.2718 54.4339ZM22.446 54.3776L23.9615 55.6827L23.9615 55.6826L22.446 54.3776ZM22.8728 53.8819L21.3573 52.5768L21.3573 52.5768L22.8728 53.8819ZM23.2996 53.3863L24.8152 54.6914L24.8152 54.6914L23.2996 53.3863ZM23.4683 53.3087L23.2575 55.2976L23.2575 55.2976L23.4683 53.3087ZM23.9972 53.3648L24.208 51.3759H24.208L23.9972 53.3648ZM24.5261 53.4208L24.3153 55.4097L24.3153 55.4097L24.5261 53.4208ZM24.7068 53.3924L25.5104 55.2239L25.5104 55.2239L24.7068 53.3924ZM25.2022 53.175L24.3987 51.3436L24.3987 51.3436L25.2022 53.175ZM25.6976 52.9577L26.5012 54.7892L26.5012 54.7892L25.6976 52.9577ZM25.8791 52.9666L24.981 54.7536L24.981 54.7536L25.8791 52.9666ZM26.4121 53.2345L27.3102 51.4474L27.3102 51.4474L26.4121 53.2345ZM26.9451 53.5023L26.0471 55.2894L26.0471 55.2894L26.9451 53.5023ZM27.1285 53.5323L27.5081 55.496L27.5082 55.496L27.1285 53.5323ZM27.6345 53.4345L27.2549 51.4709H27.2549L27.6345 53.4345ZM28.1406 53.3366L28.5203 55.3003L28.5203 55.3003L28.1406 53.3366ZM28.3203 53.3058L28.6181 55.2835L28.6182 55.2835L28.3203 53.3058ZM28.8329 53.2286L28.535 51.2509L28.535 51.2509L28.8329 53.2286ZM29.3454 53.1514L29.6432 55.1291L29.6432 55.1291L29.3454 53.1514ZM29.5281 53.1145L30.0178 55.0536L30.0178 55.0536L29.5281 53.1145ZM30.0508 52.9825L29.5611 51.0434H29.5611L30.0508 52.9825ZM30.5735 52.8505L31.0632 54.7896L31.0632 54.7896L30.5735 52.8505ZM30.7493 52.9121L29.3235 54.3147L29.3235 54.3147L30.7493 52.9121ZM31.2226 53.3932L32.6483 51.9906H32.6483L31.2226 53.3932ZM31.6959 53.8743L30.2702 55.2769L30.2702 55.2769L31.6959 53.8743ZM31.8782 53.8933L32.9886 55.5567L32.9886 55.5567L31.8782 53.8933ZM32.4377 53.5198L31.3272 51.8564L31.3272 51.8564L32.4377 53.5198ZM32.9972 53.1462L34.1077 54.8096L34.1077 54.8096L32.9972 53.1462ZM33.1791 53.1355L32.0735 54.8021L32.0735 54.8021L33.1791 53.1355ZM33.6507 53.4484L34.7563 51.7817L34.7563 51.7817L33.6507 53.4484ZM34.1223 53.7612L33.0167 55.4278L33.0167 55.4278L34.1223 53.7612ZM34.2989 53.8107L34.4215 55.8069H34.4215L34.2989 53.8107ZM34.8282 53.7782L34.7057 51.7819L34.7057 51.7819L34.8282 53.7782ZM35.3575 53.7457L35.4801 55.7419L35.4801 55.7419L35.3575 53.7457ZM35.5237 53.822L34.0274 55.1491V55.1491L35.5237 53.822ZM35.936 54.2868L37.4323 52.9598V52.9598L35.936 54.2868ZM36.3483 54.7517L34.852 56.0788V56.0788L36.3483 54.7517ZM36.5298 54.7793L37.4258 56.5673L37.4258 56.5673L36.5298 54.7793ZM37.1459 54.4705L36.2498 52.6825L36.2498 52.6825L37.1459 54.4705ZM37.7619 54.1618L38.658 55.9499L38.658 55.9499L37.7619 54.1618ZM37.9506 54.157L36.8941 55.8553L36.8942 55.8553L37.9506 54.157ZM38.4033 54.4387L39.4597 52.7404L39.4597 52.7404L38.4033 54.4387ZM38.8561 54.7203L37.7997 56.4185L37.7997 56.4186L38.8561 54.7203ZM39.0179 54.8098L38.1443 56.6089L38.1443 56.6089L39.0179 54.8098ZM39.4824 55.0354L40.3561 53.2363L40.3561 53.2363L39.4824 55.0354ZM39.9469 55.2609L39.0732 57.06L39.0732 57.06L39.9469 55.2609ZM40.1155 55.3281L39.5131 57.2352L39.5131 57.2352L40.1155 55.3281ZM40.6066 55.4832L41.209 53.5761L41.209 53.5761L40.6066 55.4832ZM41.0977 55.6383L40.4952 57.5455L40.4953 57.5455L41.0977 55.6383ZM41.2435 55.7525L42.8963 54.6263L42.8963 54.6263L41.2435 55.7525ZM41.5786 56.2443L39.9258 57.3705V57.3705L41.5786 56.2443ZM41.9137 56.7362L43.5665 55.61L43.5665 55.61L41.9137 56.7362ZM42.0708 56.827L41.9883 58.8253L41.9883 58.8253L42.0708 56.827ZM42.6257 56.8499L42.7082 54.8516H42.7082L42.6257 56.8499ZM43.1807 56.8728L43.0982 58.8711L43.0982 58.8711L43.1807 56.8728ZM43.3593 56.9174L42.4614 58.7045L42.4614 58.7045L43.3593 56.9174ZM43.8166 57.1471L44.7145 55.3601L44.7145 55.3601L43.8166 57.1471ZM44.2738 57.3769L43.3758 59.164L43.3758 59.164L44.2738 57.3769ZM44.4064 57.5064L46.1338 56.4984L46.1338 56.4984L44.4064 57.5064ZM44.7007 58.0107L42.9733 59.0188L42.9733 59.0188L44.7007 58.0107ZM44.995 58.515L46.7224 57.507L46.7224 57.507L44.995 58.515ZM45.1582 58.5912L45.3881 60.5779L45.3881 60.5779L45.1582 58.5912ZM45.7884 58.5182L45.5585 56.5315H45.5585L45.7884 58.5182ZM46.4186 58.4453L46.6485 60.4321L46.6485 60.432L46.4186 58.4453ZM46.5993 58.4927L45.2894 60.004L45.2894 60.004L46.5993 58.4927ZM46.9934 58.8343L48.3034 57.323V57.323L46.9934 58.8343ZM47.3875 59.1759L46.0776 60.6872L46.0776 60.6872L47.3875 59.1759ZM47.5282 59.2973L46.2248 60.8142V60.8142L47.5282 59.2973ZM47.9313 59.6437L49.2348 58.1268V58.1268L47.9313 59.6437ZM48.3345 59.9901L47.031 61.507H47.031L48.3345 59.9901ZM48.5025 60.0536L48.4533 62.053H48.4533L48.5025 60.0536ZM49.0516 60.0672L49.1009 58.0678H49.1009L49.0516 60.0672ZM49.6007 60.0807L49.5515 62.0801H49.5515L49.6007 60.0807ZM49.7823 60.1119L49.1372 62.005L49.1372 62.005L49.7823 60.1119ZM50.2623 60.2755L50.9075 58.3824L50.9075 58.3824L50.2623 60.2755ZM50.7423 60.4391L50.0971 62.3322L50.0971 62.3322L50.7423 60.4391ZM50.8939 60.5533L52.468 59.3196L52.468 59.3196L50.8939 60.5533ZM51.2728 61.0368L49.6987 62.2705V62.2705L51.2728 61.0368ZM51.6518 61.5203L53.2259 60.2866L53.2259 60.2866L51.6518 61.5203ZM51.8275 61.5546L52.6763 63.3656L52.6763 63.3656L51.8275 61.5546ZM52.4445 61.2655L51.5958 59.4545L51.5958 59.4545L52.4445 61.2655ZM53.0615 60.9763L53.9103 62.7873L53.9103 62.7873L53.0615 60.9763ZM53.24 61.0175L54.8368 59.8133L54.8368 59.8133L53.24 61.0175ZM53.6342 61.5402L52.0374 62.7445L52.0374 62.7445L53.6342 61.5402ZM54.0284 62.063L55.6252 60.8587L55.6252 60.8587L54.0284 62.063ZM54.1895 62.163L54.0187 64.1557L54.0187 64.1557L54.1895 62.163ZM54.7082 62.2075L54.879 60.2148H54.879L54.7082 62.2075ZM55.2268 62.252L55.056 64.2447H55.056L55.2268 62.252ZM55.4181 62.2089L56.3267 63.9906L56.3268 63.9906L55.4181 62.2089ZM55.9836 61.9206L55.0749 60.1389L55.0749 60.1389L55.9836 61.9206ZM56.549 61.6322L57.4576 63.4139L57.4576 63.4139L56.549 61.6322ZM56.7362 61.5946L56.4361 63.5719H56.4361L56.7362 61.5946ZM57.2317 61.6698L57.5318 59.6924H57.5318L57.2317 61.6698ZM57.7272 61.745L57.4271 63.7223H57.4272L57.7272 61.745ZM57.8979 61.8308L59.2121 60.3231V60.3231L57.8979 61.8308ZM58.3692 62.2416L57.055 63.7492V63.7492L58.3692 62.2416ZM58.8405 62.6524L60.1547 61.1448H60.1547L58.8405 62.6524ZM59.0154 62.7054L59.4326 64.6614L59.4326 64.6614L59.0154 62.7054ZM59.535 62.5945L59.1177 60.6385L59.1177 60.6385L59.535 62.5945ZM60.0546 62.4837L60.4719 64.4397L60.4719 64.4397L60.0546 62.4837ZM60.2363 62.4635L60.2495 64.4635H60.2496L60.2363 62.4635ZM60.746 62.4601L60.7327 60.4602H60.7327L60.746 62.4601ZM61.2557 62.4567L61.269 64.4567H61.269L61.2557 62.4567ZM61.4361 62.465L61.2403 64.4554L61.2403 64.4554L61.4361 62.465ZM61.9491 62.5155L62.145 60.5251H62.145L61.9491 62.5155ZM62.4621 62.566L62.2663 64.5564L62.2663 64.5564L62.4621 62.566ZM62.6439 62.5749L62.6436 64.5749H62.6436L62.6439 62.5749ZM63.1613 62.575L63.1616 60.575H63.1616L63.1613 62.575ZM63.6787 62.5751L63.6784 64.5751H63.6784L63.6787 62.5751ZM63.8626 62.5749L63.866 64.5749H63.866L63.8626 62.5749ZM64.3878 62.574L64.3845 60.574H64.3845L64.3878 62.574ZM64.913 62.5732L64.9163 64.5732H64.9163L64.913 62.5732ZM65.0809 62.4962L66.5095 63.8959L66.5095 63.8959L65.0809 62.4962ZM65.5077 62.0607L64.0791 60.6609L64.0791 60.6609L65.5077 62.0607ZM65.9344 61.6252L67.3629 63.0249L67.3629 63.0249L65.9344 61.6252ZM66.1014 61.5453L66.1675 63.5442L66.1675 63.5442L66.1014 61.5453ZM66.6215 61.5281L66.5555 59.5292H66.5555L66.6215 61.5281ZM67.1416 61.5109L67.2076 63.5098H67.2077L67.1416 61.5109ZM67.3069 61.4464L68.5898 62.9807L68.5899 62.9807L67.3069 61.4464ZM67.7238 61.0978L66.4409 59.5635L66.4409 59.5635L67.7238 61.0978ZM68.1407 60.7492L69.4237 62.2835L69.4237 62.2835L68.1407 60.7492ZM68.3157 60.7037L68.0028 62.6791H68.0029L68.3157 60.7037ZM68.8904 60.7948L69.2033 58.8194H69.2033L68.8904 60.7948ZM69.4652 60.8858L69.1523 62.8612L69.1523 62.8612L69.4652 60.8858ZM69.645 60.8557L70.6588 62.5797L70.6589 62.5797L69.645 60.8557ZM70.0896 60.5943L69.0758 58.8703L69.0758 58.8703L70.0896 60.5943ZM70.5342 60.3328L71.548 62.0568L71.548 62.0568L70.5342 60.3328ZM70.6942 60.2488L71.5373 62.0624L71.5374 62.0624L70.6942 60.2488ZM71.1563 60.0339L70.3132 58.2204L70.3132 58.2204L71.1563 60.0339ZM71.6185 59.8191L72.4616 61.6327L72.4617 61.6326L71.6185 59.8191ZM71.771 59.7224L73.0461 61.2632L73.0462 61.2632L71.771 59.7224ZM72.1736 59.3892L70.8985 57.8484L70.8985 57.8484L72.1736 59.3892ZM72.5762 59.056L73.8513 60.5969L73.8514 60.5968L72.5762 59.056ZM72.7307 58.9636L73.4798 60.818L73.4798 60.818L72.7307 58.9636ZM73.2032 58.7727L72.4541 56.9183L72.4541 56.9183L73.2032 58.7727ZM73.6758 58.5818L74.4249 60.4362L74.425 60.4362L73.6758 58.5818ZM73.8423 58.5129L74.6219 60.3547L74.622 60.3547L73.8423 58.5129ZM74.3131 58.3136L73.5334 56.4718L73.5334 56.4718L74.3131 58.3136ZM74.784 58.1143L75.5636 59.956L75.5637 59.956L74.784 58.1143ZM74.9477 58.039L75.8383 59.8297L75.8383 59.8297L74.9477 58.039ZM75.4048 57.8116L74.5142 56.0209L74.5142 56.0209L75.4048 57.8116ZM75.8619 57.5843L76.7526 59.375L76.7526 59.375L75.8619 57.5843ZM76.0122 57.4852L77.305 59.0112L77.305 59.0112L76.0122 57.4852ZM76.4064 57.1512L75.1136 55.6252L75.1136 55.6252L76.4064 57.1512ZM76.8007 56.8172L78.0935 58.3432L78.0935 58.3431L76.8007 56.8172ZM76.9183 56.7123L78.3011 58.1572L78.3012 58.1571L76.9183 56.7123ZM77.1903 56.4519L75.8074 55.007L75.8074 55.007L77.1903 56.4519ZM77.4624 56.1914L78.8453 57.6363L78.8454 57.6362L77.4624 56.1914ZM77.5267 56.1721L79.2329 55.1286L79.2329 55.1285L77.5267 56.1721ZM77.6188 56.3227L79.5312 56.9083L79.7948 56.0474L79.3251 55.2793L77.6188 56.3227ZM77.5417 56.5747L75.6293 55.9891L74.4033 59.9933L78.2883 58.4301L77.5417 56.5747ZM78.4738 58.3554C79.4985 57.9431 79.995 56.7782 79.5827 55.7534C79.1704 54.7287 78.0054 54.2322 76.9807 54.6446L77.7272 56.5L78.4738 58.3554ZM11.6973 29.161C10.6394 29.4788 10.0395 30.594 10.3573 31.6518C10.6751 32.7097 11.7902 33.3097 12.8481 32.9919L12.2727 31.0764L11.6973 29.161ZM12.4642 31.0189L13.0397 32.9343L13.1129 32.9123L13.1842 32.8848L12.4642 31.0189ZM13.2689 30.7085L13.9888 32.5744L13.9888 32.5744L13.2689 30.7085ZM13.4811 30.5946L14.7686 32.1251L14.7686 32.1251L13.4811 30.5946ZM13.8789 30.2599L12.5914 28.7294L12.5914 28.7294L13.8789 30.2599ZM14.2768 29.9252L15.5643 31.4556L15.5643 31.4556L14.2768 29.9252ZM14.4153 29.7991L15.815 31.2277L15.815 31.2277L14.4153 29.7991ZM14.8026 29.4197L13.403 27.9911L13.403 27.9911L14.8026 29.4197ZM15.1899 29.0402L16.5896 30.4688L16.5896 30.4688L15.1899 29.0402ZM15.3408 28.9339L16.2007 30.7397L16.2007 30.7397L15.3408 28.9339ZM15.8084 28.7113L14.9486 26.9055L14.9486 26.9055L15.8084 28.7113ZM16.2761 28.4886L17.136 30.2943L17.136 30.2943L16.2761 28.4886ZM16.4422 28.4119L17.2583 30.2378L17.2583 30.2378L16.4422 28.4119ZM16.916 28.2001L16.1 26.3742L16.1 26.3742L16.916 28.2001ZM17.3898 27.9884L18.2059 29.8143L18.2059 29.8143L17.3898 27.9884ZM17.5604 27.9223L18.1868 29.8217L18.1868 29.8217L17.5604 27.9223ZM18.0531 27.7599L17.4266 25.8605L17.4266 25.8605L18.0531 27.7599ZM18.5457 27.5974L19.1721 29.4967L19.1721 29.4967L18.5457 27.5974ZM18.7429 27.6216L19.6082 25.8185L19.6082 25.8185L18.7429 27.6216ZM19.3677 27.9215L18.5024 29.7246L18.5024 29.7246L19.3677 27.9215ZM19.9925 28.2213L20.8578 26.4182L20.8578 26.4182L19.9925 28.2213ZM20.1795 28.2163L21.3848 29.8123L21.3848 29.8123L20.1795 28.2163ZM20.6144 27.8879L19.4091 26.2918L19.4091 26.2918L20.6144 27.8879ZM21.0492 27.5595L22.2545 29.1555L22.2545 29.1555L21.0492 27.5595ZM21.2112 27.4708L21.8892 29.3524L21.8892 29.3524L21.2112 27.4708ZM21.6944 27.2967L21.0165 25.4151L21.0165 25.4151L21.6944 27.2967ZM22.1776 27.1226L22.8556 29.0042L22.8556 29.0042L22.1776 27.1226ZM22.352 27.0782L22.6552 29.0551L22.6552 29.0551L22.352 27.0782ZM22.8569 27.0008L22.5537 25.0239L22.5537 25.0239L22.8569 27.0008ZM23.3617 26.9234L23.665 28.9002L23.665 28.9002L23.3617 26.9234ZM23.5366 26.8706L24.3658 28.6906L24.3658 28.6906L23.5366 26.8706ZM24.0228 26.6491L23.1936 24.8291L23.1936 24.8291L24.0228 26.6491ZM24.5089 26.4277L25.3381 28.2477L25.3381 28.2477L24.5089 26.4277ZM24.6898 26.4314L25.51 24.6073L25.51 24.6073L24.6898 26.4314ZM25.2292 26.6738L24.409 28.498L24.409 28.498L25.2292 26.6738ZM25.7685 26.9163L26.5886 25.0922L26.5886 25.0922L25.7685 26.9163ZM25.9501 26.907L26.9821 28.6202L26.9821 28.6202L25.9501 26.907ZM26.4403 26.6117L25.4083 24.8985L25.4083 24.8985L26.4403 26.6117ZM26.9305 26.3164L27.9625 28.0296L27.9625 28.0296L26.9305 26.3164ZM27.1079 26.2733L27.3044 24.283H27.3044L27.1079 26.2733ZM27.6229 26.3241L27.4264 28.3145V28.3145L27.6229 26.3241ZM28.1379 26.375L28.3344 24.3847H28.3344L28.1379 26.375ZM28.3187 26.3996L28.662 24.4293L28.662 24.4293L28.3187 26.3996ZM28.8285 26.4885L28.4852 28.4588V28.4588L28.8285 26.4885ZM29.3383 26.5773L29.6816 24.607L29.6816 24.607L29.3383 26.5773ZM29.5191 26.578L29.8432 28.5516L29.8432 28.5516L29.5191 26.578ZM30.034 26.4935L29.71 24.5199V24.5199L30.034 26.4935ZM30.5489 26.409L30.8729 28.3825L30.8729 28.3825L30.5489 26.409ZM30.7248 26.4522L31.8536 24.8013L31.8536 24.8012L30.7248 26.4522ZM31.2067 26.7817L30.0778 28.4327L30.0778 28.4327L31.2067 26.7817ZM31.6886 27.1112L32.8175 25.4603L32.8175 25.4603L31.6886 27.1112ZM31.8664 27.1449L32.376 29.079L32.376 29.079L31.8664 27.1449ZM32.3922 27.0064L31.8827 25.0724V25.0724L32.3922 27.0064ZM32.9181 26.8679L33.4276 28.8019L33.4276 28.8019L32.9181 26.8679ZM33.0973 26.8703L33.6902 24.9602L33.6902 24.9602L33.0973 26.8703ZM33.5875 27.0224L32.9946 28.9325L32.9946 28.9325L33.5875 27.0224ZM34.0776 27.1746L34.6705 25.2645L34.6705 25.2645L34.0776 27.1746ZM34.2489 27.2322L34.9307 25.352L34.9307 25.352L34.2489 27.2322ZM34.7293 27.4064L34.0475 29.2866V29.2866L34.7293 27.4064ZM35.2097 27.5806L35.8915 25.7004L35.8915 25.7004L35.2097 27.5806ZM35.3862 27.6111L35.3896 29.6111V29.6111L35.3862 27.6111ZM35.9064 27.6103L35.9031 25.6103V25.6103L35.9064 27.6103ZM36.4266 27.6094L36.43 29.6094H36.43L36.4266 27.6094ZM36.6066 27.6275L37.0121 25.669L37.0121 25.669L36.6066 27.6275ZM37.106 27.7309L36.7004 29.6893V29.6893L37.106 27.7309ZM37.6054 27.8343L38.0109 25.8758L38.0109 25.8758L37.6054 27.8343ZM37.7703 27.9057L38.9081 26.2609L38.9081 26.2609L37.7703 27.9057ZM38.2058 28.2069L37.068 29.8517L37.068 29.8517L38.2058 28.2069ZM38.6412 28.5081L39.779 26.8633L39.779 26.8633L38.6412 28.5081ZM38.8217 28.5395L39.2333 30.4967L39.2333 30.4967L38.8217 28.5395ZM39.4086 28.416L38.997 26.4589L38.997 26.4589L39.4086 28.416ZM39.9956 28.2926L40.4073 30.2497L40.4073 30.2497L39.9956 28.2926ZM40.1883 28.2938L40.6881 26.3572L40.6881 26.3572L40.1883 28.2938ZM40.6935 28.4242L40.1938 30.3607V30.3607L40.6935 28.4242ZM41.1988 28.5545L41.6985 26.618L41.6985 26.618L41.1988 28.5545ZM41.3438 28.6729L43.0693 27.6617L43.0693 27.6617L41.3438 28.6729ZM41.6605 29.2134L39.935 30.2246L39.935 30.2246L41.6605 29.2134ZM41.9772 29.7538L43.7028 28.7426L43.7028 28.7426L41.9772 29.7538ZM42.1257 29.8644L42.4489 27.8906L42.4489 27.8906L42.1257 29.8644ZM42.6502 29.9502L42.3271 31.924H42.3271L42.6502 29.9502ZM43.1748 30.0361L43.4979 28.0624L43.4979 28.0624L43.1748 30.0361ZM43.3595 30.0717L43.7912 28.1188L43.7912 28.1188L43.3595 30.0717ZM43.8821 30.1872L43.4503 32.14L43.4503 32.14L43.8821 30.1872ZM44.4046 30.3027L44.8363 28.3498V28.3498L44.4046 30.3027ZM44.5751 30.3683L45.5752 28.6363L45.5752 28.6363L44.5751 30.3683ZM45.0188 30.6245L44.0187 32.3565L44.0187 32.3565L45.0188 30.6245ZM45.4625 30.8807L46.4626 29.1487L46.4626 29.1487L45.4625 30.8807ZM45.6109 30.9829L46.8725 29.431L46.8725 29.431L45.6109 30.9829ZM46.0081 31.3058L44.7464 32.8576L44.7464 32.8576L46.0081 31.3058ZM46.4052 31.6287L47.6669 30.0768L47.6669 30.0768L46.4052 31.6287ZM46.5446 31.7472L47.8726 30.2517L47.8726 30.2517L46.5446 31.7472ZM46.9373 32.0959L45.6094 33.5914L45.6094 33.5914L46.9373 32.0959ZM47.33 32.4446L48.658 30.949L48.6579 30.949L47.33 32.4446ZM47.4729 32.5626L48.6916 30.9768L48.6916 30.9768L47.4729 32.5626ZM47.8899 32.8832L46.6713 34.469V34.469L47.8899 32.8832ZM48.307 33.2037L49.5257 31.6179L49.5257 31.6179L48.307 33.2037ZM48.4754 33.2684L48.3044 35.261H48.3044L48.4754 33.2684ZM49.0125 33.3145L49.1836 31.3218H49.1836L49.0125 33.3145ZM49.5497 33.3606L49.3787 35.3532L49.3787 35.3532L49.5497 33.3606ZM49.7208 33.4224L50.872 31.787L50.872 31.7869L49.7208 33.4224ZM50.153 33.7267L49.0018 35.3621V35.3621L50.153 33.7267ZM50.5853 34.031L51.7366 32.3955L51.7366 32.3955L50.5853 34.031ZM50.7611 34.0707L51.039 36.0513L51.039 36.0513L50.7611 34.0707ZM51.3251 33.9916L51.0472 32.011L51.0472 32.011L51.3251 33.9916ZM51.8891 33.9125L52.167 35.8931L52.167 35.8931L51.8891 33.9125ZM52.0773 33.9118L51.7809 35.8897H51.7809L52.0773 33.9118ZM52.5798 33.9871L52.8763 32.0092V32.0092L52.5798 33.9871ZM53.0824 34.0624L52.786 36.0403V36.0403L53.0824 34.0624ZM53.2388 34.1758L54.8953 33.0552L54.8953 33.0552L53.2388 34.1758ZM53.6226 34.7432L51.9661 35.8638L51.9661 35.8638L53.6226 34.7432ZM54.0064 35.3105L55.663 34.1899L55.663 34.1899L54.0064 35.3105ZM54.1646 35.4259L53.8331 37.3982V37.3982L54.1646 35.4259ZM54.677 35.512L55.0085 33.5396V33.5396L54.677 35.512ZM55.1894 35.5981L54.8579 37.5704V37.5704L55.1894 35.5981ZM55.3728 35.6104L55.4342 37.6095L55.4342 37.6095L55.3728 35.6104ZM55.8999 35.5942L55.8385 33.5952L55.8385 33.5952L55.8999 35.5942ZM56.427 35.578L56.4884 37.5771H56.4884L56.427 35.578ZM56.6136 35.5559L57.0175 37.5147L57.0175 37.5147L56.6136 35.5559ZM57.1441 35.4465L56.7402 33.4877L56.7402 33.4877L57.1441 35.4465ZM57.6745 35.3372L58.0783 37.296L58.0783 37.296L57.6745 35.3372ZM57.8554 35.3523L58.5889 33.4917L58.5889 33.4917L57.8554 35.3523ZM58.3497 35.5472L57.6161 37.4078L57.6161 37.4078L58.3497 35.5472ZM58.8441 35.7421L59.5777 33.8815L59.5777 33.8815L58.8441 35.7421ZM59.024 35.7256L59.9881 37.4778L59.9881 37.4778L59.024 35.7256ZM59.5488 35.4368L58.5847 33.6845L58.5847 33.6845L59.5488 35.4368ZM60.0736 35.148L61.0378 36.9003L61.0378 36.9003L60.0736 35.148ZM60.2547 35.1408L61.1406 33.3477L61.1406 33.3476L60.2547 35.1408ZM60.7559 35.3884L59.87 37.1815L59.87 37.1815L60.7559 35.3884ZM61.2571 35.636L62.143 33.8429L62.143 33.8429L61.2571 35.636ZM61.4316 35.6316L62.4076 37.3773L62.4076 37.3773L61.4316 35.6316ZM61.9194 35.3589L60.9435 33.6132L60.9434 33.6132L61.9194 35.3589ZM62.4071 35.0863L63.383 36.832L63.3831 36.832L62.4071 35.0863ZM62.5861 35.0682L63.2012 33.1651L63.2012 33.1651L62.5861 35.0682ZM63.1129 35.2384L62.4978 37.1415V37.1415L63.1129 35.2384ZM63.6396 35.4087L64.2547 33.5056L64.2547 33.5056L63.6396 35.4087ZM63.813 35.3834L64.9456 37.0319L64.9456 37.0319L63.813 35.3834ZM64.2691 35.0701L63.1366 33.4216L63.1366 33.4216L64.2691 35.0701ZM64.7252 34.7567L65.8578 36.4051L65.8578 36.4051L64.7252 34.7567ZM64.9047 34.7339L65.529 32.8339L65.529 32.8339L64.9047 34.7339ZM65.4655 34.9182L64.8412 36.8183V36.8183L65.4655 34.9182ZM66.0263 35.1025L66.6506 33.2024L66.6506 33.2024L66.0263 35.1025ZM66.199 35.0627L67.598 36.4921L67.598 36.4921L66.199 35.0627ZM66.6173 34.6534L65.2183 33.2241L65.2183 33.2241L66.6173 34.6534ZM67.0355 34.2441L68.4344 35.6734L68.4344 35.6734L67.0355 34.2441ZM67.2172 34.2208L68.0431 32.3993L68.0431 32.3993L67.2172 34.2208ZM67.8288 34.4981L67.0029 36.3196V36.3196L67.8288 34.4981ZM68.4403 34.7754L69.2662 32.9539L69.2662 32.9539L68.4403 34.7754ZM68.632 34.7881L69.4253 36.624L69.4253 36.624L68.632 34.7881ZM69.1063 34.5832L68.3129 32.7472L68.3129 32.7472L69.1063 34.5832ZM69.5806 34.3782L70.3739 36.2141L70.374 36.2141L69.5806 34.3782ZM69.7366 34.2742L71.1046 35.7332L71.1046 35.7331L69.7366 34.2742ZM70.1466 33.8898L68.7786 32.4308L68.7786 32.4308L70.1466 33.8898ZM70.5566 33.5054L71.9246 34.9643L71.9246 34.9643L70.5566 33.5054ZM70.7312 33.4563L71.0923 31.4892L71.0923 31.4892L70.7312 33.4563ZM71.3107 33.5627L70.9496 35.5298V35.5298L71.3107 33.5627ZM71.8903 33.6691L72.2514 31.702L72.2514 31.702L71.8903 33.6691ZM72.0763 33.6534L72.8379 35.5027L72.8379 35.5027L72.0763 33.6534ZM72.5506 33.4581L71.789 31.6088L71.789 31.6088L72.5506 33.4581ZM73.025 33.2627L73.7866 35.112L73.7866 35.112L73.025 33.2627ZM73.1801 33.1622L74.5379 34.6307L74.5379 34.6307L73.1801 33.1622ZM73.585 32.7878L72.2272 31.3193L72.2272 31.3193L73.585 32.7878ZM73.9899 32.4135L75.3476 33.882L75.3476 33.882L73.9899 32.4135ZM74.1591 32.3513L74.0808 34.3497V34.3497L74.1591 32.3513ZM74.7135 32.373L74.7918 30.3745V30.3745L74.7135 32.373ZM75.2679 32.3947L75.1896 34.3932H75.1896L75.2679 32.3947ZM75.4326 32.3211L76.9463 33.6283L76.9463 33.6283L75.4326 32.3211ZM75.8114 31.8825L74.2976 30.5753L74.2976 30.5753L75.8114 31.8825ZM76.1901 31.4438L77.7039 32.751L77.7039 32.751L76.1901 31.4438ZM76.3463 31.3487L76.7352 33.3105L76.7352 33.3105L76.3463 31.3487ZM76.8521 31.2484L76.4632 29.2866V29.2866L76.8521 31.2484ZM77.3579 31.1482L77.7469 33.11L77.7469 33.11L77.3579 31.1482ZM77.4682 31.1264L77.8471 33.0902L77.8471 33.0902L77.4682 31.1264ZM77.5872 31.1034L78.5847 32.837L77.2083 29.1397L77.5872 31.1034ZM77.5355 31.1332L76.538 29.3997L78.1034 33.0509L77.5355 31.1332ZM78.2952 32.9941C79.3543 32.6804 79.9586 31.5676 79.6449 30.5085C79.3313 29.4494 78.2184 28.8451 77.1593 29.1588L77.7272 31.0764L78.2952 32.9941ZM12.2727 57.9236L12.8481 59.839L13.0397 59.7815L12.4642 57.866L11.8888 55.9506L11.6973 56.0081L12.2727 57.9236ZM12.4642 57.866L13.9112 59.2468L14.528 58.6004L13.0811 57.2197L11.6341 55.8389L11.0173 56.4853L12.4642 57.866ZM13.0811 57.2197L14.528 58.6004C14.4325 58.7005 14.0243 59.094 13.3193 59.104L13.2909 57.1042L13.2626 55.1044C12.4229 55.1163 11.8748 55.5868 11.6341 55.8389L13.0811 57.2197ZM13.2909 57.1042L13.3193 59.104L13.8918 59.0959L13.8634 57.0961L13.8351 55.0963L13.2626 55.1044L13.2909 57.1042ZM13.8634 57.0961L13.8918 59.0959L14.4643 59.0877L14.4359 57.0879L14.4076 55.0881L13.8351 55.0963L13.8634 57.0961ZM14.4359 57.0879L14.4643 59.0877C15.1175 59.0785 15.7385 58.7859 16.1604 58.2588L14.5991 57.0089L13.0377 55.759C13.1849 55.5752 13.3897 55.3962 13.6554 55.2675C13.9202 55.1392 14.1827 55.0913 14.4076 55.0881L14.4359 57.0879ZM14.5991 57.0089L16.1604 58.2588L16.5124 57.8192L14.951 56.5693L13.3897 55.3194L13.0377 55.759L14.5991 57.0089ZM14.951 56.5693L16.5124 57.8192L16.8643 57.3795L15.303 56.1296L13.7416 54.8797L13.3897 55.3194L14.951 56.5693ZM15.303 56.1296L16.8643 57.3795C16.7934 57.4681 16.6992 57.561 16.5793 57.644L15.4413 55.9993L14.3032 54.3547C14.0817 54.5079 13.8954 54.6876 13.7416 54.8797L15.303 56.1296ZM15.4413 55.9993L16.5793 57.644L17.0109 57.3453L15.8728 55.7007L14.7348 54.0561L14.3032 54.3547L15.4413 55.9993ZM15.8728 55.7007L17.0109 57.3453L17.4424 57.0467L16.3044 55.4021L15.1664 53.7574L14.7348 54.056L15.8728 55.7007ZM16.3044 55.4021L17.4425 57.0467C17.1508 57.2485 16.8176 57.3438 16.5035 57.3479L16.4774 55.3481L16.4513 53.3483C16.0081 53.354 15.5596 53.4853 15.1663 53.7574L16.3044 55.4021ZM16.4774 55.3481L16.5035 57.3479L17.0521 57.3408L17.026 55.3409L16.9999 53.3411L16.4512 53.3483L16.4774 55.3481ZM17.026 55.3409L17.0521 57.3408L17.6008 57.3336L17.5746 55.3338L17.5485 53.3339L16.9999 53.3411L17.026 55.3409ZM17.5746 55.3338L17.6008 57.3336C17.8538 57.3303 18.1185 57.2911 18.3837 57.2035L17.7568 55.3043L17.13 53.4051C17.2814 53.3551 17.4245 53.3355 17.5485 53.3339L17.5746 55.3338ZM17.7568 55.3043L18.3837 57.2035L18.8675 57.0439L18.2406 55.1446L17.6138 53.2454L17.13 53.4051L17.7568 55.3043ZM18.2406 55.1446L18.8675 57.0439L19.3513 56.8842L18.7245 54.985L18.0976 53.0857L17.6138 53.2454L18.2406 55.1446ZM18.7245 54.985L19.3513 56.8842C19.6205 56.7953 19.861 56.6662 20.0707 56.5122L18.8871 54.9001L17.7034 53.2879C17.8101 53.2096 17.9422 53.137 18.0976 53.0857L18.7245 54.985ZM18.8871 54.9001L20.0707 56.5122L20.5084 56.1908L19.3248 54.5787L18.1411 52.9666L17.7034 53.2879L18.8871 54.9001ZM19.3248 54.5787L20.5084 56.1908L20.9461 55.8694L19.7625 54.2573L18.5788 52.6452L18.1411 52.9666L19.3248 54.5787ZM19.7625 54.2573L20.9462 55.8694C20.7351 56.0244 20.4712 56.1376 20.1772 56.1741L19.9307 54.1893L19.6843 52.2045C19.2689 52.2561 18.8928 52.4147 18.5788 52.6452L19.7625 54.2573ZM19.9307 54.1893L20.1772 56.1741L20.6927 56.11L20.4463 54.1253L20.1998 52.1405L19.6842 52.2045L19.9307 54.1893ZM20.4463 54.1253L20.6927 56.11L21.2083 56.046L20.9618 54.0613L20.7154 52.0765L20.1998 52.1405L20.4463 54.1253ZM20.9618 54.0613L21.2083 56.046C20.9493 56.0782 20.7228 56.0429 20.5508 55.9887L21.1516 54.0811L21.7524 52.1735C21.4486 52.0778 21.0956 52.0293 20.7153 52.0765L20.9618 54.0613ZM21.1516 54.0811L20.5508 55.9887L21.1109 56.1651L21.7117 54.2575L22.3125 52.3499L21.7524 52.1735L21.1516 54.0811ZM21.7117 54.2575L21.1109 56.1651L21.6711 56.3415L22.2718 54.4339L22.8726 52.5263L22.3125 52.3499L21.7117 54.2575ZM22.2718 54.4339L21.6711 56.3415C22.0456 56.4595 22.5051 56.492 22.9803 56.3383C23.4389 56.19 23.7589 55.918 23.9615 55.6827L22.446 54.3776L20.9305 53.0725C21.083 52.8954 21.3487 52.662 21.7493 52.5325C22.1665 52.3975 22.564 52.4291 22.8726 52.5263L22.2718 54.4339ZM22.446 54.3776L23.9615 55.6826L24.3883 55.187L22.8728 53.8819L21.3573 52.5768L20.9305 53.0725L22.446 54.3776ZM22.8728 53.8819L24.3883 55.187L24.8152 54.6914L23.2996 53.3863L21.7841 52.0812L21.3573 52.5768L22.8728 53.8819ZM23.2996 53.3863L24.8152 54.6914C24.6974 54.8281 24.5032 55.0077 24.2152 55.1402C23.9124 55.2794 23.5801 55.3318 23.2575 55.2976L23.4683 53.3087L23.6791 51.3199C22.8109 51.2278 22.1513 51.6549 21.7841 52.0812L23.2996 53.3863ZM23.4683 53.3087L23.2575 55.2976L23.7864 55.3536L23.9972 53.3648L24.208 51.3759L23.6791 51.3199L23.4683 53.3087ZM23.9972 53.3648L23.7864 55.3536L24.3153 55.4097L24.5261 53.4208L24.7369 51.432L24.208 51.3759L23.9972 53.3648ZM24.5261 53.4208L24.3153 55.4097C24.7297 55.4536 25.1392 55.3867 25.5104 55.2239L24.7068 53.3924L23.9033 51.5609C24.158 51.4492 24.4469 51.4012 24.7369 51.432L24.5261 53.4208ZM24.7068 53.3924L25.5104 55.2239L26.0058 55.0065L25.2022 53.175L24.3987 51.3436L23.9033 51.5609L24.7068 53.3924ZM25.2022 53.175L26.0058 55.0065L26.5012 54.7892L25.6976 52.9577L24.894 51.1262L24.3987 51.3436L25.2022 53.175ZM25.6976 52.9577L26.5012 54.7892C26.2615 54.8943 25.9834 54.9528 25.6885 54.9383C25.3996 54.9241 25.1595 54.8433 24.981 54.7536L25.8791 52.9666L26.7772 51.1796C26.2441 50.9117 25.5583 50.8348 24.894 51.1262L25.6976 52.9577ZM25.8791 52.9666L24.981 54.7536L25.514 55.0215L26.4121 53.2345L27.3102 51.4474L26.7771 51.1796L25.8791 52.9666ZM26.4121 53.2345L25.514 55.0215L26.0471 55.2894L26.9451 53.5023L27.8432 51.7153L27.3102 51.4474L26.4121 53.2345ZM26.9451 53.5023L26.0471 55.2894C26.4397 55.4867 26.9487 55.6041 27.5081 55.496L27.1285 53.5323L26.7488 51.5687C27.1892 51.4836 27.576 51.581 27.8432 51.7153L26.9451 53.5023ZM27.1285 53.5323L27.5082 55.496L28.0142 55.3981L27.6345 53.4345L27.2549 51.4709L26.7488 51.5687L27.1285 53.5323ZM27.6345 53.4345L28.0142 55.3981L28.5203 55.3003L28.1406 53.3366L27.7609 51.373L27.2549 51.4709L27.6345 53.4345ZM28.1406 53.3366L28.5203 55.3003C28.5525 55.2941 28.5851 55.2884 28.6181 55.2835L28.3203 53.3058L28.0225 51.3281C27.935 51.3412 27.8478 51.3562 27.7609 51.373L28.1406 53.3366ZM28.3203 53.3058L28.6182 55.2835L29.1307 55.2063L28.8329 53.2286L28.535 51.2509L28.0225 51.3281L28.3203 53.3058ZM28.8329 53.2286L29.1307 55.2063L29.6432 55.1291L29.3454 53.1514L29.0476 51.1737L28.535 51.2509L28.8329 53.2286ZM29.3454 53.1514L29.6432 55.1291C29.7706 55.1099 29.8955 55.0845 30.0178 55.0536L29.5281 53.1145L29.0384 51.1754C29.0376 51.1755 29.0408 51.1747 29.0476 51.1737L29.3454 53.1514ZM29.5281 53.1145L30.0178 55.0536L30.5405 54.9216L30.0508 52.9825L29.5611 51.0434L29.0384 51.1754L29.5281 53.1145ZM30.0508 52.9825L30.5405 54.9216L31.0632 54.7896L30.5735 52.8505L30.0838 50.9113L29.5611 51.0434L30.0508 52.9825ZM30.5735 52.8505L31.0632 54.7896C30.7222 54.8757 30.3515 54.8641 30.002 54.7416C29.674 54.6267 29.4521 54.4454 29.3235 54.3147L30.7493 52.9121L32.175 51.5095C31.767 51.0947 31.0137 50.6765 30.0838 50.9114L30.5735 52.8505ZM30.7493 52.9121L29.3235 54.3147L29.7969 54.7958L31.2226 53.3932L32.6483 51.9906L32.175 51.5095L30.7493 52.9121ZM31.2226 53.3932L29.7969 54.7958L30.2702 55.2769L31.6959 53.8743L33.1216 52.4717L32.6483 51.9906L31.2226 53.3932ZM31.6959 53.8743L30.2702 55.2769C30.5247 55.5356 30.9604 55.8466 31.576 55.9107C32.1926 55.975 32.6844 55.7598 32.9886 55.5567L31.8782 53.8933L30.7677 52.2299C31.0061 52.0707 31.4346 51.8744 31.9904 51.9323C32.5453 51.9901 32.9228 52.2696 33.1216 52.4717L31.6959 53.8743ZM31.8782 53.8933L32.9886 55.5567L33.5482 55.1831L32.4377 53.5198L31.3272 51.8564L30.7677 52.2299L31.8782 53.8933ZM32.4377 53.5198L33.5482 55.1831L34.1077 54.8096L32.9972 53.1462L31.8867 51.4828L31.3272 51.8564L32.4377 53.5198ZM32.9972 53.1462L34.1077 54.8096C33.9323 54.9266 33.6258 55.0826 33.2096 55.1071C32.7653 55.1333 32.3704 54.9991 32.0735 54.8021L33.1791 53.1355L34.2847 51.4689C33.9324 51.2351 33.4794 51.0843 32.9745 51.114C32.4976 51.1421 32.1278 51.3219 31.8867 51.4829L32.9972 53.1462ZM33.1791 53.1355L32.0735 54.8021L32.5451 55.115L33.6507 53.4484L34.7563 51.7817L34.2847 51.4689L33.1791 53.1355ZM33.6507 53.4484L32.5451 55.115L33.0167 55.4278L34.1223 53.7612L35.2279 52.0946L34.7563 51.7817L33.6507 53.4484ZM34.1223 53.7612L33.0167 55.4278C33.4089 55.688 33.8948 55.8392 34.4215 55.8069L34.2989 53.8107L34.1764 51.8144C34.5786 51.7897 34.9467 51.908 35.2279 52.0946L34.1223 53.7612ZM34.2989 53.8107L34.4215 55.8069L34.9508 55.7744L34.8282 53.7782L34.7057 51.7819L34.1764 51.8144L34.2989 53.8107ZM34.8282 53.7782L34.9508 55.7744L35.4801 55.7419L35.3575 53.7457L35.2349 51.7494L34.7057 51.7819L34.8282 53.7782ZM35.3575 53.7457L35.4801 55.7419C35.1904 55.7597 34.8902 55.7076 34.6111 55.5794C34.3416 55.4556 34.1512 55.2887 34.0274 55.1491L35.5237 53.822L37.0199 52.4949C36.6422 52.069 36.0205 51.7012 35.2349 51.7494L35.3575 53.7457ZM35.5237 53.822L34.0274 55.1491L34.4397 55.6139L35.936 54.2868L37.4323 52.9598L37.0199 52.4949L35.5237 53.822ZM35.936 54.2868L34.4397 55.6139L34.852 56.0788L36.3483 54.7517L37.8446 53.4246L37.4323 52.9598L35.936 54.2868ZM36.3483 54.7517L34.852 56.0788C35.1236 56.385 35.5511 56.6891 36.1298 56.777C36.683 56.861 37.1387 56.7112 37.4258 56.5673L36.5298 54.7793L35.6338 52.9912C35.8484 52.8837 36.2376 52.7475 36.7303 52.8223C37.2485 52.901 37.6215 53.1732 37.8446 53.4246L36.3483 54.7517ZM36.5298 54.7793L37.4258 56.5673L38.0419 56.2586L37.1459 54.4705L36.2498 52.6825L35.6337 52.9912L36.5298 54.7793ZM37.1459 54.4705L38.0419 56.2586L38.658 55.9499L37.7619 54.1618L36.8659 52.3738L36.2498 52.6825L37.1459 54.4705ZM37.7619 54.1618L38.658 55.9499C38.5046 56.0267 38.2487 56.1243 37.9141 56.1327C37.5561 56.1418 37.2001 56.0456 36.8941 55.8553L37.9506 54.157L39.007 52.4588C38.1897 51.9504 37.3534 52.1295 36.8659 52.3738L37.7619 54.1618ZM37.9506 54.157L36.8942 55.8553L37.3469 56.1369L38.4033 54.4387L39.4597 52.7404L39.007 52.4588L37.9506 54.157ZM38.4033 54.4387L37.3469 56.1369L37.7997 56.4185L38.8561 54.7203L39.9125 53.0221L39.4597 52.7404L38.4033 54.4387ZM38.8561 54.7203L37.7997 56.4186C37.9101 56.4873 38.025 56.551 38.1443 56.6089L39.0179 54.8098L39.8916 53.0107C39.9016 53.0156 39.9085 53.0196 39.9125 53.0221L38.8561 54.7203ZM39.0179 54.8098L38.1443 56.6089L38.6088 56.8345L39.4824 55.0354L40.3561 53.2363L39.8916 53.0107L39.0179 54.8098ZM39.4824 55.0354L38.6088 56.8345L39.0732 57.06L39.9469 55.2609L40.8205 53.4618L40.3561 53.2363L39.4824 55.0354ZM39.9469 55.2609L39.0732 57.06C39.2153 57.129 39.3621 57.1875 39.5131 57.2352L40.1155 55.3281L40.7179 53.421C40.7533 53.4322 40.7877 53.4459 40.8205 53.4618L39.9469 55.2609ZM40.1155 55.3281L39.5131 57.2352L40.0042 57.3903L40.6066 55.4832L41.209 53.5761L40.7179 53.421L40.1155 55.3281ZM40.6066 55.4832L40.0042 57.3903L40.4952 57.5455L41.0977 55.6383L41.7001 53.7312L41.209 53.5761L40.6066 55.4832ZM41.0977 55.6383L40.4953 57.5455C40.0604 57.4081 39.7627 57.1312 39.5907 56.8787L41.2435 55.7525L42.8963 54.6263C42.6454 54.2581 42.2505 53.9051 41.7001 53.7312L41.0977 55.6383ZM41.2435 55.7525L39.5907 56.8787L39.9258 57.3705L41.5786 56.2443L43.2314 55.1182L42.8963 54.6263L41.2435 55.7525ZM41.5786 56.2443L39.9258 57.3705L40.2609 57.8623L41.9137 56.7362L43.5665 55.61L43.2314 55.1182L41.5786 56.2443ZM41.9137 56.7362L40.2609 57.8623C40.6268 58.3993 41.2403 58.7944 41.9883 58.8253L42.0708 56.827L42.1533 54.8287C42.4173 54.8396 42.7076 54.9112 42.9838 55.0709C43.2554 55.228 43.4438 55.4299 43.5665 55.61L41.9137 56.7362ZM42.0708 56.827L41.9883 58.8253L42.5432 58.8482L42.6257 56.8499L42.7082 54.8516L42.1533 54.8287L42.0708 56.827ZM42.6257 56.8499L42.5432 58.8482L43.0982 58.8711L43.1807 56.8728L43.2632 54.8745L42.7082 54.8516L42.6257 56.8499ZM43.1807 56.8728L43.0982 58.8711C42.9043 58.8631 42.6824 58.8155 42.4614 58.7045L43.3593 56.9174L44.2573 55.1303C43.9287 54.9652 43.5877 54.8879 43.2632 54.8745L43.1807 56.8728ZM43.3593 56.9174L42.4614 58.7045L42.9186 58.9342L43.8166 57.1471L44.7145 55.3601L44.2573 55.1303L43.3593 56.9174ZM43.8166 57.1471L42.9186 58.9342L43.3758 59.164L44.2738 57.3769L45.1717 55.5898L44.7145 55.3601L43.8166 57.1471ZM44.2738 57.3769L43.3758 59.164C43.0366 58.9935 42.8113 58.7411 42.679 58.5145L44.4064 57.5064L46.1338 56.4984C45.9323 56.153 45.6186 55.8143 45.1717 55.5898L44.2738 57.3769ZM44.4064 57.5064L42.679 58.5145L42.9733 59.0188L44.7007 58.0107L46.4281 57.0027L46.1338 56.4984L44.4064 57.5064ZM44.7007 58.0107L42.9733 59.0188L43.2676 59.5231L44.995 58.515L46.7224 57.507L46.4281 57.0027L44.7007 58.0107ZM44.995 58.515L43.2676 59.5231C43.4594 59.8518 43.7684 60.1821 44.2161 60.391C44.6518 60.5943 45.0724 60.6144 45.3881 60.5779L45.1582 58.5912L44.9283 56.6044C45.1697 56.5765 45.5262 56.5882 45.9075 56.7662C46.3007 56.9497 46.5652 57.2376 46.7224 57.507L44.995 58.515ZM45.1582 58.5912L45.3881 60.5779L46.0183 60.505L45.7884 58.5182L45.5585 56.5315L44.9283 56.6044L45.1582 58.5912ZM45.7884 58.5182L46.0183 60.505L46.6485 60.4321L46.4186 58.4453L46.1887 56.4586L45.5585 56.5315L45.7884 58.5182ZM46.4186 58.4453L46.6485 60.432C46.4864 60.4508 46.2647 60.4516 46.012 60.3853C45.7504 60.3167 45.5014 60.1878 45.2894 60.004L46.5993 58.4927L47.9093 56.9814C47.3491 56.4958 46.6897 56.4006 46.1887 56.4586L46.4186 58.4453ZM46.5993 58.4927L45.2894 60.004L45.6835 60.3456L46.9934 58.8343L48.3034 57.323L47.9093 56.9814L46.5993 58.4927ZM46.9934 58.8343L45.6835 60.3456L46.0776 60.6872L47.3875 59.1759L48.6974 57.6646L48.3034 57.323L46.9934 58.8343ZM47.3875 59.1759L46.0776 60.6872C46.1261 60.7293 46.1752 60.7716 46.2248 60.8142L47.5282 59.2973L48.8316 57.7804C48.7863 57.7414 48.7416 57.7028 48.6974 57.6646L47.3875 59.1759ZM47.5282 59.2973L46.2248 60.8142L46.6279 61.1606L47.9313 59.6437L49.2348 58.1268L48.8316 57.7804L47.5282 59.2973ZM47.9313 59.6437L46.6279 61.1606L47.031 61.507L48.3345 59.9901L49.6379 58.4732L49.2348 58.1268L47.9313 59.6437ZM48.3345 59.9901L47.031 61.507C47.4409 61.8592 47.9442 62.0405 48.4533 62.053L48.5025 60.0536L48.5518 58.0542C48.9317 58.0636 49.323 58.2026 49.6379 58.4732L48.3345 59.9901ZM48.5025 60.0536L48.4533 62.053L49.0024 62.0666L49.0516 60.0672L49.1009 58.0678L48.5518 58.0542L48.5025 60.0536ZM49.0516 60.0672L49.0024 62.0666L49.5515 62.0801L49.6007 60.0807L49.65 58.0813L49.1009 58.0678L49.0516 60.0672ZM49.6007 60.0807L49.5515 62.0801C49.43 62.0771 49.2881 62.0565 49.1372 62.005L49.7823 60.1119L50.4275 58.2189C50.1636 58.1289 49.9006 58.0875 49.65 58.0813L49.6007 60.0807ZM49.7823 60.1119L49.1372 62.005L49.6172 62.1686L50.2623 60.2755L50.9075 58.3824L50.4275 58.2188L49.7823 60.1119ZM50.2623 60.2755L49.6172 62.1686L50.0971 62.3322L50.7423 60.4391L51.3874 58.546L50.9075 58.3824L50.2623 60.2755ZM50.7423 60.4391L50.0971 62.3322C49.7153 62.202 49.4632 61.9701 49.3197 61.787L50.8939 60.5533L52.468 59.3196C52.2353 59.0227 51.8822 58.7146 51.3874 58.546L50.7423 60.4391ZM50.8939 60.5533L49.3197 61.787L49.6987 62.2705L51.2728 61.0368L52.847 59.8031L52.468 59.3196L50.8939 60.5533ZM51.2728 61.0368L49.6987 62.2705L50.0776 62.754L51.6518 61.5203L53.2259 60.2866L52.847 59.8031L51.2728 61.0368ZM51.6518 61.5203L50.0776 62.754C50.3311 63.0775 50.7506 63.4183 51.3461 63.5345C51.9135 63.6453 52.386 63.5017 52.6763 63.3656L51.8275 61.5546L50.9788 59.7437C51.1965 59.6416 51.6034 59.5093 52.1122 59.6086C52.6492 59.7134 53.017 60.0201 53.2259 60.2866L51.6518 61.5203ZM51.8275 61.5546L52.6763 63.3656L53.2933 63.0765L52.4445 61.2655L51.5958 59.4545L50.9788 59.7437L51.8275 61.5546ZM52.4445 61.2655L53.2933 63.0765L53.9103 62.7873L53.0615 60.9763L52.2128 59.1653L51.5958 59.4545L52.4445 61.2655ZM53.0615 60.9763L53.9103 62.7873C53.6687 62.9005 53.2367 63.0313 52.7105 62.9098C52.1729 62.7856 51.8269 62.4654 51.6432 62.2218L53.24 61.0175L54.8368 59.8133C54.6066 59.5081 54.2077 59.1503 53.6106 59.0124C53.025 58.8771 52.527 59.0181 52.2128 59.1653L53.0615 60.9763ZM53.24 61.0175L51.6432 62.2218L52.0374 62.7445L53.6342 61.5402L55.231 60.336L54.8368 59.8133L53.24 61.0175ZM53.6342 61.5402L52.0374 62.7445L52.4316 63.2672L54.0284 62.063L55.6252 60.8587L55.231 60.336L53.6342 61.5402ZM54.0284 62.063L52.4316 63.2672C52.7254 63.6567 53.2525 64.0901 54.0187 64.1557L54.1895 62.163L54.3603 60.1704C55.0045 60.2256 55.4242 60.5922 55.6252 60.8587L54.0284 62.063ZM54.1895 62.163L54.0187 64.1557L54.5374 64.2002L54.7082 62.2075L54.879 60.2148L54.3603 60.1703L54.1895 62.163ZM54.7082 62.2075L54.5374 64.2002L55.056 64.2447L55.2268 62.252L55.3976 60.2593L54.879 60.2148L54.7082 62.2075ZM55.2268 62.252L55.056 64.2447C55.5637 64.2882 56.0005 64.157 56.3267 63.9906L55.4181 62.2089L54.5095 60.4272C54.7028 60.3287 55.012 60.2262 55.3976 60.2593L55.2268 62.252ZM55.4181 62.2089L56.3268 63.9906L56.8922 63.7022L55.9836 61.9206L55.0749 60.1389L54.5095 60.4272L55.4181 62.2089ZM55.9836 61.9206L56.8922 63.7022L57.4576 63.4139L56.549 61.6322L55.6404 59.8505L55.0749 60.1389L55.9836 61.9206ZM56.549 61.6322L57.4576 63.4139C57.2514 63.5191 56.8897 63.6408 56.4361 63.5719L56.7362 61.5946L57.0363 59.6172C56.4661 59.5307 55.9796 59.6775 55.6403 59.8505L56.549 61.6322ZM56.7362 61.5946L56.4361 63.5719L56.9316 63.6471L57.2317 61.6698L57.5318 59.6924L57.0363 59.6172L56.7362 61.5946ZM57.2317 61.6698L56.9316 63.6471L57.4271 63.7223L57.7272 61.745L58.0273 59.7676L57.5318 59.6924L57.2317 61.6698ZM57.7272 61.745L57.4272 63.7223C57.0265 63.6615 56.744 63.4781 56.5837 63.3384L57.8979 61.8308L59.2121 60.3231C58.9408 60.0867 58.5445 59.8461 58.0273 59.7676L57.7272 61.745ZM57.8979 61.8308L56.5837 63.3384L57.055 63.7492L58.3692 62.2416L59.6834 60.734L59.2121 60.3231L57.8979 61.8308ZM58.3692 62.2416L57.055 63.7492L57.5263 64.1601L58.8405 62.6524L60.1547 61.1448L59.6834 60.734L58.3692 62.2416ZM58.8405 62.6524L57.5263 64.1601C57.9613 64.5393 58.6425 64.8299 59.4326 64.6614L59.0154 62.7054L58.5981 60.7494C58.8889 60.6874 59.2023 60.696 59.5053 60.7877C59.7973 60.8761 60.0125 61.0209 60.1547 61.1448L58.8405 62.6524ZM59.0154 62.7054L59.4326 64.6614L59.9523 64.5505L59.535 62.5945L59.1177 60.6385L58.5981 60.7494L59.0154 62.7054ZM59.535 62.5945L59.9523 64.5505L60.4719 64.4397L60.0546 62.4837L59.6373 60.5277L59.1177 60.6385L59.535 62.5945ZM60.0546 62.4837L60.4719 64.4397C60.4058 64.4538 60.331 64.4629 60.2495 64.4635L60.2363 62.4635L60.223 60.4636C60.0216 60.4649 59.8257 60.4875 59.6373 60.5277L60.0546 62.4837ZM60.2363 62.4635L60.2496 64.4635L60.7593 64.4601L60.746 62.4601L60.7327 60.4602L60.2229 60.4636L60.2363 62.4635ZM60.746 62.4601L60.7593 64.4601L61.269 64.4567L61.2557 62.4567L61.2424 60.4568L60.7327 60.4602L60.746 62.4601ZM61.2557 62.4567L61.269 64.4567C61.2583 64.4568 61.2487 64.4563 61.2403 64.4554L61.4361 62.465L61.632 60.4747C61.5029 60.462 61.3729 60.4559 61.2423 60.4568L61.2557 62.4567ZM61.4361 62.465L61.2403 64.4554L61.7533 64.5059L61.9491 62.5155L62.145 60.5251L61.632 60.4747L61.4361 62.465ZM61.9491 62.5155L61.7533 64.5059L62.2663 64.5564L62.4621 62.566L62.6579 60.5756L62.145 60.5251L61.9491 62.5155ZM62.4621 62.566L62.2663 64.5564C62.3918 64.5687 62.5177 64.5749 62.6436 64.5749L62.6439 62.5749L62.6442 60.5749C62.6484 60.5749 62.653 60.5751 62.6579 60.5756L62.4621 62.566ZM62.6439 62.5749L62.6436 64.5749L63.161 64.575L63.1613 62.575L63.1616 60.575L62.6442 60.5749L62.6439 62.5749ZM63.1613 62.575L63.161 64.575L63.6784 64.5751L63.6787 62.5751L63.679 60.5751L63.1616 60.575L63.1613 62.575ZM63.6787 62.5751L63.6784 64.5751C63.7405 64.5751 63.803 64.575 63.866 64.5749L63.8626 62.5749L63.8593 60.5749C63.7987 60.575 63.7386 60.5751 63.6789 60.5751L63.6787 62.5751ZM63.8626 62.5749L63.866 64.5749L64.3911 64.574L64.3878 62.574L64.3845 60.574L63.8593 60.5749L63.8626 62.5749ZM64.3878 62.574L64.3911 64.574L64.9163 64.5732L64.913 62.5732L64.9096 60.5732L64.3845 60.574L64.3878 62.574ZM64.913 62.5732L64.9163 64.5732C65.6013 64.572 66.1494 64.2634 66.5095 63.8959L65.0809 62.4962L63.6524 61.0964C63.7708 60.9756 63.9403 60.8401 64.1678 60.7358C64.4011 60.6288 64.6549 60.5736 64.9096 60.5732L64.913 62.5732ZM65.0809 62.4962L66.5095 63.8959L66.9362 63.4604L65.5077 62.0607L64.0791 60.6609L63.6524 61.0964L65.0809 62.4962ZM65.5077 62.0607L66.9362 63.4604L67.3629 63.0249L65.9344 61.6252L64.5058 60.2254L64.0791 60.6609L65.5077 62.0607ZM65.9344 61.6252L67.3629 63.0249C67.1192 63.2737 66.708 63.5263 66.1675 63.5442L66.1014 61.5453L66.0354 59.5464C65.3725 59.5683 64.85 59.8742 64.5058 60.2255L65.9344 61.6252ZM66.1014 61.5453L66.1675 63.5442L66.6876 63.527L66.6215 61.5281L66.5555 59.5292L66.0354 59.5464L66.1014 61.5453ZM66.6215 61.5281L66.6876 63.527L67.2076 63.5098L67.1416 61.5109L67.0756 59.512L66.5555 59.5292L66.6215 61.5281ZM67.1416 61.5109L67.2077 63.5098C67.7358 63.4924 68.2147 63.2943 68.5898 62.9807L67.3069 61.4464L66.0241 59.912C66.3011 59.6804 66.6698 59.5254 67.0755 59.512L67.1416 61.5109ZM67.3069 61.4464L68.5899 62.9807L69.0068 62.6321L67.7238 61.0978L66.4409 59.5635L66.024 59.9121L67.3069 61.4464ZM67.7238 61.0978L69.0067 62.6321L69.4237 62.2835L68.1407 60.7492L66.8578 59.2149L66.4409 59.5635L67.7238 61.0978ZM68.1407 60.7492L69.4237 62.2835C69.2352 62.4411 68.9988 62.5715 68.7241 62.6428C68.4531 62.7132 68.2039 62.711 68.0028 62.6791L68.3157 60.7037L68.6286 58.7284C68.0361 58.6345 67.3844 58.7746 66.8578 59.2149L68.1407 60.7492ZM68.3157 60.7037L68.0029 62.6791L68.5776 62.7701L68.8904 60.7948L69.2033 58.8194L68.6286 58.7284L68.3157 60.7037ZM68.8904 60.7948L68.5776 62.7701L69.1523 62.8612L69.4652 60.8858L69.778 58.9104L69.2033 58.8194L68.8904 60.7948ZM69.4652 60.8858L69.1523 62.8612C69.6157 62.9346 70.1557 62.8756 70.6588 62.5797L69.645 60.8557L68.6312 59.1317C69.0298 58.8974 69.4499 58.8585 69.778 58.9104L69.4652 60.8858ZM69.645 60.8557L70.6589 62.5797L71.1034 62.3183L70.0896 60.5943L69.0758 58.8703L68.6312 59.1317L69.645 60.8557ZM70.0896 60.5943L71.1034 62.3183L71.548 62.0568L70.5342 60.3328L69.5204 58.6088L69.0758 58.8703L70.0896 60.5943ZM70.5342 60.3328L71.548 62.0568C71.5456 62.0583 71.542 62.0602 71.5373 62.0624L70.6942 60.2488L69.8511 58.4352C69.7377 58.4879 69.6274 58.5459 69.5203 58.6089L70.5342 60.3328ZM70.6942 60.2488L71.5374 62.0624L71.9995 61.8475L71.1563 60.0339L70.3132 58.2204L69.851 58.4352L70.6942 60.2488ZM71.1563 60.0339L71.9995 61.8475L72.4616 61.6327L71.6185 59.8191L70.7753 58.0055L70.3132 58.2204L71.1563 60.0339ZM71.6185 59.8191L72.4617 61.6326C72.675 61.5335 72.8704 61.4086 73.0461 61.2632L71.771 59.7224L70.496 58.1815C70.577 58.1145 70.6707 58.0541 70.7753 58.0055L71.6185 59.8191ZM71.771 59.7224L73.0462 61.2632L73.4488 60.93L72.1736 59.3892L70.8985 57.8484L70.4959 58.1816L71.771 59.7224ZM72.1736 59.3892L73.4487 60.93L73.8513 60.5969L72.5762 59.056L71.3011 57.5152L70.8985 57.8484L72.1736 59.3892ZM72.5762 59.056L73.8514 60.5968C73.7446 60.6852 73.6194 60.7616 73.4798 60.818L72.7307 58.9636L71.9816 57.1091C71.7308 57.2105 71.5026 57.3485 71.3011 57.5153L72.5762 59.056ZM72.7307 58.9636L73.4798 60.818L73.9524 60.6271L73.2032 58.7727L72.4541 56.9183L71.9815 57.1092L72.7307 58.9636ZM73.2032 58.7727L73.9523 60.6271L74.4249 60.4362L73.6758 58.5818L72.9267 56.7274L72.4541 56.9183L73.2032 58.7727ZM73.6758 58.5818L74.425 60.4362C74.4908 60.4096 74.5564 60.3824 74.6219 60.3547L73.8423 58.5129L73.0626 56.6711C73.0173 56.6903 72.972 56.709 72.9267 56.7274L73.6758 58.5818ZM73.8423 58.5129L74.622 60.3547L75.0928 60.1553L74.3131 58.3136L73.5334 56.4718L73.0626 56.6711L73.8423 58.5129ZM74.3131 58.3136L75.0928 60.1553L75.5636 59.956L74.784 58.1143L74.0043 56.2725L73.5334 56.4718L74.3131 58.3136ZM74.784 58.1143L75.5637 59.956C75.6565 59.9167 75.748 59.8746 75.8383 59.8297L74.9477 58.039L74.0571 56.2482C74.0398 56.2568 74.0222 56.2649 74.0042 56.2725L74.784 58.1143ZM74.9477 58.039L75.8383 59.8297L76.2955 59.6024L75.4048 57.8116L74.5142 56.0209L74.0571 56.2482L74.9477 58.039ZM75.4048 57.8116L76.2954 59.6024L76.7526 59.375L75.8619 57.5843L74.9713 55.7935L74.5142 56.0209L75.4048 57.8116ZM75.8619 57.5843L76.7526 59.375C76.9524 59.2757 77.1372 59.1533 77.305 59.0112L76.0122 57.4852L74.7194 55.9592C74.7944 55.8957 74.8791 55.8394 74.9713 55.7935L75.8619 57.5843ZM76.0122 57.4852L77.305 59.0112L77.6993 58.6772L76.4064 57.1512L75.1136 55.6252L74.7193 55.9592L76.0122 57.4852ZM76.4064 57.1512L77.6993 58.6772L78.0935 58.3432L76.8007 56.8172L75.5078 55.2912L75.1136 55.6252L76.4064 57.1512ZM76.8007 56.8172L78.0935 58.3431C78.1603 58.2866 78.2315 58.2238 78.3011 58.1572L76.9183 56.7123L75.5354 55.2674C75.539 55.264 75.5387 55.2644 75.5334 55.2691C75.5283 55.2736 75.52 55.281 75.5078 55.2913L76.8007 56.8172ZM76.9183 56.7123L78.3012 58.1571L78.5733 57.8967L77.1903 56.4519L75.8074 55.007L75.5353 55.2675L76.9183 56.7123ZM77.1903 56.4519L78.5732 57.8967L78.8453 57.6363L77.4624 56.1914L76.0795 54.7466L75.8074 55.007L77.1903 56.4519ZM77.4624 56.1914L78.8454 57.6362C78.815 57.6653 78.5434 57.9388 78.0795 58.0786C77.8049 58.1613 77.3595 58.2269 76.8571 58.0514C76.3368 57.8697 76.0049 57.517 75.8205 57.2156L77.5267 56.1721L79.2329 55.1285C79.0431 54.8183 78.7045 54.4597 78.1761 54.2752C77.6656 54.0969 77.2108 54.1627 76.9255 54.2487C76.4402 54.3949 76.1419 54.6869 76.0795 54.7466L77.4624 56.1914ZM77.5267 56.1721L75.8205 57.2155L75.9126 57.3662L77.6188 56.3227L79.3251 55.2793L79.2329 55.1286L77.5267 56.1721ZM77.6188 56.3227L75.7065 55.7372L75.6293 55.9891L77.5417 56.5747L79.4541 57.1602L79.5312 56.9083L77.6188 56.3227ZM77.5417 56.5747L78.2883 58.4301L78.4738 58.3554L77.7272 56.5L76.9807 54.6446L76.7951 54.7192L77.5417 56.5747ZM12.2727 31.0764L12.8481 32.9919L13.0397 32.9343L12.4642 31.0189L11.8888 29.1034L11.6973 29.161L12.2727 31.0764ZM12.4642 31.0189L13.1842 32.8848L13.9888 32.5744L13.2689 30.7085L12.5489 28.8425L11.7443 29.153L12.4642 31.0189ZM13.2689 30.7085L13.9888 32.5744C14.1726 32.5035 14.4774 32.37 14.7686 32.1251L13.4811 30.5946L12.1935 29.0642C12.3026 28.9724 12.3964 28.9176 12.4474 28.8902C12.5011 28.8614 12.5381 28.8467 12.5489 28.8425L13.2689 30.7085ZM13.4811 30.5946L14.7686 32.1251L15.1664 31.7903L13.8789 30.2599L12.5914 28.7294L12.1935 29.0642L13.4811 30.5946ZM13.8789 30.2599L15.1664 31.7903L15.5643 31.4556L14.2768 29.9252L12.9893 28.3947L12.5914 28.7294L13.8789 30.2599ZM14.2768 29.9252L15.5643 31.4556C15.6514 31.3824 15.7349 31.3062 15.815 31.2277L14.4153 29.7991L13.0157 28.3706C13.0046 28.3813 12.9958 28.3892 12.9893 28.3947L14.2768 29.9252ZM14.4153 29.7991L15.815 31.2277L16.2023 30.8483L14.8026 29.4197L13.403 27.9911L13.0156 28.3706L14.4153 29.7991ZM14.8026 29.4197L16.2023 30.8483L16.5896 30.4688L15.1899 29.0402L13.7903 27.6116L13.403 27.9911L14.8026 29.4197ZM15.1899 29.0402L16.5896 30.4688C16.4848 30.5715 16.3544 30.6664 16.2007 30.7397L15.3408 28.9339L14.4809 27.1282C14.2172 27.2538 13.9862 27.4196 13.7903 27.6116L15.1899 29.0402ZM15.3408 28.9339L16.2007 30.7397L16.6683 30.517L15.8084 28.7113L14.9486 26.9055L14.4809 27.1282L15.3408 28.9339ZM15.8084 28.7113L16.6683 30.517L17.136 30.2943L16.2761 28.4886L15.4162 26.6829L14.9486 26.9055L15.8084 28.7113ZM16.2761 28.4886L17.136 30.2943C17.1764 30.275 17.2172 30.2562 17.2583 30.2378L16.4422 28.4119L15.6261 26.586C15.5557 26.6174 15.4858 26.6497 15.4162 26.6829L16.2761 28.4886ZM16.4422 28.4119L17.2583 30.2378L17.7321 30.0261L16.916 28.2001L16.1 26.3742L15.6261 26.586L16.4422 28.4119ZM16.916 28.2001L17.7321 30.0261L18.2059 29.8143L17.3898 27.9884L16.5738 26.1625L16.1 26.3742L16.916 28.2001ZM17.3898 27.9884L18.2059 29.8143C18.1997 29.8171 18.1933 29.8196 18.1868 29.8217L17.5604 27.9223L16.934 26.023C16.8116 26.0633 16.6914 26.1099 16.5738 26.1625L17.3898 27.9884ZM17.5604 27.9223L18.1868 29.8217L18.6795 29.6592L18.0531 27.7599L17.4266 25.8605L16.934 26.023L17.5604 27.9223ZM18.0531 27.7599L18.6795 29.6592L19.1721 29.4967L18.5457 27.5974L17.9193 25.698L17.4266 25.8605L18.0531 27.7599ZM18.5457 27.5974L19.1721 29.4967C18.5925 29.6879 18.1095 29.536 17.8776 29.4247L18.7429 27.6216L19.6082 25.8185C19.2293 25.6367 18.6148 25.4686 17.9193 25.698L18.5457 27.5974ZM18.7429 27.6216L17.8776 29.4247L18.5024 29.7246L19.3677 27.9215L20.233 26.1183L19.6082 25.8185L18.7429 27.6216ZM19.3677 27.9215L18.5024 29.7246L19.1272 30.0244L19.9925 28.2213L20.8578 26.4182L20.233 26.1183L19.3677 27.9215ZM19.9925 28.2213L19.1272 30.0244C19.6585 30.2794 20.5662 30.4305 21.3848 29.8123L20.1795 28.2163L18.9743 26.6202C19.2712 26.396 19.643 26.2579 20.0406 26.2472C20.4094 26.2373 20.6931 26.3391 20.8578 26.4182L19.9925 28.2213ZM20.1795 28.2163L21.3848 29.8123L21.8196 29.4839L20.6144 27.8879L19.4091 26.2918L18.9743 26.6202L20.1795 28.2163ZM20.6144 27.8879L21.8196 29.4839L22.2545 29.1555L21.0492 27.5595L19.844 25.9635L19.4091 26.2918L20.6144 27.8879ZM21.0492 27.5595L22.2545 29.1555C22.155 29.2307 22.0327 29.3007 21.8892 29.3524L21.2112 27.4708L20.5333 25.5892C20.2761 25.6819 20.0457 25.8111 19.8439 25.9635L21.0492 27.5595ZM21.2112 27.4708L21.8892 29.3524L22.3724 29.1783L21.6944 27.2967L21.0165 25.4151L20.5333 25.5892L21.2112 27.4708ZM21.6944 27.2967L22.3724 29.1783L22.8556 29.0042L22.1776 27.1226L21.4997 25.241L21.0165 25.4151L21.6944 27.2967ZM22.1776 27.1226L22.8556 29.0042C22.7916 29.0273 22.7242 29.0445 22.6552 29.0551L22.352 27.0782L22.0488 25.1013C21.861 25.1302 21.6774 25.177 21.4997 25.241L22.1776 27.1226ZM22.352 27.0782L22.6552 29.0551L23.1601 28.9777L22.8569 27.0008L22.5537 25.0239L22.0488 25.1013L22.352 27.0782ZM22.8569 27.0008L23.1601 28.9777L23.665 28.9002L23.3617 26.9234L23.0585 24.9465L22.5537 25.0239L22.8569 27.0008ZM23.3617 26.9234L23.665 28.9002C23.9142 28.862 24.149 28.7894 24.3658 28.6906L23.5366 26.8706L22.7075 25.0506C22.8099 25.0039 22.9281 24.9665 23.0585 24.9465L23.3617 26.9234ZM23.5366 26.8706L24.3658 28.6906L24.8519 28.4692L24.0228 26.6491L23.1936 24.8291L22.7075 25.0506L23.5366 26.8706ZM24.0228 26.6491L24.8519 28.4692L25.3381 28.2477L24.5089 26.4277L23.6797 24.6076L23.1936 24.8291L24.0228 26.6491ZM24.5089 26.4277L25.3381 28.2477C25.1054 28.3537 24.8383 28.4144 24.5561 28.4086C24.2793 28.403 24.0461 28.3348 23.8697 28.2555L24.6898 26.4314L25.51 24.6073C24.9846 24.3711 24.3201 24.3159 23.6797 24.6076L24.5089 26.4277ZM24.6898 26.4314L23.8697 28.2555L24.409 28.498L25.2292 26.6738L26.0493 24.8497L25.51 24.6073L24.6898 26.4314ZM25.2292 26.6738L24.409 28.498L24.9483 28.7404L25.7685 26.9163L26.5886 25.0922L26.0493 24.8497L25.2292 26.6738ZM25.7685 26.9163L24.9483 28.7404C25.5863 29.0273 26.3407 29.0066 26.9821 28.6202L25.9501 26.907L24.9181 25.1938C25.1394 25.0605 25.4258 24.9551 25.759 24.938C26.0894 24.9211 26.3737 24.9956 26.5886 25.0922L25.7685 26.9163ZM25.9501 26.907L26.9821 28.6202L27.4723 28.3249L26.4403 26.6117L25.4083 24.8985L24.9181 25.1938L25.9501 26.907ZM26.4403 26.6117L27.4723 28.3249L27.9625 28.0296L26.9305 26.3164L25.8985 24.6033L25.4083 24.8985L26.4403 26.6117ZM26.9305 26.3164L27.9625 28.0296C27.6923 28.1924 27.3249 28.3044 26.9114 28.2636L27.1079 26.2733L27.3044 24.283C26.7697 24.2302 26.284 24.371 25.8985 24.6033L26.9305 26.3164ZM27.1079 26.2733L26.9114 28.2636L27.4264 28.3145L27.6229 26.3241L27.8194 24.3338L27.3044 24.283L27.1079 26.2733ZM27.6229 26.3241L27.4264 28.3145L27.9414 28.3653L28.1379 26.375L28.3344 24.3847L27.8194 24.3338L27.6229 26.3241ZM28.1379 26.375L27.9414 28.3653C27.9528 28.3664 27.9641 28.368 27.9754 28.37L28.3187 26.3996L28.662 24.4293C28.5534 24.4104 28.4441 24.3955 28.3344 24.3847L28.1379 26.375ZM28.3187 26.3996L27.9754 28.37L28.4852 28.4588L28.8285 26.4885L29.1718 24.5181L28.662 24.4293L28.3187 26.3996ZM28.8285 26.4885L28.4852 28.4588L28.995 28.5476L29.3383 26.5773L29.6816 24.607L29.1718 24.5181L28.8285 26.4885ZM29.3383 26.5773L28.995 28.5476C29.2775 28.5968 29.5634 28.5975 29.8432 28.5516L29.5191 26.578L29.1951 24.6045C29.3537 24.5784 29.519 24.5786 29.6816 24.607L29.3383 26.5773ZM29.5191 26.578L29.8432 28.5516L30.358 28.4671L30.034 26.4935L29.71 24.5199L29.1951 24.6045L29.5191 26.578ZM30.034 26.4935L30.358 28.4671L30.8729 28.3825L30.5489 26.409L30.2248 24.4354L29.71 24.5199L30.034 26.4935ZM30.5489 26.409L30.8729 28.3825C30.6412 28.4206 30.3983 28.4129 30.1609 28.3545C29.9276 28.2972 29.7386 28.2007 29.5959 28.1031L30.7248 26.4522L31.8536 24.8012C31.427 24.5095 30.8551 24.3319 30.2248 24.4354L30.5489 26.409ZM30.7248 26.4522L29.5959 28.1031L30.0778 28.4327L31.2067 26.7817L32.3356 25.1308L31.8536 24.8013L30.7248 26.4522ZM31.2067 26.7817L30.0778 28.4327L30.5597 28.7622L31.6886 27.1112L32.8175 25.4603L32.3356 25.1308L31.2067 26.7817ZM31.6886 27.1112L30.5597 28.7622C31.0556 29.1013 31.7076 29.2551 32.376 29.079L31.8664 27.1449L31.3569 25.2109C31.5962 25.1479 31.8675 25.1306 32.148 25.1837C32.4245 25.2361 32.6495 25.3454 32.8175 25.4603L31.6886 27.1112ZM31.8664 27.1449L32.376 29.079L32.9018 28.9404L32.3922 27.0064L31.8827 25.0724L31.3569 25.2109L31.8664 27.1449ZM32.3922 27.0064L32.9018 28.9404L33.4276 28.8019L32.9181 26.8679L32.4085 24.9339L31.8827 25.0724L32.3922 27.0064ZM32.9181 26.8679L33.4276 28.8019C33.1495 28.8751 32.8264 28.8803 32.5045 28.7804L33.0973 26.8703L33.6902 24.9602C33.253 24.8245 32.8103 24.828 32.4085 24.9339L32.9181 26.8679ZM33.0973 26.8703L32.5044 28.7804L32.9946 28.9325L33.5875 27.0224L34.1804 25.1123L33.6902 24.9602L33.0973 26.8703ZM33.5875 27.0224L32.9946 28.9325L33.4847 29.0847L34.0776 27.1746L34.6705 25.2645L34.1804 25.1123L33.5875 27.0224ZM34.0776 27.1746L33.4847 29.0847C33.5127 29.0933 33.5401 29.1026 33.5671 29.1124L34.2489 27.2322L34.9307 25.352C34.8447 25.3208 34.7579 25.2916 34.6705 25.2645L34.0776 27.1746ZM34.2489 27.2322L33.5671 29.1124L34.0475 29.2866L34.7293 27.4064L35.4111 25.5262L34.9307 25.352L34.2489 27.2322ZM34.7293 27.4064L34.0475 29.2866L34.5279 29.4608L35.2097 27.5806L35.8915 25.7004L35.4111 25.5262L34.7293 27.4064ZM35.2097 27.5806L34.5279 29.4607C34.808 29.5623 35.0991 29.6116 35.3896 29.6111L35.3862 27.6111L35.3829 25.6111C35.551 25.6109 35.7244 25.6398 35.8915 25.7004L35.2097 27.5806ZM35.3862 27.6111L35.3896 29.6111L35.9098 29.6103L35.9064 27.6103L35.9031 25.6103L35.3829 25.6111L35.3862 27.6111ZM35.9064 27.6103L35.9098 29.6103L36.43 29.6094L36.4266 27.6094L36.4233 25.6094L35.9031 25.6103L35.9064 27.6103ZM36.4266 27.6094L36.43 29.6094C36.3566 29.6095 36.2795 29.6022 36.201 29.5859L36.6066 27.6275L37.0121 25.669C36.8161 25.6284 36.6191 25.6091 36.4233 25.6094L36.4266 27.6094ZM36.6066 27.6275L36.201 29.5859L36.7004 29.6893L37.106 27.7309L37.5115 25.7724L37.0121 25.669L36.6066 27.6275ZM37.106 27.7309L36.7004 29.6893L37.1998 29.7927L37.6054 27.8343L38.0109 25.8758L37.5115 25.7724L37.106 27.7309ZM37.6054 27.8343L37.1998 29.7927C36.9859 29.7484 36.7933 29.6617 36.6326 29.5505L37.7703 27.9057L38.9081 26.2609C38.6449 26.0788 38.3423 25.9445 38.0109 25.8758L37.6054 27.8343ZM37.7703 27.9057L36.6325 29.5505L37.068 29.8517L38.2058 28.2069L39.3436 26.5621L38.9081 26.2609L37.7703 27.9057ZM38.2058 28.2069L37.068 29.8517L37.5034 30.1529L38.6412 28.5081L39.779 26.8633L39.3436 26.5621L38.2058 28.2069ZM38.6412 28.5081L37.5034 30.1529C38.0683 30.5437 38.7053 30.6077 39.2333 30.4967L38.8217 28.5395L38.41 26.5823C38.5855 26.5454 38.8116 26.5276 39.0673 26.5721C39.3287 26.6175 39.5713 26.7196 39.779 26.8633L38.6412 28.5081ZM38.8217 28.5395L39.2333 30.4967L39.8203 30.3732L39.4086 28.416L38.997 26.4589L38.41 26.5823L38.8217 28.5395ZM39.4086 28.416L39.8203 30.3732L40.4073 30.2497L39.9956 28.2926L39.5839 26.3354L38.997 26.4589L39.4086 28.416ZM39.9956 28.2926L40.4073 30.2497C40.2201 30.2891 39.969 30.3027 39.6886 30.2303L40.1883 28.2938L40.6881 26.3572C40.2888 26.2542 39.9092 26.267 39.5839 26.3354L39.9956 28.2926ZM40.1883 28.2938L39.6886 30.2303L40.1938 30.3607L40.6935 28.4242L41.1933 26.4876L40.6881 26.3572L40.1883 28.2938ZM40.6935 28.4242L40.1938 30.3607L40.699 30.4911L41.1988 28.5545L41.6985 26.618L41.1933 26.4876L40.6935 28.4242ZM41.1988 28.5545L40.699 30.4911C40.1419 30.3473 39.7923 29.9812 39.6183 29.6841L41.3438 28.6729L43.0693 27.6617C42.8207 27.2375 42.3745 26.7924 41.6985 26.618L41.1988 28.5545ZM41.3438 28.6729L39.6183 29.6841L39.935 30.2246L41.6605 29.2134L43.3861 28.2022L43.0693 27.6617L41.3438 28.6729ZM41.6605 29.2134L39.935 30.2246L40.2517 30.765L41.9772 29.7538L43.7028 28.7426L43.3861 28.2022L41.6605 29.2134ZM41.9772 29.7538L40.2517 30.765C40.5302 31.2403 41.0461 31.7142 41.8026 31.8381L42.1257 29.8644L42.4489 27.8906C42.7293 27.9366 43.0012 28.0496 43.2367 28.225C43.4645 28.3946 43.6118 28.5873 43.7028 28.7426L41.9772 29.7538ZM42.1257 29.8644L41.8026 31.8381L42.3271 31.924L42.6502 29.9502L42.9734 27.9765L42.4489 27.8906L42.1257 29.8644ZM42.6502 29.9502L42.3271 31.924L42.8516 32.0098L43.1748 30.0361L43.4979 28.0624L42.9734 27.9765L42.6502 29.9502ZM43.1748 30.0361L42.8516 32.0098C42.8767 32.014 42.9021 32.0188 42.9278 32.0245L43.3595 30.0717L43.7912 28.1188C43.694 28.0973 43.5962 28.0785 43.4979 28.0624L43.1748 30.0361ZM43.3595 30.0717L42.9278 32.0245L43.4503 32.14L43.8821 30.1872L44.3138 28.2343L43.7912 28.1188L43.3595 30.0717ZM43.8821 30.1872L43.4503 32.14L43.9729 32.2555L44.4046 30.3027L44.8363 28.3498L44.3138 28.2343L43.8821 30.1872ZM44.4046 30.3027L43.9729 32.2555C43.8437 32.227 43.7076 32.1769 43.575 32.1003L44.5751 30.3683L45.5752 28.6363C45.3382 28.4994 45.0885 28.4056 44.8363 28.3498L44.4046 30.3027ZM44.5751 30.3683L43.575 32.1003L44.0187 32.3565L45.0188 30.6245L46.0189 28.8925L45.5752 28.6363L44.5751 30.3683ZM45.0188 30.6245L44.0187 32.3565L44.4624 32.6127L45.4625 30.8807L46.4626 29.1487L46.0189 28.8925L45.0188 30.6245ZM45.4625 30.8807L44.4624 32.6127C44.4229 32.5899 44.3849 32.5637 44.3493 32.5347L45.6109 30.9829L46.8725 29.431C46.7435 29.3261 46.6065 29.2318 46.4626 29.1487L45.4625 30.8807ZM45.6109 30.9829L44.3493 32.5347L44.7464 32.8576L46.0081 31.3058L47.2697 29.7539L46.8725 29.431L45.6109 30.9829ZM46.0081 31.3058L44.7464 32.8576L45.1436 33.1805L46.4052 31.6287L47.6669 30.0768L47.2697 29.7539L46.0081 31.3058ZM46.4052 31.6287L45.1436 33.1805C45.1672 33.1998 45.1916 33.2204 45.2167 33.2427L46.5446 31.7472L47.8726 30.2517C47.8052 30.1919 47.7367 30.1336 47.6669 30.0768L46.4052 31.6287ZM46.5446 31.7472L45.2167 33.2427L45.6094 33.5914L46.9373 32.0959L48.2653 30.6004L47.8726 30.2517L46.5446 31.7472ZM46.9373 32.0959L45.6094 33.5914L46.0021 33.9401L47.33 32.4446L48.6579 30.949L48.2653 30.6004L46.9373 32.0959ZM47.33 32.4446L46.002 33.9401C46.0836 34.0125 46.1677 34.082 46.2542 34.1485L47.4729 32.5626L48.6916 30.9768C48.6799 30.9679 48.6688 30.9586 48.658 30.949L47.33 32.4446ZM47.4729 32.5626L46.2542 34.1485L46.6713 34.469L47.8899 32.8832L49.1086 31.2973L48.6916 30.9768L47.4729 32.5626ZM47.8899 32.8832L46.6713 34.469L47.0883 34.7895L48.307 33.2037L49.5257 31.6179L49.1086 31.2973L47.8899 32.8832ZM48.307 33.2037L47.0883 34.7895C47.4484 35.0662 47.8703 35.2238 48.3044 35.261L48.4754 33.2684L48.6464 31.2757C48.9541 31.3021 49.2637 31.4165 49.5257 31.6179L48.307 33.2037ZM48.4754 33.2684L48.3044 35.261L48.8415 35.3071L49.0125 33.3145L49.1836 31.3218L48.6464 31.2757L48.4754 33.2684ZM49.0125 33.3145L48.8415 35.3071L49.3787 35.3532L49.5497 33.3606L49.7207 31.3679L49.1836 31.3218L49.0125 33.3145ZM49.5497 33.3606L49.3787 35.3532C49.0966 35.329 48.814 35.2299 48.5695 35.0578L49.7208 33.4224L50.872 31.7869C50.5258 31.5432 50.1292 31.4029 49.7207 31.3679L49.5497 33.3606ZM49.7208 33.4224L48.5695 35.0578L49.0018 35.3621L50.153 33.7267L51.3043 32.0912L50.872 31.787L49.7208 33.4224ZM50.153 33.7267L49.0018 35.3621L49.4341 35.6664L50.5853 34.031L51.7366 32.3955L51.3043 32.0912L50.153 33.7267ZM50.5853 34.031L49.4341 35.6664C49.934 36.0184 50.5123 36.1252 51.039 36.0513L50.7611 34.0707L50.4833 32.0901C50.662 32.065 50.8762 32.0645 51.1083 32.117C51.3431 32.17 51.5558 32.2683 51.7366 32.3955L50.5853 34.031ZM50.7611 34.0707L51.039 36.0513L51.603 35.9722L51.3251 33.9916L51.0472 32.011L50.4832 32.0901L50.7611 34.0707ZM51.3251 33.9916L51.603 35.9722L52.167 35.8931L51.8891 33.9125L51.6112 31.9319L51.0472 32.011L51.3251 33.9916ZM51.8891 33.9125L52.167 35.8931C52.0654 35.9073 51.9334 35.9126 51.7809 35.8897L52.0773 33.9118L52.3737 31.9339C52.1029 31.8933 51.8455 31.899 51.6112 31.9319L51.8891 33.9125ZM52.0773 33.9118L51.7809 35.8897L52.2834 35.965L52.5798 33.9871L52.8763 32.0092L52.3737 31.9339L52.0773 33.9118ZM52.5798 33.9871L52.2834 35.965L52.786 36.0403L53.0824 34.0624L53.3788 32.0845L52.8763 32.0092L52.5798 33.9871ZM53.0824 34.0624L52.786 36.0403C52.1186 35.9403 51.7368 35.525 51.5823 35.2965L53.2388 34.1758L54.8953 33.0552C54.6505 32.6932 54.1644 32.2022 53.3788 32.0845L53.0824 34.0624ZM53.2388 34.1758L51.5823 35.2965L51.9661 35.8638L53.6226 34.7432L55.2792 33.6225L54.8953 33.0552L53.2388 34.1758ZM53.6226 34.7432L51.9661 35.8638L52.3499 36.4312L54.0064 35.3105L55.663 34.1899L55.2792 33.6225L53.6226 34.7432ZM54.0064 35.3105L52.3499 36.4312C52.5996 36.8004 53.0768 37.2711 53.8331 37.3982L54.1646 35.4259L54.4961 33.4535C55.1319 33.5604 55.5036 33.9542 55.663 34.1899L54.0064 35.3105ZM54.1646 35.4259L53.8331 37.3982L54.3455 37.4843L54.677 35.512L55.0085 33.5396L54.4961 33.4535L54.1646 35.4259ZM54.677 35.512L54.3455 37.4843L54.8579 37.5704L55.1894 35.5981L55.5208 33.6257L55.0085 33.5396L54.677 35.512ZM55.1894 35.5981L54.8579 37.5704C55.0499 37.6027 55.2427 37.6154 55.4342 37.6095L55.3728 35.6104L55.3114 33.6114C55.3789 33.6093 55.4494 33.6137 55.5208 33.6257L55.1894 35.5981ZM55.3728 35.6104L55.4342 37.6095L55.9613 37.5933L55.8999 35.5942L55.8385 33.5952L55.3114 33.6114L55.3728 35.6104ZM55.8999 35.5942L55.9613 37.5933L56.4884 37.5771L56.427 35.578L56.3656 33.579L55.8385 33.5952L55.8999 35.5942ZM56.427 35.578L56.4884 37.5771C56.6686 37.5716 56.8453 37.5502 57.0175 37.5147L56.6136 35.5559L56.2098 33.5971C56.2571 33.5873 56.3095 33.5807 56.3656 33.579L56.427 35.578ZM56.6136 35.5559L57.0175 37.5147L57.5479 37.4053L57.1441 35.4465L56.7402 33.4877L56.2098 33.5971L56.6136 35.5559ZM57.1441 35.4465L57.5479 37.4053L58.0783 37.296L57.6745 35.3372L57.2707 33.3784L56.7402 33.4877L57.1441 35.4465ZM57.6745 35.3372L58.0783 37.296C57.7678 37.36 57.4324 37.3354 57.1218 37.2129L57.8554 35.3523L58.5889 33.4917C58.162 33.3233 57.706 33.2886 57.2707 33.3784L57.6745 35.3372ZM57.8554 35.3523L57.1218 37.2129L57.6161 37.4078L58.3497 35.5472L59.0833 33.6866L58.5889 33.4917L57.8554 35.3523ZM58.3497 35.5472L57.6161 37.4078L58.1105 37.6027L58.8441 35.7421L59.5777 33.8815L59.0833 33.6866L58.3497 35.5472ZM58.8441 35.7421L58.1105 37.6027C58.7972 37.8735 59.4795 37.7577 59.9881 37.4778L59.024 35.7256L58.0599 33.9733C58.2294 33.88 58.4627 33.79 58.7493 33.7636C59.0432 33.7366 59.3272 33.7827 59.5777 33.8815L58.8441 35.7421ZM59.024 35.7256L59.9881 37.4778L60.513 37.189L59.5488 35.4368L58.5847 33.6845L58.0598 33.9733L59.024 35.7256ZM59.5488 35.4368L60.513 37.1891L61.0378 36.9003L60.0736 35.148L59.1095 33.3958L58.5847 33.6845L59.5488 35.4368ZM60.0736 35.148L61.0378 36.9003C60.8423 37.0079 60.5727 37.106 60.2454 37.1191C59.9123 37.1325 59.6118 37.0539 59.3688 36.9339L60.2547 35.1408L61.1406 33.3476C60.4476 33.0053 59.6959 33.0731 59.1095 33.3958L60.0736 35.148ZM60.2547 35.1408L59.3688 36.9339L59.87 37.1815L60.7559 35.3884L61.6418 33.5953L61.1406 33.3477L60.2547 35.1408ZM60.7559 35.3884L59.87 37.1815L60.3712 37.4291L61.2571 35.636L62.143 33.8429L61.6418 33.5953L60.7559 35.3884ZM61.2571 35.636L60.3712 37.4291C61.0204 37.7498 61.7749 37.731 62.4076 37.3773L61.4316 35.6316L60.4557 33.8858C60.6732 33.7643 60.959 33.6659 61.2944 33.6574C61.6297 33.6489 61.92 33.7327 62.143 33.8429L61.2571 35.636ZM61.4316 35.6316L62.4076 37.3773L62.8953 37.1046L61.9194 35.3589L60.9434 33.6132L60.4557 33.8859L61.4316 35.6316ZM61.9194 35.3589L62.8953 37.1046L63.383 36.832L62.4071 35.0863L61.4312 33.3405L60.9435 33.6132L61.9194 35.3589ZM62.4071 35.0863L63.3831 36.832C63.1959 36.9366 62.9635 37.0205 62.6958 37.0476C62.4277 37.0746 62.1803 37.0389 61.971 36.9712L62.5861 35.0682L63.2012 33.1651C62.6045 32.9722 61.9688 33.04 61.4312 33.3405L62.4071 35.0863ZM62.5861 35.0682L61.971 36.9712L62.4978 37.1415L63.1129 35.2384L63.728 33.3354L63.2012 33.1651L62.5861 35.0682ZM63.1129 35.2384L62.4978 37.1415L63.0245 37.3117L63.6396 35.4087L64.2547 33.5056L63.728 33.3354L63.1129 35.2384ZM63.6396 35.4087L63.0245 37.3117C63.6767 37.5226 64.3802 37.4203 64.9456 37.0319L63.813 35.3834L62.6805 33.735C62.8769 33.6 63.1339 33.483 63.4413 33.4383C63.7486 33.3935 64.0282 33.4324 64.2547 33.5056L63.6396 35.4087ZM63.813 35.3834L64.9456 37.0319L65.4017 36.7185L64.2691 35.0701L63.1366 33.4216L62.6805 33.735L63.813 35.3834ZM64.2691 35.0701L65.4017 36.7185L65.8578 36.4051L64.7252 34.7567L63.5927 33.1083L63.1366 33.4216L64.2691 35.0701ZM64.7252 34.7567L65.8578 36.4051C65.6434 36.5524 65.3732 36.668 65.0622 36.7074C64.7558 36.7463 64.4868 36.7018 64.2804 36.634L64.9047 34.7339L65.529 32.8339C64.9161 32.6325 64.1992 32.6916 63.5926 33.1083L64.7252 34.7567ZM64.9047 34.7339L64.2804 36.634L64.8412 36.8183L65.4655 34.9182L66.0898 33.0181L65.529 32.8339L64.9047 34.7339ZM65.4655 34.9182L64.8412 36.8183L65.402 37.0025L66.0263 35.1025L66.6506 33.2024L66.0898 33.0181L65.4655 34.9182ZM66.0263 35.1025L65.402 37.0025C65.7199 37.107 66.1249 37.1596 66.567 37.0579C67.0103 36.956 67.3544 36.7305 67.598 36.4921L66.199 35.0627L64.8001 33.6334C64.9945 33.4432 65.2852 33.2483 65.6709 33.1596C66.0554 33.0712 66.3986 33.1196 66.6506 33.2024L66.0263 35.1025ZM66.199 35.0627L67.598 36.4921L68.0162 36.0827L66.6173 34.6534L65.2183 33.2241L64.8001 33.6334L66.199 35.0627ZM66.6173 34.6534L68.0162 36.0827L68.4344 35.6734L67.0355 34.2441L65.6365 32.8148L65.2183 33.2241L66.6173 34.6534ZM67.0355 34.2441L68.4344 35.6734C68.1895 35.9131 67.8279 36.1275 67.3722 36.1859C66.9408 36.2412 66.5959 36.135 66.3913 36.0423L67.2172 34.2208L68.0431 32.3993C67.7666 32.2739 67.3554 32.1553 66.8635 32.2184C66.3472 32.2846 65.9306 32.5269 65.6365 32.8148L67.0355 34.2441ZM67.2172 34.2208L66.3913 36.0423L67.0029 36.3196L67.8288 34.4981L68.6547 32.6766L68.0431 32.3993L67.2172 34.2208ZM67.8288 34.4981L67.0029 36.3196L67.6144 36.5969L68.4403 34.7754L69.2662 32.9539L68.6547 32.6766L67.8288 34.4981ZM68.4403 34.7754L67.6144 36.5969C68.0371 36.7885 68.7078 36.9341 69.4253 36.624L68.632 34.7881L67.8386 32.9522C68.4445 32.6904 68.9875 32.8275 69.2662 32.9539L68.4403 34.7754ZM68.632 34.7881L69.4253 36.624L69.8996 36.4191L69.1063 34.5832L68.3129 32.7472L67.8386 32.9522L68.632 34.7881ZM69.1063 34.5832L69.8996 36.4191L70.3739 36.2141L69.5806 34.3782L68.7872 32.5423L68.3129 32.7472L69.1063 34.5832ZM69.5806 34.3782L70.374 36.2141C70.6594 36.0907 70.9028 35.9224 71.1046 35.7332L69.7366 34.2742L68.3687 32.8152C68.474 32.7164 68.6134 32.6174 68.7872 32.5423L69.5806 34.3782ZM69.7366 34.2742L71.1046 35.7331L71.5146 35.3487L70.1466 33.8898L68.7786 32.4308L68.3686 32.8152L69.7366 34.2742ZM70.1466 33.8898L71.5146 35.3487L71.9246 34.9643L70.5566 33.5054L69.1886 32.0464L68.7786 32.4308L70.1466 33.8898ZM70.5566 33.5054L71.9246 34.9643C71.7368 35.1404 71.4856 35.298 71.1773 35.3846C70.8726 35.4703 70.5918 35.4642 70.3701 35.4234L70.7312 33.4563L71.0923 31.4892C70.4353 31.3686 69.7256 31.5429 69.1885 32.0464L70.5566 33.5054ZM70.7312 33.4563L70.3701 35.4234L70.9496 35.5298L71.3107 33.5627L71.6719 31.5956L71.0923 31.4892L70.7312 33.4563ZM71.3107 33.5627L70.9496 35.5298L71.5292 35.6362L71.8903 33.6691L72.2514 31.702L71.6719 31.5956L71.3107 33.5627ZM71.8903 33.6691L71.5292 35.6362C71.9176 35.7075 72.3765 35.6928 72.8379 35.5027L72.0763 33.6534L71.3147 31.8041C71.6645 31.66 71.9994 31.6557 72.2514 31.702L71.8903 33.6691ZM72.0763 33.6534L72.8379 35.5027L73.3123 35.3074L72.5506 33.4581L71.789 31.6088L71.3147 31.8041L72.0763 33.6534ZM72.5506 33.4581L73.3123 35.3074L73.7866 35.112L73.025 33.2627L72.2633 31.4134L71.789 31.6088L72.5506 33.4581ZM73.025 33.2627L73.7866 35.112C74.0781 34.9919 74.3289 34.8239 74.5379 34.6307L73.1801 33.1622L71.8224 31.6936C71.9361 31.5885 72.0834 31.4875 72.2633 31.4134L73.025 33.2627ZM73.1801 33.1622L74.5379 34.6307L74.9428 34.2563L73.585 32.7878L72.2272 31.3193L71.8224 31.6937L73.1801 33.1622ZM73.585 32.7878L74.9427 34.2563L75.3476 33.882L73.9899 32.4135L72.6321 30.945L72.2272 31.3193L73.585 32.7878ZM73.9899 32.4135L75.3476 33.882C75.1934 34.0246 74.9961 34.1546 74.7579 34.2421C74.5201 34.3295 74.2872 34.3578 74.0808 34.3497L74.1591 32.3513L74.2374 30.3528C73.6459 30.3296 73.0719 30.5384 72.6321 30.945L73.9899 32.4135ZM74.1591 32.3513L74.0808 34.3497L74.6352 34.3715L74.7135 32.373L74.7918 30.3745L74.2374 30.3528L74.1591 32.3513ZM74.7135 32.373L74.6352 34.3715L75.1896 34.3932L75.2679 32.3947L75.3462 30.3962L74.7918 30.3745L74.7135 32.373ZM75.2679 32.3947L75.1896 34.3932C75.8938 34.4208 76.5245 34.1168 76.9463 33.6283L75.4326 32.3211L73.9189 31.014C74.0626 30.8476 74.2679 30.6747 74.5421 30.5522C74.819 30.4285 75.0983 30.3865 75.3462 30.3962L75.2679 32.3947ZM75.4326 32.3211L76.9463 33.6283L77.3251 33.1896L75.8114 31.8825L74.2976 30.5753L73.9188 31.014L75.4326 32.3211ZM75.8114 31.8825L77.3251 33.1896L77.7039 32.751L76.1901 31.4438L74.6764 30.1367L74.2976 30.5753L75.8114 31.8825ZM76.1901 31.4438L77.7039 32.751C77.495 32.9928 77.167 33.2249 76.7352 33.3105L76.3463 31.3487L75.9573 29.3869C75.4065 29.4961 74.9744 29.7916 74.6764 30.1367L76.1901 31.4438ZM76.3463 31.3487L76.7352 33.3105L77.241 33.2103L76.8521 31.2484L76.4632 29.2866L75.9573 29.3869L76.3463 31.3487ZM76.8521 31.2484L77.241 33.2103L77.7469 33.11L77.3579 31.1482L76.969 29.1863L76.4632 29.2866L76.8521 31.2484ZM77.3579 31.1482L77.7469 33.11C77.7764 33.1041 77.7997 33.0995 77.8172 33.0961C77.8259 33.0943 77.8329 33.093 77.8382 33.0919C77.8409 33.0914 77.843 33.091 77.8446 33.0907C77.8454 33.0905 77.846 33.0904 77.8464 33.0903C77.8466 33.0903 77.8468 33.0903 77.8469 33.0902C77.847 33.0902 77.8471 33.0902 77.8471 33.0902L77.4682 31.1264L77.0894 29.1626C77.0691 29.1665 77.0264 29.175 76.969 29.1863L77.3579 31.1482ZM77.4682 31.1264L77.8471 33.0902L77.9661 33.0672L77.5872 31.1034L77.2083 29.1397L77.0893 29.1626L77.4682 31.1264ZM77.5872 31.1034L76.5898 29.3699L76.538 29.3997L77.5355 31.1332L78.5329 32.8667L78.5847 32.837L77.5872 31.1034ZM77.5355 31.1332L78.1034 33.0509L78.2952 32.9941L77.7272 31.0764L77.1593 29.1588L76.9676 29.2155L77.5355 31.1332Z" fill="#E91B0E"/>
</svg>
