<svg width="48" height="48" viewBox="0 0 48 48" fill="none" xmlns="http://www.w3.org/2000/svg">
<path d="M16 20C16 18.8954 15.1046 18 14 18C12.8954 18 12 18.8954 12 20H14H16ZM14 20.2L16 20.2052V20.2H14ZM13.9925 23.05L11.9925 23.0448V23.0448L13.9925 23.05ZM13.9915 23.28L11.9916 23.2646V23.2646L13.9915 23.28ZM13.9798 24.8L15.9798 24.8154V24.8154L13.9798 24.8ZM13.9682 26.32L11.9682 26.3046V26.3046L13.9682 26.32ZM13.9645 26.48L11.966 26.4034L11.966 26.4034L13.9645 26.48ZM13.9062 28L15.9048 28.0766V28.0766L13.9062 28ZM13.848 29.52L11.8494 29.4434L11.8494 29.4434L13.848 29.52ZM13.845 29.68L11.845 29.682V29.682L13.845 29.68ZM13.8465 31.2L15.8465 31.198V31.198L13.8465 31.2ZM13.8481 32.72L11.8481 32.722V32.722L13.8481 32.72ZM13.8483 32.88L11.8483 32.8835V32.8835L13.8483 32.88ZM13.851 34.4L15.851 34.3965V34.3965L13.851 34.4ZM13.8536 35.92L11.8536 35.9235V35.9235L13.8536 35.92ZM13.858 36.08L11.8608 36.1852L11.8608 36.1852L13.858 36.08ZM13.9381 37.6L15.9353 37.4948V37.4948L13.9381 37.6ZM14.0182 39.12L12.0209 39.2252V39.2252L14.0182 39.12ZM14.0209 39.28L12.0213 39.2435V39.2435L14.0209 39.28ZM13.9932 40.8L15.9929 40.8365V40.8365L13.9932 40.8ZM13.9654 42.32L11.9658 42.2835V42.2835L13.9654 42.32ZM13.9649 42.44L11.9654 42.485V42.485L13.9649 42.44ZM13.982 43.2L11.9824 43.245L11.9829 43.26L13.982 43.2ZM14 43.8H16V43.77L15.9991 43.74L14 43.8ZM12 44C12 45.1046 12.8954 46 14 46C15.1046 46 16 45.1046 16 44H14H12ZM29.6507 13.3217L31.6025 13.7582V13.7582L29.6507 13.3217ZM29.3188 14.8053L27.3671 14.3687L27.3671 14.3687L29.3188 14.8053ZM29.277 14.9597L27.3716 14.3521L27.3715 14.3521L29.277 14.9597ZM28.814 16.4115L30.7194 17.0192V17.0192L28.814 16.4115ZM28.351 17.8633L26.4456 17.2556L26.4456 17.2556L28.351 17.8633ZM28.3465 17.9914L26.4793 18.708L26.4793 18.708L28.3465 17.9914ZM28.7237 18.9742L30.5909 18.2576V18.2576L28.7237 18.9742ZM29.1009 19.9571L27.2337 20.6737L27.2337 20.6737L29.1009 19.9571ZM29.2008 20.0115L29.2675 18.0126H29.2675L29.2008 20.0115ZM30.7208 20.0622L30.654 22.0611V22.0611L30.7208 20.0622ZM32.2408 20.113L32.3075 18.1141H32.3075L32.2408 20.113ZM32.4008 20.1099L32.2552 18.1152L32.2552 18.1152L32.4008 20.1099ZM33.9208 19.9989L34.0663 21.9936V21.9936L33.9208 19.9989ZM35.4408 19.888L35.2952 17.8933H35.2952L35.4408 19.888ZM35.6008 19.8863L35.7024 17.8888H35.7023L35.6008 19.8863ZM37.1208 19.9636L37.0192 21.961V21.961L37.1208 19.9636ZM38.6408 20.0409L38.7424 18.0435H38.7424L38.6408 20.0409ZM38.7982 20.0588L39.15 18.09H39.15L38.7982 20.0588ZM40.2691 20.3216L39.9173 22.2904V22.2904L40.2691 20.3216ZM41.74 20.5845L42.0918 18.6156L42.0918 18.6156L41.74 20.5845ZM41.8601 20.6632L40.1892 21.7624L40.1892 21.7624L41.8601 20.6632ZM42.6712 21.8961L44.3421 20.7969V20.7969L42.6712 21.8961ZM43.4823 23.1291L41.8115 24.2283L41.8115 24.2283L43.4823 23.1291ZM43.5163 23.2721L41.5286 23.0503V23.0503L43.5163 23.2721ZM43.3506 24.7569L45.3382 24.9787V24.9787L43.3506 24.7569ZM43.1849 26.2416L41.1972 26.0198L41.1972 26.0198L43.1849 26.2416ZM43.1487 26.3951L41.2699 25.7094L41.2699 25.7094L43.1487 26.3951ZM42.6264 27.8261L44.5052 28.5118V28.5118L42.6264 27.8261ZM42.1041 29.2572L40.2253 28.5715L40.2253 28.5715L42.1041 29.2572ZM42.06 29.411L40.1032 28.9979L40.1032 28.998L42.06 29.411ZM41.7452 30.9025L43.7021 31.3155V31.3155L41.7452 30.9025ZM41.4305 32.3939L39.4736 31.9809L39.4736 31.9809L41.4305 32.3939ZM41.3942 32.55L39.4555 32.0589L39.4555 32.0589L41.3942 32.55ZM41.0207 34.0244L42.9595 34.5155V34.5155L41.0207 34.0244ZM40.6473 35.4988L38.7085 35.0077L38.7085 35.0077L40.6473 35.4988ZM40.6053 35.6532L38.6846 35.0956L38.6846 35.0956L40.6053 35.6532ZM40.1816 37.1129L42.1023 37.6705V37.6705L40.1816 37.1129ZM39.7578 38.5727L37.8371 38.0151L37.8371 38.0151L39.7578 38.5727ZM39.7099 38.7256L37.8145 38.0872L37.8145 38.0872L39.7099 38.7256ZM39.2228 40.1715L41.1182 40.8099H41.1182L39.2228 40.1715ZM38.7358 41.6174L36.8404 40.979L36.8404 40.979L38.7358 41.6174ZM38.6506 41.7443L37.3525 40.2229L37.3525 40.2229L38.6506 41.7443ZM37.5194 42.7095L38.8175 44.231L38.8175 44.231L37.5194 42.7095ZM36.3882 43.6747L35.09 42.1532L35.09 42.1532L36.3882 43.6747ZM36.2497 43.7337L36.0415 41.7446L36.0415 41.7446L36.2497 43.7337ZM34.7495 43.8908L34.9577 45.8799H34.9577L34.7495 43.8908ZM33.2492 44.0478L33.041 42.0587H33.041L33.2492 44.0478ZM33.0903 44.0559L33.0944 42.0559H33.0943L33.0903 44.0559ZM31.5703 44.0528L31.5662 46.0528V46.0528L31.5703 44.0528ZM30.0503 44.0497L30.0543 42.0497H30.0543L30.0503 44.0497ZM29.8903 44.0435L30.0419 42.0492H30.0419L29.8903 44.0435ZM28.3703 43.9279L28.2187 45.9222H28.2187L28.3703 43.9279ZM26.8503 43.8124L27.0019 41.8181H27.0019L26.8503 43.8124ZM26.6903 43.8122L26.5428 41.8177H26.5428L26.6903 43.8122ZM25.1703 43.9246L25.3178 45.9192H25.3178L25.1703 43.9246ZM23.6503 44.037L23.5028 42.0425H23.5027L23.6503 44.037ZM23.4903 44.0453L23.4324 42.0461H23.4324L23.4903 44.0453ZM21.9703 44.0893L22.0282 46.0885H22.0282L21.9703 44.0893ZM20.4503 44.1333L20.3924 42.1342H20.3923L20.4503 44.1333ZM20.2903 44.1332L20.3516 42.1341L20.3516 42.1341L20.2903 44.1332ZM18.7703 44.0865L18.7089 46.0856H18.7089L18.7703 44.0865ZM17.2503 44.0399L17.3116 42.0408L17.3116 42.0408L17.2503 44.0399ZM17.0903 44.0352L17.1463 42.036H17.1463L17.0903 44.0352ZM15.5703 43.9926L15.5142 45.9918H15.5142L15.5703 43.9926ZM14.0503 43.95L14.1063 41.9508H14.1063L14.0503 43.95ZM13.8903 43.9446L13.9682 41.9462H13.9682L13.8903 43.9446ZM12.3703 43.8854L12.2924 45.8839H12.2924L12.3703 43.8854ZM10.8503 43.8262L10.9282 41.8277H10.9281L10.8503 43.8262ZM10.6907 43.8234L10.6825 41.8234H10.6825L10.6907 43.8234ZM9.17826 43.8295L9.18644 45.8295H9.18644L9.17826 43.8295ZM7.66586 43.8357L7.65768 41.8358H7.65766L7.66586 43.8357ZM7.51806 43.8015L8.42153 42.0172L8.42152 42.0172L7.51806 43.8015ZM6.22241 43.1455L5.31896 44.9298H5.31896L6.22241 43.1455ZM4.92676 42.4895L5.83021 40.7052L5.8302 40.7052L4.92676 42.4895ZM4.83537 42.3799L6.74618 41.7893L6.74618 41.7893L4.83537 42.3799ZM4.39468 40.9541L2.48387 41.5447H2.48387L4.39468 40.9541ZM3.95399 39.5284L5.86479 38.9377L5.86479 38.9377L3.95399 39.5284ZM3.92955 39.3733L5.92931 39.3423V39.3423L3.92955 39.3733ZM3.90596 37.8533L1.9062 37.8843L3.90596 37.8533ZM3.88237 36.3333L5.88212 36.3023H5.88212L3.88237 36.3333ZM3.88655 36.1733L1.89115 36.0378V36.0378L3.88655 36.1733ZM3.98974 34.6533L5.98515 34.7888V34.7888L3.98974 34.6533ZM4.09293 33.1333L2.09752 32.9978V32.9978L4.09293 33.1333ZM4.09391 32.9733L6.09081 32.8621V32.8621L4.09391 32.9733ZM4.00926 31.4533L2.01235 31.5645V31.5645L4.00926 31.4533ZM3.9246 29.9333L5.92151 29.8221V29.8221L3.9246 29.9333ZM3.92428 29.7733L1.92695 29.6701V29.6701L3.92428 29.7733ZM4.00281 28.2533L6.00014 28.3565L4.00281 28.2533ZM4.08133 26.7333L2.084 26.6301V26.6301L4.08133 26.7333ZM4.08831 26.5739L2.08959 26.5023V26.5023L4.08831 26.5739ZM4.14233 25.0653L6.14105 25.1368L4.14233 25.0653ZM4.19635 23.5566L2.19763 23.4851V23.4851L4.19635 23.5566ZM4.234 23.4084L2.4493 22.5057L2.4493 22.5057L4.234 23.4084ZM4.89529 22.101L6.67998 23.0037H6.67998L4.89529 22.101ZM5.55658 20.7936L3.77189 19.8909L3.77188 19.8909L5.55658 20.7936ZM5.66819 20.7048L5.16421 18.7693L5.16421 18.7694L5.66819 20.7048ZM7.12752 20.3248L7.63149 22.2603H7.63149L7.12752 20.3248ZM8.58684 19.9448L8.08287 18.0094L8.08287 18.0094L8.58684 19.9448ZM8.74365 19.9222L8.67709 17.9233H8.67709L8.74365 19.9222ZM10.2636 19.8715L10.3302 21.8704H10.3302L10.2636 19.8715ZM11.7836 19.8209L11.7171 17.822L11.7171 17.822L11.7836 19.8209ZM11.942 19.8137L11.8263 17.8171L11.8263 17.8171L11.942 19.8137ZM13.4307 19.7275L13.5463 21.7241H13.5463L13.4307 19.7275ZM14.9193 19.6413L14.8037 17.6446L14.8037 17.6446L14.9193 19.6413ZM15.0519 19.5825L13.6379 18.1681L13.6379 18.1681L15.0519 19.5825ZM16.0817 18.553L17.4958 19.9674V19.9674L16.0817 18.553ZM17.1116 17.5234L15.6976 16.109L15.6976 16.109L17.1116 17.5234ZM17.1995 17.3966L15.3855 16.5543L15.3855 16.5543L17.1995 17.3966ZM17.8399 16.0174L19.6539 16.8597L19.6539 16.8597L17.8399 16.0174ZM18.4804 14.6382L16.6664 13.7959L16.6664 13.7959L18.4804 14.6382ZM18.5524 14.4953L16.797 13.537L16.797 13.537L18.5524 14.4953ZM19.2813 13.1604L21.0367 14.1187V14.1187L19.2813 13.1604ZM20.0101 11.8254L18.2547 10.867L18.2547 10.867L20.0101 11.8254ZM20.0841 11.6835L18.2932 10.7932L18.2932 10.7932L20.0841 11.6835ZM20.7607 10.3224L22.5516 11.2128V11.2128L20.7607 10.3224ZM21.4374 8.96136L19.6465 8.071L19.6465 8.071L21.4374 8.96136ZM21.5084 8.81797L19.7145 7.93372L19.7145 7.93373L21.5084 8.81797ZM22.1804 7.45457L23.9743 8.33882V8.33882L22.1804 7.45457ZM22.8525 6.09118L21.0586 5.20692L21.0586 5.20693L22.8525 6.09118ZM22.9374 5.9746L21.5954 4.4917L21.5953 4.49171L22.9374 5.9746ZM23.8783 5.12311L25.2203 6.60601V6.606L23.8783 5.12311ZM24.8191 4.27161L23.4771 2.78871L23.4771 2.78871L24.8191 4.27161ZM24.9429 4.25324L24.2718 6.13728L24.2718 6.13728L24.9429 4.25324ZM26.3533 4.7556L27.0243 2.87156V2.87156L26.3533 4.7556ZM27.7636 5.25797L27.0925 7.14202L27.0925 7.14202L27.7636 5.25797ZM27.8847 5.34882L26.2673 6.52525L26.2673 6.52526L27.8847 5.34882ZM28.7747 6.57247L30.3921 5.39603L30.3921 5.39603L28.7747 6.57247ZM29.6648 7.79613L28.0474 8.97258L28.0474 8.97258L29.6648 7.79613ZM29.719 7.93859L27.7279 8.12689V8.1269L29.719 7.93859ZM29.8593 9.42171L31.8504 9.23341V9.23341L29.8593 9.42171ZM29.9995 10.9048L28.0084 11.0931V11.0931L29.9995 10.9048ZM30.0068 11.0023L28.0068 10.9845V10.9845L30.0068 11.0023ZM30.0035 11.3714L32.0034 11.3893V11.3893L30.0035 11.3714ZM30.0002 11.7406L28.0003 11.7227V11.7228L30.0002 11.7406ZM29.9825 11.8381L28.0308 11.4015L28.0308 11.4015L29.9825 11.8381ZM14 20H12V20.2H14H16V20H14ZM14 20.2L12 20.1948L11.9925 23.0448L13.9925 23.05L15.9925 23.0552L16 20.2052L14 20.2ZM13.9925 23.05L11.9925 23.0448C11.9923 23.1437 11.9919 23.2164 11.9916 23.2646L13.9915 23.28L15.9915 23.2954C15.9919 23.2369 15.9922 23.1563 15.9925 23.0552L13.9925 23.05ZM13.9915 23.28L11.9916 23.2646L11.9799 24.7846L13.9798 24.8L15.9798 24.8154L15.9915 23.2954L13.9915 23.28ZM13.9798 24.8L11.9799 24.7846L11.9682 26.3046L13.9682 26.32L15.9681 26.3354L15.9798 24.8154L13.9798 24.8ZM13.9682 26.32L11.9682 26.3046C11.968 26.3375 11.9672 26.3705 11.966 26.4034L13.9645 26.48L15.963 26.5566C15.9658 26.4829 15.9675 26.4091 15.9681 26.3354L13.9682 26.32ZM13.9645 26.48L11.966 26.4034L11.9077 27.9234L13.9062 28L15.9048 28.0766L15.963 26.5566L13.9645 26.48ZM13.9062 28L11.9077 27.9234L11.8494 29.4434L13.848 29.52L15.8465 29.5966L15.9048 28.0766L13.9062 28ZM13.848 29.52L11.8494 29.4434C11.8464 29.5229 11.8449 29.6025 11.845 29.682L13.845 29.68L15.845 29.678C15.845 29.6509 15.8455 29.6238 15.8465 29.5966L13.848 29.52ZM13.845 29.68L11.845 29.682L11.8465 31.202L13.8465 31.2L15.8465 31.198L15.845 29.678L13.845 29.68ZM13.8465 31.2L11.8465 31.202L11.8481 32.722L13.8481 32.72L15.8481 32.718L15.8465 31.198L13.8465 31.2ZM13.8481 32.72L11.8481 32.722C11.8481 32.7759 11.8482 32.8297 11.8483 32.8835L13.8483 32.88L15.8483 32.8765C15.8482 32.8236 15.8481 32.7708 15.8481 32.718L13.8481 32.72ZM13.8483 32.88L11.8483 32.8835L11.851 34.4035L13.851 34.4L15.851 34.3965L15.8483 32.8765L13.8483 32.88ZM13.851 34.4L11.851 34.4035L11.8536 35.9235L13.8536 35.92L15.8536 35.9165L15.851 34.3965L13.851 34.4ZM13.8536 35.92L11.8536 35.9235C11.8538 36.0108 11.8562 36.0981 11.8608 36.1852L13.858 36.08L15.8552 35.9748C15.8542 35.9553 15.8537 35.9358 15.8536 35.9165L13.8536 35.92ZM13.858 36.08L11.8608 36.1852L11.9409 37.7052L13.9381 37.6L15.9353 37.4948L15.8552 35.9748L13.858 36.08ZM13.9381 37.6L11.9409 37.7052L12.0209 39.2252L14.0182 39.12L16.0154 39.0148L15.9353 37.4948L13.9381 37.6ZM14.0182 39.12L12.0209 39.2252C12.0213 39.2314 12.0214 39.2375 12.0213 39.2435L14.0209 39.28L16.0206 39.3165C16.0224 39.2159 16.0207 39.1152 16.0154 39.0148L14.0182 39.12ZM14.0209 39.28L12.0213 39.2435L11.9935 40.7635L13.9932 40.8L15.9929 40.8365L16.0206 39.3165L14.0209 39.28ZM13.9932 40.8L11.9935 40.7635L11.9658 42.2835L13.9654 42.32L15.9651 42.3565L15.9929 40.8365L13.9932 40.8ZM13.9654 42.32L11.9658 42.2835C11.9647 42.3429 11.9638 42.4161 11.9654 42.485L13.9649 42.44L15.9644 42.395C15.9645 42.3984 15.9645 42.4009 15.9645 42.4025C15.9645 42.4041 15.9645 42.4049 15.9645 42.4051C15.9645 42.4053 15.9645 42.4035 15.9646 42.3993C15.9646 42.3908 15.9647 42.3769 15.9651 42.3565L13.9654 42.32ZM13.9649 42.44L11.9654 42.485L11.9825 43.245L13.982 43.2L15.9815 43.155L15.9644 42.395L13.9649 42.44ZM13.982 43.2L11.9829 43.26L12.0009 43.86L14 43.8L15.9991 43.74L15.9811 43.14L13.982 43.2ZM14 43.8H12V44H14H16V43.8H14ZM29.6507 13.3217L27.6989 12.8851L27.3671 14.3687L29.3188 14.8053L31.2706 15.2418L31.6025 13.7582L29.6507 13.3217ZM29.3188 14.8053L27.3671 14.3687C27.3684 14.3629 27.3699 14.3573 27.3716 14.3521L29.277 14.9597L31.1824 15.5674C31.2166 15.4603 31.246 15.3517 31.2706 15.2418L29.3188 14.8053ZM29.277 14.9597L27.3715 14.3521L26.9086 15.8038L28.814 16.4115L30.7194 17.0192L31.1824 15.5674L29.277 14.9597ZM28.814 16.4115L26.9086 15.8038L26.4456 17.2556L28.351 17.8633L30.2565 18.4709L30.7194 17.0192L28.814 16.4115ZM28.351 17.8633L26.4456 17.2556C26.3513 17.5513 26.2443 18.0957 26.4793 18.708L28.3465 17.9914L30.2137 17.2748C30.4222 17.8181 30.3183 18.2771 30.2565 18.4709L28.351 17.8633ZM28.3465 17.9914L26.4793 18.708L26.8565 19.6908L28.7237 18.9742L30.5909 18.2576L30.2137 17.2748L28.3465 17.9914ZM28.7237 18.9742L26.8565 19.6908L27.2337 20.6737L29.1009 19.9571L30.9681 19.2404L30.5909 18.2576L28.7237 18.9742ZM29.1009 19.9571L27.2337 20.6737C27.6597 21.7838 28.6949 21.9957 29.134 22.0103L29.2008 20.0115L29.2675 18.0126C29.4332 18.0181 29.7472 18.052 30.0926 18.2402C30.4814 18.4521 30.7996 18.8014 30.9681 19.2404L29.1009 19.9571ZM29.2008 20.0115L29.134 22.0103L30.654 22.0611L30.7208 20.0622L30.7875 18.0634L29.2675 18.0126L29.2008 20.0115ZM30.7208 20.0622L30.654 22.0611L32.174 22.1119L32.2408 20.113L32.3075 18.1141L30.7875 18.0634L30.7208 20.0622ZM32.2408 20.113L32.174 22.1119C32.2983 22.1161 32.4225 22.1136 32.5463 22.1045L32.4008 20.1099L32.2552 18.1152C32.2724 18.1139 32.2899 18.1135 32.3075 18.1141L32.2408 20.113ZM32.4008 20.1099L32.5463 22.1045L34.0663 21.9936L33.9208 19.9989L33.7752 18.0042L32.2552 18.1152L32.4008 20.1099ZM33.9208 19.9989L34.0663 21.9936L35.5863 21.8827L35.4408 19.888L35.2952 17.8933L33.7752 18.0042L33.9208 19.9989ZM35.4408 19.888L35.5863 21.8827C35.5575 21.8848 35.5283 21.8852 35.4992 21.8837L35.6008 19.8863L35.7023 17.8888C35.5665 17.8819 35.4307 17.8834 35.2952 17.8933L35.4408 19.888ZM35.6008 19.8863L35.4992 21.8837L37.0192 21.961L37.1208 19.9636L37.2224 17.9662L35.7024 17.8888L35.6008 19.8863ZM37.1208 19.9636L37.0192 21.961L38.5392 22.0383L38.6408 20.0409L38.7424 18.0435L37.2224 17.9662L37.1208 19.9636ZM38.6408 20.0409L38.5392 22.0383C38.5101 22.0368 38.479 22.0334 38.4464 22.0276L38.7982 20.0588L39.15 18.09C39.0141 18.0657 38.8781 18.0504 38.7424 18.0435L38.6408 20.0409ZM38.7982 20.0588L38.4464 22.0276L39.9173 22.2904L40.2691 20.3216L40.6209 18.3528L39.15 18.09L38.7982 20.0588ZM40.2691 20.3216L39.9173 22.2904L41.3882 22.5533L41.74 20.5845L42.0918 18.6156L40.6209 18.3528L40.2691 20.3216ZM41.74 20.5845L41.3882 22.5533C41.1738 22.515 40.9386 22.4321 40.7123 22.2838C40.4855 22.1351 40.3128 21.9503 40.1892 21.7624L41.8601 20.6632L43.5309 19.564C43.1965 19.0557 42.6762 18.7201 42.0918 18.6156L41.74 20.5845ZM41.8601 20.6632L40.1892 21.7624L41.0004 22.9953L42.6712 21.8961L44.3421 20.7969L43.5309 19.564L41.8601 20.6632ZM42.6712 21.8961L41.0004 22.9953L41.8115 24.2283L43.4823 23.1291L45.1532 22.0299L44.3421 20.7969L42.6712 21.8961ZM43.4823 23.1291L41.8115 24.2283C41.58 23.8765 41.4834 23.4558 41.5286 23.0503L43.5163 23.2721L45.504 23.494C45.5608 22.9843 45.4416 22.4682 45.1532 22.0299L43.4823 23.1291ZM43.5163 23.2721L41.5286 23.0503L41.3629 24.535L43.3506 24.7569L45.3382 24.9787L45.504 23.494L43.5163 23.2721ZM43.3506 24.7569L41.3629 24.535L41.1972 26.0198L43.1849 26.2416L45.1725 26.4635L45.3382 24.9787L43.3506 24.7569ZM43.1849 26.2416L41.1972 26.0198C41.2094 25.9104 41.2346 25.8059 41.2699 25.7094L43.1487 26.3951L45.0274 27.0808C45.0993 26.8838 45.1487 26.6771 45.1725 26.4634L43.1849 26.2416ZM43.1487 26.3951L41.2699 25.7094L40.7476 27.1404L42.6264 27.8261L44.5052 28.5118L45.0274 27.0808L43.1487 26.3951ZM42.6264 27.8261L40.7476 27.1404L40.2253 28.5715L42.1041 29.2572L43.9829 29.9429L44.5052 28.5118L42.6264 27.8261ZM42.1041 29.2572L40.2253 28.5715C40.1745 28.7107 40.1337 28.8531 40.1032 28.9979L42.06 29.411L44.0169 29.824C44.0084 29.8642 43.997 29.9041 43.9829 29.9428L42.1041 29.2572ZM42.06 29.411L40.1032 28.998L39.7884 30.4894L41.7452 30.9025L43.7021 31.3155L44.0169 29.824L42.06 29.411ZM41.7452 30.9025L39.7884 30.4894L39.4736 31.9809L41.4305 32.3939L43.3873 32.807L43.7021 31.3155L41.7452 30.9025ZM41.4305 32.3939L39.4736 31.9809C39.468 32.0071 39.462 32.0331 39.4555 32.0589L41.3942 32.55L43.333 33.0411C43.3527 32.9634 43.3708 32.8854 43.3873 32.8069L41.4305 32.3939ZM41.3942 32.55L39.4555 32.0589L39.082 33.5333L41.0207 34.0244L42.9595 34.5155L43.333 33.0411L41.3942 32.55ZM41.0207 34.0244L39.082 33.5333L38.7085 35.0077L40.6473 35.4988L42.586 35.9899L42.9595 34.5155L41.0207 34.0244ZM40.6473 35.4988L38.7085 35.0077C38.701 35.0372 38.6931 35.0665 38.6846 35.0956L40.6053 35.6532L42.526 36.2108C42.5473 36.1375 42.5673 36.0639 42.586 35.9899L40.6473 35.4988ZM40.6053 35.6532L38.6846 35.0956L38.2608 36.5554L40.1816 37.1129L42.1023 37.6705L42.526 36.2108L40.6053 35.6532ZM40.1816 37.1129L38.2608 36.5554L37.8371 38.0151L39.7578 38.5727L41.6785 39.1303L42.1023 37.6705L40.1816 37.1129ZM39.7578 38.5727L37.8371 38.0151C37.8301 38.0391 37.8226 38.0631 37.8145 38.0872L39.7099 38.7256L41.6052 39.364C41.6313 39.2866 41.6557 39.2087 41.6785 39.1302L39.7578 38.5727ZM39.7099 38.7256L37.8145 38.0872L37.3275 39.5331L39.2228 40.1715L41.1182 40.8099L41.6052 39.364L39.7099 38.7256ZM39.2228 40.1715L37.3275 39.5331L36.8404 40.979L38.7358 41.6174L40.6312 42.2559L41.1182 40.8099L39.2228 40.1715ZM38.7358 41.6174L36.8404 40.979C36.9357 40.6962 37.1094 40.4302 37.3525 40.2229L38.6506 41.7443L39.9487 43.2658C40.2712 42.9907 40.5017 42.6402 40.6312 42.2558L38.7358 41.6174ZM38.6506 41.7443L37.3525 40.2229L36.2213 41.188L37.5194 42.7095L38.8175 44.231L39.9488 43.2658L38.6506 41.7443ZM37.5194 42.7095L36.2213 41.188L35.09 42.1532L36.3882 43.6747L37.6863 45.1961L38.8175 44.231L37.5194 42.7095ZM36.3882 43.6747L35.09 42.1532C35.3627 41.9206 35.698 41.7806 36.0415 41.7446L36.2497 43.7337L36.4579 45.7229C36.9066 45.6759 37.3343 45.4965 37.6863 45.1961L36.3882 43.6747ZM36.2497 43.7337L36.0415 41.7446L34.5412 41.9017L34.7495 43.8908L34.9577 45.8799L36.4579 45.7229L36.2497 43.7337ZM34.7495 43.8908L34.5412 41.9017L33.041 42.0587L33.2492 44.0478L33.4574 46.037L34.9577 45.8799L34.7495 43.8908ZM33.2492 44.0478L33.041 42.0587C33.0594 42.0568 33.0773 42.0559 33.0944 42.0559L33.0903 44.0559L33.0862 46.0559C33.2099 46.0562 33.3337 46.0499 33.4575 46.037L33.2492 44.0478ZM33.0903 44.0559L33.0943 42.0559L31.5744 42.0528L31.5703 44.0528L31.5662 46.0528L33.0862 46.0559L33.0903 44.0559ZM31.5703 44.0528L31.5744 42.0528L30.0543 42.0497L30.0503 44.0497L30.0462 46.0497L31.5662 46.0528L31.5703 44.0528ZM30.0503 44.0497L30.0543 42.0497C30.0504 42.0497 30.0463 42.0496 30.0419 42.0492L29.8903 44.0435L29.7386 46.0377C29.8409 46.0455 29.9435 46.0495 30.0462 46.0497L30.0503 44.0497ZM29.8903 44.0435L30.0419 42.0492L28.5219 41.9337L28.3703 43.9279L28.2187 45.9222L29.7387 46.0377L29.8903 44.0435ZM28.3703 43.9279L28.5219 41.9337L27.0019 41.8181L26.8503 43.8124L26.6987 45.8066L28.2187 45.9222L28.3703 43.9279ZM26.8503 43.8124L27.0019 41.8181C26.849 41.8065 26.6957 41.8063 26.5428 41.8177L26.6903 43.8122L26.8378 45.8068C26.7915 45.8102 26.7449 45.8101 26.6987 45.8066L26.8503 43.8124ZM26.6903 43.8122L26.5428 41.8177L25.0228 41.9301L25.1703 43.9246L25.3178 45.9192L26.8378 45.8068L26.6903 43.8122ZM25.1703 43.9246L25.0228 41.9301L23.5028 42.0425L23.6503 44.037L23.7978 46.0316L25.3178 45.9192L25.1703 43.9246ZM23.6503 44.037L23.5027 42.0425C23.4792 42.0442 23.4557 42.0454 23.4324 42.0461L23.4903 44.0453L23.5482 46.0444C23.6315 46.042 23.7147 46.0377 23.7978 46.0316L23.6503 44.037ZM23.4903 44.0453L23.4324 42.0461L21.9124 42.0901L21.9703 44.0893L22.0282 46.0885L23.5482 46.0444L23.4903 44.0453ZM21.9703 44.0893L21.9124 42.0901L20.3924 42.1342L20.4503 44.1333L20.5082 46.1325L22.0282 46.0885L21.9703 44.0893ZM20.4503 44.1333L20.3923 42.1342C20.3788 42.1346 20.3652 42.1346 20.3516 42.1341L20.2903 44.1332L20.2289 46.1323C20.322 46.1351 20.4151 46.1352 20.5082 46.1325L20.4503 44.1333ZM20.2903 44.1332L20.3516 42.1341L18.8316 42.0875L18.7703 44.0865L18.7089 46.0856L20.2289 46.1323L20.2903 44.1332ZM18.7703 44.0865L18.8316 42.0875L17.3116 42.0408L17.2503 44.0399L17.1889 46.0389L18.7089 46.0856L18.7703 44.0865ZM17.2503 44.0399L17.3116 42.0408C17.2565 42.0391 17.2014 42.0375 17.1463 42.036L17.0903 44.0352L17.0342 46.0344C17.0858 46.0359 17.1374 46.0374 17.1889 46.0389L17.2503 44.0399ZM17.0903 44.0352L17.1463 42.036L15.6263 41.9934L15.5703 43.9926L15.5142 45.9918L17.0342 46.0344L17.0903 44.0352ZM15.5703 43.9926L15.6263 41.9934L14.1063 41.9508L14.0503 43.95L13.9942 45.9492L15.5142 45.9918L15.5703 43.9926ZM14.0503 43.95L14.1063 41.9508C14.0603 41.9495 14.0142 41.9479 13.9682 41.9462L13.8903 43.9446L13.8124 45.9431C13.873 45.9455 13.9336 45.9475 13.9943 45.9492L14.0503 43.95ZM13.8903 43.9446L13.9682 41.9462L12.4482 41.8869L12.3703 43.8854L12.2924 45.8839L13.8124 45.9431L13.8903 43.9446ZM12.3703 43.8854L12.4482 41.8869L10.9282 41.8277L10.8503 43.8262L10.7724 45.8246L12.2924 45.8839L12.3703 43.8854ZM10.8503 43.8262L10.9281 41.8277C10.8463 41.8245 10.7644 41.823 10.6825 41.8234L10.6907 43.8234L10.6988 45.8233C10.723 45.8232 10.7476 45.8237 10.7724 45.8246L10.8503 43.8262ZM10.6907 43.8234L10.6825 41.8234L9.17008 41.8296L9.17826 43.8295L9.18644 45.8295L10.6988 45.8233L10.6907 43.8234ZM9.17826 43.8295L9.17008 41.8296L7.65768 41.8358L7.66586 43.8357L7.67403 45.8357L9.18644 45.8295L9.17826 43.8295ZM7.66586 43.8357L7.65766 41.8358C7.90773 41.8347 8.17263 41.8912 8.42153 42.0172L7.51806 43.8015L6.6146 45.5858C6.95442 45.7579 7.31785 45.8372 7.67405 45.8357L7.66586 43.8357ZM7.51806 43.8015L8.42152 42.0172L7.12586 41.3612L6.22241 43.1455L5.31896 44.9298L6.61461 45.5858L7.51806 43.8015ZM6.22241 43.1455L7.12587 41.3612L5.83021 40.7052L4.92676 42.4895L4.0233 44.2738L5.31896 44.9298L6.22241 43.1455ZM4.92676 42.4895L5.8302 40.7052C6.03276 40.8077 6.23438 40.9584 6.40571 41.1638C6.57624 41.3682 6.68373 41.5873 6.74618 41.7893L4.83537 42.3799L2.92457 42.9705C3.09516 43.5225 3.47933 43.9984 4.02331 44.2738L4.92676 42.4895ZM4.83537 42.3799L6.74618 41.7893L6.30548 40.3635L4.39468 40.9541L2.48387 41.5447L2.92457 42.9705L4.83537 42.3799ZM4.39468 40.9541L6.30549 40.3635L5.86479 38.9377L3.95399 39.5284L2.04318 40.119L2.48387 41.5447L4.39468 40.9541ZM3.95399 39.5284L5.86479 38.9377C5.90643 39.0725 5.92725 39.2094 5.92931 39.3423L3.92955 39.3733L1.92979 39.4043C1.93351 39.6439 1.97061 39.8842 2.04318 40.119L3.95399 39.5284ZM3.92955 39.3733L5.92931 39.3423L5.90572 37.8223L3.90596 37.8533L1.9062 37.8843L1.92979 39.4043L3.92955 39.3733ZM3.90596 37.8533L5.90572 37.8223L5.88212 36.3023L3.88237 36.3333L1.88261 36.3643L1.9062 37.8843L3.90596 37.8533ZM3.88237 36.3333L5.88212 36.3023C5.88216 36.3046 5.88209 36.3068 5.88196 36.3088L3.88655 36.1733L1.89115 36.0378C1.88377 36.1465 1.88091 36.2554 1.88261 36.3643L3.88237 36.3333ZM3.88655 36.1733L5.88196 36.3088L5.98515 34.7888L3.98974 34.6533L1.99433 34.5178L1.89115 36.0378L3.88655 36.1733ZM3.98974 34.6533L5.98515 34.7888L6.08834 33.2688L4.09293 33.1333L2.09752 32.9978L1.99433 34.5178L3.98974 34.6533ZM4.09293 33.1333L6.08834 33.2688C6.09753 33.1334 6.09836 32.9977 6.09081 32.8621L4.09391 32.9733L2.097 33.0845C2.09539 33.0556 2.09557 33.0266 2.09752 32.9978L4.09293 33.1333ZM4.09391 32.9733L6.09081 32.8621L6.00616 31.3421L4.00926 31.4533L2.01235 31.5645L2.097 33.0845L4.09391 32.9733ZM4.00926 31.4533L6.00616 31.3421L5.92151 29.8221L3.9246 29.9333L1.9277 30.0445L2.01235 31.5645L4.00926 31.4533ZM3.9246 29.9333L5.92151 29.8221C5.92252 29.8402 5.92255 29.8584 5.92162 29.8765L3.92428 29.7733L1.92695 29.6701C1.9205 29.7949 1.92075 29.9198 1.9277 30.0445L3.9246 29.9333ZM3.92428 29.7733L5.92162 29.8765L6.00014 28.3565L4.00281 28.2533L2.00547 28.1501L1.92695 29.6701L3.92428 29.7733ZM4.00281 28.2533L6.00014 28.3565L6.07867 26.8365L4.08133 26.7333L2.084 26.6301L2.00547 28.1501L4.00281 28.2533ZM4.08133 26.7333L6.07867 26.8365C6.08196 26.7727 6.08475 26.709 6.08703 26.6455L4.08831 26.5739L2.08959 26.5023C2.08807 26.5446 2.08621 26.5872 2.084 26.6301L4.08133 26.7333ZM4.08831 26.5739L6.08703 26.6455L6.14105 25.1368L4.14233 25.0653L2.14361 24.9937L2.08959 26.5023L4.08831 26.5739ZM4.14233 25.0653L6.14105 25.1368L6.19507 23.6282L4.19635 23.5566L2.19763 23.4851L2.14361 24.9937L4.14233 25.0653ZM4.19635 23.5566L6.19507 23.6282C6.18693 23.8555 6.13015 24.0908 6.01869 24.3111L4.234 23.4084L2.4493 22.5057C2.29144 22.8178 2.20956 23.1519 2.19763 23.4851L4.19635 23.5566ZM4.234 23.4084L6.01869 24.3111L6.67998 23.0037L4.89529 22.101L3.11059 21.1983L2.4493 22.5057L4.234 23.4084ZM4.89529 22.101L6.67998 23.0037L7.34127 21.6963L5.55658 20.7936L3.77188 19.8909L3.11059 21.1983L4.89529 22.101ZM5.55658 20.7936L7.34127 21.6963C7.23358 21.9092 7.07184 22.1233 6.84717 22.302C6.62376 22.4798 6.38618 22.5845 6.17217 22.6403L5.66819 20.7048L5.16421 18.7694C4.57627 18.9224 4.0626 19.3161 3.77189 19.8909L5.55658 20.7936ZM5.66819 20.7048L6.17216 22.6403L7.63149 22.2603L7.12752 20.3248L6.62354 18.3894L5.16421 18.7693L5.66819 20.7048ZM7.12752 20.3248L7.63149 22.2603L9.09082 21.8803L8.58684 19.9448L8.08287 18.0094L6.62354 18.3894L7.12752 20.3248ZM8.58684 19.9448L9.09081 21.8803C8.99778 21.9045 8.90331 21.918 8.81021 21.9211L8.74365 19.9222L8.67709 17.9233C8.47732 17.9299 8.27831 17.9585 8.08287 18.0094L8.58684 19.9448ZM8.74365 19.9222L8.81021 21.9211L10.3302 21.8704L10.2636 19.8715L10.1971 17.8727L8.67709 17.9233L8.74365 19.9222ZM10.2636 19.8715L10.3302 21.8704L11.8502 21.8198L11.7836 19.8209L11.7171 17.822L10.1971 17.8727L10.2636 19.8715ZM11.7836 19.8209L11.8502 21.8198C11.9196 21.8175 11.9888 21.8144 12.0577 21.8104L11.942 19.8137L11.8263 17.8171C11.7908 17.8191 11.7544 17.8208 11.7171 17.822L11.7836 19.8209ZM11.942 19.8137L12.0577 21.8104L13.5463 21.7241L13.4307 19.7275L13.315 17.7308L11.8263 17.8171L11.942 19.8137ZM13.4307 19.7275L13.5463 21.7241L15.035 21.6379L14.9193 19.6413L14.8037 17.6446L13.315 17.7308L13.4307 19.7275ZM14.9193 19.6413L15.035 21.6379C15.5638 21.6073 16.0739 21.3888 16.4659 20.9969L15.0519 19.5825L13.6379 18.1681C13.9576 17.8485 14.3793 17.6692 14.8037 17.6446L14.9193 19.6413ZM15.0519 19.5825L16.4659 20.9969L17.4958 19.9674L16.0817 18.553L14.6677 17.1386L13.6379 18.1681L15.0519 19.5825ZM16.0817 18.553L17.4958 19.9674L18.5256 18.9378L17.1116 17.5234L15.6976 16.109L14.6677 17.1386L16.0817 18.553ZM17.1116 17.5234L18.5256 18.9378C18.7348 18.7286 18.8967 18.4905 19.0135 18.2389L17.1995 17.3966L15.3855 16.5543C15.4574 16.3996 15.5606 16.2459 15.6976 16.109L17.1116 17.5234ZM17.1995 17.3966L19.0135 18.239L19.6539 16.8597L17.8399 16.0174L16.026 15.1751L15.3855 16.5543L17.1995 17.3966ZM17.8399 16.0174L19.6539 16.8597L20.2943 15.4805L18.4804 14.6382L16.6664 13.7959L16.026 15.1751L17.8399 16.0174ZM18.4804 14.6382L20.2943 15.4805C20.2986 15.4714 20.3031 15.4625 20.3079 15.4537L18.5524 14.4953L16.797 13.537C16.7507 13.6218 16.7071 13.7082 16.6664 13.7959L18.4804 14.6382ZM18.5524 14.4953L20.3079 15.4537L21.0367 14.1187L19.2813 13.1604L17.5258 12.202L16.797 13.537L18.5524 14.4953ZM19.2813 13.1604L21.0367 14.1187L21.7655 12.7838L20.0101 11.8254L18.2547 10.867L17.5258 12.202L19.2813 13.1604ZM20.0101 11.8254L21.7655 12.7838C21.8033 12.7145 21.8398 12.6445 21.8749 12.5739L20.0841 11.6835L18.2932 10.7932C18.2808 10.818 18.268 10.8426 18.2547 10.867L20.0101 11.8254ZM20.0841 11.6835L21.8749 12.5739L22.5516 11.2128L20.7607 10.3224L18.9699 9.43208L18.2932 10.7932L20.0841 11.6835ZM20.7607 10.3224L22.5516 11.2128L23.2283 9.85173L21.4374 8.96136L19.6465 8.071L18.9699 9.43208L20.7607 10.3224ZM21.4374 8.96136L23.2283 9.85173C23.253 9.80193 23.2777 9.75209 23.3023 9.70221L21.5084 8.81797L19.7145 7.93373C19.6919 7.97952 19.6693 8.02528 19.6465 8.071L21.4374 8.96136ZM21.5084 8.81797L23.3023 9.70222L23.9743 8.33882L22.1804 7.45457L20.3865 6.57033L19.7145 7.93372L21.5084 8.81797ZM22.1804 7.45457L23.9743 8.33882L24.6464 6.97542L22.8525 6.09118L21.0586 5.20693L20.3865 6.57033L22.1804 7.45457ZM22.8525 6.09118L24.6464 6.97543C24.58 7.11013 24.4664 7.28822 24.2794 7.4575L22.9374 5.9746L21.5953 4.49171C21.3423 4.72074 21.1721 4.97655 21.0586 5.20692L22.8525 6.09118ZM22.9374 5.9746L24.2794 7.4575L25.2203 6.60601L23.8783 5.12311L22.5362 3.64021L21.5954 4.4917L22.9374 5.9746ZM23.8783 5.12311L25.2203 6.606L26.1612 5.75451L24.8191 4.27161L23.4771 2.78871L22.5362 3.64021L23.8783 5.12311ZM24.8191 4.27161L26.1611 5.75451C25.9056 5.98575 25.5655 6.16398 25.1686 6.22292C24.7912 6.27896 24.4775 6.21055 24.2718 6.13728L24.9429 4.25324L25.614 2.36919C25.0209 2.15794 24.1649 2.16623 23.4771 2.78871L24.8191 4.27161ZM24.9429 4.25324L24.2718 6.13728L25.6822 6.63965L26.3533 4.7556L27.0243 2.87156L25.614 2.36919L24.9429 4.25324ZM26.3533 4.7556L25.6822 6.63965L27.0925 7.14202L27.7636 5.25797L28.4347 3.37392L27.0243 2.87156L26.3533 4.7556ZM27.7636 5.25797L27.0925 7.14202C26.7582 7.02294 26.4703 6.80441 26.2673 6.52525L27.8847 5.34882L29.5021 4.17238C29.2366 3.80735 28.868 3.52826 28.4347 3.37392L27.7636 5.25797ZM27.8847 5.34882L26.2673 6.52526L27.1573 7.74892L28.7747 6.57247L30.3921 5.39603L29.5021 4.17237L27.8847 5.34882ZM28.7747 6.57247L27.1573 7.74892L28.0474 8.97258L29.6648 7.79613L31.2822 6.61969L30.3921 5.39603L28.7747 6.57247ZM29.6648 7.79613L28.0474 8.97258C27.8712 8.73037 27.7573 8.43763 27.7279 8.12689L29.719 7.93859L31.7101 7.75029C31.6709 7.33548 31.5208 6.94776 31.2822 6.61968L29.6648 7.79613ZM29.719 7.93859L27.7279 8.1269L27.8682 9.61002L29.8593 9.42171L31.8504 9.23341L31.7101 7.75029L29.719 7.93859ZM29.8593 9.42171L27.8682 9.61002L28.0084 11.0931L29.9995 10.9048L31.9907 10.7165L31.8504 9.23341L29.8593 9.42171ZM29.9995 10.9048L28.0084 11.0931C28.0103 11.1126 28.0107 11.1187 28.0105 11.1157C28.0104 11.1143 28.0097 11.1045 28.0089 11.0895C28.0085 11.0817 28.008 11.0695 28.0075 11.0542C28.0071 11.0399 28.0066 11.0154 28.0068 10.9845L30.0068 11.0023L32.0067 11.0202C32.0079 10.8803 31.9919 10.7294 31.9907 10.7165L29.9995 10.9048ZM30.0068 11.0023L28.0068 10.9845L28.0035 11.3536L30.0035 11.3714L32.0034 11.3893L32.0067 11.0202L30.0068 11.0023ZM30.0035 11.3714L28.0035 11.3536L28.0003 11.7227L30.0002 11.7406L32.0001 11.7584L32.0034 11.3893L30.0035 11.3714ZM30.0002 11.7406L28.0003 11.7228C28.0008 11.6569 28.0047 11.6042 28.0074 11.5725C28.0104 11.5387 28.0137 11.5111 28.0162 11.4924C28.021 11.4561 28.0256 11.4295 28.0276 11.4187C28.0316 11.3967 28.0338 11.3882 28.0308 11.4015L29.9825 11.8381L31.9343 12.2747C31.943 12.236 31.9539 12.1851 31.9637 12.1307C31.9653 12.1221 31.9983 11.9561 32.0001 11.7584L30.0002 11.7406ZM29.9825 11.8381L28.0308 11.4015L27.6989 12.8851L29.6507 13.3217L31.6025 13.7582L31.9343 12.2747L29.9825 11.8381Z" fill="#FD9476"/>
</svg>
