<svg width="48" height="48" viewBox="0 0 48 48" fill="none" xmlns="http://www.w3.org/2000/svg">
<path d="M4.19431 23.1401C3.71938 24.1373 4.14282 25.3308 5.14007 25.8057C6.13733 26.2806 7.33077 25.8572 7.80569 24.8599L6 24L4.19431 23.1401ZM6.08599 23.8194L7.89168 24.6794L8.00892 24.4332L8.05598 24.1646L6.08599 23.8194ZM6.55049 21.1685L4.58051 20.8233L4.58051 20.8233L6.55049 21.1685ZM6.61505 20.712L4.62142 20.5526V20.5526L6.61505 20.712ZM6.73157 19.2547L8.72521 19.4141V19.4141L6.73157 19.2547ZM6.84809 17.7974L4.85446 17.638V17.638L6.84809 17.7974ZM6.93936 17.494L5.18953 16.5254L5.18953 16.5254L6.93936 17.494ZM7.64422 16.2206L9.39404 17.1891H9.39404L7.64422 16.2206ZM8.34908 14.9472L6.59925 13.9786L6.59925 13.9786L8.34908 14.9472ZM8.5288 14.682L6.98208 13.414L6.98208 13.414L8.5288 14.682ZM9.44147 13.5686L10.9882 14.8366V14.8366L9.44147 13.5686ZM10.3541 12.4553L8.80742 11.1873L8.80741 11.1874L10.3541 12.4553ZM10.5605 12.2101L9.04692 10.9027L9.04692 10.9027L10.5605 12.2101ZM11.5052 11.1164L13.0187 12.4237V12.4237L11.5052 11.1164ZM12.4498 10.0227L10.9362 8.71533L10.9362 8.71533L12.4498 10.0227ZM12.7013 9.83423L11.8704 8.01498L11.8704 8.01498L12.7013 9.83423ZM14.0196 9.23215L14.8504 11.0514H14.8504L14.0196 9.23215ZM15.3379 8.63006L14.507 6.81081L14.507 6.81082L15.3379 8.63006ZM15.6194 8.47575L14.5322 6.79701L14.5322 6.79701L15.6194 8.47575ZM16.8343 7.68901L17.9214 9.36775L17.9214 9.36775L16.8343 7.68901ZM18.0492 6.90227L16.962 5.22352L16.962 5.22352L18.0492 6.90227ZM18.3441 6.79976L18.1563 4.8086V4.8086L18.3441 6.79976ZM19.7837 6.66395L19.9715 8.65511V8.65511L19.7837 6.66395ZM21.2232 6.52814L21.0354 4.53698V4.53698L21.2232 6.52814ZM21.5398 6.50671L21.4588 4.50835H21.4588L21.5398 6.50671ZM22.9489 6.44962L23.0299 8.44799V8.44799L22.9489 6.44962ZM24.3581 6.39254L24.2772 4.39418H24.2772L24.3581 6.39254ZM24.6763 6.37385L24.524 4.37966V4.37966L24.6763 6.37385ZM26.1312 6.2627L26.2836 8.25689V8.25689L26.1312 6.2627ZM27.5861 6.15155L27.4337 4.15737V4.15737L27.5861 6.15155ZM27.9008 6.1901L27.2698 8.08795L27.2698 8.08795L27.9008 6.1901ZM29.2785 6.64814L29.9095 4.75029V4.75028L29.2785 6.64814ZM30.6562 7.10618L30.0252 9.00404L30.0252 9.00404L30.6562 7.10618ZM30.9583 7.2189L30.1922 9.06635L30.1922 9.06636L30.9583 7.2189ZM32.3001 7.77529L33.0662 5.92783L33.0662 5.92783L32.3001 7.77529ZM33.6418 8.33168L32.8758 10.1791L32.8758 10.1791L33.6418 8.33168ZM33.9144 8.49726L32.6281 10.0287L32.6281 10.0287L33.9144 8.49726ZM35.0261 9.43101L36.3125 7.89959V7.89959L35.0261 9.43101ZM36.1377 10.3648L34.8514 11.8962L34.8514 11.8962L36.1377 10.3648ZM36.3666 10.5888L34.8619 11.9064L34.8619 11.9064L36.3666 10.5888ZM37.3148 11.6718L38.8195 10.3542V10.3542L37.3148 11.6718ZM38.2631 12.7547L36.7584 14.0722L36.7584 14.0722L38.2631 12.7547ZM38.4862 12.9835L37.1313 14.4546L37.1313 14.4546L38.4862 12.9835ZM39.5463 13.9598L40.9012 12.4887V12.4887L39.5463 13.9598ZM40.6064 14.9362L39.2515 16.4073L39.2515 16.4073L40.6064 14.9362ZM40.788 15.0925L39.5892 16.6934L39.5892 16.6934L40.788 15.0925ZM41.3621 15.5223L42.5689 13.9274L42.5609 13.9214L41.3621 15.5223ZM41.8381 15.8825L40.6314 17.4774L40.6473 17.4895L40.6634 17.5012L41.8381 15.8825ZM42 16V18H42.9534L43.5537 17.2593L42 16ZM43.9994 6.04874C44.0263 4.9445 43.153 4.02751 42.0487 4.00059C40.9445 3.97367 40.0275 4.84702 40.0006 5.95126L42 6L43.9994 6.04874ZM41.9298 8.88L39.9304 8.83126V8.83126L41.9298 8.88ZM41.9376 9.36L39.9471 9.55445V9.55446L41.9376 9.36ZM42.0783 10.8L44.0688 10.6055V10.6055L42.0783 10.8ZM42.219 12.24L40.2285 12.4345L40.2285 12.4345L42.219 12.24ZM42.2391 12.56L40.2399 12.616V12.616L42.2391 12.56ZM42.2794 14L44.2786 13.944V13.944L42.2794 14ZM42.3197 15.44L40.3205 15.496L40.3205 15.496L42.3197 15.44ZM42.308 15.62L40.7543 14.3606L40.7543 14.3607L42.308 15.62ZM42.1621 15.8L43.7158 17.0593L43.7158 17.0593L42.1621 15.8ZM41.8 16V14H41.7255L41.6511 14.0055L41.8 16ZM39.1 16.2016L38.9511 14.2071H38.9511L39.1 16.2016ZM38.64 16.2201L38.6885 14.2207H38.6885L38.64 16.2201ZM37.2 16.1851L37.1515 18.1846V18.1846L37.2 16.1851ZM35.76 16.1502L35.8085 14.1508H35.8085L35.76 16.1502ZM35.44 16.147L35.4318 14.147H35.4318L35.44 16.147ZM34 16.1529L34.0082 18.1529V18.1529L34 16.1529ZM32.56 16.1588L32.5518 14.1588H32.5518L32.56 16.1588ZM32.38 16.1515L31.6394 18.0093V18.0093L32.38 16.1515ZM32.2 16.0797L30.2 16.0797L30.2 17.4355L31.4594 17.9376L32.2 16.0797ZM32.2 16L34.2 16L34.2 14H32.2V16ZM32 14C30.8954 14 30 14.8954 30 16C30 17.1046 30.8954 18 32 18V16V14ZM43.8057 24.8599C44.2806 23.8627 43.8572 22.6692 42.8599 22.1943C41.8627 21.7194 40.6692 22.1428 40.1943 23.1401L42 24L43.8057 24.8599ZM41.914 24.1806L40.1083 23.3206L39.8918 23.7752L39.9164 24.2781L41.914 24.1806ZM42.0486 26.9392L40.051 27.0367V27.0367L42.0486 26.9392ZM42.0173 27.4016L40.1002 26.8317L40.1002 26.8317L42.0173 27.4016ZM41.6002 28.8047L43.5173 29.3746V29.3746L41.6002 28.8047ZM41.1831 30.2078L39.266 29.6379L39.266 29.638L41.1831 30.2078ZM41.0408 30.4947L39.4275 29.3127L39.4275 29.3127L41.0408 30.4947ZM40.1768 31.674L41.7901 32.856V32.856L40.1768 31.674ZM39.3128 32.8532L37.6995 31.6712L37.6995 31.6712L39.3128 32.8532ZM39.1446 33.1284L37.3563 32.2329L37.3563 32.2329L39.1446 33.1284ZM38.4953 34.4251L40.2836 35.3206L40.2836 35.3206L38.4953 34.4251ZM37.8459 35.7219L36.0576 34.8264L36.0576 34.8264L37.8459 35.7219ZM37.6552 35.975L36.3014 34.5029L36.3014 34.5029L37.6552 35.975ZM36.5882 36.9563L37.9421 38.4284L37.9421 38.4284L36.5882 36.9563ZM35.5213 37.9375L34.1674 36.4653L34.1674 36.4653L35.5213 37.9375ZM35.2594 38.118L34.3669 36.3282L34.3668 36.3282L35.2594 38.118ZM33.9699 38.7611L34.8624 40.5509H34.8624L33.9699 38.7611ZM32.6803 39.4042L31.7877 37.6144L31.7877 37.6144L32.6803 39.4042ZM32.397 39.5495L31.4635 37.7808L31.4634 37.7808L32.397 39.5495ZM31.1372 40.2145L32.0708 41.9832L32.0708 41.9832L31.1372 40.2145ZM29.8774 40.8795L28.9438 39.1108L28.9438 39.1108L29.8774 40.8795ZM29.5823 40.9864L29.1655 39.0303L29.1655 39.0303L29.5823 40.9864ZM28.1866 41.2838L28.6034 43.2399H28.6034L28.1866 41.2838ZM26.7909 41.5812L26.3741 39.6251L26.3741 39.6251L26.7909 41.5812ZM26.4779 41.6281L26.3038 39.6357H26.3038L26.4779 41.6281ZM25.0563 41.7523L25.2304 43.7447H25.2304L25.0563 41.7523ZM23.6348 41.8765L23.4607 39.8841H23.4607L23.6348 41.8765ZM23.3179 41.8769L23.4863 39.884H23.4863L23.3179 41.8769ZM21.8881 41.7561L21.7198 43.749L21.7198 43.749L21.8881 41.7561ZM20.4583 41.6353L20.6266 39.6424L20.6266 39.6424L20.4583 41.6353ZM20.1467 41.5757L20.7264 39.6615L20.7264 39.6615L20.1467 41.5757ZM18.7724 41.1595L18.1927 43.0736L18.1927 43.0736L18.7724 41.1595ZM17.3982 40.7433L17.9779 38.8291H17.9779L17.3982 40.7433ZM17.101 40.6299L17.9439 38.8162L17.9439 38.8161L17.101 40.6299ZM15.8002 40.0253L14.9573 41.839H14.9573L15.8002 40.0253ZM14.4994 39.4208L15.3423 37.6071L15.3423 37.6071L14.4994 39.4208ZM14.2135 39.2754L15.1815 37.5253L15.1815 37.5253L14.2135 39.2754ZM12.9409 38.5716L11.9729 40.3217H11.9729L12.9409 38.5716ZM11.6684 37.8677L12.6364 36.1176L12.6364 36.1176L11.6684 37.8677ZM11.4322 37.6563L13.0617 36.4966L13.0617 36.4966L11.4322 37.6563ZM10.579 36.4575L8.94958 37.6172L8.94959 37.6172L10.579 36.4575ZM9.72584 35.2587L11.3553 34.099L11.3553 34.099L9.72584 35.2587ZM9.49538 35.0349L10.6062 33.3718L10.6062 33.3718L9.49538 35.0349ZM8.27438 34.2195L7.16359 35.8826L7.16359 35.8826L8.27438 34.2195ZM7.05339 33.404L8.16418 31.7408L8.16417 31.7408L7.05339 33.404ZM6.87183 33.2477L8.51127 32.1022L8.51126 32.1022L6.87183 33.2477ZM6.45886 32.6567L4.70701 33.6216L4.75841 33.7149L4.81943 33.8022L6.45886 32.6567ZM6.16186 32.1175L7.91371 31.1526L7.69817 30.7612L7.3366 30.4988L6.16186 32.1175ZM6 32L4.90817 30.3243L4 30.9161V32H6ZM16.0982 33.9976C17.2015 33.9433 18.0518 33.005 17.9976 31.9018C17.9433 30.7985 17.005 29.9482 15.9018 30.0024L16 32L16.0982 33.9976ZM13.12 32.1416L13.0218 30.1441H13.0218L13.12 32.1416ZM12.64 32.1554L12.6641 30.1556H12.6641L12.64 32.1554ZM11.2 32.1381L11.1759 34.1379H11.1759L11.2 32.1381ZM9.76 32.1207L9.78412 30.1209H9.78412L9.76 32.1207ZM9.44 32.0998L9.67549 30.1137H9.67548L9.44 32.0998ZM8 31.9291L7.76452 33.9152H7.76452L8 31.9291ZM6.56 31.7583L6.79548 29.7723L6.79547 29.7722L6.56 31.7583ZM6.38 31.7524L5.2882 30.0767L5.28816 30.0767L6.38 31.7524ZM6.2 31.8697L7.29183 33.5454L7.29184 33.5454L6.2 31.8697ZM6 32.2L7.99724 32.305L8 32.2525V32.2H6ZM5.85811 34.9L3.86087 34.795V34.795L5.85811 34.9ZM5.86234 35.36L7.84691 35.112L7.8469 35.112L5.86234 35.36ZM6.0423 36.8L4.05773 37.048V37.048L6.0423 36.8ZM6.22225 38.24L8.20681 37.992V37.992L6.22225 38.24ZM6.22469 38.56L4.23662 38.3419H4.23662L6.22469 38.56ZM6.06673 40L8.0548 40.2181V40.2181L6.06673 40ZM5.90876 41.44L3.92068 41.2219H3.92068L5.90876 41.44ZM5.89664 41.62L7.82653 41.0951L7.82653 41.0951L5.89664 41.62ZM5.9456 41.8L4.01571 42.3249L4.41692 43.8L5.94561 43.8L5.9456 41.8ZM6 41.8H8V39.8L5.99999 39.8L6 41.8ZM4 42C4 43.1046 4.89543 44 6 44C7.10457 44 8 43.1046 8 42H6H4ZM6 24L7.80569 24.8599L7.89168 24.6794L6.08599 23.8194L4.2803 22.9595L4.19431 23.1401L6 24ZM6.08599 23.8194L8.05598 24.1646L8.52048 21.5137L6.55049 21.1685L4.58051 20.8233L4.11601 23.4742L6.08599 23.8194ZM6.55049 21.1685L8.52048 21.5137C8.55833 21.2976 8.59257 21.0731 8.60869 20.8714L6.61505 20.712L4.62142 20.5526C4.62149 20.5516 4.62104 20.5574 4.61947 20.571C4.61792 20.5843 4.61557 20.6028 4.61215 20.627C4.60521 20.6761 4.59496 20.7408 4.58051 20.8233L6.55049 21.1685ZM6.61505 20.712L8.60869 20.8714L8.72521 19.4141L6.73157 19.2547L4.73794 19.0953L4.62142 20.5526L6.61505 20.712ZM6.73157 19.2547L8.72521 19.4141L8.84173 17.9568L6.84809 17.7974L4.85446 17.638L4.73794 19.0953L6.73157 19.2547ZM6.84809 17.7974L8.84173 17.9568C8.82776 18.1316 8.77558 18.3065 8.68919 18.4626L6.93936 17.494L5.18953 16.5254C4.99871 16.8702 4.88569 17.2474 4.85446 17.638L6.84809 17.7974ZM6.93936 17.494L8.68919 18.4626L9.39404 17.1891L7.64422 16.2206L5.89439 15.252L5.18953 16.5254L6.93936 17.494ZM7.64422 16.2206L9.39404 17.1891L10.0989 15.9157L8.34908 14.9472L6.59925 13.9786L5.89439 15.252L7.64422 16.2206ZM8.34908 14.9472L10.0989 15.9157C10.0932 15.9259 10.0854 15.9379 10.0755 15.9499L8.5288 14.682L6.98208 13.414C6.83703 13.591 6.70933 13.7797 6.59925 13.9786L8.34908 14.9472ZM8.5288 14.682L10.0755 15.9499L10.9882 14.8366L9.44147 13.5686L7.89475 12.3007L6.98208 13.414L8.5288 14.682ZM9.44147 13.5686L10.9882 14.8366L11.9009 13.7232L10.3541 12.4553L8.80741 11.1874L7.89475 12.3007L9.44147 13.5686ZM10.3541 12.4553L11.9008 13.7232C11.9575 13.6541 12.0153 13.5855 12.0741 13.5174L10.5605 12.2101L9.04692 10.9027C8.96578 10.9967 8.88594 11.0916 8.80742 11.1873L10.3541 12.4553ZM10.5605 12.2101L12.0741 13.5174L13.0187 12.4237L11.5052 11.1164L9.99158 9.80904L9.04692 10.9027L10.5605 12.2101ZM11.5052 11.1164L13.0187 12.4237L13.9634 11.33L12.4498 10.0227L10.9362 8.71533L9.99158 9.80904L11.5052 11.1164ZM12.4498 10.0227L13.9634 11.33C13.8447 11.4674 13.6955 11.5789 13.5321 11.6535L12.7013 9.83423L11.8704 8.01498C11.5118 8.17877 11.1949 8.41591 10.9362 8.71533L12.4498 10.0227ZM12.7013 9.83423L13.5321 11.6535L14.8504 11.0514L14.0196 9.23215L13.1887 7.4129L11.8704 8.01498L12.7013 9.83423ZM14.0196 9.23215L14.8504 11.0514L16.1688 10.4493L15.3379 8.63006L14.507 6.81082L13.1887 7.4129L14.0196 9.23215ZM15.3379 8.63006L16.1688 10.4493C16.355 10.3642 16.5345 10.2659 16.7065 10.1545L15.6194 8.47575L14.5322 6.79701C14.5242 6.80219 14.5161 6.80669 14.507 6.81081L15.3379 8.63006ZM15.6194 8.47575L16.7065 10.1545L17.9214 9.36775L16.8343 7.68901L15.7471 6.01027L14.5322 6.79701L15.6194 8.47575ZM16.8343 7.68901L17.9214 9.36775L19.1363 8.58101L18.0492 6.90227L16.962 5.22352L15.7471 6.01027L16.8343 7.68901ZM18.0492 6.90227L19.1363 8.58101C18.9563 8.69755 18.7462 8.77071 18.5319 8.79092L18.3441 6.79976L18.1563 4.8086C17.7288 4.84893 17.322 4.99043 16.962 5.22352L18.0492 6.90227ZM18.3441 6.79976L18.5319 8.79092L19.9715 8.65511L19.7837 6.66395L19.5958 4.67279L18.1563 4.8086L18.3441 6.79976ZM19.7837 6.66395L19.9715 8.65511L21.4111 8.5193L21.2232 6.52814L21.0354 4.53698L19.5958 4.67279L19.7837 6.66395ZM21.2232 6.52814L21.4111 8.5193C21.483 8.51251 21.5529 8.50782 21.6207 8.50507L21.5398 6.50671L21.4588 4.50835C21.3178 4.51406 21.1767 4.52365 21.0354 4.53698L21.2232 6.52814ZM21.5398 6.50671L21.6207 8.50507L23.0299 8.44799L22.9489 6.44962L22.868 4.45126L21.4588 4.50835L21.5398 6.50671ZM22.9489 6.44962L23.0299 8.44799L24.4391 8.3909L24.3581 6.39254L24.2772 4.39418L22.868 4.45126L22.9489 6.44962ZM24.3581 6.39254L24.4391 8.3909C24.5681 8.38567 24.698 8.37802 24.8287 8.36804L24.6763 6.37385L24.524 4.37966C24.4392 4.38614 24.3569 4.39095 24.2772 4.39418L24.3581 6.39254ZM24.6763 6.37385L24.8287 8.36804L26.2836 8.25689L26.1312 6.2627L25.9789 4.26851L24.524 4.37966L24.6763 6.37385ZM26.1312 6.2627L26.2836 8.25689L27.7384 8.14574L27.5861 6.15155L27.4337 4.15737L25.9789 4.26851L26.1312 6.2627ZM27.5861 6.15155L27.7384 8.14574C27.5827 8.15764 27.4212 8.13828 27.2698 8.08795L27.9008 6.1901L28.5318 4.29224C28.1763 4.17406 27.8051 4.129 27.4337 4.15737L27.5861 6.15155ZM27.9008 6.1901L27.2698 8.08795L28.6475 8.546L29.2785 6.64814L29.9095 4.75028L28.5318 4.29224L27.9008 6.1901ZM29.2785 6.64814L28.6475 8.546L30.0252 9.00404L30.6562 7.10618L31.2872 5.20833L29.9095 4.75029L29.2785 6.64814ZM30.6562 7.10618L30.0252 9.00404C30.0816 9.02279 30.1373 9.04355 30.1922 9.06635L30.9583 7.2189L31.7244 5.37144C31.5807 5.31182 31.4349 5.25743 31.2872 5.20833L30.6562 7.10618ZM30.9583 7.2189L30.1922 9.06636L31.534 9.62275L32.3001 7.77529L33.0662 5.92783L31.7244 5.37144L30.9583 7.2189ZM32.3001 7.77529L31.534 9.62275L32.8758 10.1791L33.6418 8.33168L34.4079 6.48423L33.0662 5.92783L32.3001 7.77529ZM33.6418 8.33168L32.8758 10.1791C32.7867 10.1422 32.7021 10.0909 32.6281 10.0287L33.9144 8.49726L35.2008 6.96583C34.9621 6.76532 34.6958 6.60358 34.4079 6.48423L33.6418 8.33168ZM33.9144 8.49726L32.6281 10.0287L33.7397 10.9624L35.0261 9.43101L36.3125 7.89959L35.2008 6.96583L33.9144 8.49726ZM35.0261 9.43101L33.7397 10.9624L34.8514 11.8962L36.1377 10.3648L37.4241 8.83335L36.3125 7.89959L35.0261 9.43101ZM36.1377 10.3648L34.8514 11.8962C34.8563 11.9003 34.8595 11.9036 34.8619 11.9064L36.3666 10.5888L37.8713 9.2713C37.7333 9.11367 37.5839 8.96756 37.4241 8.83334L36.1377 10.3648ZM36.3666 10.5888L34.8619 11.9064L35.8102 12.9893L37.3148 11.6718L38.8195 10.3542L37.8713 9.27129L36.3666 10.5888ZM37.3148 11.6718L35.8102 12.9893L36.7584 14.0722L38.2631 12.7547L39.7677 11.4371L38.8195 10.3542L37.3148 11.6718ZM38.2631 12.7547L36.7584 14.0722C36.8758 14.2063 37.0002 14.3338 37.1313 14.4546L38.4862 12.9835L39.8411 11.5124C39.8152 11.4884 39.7908 11.4634 39.7677 11.4371L38.2631 12.7547ZM38.4862 12.9835L37.1313 14.4546L38.1914 15.4309L39.5463 13.9598L40.9012 12.4887L39.8411 11.5123L38.4862 12.9835ZM39.5463 13.9598L38.1914 15.4309L39.2515 16.4073L40.6064 14.9362L41.9613 13.4651L40.9012 12.4887L39.5463 13.9598ZM40.6064 14.9362L39.2515 16.4073C39.3407 16.4895 39.4622 16.5982 39.5892 16.6934L40.788 15.0925L41.9868 13.4915C42.0024 13.5033 42.0125 13.5114 42.0157 13.514C42.0193 13.5169 42.0193 13.517 42.0152 13.5135C42.0066 13.5061 41.9892 13.4907 41.9613 13.4651L40.6064 14.9362ZM40.788 15.0925L39.5892 16.6934L40.1633 17.1233L41.3621 15.5223L42.5609 13.9214L41.9868 13.4915L40.788 15.0925ZM41.3621 15.5223L40.1553 17.1173L40.6314 17.4774L41.8381 15.8825L43.0449 14.2876L42.5689 13.9274L41.3621 15.5223ZM41.8381 15.8825L40.6634 17.5012L40.8253 17.6186L42 16L43.1747 14.3814L43.0129 14.2639L41.8381 15.8825ZM42 6L40.0006 5.95126L39.9304 8.83126L41.9298 8.88L43.9292 8.92874L43.9994 6.04874L42 6ZM41.9298 8.88L39.9304 8.83126C39.9247 9.0629 39.9244 9.32218 39.9471 9.55445L41.9376 9.36L43.9281 9.16555C43.9301 9.18521 43.9284 9.17686 43.9276 9.12738C43.9268 9.0817 43.9271 9.0166 43.9292 8.92874L41.9298 8.88ZM41.9376 9.36L39.9471 9.55446L40.0878 10.9945L42.0783 10.8L44.0688 10.6055L43.9281 9.16554L41.9376 9.36ZM42.0783 10.8L40.0878 10.9945L40.2285 12.4345L42.219 12.24L44.2095 12.0455L44.0688 10.6055L42.0783 10.8ZM42.219 12.24L40.2285 12.4345C40.2344 12.4953 40.2382 12.5558 40.2399 12.616L42.2391 12.56L44.2383 12.504C44.234 12.3509 44.2244 12.198 44.2095 12.0455L42.219 12.24ZM42.2391 12.56L40.2399 12.616L40.2802 14.056L42.2794 14L44.2786 13.944L44.2383 12.504L42.2391 12.56ZM42.2794 14L40.2802 14.056L40.3205 15.496L42.3197 15.44L44.3189 15.384L44.2786 13.944L42.2794 14ZM42.3197 15.44L40.3205 15.496C40.3214 15.5268 40.3192 15.4967 40.3233 15.4349C40.3251 15.4076 40.3311 15.3214 40.3539 15.2077C40.3655 15.1501 40.3882 15.0503 40.432 14.9298C40.4697 14.8259 40.5607 14.5994 40.7543 14.3606L42.308 15.62L43.8617 16.8794C44.1964 16.4664 44.2685 16.0309 44.2757 15.9948C44.3022 15.8627 44.3111 15.7524 44.3148 15.6951C44.3227 15.5733 44.3211 15.4598 44.3189 15.384L42.3197 15.44ZM42.308 15.62L40.7543 14.3607L40.6084 14.5407L42.1621 15.8L43.7158 17.0593L43.8617 16.8793L42.308 15.62ZM42.1621 15.8L40.6084 14.5407L40.4463 14.7407L42 16L43.5537 17.2593L43.7158 17.0593L42.1621 15.8ZM42 16V14H41.8V16V18H42V16ZM41.8 16L41.6511 14.0055L38.9511 14.2071L39.1 16.2016L39.2489 18.196L41.9489 17.9945L41.8 16ZM39.1 16.2016L38.9511 14.2071C38.8674 14.2133 38.8027 14.2171 38.7546 14.219C38.704 14.221 38.6848 14.2206 38.6885 14.2207L38.64 16.2201L38.5915 18.2195C38.7981 18.2245 39.0295 18.2124 39.2489 18.196L39.1 16.2016ZM38.64 16.2201L38.6885 14.2207L37.2485 14.1857L37.2 16.1851L37.1515 18.1846L38.5915 18.2195L38.64 16.2201ZM37.2 16.1851L37.2485 14.1857L35.8085 14.1508L35.76 16.1502L35.7115 18.1496L37.1515 18.1846L37.2 16.1851ZM35.76 16.1502L35.8085 14.1508C35.6829 14.1478 35.5574 14.1465 35.4318 14.147L35.44 16.147L35.4482 18.147C35.536 18.1466 35.6237 18.1475 35.7115 18.1496L35.76 16.1502ZM35.44 16.147L35.4318 14.147L33.9918 14.1529L34 16.1529L34.0082 18.1529L35.4482 18.147L35.44 16.147ZM34 16.1529L33.9918 14.1529L32.5518 14.1588L32.56 16.1588L32.5682 18.1588L34.0082 18.1529L34 16.1529ZM32.56 16.1588L32.5518 14.1588C32.5093 14.159 32.5021 14.1584 32.5162 14.1589C32.5212 14.1591 32.5572 14.1605 32.609 14.166C32.6348 14.1687 32.685 14.1746 32.7488 14.1863C32.7816 14.1923 32.8282 14.2018 32.8837 14.2161C32.9359 14.2296 33.0201 14.2536 33.1206 14.2936L32.38 16.1515L31.6394 18.0093C31.8226 18.0823 31.9756 18.1112 32.0256 18.1204C32.0956 18.1332 32.1535 18.1401 32.1885 18.1438C32.2586 18.1513 32.3188 18.1542 32.3538 18.1556C32.4279 18.1587 32.5041 18.159 32.5682 18.1588L32.56 16.1588ZM32.38 16.1515L33.1206 14.2936L32.9406 14.2219L32.2 16.0797L31.4594 17.9376L31.6394 18.0093L32.38 16.1515ZM32.2 16.0797L34.2 16.0797L34.2 16L32.2 16L30.2 16V16.0797L32.2 16.0797ZM32.2 16V14H32V16V18H32.2V16ZM42 24L40.1943 23.1401L40.1083 23.3206L41.914 24.1806L43.7197 25.0405L43.8057 24.8599L42 24ZM41.914 24.1806L39.9164 24.2781L40.051 27.0367L42.0486 26.9392L44.0463 26.8417L43.9116 24.0831L41.914 24.1806ZM42.0486 26.9392L40.051 27.0367C40.0534 27.0845 40.0515 27.0933 40.0529 27.0726C40.0537 27.0611 40.0558 27.0351 40.0618 26.9978C40.0677 26.9611 40.0788 26.9037 40.1002 26.8317L42.0173 27.4016L43.9344 27.9715C44.0637 27.5364 44.0593 27.1084 44.0463 26.8417L42.0486 26.9392ZM42.0173 27.4016L40.1002 26.8317L39.6831 28.2348L41.6002 28.8047L43.5173 29.3746L43.9344 27.9714L42.0173 27.4016ZM41.6002 28.8047L39.6831 28.2348L39.266 29.6379L41.1831 30.2078L43.1002 30.7777L43.5173 29.3746L41.6002 28.8047ZM41.1831 30.2078L39.266 29.638C39.3004 29.5222 39.3557 29.4107 39.4275 29.3127L41.0408 30.4947L42.6541 31.6768C42.8539 31.404 43.004 31.1013 43.1002 30.7776L41.1831 30.2078ZM41.0408 30.4947L39.4275 29.3127L38.5635 30.492L40.1768 31.674L41.7901 32.856L42.6541 31.6768L41.0408 30.4947ZM40.1768 31.674L38.5635 30.492L37.6995 31.6712L39.3128 32.8532L40.9261 34.0353L41.7901 32.856L40.1768 31.674ZM39.3128 32.8532L37.6995 31.6712C37.5697 31.8483 37.455 32.0358 37.3563 32.2329L39.1446 33.1284L40.933 34.0239C40.9305 34.0288 40.9278 34.0329 40.9261 34.0353L39.3128 32.8532ZM39.1446 33.1284L37.3563 32.2329L36.707 33.5297L38.4953 34.4251L40.2836 35.3206L40.933 34.0238L39.1446 33.1284ZM38.4953 34.4251L36.707 33.5297L36.0576 34.8264L37.8459 35.7219L39.6343 36.6174L40.2836 35.3206L38.4953 34.4251ZM37.8459 35.7219L36.0576 34.8264C36.1181 34.7056 36.2018 34.5945 36.3014 34.5029L37.6552 35.975L39.009 37.4472C39.2668 37.2101 39.4776 36.9303 39.6343 36.6174L37.8459 35.7219ZM37.6552 35.975L36.3014 34.5029L35.2344 35.4841L36.5882 36.9563L37.9421 38.4284L39.0091 37.4472L37.6552 35.975ZM36.5882 36.9563L35.2344 35.4841L34.1674 36.4653L35.5213 37.9375L36.8751 39.4096L37.9421 38.4284L36.5882 36.9563ZM35.5213 37.9375L34.1674 36.4653C34.2257 36.4118 34.2935 36.3648 34.3669 36.3282L35.2594 38.118L36.152 39.9077C36.4164 39.7759 36.6588 39.6085 36.8751 39.4096L35.5213 37.9375ZM35.2594 38.118L34.3668 36.3282L33.0773 36.9713L33.9699 38.7611L34.8624 40.5509L36.152 39.9077L35.2594 38.118ZM33.9699 38.7611L33.0773 36.9713L31.7877 37.6144L32.6803 39.4042L33.5729 41.194L34.8624 40.5509L33.9699 38.7611ZM32.6803 39.4042L31.7877 37.6144C31.6786 37.6688 31.5705 37.7243 31.4635 37.7808L32.397 39.5495L33.3306 41.3183C33.4102 41.2763 33.491 41.2348 33.5729 41.194L32.6803 39.4042ZM32.397 39.5495L31.4634 37.7808L30.2036 38.4458L31.1372 40.2145L32.0708 41.9832L33.3306 41.3182L32.397 39.5495ZM31.1372 40.2145L30.2036 38.4458L28.9438 39.1108L29.8774 40.8795L30.811 42.6482L32.0708 41.9832L31.1372 40.2145ZM29.8774 40.8795L28.9438 39.1108C29.0136 39.0739 29.0892 39.0466 29.1655 39.0303L29.5823 40.9864L29.9991 42.9425C30.2823 42.8822 30.5546 42.7836 30.811 42.6482L29.8774 40.8795ZM29.5823 40.9864L29.1655 39.0303L27.7698 39.3277L28.1866 41.2838L28.6034 43.2399L29.9991 42.9425L29.5823 40.9864ZM28.1866 41.2838L27.7698 39.3277L26.3741 39.6251L26.7909 41.5812L27.2078 43.5373L28.6034 43.2399L28.1866 41.2838ZM26.7909 41.5812L26.3741 39.6251C26.3508 39.6301 26.3276 39.6336 26.3038 39.6357L26.4779 41.6281L26.652 43.6205C26.8389 43.6041 27.0243 43.5764 27.2078 43.5373L26.7909 41.5812ZM26.4779 41.6281L26.3038 39.6357L24.8823 39.7599L25.0563 41.7523L25.2304 43.7447L26.652 43.6205L26.4779 41.6281ZM25.0563 41.7523L24.8823 39.7599L23.4607 39.8841L23.6348 41.8765L23.8088 43.8689L25.2304 43.7447L25.0563 41.7523ZM23.6348 41.8765L23.4607 39.8841C23.4699 39.8833 23.4789 39.8833 23.4863 39.884L23.3179 41.8769L23.1496 43.8698C23.3688 43.8883 23.589 43.8881 23.8089 43.8689L23.6348 41.8765ZM23.3179 41.8769L23.4863 39.884L22.0564 39.7632L21.8881 41.7561L21.7198 43.749L23.1496 43.8698L23.3179 41.8769ZM21.8881 41.7561L22.0564 39.7632L20.6266 39.6424L20.4583 41.6353L20.29 43.6283L21.7198 43.749L21.8881 41.7561ZM20.4583 41.6353L20.6266 39.6424C20.6603 39.6453 20.6943 39.6518 20.7264 39.6615L20.1467 41.5757L19.567 43.4898C19.8027 43.5612 20.0444 43.6075 20.29 43.6283L20.4583 41.6353ZM20.1467 41.5757L20.7264 39.6615L19.3522 39.2453L18.7724 41.1595L18.1927 43.0736L19.567 43.4898L20.1467 41.5757ZM18.7724 41.1595L19.3522 39.2453L17.9779 38.8291L17.3982 40.7433L16.8185 42.6574L18.1927 43.0736L18.7724 41.1595ZM17.3982 40.7433L17.9779 38.8291C17.966 38.8255 17.9549 38.8213 17.9439 38.8162L17.101 40.6299L16.258 42.4436C16.4398 42.528 16.6268 42.5994 16.8185 42.6574L17.3982 40.7433ZM17.101 40.6299L17.9439 38.8161L16.6431 38.2116L15.8002 40.0253L14.9573 41.839L16.258 42.4436L17.101 40.6299ZM15.8002 40.0253L16.6431 38.2116L15.3423 37.6071L14.4994 39.4208L13.6565 41.2345L14.9573 41.839L15.8002 40.0253ZM14.4994 39.4208L15.3423 37.6071C15.289 37.5823 15.2354 37.5551 15.1815 37.5253L14.2135 39.2754L13.2454 41.0255C13.3801 41.1 13.5171 41.1697 13.6565 41.2345L14.4994 39.4208ZM14.2135 39.2754L15.1815 37.5253L13.909 36.8214L12.9409 38.5716L11.9729 40.3217L13.2454 41.0255L14.2135 39.2754ZM12.9409 38.5716L13.909 36.8214L12.6364 36.1176L11.6684 37.8677L10.7004 39.6178L11.9729 40.3217L12.9409 38.5716ZM11.6684 37.8677L12.6364 36.1176C12.8072 36.212 12.9535 36.3445 13.0617 36.4966L11.4322 37.6563L9.80277 38.816C10.0374 39.1456 10.3411 39.4191 10.7004 39.6178L11.6684 37.8677ZM11.4322 37.6563L13.0617 36.4966L12.2085 35.2978L10.579 36.4575L8.94959 37.6172L9.80277 38.816L11.4322 37.6563ZM10.579 36.4575L12.2085 35.2978L11.3553 34.099L9.72584 35.2587L8.0964 36.4184L8.94958 37.6172L10.579 36.4575ZM9.72584 35.2587L11.3553 34.099C11.1515 33.8127 10.8991 33.5674 10.6062 33.3718L9.49538 35.0349L8.38458 36.6981C8.27257 36.6233 8.17377 36.5271 8.0964 36.4184L9.72584 35.2587ZM9.49538 35.0349L10.6062 33.3718L9.38517 32.5563L8.27438 34.2195L7.16359 35.8826L8.38459 36.6981L9.49538 35.0349ZM8.27438 34.2195L9.38517 32.5563L8.16418 31.7408L7.05339 33.404L5.9426 35.0672L7.16359 35.8826L8.27438 34.2195ZM7.05339 33.404L8.16417 31.7408C8.16589 31.742 8.17369 31.7472 8.18624 31.7566C8.19852 31.7657 8.21894 31.7815 8.24493 31.8038C8.2854 31.8387 8.39631 31.9377 8.51127 32.1022L6.87183 33.2477L5.2324 34.3933C5.48813 34.7592 5.81461 34.9817 5.9426 35.0672L7.05339 33.404ZM6.87183 33.2477L8.51126 32.1022L8.09829 31.5111L6.45886 32.6567L4.81943 33.8022L5.23241 34.3933L6.87183 33.2477ZM6.45886 32.6567L8.21071 31.6918L7.91371 31.1526L6.16186 32.1175L4.41002 33.0824L4.70701 33.6216L6.45886 32.6567ZM6.16186 32.1175L7.3366 30.4988L7.17474 30.3814L6 32L4.82526 33.6186L4.98713 33.7361L6.16186 32.1175ZM16 32L15.9018 30.0024L13.0218 30.1441L13.12 32.1416L13.2182 34.1392L16.0982 33.9976L16 32ZM13.12 32.1416L13.0218 30.1441C12.8174 30.1541 12.7073 30.1561 12.6641 30.1556L12.64 32.1554L12.6159 34.1553C12.7861 34.1574 12.9959 34.1502 13.2182 34.1392L13.12 32.1416ZM12.64 32.1554L12.6641 30.1556L11.2241 30.1382L11.2 32.1381L11.1759 34.1379L12.6159 34.1553L12.64 32.1554ZM11.2 32.1381L11.2241 30.1382L9.78412 30.1209L9.76 32.1207L9.73588 34.1206L11.1759 34.1379L11.2 32.1381ZM9.76 32.1207L9.78412 30.1209C9.74859 30.1204 9.71248 30.1181 9.67549 30.1137L9.44 32.0998L9.20451 34.0859C9.38086 34.1068 9.55808 34.1184 9.73588 34.1206L9.76 32.1207ZM9.44 32.0998L9.67548 30.1137L8.23548 29.943L8 31.9291L7.76452 33.9152L9.20452 34.0859L9.44 32.0998ZM8 31.9291L8.23548 29.943L6.79548 29.7723L6.56 31.7583L6.32452 33.7444L7.76452 33.9152L8 31.9291ZM6.56 31.7583L6.79547 29.7722C6.72226 29.7636 6.61518 29.7522 6.50095 29.7485C6.44773 29.7467 6.34312 29.7446 6.21657 29.7562C6.20368 29.7574 5.7452 29.7789 5.2882 30.0767L6.38 31.7524L7.4718 33.4281C7.2014 33.6043 6.95482 33.6701 6.85545 33.6941C6.73391 33.7233 6.63531 33.7346 6.58093 33.7396C6.47272 33.7495 6.39227 33.747 6.36905 33.7463C6.31482 33.7445 6.29108 33.7405 6.32453 33.7444L6.56 31.7583ZM6.38 31.7524L5.28816 30.0767L5.10816 30.194L6.2 31.8697L7.29184 33.5454L7.47184 33.4281L6.38 31.7524ZM6.2 31.8697L5.10817 30.194L4.90817 30.3243L6 32L7.09183 33.6757L7.29183 33.5454L6.2 31.8697ZM6 32H4V32.2H6H8V32H6ZM6 32.2L4.00276 32.095L3.86087 34.795L5.85811 34.9L7.85536 35.005L7.99724 32.305L6 32.2ZM5.85811 34.9L3.86087 34.795C3.84849 35.0307 3.84229 35.324 3.87778 35.608L5.86234 35.36L7.8469 35.112C7.85019 35.1383 7.85117 35.1545 7.85137 35.158C7.8516 35.1621 7.85131 35.1587 7.8512 35.1466C7.85097 35.1213 7.85165 35.0755 7.85536 35.005L5.85811 34.9ZM5.86234 35.36L3.87778 35.608L4.05773 37.048L6.0423 36.8L8.02686 36.552L7.84691 35.112L5.86234 35.36ZM6.0423 36.8L4.05773 37.048L4.23769 38.488L6.22225 38.24L8.20681 37.992L8.02686 36.552L6.0423 36.8ZM6.22225 38.24L4.23769 38.488C4.23172 38.4403 4.23129 38.3905 4.23662 38.3419L6.22469 38.56L8.21277 38.7781C8.2415 38.5162 8.23944 38.2531 8.20681 37.992L6.22225 38.24ZM6.22469 38.56L4.23662 38.3419L4.07865 39.7819L6.06673 40L8.0548 40.2181L8.21277 38.7781L6.22469 38.56ZM6.06673 40L4.07865 39.7819L3.92068 41.2219L5.90876 41.44L7.89683 41.6581L8.0548 40.2181L6.06673 40ZM5.90876 41.44L3.92068 41.2219C3.91374 41.2852 3.90628 41.3592 3.90147 41.4307C3.8992 41.4644 3.89577 41.5223 3.89539 41.59C3.89521 41.6236 3.89558 41.6803 3.90031 41.7493C3.90352 41.7963 3.91456 41.953 3.96676 42.1449L5.89664 41.62L7.82653 41.0951C7.8554 41.2012 7.86966 41.2888 7.87695 41.3412C7.88477 41.3973 7.88877 41.444 7.89098 41.4763C7.89528 41.5391 7.89547 41.5881 7.89533 41.6125C7.89505 41.6619 7.89269 41.6956 7.89244 41.6993C7.89166 41.7108 7.89207 41.7015 7.89683 41.6581L5.90876 41.44ZM5.89664 41.62L3.96675 42.1449L4.01571 42.3249L5.9456 41.8L7.87549 41.2751L7.82653 41.0951L5.89664 41.62ZM5.9456 41.8L5.94561 43.8H6.00001L6 41.8L5.99999 39.8H5.9456L5.9456 41.8ZM6 41.8H4V42H6H8V41.8H6Z" fill="#FFE1D6"/>
</svg>
