<svg width="48" height="48" viewBox="0 0 48 48" fill="none" xmlns="http://www.w3.org/2000/svg">
<path d="M34 28V4V28Z" fill="#FD9476"/>
<path d="M18 36.24L20 28H8.33997C7.71899 28 7.10653 27.8554 6.55111 27.5777C5.99569 27.3 5.51255 26.8968 5.13997 26.4C4.76738 25.9032 4.51557 25.3265 4.40449 24.7155C4.2934 24.1046 4.32609 23.4761 4.49997 22.88L9.15997 6.88C9.4023 6.04914 9.90758 5.31929 10.6 4.8C11.2924 4.28071 12.1345 4 13 4H40C41.0608 4 42.0782 4.42143 42.8284 5.17157C43.5785 5.92172 44 6.93913 44 8V24C44 25.0609 43.5785 26.0783 42.8284 26.8284C42.0782 27.5786 41.0608 28 40 28H34.48C33.7358 28.0004 33.0065 28.2084 32.3741 28.6006C31.7416 28.9927 31.2311 29.5536 30.9 30.22L24 44C23.0568 43.9883 22.1285 43.7637 21.2844 43.3428C20.4402 42.922 19.7021 42.3158 19.1252 41.5696C18.5482 40.8234 18.1473 39.9565 17.9525 39.0336C17.7577 38.1107 17.7739 37.1557 18 36.24Z" fill="#FD9476"/>
<path d="M32 28C32 29.1046 32.8954 30 34 30C35.1045 30 36 29.1046 36 28H34H32ZM34 27.8L32.0026 27.6966L32 27.7483V27.8H34ZM34.1475 24.95L32.1501 24.8466V24.8466L34.1475 24.95ZM34.1469 24.72L32.1576 24.9263V24.9263L34.1469 24.72ZM33.9893 23.2L35.9787 22.9937V22.9937L33.9893 23.2ZM33.8317 21.68L31.8424 21.8863V21.8863L33.8317 21.68ZM33.8287 21.52L31.8329 21.3893V21.3893L33.8287 21.52ZM33.9282 20L35.9239 20.1307V20.1307L33.9282 20ZM34.0277 18.48L32.032 18.3493V18.3493L34.0277 18.48ZM34.0277 18.32L32.032 18.4516V18.4516L34.0277 18.32ZM33.9275 16.8L35.9231 16.6684V16.6684L33.9275 16.8ZM33.8273 15.28L31.8316 15.4116V15.4116L33.8273 15.28ZM33.8262 15.12L31.829 15.0146V15.0146L33.8262 15.12ZM33.9064 13.6L35.9036 13.7054V13.7054L33.9064 13.6ZM33.9866 12.08L31.9894 11.9746L31.9894 11.9746L33.9866 12.08ZM33.9936 11.92L31.9947 11.852V11.852L33.9936 11.92ZM34.0453 10.4L36.0441 10.468V10.468L34.0453 10.4ZM34.097 8.88L32.0981 8.81202V8.81202L34.097 8.88ZM34.1004 8.72L32.1004 8.70281V8.70282L34.1004 8.72ZM34.1134 7.2L36.1134 7.21719V7.21719L34.1134 7.2ZM34.1265 5.68L32.1266 5.6628V5.66281L34.1265 5.68ZM34.124 5.56L32.1303 5.71852V5.71854L34.124 5.56ZM34.0636 4.8L36.0573 4.64148L36.0552 4.61529L36.0524 4.58916L34.0636 4.8ZM34 4.2H32V4.30572L32.0111 4.41084L34 4.2ZM36 4C36 2.89543 35.1045 2 34 2C32.8954 2 32 2.89543 32 4H34H36ZM18.3921 34.6887L20.3311 35.1789V35.1789L18.3921 34.6887ZM18.7646 33.215L16.8256 32.7249L16.8256 32.7249L18.7646 33.215ZM18.8035 33.0598L16.862 32.5796L16.862 32.5796L18.8035 33.0598ZM19.1684 31.5842L21.1099 32.0644H21.1099L19.1684 31.5842ZM19.5333 30.1087L17.5918 29.6285L17.5918 29.6285L19.5333 30.1087ZM19.5357 29.9778L17.6289 30.5813L17.6289 30.5813L19.5357 29.9778ZM19.2159 28.9672L21.1227 28.3638V28.3638L19.2159 28.9672ZM18.896 27.9566L16.9893 28.56L16.9893 28.56L18.896 27.9566ZM18.7992 27.9021L18.8305 25.9024H18.8305L18.7992 27.9021ZM17.2792 27.8784L17.2479 29.8781H17.2479L17.2792 27.8784ZM15.7592 27.8546L15.7905 25.8548H15.7905L15.7592 27.8546ZM15.5992 27.8531L15.6047 25.8531H15.6047L15.5992 27.8531ZM14.0792 27.849L14.0737 29.849V29.849L14.0792 27.849ZM12.5592 27.8448L12.5647 25.8448H12.5647L12.5592 27.8448ZM12.3992 27.8497L12.2713 25.8538H12.2713L12.3992 27.8497ZM10.8792 27.9471L11.0071 29.943H11.0071L10.8792 27.9471ZM9.35921 28.0446L9.23129 26.0487H9.23128L9.35921 28.0446ZM9.20198 28.0332L9.6197 26.0773L9.61969 26.0773L9.20198 28.0332ZM7.73462 27.7198L7.31692 29.6757H7.31692L7.73462 27.7198ZM6.26726 27.4064L6.68497 25.4506L6.68496 25.4506L6.26726 27.4064ZM6.14892 27.325L7.83891 26.2554L7.83891 26.2554L6.14892 27.325ZM5.36774 26.0906L3.67774 27.1602L3.67774 27.1602L5.36774 26.0906ZM4.58655 24.8563L6.27655 23.7867L6.27655 23.7867L4.58655 24.8563ZM4.55517 24.7144L2.57098 24.4634H2.57098L4.55517 24.7144ZM4.74013 23.2519L6.72432 23.5029V23.5029L4.74013 23.2519ZM4.92509 21.7895L2.94089 21.5386L2.94089 21.5386L4.92509 21.7895ZM4.95407 21.6349L3.01273 21.154H3.01273L4.95407 21.6349ZM5.3198 20.1582L7.26114 20.639V20.639L5.3198 20.1582ZM5.68553 18.6816L3.74419 18.2008L3.74419 18.2008L5.68553 18.6816ZM5.72355 18.526L3.77924 18.0573L3.77924 18.0573L5.72355 18.526ZM6.08015 17.0467L8.02445 17.5154V17.5154L6.08015 17.0467ZM6.43675 15.5674L4.49244 15.0987L4.49244 15.0987L6.43675 15.5674ZM6.47964 15.4133L4.57269 14.8103L4.57269 14.8103L6.47964 15.4133ZM6.938 13.9636L8.84495 14.5666V14.5666L6.938 13.9636ZM7.39637 12.5139L5.48942 11.911L5.48942 11.911L7.39637 12.5139ZM7.44854 12.3625L5.57478 11.6632L5.57478 11.6632L7.44854 12.3625ZM7.98147 10.9345L9.85522 11.6339H9.85522L7.98147 10.9345ZM8.51439 9.50661L6.64064 8.80729L6.64064 8.80729L8.51439 9.50661ZM8.5613 9.35341L6.61727 8.88357L6.61727 8.88357L8.5613 9.35341ZM8.91968 7.87058L10.8637 8.34042V8.34042L8.91968 7.87058ZM9.27805 6.38776L7.33402 5.91792L7.33402 5.91792L9.27805 6.38776ZM9.35576 6.25738L8.02664 4.76291L8.02664 4.76291L9.35576 6.25738ZM10.4738 5.26308L11.8029 6.75755V6.75755L10.4738 5.26308ZM11.5918 4.26877L10.2627 2.7743L10.2627 2.7743L11.5918 4.26877ZM11.7301 4.20931L11.5514 2.21731L11.5514 2.21731L11.7301 4.20931ZM13.2402 4.07388L13.4188 6.06589L13.2402 4.07388ZM14.7502 3.93845L14.5716 1.94645V1.94645L14.7502 3.93845ZM14.9097 3.93278L14.8733 5.93245H14.8733L14.9097 3.93278ZM16.4297 3.96042L16.4661 1.96075L16.4297 3.96042ZM17.9497 3.98806L17.9133 5.98772H17.9133L17.9497 3.98806ZM18.1097 3.98488L17.9941 1.98822V1.98822L18.1097 3.98488ZM19.6297 3.89684L19.7453 5.8935L19.6297 3.89684ZM21.1497 3.80881L21.0341 1.81216V1.81216L21.1497 3.80881ZM21.3097 3.80425L21.308 5.80425V5.80425L21.3097 3.80425ZM22.8297 3.80554L22.8314 1.80554L22.8297 3.80554ZM24.3497 3.80683L24.348 5.80683V5.80683L24.3497 3.80683ZM24.5097 3.80996L24.4331 5.8085V5.8085L24.5097 3.80996ZM26.0297 3.8682L26.1063 1.86967L26.0297 3.8682ZM27.5497 3.92644L27.4731 5.92498V5.92498L27.5497 3.92644ZM27.7097 3.93513L27.5696 5.93021V5.93021L27.7097 3.93513ZM29.2297 4.04188L29.3698 2.04679V2.04679L29.2297 4.04188ZM30.7497 4.14863L30.6096 6.14372V6.14372L30.7497 4.14863ZM30.9097 4.15322L30.8839 2.15338V2.15338L30.9097 4.15322ZM32.4297 4.13363L32.4555 6.13347L32.4297 4.13363ZM33.9497 4.11405L33.9239 2.11421V2.11421L33.9497 4.11405ZM34.1097 4.1126L34.0992 2.11262V2.11262L34.1097 4.1126ZM35.6297 4.10464L35.6402 6.10462L35.6297 4.10464ZM37.1497 4.09669L37.1392 2.09672V2.09672L37.1497 4.09669ZM37.3096 4.09471L37.2704 2.09509V2.09509L37.3096 4.09471ZM38.8287 4.06493L38.8679 6.06454L38.8287 4.06493ZM40.3478 4.03515L40.3086 2.03553V2.03553L40.3478 4.03515ZM40.4955 4.07145L39.5196 5.81717L39.5196 5.81717L40.4955 4.07145ZM41.7825 4.79094L42.7584 3.04522V3.04522L41.7825 4.79094ZM43.0695 5.51044L42.0936 7.25616L42.0936 7.25616L43.0695 5.51044ZM43.1586 5.62326L41.2354 6.17194L41.2354 6.17195L43.1586 5.62326ZM43.5649 7.0475L45.4882 6.49881V6.49881L43.5649 7.0475ZM43.9713 8.47173L42.048 9.02041L42.048 9.02042L43.9713 8.47173ZM43.9884 8.62669L41.9912 8.5215V8.52151L43.9884 8.62669ZM43.9084 10.1467L45.9056 10.2519V10.2519L43.9084 10.1467ZM43.8283 11.6667L41.8311 11.5615V11.5615L43.8283 11.6667ZM43.8279 11.8267L41.8302 11.9219V11.9219L43.8279 11.8267ZM43.9004 13.3467L45.8981 13.2514V13.2514L43.9004 13.3467ZM43.9729 14.8667L41.9752 14.9619V14.962L43.9729 14.8667ZM43.981 15.0267L41.9839 15.1341V15.1341L43.981 15.0267ZM44.0628 16.5467L46.0599 16.4393V16.4393L44.0628 16.5467ZM44.1446 18.0667L42.1474 18.1741V18.1741L44.1446 18.0667ZM44.147 18.2267L42.1475 18.18V18.1801L44.147 18.2267ZM44.1115 19.7467L46.111 19.7933V19.7933L44.1115 19.7467ZM44.0761 21.2667L42.0766 21.2201V21.2201L44.0761 21.2667ZM44.0738 21.427L42.0738 21.416V21.4161L44.0738 21.427ZM44.0655 22.9523L46.0654 22.9632V22.9632L44.0655 22.9523ZM44.0571 24.4777L42.0572 24.4668V24.4668L44.0571 24.4777ZM44.0141 24.624L42.3333 23.54L42.3333 23.54L44.0141 24.624ZM43.2048 25.8788L44.8856 26.9628V26.9628L43.2048 25.8788ZM42.3956 27.1335L40.7148 26.0496L40.7148 26.0496L42.3956 27.1335ZM42.2776 27.2225L41.6965 25.3088L41.6964 25.3088L42.2776 27.2225ZM40.8447 27.6576L41.4258 29.5713V29.5713L40.8447 27.6576ZM39.4117 28.0927L38.8306 26.179L38.8306 26.179L39.4117 28.0927ZM39.2563 28.1096L39.407 26.1153H39.4069L39.2563 28.1096ZM37.7363 27.9948L37.5857 29.9891V29.9891L37.7363 27.9948ZM36.2163 27.88L36.3669 25.8857H36.3669L36.2163 27.88ZM36.0555 27.8801L35.9051 25.8857H35.9051L36.0555 27.8801ZM34.5194 27.9959L34.6697 29.9902V29.9902L34.5194 27.9959ZM32.9832 28.1117L32.8329 26.1174H32.8329L32.9832 28.1117ZM32.8525 28.179L31.3022 26.9154L31.3022 26.9155L32.8525 28.179ZM31.9043 29.3423L33.4546 30.6059V30.6059L31.9043 29.3423ZM30.9562 30.5056L29.4059 29.2421L29.4059 29.2421L30.9562 30.5056ZM30.8653 30.6358L29.1461 29.6138L29.1461 29.6138L30.8653 30.6358ZM30.0865 31.9458L31.8056 32.9678V32.9678L30.0865 31.9458ZM29.3077 33.2557L27.5886 32.2337L27.5886 32.2337L29.3077 33.2557ZM29.2288 33.3952L27.467 32.4486L27.467 32.4486L29.2288 33.3952ZM28.5092 34.7347L30.271 35.6812V35.6812L28.5092 34.7347ZM27.7895 36.0743L26.0277 35.1277L26.0277 35.1278L27.7895 36.0743ZM27.7173 36.2171L25.9106 35.3593L25.9106 35.3593L27.7173 36.2171ZM27.0653 37.5905L28.8721 38.4482V38.4482L27.0653 37.5905ZM26.4133 38.9639L24.6066 38.1062L24.6066 38.1062L26.4133 38.9639ZM26.3482 39.1102L24.5018 38.3417L24.5018 38.3417L26.3482 39.1102ZM25.7627 40.5169L27.6091 41.2855V41.2855L25.7627 40.5169ZM25.1771 41.9237L23.3307 41.1551L23.3307 41.1551L25.1771 41.9237ZM25.0956 42.0441L23.7457 40.5683L23.7457 40.5684L25.0956 42.0441ZM24.1326 42.925L25.4825 44.4007H25.4825L24.1326 42.925ZM23.1696 43.8059L21.8197 42.3302L21.8197 42.3302L23.1696 43.8059ZM23.0472 43.821L23.8466 41.9877L23.8466 41.9877L23.0472 43.821ZM21.6852 43.2271L20.8858 45.0604V45.0604L21.6852 43.2271ZM20.3232 42.6332L21.1226 40.7999H21.1226L20.3232 42.6332ZM20.2034 42.54L21.7838 41.3143H21.7838L20.2034 42.54ZM19.29 41.3624L17.7097 42.5882V42.5882L19.29 41.3624ZM18.3767 40.1848L19.957 38.959H19.957L18.3767 40.1848ZM18.3183 40.0449L16.3355 40.3072L16.3356 40.3072L18.3183 40.0449ZM18.1226 38.5654L20.1053 38.3032V38.3032L18.1226 38.5654ZM17.9269 37.0859L15.9442 37.3481V37.3481L17.9269 37.0859ZM17.9187 36.9888L15.9304 36.773L15.9304 36.7731L17.9187 36.9888ZM17.9583 36.624L19.9466 36.8398V36.8398L17.9583 36.624ZM17.9979 36.2592L16.0096 36.0434L16.0096 36.0434L17.9979 36.2592ZM18.0196 36.1624L16.0806 35.6723L16.0806 35.6723L18.0196 36.1624ZM34 28H36V27.8H34H32V28H34ZM34 27.8L35.9973 27.9034L36.1448 25.0534L34.1475 24.95L32.1501 24.8466L32.0026 27.6966L34 27.8ZM34.1475 24.95L36.1448 25.0534C36.1516 24.9223 36.158 24.723 36.1363 24.5137L34.1469 24.72L32.1576 24.9263C32.1541 24.8929 32.1527 24.8674 32.152 24.8521C32.1513 24.8363 32.1512 24.8259 32.1512 24.8221C32.1512 24.8155 32.1514 24.8224 32.1501 24.8466L34.1475 24.95ZM34.1469 24.72L36.1363 24.5137L35.9787 22.9937L33.9893 23.2L32 23.4063L32.1576 24.9263L34.1469 24.72ZM33.9893 23.2L35.9787 22.9937L35.8211 21.4737L33.8317 21.68L31.8424 21.8863L32 23.4063L33.9893 23.2ZM33.8317 21.68L35.8211 21.4737C35.8271 21.532 35.8283 21.5913 35.8244 21.6507L33.8287 21.52L31.8329 21.3893C31.8221 21.5553 31.8253 21.7214 31.8424 21.8863L33.8317 21.68ZM33.8287 21.52L35.8244 21.6507L35.9239 20.1307L33.9282 20L31.9325 19.8693L31.8329 21.3893L33.8287 21.52ZM33.9282 20L35.9239 20.1307L36.0234 18.6107L34.0277 18.48L32.032 18.3493L31.9325 19.8693L33.9282 20ZM34.0277 18.48L36.0234 18.6107C36.0326 18.47 36.0326 18.3291 36.0233 18.1884L34.0277 18.32L32.032 18.4516C32.0298 18.4176 32.0298 18.3833 32.032 18.3493L34.0277 18.48ZM34.0277 18.32L36.0233 18.1884L35.9231 16.6684L33.9275 16.8L31.9318 16.9316L32.032 18.4516L34.0277 18.32ZM33.9275 16.8L35.9231 16.6684L35.8229 15.1484L33.8273 15.28L31.8316 15.4116L31.9318 16.9316L33.9275 16.8ZM33.8273 15.28L35.8229 15.1484C35.8246 15.1739 35.8248 15.1997 35.8234 15.2254L33.8262 15.12L31.829 15.0146C31.822 15.1469 31.8229 15.2794 31.8316 15.4116L33.8273 15.28ZM33.8262 15.12L35.8234 15.2254L35.9036 13.7054L33.9064 13.6L31.9092 13.4946L31.829 15.0146L33.8262 15.12ZM33.9064 13.6L35.9036 13.7054L35.9839 12.1854L33.9866 12.08L31.9894 11.9746L31.9092 13.4946L33.9064 13.6ZM33.9866 12.08L35.9839 12.1854C35.9873 12.1196 35.9902 12.0538 35.9924 11.988L33.9936 11.92L31.9947 11.852C31.9933 11.8929 31.9916 11.9337 31.9894 11.9746L33.9866 12.08ZM33.9936 11.92L35.9924 11.988L36.0441 10.468L34.0453 10.4L32.0464 10.332L31.9947 11.852L33.9936 11.92ZM34.0453 10.4L36.0441 10.468L36.0958 8.94798L34.097 8.88L32.0981 8.81202L32.0464 10.332L34.0453 10.4ZM34.097 8.88L36.0958 8.94798C36.0982 8.87773 36.0997 8.80746 36.1003 8.73718L34.1004 8.72L32.1004 8.70282C32.1001 8.7392 32.0994 8.7756 32.0981 8.81202L34.097 8.88ZM34.1004 8.72L36.1003 8.73719L36.1134 7.21719L34.1134 7.2L32.1135 7.18281L32.1004 8.70281L34.1004 8.72ZM34.1134 7.2L36.1134 7.21719L36.1264 5.69719L34.1265 5.68L32.1266 5.66281L32.1135 7.18281L34.1134 7.2ZM34.1265 5.68L36.1264 5.6972C36.127 5.63068 36.1271 5.519 36.1177 5.40146L34.124 5.56L32.1303 5.71854C32.1286 5.69702 32.1277 5.68058 32.1273 5.67096C32.1269 5.66095 32.1267 5.65422 32.1266 5.65154C32.1265 5.64677 32.1267 5.64972 32.1266 5.6628L34.1265 5.68ZM34.124 5.56L36.1177 5.40148L36.0573 4.64148L34.0636 4.8L32.0699 4.95852L32.1303 5.71852L34.124 5.56ZM34.0636 4.8L36.0524 4.58916L35.9888 3.98916L34 4.2L32.0111 4.41084L32.0747 5.01084L34.0636 4.8ZM34 4.2H36V4H34H32V4.2H34ZM18.3921 34.6887L20.3311 35.1789L20.7036 33.7052L18.7646 33.215L16.8256 32.7249L16.4531 34.1986L18.3921 34.6887ZM18.7646 33.215L20.7036 33.7052C20.7176 33.6501 20.7313 33.5951 20.745 33.54L18.8035 33.0598L16.862 32.5796C16.85 32.6281 16.8379 32.6765 16.8256 32.7249L18.7646 33.215ZM18.8035 33.0598L20.745 33.54L21.1099 32.0644L19.1684 31.5842L17.2269 31.1041L16.862 32.5796L18.8035 33.0598ZM19.1684 31.5842L21.1099 32.0644L21.4748 30.5889L19.5333 30.1087L17.5918 29.6285L17.2269 31.1041L19.1684 31.5842ZM19.5333 30.1087L21.4748 30.5889C21.5397 30.3264 21.603 29.8816 21.4425 29.3744L19.5357 29.9778L17.6289 30.5813C17.4908 30.145 17.5525 29.7874 17.5918 29.6285L19.5333 30.1087ZM19.5357 29.9778L21.4425 29.3744L21.1227 28.3638L19.2159 28.9672L17.3091 29.5707L17.6289 30.5813L19.5357 29.9778ZM19.2159 28.9672L21.1227 28.3638L20.8028 27.3531L18.896 27.9566L16.9893 28.56L17.3091 29.5707L19.2159 28.9672ZM18.896 27.9566L20.8028 27.3531C20.6449 26.854 20.3042 26.432 19.8436 26.173C19.4377 25.9448 19.0528 25.9059 18.8305 25.9024L18.7992 27.9021L18.7679 29.9019C18.599 29.8993 18.2569 29.8698 17.8833 29.6597C17.4549 29.4189 17.136 29.0237 16.9893 28.56L18.896 27.9566ZM18.7992 27.9021L18.8305 25.9024L17.3105 25.8786L17.2792 27.8784L17.2479 29.8781L18.7679 29.9019L18.7992 27.9021ZM17.2792 27.8784L17.3105 25.8786L15.7905 25.8548L15.7592 27.8546L15.7279 29.8543L17.2479 29.8781L17.2792 27.8784ZM15.7592 27.8546L15.7905 25.8548C15.7286 25.8539 15.6666 25.8533 15.6047 25.8531L15.5992 27.8531L15.5937 29.8531C15.6385 29.8532 15.6832 29.8536 15.7279 29.8543L15.7592 27.8546ZM15.5992 27.8531L15.6047 25.8531L14.0847 25.849L14.0792 27.849L14.0737 29.849L15.5937 29.8531L15.5992 27.8531ZM14.0792 27.849L14.0847 25.849L12.5647 25.8448L12.5592 27.8448L12.5537 29.8448L14.0737 29.849L14.0792 27.849ZM12.5592 27.8448L12.5647 25.8448C12.4668 25.8445 12.3689 25.8476 12.2713 25.8538L12.3992 27.8497L12.5271 29.8456C12.5362 29.845 12.545 29.8448 12.5538 29.8448L12.5592 27.8448ZM12.3992 27.8497L12.2713 25.8538L10.7513 25.9512L10.8792 27.9471L11.0071 29.943L12.5271 29.8456L12.3992 27.8497ZM10.8792 27.9471L10.7513 25.9512L9.23129 26.0487L9.35921 28.0446L9.48714 30.0405L11.0071 29.943L10.8792 27.9471ZM9.35921 28.0446L9.23128 26.0487C9.35801 26.0405 9.48928 26.0495 9.6197 26.0773L9.20198 28.0332L8.78427 29.9891C9.01766 30.0389 9.25375 30.0554 9.48715 30.0405L9.35921 28.0446ZM9.20198 28.0332L9.61969 26.0773L8.15233 25.7639L7.73462 27.7198L7.31692 29.6757L8.78428 29.9891L9.20198 28.0332ZM7.73462 27.7198L8.15233 25.7639L6.68497 25.4506L6.26726 27.4064L5.84955 29.3623L7.31692 29.6757L7.73462 27.7198ZM6.26726 27.4064L6.68496 25.4506C6.8903 25.4944 7.11599 25.581 7.33304 25.7304C7.55108 25.8805 7.71848 26.0652 7.83891 26.2554L6.14892 27.325L4.45892 28.3945C4.78264 28.906 5.28808 29.2424 5.84956 29.3623L6.26726 27.4064ZM6.14892 27.325L7.83891 26.2554L7.05773 25.0211L5.36774 26.0906L3.67774 27.1602L4.45892 28.3945L6.14892 27.325ZM5.36774 26.0906L7.05773 25.0211L6.27655 23.7867L4.58655 24.8563L2.89656 25.9258L3.67774 27.1602L5.36774 26.0906ZM4.58655 24.8563L6.27655 23.7867C6.50008 24.1399 6.5906 24.5602 6.53937 24.9653L4.55517 24.7144L2.57098 24.4634C2.50677 24.9711 2.61821 25.486 2.89656 25.9258L4.58655 24.8563ZM4.55517 24.7144L6.53937 24.9653L6.72432 23.5029L4.74013 23.2519L2.75594 23.001L2.57098 24.4634L4.55517 24.7144ZM4.74013 23.2519L6.72432 23.5029L6.90928 22.0405L4.92509 21.7895L2.94089 21.5386L2.75594 23.001L4.74013 23.2519ZM4.92509 21.7895L6.90928 22.0405C6.90567 22.069 6.90074 22.0942 6.89541 22.1157L4.95407 21.6349L3.01273 21.154C2.98174 21.2792 2.95748 21.4075 2.94089 21.5386L4.92509 21.7895ZM4.95407 21.6349L6.89541 22.1157L7.26114 20.639L5.3198 20.1582L3.37846 19.6774L3.01273 21.154L4.95407 21.6349ZM5.3198 20.1582L7.26114 20.639L7.62687 19.1624L5.68553 18.6816L3.74419 18.2008L3.37846 19.6774L5.3198 20.1582ZM5.68553 18.6816L7.62687 19.1624C7.6407 19.1066 7.65436 19.0506 7.66785 18.9947L5.72355 18.526L3.77924 18.0573C3.7677 18.1052 3.75602 18.153 3.74419 18.2008L5.68553 18.6816ZM5.72355 18.526L7.66785 18.9947L8.02445 17.5154L6.08015 17.0467L4.13584 16.578L3.77924 18.0573L5.72355 18.526ZM6.08015 17.0467L8.02445 17.5154L8.38105 16.0361L6.43675 15.5674L4.49244 15.0987L4.13584 16.578L6.08015 17.0467ZM6.43675 15.5674L8.38105 16.0361C8.38268 16.0293 8.38452 16.0227 8.38659 16.0162L6.47964 15.4133L4.57269 14.8103C4.54259 14.9055 4.51583 15.0017 4.49244 15.0987L6.43675 15.5674ZM6.47964 15.4133L8.38659 16.0162L8.84495 14.5666L6.938 13.9636L5.03106 13.3606L4.57269 14.8103L6.47964 15.4133ZM6.938 13.9636L8.84495 14.5666L9.30331 13.1169L7.39637 12.5139L5.48942 11.911L5.03106 13.3606L6.938 13.9636ZM7.39637 12.5139L9.30331 13.1169C9.30913 13.0985 9.31545 13.0801 9.3223 13.0618L7.44854 12.3625L5.57478 11.6632C5.54423 11.745 5.51577 11.8276 5.48942 11.911L7.39637 12.5139ZM7.44854 12.3625L9.3223 13.0618L9.85522 11.6339L7.98147 10.9345L6.10771 10.2352L5.57478 11.6632L7.44854 12.3625ZM7.98147 10.9345L9.85522 11.6339L10.3882 10.2059L8.51439 9.50661L6.64064 8.80729L6.10771 10.2352L7.98147 10.9345ZM8.51439 9.50661L10.3881 10.2059C10.4349 10.0807 10.474 9.95303 10.5053 9.82324L8.5613 9.35341L6.61727 8.88357C6.62349 8.85784 6.63131 8.83227 6.64064 8.80729L8.51439 9.50661ZM8.5613 9.35341L10.5053 9.82325L10.8637 8.34042L8.91968 7.87058L6.97565 7.40074L6.61727 8.88357L8.5613 9.35341ZM8.91968 7.87058L10.8637 8.34042L11.2221 6.85759L9.27805 6.38776L7.33402 5.91792L6.97565 7.40074L8.91968 7.87058ZM9.27805 6.38776L11.2221 6.8576C11.1409 7.1935 10.9566 7.51023 10.6849 7.75186L9.35576 6.25738L8.02664 4.76291C7.6765 5.07431 7.44035 5.47795 7.33402 5.91792L9.27805 6.38776ZM9.35576 6.25738L10.6849 7.75186L11.8029 6.75755L10.4738 5.26308L9.14465 3.7686L8.02664 4.76291L9.35576 6.25738ZM10.4738 5.26308L11.8029 6.75755L12.9209 5.76325L11.5918 4.26877L10.2627 2.7743L9.14465 3.7686L10.4738 5.26308ZM11.5918 4.26877L12.9209 5.76325C12.6353 6.01725 12.2765 6.16833 11.9088 6.20132L11.7301 4.20931L11.5514 2.21731C11.0777 2.2598 10.6267 2.45052 10.2627 2.7743L11.5918 4.26877ZM11.7301 4.20931L11.9088 6.20132L13.4188 6.06589L13.2402 4.07388L13.0615 2.08188L11.5514 2.21731L11.7301 4.20931ZM13.2402 4.07388L13.4188 6.06589L14.9289 5.93045L14.7502 3.93845L14.5716 1.94645L13.0615 2.08188L13.2402 4.07388ZM14.7502 3.93845L14.9289 5.93045C14.9102 5.93213 14.8916 5.93278 14.8733 5.93245L14.9097 3.93278L14.9461 1.93311C14.8212 1.93084 14.6962 1.93526 14.5716 1.94645L14.7502 3.93845ZM14.9097 3.93278L14.8733 5.93245L16.3933 5.96009L16.4297 3.96042L16.4661 1.96075L14.9461 1.93311L14.9097 3.93278ZM16.4297 3.96042L16.3933 5.96009L17.9133 5.98772L17.9497 3.98806L17.9861 1.98839L16.4661 1.96075L16.4297 3.96042ZM17.9497 3.98806L17.9133 5.98772C18.0174 5.98962 18.1215 5.98755 18.2253 5.98153L18.1097 3.98488L17.9941 1.98822C17.9913 1.98838 17.9886 1.98843 17.9861 1.98839L17.9497 3.98806ZM18.1097 3.98488L18.2253 5.98153L19.7453 5.8935L19.6297 3.89684L19.5141 1.90019L17.9941 1.98822L18.1097 3.98488ZM19.6297 3.89684L19.7453 5.8935L21.2653 5.80547L21.1497 3.80881L21.0341 1.81216L19.5141 1.90019L19.6297 3.89684ZM21.1497 3.80881L21.2653 5.80547C21.2797 5.80464 21.2939 5.80423 21.308 5.80425L21.3097 3.80425L21.3114 1.80425C21.2189 1.80417 21.1264 1.80681 21.0341 1.81216L21.1497 3.80881ZM21.3097 3.80425L21.308 5.80425L22.828 5.80554L22.8297 3.80554L22.8314 1.80554L21.3114 1.80425L21.3097 3.80425ZM22.8297 3.80554L22.828 5.80554L24.348 5.80683L24.3497 3.80683L24.3514 1.80683L22.8314 1.80554L22.8297 3.80554ZM24.3497 3.80683L24.348 5.80683C24.3763 5.80685 24.4047 5.80741 24.4331 5.8085L24.5097 3.80996L24.5863 1.81143C24.508 1.80843 24.4297 1.8069 24.3514 1.80683L24.3497 3.80683ZM24.5097 3.80996L24.4331 5.8085L25.9531 5.86674L26.0297 3.8682L26.1063 1.86967L24.5863 1.81143L24.5097 3.80996ZM26.0297 3.8682L25.9531 5.86674L27.4731 5.92498L27.5497 3.92644L27.6263 1.92791L26.1063 1.86967L26.0297 3.8682ZM27.5497 3.92644L27.4731 5.92498C27.5052 5.9262 27.5374 5.92795 27.5696 5.93021L27.7097 3.93513L27.8498 1.94004C27.7754 1.93481 27.7008 1.93077 27.6263 1.92791L27.5497 3.92644ZM27.7097 3.93513L27.5696 5.93021L29.0896 6.03696L29.2297 4.04188L29.3698 2.04679L27.8498 1.94004L27.7097 3.93513ZM29.2297 4.04188L29.0896 6.03696L30.6096 6.14372L30.7497 4.14863L30.8898 2.15355L29.3698 2.04679L29.2297 4.04188ZM30.7497 4.14863L30.6096 6.14372C30.718 6.15133 30.8267 6.15445 30.9355 6.15305L30.9097 4.15322L30.8839 2.15338C30.8861 2.15336 30.8881 2.15342 30.8898 2.15355L30.7497 4.14863ZM30.9097 4.15322L30.9355 6.15305L32.4555 6.13347L32.4297 4.13363L32.4039 2.1338L30.8839 2.15338L30.9097 4.15322ZM32.4297 4.13363L32.4555 6.13347L33.9755 6.11388L33.9497 4.11405L33.9239 2.11421L32.4039 2.1338L32.4297 4.13363ZM33.9497 4.11405L33.9755 6.11388C34.0237 6.11326 34.0719 6.11282 34.1202 6.11257L34.1097 4.1126L34.0992 2.11262C34.0408 2.11293 33.9824 2.11346 33.9239 2.11421L33.9497 4.11405ZM34.1097 4.1126L34.1202 6.11257L35.6402 6.10462L35.6297 4.10464L35.6192 2.10467L34.0992 2.11262L34.1097 4.1126ZM35.6297 4.10464L35.6402 6.10462L37.1602 6.09666L37.1497 4.09669L37.1392 2.09672L35.6192 2.10467L35.6297 4.10464ZM37.1497 4.09669L37.1602 6.09666C37.2231 6.09633 37.286 6.09555 37.3488 6.09432L37.3096 4.09471L37.2704 2.09509C37.2267 2.09595 37.183 2.09649 37.1392 2.09672L37.1497 4.09669ZM37.3096 4.09471L37.3488 6.09432L38.8679 6.06454L38.8287 4.06493L38.7895 2.06531L37.2704 2.09509L37.3096 4.09471ZM38.8287 4.06493L38.8679 6.06454L40.387 6.03476L40.3478 4.03515L40.3086 2.03553L38.7895 2.06531L38.8287 4.06493ZM40.3478 4.03515L40.387 6.03477C40.0967 6.04046 39.794 5.97059 39.5196 5.81717L40.4955 4.07145L41.4714 2.32573C41.1067 2.12182 40.7055 2.02775 40.3086 2.03553L40.3478 4.03515ZM40.4955 4.07145L39.5196 5.81717L40.8066 6.53666L41.7825 4.79094L42.7584 3.04522L41.4714 2.32573L40.4955 4.07145ZM41.7825 4.79094L40.8066 6.53666L42.0936 7.25616L43.0695 5.51044L44.0454 3.76472L42.7584 3.04522L41.7825 4.79094ZM43.0695 5.51044L42.0936 7.25616C41.9054 7.15096 41.7166 7.00036 41.5562 6.79727C41.3959 6.59434 41.2938 6.37685 41.2354 6.17194L43.1586 5.62326L45.0819 5.07459C44.9233 4.5186 44.5545 4.04932 44.0454 3.76471L43.0695 5.51044ZM43.1586 5.62326L41.2354 6.17195L41.6417 7.59618L43.5649 7.0475L45.4882 6.49881L45.0819 5.07458L43.1586 5.62326ZM43.5649 7.0475L41.6417 7.59618L42.048 9.02041L43.9713 8.47173L45.8945 7.92304L45.4882 6.49881L43.5649 7.0475ZM43.9713 8.47173L42.048 9.02042C42 8.85213 41.9827 8.68252 41.9912 8.5215L43.9884 8.62669L45.9857 8.73188C45.9998 8.46419 45.971 8.19128 45.8945 7.92303L43.9713 8.47173ZM43.9884 8.62669L41.9912 8.52151L41.9112 10.0415L43.9084 10.1467L45.9056 10.2519L45.9857 8.73187L43.9884 8.62669ZM43.9084 10.1467L41.9112 10.0415L41.8311 11.5615L43.8283 11.6667L45.8256 11.7719L45.9056 10.2519L43.9084 10.1467ZM43.8283 11.6667L41.8311 11.5615C41.8248 11.6816 41.8245 11.8018 41.8302 11.9219L43.8279 11.8267L45.8257 11.7314C45.8263 11.7449 45.8263 11.7585 45.8256 11.7719L43.8283 11.6667ZM43.8279 11.8267L41.8302 11.9219L41.9027 13.4419L43.9004 13.3467L45.8981 13.2514L45.8257 11.7314L43.8279 11.8267ZM43.9004 13.3467L41.9027 13.4419L41.9752 14.9619L43.9729 14.8667L45.9706 14.7714L45.8981 13.2514L43.9004 13.3467ZM43.9729 14.8667L41.9752 14.962C41.9779 15.0193 41.9808 15.0767 41.9839 15.1341L43.981 15.0267L45.9781 14.9193C45.9755 14.87 45.973 14.8207 45.9706 14.7714L43.9729 14.8667ZM43.981 15.0267L41.9839 15.1341L42.0657 16.6541L44.0628 16.5467L46.0599 16.4393L45.9781 14.9193L43.981 15.0267ZM44.0628 16.5467L42.0657 16.6541L42.1474 18.1741L44.1446 18.0667L46.1417 17.9593L46.0599 16.4393L44.0628 16.5467ZM44.1446 18.0667L42.1474 18.1741C42.1475 18.1762 42.1476 18.1781 42.1475 18.18L44.147 18.2267L46.1464 18.2733C46.1489 18.1686 46.1473 18.0638 46.1417 17.9592L44.1446 18.0667ZM44.147 18.2267L42.1475 18.1801L42.1121 19.7001L44.1115 19.7467L46.111 19.7933L46.1464 18.2733L44.147 18.2267ZM44.1115 19.7467L42.1121 19.7001L42.0766 21.2201L44.0761 21.2667L46.0755 21.3133L46.111 19.7933L44.1115 19.7467ZM44.0761 21.2667L42.0766 21.2201C42.0751 21.2853 42.0742 21.3507 42.0738 21.416L44.0738 21.427L46.0737 21.4379C46.074 21.3962 46.0746 21.3547 46.0755 21.3133L44.0761 21.2667ZM44.0738 21.427L42.0738 21.4161L42.0655 22.9414L44.0655 22.9523L46.0654 22.9632L46.0737 21.4379L44.0738 21.427ZM44.0655 22.9523L42.0655 22.9414L42.0572 24.4668L44.0571 24.4777L46.0571 24.4886L46.0654 22.9632L44.0655 22.9523ZM44.0571 24.4777L42.0572 24.4668C42.0589 24.1482 42.1507 23.8232 42.3333 23.54L44.0141 24.624L45.6949 25.708C45.9343 25.3367 46.0548 24.9142 46.0571 24.4886L44.0571 24.4777ZM44.0141 24.624L42.3333 23.54L41.5241 24.7948L43.2048 25.8788L44.8856 26.9628L45.6949 25.708L44.0141 24.624ZM43.2048 25.8788L41.5241 24.7948L40.7148 26.0496L42.3956 27.1335L44.0763 28.2175L44.8856 26.9628L43.2048 25.8788ZM42.3956 27.1335L40.7148 26.0496C40.944 25.6942 41.295 25.4307 41.6965 25.3088L42.2776 27.2225L42.8587 29.1362C43.3607 28.9838 43.7904 28.6609 44.0763 28.2175L42.3956 27.1335ZM42.2776 27.2225L41.6964 25.3088L40.2635 25.7439L40.8447 27.6576L41.4258 29.5713L42.8587 29.1362L42.2776 27.2225ZM40.8447 27.6576L40.2635 25.7439L38.8306 26.179L39.4117 28.0927L39.9929 30.0065L41.4258 29.5713L40.8447 27.6576ZM39.4117 28.0927L38.8306 26.179C39.0214 26.1211 39.218 26.101 39.407 26.1153L39.2563 28.1096L39.1057 30.1039C39.4013 30.1263 39.7015 30.0949 39.9929 30.0065L39.4117 28.0927ZM39.2563 28.1096L39.4069 26.1153L37.8869 26.0005L37.7363 27.9948L37.5857 29.9891L39.1057 30.1039L39.2563 28.1096ZM37.7363 27.9948L37.8869 26.0005L36.3669 25.8857L36.2163 27.88L36.0657 29.8743L37.5857 29.9891L37.7363 27.9948ZM36.2163 27.88L36.3669 25.8857C36.2124 25.874 36.0581 25.8742 35.9051 25.8857L36.0555 27.8801L36.2058 29.8744C36.1606 29.8778 36.1136 29.8779 36.0657 29.8743L36.2163 27.88ZM36.0555 27.8801L35.9051 25.8857L34.369 26.0015L34.5194 27.9959L34.6697 29.9902L36.2059 29.8744L36.0555 27.8801ZM34.5194 27.9959L34.369 26.0015L32.8329 26.1174L32.9832 28.1117L33.1336 30.106L34.6697 29.9902L34.5194 27.9959ZM32.9832 28.1117L32.8329 26.1174C32.2482 26.1615 31.6923 26.4368 31.3022 26.9154L32.8525 28.179L34.4028 29.4426C34.2586 29.6195 34.0664 29.7858 33.8257 29.9097C33.5861 30.0331 33.3461 30.09 33.1336 30.106L32.9832 28.1117ZM32.8525 28.179L31.3022 26.9155L30.354 28.0788L31.9043 29.3423L33.4546 30.6059L34.4028 29.4426L32.8525 28.179ZM31.9043 29.3423L30.354 28.0788L29.4059 29.2421L30.9562 30.5056L32.5064 31.7692L33.4546 30.6059L31.9043 29.3423ZM30.9562 30.5056L29.4059 29.2421C29.3095 29.3603 29.223 29.4846 29.1461 29.6138L30.8653 30.6358L32.5844 31.6579C32.5622 31.6951 32.5363 31.7326 32.5065 31.7692L30.9562 30.5056ZM30.8653 30.6358L29.1461 29.6138L28.3674 30.9237L30.0865 31.9458L31.8056 32.9678L32.5844 31.6579L30.8653 30.6358ZM30.0865 31.9458L28.3674 30.9237L27.5886 32.2337L29.3077 33.2557L31.0268 34.2778L31.8056 32.9678L30.0865 31.9458ZM29.3077 33.2557L27.5886 32.2337C27.5465 32.3044 27.506 32.3761 27.467 32.4486L29.2288 33.3952L30.9907 34.3417C31.0022 34.3202 31.0143 34.2989 31.0268 34.2777L29.3077 33.2557ZM29.2288 33.3952L27.467 32.4486L26.7473 33.7882L28.5092 34.7347L30.271 35.6812L30.9907 34.3417L29.2288 33.3952ZM28.5092 34.7347L26.7473 33.7882L26.0277 35.1277L27.7895 36.0743L29.5514 37.0208L30.271 35.6812L28.5092 34.7347ZM27.7895 36.0743L26.0277 35.1278C25.9867 35.204 25.9477 35.2812 25.9106 35.3593L27.7173 36.2171L29.5241 37.0748C29.5327 37.0566 29.5418 37.0386 29.5514 37.0208L27.7895 36.0743ZM27.7173 36.2171L25.9106 35.3593L25.2586 36.7328L27.0653 37.5905L28.8721 38.4482L29.5241 37.0748L27.7173 36.2171ZM27.0653 37.5905L25.2586 36.7328L24.6066 38.1062L26.4133 38.9639L28.2201 39.8216L28.8721 38.4482L27.0653 37.5905ZM26.4133 38.9639L24.6066 38.1062C24.5697 38.1838 24.5348 38.2623 24.5018 38.3417L26.3482 39.1102L28.1946 39.8788C28.2027 39.8594 28.2112 39.8404 28.2201 39.8216L26.4133 38.9639ZM26.3482 39.1102L24.5018 38.3417L23.9162 39.7484L25.7627 40.5169L27.6091 41.2855L28.1946 39.8788L26.3482 39.1102ZM25.7627 40.5169L23.9162 39.7484L23.3307 41.1551L25.1771 41.9237L27.0235 42.6922L27.6091 41.2855L25.7627 40.5169ZM25.1771 41.9237L23.3307 41.1551C23.4035 40.9801 23.5313 40.7644 23.7457 40.5683L25.0956 42.0441L26.4455 43.5198C26.7275 43.2618 26.9096 42.9659 27.0235 42.6922L25.1771 41.9237ZM25.0956 42.0441L23.7457 40.5684L22.7827 41.4493L24.1326 42.925L25.4825 44.4007L26.4455 43.5198L25.0956 42.0441ZM24.1326 42.925L22.7827 41.4493L21.8197 42.3302L23.1696 43.8059L24.5195 45.2816L25.4825 44.4007L24.1326 42.925ZM23.1696 43.8059L21.8197 42.3302C22.0726 42.0988 22.4301 41.9021 22.8686 41.8479C23.2872 41.7963 23.6291 41.8929 23.8466 41.9877L23.0472 43.821L22.2478 45.6543C22.5132 45.77 22.8993 45.8745 23.3587 45.8178C23.838 45.7586 24.2328 45.544 24.5195 45.2816L23.1696 43.8059ZM23.0472 43.821L23.8466 41.9877L22.4846 41.3938L21.6852 43.2271L20.8858 45.0604L22.2478 45.6543L23.0472 43.821ZM21.6852 43.2271L22.4846 41.3938L21.1226 40.7999L20.3232 42.6332L19.5238 44.4665L20.8858 45.0604L21.6852 43.2271ZM20.3232 42.6332L21.1226 40.7999C21.3829 40.9134 21.6112 41.0917 21.7838 41.3143L20.2034 42.54L18.6231 43.7658C18.8598 44.071 19.168 44.3114 19.5238 44.4665L20.3232 42.6332ZM20.2034 42.54L21.7838 41.3143L20.8704 40.1366L19.29 41.3624L17.7097 42.5882L18.6231 43.7658L20.2034 42.54ZM19.29 41.3624L20.8704 40.1366L19.957 38.959L18.3767 40.1848L16.7963 41.4105L17.7097 42.5882L19.29 41.3624ZM18.3767 40.1848L19.957 38.959C20.1424 39.198 20.2615 39.484 20.301 39.7827L18.3183 40.0449L16.3356 40.3072C16.3888 40.7097 16.5469 41.0889 16.7963 41.4105L18.3767 40.1848ZM18.3183 40.0449L20.301 39.7827L20.1053 38.3032L18.1226 38.5654L16.1399 38.8276L16.3355 40.3072L18.3183 40.0449ZM18.1226 38.5654L20.1053 38.3032L19.9096 36.8237L17.9269 37.0859L15.9442 37.3481L16.1399 38.8276L18.1226 38.5654ZM17.9269 37.0859L19.9096 36.8237C19.9082 36.8125 19.9102 36.826 19.9126 36.854C19.9138 36.868 19.9163 36.8997 19.9175 36.9424C19.9182 36.9643 19.9187 36.9961 19.918 37.0349C19.9172 37.0714 19.915 37.131 19.907 37.2046L17.9187 36.9888L15.9304 36.7731C15.9064 36.9942 15.9261 37.1825 15.9268 37.1914C15.9319 37.2518 15.9388 37.3074 15.9442 37.3481L17.9269 37.0859ZM17.9187 36.9888L19.907 37.2046L19.9466 36.8398L17.9583 36.624L15.97 36.4082L15.9304 36.773L17.9187 36.9888ZM17.9583 36.624L19.9466 36.8398L19.9862 36.475L17.9979 36.2592L16.0096 36.0434L15.97 36.4082L17.9583 36.624ZM17.9979 36.2592L19.9862 36.475C19.9815 36.5181 19.9764 36.5521 19.9731 36.572C19.9697 36.5934 19.9665 36.6105 19.9644 36.6218C19.9602 36.6435 19.9569 36.6585 19.9559 36.6629C19.9539 36.6717 19.9541 36.6701 19.9586 36.6526L18.0196 36.1624L16.0806 35.6723C16.0719 35.7065 16.062 35.7469 16.0528 35.7879C16.0504 35.7987 16.0239 35.9113 16.0096 36.0434L17.9979 36.2592ZM18.0196 36.1624L19.9586 36.6526L20.3311 35.1789L18.3921 34.6887L16.4531 34.1986L16.0806 35.6723L18.0196 36.1624Z" fill="#FA502D"/>
</svg>
