<svg preserveAspectRatio="none" width="100%" height="100%" overflow="visible" style="display: block;" viewBox="0 0 45 45" fill="none" xmlns="http://www.w3.org/2000/svg">
<g id="lucide/equal-approximately">
<path id="Vector" d="M5.84866 28.0041C5.31972 28.163 5.01975 28.7206 5.17864 29.2495C5.33754 29.7784 5.89514 30.0784 6.42407 29.9195L6.13636 28.9618L5.84866 28.0041ZM6.23214 28.933L6.51984 29.8907L6.77306 29.8147L6.95559 29.6234L6.23214 28.933ZM6.54054 28.6098L7.26399 29.3002L7.264 29.3002L6.54054 28.6098ZM6.64548 28.5521L6.65964 29.552L6.65965 29.552L6.64548 28.5521ZM6.93173 28.548L6.91756 27.5481L6.91756 27.5481L6.93173 28.548ZM7.21798 28.544L7.23215 29.5439L7.23216 29.5439L7.21798 28.544ZM7.29955 28.5045L8.08022 29.1294L8.08022 29.1294L7.29955 28.5045ZM7.47553 28.2846L6.69486 27.6597L6.69485 27.6597L7.47553 28.2846ZM7.6515 28.0648L8.43217 28.6898L8.43218 28.6897L7.6515 28.0648ZM7.72064 27.9997L8.28966 28.822L8.28966 28.822L7.72064 27.9997ZM7.93642 27.8503L7.3674 27.028L7.3674 27.028L7.93642 27.8503ZM8.15221 27.701L8.72123 28.5233L8.72124 28.5233L8.15221 27.701ZM8.2387 27.674L8.25175 28.674L8.25177 28.674L8.2387 27.674ZM8.51302 27.6705L8.49995 26.6705L8.49995 26.6705L8.51302 27.6705ZM8.78733 27.6669L8.8004 28.6668L8.80041 28.6668L8.78733 27.6669ZM8.87843 27.6522L9.19184 28.6018L9.19185 28.6018L8.87843 27.6522ZM9.12033 27.5723L8.80692 26.6227L8.80691 26.6227L9.12033 27.5723ZM9.36224 27.4925L9.67565 28.4421L9.67566 28.4421L9.36224 27.4925ZM9.44355 27.45L10.0354 28.2561L10.0354 28.2561L9.44355 27.45ZM9.6624 27.2893L9.07057 26.4833L9.07057 26.4833L9.6624 27.2893ZM9.88125 27.1287L10.4731 27.9347L10.4731 27.9347L9.88125 27.1287ZM9.96536 27.0947L10.0886 28.087L10.0886 28.087L9.96536 27.0947ZM10.2231 27.0626L10.0999 26.0703L10.0999 26.0703L10.2231 27.0626ZM10.4809 27.0306L10.6042 28.023L10.6042 28.023L10.4809 27.0306ZM10.5758 27.0405L10.2754 27.9944L10.2754 27.9944L10.5758 27.0405ZM10.8559 27.1287L11.1563 26.1749L11.1563 26.1749L10.8559 27.1287ZM11.1359 27.2169L10.8355 28.1708L10.8355 28.1708L11.1359 27.2169ZM11.223 27.1888L11.9808 27.8413L11.9808 27.8413L11.223 27.1888ZM11.4364 26.941L10.6787 26.2884L10.6787 26.2884L11.4364 26.941ZM11.6498 26.6931L12.4076 27.3457L12.4076 27.3457L11.6498 26.6931ZM11.7342 26.6544L11.6287 27.6488L11.6288 27.6488L11.7342 26.6544ZM11.9986 26.6824L12.104 25.688L12.104 25.688L11.9986 26.6824ZM12.2631 26.7104L12.1576 27.7048L12.1577 27.7049L12.2631 26.7104ZM12.3534 26.6962L12.7552 27.6119L12.7552 27.6119L12.3534 26.6962ZM12.6011 26.5875L12.1993 25.6718L12.1993 25.6718L12.6011 26.5875ZM12.8488 26.4788L13.2506 27.3946L13.2506 27.3946L12.8488 26.4788ZM12.9396 26.4833L12.4905 27.3768L12.4905 27.3768L12.9396 26.4833ZM13.2061 26.6172L13.6551 25.7237L13.6551 25.7237L13.2061 26.6172ZM13.4726 26.7512L13.0235 27.6447L13.0235 27.6447L13.4726 26.7512ZM13.5643 26.7662L13.7541 27.748L13.7541 27.748L13.5643 26.7662ZM13.8173 26.7172L13.6274 25.7354L13.6274 25.7354L13.8173 26.7172ZM14.0703 26.6683L14.2601 27.6501L14.2602 27.6501L14.0703 26.6683ZM14.1602 26.6529L14.3091 27.6417L14.3091 27.6417L14.1602 26.6529ZM14.4164 26.6143L14.2675 25.6254L14.2675 25.6254L14.4164 26.6143ZM14.6727 26.5757L14.8216 27.5646L14.8216 27.5646L14.6727 26.5757ZM14.764 26.5572L15.0089 27.5268L15.0089 27.5268L14.764 26.5572ZM15.0254 26.4912L14.7805 25.5217L14.7805 25.5217L15.0254 26.4912ZM15.2868 26.4252L15.5316 27.3948L15.5316 27.3948L15.2868 26.4252ZM15.3746 26.456L14.6618 27.1573L14.6618 27.1573L15.3746 26.456ZM15.6113 26.6966L16.3242 25.9953L16.3242 25.9953L15.6113 26.6966ZM15.848 26.9372L15.1351 27.6385L15.1351 27.6385L15.848 26.9372ZM15.9391 26.9466L16.4943 27.7783L16.4943 27.7783L15.9391 26.9466ZM16.2188 26.7599L15.6636 25.9282L15.6636 25.9282L16.2188 26.7599ZM16.4986 26.5731L17.0538 27.4048L17.0539 27.4048L16.4986 26.5731ZM16.5896 26.5678L16.0368 27.4011L16.0368 27.4011L16.5896 26.5678ZM16.8254 26.7242L17.3782 25.8909L17.3782 25.8909L16.8254 26.7242ZM17.0612 26.8806L16.5084 27.7139L16.5084 27.7139L17.0612 26.8806ZM17.1495 26.9053L17.2108 27.9035L17.2108 27.9035L17.1495 26.9053ZM17.4141 26.8891L17.3528 25.891L17.3528 25.891L17.4141 26.8891ZM17.6788 26.8728L17.74 27.871L17.7401 27.871L17.6788 26.8728ZM17.7618 26.911L17.0137 27.5745L17.0137 27.5745L17.7618 26.911ZM17.968 27.1434L18.7161 26.4799L18.7161 26.4799L17.968 27.1434ZM18.1742 27.3759L17.426 28.0394L17.426 28.0394L18.1742 27.3759ZM18.2649 27.3896L18.7129 28.2837L18.7129 28.2837L18.2649 27.3896ZM18.5729 27.2353L18.1249 26.3412L18.1249 26.3412L18.5729 27.2353ZM18.881 27.0809L19.329 27.9749L19.329 27.9749L18.881 27.0809ZM18.9753 27.0785L18.4471 27.9276L18.4471 27.9276L18.9753 27.0785ZM19.2017 27.2193L19.7299 26.3702L19.7299 26.3702L19.2017 27.2193ZM19.428 27.3602L18.8998 28.2093L18.8998 28.2093L19.428 27.3602ZM19.509 27.4049L19.0721 28.3045L19.0722 28.3045L19.509 27.4049ZM19.7412 27.5177L20.178 26.6181L20.178 26.6181L19.7412 27.5177ZM19.9734 27.6305L19.5366 28.53L19.5366 28.53L19.9734 27.6305ZM20.0578 27.664L19.7565 28.6176L19.7566 28.6176L20.0578 27.664ZM20.3033 27.7416L20.6045 26.7881L20.6045 26.7881L20.3033 27.7416ZM20.5488 27.8192L20.2476 28.7727L20.2476 28.7727L20.5488 27.8192ZM20.6217 27.8763L21.4481 27.3132L21.4481 27.3132L20.6217 27.8763ZM20.7893 28.1222L19.9629 28.6853L19.9629 28.6853L20.7893 28.1222ZM20.9569 28.3681L21.7833 27.805L21.7833 27.805L20.9569 28.3681ZM21.0354 28.4135L20.9941 29.4126L20.9941 29.4126L21.0354 28.4135ZM21.3129 28.4249L21.3541 27.4258L21.3541 27.4258L21.3129 28.4249ZM21.5904 28.4364L21.5491 29.4356L21.5491 29.4356L21.5904 28.4364ZM21.6797 28.4587L21.2307 29.3522L21.2307 29.3522L21.6797 28.4587ZM21.9083 28.5736L22.3573 27.68L22.3573 27.68L21.9083 28.5736ZM22.1369 28.6884L21.6879 29.582L21.6879 29.582L22.1369 28.6884ZM22.2032 28.7532L23.0669 28.2492L23.0669 28.2492L22.2032 28.7532ZM22.3504 29.0054L21.4867 29.5094L21.4867 29.5094L22.3504 29.0054ZM22.4975 29.2575L23.3612 28.7535L23.3612 28.7535L22.4975 29.2575ZM22.5791 29.2956L22.694 30.289L22.694 30.289L22.5791 29.2956ZM22.8942 29.2591L22.7792 28.2657L22.7792 28.2657L22.8942 29.2591ZM23.2093 29.2227L23.3242 30.216L23.3243 30.216L23.2093 29.2227ZM23.2997 29.2464L22.6447 30.002L22.6447 30.002L23.2997 29.2464ZM23.4967 29.4171L24.1517 28.6615L24.1517 28.6615L23.4967 29.4171ZM23.6938 29.5879L23.0388 30.3436L23.0388 30.3436L23.6938 29.5879ZM23.7641 29.6486L23.1124 30.4071L23.1124 30.4071L23.7641 29.6486ZM23.9657 29.8218L24.6174 29.0634L24.6174 29.0634L23.9657 29.8218ZM24.1673 29.9951L23.5155 30.7535L23.5155 30.7535L24.1673 29.9951ZM24.2513 30.0268L24.2266 31.0265L24.2267 31.0265L24.2513 30.0268ZM24.5258 30.0336L24.5505 29.0339L24.5505 29.0339L24.5258 30.0336ZM24.8004 30.0403L24.7758 31.04L24.7758 31.04L24.8004 30.0403ZM24.8912 30.056L24.5686 31.0025L24.5686 31.0025L24.8912 30.056ZM25.1312 30.1378L25.4537 29.1912L25.4537 29.1912L25.1312 30.1378ZM25.3711 30.2195L25.0486 31.1661L25.0486 31.1661L25.3711 30.2195ZM25.4469 30.2766L26.234 29.6598L26.234 29.6598L25.4469 30.2766ZM25.6364 30.5184L24.8493 31.1353L24.8493 31.1353L25.6364 30.5184ZM25.8259 30.7602L26.613 30.1433L26.613 30.1433L25.8259 30.7602ZM25.9138 30.7773L26.3381 31.6828L26.3381 31.6828L25.9138 30.7773ZM26.2223 30.6327L25.7979 29.7273L25.7979 29.7273L26.2223 30.6327ZM26.5308 30.4882L26.9551 31.3936L26.9552 31.3936L26.5308 30.4882ZM26.62 30.5088L27.4184 29.9066L27.4184 29.9066L26.62 30.5088ZM26.8171 30.7701L26.0187 31.3722L26.0187 31.3723L26.8171 30.7701ZM27.0142 31.0315L27.8126 30.4294L27.8126 30.4293L27.0142 31.0315ZM27.0948 31.0815L27.0094 32.0779L27.0094 32.0779L27.0948 31.0815ZM27.3541 31.1037L27.4395 30.1074L27.4395 30.1074L27.3541 31.1037ZM27.6134 31.126L27.528 32.1223L27.528 32.1223L27.6134 31.126ZM27.7091 31.1045L28.1634 31.9953L28.1634 31.9953L27.7091 31.1045ZM27.9918 30.9603L27.5375 30.0694L27.5375 30.0694L27.9918 30.9603ZM28.2745 30.8161L28.7288 31.7069L28.7288 31.7069L28.2745 30.8161ZM28.3681 30.7973L28.2181 31.786L28.2181 31.786L28.3681 30.7973ZM28.6159 30.8349L28.7659 29.8462L28.7659 29.8462L28.6159 30.8349ZM28.8636 30.8725L28.7136 31.8612L28.7136 31.8612L28.8636 30.8725ZM28.9489 30.9154L29.606 30.1616L29.606 30.1616L28.9489 30.9154ZM29.1846 31.1208L28.5275 31.8746L28.5275 31.8746L29.1846 31.1208ZM29.4203 31.3262L30.0773 30.5724L30.0773 30.5724L29.4203 31.3262ZM29.5077 31.3527L29.7163 32.3307L29.7163 32.3307L29.5077 31.3527ZM29.7675 31.2973L29.5589 30.3193L29.5589 30.3193L29.7675 31.2973ZM30.0273 31.2418L30.236 32.2198L30.236 32.2198L30.0273 31.2418ZM30.1181 31.2318L30.1248 32.2317L30.1248 32.2317L30.1181 31.2318ZM30.373 31.2301L30.3663 30.2301L30.3663 30.2301L30.373 31.2301ZM30.6278 31.2284L30.6345 32.2283L30.6345 32.2283L30.6278 31.2284ZM30.7181 31.2325L30.6202 32.2277L30.6202 32.2277L30.7181 31.2325ZM30.9746 31.2578L31.0725 30.2626L31.0725 30.2626L30.9746 31.2578ZM31.2311 31.283L31.1331 32.2782L31.1331 32.2782L31.2311 31.283ZM31.322 31.2875L31.3218 32.2875L31.3218 32.2875L31.322 31.2875ZM31.5807 31.2875L31.5808 30.2875L31.5808 30.2875L31.5807 31.2875ZM31.8393 31.2875L31.8392 32.2875L31.8392 32.2875L31.8393 31.2875ZM31.9313 31.2875L31.933 32.2875L31.933 32.2875L31.9313 31.2875ZM32.1939 31.287L32.1922 30.287L32.1922 30.287L32.1939 31.287ZM32.4565 31.2866L32.4582 32.2866L32.4582 32.2866L32.4565 31.2866ZM32.5405 31.2481L33.2547 31.948L33.2548 31.9479L32.5405 31.2481ZM32.7538 31.0303L32.0396 30.3305L32.0396 30.3305L32.7538 31.0303ZM32.9672 30.8126L33.6815 31.5125L33.6815 31.5124L32.9672 30.8126ZM33.0507 30.7726L33.0837 31.7721L33.0838 31.7721L33.0507 30.7726ZM33.3108 30.7641L33.2778 29.7646L33.2777 29.7646L33.3108 30.7641ZM33.5708 30.7555L33.6038 31.7549L33.6038 31.7549L33.5708 30.7555ZM33.6535 30.7232L34.2949 31.4904L34.2949 31.4903L33.6535 30.7232ZM33.8619 30.5489L33.2205 29.7817L33.2205 29.7817L33.8619 30.5489ZM34.0704 30.3746L34.7118 31.1418L34.7119 31.1417L34.0704 30.3746ZM34.1579 30.3519L34.0014 31.3396L34.0014 31.3396L34.1579 30.3519ZM34.4452 30.3974L34.6017 29.4097L34.6017 29.4097L34.4452 30.3974ZM34.7326 30.4429L34.5761 31.4306L34.5762 31.4306L34.7326 30.4429ZM34.8225 30.4279L35.3294 31.2899L35.3294 31.2899L34.8225 30.4279ZM35.0448 30.2971L34.5379 29.4351L34.5379 29.4351L35.0448 30.2971ZM35.2671 30.1664L35.774 31.0284L35.774 31.0284L35.2671 30.1664ZM35.3471 30.1244L35.7687 31.0312L35.7687 31.0312L35.3471 30.1244ZM35.5782 30.017L35.1566 29.1102L35.1566 29.1102L35.5782 30.017ZM35.8092 29.9095L36.2308 30.8163L36.2308 30.8163L35.8092 29.9095ZM35.8855 29.8612L36.5231 30.6316L36.5231 30.6316L35.8855 29.8612ZM36.0868 29.6946L35.4493 28.9242L35.4493 28.9242L36.0868 29.6946ZM36.2881 29.528L36.9257 30.2984L36.9257 30.2984L36.2881 29.528ZM36.3653 29.4818L36.7399 30.409L36.7399 30.409L36.3653 29.4818ZM36.6016 29.3863L36.2271 28.4591L36.2271 28.4591L36.6016 29.3863ZM36.8379 29.2909L37.2125 30.2181L37.2125 30.2181L36.8379 29.2909ZM36.9212 29.2564L37.311 30.1773L37.311 30.1773L36.9212 29.2564ZM37.1566 29.1568L36.7667 28.2359L36.7667 28.2359L37.1566 29.1568ZM37.392 29.0571L37.7818 29.978L37.7818 29.978L37.392 29.0571ZM37.4739 29.0195L37.9192 29.9149L37.9192 29.9149L37.4739 29.0195ZM37.7024 28.9058L37.2571 28.0104L37.2571 28.0104L37.7024 28.9058ZM37.931 28.7921L38.3763 29.6875L38.3763 29.6875L37.931 28.7921ZM38.0061 28.7426L38.6525 29.5056L38.6525 29.5056L38.0061 28.7426ZM38.2032 28.5756L37.5568 27.8126L37.5568 27.8126L38.2032 28.5756ZM38.4003 28.4086L39.0468 29.1716L39.0468 29.1716L38.4003 28.4086ZM38.4591 28.3561L39.1506 29.0786L39.1506 29.0786L38.4591 28.3561ZM38.5952 28.2259L37.9037 27.5035L37.9037 27.5035L38.5952 28.2259ZM38.7312 28.0957L39.4227 28.8181L39.4227 28.8181L38.7312 28.0957ZM38.7634 28.086L39.6165 27.5643L39.6164 27.5643L38.7634 28.086ZM38.8094 28.1614L39.7656 28.4541L39.8974 28.0237L39.6625 27.6396L38.8094 28.1614ZM38.7709 28.2873L37.8147 27.9945L37.2017 29.9966L39.1441 29.215L38.7709 28.2873ZM39.2369 29.1777C39.7493 28.9716 39.9975 28.3891 39.7914 27.8767C39.5852 27.3644 39.0027 27.1161 38.4904 27.3223L38.8636 28.25L39.2369 29.1777ZM5.84866 14.5805C5.31972 14.7394 5.01975 15.297 5.17864 15.8259C5.33754 16.3549 5.89514 16.6548 6.42407 16.4959L6.13636 15.5382L5.84866 14.5805ZM6.23214 15.5094L6.51984 16.4672L6.55644 16.4562L6.5921 16.4424L6.23214 15.5094ZM6.63444 15.3542L6.9944 16.2872L6.9944 16.2872L6.63444 15.3542ZM6.74054 15.2973L7.3843 16.0625L7.3843 16.0625L6.74054 15.2973ZM6.93947 15.1299L6.29571 14.3647L6.29571 14.3647L6.93947 15.1299ZM7.1384 14.9626L7.78216 15.7278L7.78217 15.7278L7.1384 14.9626ZM7.20768 14.8996L7.90753 15.6139L7.90753 15.6139L7.20768 14.8996ZM7.40133 14.7098L6.70149 13.9955L6.70149 13.9955L7.40133 14.7098ZM7.59498 14.5201L8.29483 15.2344L8.29483 15.2344L7.59498 14.5201ZM7.67042 14.467L8.10036 15.3698L8.10036 15.3698L7.67042 14.467ZM7.90423 14.3556L7.47429 13.4528L7.47429 13.4528L7.90423 14.3556ZM8.13805 14.2443L8.56799 15.1471L8.56799 15.1471L8.13805 14.2443ZM8.22111 14.206L8.62915 15.1189L8.62915 15.1189L8.22111 14.206ZM8.45802 14.1001L8.04999 13.1871L8.04999 13.1871L8.45802 14.1001ZM8.69493 13.9942L9.10296 14.9072L9.10296 14.9072L8.69493 13.9942ZM8.78021 13.9612L9.09342 14.9109L9.09342 14.9109L8.78021 13.9612ZM9.02654 13.8799L8.71332 12.9302L8.71332 12.9302L9.02654 13.8799ZM9.27287 13.7987L9.58608 14.7484L9.58608 14.7484L9.27287 13.7987ZM9.37147 13.8108L9.80412 12.9092L9.80412 12.9092L9.37147 13.8108ZM9.68387 13.9607L9.25122 14.8623L9.25122 14.8623L9.68387 13.9607ZM9.99628 14.1106L10.4289 13.2091L10.4289 13.2091L9.99628 14.1106ZM10.0898 14.1081L10.6924 14.9061L10.6924 14.9061L10.0898 14.1081ZM10.3072 13.9439L9.70457 13.1459L9.70456 13.1459L10.3072 13.9439ZM10.5246 13.7798L11.1273 14.5778L11.1273 14.5778L10.5246 13.7798ZM10.6056 13.7354L10.9446 14.6762L10.9446 14.6762L10.6056 13.7354ZM10.8472 13.6484L10.5082 12.7076L10.5082 12.7076L10.8472 13.6484ZM11.0888 13.5613L11.4278 14.5021L11.4278 14.5021L11.0888 13.5613ZM11.176 13.5391L11.3276 14.5276L11.3276 14.5276L11.176 13.5391ZM11.4284 13.5004L11.2768 12.512L11.2768 12.512L11.4284 13.5004ZM11.6809 13.4617L11.8325 14.4501L11.8325 14.4501L11.6809 13.4617ZM11.7683 13.4353L12.1829 14.3453L12.1829 14.3453L11.7683 13.4353ZM12.0114 13.3246L11.5968 12.4146L11.5968 12.4146L12.0114 13.3246ZM12.2545 13.2138L12.669 14.1238L12.669 14.1238L12.2545 13.2138ZM12.3449 13.2157L12.755 12.3036L12.755 12.3036L12.3449 13.2157ZM12.6146 13.3369L12.2045 14.249L12.2045 14.249L12.6146 13.3369ZM12.8842 13.4582L13.2943 12.5461L13.2943 12.5461L12.8842 13.4582ZM12.9751 13.4535L13.4911 14.3101L13.4911 14.3101L12.9751 13.4535ZM13.2202 13.3059L12.7042 12.4493L12.7042 12.4493L13.2202 13.3059ZM13.4653 13.1582L13.9813 14.0148L13.9813 14.0148L13.4653 13.1582ZM13.554 13.1367L13.6522 12.1415L13.6522 12.1415L13.554 13.1367ZM13.8115 13.1621L13.7132 14.1572L13.7132 14.1572L13.8115 13.1621ZM14.069 13.1875L14.1672 12.1923L14.1672 12.1923L14.069 13.1875ZM14.1594 13.1998L14.331 12.2147L14.331 12.2147L14.1594 13.1998ZM14.4143 13.2442L14.2426 14.2294L14.2426 14.2294L14.4143 13.2442ZM14.6692 13.2886L14.8408 12.3035L14.8408 12.3035L14.6692 13.2886ZM14.7596 13.289L14.9216 14.2758L14.9216 14.2758L14.7596 13.289ZM15.017 13.2467L14.855 12.26L14.855 12.26L15.017 13.2467ZM15.2744 13.2045L15.4365 14.1913L15.4365 14.1913L15.2744 13.2045ZM15.3624 13.2261L15.9268 12.4006L15.9268 12.4006L15.3624 13.2261ZM15.6033 13.3909L15.0389 14.2163L15.0389 14.2163L15.6033 13.3909ZM15.8443 13.5556L16.4088 12.7302L16.4087 12.7302L15.8443 13.5556ZM15.9332 13.5725L16.188 14.5395L16.188 14.5395L15.9332 13.5725ZM16.1961 13.5032L15.9414 12.5362L15.9414 12.5362L16.1961 13.5032ZM16.459 13.4339L16.7138 14.4009L16.7138 14.4009L16.459 13.4339ZM16.5487 13.4351L16.8451 12.4801L16.8451 12.4801L16.5487 13.4351ZM16.7938 13.5112L16.4973 14.4663L16.4973 14.4663L16.7938 13.5112ZM17.0388 13.5873L17.3353 12.6322L17.3353 12.6322L17.0388 13.5873ZM17.1245 13.6161L17.4654 12.676L17.4654 12.676L17.1245 13.6161ZM17.3647 13.7032L17.0238 14.6433L17.0238 14.6433L17.3647 13.7032ZM17.6048 13.7903L17.9458 12.8502L17.9457 12.8502L17.6048 13.7903ZM17.6931 13.8056L17.6948 14.8056L17.6948 14.8056L17.6931 13.8056ZM17.9532 13.8051L17.9515 12.8051L17.9515 12.8051L17.9532 13.8051ZM18.2133 13.8047L18.215 14.8047L18.215 14.8047L18.2133 13.8047ZM18.3033 13.8137L18.506 12.8345L18.506 12.8345L18.3033 13.8137ZM18.553 13.8654L18.3502 14.8447L18.3502 14.8447L18.553 13.8654ZM18.8027 13.9171L19.0054 12.9379L19.0054 12.9379L18.8027 13.9171ZM18.8852 13.9528L19.4541 13.1304L19.4541 13.1304L18.8852 13.9528ZM19.1029 14.1035L18.534 14.9259L18.534 14.9259L19.1029 14.1035ZM19.3206 14.2541L19.8895 13.4316L19.8895 13.4316L19.3206 14.2541ZM19.4108 14.2697L19.6167 15.2483L19.6167 15.2483L19.4108 14.2697ZM19.7043 14.208L19.4985 13.2294L19.4985 13.2294L19.7043 14.208ZM19.9978 14.1463L20.2036 15.1249L20.2036 15.1249L19.9978 14.1463ZM20.0942 14.1469L20.344 13.1786L20.344 13.1786L20.0942 14.1469ZM20.3468 14.2121L20.0969 15.1804L20.0969 15.1804L20.3468 14.2121ZM20.5994 14.2773L20.8493 13.309L20.8493 13.309L20.5994 14.2773ZM20.6719 14.3365L21.5347 13.8309L21.5347 13.8308L20.6719 14.3365ZM20.8303 14.6067L19.9675 15.1123L19.9675 15.1123L20.8303 14.6067ZM20.9886 14.8769L21.8514 14.3713L21.8514 14.3713L20.9886 14.8769ZM21.0629 14.9322L21.2244 13.9453L21.2244 13.9453L21.0629 14.9322ZM21.3251 14.9751L21.1635 15.962L21.1635 15.962L21.3251 14.9751ZM21.5874 15.0181L21.749 14.0312L21.749 14.0312L21.5874 15.0181ZM21.6798 15.0358L21.8956 14.0594L21.8956 14.0594L21.6798 15.0358ZM21.941 15.0936L21.7252 16.07L21.7252 16.07L21.941 15.0936ZM22.2023 15.1513L22.4182 14.1749L22.4182 14.1749L22.2023 15.1513ZM22.2876 15.1841L22.7876 14.3181L22.7876 14.3181L22.2876 15.1841ZM22.5094 15.3122L22.0094 16.1782L22.0094 16.1782L22.5094 15.3122ZM22.7313 15.4403L23.2313 14.5743L23.2313 14.5743L22.7313 15.4403ZM22.8055 15.4914L23.4363 14.7155L23.4363 14.7155L22.8055 15.4914ZM23.004 15.6529L22.3732 16.4288L22.3732 16.4288L23.004 15.6529ZM23.2026 15.8143L23.8335 15.0384L23.8334 15.0384L23.2026 15.8143ZM23.2723 15.8736L23.9363 15.1258L23.9363 15.1258L23.2723 15.8736ZM23.4687 16.0479L22.8047 16.7957L22.8047 16.7957L23.4687 16.0479ZM23.665 16.2223L24.329 15.4745L24.329 15.4745L23.665 16.2223ZM23.7365 16.2813L24.3458 15.4884L24.3458 15.4884L23.7365 16.2813ZM23.945 16.4416L23.3356 17.2345L23.3356 17.2345L23.945 16.4416ZM24.1535 16.6018L24.7629 15.8089L24.7629 15.8089L24.1535 16.6018ZM24.2377 16.6342L24.1522 17.6305L24.1522 17.6305L24.2377 16.6342ZM24.5063 16.6572L24.5918 15.6609L24.5918 15.6609L24.5063 16.6572ZM24.7749 16.6803L24.6894 17.6766L24.6894 17.6766L24.7749 16.6803ZM24.8604 16.7112L25.436 15.8935L25.436 15.8935L24.8604 16.7112ZM25.0765 16.8633L24.5009 17.6811L24.5009 17.6811L25.0765 16.8633ZM25.2927 17.0155L25.8683 16.1978L25.8683 16.1978L25.2927 17.0155ZM25.3806 17.0354L25.5195 18.0257L25.5195 18.0257L25.3806 17.0354ZM25.6626 16.9958L25.5236 16.0055L25.5236 16.0055L25.6626 16.9958ZM25.9446 16.9562L26.0835 17.9465L26.0835 17.9465L25.9446 16.9562ZM26.0387 16.9559L25.8904 17.9448L25.8904 17.9448L26.0387 16.9559ZM26.2899 16.9936L26.4381 16.0046L26.4381 16.0046L26.2899 16.9936ZM26.5412 17.0312L26.393 18.0202L26.393 18.0202L26.5412 17.0312ZM26.6194 17.0879L27.4477 16.5276L27.4477 16.5276L26.6194 17.0879ZM26.8113 17.3716L25.9831 17.9319L25.9831 17.9319L26.8113 17.3716ZM27.0032 17.6553L27.8315 17.095L27.8315 17.0949L27.0032 17.6553ZM27.0823 17.7129L26.9166 18.6991L26.9166 18.6991L27.0823 17.7129ZM27.3385 17.756L27.5042 16.7698L27.5042 16.7698L27.3385 17.756ZM27.5947 17.799L27.429 18.7852L27.429 18.7852L27.5947 17.799ZM27.6864 17.8052L27.7171 18.8047L27.7171 18.8047L27.6864 17.8052ZM27.95 17.7971L27.9193 16.7976L27.9193 16.7976L27.95 17.7971ZM28.2135 17.789L28.2442 18.7886L28.2442 18.7886L28.2135 17.789ZM28.3068 17.7779L28.5087 18.7573L28.5087 18.7573L28.3068 17.7779ZM28.572 17.7233L28.3701 16.7439L28.3701 16.7439L28.572 17.7233ZM28.8373 17.6686L29.0392 18.648L29.0392 18.648L28.8373 17.6686ZM28.9277 17.6761L29.2945 16.7458L29.2945 16.7458L28.9277 17.6761ZM29.1749 17.7736L28.8081 18.7039L28.8081 18.7039L29.1749 17.7736ZM29.4221 17.8711L29.7889 16.9408L29.7889 16.9408L29.4221 17.8711ZM29.512 17.8628L29.9941 18.7389L29.9941 18.7389L29.512 17.8628ZM29.7744 17.7184L29.2923 16.8423L29.2923 16.8423L29.7744 17.7184ZM30.0368 17.574L30.5189 18.4501L30.5189 18.4501L30.0368 17.574ZM30.1274 17.5704L30.5703 16.6738L30.5703 16.6738L30.1274 17.5704ZM30.378 17.6942L29.935 18.5907L29.935 18.5907L30.378 17.6942ZM30.6286 17.818L31.0715 16.9215L31.0715 16.9214L30.6286 17.818ZM30.7158 17.8158L31.2038 18.6887L31.2038 18.6887L30.7158 17.8158ZM30.9597 17.6795L30.4717 16.8066L30.4717 16.8066L30.9597 17.6795ZM31.2036 17.5431L31.6915 18.416L31.6915 18.416L31.2036 17.5431ZM31.2931 17.5341L31.6006 16.5826L31.6006 16.5826L31.2931 17.5341ZM31.5564 17.6192L31.2489 18.5707L31.2489 18.5707L31.5564 17.6192ZM31.8198 17.7043L32.1274 16.7528L32.1274 16.7528L31.8198 17.7043ZM31.9065 17.6917L32.4728 18.5159L32.4728 18.5159L31.9065 17.6917ZM32.1346 17.535L31.5683 16.7108L31.5683 16.7108L32.1346 17.535ZM32.3626 17.3784L32.9289 18.2026L32.9289 18.2026L32.3626 17.3784ZM32.4523 17.367L32.7645 16.4169L32.7645 16.4169L32.4523 17.367ZM32.7327 17.4591L32.4206 18.4091L32.4206 18.4091L32.7327 17.4591ZM33.0131 17.5512L33.3253 16.6012L33.3253 16.6012L33.0131 17.5512ZM33.0995 17.5314L33.799 18.246L33.799 18.246L33.0995 17.5314ZM33.3086 17.3267L32.6092 16.612L32.6092 16.612L33.3086 17.3267ZM33.5178 17.122L34.2172 17.8367L34.2172 17.8367L33.5178 17.122ZM33.6086 17.1104L34.0216 16.1996L34.0216 16.1996L33.6086 17.1104ZM33.9144 17.249L33.5014 18.1598L33.5014 18.1598L33.9144 17.249ZM34.2202 17.3877L34.6331 16.4769L34.6331 16.4769L34.2202 17.3877ZM34.316 17.3941L34.7127 18.312L34.7127 18.312L34.316 17.3941ZM34.5531 17.2916L34.1565 16.3736L34.1565 16.3736L34.5531 17.2916ZM34.7903 17.1891L35.187 18.1071L35.187 18.107L34.7903 17.1891ZM34.8683 17.1371L35.5523 17.8666L35.5523 17.8666L34.8683 17.1371ZM35.0733 16.9449L34.3893 16.2154L34.3893 16.2154L35.0733 16.9449ZM35.2783 16.7527L35.9623 17.4822L35.9623 17.4822L35.2783 16.7527ZM35.3656 16.7282L35.5462 15.7446L35.5462 15.7446L35.3656 16.7282ZM35.6554 16.7814L35.4748 17.7649L35.4748 17.7649L35.6554 16.7814ZM35.9452 16.8346L36.1257 15.851L36.1257 15.851L35.9452 16.8346ZM36.0382 16.8267L36.419 17.7514L36.419 17.7514L36.0382 16.8267ZM36.2753 16.729L35.8945 15.8044L35.8945 15.8044L36.2753 16.729ZM36.5125 16.6313L36.8933 17.556L36.8933 17.556L36.5125 16.6313ZM36.5901 16.5811L37.2689 17.3153L37.269 17.3153L36.5901 16.5811ZM36.7925 16.3939L36.1136 15.6597L36.1136 15.6597L36.7925 16.3939ZM36.9949 16.2068L37.6738 16.941L37.6738 16.941L36.9949 16.2068ZM37.0796 16.1756L37.0404 17.1749L37.0404 17.1749L37.0796 16.1756ZM37.3568 16.1865L37.3959 15.1873L37.3959 15.1873L37.3568 16.1865ZM37.634 16.1974L37.5948 17.1966L37.5948 17.1966L37.634 16.1974ZM37.7163 16.1606L38.4732 16.8142L38.4732 16.8141L37.7163 16.1606ZM37.9057 15.9412L37.1488 15.2877L37.1488 15.2877L37.9057 15.9412ZM38.0951 15.7219L38.8519 16.3755L38.852 16.3755L38.0951 15.7219ZM38.1731 15.6744L38.3676 16.6553L38.3676 16.6553L38.1731 15.6744ZM38.4261 15.6242L38.2316 14.6433L38.2316 14.6433L38.4261 15.6242ZM38.679 15.5741L38.8735 16.555L38.8735 16.555L38.679 15.5741ZM38.7341 15.5632L38.9236 16.5451L38.9236 16.5451L38.7341 15.5632ZM38.7936 15.5517L39.2924 16.4185L38.6042 14.5698L38.7936 15.5517ZM38.7678 15.5666L38.269 14.6998L39.0517 16.5254L38.7678 15.5666ZM39.1476 16.497C39.6771 16.3402 39.9793 15.7838 39.8225 15.2543C39.6656 14.7247 39.1092 14.4226 38.5797 14.5794L38.8636 15.5382L39.1476 16.497ZM6.13636 28.9618L6.42407 29.9195L6.51984 29.8907L6.23214 28.933L5.94443 27.9753L5.84866 28.0041L6.13636 28.9618ZM6.23214 28.933L6.95559 29.6234L7.26399 29.3002L6.54054 28.6098L5.81708 27.9195L5.50868 28.2426L6.23214 28.933ZM6.54054 28.6098L7.264 29.3002C7.21625 29.3502 7.01216 29.547 6.65964 29.552L6.64548 28.5521L6.63131 27.5522C6.21145 27.5581 5.93739 27.7934 5.81708 27.9195L6.54054 28.6098ZM6.64548 28.5521L6.65965 29.552L6.9459 29.5479L6.93173 28.548L6.91756 27.5481L6.6313 27.5522L6.64548 28.5521ZM6.93173 28.548L6.9459 29.5479L7.23215 29.5439L7.21798 28.544L7.20381 27.5441L6.91756 27.5481L6.93173 28.548ZM7.21798 28.544L7.23216 29.5439C7.55874 29.5392 7.86926 29.3929 8.08022 29.1294L7.29955 28.5045L6.51888 27.8795C6.59245 27.7876 6.69485 27.6981 6.82771 27.6338C6.96011 27.5696 7.09135 27.5457 7.2038 27.5441L7.21798 28.544ZM7.29955 28.5045L8.08022 29.1294L8.2562 28.9096L7.47553 28.2846L6.69485 27.6597L6.51888 27.8795L7.29955 28.5045ZM7.47553 28.2846L8.2562 28.9096L8.43217 28.6898L7.6515 28.0648L6.87083 27.4399L6.69486 27.6597L7.47553 28.2846ZM7.6515 28.0648L8.43218 28.6897C8.39669 28.7341 8.34963 28.7805 8.28966 28.822L7.72064 27.9997L7.15162 27.1773C7.04087 27.254 6.94772 27.3438 6.87083 27.4399L7.6515 28.0648ZM7.72064 27.9997L8.28966 28.822L8.50545 28.6727L7.93642 27.8503L7.3674 27.028L7.15161 27.1773L7.72064 27.9997ZM7.93642 27.8503L8.50545 28.6727L8.72123 28.5233L8.15221 27.701L7.58319 26.8787L7.3674 27.028L7.93642 27.8503ZM8.15221 27.701L8.72124 28.5233C8.5754 28.6243 8.40879 28.6719 8.25175 28.674L8.2387 27.674L8.22564 26.6741C8.00406 26.677 7.77979 26.7427 7.58318 26.8787L8.15221 27.701ZM8.2387 27.674L8.25177 28.674L8.52608 28.6704L8.51302 27.6705L8.49995 26.6705L8.22563 26.6741L8.2387 27.674ZM8.51302 27.6705L8.52608 28.6704L8.8004 28.6668L8.78733 27.6669L8.77427 26.667L8.49995 26.6705L8.51302 27.6705ZM8.78733 27.6669L8.80041 28.6668C8.92693 28.6651 9.05925 28.6455 9.19184 28.6018L8.87843 27.6522L8.56502 26.7025C8.64069 26.6776 8.71228 26.6678 8.77426 26.667L8.78733 27.6669ZM8.87843 27.6522L9.19185 28.6018L9.43375 28.5219L9.12033 27.5723L8.80691 26.6227L8.56501 26.7025L8.87843 27.6522ZM9.12033 27.5723L9.43375 28.5219L9.67565 28.4421L9.36224 27.4925L9.04882 26.5429L8.80692 26.6227L9.12033 27.5723ZM9.36224 27.4925L9.67566 28.4421C9.81026 28.3977 9.93052 28.3331 10.0354 28.2561L9.44355 27.45L8.85173 26.644C8.90507 26.6048 8.97113 26.5685 9.04881 26.5429L9.36224 27.4925ZM9.44355 27.45L10.0354 28.2561L10.2542 28.0954L9.6624 27.2893L9.07057 26.4833L8.85172 26.644L9.44355 27.45ZM9.6624 27.2893L10.2542 28.0954L10.4731 27.9347L9.88125 27.1287L9.28943 26.3226L9.07057 26.4833L9.6624 27.2893ZM9.88125 27.1287L10.4731 27.9347C10.3676 28.0122 10.2356 28.0688 10.0886 28.087L9.96536 27.0947L9.84214 26.1023C9.63446 26.1281 9.44641 26.2073 9.28942 26.3226L9.88125 27.1287ZM9.96536 27.0947L10.0886 28.087L10.3464 28.055L10.2231 27.0626L10.0999 26.0703L9.84213 26.1023L9.96536 27.0947ZM10.2231 27.0626L10.3464 28.055L10.6042 28.023L10.4809 27.0306L10.3577 26.0383L10.0999 26.0703L10.2231 27.0626ZM10.4809 27.0306L10.6042 28.023C10.4747 28.0391 10.3614 28.0214 10.2754 27.9944L10.5758 27.0405L10.8762 26.0867C10.7243 26.0389 10.5478 26.0146 10.3577 26.0383L10.4809 27.0306ZM10.5758 27.0405L10.2754 27.9944L10.5555 28.0826L10.8559 27.1287L11.1563 26.1749L10.8762 26.0867L10.5758 27.0405ZM10.8559 27.1287L10.5555 28.0826L10.8355 28.1708L11.1359 27.2169L11.4363 26.2631L11.1563 26.1749L10.8559 27.1287ZM11.1359 27.2169L10.8355 28.1708C11.0228 28.2297 11.2526 28.246 11.4902 28.1692C11.7195 28.095 11.8794 27.959 11.9808 27.8413L11.223 27.1888L10.4653 26.5362C10.5415 26.4477 10.6744 26.331 10.8747 26.2662C11.0832 26.1988 11.282 26.2145 11.4363 26.2631L11.1359 27.2169ZM11.223 27.1888L11.9808 27.8413L12.1942 27.5935L11.4364 26.941L10.6787 26.2884L10.4653 26.5362L11.223 27.1888ZM11.4364 26.941L12.1942 27.5935L12.4076 27.3457L11.6498 26.6931L10.8921 26.0406L10.6787 26.2884L11.4364 26.941ZM11.6498 26.6931L12.4076 27.3457C12.3487 27.4141 12.2516 27.5039 12.1076 27.5701C11.9562 27.6397 11.7901 27.6659 11.6287 27.6488L11.7342 26.6544L11.8396 25.6599C11.4055 25.6139 11.0757 25.8274 10.8921 26.0406L11.6498 26.6931ZM11.7342 26.6544L11.6288 27.6488L11.8932 27.6768L11.9986 26.6824L12.104 25.688L11.8396 25.6599L11.7342 26.6544ZM11.9986 26.6824L11.8932 27.6768L12.1576 27.7048L12.2631 26.7104L12.3685 25.716L12.104 25.688L11.9986 26.6824ZM12.2631 26.7104L12.1577 27.7049C12.3649 27.7268 12.5696 27.6934 12.7552 27.6119L12.3534 26.6962L11.9517 25.7804C12.079 25.7246 12.2235 25.7006 12.3685 25.716L12.2631 26.7104ZM12.3534 26.6962L12.7552 27.6119L13.0029 27.5033L12.6011 26.5875L12.1993 25.6718L11.9517 25.7805L12.3534 26.6962ZM12.6011 26.5875L13.0029 27.5033L13.2506 27.3946L12.8488 26.4788L12.447 25.5631L12.1993 25.6718L12.6011 26.5875ZM12.8488 26.4788L13.2506 27.3946C13.1307 27.4472 12.9917 27.4764 12.8443 27.4692C12.6998 27.4621 12.5797 27.4217 12.4905 27.3768L12.9396 26.4833L13.3886 25.5898C13.1221 25.4559 12.7792 25.4174 12.447 25.5631L12.8488 26.4788ZM12.9396 26.4833L12.4905 27.3768L12.757 27.5108L13.2061 26.6172L13.6551 25.7237L13.3886 25.5898L12.9396 26.4833ZM13.2061 26.6172L12.757 27.5107L13.0235 27.6447L13.4726 26.7512L13.9216 25.8577L13.6551 25.7237L13.2061 26.6172ZM13.4726 26.7512L13.0235 27.6447C13.2198 27.7433 13.4744 27.8021 13.7541 27.748L13.5643 26.7662L13.3744 25.7844C13.5946 25.7418 13.788 25.7905 13.9216 25.8577L13.4726 26.7512ZM13.5643 26.7662L13.7541 27.748L14.0071 27.6991L13.8173 26.7172L13.6274 25.7354L13.3744 25.7844L13.5643 26.7662ZM13.8173 26.7172L14.0071 27.6991L14.2601 27.6501L14.0703 26.6683L13.8805 25.6865L13.6274 25.7354L13.8173 26.7172ZM14.0703 26.6683L14.2602 27.6501C14.2762 27.647 14.2926 27.6442 14.3091 27.6417L14.1602 26.6529L14.0113 25.664C13.9675 25.6706 13.9239 25.6781 13.8805 25.6865L14.0703 26.6683ZM14.1602 26.6529L14.3091 27.6417L14.5654 27.6031L14.4164 26.6143L14.2675 25.6254L14.0113 25.664L14.1602 26.6529ZM14.4164 26.6143L14.5653 27.6031L14.8216 27.5646L14.6727 26.5757L14.5238 25.5868L14.2675 25.6254L14.4164 26.6143ZM14.6727 26.5757L14.8216 27.5646C14.8853 27.555 14.9478 27.5422 15.0089 27.5268L14.764 26.5572L14.5192 25.5877C14.5188 25.5878 14.5204 25.5874 14.5238 25.5869L14.6727 26.5757ZM14.764 26.5572L15.0089 27.5268L15.2703 27.4608L15.0254 26.4912L14.7805 25.5217L14.5192 25.5877L14.764 26.5572ZM15.0254 26.4912L15.2703 27.4608L15.5316 27.3948L15.2868 26.4252L15.0419 25.4557L14.7805 25.5217L15.0254 26.4912ZM15.2868 26.4252L15.5316 27.3948C15.3611 27.4379 15.1758 27.4321 15.001 27.3708C14.837 27.3133 14.7261 27.2227 14.6618 27.1573L15.3746 26.456L16.0875 25.7547C15.8835 25.5473 15.5069 25.3382 15.0419 25.4557L15.2868 26.4252ZM15.3746 26.456L14.6618 27.1573L14.8984 27.3979L15.6113 26.6966L16.3242 25.9953L16.0875 25.7547L15.3746 26.456ZM15.6113 26.6966L14.8984 27.3979L15.1351 27.6385L15.848 26.9372L16.5608 26.2359L16.3242 25.9953L15.6113 26.6966ZM15.848 26.9372L15.1351 27.6385C15.2624 27.7678 15.4802 27.9233 15.788 27.9554C16.0963 27.9875 16.3422 27.8799 16.4943 27.7783L15.9391 26.9466L15.3839 26.115C15.5031 26.0354 15.7173 25.9372 15.9952 25.9661C16.2727 25.995 16.4614 26.1348 16.5608 26.2359L15.848 26.9372ZM15.9391 26.9466L16.4943 27.7783L16.7741 27.5916L16.2188 26.7599L15.6636 25.9282L15.3838 26.115L15.9391 26.9466ZM16.2188 26.7599L16.7741 27.5916L17.0538 27.4048L16.4986 26.5731L15.9434 25.7414L15.6636 25.9282L16.2188 26.7599ZM16.4986 26.5731L17.0539 27.4048C16.9662 27.4633 16.8129 27.5413 16.6048 27.5536C16.3827 27.5666 16.1852 27.4995 16.0368 27.4011L16.5896 26.5678L17.1424 25.7344C16.9662 25.6176 16.7397 25.5422 16.4873 25.557C16.2488 25.5711 16.0639 25.6609 15.9434 25.7414L16.4986 26.5731ZM16.5896 26.5678L16.0368 27.4011L16.2726 27.5575L16.8254 26.7242L17.3782 25.8909L17.1424 25.7344L16.5896 26.5678ZM16.8254 26.7242L16.2726 27.5575L16.5084 27.7139L17.0612 26.8806L17.614 26.0473L17.3782 25.8909L16.8254 26.7242ZM17.0612 26.8806L16.5084 27.7139C16.7044 27.844 16.9474 27.9196 17.2108 27.9035L17.1495 26.9053L17.0882 25.9072C17.2893 25.8949 17.4734 25.954 17.614 26.0473L17.0612 26.8806ZM17.1495 26.9053L17.2108 27.9035L17.4754 27.8872L17.4141 26.8891L17.3528 25.891L17.0882 25.9072L17.1495 26.9053ZM17.4141 26.8891L17.4754 27.8872L17.74 27.871L17.6788 26.8728L17.6175 25.8747L17.3528 25.891L17.4141 26.8891ZM17.6788 26.8728L17.7401 27.871C17.5952 27.8799 17.4451 27.8538 17.3056 27.7897C17.1708 27.7278 17.0756 27.6443 17.0137 27.5745L17.7618 26.911L18.51 26.2474C18.3211 26.0345 18.0103 25.8506 17.6175 25.8747L17.6788 26.8728ZM17.7618 26.911L17.0137 27.5745L17.2199 27.807L17.968 27.1434L18.7161 26.4799L18.51 26.2474L17.7618 26.911ZM17.968 27.1434L17.2199 27.807L17.426 28.0394L18.1742 27.3759L18.9223 26.7123L18.7161 26.4799L17.968 27.1434ZM18.1742 27.3759L17.426 28.0394C17.5618 28.1925 17.7756 28.3446 18.0649 28.3885C18.3415 28.4305 18.5694 28.3556 18.7129 28.2837L18.2649 27.3896L17.8169 26.4956C17.9242 26.4418 18.1188 26.3737 18.3651 26.4111C18.6243 26.4505 18.8108 26.5866 18.9223 26.7123L18.1742 27.3759ZM18.2649 27.3896L18.7129 28.2837L19.021 28.1293L18.5729 27.2353L18.1249 26.3412L17.8169 26.4956L18.2649 27.3896ZM18.5729 27.2353L19.021 28.1293L19.329 27.9749L18.881 27.0809L18.433 26.1869L18.1249 26.3412L18.5729 27.2353ZM18.881 27.0809L19.329 27.9749C19.2523 28.0134 19.1244 28.0621 18.9571 28.0664C18.7781 28.0709 18.6001 28.0228 18.4471 27.9276L18.9753 27.0785L19.5035 26.2294C19.0949 25.9752 18.6767 26.0647 18.433 26.1869L18.881 27.0809ZM18.9753 27.0785L18.4471 27.9276L18.6735 28.0685L19.2017 27.2193L19.7299 26.3702L19.5035 26.2294L18.9753 27.0785ZM19.2017 27.2193L18.6735 28.0685L18.8998 28.2093L19.428 27.3602L19.9563 26.511L19.7299 26.3702L19.2017 27.2193ZM19.428 27.3602L18.8998 28.2093C18.9551 28.2436 19.0125 28.2755 19.0721 28.3045L19.509 27.4049L19.9458 26.5054C19.9508 26.5078 19.9543 26.5098 19.9562 26.511L19.428 27.3602ZM19.509 27.4049L19.0722 28.3045L19.3044 28.4172L19.7412 27.5177L20.178 26.6181L19.9458 26.5054L19.509 27.4049ZM19.7412 27.5177L19.3044 28.4172L19.5366 28.53L19.9734 27.6305L20.4103 26.7309L20.178 26.6181L19.7412 27.5177ZM19.9734 27.6305L19.5366 28.53C19.6077 28.5645 19.6811 28.5938 19.7565 28.6176L20.0578 27.664L20.359 26.7105C20.3767 26.7161 20.3939 26.723 20.4103 26.7309L19.9734 27.6305ZM20.0578 27.664L19.7566 28.6176L20.0021 28.6952L20.3033 27.7416L20.6045 26.7881L20.359 26.7105L20.0578 27.664ZM20.3033 27.7416L20.0021 28.6952L20.2476 28.7727L20.5488 27.8192L20.8501 26.8656L20.6045 26.7881L20.3033 27.7416ZM20.5488 27.8192L20.2476 28.7727C20.0302 28.7041 19.8814 28.5656 19.7954 28.4393L20.6217 27.8763L21.4481 27.3132C21.3227 27.1291 21.1253 26.9525 20.8501 26.8656L20.5488 27.8192ZM20.6217 27.8763L19.7954 28.4393L19.9629 28.6853L20.7893 28.1222L21.6157 27.5591L21.4481 27.3132L20.6217 27.8763ZM20.7893 28.1222L19.9629 28.6853L20.1305 28.9312L20.9569 28.3681L21.7833 27.805L21.6157 27.5591L20.7893 28.1222ZM20.9569 28.3681L20.1305 28.9312C20.3134 29.1997 20.6202 29.3972 20.9941 29.4126L21.0354 28.4135L21.0767 27.4143C21.2087 27.4198 21.3538 27.4556 21.4919 27.5355C21.6277 27.614 21.7219 27.7149 21.7833 27.805L20.9569 28.3681ZM21.0354 28.4135L20.9941 29.4126L21.2716 29.4241L21.3129 28.4249L21.3541 27.4258L21.0766 27.4143L21.0354 28.4135ZM21.3129 28.4249L21.2716 29.4241L21.5491 29.4356L21.5904 28.4364L21.6316 27.4373L21.3541 27.4258L21.3129 28.4249ZM21.5904 28.4364L21.5491 29.4356C21.4522 29.4316 21.3412 29.4078 21.2307 29.3522L21.6797 28.4587L22.1287 27.5652C21.9643 27.4826 21.7938 27.444 21.6316 27.4373L21.5904 28.4364ZM21.6797 28.4587L21.2307 29.3522L21.4593 29.4671L21.9083 28.5736L22.3573 27.68L22.1286 27.5652L21.6797 28.4587ZM21.9083 28.5736L21.4593 29.4671L21.6879 29.582L22.1369 28.6884L22.5859 27.7949L22.3573 27.68L21.9083 28.5736ZM22.1369 28.6884L21.6879 29.582C21.5183 29.4968 21.4057 29.3706 21.3395 29.2572L22.2032 28.7532L23.0669 28.2492C22.9661 28.0765 22.8093 27.9072 22.5859 27.7949L22.1369 28.6884ZM22.2032 28.7532L21.3395 29.2572L21.4867 29.5094L22.3504 29.0054L23.2141 28.5013L23.0669 28.2492L22.2032 28.7532ZM22.3504 29.0054L21.4867 29.5094L21.6338 29.7615L22.4975 29.2575L23.3612 28.7535L23.2141 28.5013L22.3504 29.0054ZM22.4975 29.2575L21.6338 29.7615C21.7297 29.9259 21.8842 30.091 22.1081 30.1955C22.3259 30.2971 22.5362 30.3072 22.694 30.289L22.5791 29.2956L22.4642 28.3022C22.5849 28.2882 22.7631 28.2941 22.9537 28.3831C23.1504 28.4748 23.2826 28.6188 23.3612 28.7535L22.4975 29.2575ZM22.5791 29.2956L22.694 30.289L23.0091 30.2525L22.8942 29.2591L22.7792 28.2657L22.4641 28.3022L22.5791 29.2956ZM22.8942 29.2591L23.0091 30.2525L23.3242 30.216L23.2093 29.2227L23.0943 28.2293L22.7792 28.2657L22.8942 29.2591ZM23.2093 29.2227L23.3243 30.216C23.2432 30.2254 23.1324 30.2258 23.006 30.1926C22.8752 30.1583 22.7507 30.0939 22.6447 30.002L23.2997 29.2464L23.9546 28.4907C23.6745 28.2479 23.3448 28.2003 23.0943 28.2293L23.2093 29.2227ZM23.2997 29.2464L22.6447 30.002L22.8417 30.1728L23.4967 29.4171L24.1517 28.6615L23.9546 28.4907L23.2997 29.2464ZM23.4967 29.4171L22.8417 30.1728L23.0388 30.3436L23.6938 29.5879L24.3487 28.8323L24.1517 28.6615L23.4967 29.4171ZM23.6938 29.5879L23.0388 30.3436C23.0631 30.3646 23.0876 30.3858 23.1124 30.4071L23.7641 29.6486L24.4158 28.8902C24.3932 28.8707 24.3708 28.8514 24.3487 28.8323L23.6938 29.5879ZM23.7641 29.6486L23.1124 30.4071L23.314 30.5803L23.9657 29.8218L24.6174 29.0634L24.4158 28.8902L23.7641 29.6486ZM23.9657 29.8218L23.314 30.5803L23.5155 30.7535L24.1673 29.9951L24.819 29.2366L24.6174 29.0634L23.9657 29.8218ZM24.1673 29.9951L23.5155 30.7535C23.7204 30.9296 23.9721 31.0202 24.2266 31.0265L24.2513 30.0268L24.2759 29.0271C24.4658 29.0318 24.6615 29.1013 24.819 29.2366L24.1673 29.9951ZM24.2513 30.0268L24.2267 31.0265L24.5012 31.0333L24.5258 30.0336L24.5505 29.0339L24.2759 29.0271L24.2513 30.0268ZM24.5258 30.0336L24.5012 31.0333L24.7758 31.04L24.8004 30.0403L24.825 29.0406L24.5505 29.0339L24.5258 30.0336ZM24.8004 30.0403L24.7758 31.04C24.715 31.0385 24.6441 31.0282 24.5686 31.0025L24.8912 30.056L25.2138 29.1094C25.0818 29.0645 24.9503 29.0437 24.825 29.0406L24.8004 30.0403ZM24.8912 30.056L24.5686 31.0025L24.8086 31.0843L25.1312 30.1378L25.4537 29.1912L25.2138 29.1094L24.8912 30.056ZM25.1312 30.1378L24.8086 31.0843L25.0486 31.1661L25.3711 30.2195L25.6937 29.273L25.4537 29.1912L25.1312 30.1378ZM25.3711 30.2195L25.0486 31.1661C24.8577 31.101 24.7316 30.9851 24.6599 30.8935L25.4469 30.2766L26.234 29.6598C26.1177 29.5113 25.9411 29.3573 25.6937 29.273L25.3711 30.2195ZM25.4469 30.2766L24.6599 30.8935L24.8493 31.1353L25.6364 30.5184L26.4235 29.9016L26.234 29.6598L25.4469 30.2766ZM25.6364 30.5184L24.8493 31.1353L25.0388 31.377L25.8259 30.7602L26.613 30.1433L26.4235 29.9016L25.6364 30.5184ZM25.8259 30.7602L25.0388 31.377C25.1656 31.5387 25.3753 31.7092 25.673 31.7673C25.9567 31.8226 26.193 31.7508 26.3381 31.6828L25.9138 30.7773L25.4894 29.8718C25.5983 29.8208 25.8017 29.7547 26.0561 29.8043C26.3246 29.8567 26.5085 30.01 26.613 30.1433L25.8259 30.7602ZM25.9138 30.7773L26.3381 31.6828L26.6466 31.5382L26.2223 30.6327L25.7979 29.7273L25.4894 29.8718L25.9138 30.7773ZM26.2223 30.6327L26.6466 31.5382L26.9551 31.3936L26.5308 30.4882L26.1064 29.5827L25.7979 29.7273L26.2223 30.6327ZM26.5308 30.4882L26.9552 31.3936C26.8343 31.4503 26.6183 31.5157 26.3553 31.4549C26.0865 31.3928 25.9135 31.2327 25.8216 31.1109L26.62 30.5088L27.4184 29.9066C27.3033 29.7541 27.1039 29.5752 26.8053 29.5062C26.5125 29.4386 26.2635 29.509 26.1064 29.5827L26.5308 30.4882ZM26.62 30.5088L25.8216 31.1109L26.0187 31.3722L26.8171 30.7701L27.6155 30.168L27.4184 29.9066L26.62 30.5088ZM26.8171 30.7701L26.0187 31.3723L26.2158 31.6336L27.0142 31.0315L27.8126 30.4293L27.6155 30.168L26.8171 30.7701ZM27.0142 31.0315L26.2158 31.6336C26.3627 31.8284 26.6263 32.045 27.0094 32.0779L27.0948 31.0815L27.1802 30.0852C27.5022 30.1128 27.7121 30.2961 27.8126 30.4294L27.0142 31.0315ZM27.0948 31.0815L27.0094 32.0779L27.2687 32.1001L27.3541 31.1037L27.4395 30.1074L27.1802 30.0852L27.0948 31.0815ZM27.3541 31.1037L27.2687 32.1001L27.528 32.1223L27.6134 31.126L27.6988 30.1296L27.4395 30.1074L27.3541 31.1037ZM27.6134 31.126L27.528 32.1223C27.7819 32.1441 28.0002 32.0785 28.1634 31.9953L27.7091 31.1045L27.2548 30.2136C27.3514 30.1643 27.506 30.1131 27.6988 30.1296L27.6134 31.126ZM27.7091 31.1045L28.1634 31.9953L28.4461 31.8511L27.9918 30.9603L27.5375 30.0694L27.2548 30.2136L27.7091 31.1045ZM27.9918 30.9603L28.4461 31.8511L28.7288 31.7069L28.2745 30.8161L27.8202 29.9253L27.5375 30.0694L27.9918 30.9603ZM28.2745 30.8161L28.7288 31.7069C28.6257 31.7595 28.4449 31.8204 28.2181 31.786L28.3681 30.7973L28.5182 29.8086C28.2331 29.7653 27.9898 29.8387 27.8202 29.9253L28.2745 30.8161ZM28.3681 30.7973L28.2181 31.786L28.4658 31.8236L28.6159 30.8349L28.7659 29.8462L28.5182 29.8086L28.3681 30.7973ZM28.6159 30.8349L28.4658 31.8236L28.7136 31.8612L28.8636 30.8725L29.0137 29.8838L28.7659 29.8462L28.6159 30.8349ZM28.8636 30.8725L28.7136 31.8612C28.5133 31.8308 28.372 31.7391 28.2918 31.6692L28.9489 30.9154L29.606 30.1616C29.4704 30.0434 29.2723 29.9231 29.0137 29.8838L28.8636 30.8725ZM28.9489 30.9154L28.2918 31.6692L28.5275 31.8746L29.1846 31.1208L29.8417 30.367L29.606 30.1616L28.9489 30.9154ZM29.1846 31.1208L28.5275 31.8746L28.7632 32.08L29.4203 31.3262L30.0773 30.5724L29.8417 30.367L29.1846 31.1208ZM29.4203 31.3262L28.7632 32.08C28.9807 32.2696 29.3212 32.415 29.7163 32.3307L29.5077 31.3527L29.2991 30.3747C29.4445 30.3437 29.6011 30.348 29.7526 30.3939C29.8987 30.4381 30.0063 30.5105 30.0773 30.5724L29.4203 31.3262ZM29.5077 31.3527L29.7163 32.3307L29.9761 32.2753L29.7675 31.2973L29.5589 30.3193L29.299 30.3747L29.5077 31.3527ZM29.7675 31.2973L29.9761 32.2753L30.236 32.2198L30.0273 31.2418L29.8187 30.2638L29.5589 30.3193L29.7675 31.2973ZM30.0273 31.2418L30.236 32.2198C30.2029 32.2269 30.1655 32.2315 30.1248 32.2317L30.1181 31.2318L30.1115 30.2318C30.0108 30.2324 29.9128 30.2438 29.8187 30.2638L30.0273 31.2418ZM30.1181 31.2318L30.1248 32.2317L30.3796 32.23L30.373 31.2301L30.3663 30.2301L30.1115 30.2318L30.1181 31.2318ZM30.373 31.2301L30.3796 32.23L30.6345 32.2283L30.6278 31.2284L30.6212 30.2284L30.3663 30.2301L30.373 31.2301ZM30.6278 31.2284L30.6345 32.2283C30.6292 32.2284 30.6243 32.2281 30.6202 32.2277L30.7181 31.2325L30.816 30.2373C30.7515 30.231 30.6865 30.228 30.6212 30.2284L30.6278 31.2284ZM30.7181 31.2325L30.6202 32.2277L30.8767 32.253L30.9746 31.2578L31.0725 30.2626L30.816 30.2373L30.7181 31.2325ZM30.9746 31.2578L30.8766 32.253L31.1331 32.2782L31.2311 31.283L31.329 30.2878L31.0725 30.2626L30.9746 31.2578ZM31.2311 31.283L31.1331 32.2782C31.1959 32.2844 31.2589 32.2874 31.3218 32.2875L31.322 31.2875L31.3221 30.2875C31.3242 30.2875 31.3265 30.2876 31.329 30.2878L31.2311 31.283ZM31.322 31.2875L31.3218 32.2875L31.5805 32.2875L31.5807 31.2875L31.5808 30.2875L31.3221 30.2875L31.322 31.2875ZM31.5807 31.2875L31.5805 32.2875L31.8392 32.2875L31.8393 31.2875L31.8395 30.2875L31.5808 30.2875L31.5807 31.2875ZM31.8393 31.2875L31.8392 32.2875C31.8703 32.2875 31.9015 32.2875 31.933 32.2875L31.9313 31.2875L31.9297 30.2875C31.8994 30.2875 31.8693 30.2875 31.8395 30.2875L31.8393 31.2875ZM31.9313 31.2875L31.933 32.2875L32.1956 32.287L32.1939 31.287L32.1922 30.287L31.9297 30.2875L31.9313 31.2875ZM32.1939 31.287L32.1956 32.287L32.4582 32.2866L32.4565 31.2866L32.4548 30.2866L32.1922 30.287L32.1939 31.287ZM32.4565 31.2866L32.4582 32.2866C32.8007 32.286 33.0747 32.1317 33.2547 31.948L32.5405 31.2481L31.8262 30.5482C31.8854 30.4878 31.9701 30.4201 32.0839 30.3679C32.2006 30.3144 32.3274 30.2868 32.4548 30.2866L32.4565 31.2866ZM32.5405 31.2481L33.2548 31.9479L33.4681 31.7302L32.7538 31.0303L32.0396 30.3305L31.8262 30.5482L32.5405 31.2481ZM32.7538 31.0303L33.4681 31.7302L33.6815 31.5125L32.9672 30.8126L32.2529 30.1127L32.0396 30.3305L32.7538 31.0303ZM32.9672 30.8126L33.6815 31.5124C33.5596 31.6368 33.354 31.7632 33.0837 31.7721L33.0507 30.7726L33.0177 29.7732C32.6863 29.7841 32.425 29.9371 32.2529 30.1127L32.9672 30.8126ZM33.0507 30.7726L33.0838 31.7721L33.3438 31.7635L33.3108 30.7641L33.2777 29.7646L33.0177 29.7732L33.0507 30.7726ZM33.3108 30.7641L33.3438 31.7635L33.6038 31.7549L33.5708 30.7555L33.5378 29.756L33.2778 29.7646L33.3108 30.7641ZM33.5708 30.7555L33.6038 31.7549C33.8679 31.7462 34.1074 31.6472 34.2949 31.4904L33.6535 30.7232L33.012 29.956C33.1506 29.8402 33.3349 29.7627 33.5378 29.756L33.5708 30.7555ZM33.6535 30.7232L34.2949 31.4903L34.5034 31.3161L33.8619 30.5489L33.2205 29.7817L33.012 29.956L33.6535 30.7232ZM33.8619 30.5489L34.5034 31.3161L34.7118 31.1418L34.0704 30.3746L33.4289 29.6074L33.2205 29.7817L33.8619 30.5489ZM34.0704 30.3746L34.7119 31.1417C34.6176 31.2205 34.4994 31.2857 34.362 31.3214C34.2266 31.3566 34.102 31.3555 34.0014 31.3396L34.1579 30.3519L34.3143 29.3642C34.018 29.3173 33.6922 29.3873 33.4289 29.6074L34.0704 30.3746ZM34.1579 30.3519L34.0014 31.3396L34.2888 31.3851L34.4452 30.3974L34.6017 29.4097L34.3143 29.3642L34.1579 30.3519ZM34.4452 30.3974L34.2888 31.3851L34.5761 31.4306L34.7326 30.4429L34.889 29.4552L34.6017 29.4097L34.4452 30.3974ZM34.7326 30.4429L34.5762 31.4306C34.8078 31.4673 35.0778 31.4378 35.3294 31.2899L34.8225 30.4279L34.3156 29.5659C34.5149 29.4487 34.7249 29.4292 34.889 29.4552L34.7326 30.4429ZM34.8225 30.4279L35.3294 31.2899L35.5517 31.1591L35.0448 30.2971L34.5379 29.4351L34.3156 29.5659L34.8225 30.4279ZM35.0448 30.2971L35.5517 31.1591L35.774 31.0284L35.2671 30.1664L34.7602 29.3044L34.5379 29.4351L35.0448 30.2971ZM35.2671 30.1664L35.774 31.0284C35.7728 31.0291 35.771 31.0301 35.7687 31.0312L35.3471 30.1244L34.9255 29.2176C34.8689 29.244 34.8137 29.2729 34.7602 29.3044L35.2671 30.1664ZM35.3471 30.1244L35.7687 31.0312L35.9998 30.9238L35.5782 30.017L35.1566 29.1102L34.9255 29.2176L35.3471 30.1244ZM35.5782 30.017L35.9998 30.9238L36.2308 30.8163L35.8092 29.9095L35.3877 29.0028L35.1566 29.1102L35.5782 30.017ZM35.8092 29.9095L36.2308 30.8163C36.3375 30.7667 36.4352 30.7043 36.5231 30.6316L35.8855 29.8612L35.248 29.0908C35.2885 29.0573 35.3354 29.0271 35.3876 29.0028L35.8092 29.9095ZM35.8855 29.8612L36.5231 30.6316L36.7244 30.465L36.0868 29.6946L35.4493 28.9242L35.248 29.0908L35.8855 29.8612ZM36.0868 29.6946L36.7244 30.465L36.9257 30.2984L36.2881 29.528L35.6506 28.7576L35.4493 28.9242L36.0868 29.6946ZM36.2881 29.528L36.9257 30.2984C36.8723 30.3426 36.8097 30.3808 36.7399 30.409L36.3653 29.4818L35.9908 28.5546C35.8654 28.6052 35.7513 28.6742 35.6506 28.7576L36.2881 29.528ZM36.3653 29.4818L36.7399 30.409L36.9762 30.3135L36.6016 29.3863L36.2271 28.4591L35.9908 28.5546L36.3653 29.4818ZM36.6016 29.3863L36.9762 30.3135L37.2125 30.2181L36.8379 29.2909L36.4634 28.3637L36.2271 28.4591L36.6016 29.3863ZM36.8379 29.2909L37.2125 30.2181C37.2454 30.2048 37.2782 30.1912 37.311 30.1773L36.9212 29.2564L36.5313 28.3356C36.5087 28.3451 36.486 28.3545 36.4633 28.3637L36.8379 29.2909ZM36.9212 29.2564L37.311 30.1773L37.5464 30.0777L37.1566 29.1568L36.7667 28.2359L36.5313 28.3356L36.9212 29.2564ZM37.1566 29.1568L37.5464 30.0777L37.7818 29.978L37.392 29.0571L37.0021 28.1362L36.7667 28.2359L37.1566 29.1568ZM37.392 29.0571L37.7818 29.978C37.8282 29.9584 37.874 29.9373 37.9192 29.9149L37.4739 29.0195L37.0286 28.1241C37.0199 28.1284 37.0111 28.1324 37.0021 28.1363L37.392 29.0571ZM37.4739 29.0195L37.9192 29.9149L38.1477 29.8012L37.7024 28.9058L37.2571 28.0104L37.0286 28.1241L37.4739 29.0195ZM37.7024 28.9058L38.1477 29.8012L38.3763 29.6875L37.931 28.7921L37.4857 27.8968L37.2571 28.0104L37.7024 28.9058ZM37.931 28.7921L38.3763 29.6875C38.4762 29.6378 38.5686 29.5767 38.6525 29.5056L38.0061 28.7426L37.3597 27.9796C37.3972 27.9478 37.4396 27.9197 37.4857 27.8968L37.931 28.7921ZM38.0061 28.7426L38.6525 29.5056L38.8496 29.3386L38.2032 28.5756L37.5568 27.8126L37.3597 27.9796L38.0061 28.7426ZM38.2032 28.5756L38.8496 29.3386L39.0468 29.1716L38.4003 28.4086L37.7539 27.6456L37.5568 27.8126L38.2032 28.5756ZM38.4003 28.4086L39.0468 29.1716C39.0802 29.1433 39.1158 29.1119 39.1506 29.0786L38.4591 28.3561L37.7677 27.6337C37.7695 27.632 37.7694 27.6322 37.7667 27.6345C37.7642 27.6368 37.76 27.6405 37.7539 27.6456L38.4003 28.4086ZM38.4591 28.3561L39.1506 29.0786L39.2866 28.9483L38.5952 28.2259L37.9037 27.5035L37.7677 27.6337L38.4591 28.3561ZM38.5952 28.2259L39.2866 28.9483L39.4227 28.8181L38.7312 28.0957L38.0398 27.3733L37.9037 27.5035L38.5952 28.2259ZM38.7312 28.0957L39.4227 28.8181C39.4075 28.8327 39.2717 28.9694 39.0398 29.0393C38.9025 29.0807 38.6798 29.1135 38.4286 29.0257C38.1684 28.9349 38.0024 28.7585 37.9103 28.6078L38.7634 28.086L39.6164 27.5643C39.5216 27.4091 39.3522 27.2299 39.0881 27.1376C38.8328 27.0484 38.6054 27.0813 38.4627 27.1243C38.2201 27.1974 38.071 27.3434 38.0397 27.3733L38.7312 28.0957ZM38.7634 28.086L37.9102 28.6078L37.9563 28.6831L38.8094 28.1614L39.6625 27.6396L39.6165 27.5643L38.7634 28.086ZM38.8094 28.1614L37.8533 27.8686L37.8147 27.9945L38.7709 28.2873L39.727 28.5801L39.7656 28.4541L38.8094 28.1614ZM38.7709 28.2873L39.1441 29.215L39.2369 29.1777L38.8636 28.25L38.4904 27.3223L38.3976 27.3596L38.7709 28.2873ZM6.13636 15.5382L6.42407 16.4959L6.51984 16.4672L6.23214 15.5094L5.94443 14.5517L5.84866 14.5805L6.13636 15.5382ZM6.23214 15.5094L6.5921 16.4424L6.9944 16.2872L6.63444 15.3542L6.27448 14.4213L5.87217 14.5765L6.23214 15.5094ZM6.63444 15.3542L6.9944 16.2872C7.08632 16.2517 7.23873 16.185 7.3843 16.0625L6.74054 15.2973L6.09678 14.5321C6.15133 14.4862 6.19821 14.4588 6.22369 14.4451C6.25054 14.4307 6.26906 14.4233 6.27448 14.4213L6.63444 15.3542ZM6.74054 15.2973L7.3843 16.0625L7.58323 15.8952L6.93947 15.1299L6.29571 14.3647L6.09677 14.5321L6.74054 15.2973ZM6.93947 15.1299L7.58323 15.8952L7.78216 15.7278L7.1384 14.9626L6.49464 14.1974L6.29571 14.3647L6.93947 15.1299ZM7.1384 14.9626L7.78217 15.7278C7.8257 15.6912 7.86747 15.6531 7.90753 15.6139L7.20768 14.8996L6.50784 14.1853C6.50233 14.1907 6.49791 14.1946 6.49464 14.1974L7.1384 14.9626ZM7.20768 14.8996L7.90753 15.6139L8.10118 15.4241L7.40133 14.7098L6.70149 13.9955L6.50784 14.1853L7.20768 14.8996ZM7.40133 14.7098L8.10118 15.4241L8.29483 15.2344L7.59498 14.5201L6.89514 13.8058L6.70149 13.9955L7.40133 14.7098ZM7.59498 14.5201L8.29483 15.2344C8.24241 15.2858 8.17723 15.3332 8.10036 15.3698L7.67042 14.467L7.24048 13.5641C7.10859 13.6269 6.99312 13.7098 6.89514 13.8058L7.59498 14.5201ZM7.67042 14.467L8.10036 15.3698L8.33417 15.2585L7.90423 14.3556L7.47429 13.4528L7.24048 13.5641L7.67042 14.467ZM7.90423 14.3556L8.33417 15.2585L8.56799 15.1471L8.13805 14.2443L7.7081 13.3414L7.47429 13.4528L7.90423 14.3556ZM8.13805 14.2443L8.56799 15.1471C8.58822 15.1375 8.6086 15.1281 8.62915 15.1189L8.22111 14.206L7.81308 13.293C7.77788 13.3087 7.74289 13.3249 7.7081 13.3414L8.13805 14.2443ZM8.22111 14.206L8.62915 15.1189L8.86605 15.013L8.45802 14.1001L8.04999 13.1871L7.81308 13.293L8.22111 14.206ZM8.45802 14.1001L8.86605 15.013L9.10296 14.9072L8.69493 13.9942L8.28689 13.0812L8.04999 13.1871L8.45802 14.1001ZM8.69493 13.9942L9.10296 14.9072C9.09988 14.9085 9.09666 14.9098 9.09342 14.9109L8.78021 13.9612L8.46699 13.0115C8.40579 13.0317 8.34572 13.0549 8.28689 13.0812L8.69493 13.9942ZM8.78021 13.9612L9.09342 14.9109L9.33975 14.8296L9.02654 13.8799L8.71332 12.9302L8.46699 13.0115L8.78021 13.9612ZM9.02654 13.8799L9.33975 14.8296L9.58608 14.7484L9.27287 13.7987L8.95965 12.849L8.71332 12.9302L9.02654 13.8799ZM9.27287 13.7987L9.58608 14.7484C9.29627 14.844 9.05477 14.768 8.93882 14.7124L9.37147 13.8108L9.80412 12.9092C9.61466 12.8183 9.30742 12.7343 8.95965 12.849L9.27287 13.7987ZM9.37147 13.8108L8.93882 14.7124L9.25122 14.8623L9.68387 13.9607L10.1165 13.0592L9.80412 12.9092L9.37147 13.8108ZM9.68387 13.9607L9.25122 14.8623L9.56363 15.0122L9.99628 14.1106L10.4289 13.2091L10.1165 13.0592L9.68387 13.9607ZM9.99628 14.1106L9.56363 15.0122C9.82924 15.1397 10.2831 15.2152 10.6924 14.9061L10.0898 14.1081L9.48715 13.3101C9.63559 13.198 9.8215 13.129 10.0203 13.1236C10.2047 13.1186 10.3466 13.1696 10.4289 13.2091L9.99628 14.1106ZM10.0898 14.1081L10.6924 14.9061L10.9098 14.742L10.3072 13.9439L9.70456 13.1459L9.48714 13.3101L10.0898 14.1081ZM10.3072 13.9439L10.9098 14.742L11.1273 14.5778L10.5246 13.7798L9.92199 12.9817L9.70457 13.1459L10.3072 13.9439ZM10.5246 13.7798L11.1273 14.5778C11.0775 14.6153 11.0163 14.6504 10.9446 14.6762L10.6056 13.7354L10.2666 12.7946C10.1381 12.841 10.0229 12.9055 9.92199 12.9817L10.5246 13.7798ZM10.6056 13.7354L10.9446 14.6762L11.1862 14.5892L10.8472 13.6484L10.5082 12.7076L10.2666 12.7946L10.6056 13.7354ZM10.8472 13.6484L11.1862 14.5892L11.4278 14.5021L11.0888 13.5613L10.7498 12.6205L10.5082 12.7076L10.8472 13.6484ZM11.0888 13.5613L11.4278 14.5021C11.3958 14.5136 11.3621 14.5223 11.3276 14.5276L11.176 13.5391L11.0244 12.5507C10.9305 12.5651 10.8387 12.5885 10.7498 12.6205L11.0888 13.5613ZM11.176 13.5391L11.3276 14.5276L11.5801 14.4888L11.4284 13.5004L11.2768 12.512L11.0244 12.5507L11.176 13.5391ZM11.4284 13.5004L11.5801 14.4888L11.8325 14.4501L11.6809 13.4617L11.5293 12.4732L11.2768 12.512L11.4284 13.5004ZM11.6809 13.4617L11.8325 14.4501C11.9571 14.431 12.0745 14.3947 12.1829 14.3453L11.7683 13.4353L11.3537 12.5253C11.4049 12.502 11.464 12.4832 11.5293 12.4732L11.6809 13.4617ZM11.7683 13.4353L12.1829 14.3453L12.426 14.2346L12.0114 13.3246L11.5968 12.4146L11.3537 12.5253L11.7683 13.4353ZM12.0114 13.3246L12.426 14.2346L12.669 14.1238L12.2545 13.2138L11.8399 12.3038L11.5968 12.4146L12.0114 13.3246ZM12.2545 13.2138L12.669 14.1238C12.5527 14.1768 12.4192 14.2072 12.278 14.2043C12.1397 14.2015 12.023 14.1674 11.9349 14.1277L12.3449 13.2157L12.755 12.3036C12.4923 12.1855 12.1601 12.1579 11.8399 12.3038L12.2545 13.2138ZM12.3449 13.2157L11.9349 14.1277L12.2045 14.249L12.6146 13.3369L13.0247 12.4249L12.755 12.3036L12.3449 13.2157ZM12.6146 13.3369L12.2045 14.249L12.4742 14.3702L12.8842 13.4582L13.2943 12.5461L13.0247 12.4249L12.6146 13.3369ZM12.8842 13.4582L12.4742 14.3702C12.7931 14.5136 13.1704 14.5033 13.4911 14.3101L12.9751 13.4535L12.4591 12.5969C12.5697 12.5303 12.7129 12.4776 12.8795 12.469C13.0447 12.4605 13.1869 12.4978 13.2943 12.5461L12.8842 13.4582ZM12.9751 13.4535L13.4911 14.3101L13.7362 14.1624L13.2202 13.3059L12.7042 12.4493L12.4591 12.5969L12.9751 13.4535ZM13.2202 13.3059L13.7362 14.1624L13.9813 14.0148L13.4653 13.1582L12.9493 12.3016L12.7042 12.4493L13.2202 13.3059ZM13.4653 13.1582L13.9813 14.0148C13.8462 14.0962 13.6625 14.1522 13.4557 14.1318L13.554 13.1367L13.6522 12.1415C13.3849 12.1151 13.142 12.1855 12.9493 12.3016L13.4653 13.1582ZM13.554 13.1367L13.4557 14.1318L13.7132 14.1572L13.8115 13.1621L13.9097 12.1669L13.6522 12.1415L13.554 13.1367ZM13.8115 13.1621L13.7132 14.1572L13.9707 14.1827L14.069 13.1875L14.1672 12.1923L13.9097 12.1669L13.8115 13.1621ZM14.069 13.1875L13.9707 14.1827C13.9764 14.1832 13.9821 14.184 13.9877 14.185L14.1594 13.1998L14.331 12.2147C14.2767 12.2052 14.2221 12.1978 14.1672 12.1923L14.069 13.1875ZM14.1594 13.1998L13.9877 14.185L14.2426 14.2294L14.4143 13.2442L14.5859 12.2591L14.331 12.2147L14.1594 13.1998ZM14.4143 13.2442L14.2426 14.2294L14.4975 14.2738L14.6692 13.2886L14.8408 12.3035L14.5859 12.2591L14.4143 13.2442ZM14.6692 13.2886L14.4975 14.2738C14.6388 14.2984 14.7817 14.2988 14.9216 14.2758L14.7596 13.289L14.5976 12.3022C14.6769 12.2892 14.7595 12.2893 14.8408 12.3035L14.6692 13.2886ZM14.7596 13.289L14.9216 14.2758L15.179 14.2335L15.017 13.2467L14.855 12.26L14.5976 12.3022L14.7596 13.289ZM15.017 13.2467L15.179 14.2335L15.4365 14.1913L15.2744 13.2045L15.1124 12.2177L14.855 12.26L15.017 13.2467ZM15.2744 13.2045L15.4365 14.1913C15.3206 14.2103 15.1992 14.2064 15.0805 14.1773C14.9638 14.1486 14.8693 14.1003 14.798 14.0516L15.3624 13.2261L15.9268 12.4006C15.7135 12.2548 15.4276 12.1659 15.1124 12.2177L15.2744 13.2045ZM15.3624 13.2261L14.7979 14.0516L15.0389 14.2163L15.6033 13.3909L16.1678 12.5654L15.9268 12.4006L15.3624 13.2261ZM15.6033 13.3909L15.0389 14.2163L15.2799 14.3811L15.8443 13.5556L16.4087 12.7302L16.1678 12.5654L15.6033 13.3909ZM15.8443 13.5556L15.2799 14.3811C15.5278 14.5506 15.8538 14.6275 16.188 14.5395L15.9332 13.5725L15.6785 12.6055C15.7981 12.5739 15.9337 12.5653 16.074 12.5919C16.2123 12.6181 16.3247 12.6727 16.4088 12.7302L15.8443 13.5556ZM15.9332 13.5725L16.188 14.5395L16.4509 14.4702L16.1961 13.5032L15.9414 12.5362L15.6785 12.6055L15.9332 13.5725ZM16.1961 13.5032L16.4509 14.4702L16.7138 14.4009L16.459 13.4339L16.2043 12.4669L15.9414 12.5362L16.1961 13.5032ZM16.459 13.4339L16.7138 14.4009C16.5748 14.4376 16.4132 14.4402 16.2522 14.3902L16.5487 13.4351L16.8451 12.4801C16.6265 12.4122 16.4052 12.414 16.2043 12.4669L16.459 13.4339ZM16.5487 13.4351L16.2522 14.3902L16.4973 14.4663L16.7938 13.5112L17.0902 12.5562L16.8451 12.4801L16.5487 13.4351ZM16.7938 13.5112L16.4973 14.4663L16.7424 14.5423L17.0388 13.5873L17.3353 12.6322L17.0902 12.5562L16.7938 13.5112ZM17.0388 13.5873L16.7424 14.5423C16.7563 14.5467 16.7701 14.5513 16.7836 14.5562L17.1245 13.6161L17.4654 12.676C17.4223 12.6604 17.379 12.6458 17.3353 12.6322L17.0388 13.5873ZM17.1245 13.6161L16.7836 14.5562L17.0238 14.6433L17.3647 13.7032L17.7056 12.7631L17.4654 12.676L17.1245 13.6161ZM17.3647 13.7032L17.0238 14.6433L17.2639 14.7304L17.6048 13.7903L17.9457 12.8502L17.7056 12.7631L17.3647 13.7032ZM17.6048 13.7903L17.2639 14.7304C17.404 14.7812 17.5495 14.8058 17.6948 14.8056L17.6931 13.8056L17.6914 12.8056C17.7755 12.8054 17.8622 12.8199 17.9458 12.8502L17.6048 13.7903ZM17.6931 13.8056L17.6948 14.8056L17.9549 14.8051L17.9532 13.8051L17.9515 12.8051L17.6914 12.8056L17.6931 13.8056ZM17.9532 13.8051L17.9549 14.8051L18.215 14.8047L18.2133 13.8047L18.2116 12.8047L17.9515 12.8051L17.9532 13.8051ZM18.2133 13.8047L18.215 14.8047C18.1783 14.8048 18.1397 14.8011 18.1005 14.793L18.3033 13.8137L18.506 12.8345C18.4081 12.8142 18.3095 12.8045 18.2116 12.8047L18.2133 13.8047ZM18.3033 13.8137L18.1005 14.793L18.3502 14.8447L18.553 13.8654L18.7557 12.8862L18.506 12.8345L18.3033 13.8137ZM18.553 13.8654L18.3502 14.8447L18.5999 14.8964L18.8027 13.9171L19.0054 12.9379L18.7557 12.8862L18.553 13.8654ZM18.8027 13.9171L18.5999 14.8964C18.493 14.8742 18.3967 14.8309 18.3163 14.7753L18.8852 13.9528L19.4541 13.1304C19.3225 13.0394 19.1712 12.9722 19.0054 12.9379L18.8027 13.9171ZM18.8852 13.9528L18.3163 14.7753L18.534 14.9259L19.1029 14.1035L19.6718 13.281L19.4541 13.1304L18.8852 13.9528ZM19.1029 14.1035L18.534 14.9259L18.7517 15.0765L19.3206 14.2541L19.8895 13.4316L19.6718 13.281L19.1029 14.1035ZM19.3206 14.2541L18.7517 15.0765C19.0342 15.2718 19.3526 15.3039 19.6167 15.2483L19.4108 14.2697L19.205 13.2912C19.2928 13.2727 19.4058 13.2638 19.5337 13.286C19.6644 13.3088 19.7857 13.3598 19.8895 13.4316L19.3206 14.2541ZM19.4108 14.2697L19.6167 15.2483L19.9102 15.1866L19.7043 14.208L19.4985 13.2294L19.205 13.2912L19.4108 14.2697ZM19.7043 14.208L19.9102 15.1866L20.2036 15.1249L19.9978 14.1463L19.792 13.1677L19.4985 13.2294L19.7043 14.208ZM19.9978 14.1463L20.2036 15.1249C20.1101 15.1446 19.9845 15.1514 19.8443 15.1152L20.0942 14.1469L20.344 13.1786C20.1444 13.1271 19.9546 13.1335 19.792 13.1677L19.9978 14.1463ZM20.0942 14.1469L19.8443 15.1152L20.0969 15.1804L20.3468 14.2121L20.5967 13.2438L20.344 13.1786L20.0942 14.1469ZM20.3468 14.2121L20.0969 15.1804L20.3495 15.2455L20.5994 14.2773L20.8493 13.309L20.5967 13.2438L20.3468 14.2121ZM20.5994 14.2773L20.3495 15.2455C20.0709 15.1737 19.8962 14.9906 19.8091 14.8421L20.6719 14.3365L21.5347 13.8308C21.4104 13.6188 21.1873 13.3962 20.8493 13.309L20.5994 14.2773ZM20.6719 14.3365L19.8091 14.8421L19.9675 15.1123L20.8303 14.6067L21.693 14.1011L21.5347 13.8309L20.6719 14.3365ZM20.8303 14.6067L19.9675 15.1123L20.1259 15.3825L20.9886 14.8769L21.8514 14.3713L21.693 14.1011L20.8303 14.6067ZM20.9886 14.8769L20.1259 15.3825C20.2651 15.6202 20.5231 15.8571 20.9013 15.919L21.0629 14.9322L21.2244 13.9453C21.3647 13.9683 21.5006 14.0248 21.6184 14.1125C21.7323 14.1973 21.8059 14.2936 21.8514 14.3713L20.9886 14.8769ZM21.0629 14.9322L20.9013 15.919L21.1635 15.962L21.3251 14.9751L21.4867 13.9883L21.2244 13.9453L21.0629 14.9322ZM21.3251 14.9751L21.1635 15.962L21.4258 16.0049L21.5874 15.0181L21.749 14.0312L21.4867 13.9883L21.3251 14.9751ZM21.5874 15.0181L21.4258 16.0049C21.4384 16.007 21.4511 16.0094 21.4639 16.0123L21.6798 15.0358L21.8956 14.0594C21.847 14.0487 21.7981 14.0393 21.749 14.0312L21.5874 15.0181ZM21.6798 15.0358L21.4639 16.0123L21.7252 16.07L21.941 15.0936L22.1569 14.1172L21.8956 14.0594L21.6798 15.0358ZM21.941 15.0936L21.7252 16.07L21.9865 16.1278L22.2023 15.1513L22.4182 14.1749L22.1569 14.1172L21.941 15.0936ZM22.2023 15.1513L21.9865 16.1278C21.9218 16.1135 21.8538 16.0884 21.7875 16.0501L22.2876 15.1841L22.7876 14.3181C22.6691 14.2497 22.5442 14.2028 22.4182 14.1749L22.2023 15.1513ZM22.2876 15.1841L21.7875 16.0501L22.0094 16.1782L22.5094 15.3122L23.0095 14.4462L22.7876 14.3181L22.2876 15.1841ZM22.5094 15.3122L22.0094 16.1782L22.2312 16.3063L22.7313 15.4403L23.2313 14.5743L23.0095 14.4462L22.5094 15.3122ZM22.7313 15.4403L22.2312 16.3063C22.2115 16.2949 22.1925 16.2819 22.1746 16.2674L22.8055 15.4914L23.4363 14.7155C23.3717 14.663 23.3033 14.6159 23.2313 14.5743L22.7313 15.4403ZM22.8055 15.4914L22.1746 16.2674L22.3732 16.4288L23.004 15.6529L23.6349 14.877L23.4363 14.7155L22.8055 15.4914ZM23.004 15.6529L22.3732 16.4288L22.5718 16.5903L23.2026 15.8143L23.8334 15.0384L23.6349 14.877L23.004 15.6529ZM23.2026 15.8143L22.5718 16.5903C22.5836 16.5999 22.5958 16.6102 22.6084 16.6214L23.2723 15.8736L23.9363 15.1258C23.9026 15.0959 23.8684 15.0668 23.8335 15.0384L23.2026 15.8143ZM23.2723 15.8736L22.6084 16.6214L22.8047 16.7957L23.4687 16.0479L24.1326 15.3002L23.9363 15.1258L23.2723 15.8736ZM23.4687 16.0479L22.8047 16.7957L23.001 16.97L23.665 16.2223L24.329 15.4745L24.1326 15.3002L23.4687 16.0479ZM23.665 16.2223L23.001 16.97C23.0418 17.0063 23.0839 17.041 23.1271 17.0742L23.7365 16.2813L24.3458 15.4884C24.34 15.4839 24.3344 15.4793 24.329 15.4745L23.665 16.2223ZM23.7365 16.2813L23.1271 17.0742L23.3356 17.2345L23.945 16.4416L24.5543 15.6487L24.3458 15.4884L23.7365 16.2813ZM23.945 16.4416L23.3356 17.2345L23.5442 17.3947L24.1535 16.6018L24.7629 15.8089L24.5543 15.6487L23.945 16.4416ZM24.1535 16.6018L23.5442 17.3947C23.7242 17.5331 23.9352 17.6119 24.1522 17.6305L24.2377 16.6342L24.3232 15.6378C24.4771 15.651 24.6319 15.7083 24.7629 15.8089L24.1535 16.6018ZM24.2377 16.6342L24.1522 17.6305L24.4208 17.6536L24.5063 16.6572L24.5918 15.6609L24.3232 15.6378L24.2377 16.6342ZM24.5063 16.6572L24.4208 17.6536L24.6894 17.6766L24.7749 16.6803L24.8604 15.6839L24.5918 15.6609L24.5063 16.6572ZM24.7749 16.6803L24.6894 17.6766C24.5483 17.6645 24.407 17.615 24.2848 17.5289L24.8604 16.7112L25.436 15.8935C25.2629 15.7716 25.0646 15.7015 24.8604 15.6839L24.7749 16.6803ZM24.8604 16.7112L24.2848 17.5289L24.5009 17.6811L25.0765 16.8633L25.6522 16.0456L25.436 15.8935L24.8604 16.7112ZM25.0765 16.8633L24.5009 17.6811L24.717 17.8332L25.2927 17.0155L25.8683 16.1978L25.6522 16.0456L25.0765 16.8633ZM25.2927 17.0155L24.717 17.8332C24.967 18.0092 25.2561 18.0626 25.5195 18.0257L25.3806 17.0354L25.2416 16.0451C25.331 16.0325 25.4381 16.0322 25.5542 16.0585C25.6716 16.085 25.7779 16.1341 25.8683 16.1978L25.2927 17.0155ZM25.3806 17.0354L25.5195 18.0257L25.8015 17.9861L25.6626 16.9958L25.5236 16.0055L25.2416 16.0451L25.3806 17.0354ZM25.6626 16.9958L25.8015 17.9861L26.0835 17.9465L25.9446 16.9562L25.8056 15.9659L25.5236 16.0055L25.6626 16.9958ZM25.9446 16.9562L26.0835 17.9465C26.0327 17.9537 25.9667 17.9563 25.8904 17.9448L26.0387 16.9559L26.1869 15.9669C26.0515 15.9466 25.9227 15.9495 25.8056 15.9659L25.9446 16.9562ZM26.0387 16.9559L25.8904 17.9448L26.1417 17.9825L26.2899 16.9936L26.4381 16.0046L26.1869 15.9669L26.0387 16.9559ZM26.2899 16.9936L26.1417 17.9825L26.393 18.0202L26.5412 17.0312L26.6894 16.0423L26.4381 16.0046L26.2899 16.9936ZM26.5412 17.0312L26.393 18.0202C26.0593 17.9702 25.8684 17.7625 25.7911 17.6483L26.6194 17.0879L27.4477 16.5276C27.3252 16.3466 27.0822 16.1011 26.6894 16.0423L26.5412 17.0312ZM26.6194 17.0879L25.7911 17.6482L25.9831 17.9319L26.8113 17.3716L27.6396 16.8113L27.4477 16.5276L26.6194 17.0879ZM26.8113 17.3716L25.9831 17.9319L26.175 18.2156L27.0032 17.6553L27.8315 17.0949L27.6396 16.8113L26.8113 17.3716ZM27.0032 17.6553L26.175 18.2156C26.2998 18.4002 26.5384 18.6355 26.9166 18.6991L27.0823 17.7129L27.248 16.7268C27.5659 16.7802 27.7518 16.9771 27.8315 17.095L27.0032 17.6553ZM27.0823 17.7129L26.9166 18.6991L27.1728 18.7422L27.3385 17.756L27.5042 16.7698L27.248 16.7268L27.0823 17.7129ZM27.3385 17.756L27.1728 18.7422L27.429 18.7852L27.5947 17.799L27.7604 16.8129L27.5042 16.7698L27.3385 17.756ZM27.5947 17.799L27.429 18.7852C27.525 18.8013 27.6213 18.8077 27.7171 18.8047L27.6864 17.8052L27.6557 16.8057C27.6895 16.8046 27.7247 16.8069 27.7604 16.8129L27.5947 17.799ZM27.6864 17.8052L27.7171 18.8047L27.9807 18.7966L27.95 17.7971L27.9193 16.7976L27.6557 16.8057L27.6864 17.8052ZM27.95 17.7971L27.9807 18.7966L28.2442 18.7886L28.2135 17.789L28.1828 16.7895L27.9193 16.7976L27.95 17.7971ZM28.2135 17.789L28.2442 18.7886C28.3343 18.7858 28.4227 18.7751 28.5087 18.7573L28.3068 17.7779L28.1049 16.7985C28.1286 16.7937 28.1547 16.7904 28.1828 16.7895L28.2135 17.789ZM28.3068 17.7779L28.5087 18.7573L28.774 18.7027L28.572 17.7233L28.3701 16.7439L28.1049 16.7985L28.3068 17.7779ZM28.572 17.7233L28.774 18.7027L29.0392 18.648L28.8373 17.6686L28.6353 16.6892L28.3701 16.7439L28.572 17.7233ZM28.8373 17.6686L29.0392 18.648C28.8839 18.68 28.7162 18.6677 28.5609 18.6064L28.9277 17.6761L29.2945 16.7458C29.081 16.6617 28.853 16.6443 28.6353 16.6892L28.8373 17.6686ZM28.9277 17.6761L28.5609 18.6064L28.8081 18.7039L29.1749 17.7736L29.5417 16.8433L29.2945 16.7458L28.9277 17.6761ZM29.1749 17.7736L28.8081 18.7039L29.0553 18.8014L29.4221 17.8711L29.7889 16.9408L29.5417 16.8433L29.1749 17.7736ZM29.4221 17.8711L29.0553 18.8014C29.3986 18.9367 29.7398 18.8788 29.9941 18.7389L29.512 17.8628L29.0299 16.9867C29.1147 16.94 29.2313 16.895 29.3747 16.8818C29.5216 16.8683 29.6636 16.8914 29.7889 16.9408L29.4221 17.8711ZM29.512 17.8628L29.9941 18.7389L30.2565 18.5945L29.7744 17.7184L29.2923 16.8423L29.0299 16.9867L29.512 17.8628ZM29.7744 17.7184L30.2565 18.5945L30.5189 18.4501L30.0368 17.574L29.5548 16.6979L29.2923 16.8423L29.7744 17.7184ZM30.0368 17.574L30.5189 18.4501C30.4211 18.5039 30.2864 18.553 30.1227 18.5596C29.9561 18.5662 29.8059 18.527 29.6844 18.4669L30.1274 17.5704L30.5703 16.6738C30.2238 16.5026 29.8479 16.5366 29.5547 16.6979L30.0368 17.574ZM30.1274 17.5704L29.6844 18.4669L29.935 18.5907L30.378 17.6942L30.8209 16.7976L30.5703 16.6738L30.1274 17.5704ZM30.378 17.6942L29.935 18.5907L30.1856 18.7146L30.6286 17.818L31.0715 16.9214L30.8209 16.7976L30.378 17.6942ZM30.6286 17.818L30.1856 18.7145C30.5102 18.8749 30.8875 18.8655 31.2038 18.6887L30.7158 17.8158L30.2279 16.9429C30.3366 16.8821 30.4795 16.8329 30.6472 16.8287C30.8149 16.8244 30.96 16.8664 31.0715 16.9215L30.6286 17.818ZM30.7158 17.8158L31.2038 18.6887L31.4477 18.5523L30.9597 17.6795L30.4717 16.8066L30.2279 16.9429L30.7158 17.8158ZM30.9597 17.6795L31.4477 18.5523L31.6915 18.416L31.2036 17.5431L30.7156 16.6703L30.4717 16.8066L30.9597 17.6795ZM31.2036 17.5431L31.6915 18.416C31.598 18.4683 31.4817 18.5103 31.3479 18.5238C31.2138 18.5373 31.0902 18.5194 30.9855 18.4856L31.2931 17.5341L31.6006 16.5826C31.3023 16.4861 30.9844 16.52 30.7156 16.6703L31.2036 17.5431ZM31.2931 17.5341L30.9855 18.4856L31.2489 18.5707L31.5564 17.6192L31.864 16.6677L31.6006 16.5826L31.2931 17.5341ZM31.5564 17.6192L31.2489 18.5707L31.5123 18.6559L31.8198 17.7043L32.1274 16.7528L31.864 16.6677L31.5564 17.6192ZM31.8198 17.7043L31.5123 18.6559C31.8384 18.7613 32.1901 18.7101 32.4728 18.5159L31.9065 17.6917L31.3403 16.8675C31.4385 16.8 31.567 16.7415 31.7206 16.7191C31.8743 16.6968 32.0141 16.7162 32.1274 16.7528L31.8198 17.7043ZM31.9065 17.6917L32.4728 18.5159L32.7009 18.3592L32.1346 17.535L31.5683 16.7108L31.3403 16.8675L31.9065 17.6917ZM32.1346 17.535L32.7008 18.3593L32.9289 18.2026L32.3626 17.3784L31.7963 16.5541L31.5683 16.7108L32.1346 17.535ZM32.3626 17.3784L32.9289 18.2026C32.8217 18.2762 32.6866 18.334 32.5311 18.3537C32.3779 18.3732 32.2434 18.3509 32.1402 18.317L32.4523 17.367L32.7645 16.4169C32.4581 16.3163 32.0996 16.3458 31.7963 16.5542L32.3626 17.3784ZM32.4523 17.367L32.1402 18.317L32.4206 18.4091L32.7327 17.4591L33.0449 16.5091L32.7645 16.4169L32.4523 17.367ZM32.7327 17.4591L32.4206 18.4091L32.701 18.5013L33.0131 17.5512L33.3253 16.6012L33.0449 16.5091L32.7327 17.4591ZM33.0131 17.5512L32.701 18.5013C32.86 18.5535 33.0625 18.5798 33.2835 18.529C33.5052 18.478 33.6772 18.3652 33.799 18.246L33.0995 17.5314L32.4001 16.8167C32.4973 16.7216 32.6426 16.6241 32.8354 16.5798C33.0277 16.5356 33.1993 16.5598 33.3253 16.6012L33.0131 17.5512ZM33.0995 17.5314L33.799 18.246L34.0081 18.0414L33.3086 17.3267L32.6092 16.612L32.4001 16.8167L33.0995 17.5314ZM33.3086 17.3267L34.0081 18.0414L34.2172 17.8367L33.5178 17.122L32.8183 16.4074L32.6092 16.612L33.3086 17.3267ZM33.5178 17.122L34.2172 17.8367C34.0948 17.9565 33.914 18.0637 33.6861 18.0929C33.4704 18.1206 33.2979 18.0675 33.1957 18.0211L33.6086 17.1104L34.0216 16.1996C33.8833 16.137 33.6777 16.0777 33.4317 16.1092C33.1736 16.1423 32.9653 16.2635 32.8183 16.4074L33.5178 17.122ZM33.6086 17.1104L33.1957 18.0211L33.5014 18.1598L33.9144 17.249L34.3273 16.3383L34.0216 16.1996L33.6086 17.1104ZM33.9144 17.249L33.5014 18.1598L33.8072 18.2984L34.2202 17.3877L34.6331 16.4769L34.3273 16.3383L33.9144 17.249ZM34.2202 17.3877L33.8072 18.2984C34.0186 18.3943 34.3539 18.4671 34.7127 18.312L34.316 17.3941L33.9193 16.4761C34.2223 16.3452 34.4937 16.4137 34.6331 16.4769L34.2202 17.3877ZM34.316 17.3941L34.7127 18.312L34.9498 18.2095L34.5531 17.2916L34.1565 16.3736L33.9193 16.4761L34.316 17.3941ZM34.5531 17.2916L34.9498 18.2095L35.187 18.1071L34.7903 17.1891L34.3936 16.2711L34.1565 16.3736L34.5531 17.2916ZM34.7903 17.1891L35.187 18.107C35.3297 18.0454 35.4514 17.9612 35.5523 17.8666L34.8683 17.1371L34.1843 16.4076C34.237 16.3582 34.3067 16.3087 34.3936 16.2711L34.7903 17.1891ZM34.8683 17.1371L35.5523 17.8666L35.7573 17.6744L35.0733 16.9449L34.3893 16.2154L34.1843 16.4076L34.8683 17.1371ZM35.0733 16.9449L35.7573 17.6744L35.9623 17.4822L35.2783 16.7527L34.5943 16.0232L34.3893 16.2154L35.0733 16.9449ZM35.2783 16.7527L35.9623 17.4822C35.8684 17.5702 35.7428 17.649 35.5887 17.6923C35.4363 17.7351 35.2959 17.7321 35.185 17.7117L35.3656 16.7282L35.5462 15.7446C35.2177 15.6843 34.8628 15.7714 34.5943 16.0232L35.2783 16.7527ZM35.3656 16.7282L35.185 17.7117L35.4748 17.7649L35.6554 16.7814L35.8359 15.7978L35.5462 15.7446L35.3656 16.7282ZM35.6554 16.7814L35.4748 17.7649L35.7646 17.8181L35.9452 16.8346L36.1257 15.851L35.8359 15.7978L35.6554 16.7814ZM35.9452 16.8346L35.7646 17.8181C35.9588 17.8538 36.1882 17.8464 36.419 17.7514L36.0382 16.8267L35.6574 15.9021C35.8323 15.83 35.9997 15.8279 36.1257 15.851L35.9452 16.8346ZM36.0382 16.8267L36.419 17.7514L36.6562 17.6537L36.2753 16.729L35.8945 15.8044L35.6573 15.9021L36.0382 16.8267ZM36.2753 16.729L36.6562 17.6537L36.8933 17.556L36.5125 16.6313L36.1317 15.7067L35.8945 15.8044L36.2753 16.729ZM36.5125 16.6313L36.8933 17.556C37.0391 17.496 37.1644 17.412 37.2689 17.3153L36.5901 16.5811L35.9112 15.8468C35.9681 15.7942 36.0417 15.7437 36.1317 15.7067L36.5125 16.6313ZM36.5901 16.5811L37.269 17.3153L37.4714 17.1282L36.7925 16.3939L36.1136 15.6597L35.9112 15.8468L36.5901 16.5811ZM36.7925 16.3939L37.4714 17.1282L37.6738 16.941L36.9949 16.2068L36.3161 15.4725L36.1136 15.6597L36.7925 16.3939ZM36.9949 16.2068L37.6738 16.941C37.5967 17.0123 37.498 17.0773 37.379 17.1211C37.2601 17.1648 37.1436 17.1789 37.0404 17.1749L37.0796 16.1756L37.1187 15.1764C36.823 15.1648 36.536 15.2692 36.3161 15.4725L36.9949 16.2068ZM37.0796 16.1756L37.0404 17.1749L37.3176 17.1857L37.3568 16.1865L37.3959 15.1873L37.1187 15.1764L37.0796 16.1756ZM37.3568 16.1865L37.3176 17.1857L37.5948 17.1966L37.634 16.1974L37.6731 15.1981L37.3959 15.1873L37.3568 16.1865ZM37.634 16.1974L37.5948 17.1966C37.9469 17.2104 38.2622 17.0584 38.4732 16.8142L37.7163 16.1606L36.9594 15.507C37.0313 15.4238 37.134 15.3374 37.2711 15.2761C37.4095 15.2143 37.5491 15.1933 37.6731 15.1981L37.634 16.1974ZM37.7163 16.1606L38.4732 16.8141L38.6626 16.5948L37.9057 15.9412L37.1488 15.2877L36.9594 15.507L37.7163 16.1606ZM37.9057 15.9412L38.6626 16.5948L38.8519 16.3755L38.0951 15.7219L37.3382 15.0683L37.1488 15.2877L37.9057 15.9412ZM38.0951 15.7219L38.852 16.3755C38.7475 16.4964 38.5835 16.6125 38.3676 16.6553L38.1731 15.6744L37.9787 14.6935C37.7033 14.7481 37.4872 14.8958 37.3382 15.0684L38.0951 15.7219ZM38.1731 15.6744L38.3676 16.6553L38.6205 16.6051L38.4261 15.6242L38.2316 14.6433L37.9787 14.6935L38.1731 15.6744ZM38.4261 15.6242L38.6205 16.6051L38.8735 16.555L38.679 15.5741L38.4845 14.5932L38.2316 14.6433L38.4261 15.6242ZM38.679 15.5741L38.8735 16.555C38.8882 16.5521 38.8999 16.5498 38.9086 16.548C38.913 16.5472 38.9165 16.5465 38.9191 16.546C38.9205 16.5457 38.9215 16.5455 38.9223 16.5453C38.9227 16.5453 38.923 16.5452 38.9232 16.5452C38.9233 16.5451 38.9234 16.5451 38.9235 16.5451C38.9235 16.5451 38.9236 16.5451 38.9236 16.5451L38.7341 15.5632L38.5447 14.5813C38.5346 14.5833 38.5132 14.5875 38.4845 14.5932L38.679 15.5741ZM38.7341 15.5632L38.9236 16.5451L38.9831 16.5336L38.7936 15.5517L38.6042 14.5698L38.5447 14.5813L38.7341 15.5632ZM38.7936 15.5517L38.2949 14.685L38.269 14.6998L38.7678 15.5666L39.2665 16.4334L39.2924 16.4185L38.7936 15.5517ZM38.7678 15.5666L39.0517 16.5254L39.1476 16.497L38.8636 15.5382L38.5797 14.5794L38.4838 14.6078L38.7678 15.5666Z" fill="var(--stroke-0, #E91B0E)"/>
</g>
</svg>
