<svg preserveAspectRatio="none" width="100%" height="100%" overflow="visible" style="display: block;" viewBox="0 0 89 35" fill="none" xmlns="http://www.w3.org/2000/svg">
<g id="Group 1707481741">
<path id="Vector 20" d="M1.46954 29.3961L1.48186 28.3961L1.40707 28.3952L1.33297 28.4054L1.46954 29.3961ZM3.25693 29.3141L2.99002 28.3503L3.25693 29.3141ZM3.97612 29.1149L3.70921 28.1512L3.97612 29.1149ZM5.06344 28.8262L4.81199 27.8584L5.06344 28.8262ZM6.17027 28.676L6.06832 29.6708L6.17027 28.676ZM7.67785 28.728L7.50597 27.7429L7.67785 28.728ZM9.1565 28.3826L9.53734 29.3073L9.53734 29.3073L9.1565 28.3826ZM9.89249 28.0795L9.51165 27.1549L9.89249 28.0795ZM10.6398 28.039L10.3588 28.9987L10.6398 28.039ZM11.0191 28.1501L11.3001 27.1904L11.0191 28.1501ZM12.151 28.2833L11.9194 27.3105L12.151 28.2833ZM12.8975 28.1056L13.1291 29.0784L12.8975 28.1056ZM14.4021 28.3326L14.1331 29.2958L14.4021 28.3326ZM15.9007 28.0476L15.572 27.1032L15.9007 28.0476ZM16.6494 27.9786L16.4886 28.9655L16.6494 27.9786ZM17.3989 28.1007L17.2381 29.0877L17.3989 28.1007ZM18.1471 28.2841L17.8357 29.2344L18.1471 28.2841ZM18.8939 28.5289L19.2053 27.5786L18.8939 28.5289ZM20.0212 28.38L20.3597 29.321L20.0212 28.38ZM20.3982 28.2444L20.0597 27.3035L20.3982 28.2444ZM22.6455 28.3651L22.5581 27.3689L22.6455 28.3651ZM23.3975 28.299L23.31 27.3029L23.3975 28.299ZM24.1468 28.3287L24.3123 27.3425L24.1468 28.3287ZM24.8933 28.454L24.7278 29.4402L24.8933 28.454ZM27.8968 28.4143L27.8047 27.4185L27.8968 28.4143ZM28.6498 28.3551L28.7143 29.353L28.6498 28.3551ZM29.4026 28.3064L29.338 27.3085L29.4026 28.3064ZM30.1492 28.4031L29.8383 29.3536L30.1492 28.4031ZM30.8895 28.6453L31.2004 27.6948L30.8895 28.6453ZM31.6338 28.7921L31.7026 27.7945L31.6338 28.7921ZM32.3821 28.8437L32.3133 29.8413L32.3821 28.8437ZM34.6231 29.0696L34.3852 30.0409L34.6231 29.0696ZM35.3647 29.2512L35.6026 28.2799L35.3647 29.2512ZM36.1131 29.2994L36.2252 30.2931L36.1131 29.2994ZM36.4906 29.2568L36.3784 28.2631L36.4906 29.2568ZM36.8681 29.2141L36.9803 30.2078L36.8681 29.2141ZM37.6182 29.2254L37.4751 30.2151L37.6182 29.2254ZM39.118 29.2653L39.4215 30.2181L39.118 29.2653ZM39.5 29.1436L39.1966 28.1908L39.5 29.1436ZM39.8821 29.022L40.1855 29.9748L39.8821 29.022ZM40.3456 28.926L40.6463 27.9723L40.3456 28.926ZM40.4272 28.9517L41.0184 28.1452L40.8853 28.0476L40.7278 27.998L40.4272 28.9517ZM40.4904 28.9981L39.8991 29.8045L40.1407 29.9816L40.4398 29.9968L40.4904 28.9981ZM1.37048 29.4097L1.50705 30.4004L1.60612 30.3867L1.46954 29.3961L1.33297 28.4054L1.23391 28.4191L1.37048 29.4097ZM1.46954 29.3961L1.45723 30.396L2.17113 30.4048L2.18344 29.4049L2.19575 28.4049L1.48186 28.3961L1.46954 29.3961ZM2.18344 29.4049L2.17113 30.4048C2.672 30.411 3.14446 30.3829 3.52384 30.2778L3.25693 29.3141L2.99002 28.3503C2.88993 28.3781 2.64673 28.4105 2.19575 28.4049L2.18344 29.4049ZM3.25693 29.3141L3.52384 30.2778L3.88343 30.1782L3.61652 29.2145L3.34961 28.2507L2.99002 28.3503L3.25693 29.3141ZM3.61652 29.2145L3.88343 30.1782L4.24303 30.0786L3.97612 29.1149L3.70921 28.1512L3.34961 28.2507L3.61652 29.2145ZM3.97612 29.1149L4.24303 30.0786C4.47758 30.0136 4.71357 29.9503 4.95102 29.8886L4.69958 28.9208L4.44813 27.9529C4.20043 28.0172 3.95412 28.0833 3.70921 28.1512L3.97612 29.1149ZM4.69958 28.9208L4.95102 29.8886L5.31488 29.7941L5.06344 28.8262L4.81199 27.8584L4.44813 27.9529L4.69958 28.9208ZM5.06344 28.8262L5.31488 29.7941L5.67874 29.6996L5.4273 28.7317L5.17585 27.7638L4.81199 27.8584L5.06344 28.8262ZM5.4273 28.7317L5.67874 29.6996C5.80445 29.6669 5.93238 29.6569 6.06832 29.6708L6.17027 28.676L6.27223 27.6812C5.90268 27.6434 5.53529 27.6705 5.17585 27.7638L5.4273 28.7317ZM6.17027 28.676L6.06832 29.6708L6.44744 29.7097L6.54939 28.7149L6.65135 27.7201L6.27223 27.6812L6.17027 28.676ZM6.54939 28.7149L6.44744 29.7097L6.82656 29.7485L6.92851 28.7537L7.03046 27.7589L6.65135 27.7201L6.54939 28.7149ZM6.92851 28.7537L6.82656 29.7485C7.16929 29.7837 7.51124 29.7722 7.84973 29.7131L7.67785 28.728L7.50597 27.7429C7.35083 27.7699 7.19322 27.7756 7.03046 27.7589L6.92851 28.7537ZM7.67785 28.728L7.84973 29.7131L8.21995 29.6485L8.04807 28.6634L7.87619 27.6783L7.50597 27.7429L7.67785 28.728ZM8.04807 28.6634L8.21995 29.6485L8.59017 29.5839L8.41829 28.5988L8.24641 27.6137L7.87619 27.6783L8.04807 28.6634ZM8.41829 28.5988L8.59017 29.5839C8.91271 29.5276 9.22871 29.4344 9.53734 29.3073L9.1565 28.3826L8.77566 27.458C8.59364 27.533 8.41749 27.5838 8.24641 27.6137L8.41829 28.5988ZM9.1565 28.3826L9.53734 29.3073L9.90533 29.1557L9.5245 28.2311L9.14366 27.3064L8.77566 27.458L9.1565 28.3826ZM9.5245 28.2311L9.90533 29.1557L10.2733 29.0042L9.89249 28.0795L9.51165 27.1549L9.14366 27.3064L9.5245 28.2311ZM9.89249 28.0795L10.2733 29.0042C10.31 28.989 10.3258 28.989 10.3588 28.9987L10.6398 28.039L10.9208 27.0793C10.4481 26.9409 9.9656 26.9679 9.51165 27.1549L9.89249 28.0795ZM10.6398 28.039L10.3588 28.9987L10.7381 29.1098L11.0191 28.1501L11.3001 27.1904L10.9208 27.0793L10.6398 28.039ZM11.0191 28.1501L10.7381 29.1098L11.1174 29.2208L11.3984 28.2611L11.6794 27.3014L11.3001 27.1904L11.0191 28.1501ZM11.3984 28.2611L11.1174 29.2208C11.5319 29.3422 11.9594 29.3569 12.3826 29.2561L12.151 28.2833L11.9194 27.3105C11.8449 27.3282 11.7707 27.3281 11.6794 27.3014L11.3984 28.2611ZM12.151 28.2833L12.3826 29.2561L12.7559 29.1672L12.5242 28.1944L12.2926 27.2216L11.9194 27.3105L12.151 28.2833ZM12.5242 28.1944L12.7559 29.1672L13.1291 29.0784L12.8975 28.1056L12.6659 27.1328L12.2926 27.2216L12.5242 28.1944ZM12.8975 28.1056L13.1291 29.0784C13.2095 29.0592 13.2873 29.0596 13.3789 29.0851L13.6479 28.122L13.9168 27.1588C13.5056 27.044 13.0832 27.0334 12.6659 27.1328L12.8975 28.1056ZM13.6479 28.122L13.3789 29.0851L13.756 29.1905L14.025 28.2273L14.2939 27.2642L13.9168 27.1588L13.6479 28.122ZM14.025 28.2273L13.756 29.1905L14.1331 29.2958L14.4021 28.3326L14.671 27.3695L14.2939 27.2642L14.025 28.2273ZM14.4021 28.3326L14.1331 29.2958C14.5833 29.4215 15.0421 29.4053 15.4817 29.2523L15.153 28.3078L14.8243 27.3634C14.7655 27.3839 14.7237 27.3842 14.671 27.3695L14.4021 28.3326ZM15.153 28.3078L15.4817 29.2523L15.8556 29.1221L15.5269 28.1777L15.1982 27.2333L14.8243 27.3634L15.153 28.3078ZM15.5269 28.1777L15.8556 29.1221L16.2294 28.992L15.9007 28.0476L15.572 27.1032L15.1982 27.2333L15.5269 28.1777ZM15.9007 28.0476L16.2294 28.992C16.3285 28.9576 16.4099 28.9527 16.4886 28.9655L16.6494 27.9786L16.8101 26.9916C16.3891 26.923 15.9714 26.9642 15.572 27.1032L15.9007 28.0476ZM16.6494 27.9786L16.4886 28.9655L16.8633 29.0266L17.0241 28.0396L17.1849 27.0526L16.8101 26.9916L16.6494 27.9786ZM17.0241 28.0396L16.8633 29.0266L17.2381 29.0877L17.3989 28.1007L17.5597 27.1137L17.1849 27.0526L17.0241 28.0396ZM17.3989 28.1007L17.2381 29.0877C17.4352 29.1198 17.6342 29.1684 17.8357 29.2344L18.1471 28.2841L18.4586 27.3338C18.1622 27.2367 17.8624 27.163 17.5597 27.1137L17.3989 28.1007ZM18.1471 28.2841L17.8357 29.2344L18.2091 29.3568L18.5205 28.4065L18.832 27.4562L18.4586 27.3338L18.1471 28.2841ZM18.5205 28.4065L18.2091 29.3568L18.5825 29.4791L18.8939 28.5289L19.2053 27.5786L18.832 27.4562L18.5205 28.4065ZM18.8939 28.5289L18.5825 29.4791C19.0474 29.6315 19.5263 29.6208 19.9827 29.4566L19.6443 28.5156L19.3058 27.5747C19.2596 27.5913 19.2382 27.5894 19.2053 27.5786L18.8939 28.5289ZM19.6443 28.5156L19.9827 29.4566L20.3597 29.321L20.0212 28.38L19.6827 27.4391L19.3058 27.5747L19.6443 28.5156ZM20.0212 28.38L20.3597 29.321L20.7367 29.1854L20.3982 28.2444L20.0597 27.3035L19.6827 27.4391L20.0212 28.38ZM20.3982 28.2444L20.7367 29.1854C20.828 29.1526 20.8958 29.1507 20.9587 29.1629L21.1487 28.1812L21.3388 27.1994C20.9036 27.1152 20.471 27.1555 20.0597 27.3035L20.3982 28.2444ZM21.1487 28.1812L20.9587 29.1629L21.3323 29.2352L21.5223 28.2535L21.7123 27.2717L21.3388 27.1994L21.1487 28.1812ZM21.5223 28.2535L21.3323 29.2352L21.7059 29.3075L21.8959 28.3258L22.0859 27.344L21.7123 27.2717L21.5223 28.2535ZM21.8959 28.3258L21.7059 29.3075C22.0456 29.3733 22.3888 29.3914 22.733 29.3612L22.6455 28.3651L22.5581 27.3689C22.4009 27.3827 22.2444 27.3746 22.0859 27.344L21.8959 28.3258ZM22.6455 28.3651L22.733 29.3612L23.109 29.3282L23.0215 28.332L22.9341 27.3359L22.5581 27.3689L22.6455 28.3651ZM23.0215 28.332L23.109 29.3282L23.485 29.2952L23.3975 28.299L23.31 27.3029L22.9341 27.3359L23.0215 28.332ZM23.3975 28.299L23.485 29.2952C23.651 29.2806 23.8157 29.2871 23.9813 29.3149L24.1468 28.3287L24.3123 27.3425C23.9801 27.2867 23.6453 27.2734 23.31 27.3029L23.3975 28.299ZM24.1468 28.3287L23.9813 29.3149L24.3545 29.3775L24.52 28.3913L24.6855 27.4051L24.3123 27.3425L24.1468 28.3287ZM24.52 28.3913L24.3545 29.3775L24.7278 29.4402L24.8933 28.454L25.0588 27.4677L24.6855 27.4051L24.52 28.3913ZM24.8933 28.454L24.7278 29.4402C25.0304 29.4909 25.3347 29.5167 25.6403 29.5171L25.6417 28.5171L25.6432 27.5171C25.4486 27.5169 25.254 27.5005 25.0588 27.4677L24.8933 28.454ZM25.6417 28.5171L25.6403 29.5171L26.0154 29.5177L26.0168 28.5177L26.0183 27.5177L25.6432 27.5171L25.6417 28.5171ZM26.0168 28.5177L26.0154 29.5177L26.3905 29.5182L26.3919 28.5182L26.3934 27.5182L26.0183 27.5177L26.0168 28.5177ZM26.3919 28.5182L26.3905 29.5182C26.6721 29.5186 26.9539 29.5058 27.2358 29.4797L27.1436 28.4839L27.0515 27.4882C26.8313 27.5086 26.612 27.5186 26.3934 27.5182L26.3919 28.5182ZM27.1436 28.4839L27.2358 29.4797L27.6123 29.4448L27.5202 28.4491L27.4281 27.4534L27.0515 27.4882L27.1436 28.4839ZM27.5202 28.4491L27.6123 29.4448L27.9889 29.41L27.8968 28.4143L27.8047 27.4185L27.4281 27.4534L27.5202 28.4491ZM27.8968 28.4143L27.9889 29.41C28.2308 29.3876 28.4726 29.3686 28.7143 29.353L28.6498 28.3551L28.5852 27.3572C28.325 27.374 28.0649 27.3944 27.8047 27.4185L27.8968 28.4143ZM28.6498 28.3551L28.7143 29.353L29.0907 29.3286L29.0262 28.3307L28.9616 27.3328L28.5852 27.3572L28.6498 28.3551ZM29.0262 28.3307L29.0907 29.3286L29.4671 29.3043L29.4026 28.3064L29.338 27.3085L28.9616 27.3328L29.0262 28.3307ZM29.4026 28.3064L29.4671 29.3043C29.5869 29.2965 29.7085 29.3111 29.8383 29.3536L30.1492 28.4031L30.4601 27.4527C30.0963 27.3337 29.7202 27.2837 29.338 27.3085L29.4026 28.3064ZM30.1492 28.4031L29.8383 29.3536L30.2085 29.4746L30.5194 28.5242L30.8302 27.5737L30.4601 27.4527L30.1492 28.4031ZM30.5194 28.5242L30.2085 29.4746L30.5787 29.5957L30.8895 28.6453L31.2004 27.6948L30.8302 27.5737L30.5194 28.5242ZM30.8895 28.6453L30.5787 29.5957C30.9009 29.7011 31.2302 29.7667 31.5651 29.7898L31.6338 28.7921L31.7026 27.7945C31.5387 27.7832 31.3718 27.7509 31.2004 27.6948L30.8895 28.6453ZM31.6338 28.7921L31.5651 29.7898L31.9392 29.8156L32.008 28.8179L32.0767 27.8203L31.7026 27.7945L31.6338 28.7921ZM32.008 28.8179L31.9392 29.8156L32.3133 29.8413L32.3821 28.8437L32.4508 27.8461L32.0767 27.8203L32.008 28.8179ZM32.3821 28.8437L32.3133 29.8413C32.5614 29.8584 32.8094 29.8761 33.0574 29.8942L33.1302 28.8968L33.203 27.8995C32.9523 27.8812 32.7016 27.8634 32.4508 27.8461L32.3821 28.8437ZM33.1302 28.8968L33.0574 29.8942L33.4314 29.9215L33.5042 28.9241L33.577 27.9268L33.203 27.8995L33.1302 28.8968ZM33.5042 28.9241L33.4314 29.9215L33.8054 29.9488L33.8782 28.9514L33.9511 27.9541L33.577 27.9268L33.5042 28.9241ZM33.8782 28.9514L33.8054 29.9488C33.9981 29.9629 34.1912 29.9933 34.3852 30.0409L34.6231 29.0696L34.8609 28.0983C34.5605 28.0247 34.257 27.9764 33.9511 27.9541L33.8782 28.9514ZM34.6231 29.0696L34.3852 30.0409L34.756 30.1317L34.9939 29.1604L35.2318 28.1891L34.8609 28.0983L34.6231 29.0696ZM34.9939 29.1604L34.756 30.1317L35.1269 30.2225L35.3647 29.2512L35.6026 28.2799L35.2318 28.1891L34.9939 29.1604ZM35.3647 29.2512L35.1269 30.2225C35.488 30.3109 35.8559 30.3348 36.2252 30.2931L36.1131 29.2994L36.0009 28.3057C35.8669 28.3208 35.7359 28.3125 35.6026 28.2799L35.3647 29.2512ZM36.1131 29.2994L36.2252 30.2931L36.6028 30.2504L36.4906 29.2568L36.3784 28.2631L36.0009 28.3057L36.1131 29.2994ZM36.4906 29.2568L36.6028 30.2504L36.9803 30.2078L36.8681 29.2141L36.7559 28.2204L36.3784 28.2631L36.4906 29.2568ZM36.8681 29.2141L36.9803 30.2078C37.1478 30.1889 37.3121 30.1915 37.4751 30.2151L37.6182 29.2254L37.7613 28.2357C37.4275 28.1874 37.0917 28.1825 36.7559 28.2204L36.8681 29.2141ZM37.6182 29.2254L37.4751 30.2151L37.8477 30.269L37.9908 29.2792L38.1339 28.2895L37.7613 28.2357L37.6182 29.2254ZM37.9908 29.2792L37.8477 30.269L38.2203 30.3228L38.3634 29.3331L38.5065 28.3434L38.1339 28.2895L37.9908 29.2792ZM38.3634 29.3331L38.2203 30.3228C38.6281 30.3818 39.0322 30.3421 39.4215 30.2181L39.118 29.2653L38.8146 28.3125C38.6945 28.3507 38.5955 28.3563 38.5065 28.3434L38.3634 29.3331ZM39.118 29.2653L39.4215 30.2181L39.8035 30.0965L39.5 29.1436L39.1966 28.1908L38.8146 28.3125L39.118 29.2653ZM39.5 29.1436L39.8035 30.0965L40.1855 29.9748L39.8821 29.022L39.5786 28.0691L39.1966 28.1908L39.5 29.1436ZM39.8821 29.022L40.1855 29.9748C40.2399 29.9575 40.2847 29.9442 40.3207 29.9342C40.3574 29.9241 40.3803 29.9187 40.3917 29.9164C40.4063 29.9134 40.3913 29.9174 40.357 29.9199C40.339 29.9211 40.3047 29.9228 40.2595 29.92C40.2175 29.9175 40.1398 29.9096 40.045 29.8797L40.3456 28.926L40.6463 27.9723C40.4508 27.9106 40.2796 27.9203 40.2152 27.9249C40.1286 27.931 40.0489 27.9449 39.9863 27.9579C39.8597 27.9841 39.7198 28.0242 39.5786 28.0691L39.8821 29.022ZM40.3456 28.926L40.045 29.8797L40.1265 29.9055L40.4272 28.9517L40.7278 27.998L40.6463 27.9723L40.3456 28.926ZM40.4272 28.9517L39.8359 29.7582L39.8991 29.8045L40.4904 28.9981L41.0817 28.1916L41.0184 28.1452L40.4272 28.9517ZM40.4904 28.9981L40.4398 29.9968L40.5396 30.0018L40.5903 29.0031L40.6409 28.0044L40.541 27.9993L40.4904 28.9981Z" fill="var(--stroke-0, #FD9476)"/>
<path id="Vector 21" d="M0.232286 33.1132L0.256226 32.1135L0.177327 32.1116L0.0991092 32.1221L0.232286 33.1132ZM2.02273 33.05L1.76112 32.0849L2.02273 33.05ZM2.38222 32.9526L2.64382 33.9178L2.38222 32.9526ZM3.46539 32.664L3.21625 31.6956L3.46539 32.664ZM4.1938 32.4767L4.44293 33.4451L4.1938 32.4767ZM8.65877 31.8217L8.27595 30.8979L8.65877 31.8217ZM9.40745 31.7793L9.68463 30.8184L9.40745 31.7793ZM10.1695 31.9991L9.89233 32.9599L10.1695 31.9991ZM10.9226 32.0189L10.6872 31.047L10.9226 32.0189ZM11.2947 31.9288L11.0593 30.9569L11.2947 31.9288ZM11.6668 31.8386L11.9022 32.8105L11.6668 31.8386ZM12.7918 31.9562L13.0577 30.9922L12.7918 31.9562ZM13.1683 32.0601L12.9024 33.0241L13.1683 32.0601ZM15.4149 31.6964L15.2588 32.6841L15.4149 31.6964ZM16.1657 31.8151L16.0096 32.8028L16.1657 31.8151ZM16.9153 31.995L17.222 31.0432L16.9153 31.995ZM17.6636 32.2362L17.3568 33.188L17.6636 32.2362ZM18.7905 32.0818L19.1336 33.0211L18.7905 32.0818ZM19.1668 31.9444L18.8237 31.0051L18.8237 31.0051L19.1668 31.9444ZM19.9171 31.8773L20.1021 30.8945L19.9171 31.8773ZM20.6651 32.0181L20.4801 33.0008L20.6651 32.0181ZM21.7906 32.0185L21.6979 31.0228L21.7906 32.0185ZM22.1664 31.9835L22.0737 30.9878L22.1664 31.9835ZM24.4114 32.1897L24.4075 31.1897L24.4114 32.1897ZM25.9129 32.1484L25.8154 31.1532L25.9129 32.1484ZM28.1707 31.9586L28.1007 30.9611L28.1707 31.9586ZM28.9177 32.0513L28.612 33.0034L28.9177 32.0513ZM29.6594 32.2895L29.9651 31.3374L29.6594 32.2895ZM30.4044 32.4324L30.341 33.4303L30.4044 32.4324ZM31.1529 32.4799L31.2163 31.4819L31.1529 32.4799ZM31.9013 32.529L31.8338 33.5268L31.9013 32.529ZM33.3952 32.6939L33.628 31.7214L33.3952 32.6939ZM34.1378 32.8717L33.905 33.8442L34.1378 32.8717ZM34.8864 32.916L34.7691 31.9229L34.8864 32.916ZM35.641 32.8269L35.5238 31.8338L35.641 32.8269ZM36.3912 32.8344L36.253 33.8248L36.3912 32.8344ZM36.7641 32.8864L36.6259 33.8768L36.7641 32.8864ZM37.137 32.9384L37.2751 31.948L37.137 32.9384ZM37.8913 32.8669L37.5832 31.9155L37.8913 32.8669ZM38.6542 32.6199L38.9622 33.5713L38.6542 32.6199ZM40.1434 32.872L40.4645 31.9249L40.1434 32.872ZM40.832 32.9575L40.9553 33.9499L40.832 32.9575ZM41.4708 32.8782L41.5941 33.8706L41.4708 32.8782ZM41.7917 32.8089L42.7904 32.8598L41.7917 32.8089ZM41.7932 32.7792L42.7919 32.8301L42.821 32.2601L42.345 31.9452L41.7932 32.7792ZM41.6964 32.7151L41.7443 31.7163L38.1109 31.542L41.1446 33.5491L41.6964 32.7151ZM0.133177 33.1265L0.266353 34.1176L0.365463 34.1043L0.232286 33.1132L0.0991092 32.1221L-5.51157e-09 32.1354L0.133177 33.1265ZM0.232286 33.1132L0.208346 34.1129L0.923824 34.1301L0.947763 33.1303L0.971703 32.1306L0.256226 32.1135L0.232286 33.1132ZM0.947763 33.1303L0.923824 34.1301C1.42576 34.1421 1.9015 34.119 2.28434 34.0152L2.02273 33.05L1.76112 32.0849C1.66464 32.111 1.42374 32.1415 0.971703 32.1306L0.947763 33.1303ZM2.02273 33.05L2.28434 34.0152L2.64382 33.9178L2.38222 32.9526L2.12061 31.9874L1.76112 32.0849L2.02273 33.05ZM2.38222 32.9526L2.64382 33.9178L3.00331 33.8203L2.7417 32.8552L2.48009 31.89L2.12061 31.9874L2.38222 32.9526ZM2.7417 32.8552L3.00331 33.8203C3.23878 33.7565 3.47585 33.6939 3.71453 33.6325L3.46539 32.664L3.21625 31.6956C2.96933 31.7591 2.72394 31.8239 2.48009 31.89L2.7417 32.8552ZM3.46539 32.664L3.71453 33.6325L4.07873 33.5388L3.82959 32.5703L3.58046 31.6019L3.21625 31.6956L3.46539 32.664ZM3.82959 32.5703L4.07873 33.5388L4.44293 33.4451L4.1938 32.4767L3.94466 31.5082L3.58046 31.6019L3.82959 32.5703ZM4.1938 32.4767L4.44293 33.4451C4.56931 33.4126 4.69883 33.4025 4.83721 33.4166L4.93869 32.4218L5.04017 31.427C4.67097 31.3893 4.30389 31.4158 3.94466 31.5082L4.1938 32.4767ZM4.93869 32.4218L4.83721 33.4166L5.2179 33.4555L5.31938 32.4606L5.42086 31.4658L5.04017 31.427L4.93869 32.4218ZM5.31938 32.4606L5.2179 33.4555L5.5986 33.4943L5.70008 32.4995L5.80156 31.5046L5.42086 31.4658L5.31938 32.4606ZM5.70008 32.4995L5.5986 33.4943C5.94197 33.5293 6.2843 33.5178 6.62283 33.4583L6.44953 32.4734L6.27622 31.4885C6.12307 31.5155 5.96577 31.5214 5.80156 31.5046L5.70008 32.4995ZM6.44953 32.4734L6.62283 33.4583L6.99159 33.3934L6.81829 32.4085L6.64498 31.4236L6.27622 31.4885L6.44953 32.4734ZM6.81829 32.4085L6.99159 33.3934L7.36035 33.3285L7.18705 32.3436L7.01374 31.3588L6.64498 31.4236L6.81829 32.4085ZM7.18705 32.3436L7.36035 33.3285C7.6824 33.2718 7.99798 33.178 8.30628 33.0502L7.92346 32.1264L7.54065 31.2026C7.35874 31.2779 7.18338 31.3289 7.01374 31.3588L7.18705 32.3436ZM7.92346 32.1264L8.30628 33.0502L8.67393 32.8979L8.29111 31.974L7.9083 31.0502L7.54065 31.2026L7.92346 32.1264ZM8.29111 31.974L8.67393 32.8979L9.04158 32.7455L8.65877 31.8217L8.27595 30.8979L7.9083 31.0502L8.29111 31.974ZM8.65877 31.8217L9.04158 32.7455C9.07804 32.7304 9.09491 32.7299 9.13027 32.7401L9.40745 31.7793L9.68463 30.8184C9.21194 30.6821 8.72969 30.7098 8.27595 30.8979L8.65877 31.8217ZM9.40745 31.7793L9.13027 32.7401L9.5113 32.85L9.78848 31.8892L10.0657 30.9284L9.68463 30.8184L9.40745 31.7793ZM9.78848 31.8892L9.5113 32.85L9.89233 32.9599L10.1695 31.9991L10.4467 31.0383L10.0657 30.9284L9.78848 31.8892ZM10.1695 31.9991L9.89233 32.9599C10.3071 33.0796 10.7349 33.0933 11.158 32.9908L10.9226 32.0189L10.6872 31.047C10.6143 31.0647 10.54 31.0652 10.4467 31.0383L10.1695 31.9991ZM10.9226 32.0189L11.158 32.9908L11.5301 32.9007L11.2947 31.9288L11.0593 30.9569L10.6872 31.047L10.9226 32.0189ZM11.2947 31.9288L11.5301 32.9007L11.9022 32.8105L11.6668 31.8386L11.4313 30.8667L11.0593 30.9569L11.2947 31.9288ZM11.6668 31.8386L11.9022 32.8105C11.9817 32.7913 12.0587 32.7913 12.1494 32.8164L12.4153 31.8524L12.6812 30.8884C12.2699 30.7749 11.8479 30.7658 11.4313 30.8667L11.6668 31.8386ZM12.4153 31.8524L12.1494 32.8164L12.5259 32.9202L12.7918 31.9562L13.0577 30.9922L12.6812 30.8884L12.4153 31.8524ZM12.7918 31.9562L12.5259 32.9202L12.9024 33.0241L13.1683 32.0601L13.4342 31.0961L13.0577 30.9922L12.7918 31.9562ZM13.1683 32.0601L12.9024 33.0241C13.3533 33.1484 13.8121 33.13 14.2509 32.9753L13.9185 32.0322L13.586 31.0891C13.5265 31.11 13.4852 31.1101 13.4342 31.0961L13.1683 32.0601ZM13.9185 32.0322L14.2509 32.9753L14.6246 32.8436L14.2922 31.9005L13.9597 30.9574L13.586 31.0891L13.9185 32.0322ZM14.2922 31.9005L14.6246 32.8436L14.9983 32.7119L14.6659 31.7688L14.3334 30.8256L13.9597 30.9574L14.2922 31.9005ZM14.6659 31.7688L14.9983 32.7119C15.0977 32.6769 15.1797 32.6716 15.2588 32.6841L15.4149 31.6964L15.5711 30.7087C15.1497 30.642 14.7323 30.6851 14.3334 30.8256L14.6659 31.7688ZM15.4149 31.6964L15.2588 32.6841L15.6342 32.7435L15.7903 31.7557L15.9465 30.768L15.5711 30.7087L15.4149 31.6964ZM15.7903 31.7557L15.6342 32.7435L16.0096 32.8028L16.1657 31.8151L16.3219 30.8274L15.9465 30.768L15.7903 31.7557ZM16.1657 31.8151L16.0096 32.8028C16.2071 32.8341 16.4066 32.8817 16.6085 32.9468L16.9153 31.995L17.222 31.0432C16.9251 30.9475 16.6249 30.8753 16.3219 30.8274L16.1657 31.8151ZM16.9153 31.995L16.6085 32.9468L16.9827 33.0674L17.2894 32.1156L17.5962 31.1638L17.222 31.0432L16.9153 31.995ZM17.2894 32.1156L16.9827 33.0674L17.3568 33.188L17.6636 32.2362L17.9703 31.2844L17.5962 31.1638L17.2894 32.1156ZM17.6636 32.2362L17.3568 33.188C17.8226 33.3381 18.3015 33.3251 18.7572 33.1586L18.4141 32.2193L18.071 31.28C18.0249 31.2968 18.0034 31.2951 17.9703 31.2844L17.6636 32.2362ZM18.4141 32.2193L18.7572 33.1586L19.1336 33.0211L18.7905 32.0818L18.4474 31.1425L18.071 31.28L18.4141 32.2193ZM18.7905 32.0818L19.1336 33.0211L19.5099 32.8837L19.1668 31.9444L18.8237 31.0051L18.4474 31.1425L18.7905 32.0818ZM19.1668 31.9444L19.5099 32.8837C19.6012 32.8503 19.6691 32.8482 19.7322 32.86L19.9171 31.8773L20.1021 30.8945C19.6666 30.8126 19.2342 30.8551 18.8237 31.0051L19.1668 31.9444ZM19.9171 31.8773L19.7322 32.86L20.1061 32.9304L20.2911 31.9477L20.4761 30.9649L20.1021 30.8945L19.9171 31.8773ZM20.2911 31.9477L20.1061 32.9304L20.4801 33.0008L20.6651 32.0181L20.85 31.0353L20.4761 30.9649L20.2911 31.9477ZM20.6651 32.0181L20.4801 33.0008C20.8201 33.0648 21.1635 33.0812 21.5075 33.0492L21.4148 32.0535L21.3221 31.0578C21.1651 31.0724 21.0086 31.0652 20.85 31.0353L20.6651 32.0181ZM21.4148 32.0535L21.5075 33.0492L21.8833 33.0142L21.7906 32.0185L21.6979 31.0228L21.3221 31.0578L21.4148 32.0535ZM21.7906 32.0185L21.8833 33.0142L22.259 32.9792L22.1664 31.9835L22.0737 30.9878L21.6979 31.0228L21.7906 32.0185ZM22.1664 31.9835L22.259 32.9792C22.425 32.9638 22.5898 32.9694 22.7554 32.9963L22.9157 32.0092L23.076 31.0221C22.7435 30.9681 22.4088 30.9566 22.0737 30.9878L22.1664 31.9835ZM22.9157 32.0092L22.7554 32.9963L23.129 33.0569L23.2892 32.0698L23.4495 31.0828L23.076 31.0221L22.9157 32.0092ZM23.2892 32.0698L23.129 33.0569L23.5025 33.1176L23.6628 32.1305L23.8231 31.1434L23.4495 31.0828L23.2892 32.0698ZM23.6628 32.1305L23.5025 33.1176C23.8054 33.1667 24.1098 33.1909 24.4153 33.1897L24.4114 32.1897L24.4075 31.1897C24.2129 31.1905 24.0183 31.1751 23.8231 31.1434L23.6628 32.1305ZM24.4114 32.1897L24.4153 33.1897L24.7904 33.1882L24.7865 32.1882L24.7825 31.1882L24.4075 31.1897L24.4114 32.1897ZM24.7865 32.1882L24.7904 33.1882L25.1654 33.1867L25.1615 32.1867L25.1576 31.1867L24.7825 31.1882L24.7865 32.1882ZM25.1615 32.1867L25.1654 33.1867C25.447 33.1856 25.7287 33.1712 26.0104 33.1436L25.9129 32.1484L25.8154 31.1532C25.5954 31.1747 25.3761 31.1859 25.1576 31.1867L25.1615 32.1867ZM25.9129 32.1484L26.0104 33.1436L26.3868 33.1068L26.2893 32.1115L26.1917 31.1163L25.8154 31.1532L25.9129 32.1484ZM26.2893 32.1115L26.3868 33.1068L26.7631 33.0699L26.6656 32.0746L26.5681 31.0794L26.1917 31.1163L26.2893 32.1115ZM26.6656 32.0746L26.7631 33.0699C27.0048 33.0462 27.2465 33.0259 27.4881 33.0089L27.4182 32.0114L27.3482 31.0138C27.0882 31.0321 26.8281 31.0539 26.5681 31.0794L26.6656 32.0746ZM27.4182 32.0114L27.4881 33.0089L27.8644 32.9826L27.7944 31.985L27.7245 30.9875L27.3482 31.0138L27.4182 32.0114ZM27.7944 31.985L27.8644 32.9826L28.2406 32.9562L28.1707 31.9586L28.1007 30.9611L27.7245 30.9875L27.7944 31.985ZM28.1707 31.9586L28.2406 32.9562C28.3603 32.9478 28.4819 32.9617 28.612 33.0034L28.9177 32.0513L29.2235 31.0992C28.8591 30.9822 28.4827 30.9343 28.1007 30.9611L28.1707 31.9586ZM28.9177 32.0513L28.612 33.0034L28.9828 33.1225L29.2885 32.1704L29.5943 31.2183L29.2235 31.0992L28.9177 32.0513ZM29.2885 32.1704L28.9828 33.1225L29.3536 33.2416L29.6594 32.2895L29.9651 31.3374L29.5943 31.2183L29.2885 32.1704ZM29.6594 32.2895L29.3536 33.2416C29.6763 33.3452 30.006 33.409 30.341 33.4303L30.4044 32.4324L30.4678 31.4344C30.3038 31.4239 30.1368 31.3925 29.9651 31.3374L29.6594 32.2895ZM30.4044 32.4324L30.341 33.4303L30.7152 33.4541L30.7787 32.4561L30.8421 31.4582L30.4678 31.4344L30.4044 32.4324ZM30.7787 32.4561L30.7152 33.4541L31.0895 33.4779L31.1529 32.4799L31.2163 31.4819L30.8421 31.4582L30.7787 32.4561ZM31.1529 32.4799L31.0895 33.4779C31.3376 33.4937 31.5857 33.51 31.8338 33.5268L31.9013 32.529L31.9689 31.5313C31.7181 31.5143 31.4672 31.4979 31.2163 31.4819L31.1529 32.4799ZM31.9013 32.529L31.8338 33.5268L32.208 33.5521L32.2755 32.5544L32.3431 31.5567L31.9689 31.5313L31.9013 32.529ZM32.2755 32.5544L32.208 33.5521L32.5821 33.5774L32.6497 32.5797L32.7172 31.582L32.3431 31.5567L32.2755 32.5544ZM32.6497 32.5797L32.5821 33.5774C32.7749 33.5905 32.9681 33.62 33.1624 33.6664L33.3952 32.6939L33.628 31.7214C33.3271 31.6494 33.0234 31.6027 32.7172 31.582L32.6497 32.5797ZM33.3952 32.6939L33.1624 33.6664L33.5337 33.7553L33.7665 32.7828L33.9993 31.8103L33.628 31.7214L33.3952 32.6939ZM33.7665 32.7828L33.5337 33.7553L33.905 33.8442L34.1378 32.8717L34.3706 31.8992L33.9993 31.8103L33.7665 32.7828ZM34.1378 32.8717L33.905 33.8442C34.2665 33.9307 34.6345 33.9527 35.0036 33.9091L34.8864 32.916L34.7691 31.9229C34.6352 31.9387 34.5041 31.9311 34.3706 31.8992L34.1378 32.8717ZM34.8864 32.916L35.0036 33.9091L35.3809 33.8646L35.2637 32.8715L35.1464 31.8784L34.7691 31.9229L34.8864 32.916ZM35.2637 32.8715L35.3809 33.8646L35.7583 33.82L35.641 32.8269L35.5238 31.8338L35.1464 31.8784L35.2637 32.8715ZM35.641 32.8269L35.7583 33.82C35.9257 33.8003 36.0899 33.802 36.253 33.8248L36.3912 32.8344L36.5293 31.844C36.1953 31.7974 35.8594 31.7942 35.5238 31.8338L35.641 32.8269ZM36.3912 32.8344L36.253 33.8248L36.6259 33.8768L36.7641 32.8864L36.9022 31.896L36.5293 31.844L36.3912 32.8344ZM36.7641 32.8864L36.6259 33.8768L36.9988 33.9288L37.137 32.9384L37.2751 31.948L36.9022 31.896L36.7641 32.8864ZM37.137 32.9384L36.9988 33.9288C37.4068 33.9857 37.8107 33.9441 38.1993 33.8183L37.8913 32.8669L37.5832 31.9155C37.4633 31.9544 37.3643 31.9604 37.2751 31.948L37.137 32.9384ZM37.8913 32.8669L38.1993 33.8183L38.5808 33.6948L38.2727 32.7434L37.9647 31.792L37.5832 31.9155L37.8913 32.8669ZM38.2727 32.7434L38.5808 33.6948L38.9622 33.5713L38.6542 32.6199L38.3461 31.6685L37.9647 31.792L38.2727 32.7434ZM38.6542 32.6199L38.9622 33.5713C39.018 33.5532 39.0475 33.5563 39.0837 33.5686L39.4048 32.6216L39.726 31.6745C39.2699 31.5199 38.7989 31.5219 38.3461 31.6685L38.6542 32.6199ZM39.4048 32.6216L39.0837 33.5686L39.453 33.6938L39.7741 32.7468L40.0952 31.7997L39.726 31.6745L39.4048 32.6216ZM39.7741 32.7468L39.453 33.6938L39.8223 33.819L40.1434 32.872L40.4645 31.9249L40.0952 31.7997L39.7741 32.7468ZM40.1434 32.872L39.8223 33.819C40.1815 33.9408 40.5644 33.9984 40.9553 33.9499L40.832 32.9575L40.7088 31.9651C40.6738 31.9695 40.5975 31.9701 40.4645 31.9249L40.1434 32.872ZM40.832 32.9575L40.9553 33.9499L41.2747 33.9102L41.1514 32.9179L41.0282 31.9255L40.7088 31.9651L40.832 32.9575ZM41.1514 32.9179L41.2747 33.9102L41.5941 33.8706L41.4708 32.8782L41.3476 31.8858L41.0282 31.9255L41.1514 32.9179ZM41.4708 32.8782L41.5941 33.8706C41.7078 33.8564 41.8235 33.8397 41.9219 33.8185C41.9642 33.8093 42.0487 33.79 42.1401 33.7537C42.1809 33.7376 42.2796 33.6964 42.386 33.6168C42.4599 33.5614 42.7671 33.3183 42.7904 32.8598L41.7917 32.8089L40.793 32.758C40.8161 32.3043 41.1198 32.0663 41.1868 32.0161C41.2863 31.9416 41.3749 31.9057 41.4021 31.8949C41.4398 31.8799 41.4682 31.8718 41.4792 31.8687C41.486 31.8668 41.4912 31.8655 41.4943 31.8648C41.4974 31.864 41.4993 31.8636 41.4996 31.8636C41.5 31.8635 41.4968 31.8642 41.4891 31.8656C41.4816 31.8669 41.4712 31.8687 41.4576 31.8708C41.4301 31.875 41.3938 31.8801 41.3476 31.8858L41.4708 32.8782ZM41.7917 32.8089L42.7904 32.8598L42.7919 32.8301L41.7932 32.7792L40.7945 32.7283L40.793 32.758L41.7917 32.8089ZM41.7932 32.7792L42.345 31.9452L42.2482 31.8811L41.6964 32.7151L41.1446 33.5491L41.2415 33.6132L41.7932 32.7792ZM41.6964 32.7151L41.6485 33.714L41.7484 33.7188L41.7963 32.7199L41.8442 31.7211L41.7443 31.7163L41.6964 32.7151Z" fill="var(--stroke-0, #FD9476)"/>
<path id="Vector 22" d="M85.9814 26.4365C86.6409 26.2324 87.0101 25.5323 86.806 24.8728C86.6019 24.2133 85.9019 23.8441 85.2424 24.0482L85.6119 25.2423L85.9814 26.4365ZM85.5164 25.2719L85.1468 24.0778L84.9994 24.1234L84.8675 24.2035L85.5164 25.2719ZM84.6721 25.7847L85.321 26.853L85.321 26.853L84.6721 25.7847ZM84.4314 25.8981L84.7347 27.1107L84.7347 27.1107L84.4314 25.8981ZM83.9118 26.028L83.6085 24.8154L83.6085 24.8154L83.9118 26.028ZM83.3921 26.158L83.6953 27.3706L83.6954 27.3706L83.3921 26.158ZM83.2185 26.2316L83.8764 27.2945L83.8764 27.2945L83.2185 26.2316ZM82.7542 26.519L82.0963 25.4562L82.0963 25.4562L82.7542 26.519ZM82.29 26.8064L82.948 27.8692L82.948 27.8692L82.29 26.8064ZM82.1149 26.8753L82.3545 28.1021L82.3545 28.1021L82.1149 26.8753ZM81.5866 26.9785L81.347 25.7517L81.347 25.7517L81.5866 26.9785ZM81.0584 27.0817L81.298 28.3085L81.298 28.3085L81.0584 27.0817ZM80.8686 27.104L80.9219 28.3529L80.9219 28.3529L80.8686 27.104ZM80.3212 27.1274L80.268 25.8785L80.268 25.8785L80.3212 27.1274ZM79.7739 27.1507L79.8272 28.3996L79.8272 28.3996L79.7739 27.1507ZM79.5931 27.2023L80.2063 28.2915L80.2063 28.2915L79.5931 27.2023ZM79.1157 27.471L78.5024 26.3818L78.5024 26.3818L79.1157 27.471ZM78.6382 27.7398L79.2515 28.8291L79.2515 28.8291L78.6382 27.7398ZM78.4612 27.8033L78.6742 29.035L78.6743 29.035L78.4612 27.8033ZM77.9354 27.8942L77.7224 26.6625L77.7224 26.6625L77.9354 27.8942ZM77.4097 27.9852L77.6227 29.2169L77.6227 29.2169L77.4097 27.9852ZM77.2202 27.997L77.1654 29.2458L77.1654 29.2458L77.2202 27.997ZM76.6721 27.9729L76.7269 26.7241L76.7269 26.7241L76.6721 27.9729ZM76.1241 27.9489L76.0693 29.1977L76.0693 29.1977L76.1241 27.9489ZM75.9371 27.9702L76.2769 29.1731L76.2769 29.1731L75.9371 27.9702ZM75.4255 28.1147L75.0857 26.9118L75.0857 26.9118L75.4255 28.1147ZM74.9139 28.2592L75.2537 29.4622L75.2537 29.4622L74.9139 28.2592ZM74.7289 28.2838L74.716 29.5337L74.716 29.5337L74.7289 28.2838ZM74.1921 28.2782L74.2051 27.0283L74.205 27.0283L74.1921 28.2782ZM73.6554 28.2727L73.6424 29.5226L73.6425 29.5226L73.6554 28.2727ZM73.4717 28.3101L73.9675 29.4576L73.9675 29.4576L73.4717 28.3101ZM72.9675 28.528L72.4717 27.3805L72.4717 27.3805L72.9675 28.528ZM72.4633 28.7458L72.9591 29.8933L72.9591 29.8933L72.4633 28.7458ZM72.2798 28.7814L72.242 30.0308L72.242 30.0308L72.2798 28.7814ZM71.7442 28.7652L71.782 27.5157L71.782 27.5157L71.7442 28.7652ZM71.2085 28.749L71.1707 29.9984L71.1708 29.9984L71.2085 28.749ZM71.0221 28.7686L71.3189 29.9828L71.3189 29.9828L71.0221 28.7686ZM70.5014 28.8958L70.2047 27.6815L70.2047 27.6815L70.5014 28.8958ZM69.9807 29.0231L70.2774 30.2373L70.2774 30.2373L69.9807 29.0231ZM69.795 29.0474L69.8206 30.2972L69.8206 30.2972L69.795 29.0474ZM69.2632 29.0583L69.2376 27.8086L69.2376 27.8086L69.2632 29.0583ZM68.7314 29.0693L68.7571 30.319L68.7571 30.319L68.7314 29.0693ZM68.5438 29.0643L68.4519 30.3109L68.4519 30.3109L68.5438 29.0643ZM68.012 29.0251L68.1039 27.7785L68.1039 27.7785L68.012 29.0251ZM67.4803 28.9859L67.3884 30.2325L67.3884 30.2325L67.4803 28.9859ZM67.2931 29.0115L67.7047 30.1918L67.7047 30.1918L67.2931 29.0115ZM66.7642 29.1959L66.3527 28.0156L66.3527 28.0156L66.7642 29.1959ZM66.2353 29.3804L66.6468 30.5607L66.6468 30.5607L66.2353 29.3804ZM66.048 29.4013L65.8942 30.6418L65.8942 30.6418L66.048 29.4013ZM65.5159 29.3353L65.6697 28.0948L65.6697 28.0948L65.5159 29.3353ZM64.9838 29.2693L64.83 30.5098L64.83 30.5098L64.9838 29.2693ZM64.7977 29.2263L64.3952 30.4097L64.3952 30.4097L64.7977 29.2263ZM64.2755 29.0487L64.678 27.8653L64.678 27.8653L64.2755 29.0487ZM63.7533 28.871L63.3507 30.0544L63.3507 30.0544L63.7533 28.871ZM63.5669 28.846L63.6502 30.0932L63.6502 30.0932L63.5669 28.846ZM63.0329 28.8816L62.9496 27.6344L62.9496 27.6344L63.0329 28.8816ZM62.4989 28.9173L62.5822 30.1645L62.5822 30.1645L62.4989 28.9173ZM62.3113 28.9168L62.2206 30.1635L62.2206 30.1635L62.3113 28.9168ZM61.782 28.8783L61.8727 27.6316L61.8727 27.6316L61.782 28.8783ZM61.2527 28.8398L61.162 30.0865L61.162 30.0865L61.2527 28.8398ZM61.0694 28.8053L60.7011 29.9998L60.7011 29.9998L61.0694 28.8053ZM60.5602 28.6483L60.9285 27.4538L60.9285 27.4538L60.5602 28.6483ZM60.051 28.4913L59.6827 29.6858L59.6827 29.6858L60.051 28.4913ZM59.8665 28.4585L59.799 29.7066L59.799 29.7066L59.8665 28.4585ZM59.33 28.4295L59.3975 27.1813L59.3975 27.1813L59.33 28.4295ZM58.7936 28.4005L58.7261 29.6487L58.7261 29.6487L58.7936 28.4005ZM58.6045 28.3832L58.4452 29.623L58.4452 29.623L58.6045 28.3832ZM58.0692 28.3145L58.2284 27.0747L58.2284 27.0747L58.0692 28.3145ZM57.5339 28.2457L57.3746 29.4855L57.3746 29.4855L57.5339 28.2457ZM57.3531 28.1942L56.8345 29.3316L56.8345 29.3316L57.3531 28.1942ZM56.8637 27.9711L57.3822 26.8337L57.3822 26.8337L56.8637 27.9711ZM56.3743 27.7479L55.8557 28.8853L55.8557 28.8853L56.3743 27.7479ZM56.2108 27.651L55.4629 28.6526L55.4629 28.6526L56.2108 27.651ZM55.7739 27.3248L56.5218 26.3232L56.5218 26.3232L55.7739 27.3248ZM55.3371 26.9986L54.5892 28.0002L54.5892 28.0002L55.3371 26.9986ZM55.1689 26.9154L54.8301 28.1186L54.8301 28.1186L55.1689 26.9154ZM54.6528 26.77L54.9915 25.5668L54.9915 25.5668L54.6528 26.77ZM54.1366 26.6247L53.7978 27.8279L53.7978 27.8279L54.1366 26.6247ZM53.9646 26.5518L53.3341 27.6311L53.3341 27.6311L53.9646 26.5518ZM53.5062 26.284L54.1367 25.2046L54.1367 25.2046L53.5062 26.284ZM53.0477 26.0162L52.4172 27.0955L52.4172 27.0955L53.0477 26.0162ZM52.9017 25.9009L51.9986 26.7651L51.9986 26.7652L52.9017 25.9009ZM52.5331 25.5157L53.4362 24.6514L53.4362 24.6514L52.5331 25.5157ZM52.1644 25.1304L51.2613 25.9947L51.2613 25.9947L52.1644 25.1304ZM52.0343 24.9975L51.151 25.882L51.151 25.882L52.0343 24.9975ZM51.6655 24.6292L52.5487 23.7447L52.5487 23.7447L51.6655 24.6292ZM51.2967 24.261L50.4134 25.1455L50.4134 25.1455L51.2967 24.261ZM51.1606 24.1341L50.339 25.0762L50.339 25.0762L51.1606 24.1341ZM50.7587 23.7836L51.5803 22.8415L51.5803 22.8415L50.7587 23.7836ZM50.3567 23.433L49.5351 24.375L49.5351 24.375L50.3567 23.433ZM50.2388 23.2902L49.158 23.9183L49.1581 23.9183L50.2388 23.2902ZM49.9722 22.8316L51.053 22.2034L51.053 22.2034L49.9722 22.8316ZM49.7057 22.3729L48.625 23.0011L48.625 23.0011L49.7057 22.3729ZM49.6073 22.2116L48.5535 22.8838L48.5535 22.8838L49.6073 22.2116ZM49.3165 21.7556L50.3703 21.0833L50.3703 21.0833L49.3165 21.7556ZM49.0256 21.2997L47.9718 21.9719L47.9718 21.9719L49.0256 21.2997ZM48.956 21.1258L47.7292 21.3655L47.7292 21.3655L48.956 21.1258ZM48.8527 20.5968L50.0795 20.3572L50.0795 20.3572L48.8527 20.5968ZM48.7494 20.0678L47.5226 20.3074L47.5226 20.3074L48.7494 20.0678ZM48.7042 19.8828L47.505 20.2357L47.505 20.2357L48.7042 19.8828ZM48.5515 19.364L49.7507 19.0111L49.7507 19.0111L48.5515 19.364ZM48.3988 18.8451L47.1997 19.198L47.1997 19.198L48.3988 18.8451ZM48.3988 18.6578L49.6022 18.9958L49.6022 18.9958L48.3988 18.6578ZM48.5512 18.1151L47.3478 17.7771L47.3478 17.7771L48.5512 18.1151ZM48.7036 17.5725L49.907 17.9105L49.907 17.9105L48.7036 17.5725ZM48.6914 17.3813L47.5346 17.8547L47.5346 17.8548L48.6914 17.3813ZM48.47 16.8403L49.6269 16.3668L49.6269 16.3668L48.47 16.8403ZM48.2486 16.2994L47.0918 16.7729L47.0918 16.7729L48.2486 16.2994ZM48.2316 16.1115L49.4475 16.4017L49.4475 16.4017L48.2316 16.1115ZM48.3567 15.5874L47.1409 15.2972L47.1409 15.2972L48.3567 15.5874ZM48.4818 15.0632L49.6977 15.3534L49.6977 15.3534L48.4818 15.0632ZM48.5314 14.8802L49.7274 15.2438L49.7274 15.2438L48.5314 14.8802ZM48.6873 14.3673L47.4914 14.0038L47.4914 14.0038L48.6873 14.3673ZM48.8432 13.8543L50.0392 14.2178L50.0392 14.2178L48.8432 13.8543ZM48.9181 13.6779L50.0128 14.2812L50.0128 14.2812L48.9181 13.6779ZM49.1863 13.1912L48.0915 12.5879L48.0915 12.5879L49.1863 13.1912ZM49.4545 12.7046L50.5493 13.3079L50.5493 13.3079L49.4545 12.7046ZM49.5006 12.5198L50.7505 12.5046L50.7505 12.5046L49.5006 12.5198ZM49.4939 11.9594L48.2439 11.9746L48.2439 11.9746L49.4939 11.9594ZM49.4871 11.3991L50.737 11.3839L50.737 11.3839L49.4871 11.3991ZM49.5222 11.2127L50.6766 11.6921L50.6766 11.6921L49.5222 11.2127ZM49.7281 10.7169L48.5737 10.2375L48.5737 10.2375L49.7281 10.7169ZM49.934 10.221L51.0884 10.7004L51.0884 10.7004L49.934 10.221ZM50.0428 10.0669L50.8891 10.9867L50.8891 10.9867L50.0428 10.0669ZM50.4533 9.68912L49.6069 8.76926L49.6069 8.76926L50.4533 9.68912ZM50.8639 9.31136L51.7103 10.2312L51.7103 10.2312L50.8639 9.31136ZM50.9855 9.16756L52.0393 9.83994L52.0393 9.83993L50.9855 9.16756ZM51.2645 8.73043L50.2107 8.05805L50.2107 8.05805L51.2645 8.73043ZM51.5434 8.2933L52.5971 8.96567L52.5971 8.96567L51.5434 8.2933ZM51.6266 8.12364L52.7998 8.5551L52.7998 8.5551L51.6266 8.12364ZM51.8194 7.59937L50.6463 7.16791L50.6463 7.16791L51.8194 7.59937ZM52.0123 7.0751L53.1854 7.50656L53.1854 7.50656L52.0123 7.0751ZM52.1147 6.91728L52.9778 7.82147L52.9778 7.82147L52.1147 6.91728ZM52.5024 6.5472L51.6393 5.64301L51.6393 5.64301L52.5024 6.5472ZM52.8901 6.17712L53.7532 7.08132L53.7532 7.08131L52.8901 6.17712ZM53.0221 6.04038L53.956 6.87117L53.956 6.87117L53.0221 6.04038ZM53.3822 5.63556L52.4482 4.80476L52.4482 4.80476L53.3822 5.63556ZM53.7423 5.23074L54.6762 6.06153L54.6762 6.06153L53.7423 5.23074ZM53.8783 5.09626L54.6984 6.03963L54.6984 6.03963L53.8783 5.09626ZM54.2892 4.73907L53.4691 3.7957L53.4691 3.7957L54.2892 4.73907ZM54.7001 4.38187L55.5202 5.32524L55.5202 5.32523L54.7001 4.38187ZM54.8802 4.31507L54.9239 5.56431L54.9239 5.56431L54.8802 4.31507ZM55.4901 4.29374L55.4464 3.04451L55.4464 3.04451L55.4901 4.29374ZM56.1 4.27242L56.1437 5.52165L56.1437 5.52165L56.1 4.27242ZM56.2683 4.1814L57.2948 4.89476L57.2948 4.89476L56.2683 4.1814ZM56.6119 3.68694L55.5855 2.97359L55.5855 2.97359L56.6119 3.68694ZM56.9556 3.19249L57.982 3.90585L57.982 3.90584L56.9556 3.19249ZM57.1126 3.09026L57.3044 4.32546L57.3044 4.32546L57.1126 3.09026ZM57.6591 3.00543L57.4673 1.77022L57.4673 1.77022L57.6591 3.00543ZM58.2055 2.92059L58.3973 4.15579L58.3973 4.15579L58.2055 2.92059ZM58.3976 2.8969L58.511 4.14174L58.511 4.14174L58.3976 2.8969ZM58.9395 2.8475L58.8261 1.60266L58.8261 1.60266L58.9395 2.8475ZM59.4815 2.79809L59.595 4.04293L59.595 4.04293L59.4815 2.79809ZM59.6598 2.7386L60.314 3.80376L60.314 3.80376L59.6598 2.7386ZM60.1283 2.45087L59.4742 1.38571L59.4742 1.38571L60.1283 2.45087ZM60.5968 2.16314L61.251 3.2283L61.251 3.2283L60.5968 2.16314ZM60.7722 2.09747L60.9705 3.33163L60.9705 3.33163L60.7722 2.09747ZM61.2976 2.01304L61.0993 0.778867L61.0993 0.778867L61.2976 2.01304ZM61.8231 1.92861L62.0214 3.16277L62.0214 3.16277L61.8231 1.92861ZM62.011 1.91779L62.0646 0.668946L62.0646 0.668946L62.011 1.91779ZM62.5503 1.94096L62.4967 3.18981L62.5503 1.94096ZM63.0896 1.96413L63.1433 0.71528L63.1433 0.71528L63.0896 1.96413ZM63.2734 1.91683L63.9004 2.99821L63.9004 2.99821L63.2734 1.91683ZM63.7757 1.62564L63.1487 0.544258L63.1487 0.544259L63.7757 1.62564ZM64.2779 1.33445L64.9049 2.41582L64.9049 2.41582L64.2779 1.33445ZM64.4612 1.28041L64.4962 2.52992L64.4962 2.52992L64.4612 1.28041ZM64.9977 1.26538L64.9627 0.0158664L64.9627 0.0158664L64.9977 1.26538ZM65.5341 1.25035L65.5691 2.49986L65.5691 2.49986L65.5341 1.25035ZM65.7233 1.26535L65.953 0.0366374L65.953 0.0366371L65.7233 1.26535ZM66.2586 1.36543L66.0289 2.59414L66.0289 2.59414L66.2586 1.36543ZM66.794 1.4655L67.0237 0.236782L67.0236 0.236782L66.794 1.4655ZM66.9812 1.50721L67.295 0.29725L67.295 0.29725L66.9812 1.50721ZM67.5066 1.6435L67.1928 2.85347L67.1928 2.85347L67.5066 1.6435ZM68.0321 1.7798L68.3459 0.569839L68.3459 0.569839L68.0321 1.7798ZM68.2192 1.78876L68.4165 3.02309L68.4165 3.02309L68.2192 1.78876ZM68.754 1.70326L68.5566 0.468941L68.5566 0.468941L68.754 1.70326ZM69.2887 1.61777L69.4861 2.85209L69.4861 2.85209L69.2887 1.61777ZM69.477 1.60673L69.5309 0.357893L69.5309 0.357893L69.477 1.60673ZM70.0091 1.6297L69.9551 2.87853L69.9551 2.87853L70.0091 1.6297ZM70.5411 1.65266L70.595 0.403823L70.595 0.403823L70.5411 1.65266ZM70.7271 1.67564L70.9788 0.451243L70.9788 0.451243L70.7271 1.67564ZM71.2488 1.78288L70.997 3.00728L70.997 3.00728L71.2488 1.78288ZM71.7704 1.89013L72.0221 0.665734L72.0221 0.665734L71.7704 1.89013ZM71.9533 1.93229L72.2632 0.72131L72.2632 0.721309L71.9533 1.93229ZM72.4677 2.06393L72.1578 3.27491L72.1578 3.27491L72.4677 2.06393ZM72.9821 2.19558L73.292 0.984602L73.292 0.984602L72.9821 2.19558ZM73.1691 2.21933L73.1624 3.46931L73.1624 3.46931L73.1691 2.21933ZM73.7141 2.22225L73.7209 0.972271L73.7209 0.972271L73.7141 2.22225ZM74.2592 2.22518L74.2525 3.47516L74.2525 3.47516L74.2592 2.22518ZM74.4398 2.27287L75.0493 1.18152L75.0493 1.18152L74.4398 2.27287ZM74.9185 2.54017L74.309 3.63152L74.309 3.63152L74.9185 2.54017ZM75.3971 2.80748L76.0066 1.71614L76.0066 1.71614L75.3971 2.80748ZM75.5668 2.89396L76.0906 1.75901L76.0906 1.75901L75.5668 2.89396ZM76.0494 3.11669L75.5255 4.25164L75.5255 4.25164L76.0494 3.11669ZM76.532 3.33943L77.0558 2.20448L77.0558 2.20448L76.532 3.33943ZM76.7219 3.3664L76.868 4.60784L76.868 4.60784L76.7219 3.3664ZM77.3158 3.29652L77.1698 2.05508L77.1698 2.05508L77.3158 3.29652ZM77.9098 3.22663L78.0558 4.46807L78.0558 4.46807L77.9098 3.22663ZM78.0861 3.28591L78.9704 2.40238L78.9704 2.40237L78.0861 3.28591ZM78.4916 3.69169L77.6074 4.57522L77.6074 4.57522L78.4916 3.69169ZM78.8971 4.09747L79.7813 3.21394L79.7813 3.21394L78.8971 4.09747ZM79.0547 4.2062L79.5498 3.05843L79.5498 3.05843L79.0547 4.2062ZM79.5423 4.41656L79.0472 5.56433L79.0472 5.56433L79.5423 4.41656ZM80.03 4.62693L80.5251 3.47916L80.5251 3.47916L80.03 4.62693ZM80.1858 4.72939L81.0404 3.81718L81.0404 3.81717L80.1858 4.72939ZM80.581 5.09964L79.7264 6.01184L79.7264 6.01185L80.581 5.09964ZM80.9762 5.46989L81.8308 4.55768L81.8308 4.55768L80.9762 5.46989ZM81.1433 5.55642L81.4092 4.33501L81.4092 4.33501L81.1433 5.55642ZM81.6951 5.67651L81.4293 6.89792L81.4293 6.89792L81.6951 5.67651ZM82.2469 5.7966L82.5127 4.57519L82.5127 4.57519L82.2469 5.7966ZM82.4241 5.86899L83.099 4.8168L83.099 4.8168L82.4241 5.86899ZM82.8765 6.1591L82.2016 7.21128L82.2016 7.21128L82.8765 6.1591ZM83.3288 6.44921L84.0036 5.39703L84.0036 5.39702L83.3288 6.44921ZM83.4549 6.58866L84.5618 6.00797L84.5618 6.00796L83.4549 6.58866ZM83.7173 7.0888L82.6103 7.66949L82.6103 7.6695L83.7173 7.0888ZM83.9797 7.58893L85.0866 7.00825L85.0866 7.00824L83.9797 7.58893ZM84.0864 7.74591L85.0248 6.92004L85.0247 6.92003L84.0864 7.74591ZM84.4292 8.13531L83.4908 8.96117L83.4908 8.96118L84.4292 8.13531ZM84.7719 8.5247L85.7102 7.69884L85.7102 7.69883L84.7719 8.5247ZM84.9096 8.65172L85.6628 7.65413L85.6628 7.65412L84.9096 8.65172ZM85.3472 8.98212L84.594 9.97972L84.594 9.97972L85.3472 8.98212ZM85.7848 9.31251L86.538 8.31491L86.538 8.31491L85.7848 9.31251ZM85.8949 9.45951L87.0671 9.02537L87.0671 9.02536L85.8949 9.45951ZM86.081 9.96208L84.9088 10.3962L84.9088 10.3962L86.081 9.96208ZM86.2672 10.4647L87.4394 10.0305L87.4393 10.0305L86.2672 10.4647ZM86.363 10.6311L87.3344 9.84442L87.3344 9.84441L86.363 10.6311ZM86.72 11.0719L85.7486 11.8587L85.7486 11.8587L86.72 11.0719ZM87.077 11.5127L88.0484 10.726L88.0484 10.726L87.077 11.5127ZM87.1464 11.6876L88.3937 11.6056L88.3937 11.6056L87.1464 11.6876ZM87.1826 12.2379L85.9353 12.32L85.9353 12.32L87.1826 12.2379ZM87.2188 12.7883L88.4661 12.7063L88.4661 12.7062L87.2188 12.7883ZM87.2107 12.9798L88.4462 13.1693L88.4462 13.1693L87.2107 12.9798ZM87.1286 13.5145L85.8931 13.3249L85.8931 13.3249L87.1286 13.5145ZM87.0466 14.0493L88.2821 14.2389L88.2821 14.2389L87.0466 14.0493ZM87.0326 14.2393L88.2826 14.2323L88.2826 14.2323L87.0326 14.2393ZM87.0356 14.7815L85.7857 14.7885L85.7857 14.7885L87.0356 14.7815ZM87.0387 15.3236L88.2887 15.3166L88.2887 15.3166L87.0387 15.3236ZM87.0202 15.5118L88.2447 15.7631L88.2447 15.7631L87.0202 15.5118ZM86.9127 16.0357L85.6882 15.7844L85.6882 15.7844L86.9127 16.0357ZM86.8051 16.5597L88.0296 16.8111L88.0296 16.811L86.8051 16.5597ZM86.7724 16.747L88.0094 16.9268L88.0094 16.9268L86.7724 16.747ZM86.6942 17.2843L85.4572 17.1044L85.4572 17.1045L86.6942 17.2843ZM86.6161 17.8216L87.8531 18.0015L87.8531 18.0014L86.6161 17.8216ZM86.5478 17.9974L87.5845 18.6957L87.5846 18.6957L86.5478 17.9974ZM86.2386 18.4565L85.2018 17.7582L85.2018 17.7582L86.2386 18.4565ZM85.9294 18.9155L86.9662 19.6138L86.9662 19.6138L85.9294 18.9155ZM85.8397 19.0834L86.9985 19.5522L86.9985 19.5522L85.8397 19.0834ZM85.6404 19.576L84.4817 19.1072L84.4817 19.1072L85.6404 19.576ZM85.4411 20.0686L86.5999 20.5374L86.5999 20.5374L85.4411 20.0686ZM85.3362 20.2243L86.214 21.1143L86.214 21.1143L85.3362 20.2243ZM84.9411 20.614L84.0633 19.7241L84.0633 19.7241L84.9411 20.614ZM84.546 21.0038L85.4238 21.8937L85.4238 21.8937L84.546 21.0038ZM84.4422 21.1598L85.6066 21.6143L85.6067 21.6143L84.4422 21.1598ZM84.2492 21.6543L83.0847 21.1998L83.0847 21.1998L84.2492 21.6543ZM84.0561 22.1488L85.2206 22.6034L85.2206 22.6034L84.0561 22.1488ZM83.964 22.308L84.9357 23.0942L84.9357 23.0942L83.964 22.308ZM83.6345 22.7151L82.6628 21.9288L82.6628 21.9288L83.6345 22.7151ZM83.3051 23.1222L84.2769 23.9084L84.2769 23.9084L83.3051 23.1222ZM83.2203 23.2942L84.4283 23.6158L84.4283 23.6157L83.2203 23.2942ZM83.0692 23.8617L81.8613 23.5401L81.8613 23.5402L83.0692 23.8617ZM82.9181 24.4293L84.126 24.7509L84.126 24.7509L82.9181 24.4293ZM82.8245 24.5978L83.7174 25.4726L83.7174 25.4726L82.8245 24.5978ZM82.4454 24.9847L81.5526 24.1098L81.5526 24.1098L82.4454 24.9847ZM82.0663 25.3716L82.9591 26.2464L82.9592 26.2464L82.0663 25.3716ZM81.9083 25.479L82.401 26.6278L82.401 26.6277L81.9083 25.479ZM81.3917 25.7005L80.899 24.5518L80.8989 24.5518L81.3917 25.7005ZM80.8752 25.9221L81.3679 27.0709L81.3679 27.0709L80.8752 25.9221ZM80.6979 26.0009L81.2208 27.1362L81.2208 27.1362L80.6979 26.0009ZM80.2099 26.2256L79.687 25.0903L79.687 25.0903L80.2099 26.2256ZM79.722 26.4504L80.2449 27.5857L80.2449 27.5857L79.722 26.4504ZM79.5609 26.544L80.2908 27.5587L80.2908 27.5587L79.5609 26.544ZM79.1361 26.8495L78.4061 25.8348L78.4061 25.8348L79.1361 26.8495ZM78.7112 27.1551L79.4412 28.1699L79.4412 28.1699L78.7112 27.1551ZM78.5539 27.2516L79.1277 28.3621L79.1277 28.3621L78.5539 27.2516ZM78.0873 27.4927L77.5135 26.3822L77.5135 26.3822L78.0873 27.4927ZM77.6206 27.7338L78.1944 28.8444L78.1944 28.8444L77.6206 27.7338ZM77.4599 27.8272L78.1395 28.8763L78.1395 28.8763L77.4599 27.8272ZM77.0156 28.115L76.336 27.0659L76.336 27.0659L77.0156 28.115ZM76.5714 28.4028L77.251 29.4519L77.251 29.4519L76.5714 28.4028ZM76.4228 28.5222L77.2967 29.4159L77.2967 29.4159L76.4228 28.5222ZM76.0249 28.9113L75.1509 28.0176L75.1509 28.0176L76.0249 28.9113ZM75.627 29.3004L76.5009 30.1941L76.5009 30.1941L75.627 29.3004ZM75.4582 29.3829L75.6318 30.6208L75.6318 30.6208L75.4582 29.3829ZM74.9 29.4611L74.7264 28.2233L74.7264 28.2233L74.9 29.4611ZM74.3418 29.5394L74.5154 30.7773L74.5154 30.7773L74.3418 29.5394ZM74.1586 29.5975L74.7375 30.7054L74.7375 30.7053L74.1586 29.5975ZM73.6785 29.8484L73.0996 28.7405L73.0996 28.7405L73.6785 29.8484ZM73.1985 30.0992L73.7775 31.2071L73.7775 31.2071L73.1985 30.0992ZM73.0425 30.2092L73.8895 31.1285L73.8895 31.1284L73.0425 30.2092ZM72.6382 30.5817L71.7912 29.6625L71.7912 29.6625L72.6382 30.5817ZM72.234 30.9542L73.0811 31.8735L73.0811 31.8735L72.234 30.9542ZM72.1449 31.055L73.2595 31.6208L73.2595 31.6208L72.1449 31.055ZM72.044 31.2537L70.9294 30.6879L70.8468 30.8506L70.8141 31.0302L72.044 31.2537ZM72.0109 31.4357L72.6575 32.5055L73.14 32.2139L73.2408 31.6593L72.0109 31.4357ZM71.2787 30.4177C70.6879 30.7748 70.4985 31.5432 70.8556 32.1341C71.2127 32.7249 71.9811 32.9144 72.5719 32.5572L71.9253 31.4875L71.2787 30.4177ZM85.6119 25.2423L85.2424 24.0482L85.1468 24.0778L85.5164 25.2719L85.8859 26.466L85.9814 26.4365L85.6119 25.2423ZM85.5164 25.2719L84.8675 24.2035L84.0232 24.7163L84.6721 25.7847L85.321 26.853L86.1652 26.3403L85.5164 25.2719ZM84.6721 25.7847L84.0232 24.7163C84.0004 24.7302 83.995 24.732 84.0046 24.7275C84.01 24.725 84.0225 24.7193 84.0414 24.7122C84.0598 24.7053 84.0893 24.6951 84.1282 24.6854L84.4314 25.8981L84.7347 27.1107C84.9802 27.0493 85.1887 26.9334 85.321 26.853L84.6721 25.7847ZM84.4314 25.8981L84.1282 24.6854L83.6085 24.8154L83.9118 26.028L84.215 27.2407L84.7347 27.1107L84.4314 25.8981ZM83.9118 26.028L83.6085 24.8154L83.0889 24.9453L83.3921 26.158L83.6954 27.3706L84.215 27.2407L83.9118 26.028ZM83.3921 26.158L83.0889 24.9453C82.9 24.9925 82.7228 25.0683 82.5605 25.1688L83.2185 26.2316L83.8764 27.2945C83.8234 27.3273 83.7619 27.354 83.6953 27.3706L83.3921 26.158ZM83.2185 26.2316L82.5605 25.1688L82.0963 25.4562L82.7542 26.519L83.4122 27.5818L83.8764 27.2945L83.2185 26.2316ZM82.7542 26.519L82.0963 25.4562L81.6321 25.7435L82.29 26.8064L82.948 27.8692L83.4122 27.5818L82.7542 26.519ZM82.29 26.8064L81.6321 25.7435C81.704 25.699 81.787 25.6657 81.8752 25.6485L82.1149 26.8753L82.3545 28.1021C82.567 28.0606 82.7669 27.9813 82.948 27.8692L82.29 26.8064ZM82.1149 26.8753L81.8752 25.6485L81.347 25.7517L81.5866 26.9785L81.8263 28.2053L82.3545 28.1021L82.1149 26.8753ZM81.5866 26.9785L81.347 25.7517L80.8187 25.8549L81.0584 27.0817L81.298 28.3085L81.8263 28.2053L81.5866 26.9785ZM81.0584 27.0817L80.8188 25.8549C80.8192 25.8548 80.8182 25.855 80.8153 25.8551L80.8686 27.104L80.9219 28.3529C81.0477 28.3475 81.1733 28.3329 81.298 28.3085L81.0584 27.0817ZM80.8686 27.104L80.8153 25.8551L80.268 25.8785L80.3212 27.1274L80.3745 28.3762L80.9219 28.3529L80.8686 27.104ZM80.3212 27.1274L80.268 25.8785L79.7206 25.9018L79.7739 27.1507L79.8272 28.3996L80.3745 28.3762L80.3212 27.1274ZM79.7739 27.1507L79.7207 25.9018C79.4596 25.913 79.2075 25.9849 78.9798 26.113L79.5931 27.2023L80.2063 28.2915C80.091 28.3564 79.9594 28.3939 79.8272 28.3996L79.7739 27.1507ZM79.5931 27.2023L78.9799 26.113L78.5024 26.3818L79.1157 27.471L79.7289 28.5603L80.2063 28.2915L79.5931 27.2023ZM79.1157 27.471L78.5024 26.3818L78.025 26.6506L78.6382 27.7398L79.2515 28.8291L79.7289 28.5603L79.1157 27.471ZM78.6382 27.7398L78.025 26.6506C78.0898 26.6141 78.1657 26.5859 78.2482 26.5716L78.4612 27.8033L78.6743 29.035C78.8804 28.9993 79.0744 28.9288 79.2515 28.8291L78.6382 27.7398ZM78.4612 27.8033L78.2482 26.5716L77.7224 26.6625L77.9354 27.8942L78.1485 29.1259L78.6742 29.035L78.4612 27.8033ZM77.9354 27.8942L77.7224 26.6625L77.1967 26.7535L77.4097 27.9852L77.6227 29.2169L78.1485 29.1259L77.9354 27.8942ZM77.4097 27.9852L77.1967 26.7535C77.2257 26.7484 77.2523 26.7472 77.2749 26.7482L77.2202 27.997L77.1654 29.2458C77.317 29.2524 77.47 29.2433 77.6227 29.2169L77.4097 27.9852ZM77.2202 27.997L77.2749 26.7482L76.7269 26.7241L76.6721 27.9729L76.6174 29.2217L77.1654 29.2458L77.2202 27.997ZM76.6721 27.9729L76.7269 26.7241L76.1788 26.7001L76.1241 27.9489L76.0693 29.1977L76.6174 29.2217L76.6721 27.9729ZM76.1241 27.9489L76.1788 26.7001C75.9855 26.6916 75.7898 26.7129 75.5973 26.7673L75.9371 27.9702L76.2769 29.1731C76.2048 29.1935 76.1337 29.2005 76.0693 29.1977L76.1241 27.9489ZM75.9371 27.9702L75.5973 26.7673L75.0857 26.9118L75.4255 28.1147L75.7653 29.3176L76.2769 29.1731L75.9371 27.9702ZM75.4255 28.1147L75.0857 26.9118L74.5741 27.0563L74.9139 28.2592L75.2537 29.4622L75.7653 29.3176L75.4255 28.1147ZM74.9139 28.2592L74.5741 27.0563C74.6297 27.0406 74.6869 27.0333 74.7418 27.0338L74.7289 28.2838L74.716 29.5337C74.8972 29.5356 75.0777 29.5119 75.2537 29.4622L74.9139 28.2592ZM74.7289 28.2838L74.7418 27.0338L74.2051 27.0283L74.1921 28.2782L74.1792 29.5281L74.716 29.5337L74.7289 28.2838ZM74.1921 28.2782L74.205 27.0283L73.6683 27.0227L73.6554 28.2727L73.6425 29.5226L74.1792 29.5281L74.1921 28.2782ZM73.6554 28.2727L73.6683 27.0227C73.4262 27.0202 73.1919 27.0693 72.9759 27.1626L73.4717 28.3101L73.9675 29.4576C73.8701 29.4997 73.7583 29.5238 73.6424 29.5226L73.6554 28.2727ZM73.4717 28.3101L72.9759 27.1626L72.4717 27.3805L72.9675 28.528L73.4633 29.6754L73.9675 29.4576L73.4717 28.3101ZM72.9675 28.528L72.4717 27.3805L71.9675 27.5983L72.4633 28.7458L72.9591 29.8933L73.4633 29.6754L72.9675 28.528ZM72.4633 28.7458L71.9676 27.5983C72.0722 27.5531 72.1928 27.5282 72.3176 27.5319L72.2798 28.7814L72.242 30.0308C72.4929 30.0384 72.7359 29.9897 72.9591 29.8933L72.4633 28.7458ZM72.2798 28.7814L72.3176 27.5319L71.782 27.5157L71.7442 28.7652L71.7064 30.0146L72.242 30.0308L72.2798 28.7814ZM71.7442 28.7652L71.782 27.5157L71.2463 27.4995L71.2085 28.749L71.1708 29.9984L71.7064 30.0146L71.7442 28.7652ZM71.2085 28.749L71.2464 27.4995C71.0707 27.4942 70.896 27.5126 70.7254 27.5543L71.0221 28.7686L71.3189 29.9828C71.2707 29.9946 71.2203 29.9999 71.1707 29.9984L71.2085 28.749ZM71.0221 28.7686L70.7254 27.5543L70.2047 27.6815L70.5014 28.8958L70.7981 30.1101L71.3189 29.9828L71.0221 28.7686ZM70.5014 28.8958L70.2047 27.6815L69.684 27.8088L69.9807 29.0231L70.2774 30.2373L70.7981 30.1101L70.5014 28.8958ZM69.9807 29.0231L69.684 27.8088C69.7108 27.8022 69.7398 27.7983 69.7693 27.7977L69.795 29.0474L69.8206 30.2972C69.9753 30.294 70.1281 30.2738 70.2774 30.2373L69.9807 29.0231ZM69.795 29.0474L69.7693 27.7977L69.2376 27.8086L69.2632 29.0583L69.2888 30.3081L69.8206 30.2972L69.795 29.0474ZM69.2632 29.0583L69.2376 27.8086L68.7058 27.8195L68.7314 29.0693L68.7571 30.319L69.2888 30.3081L69.2632 29.0583ZM68.7314 29.0693L68.7058 27.8195C68.6825 27.82 68.6592 27.8194 68.6356 27.8176L68.5438 29.0643L68.4519 30.3109C68.5535 30.3184 68.6552 30.3211 68.7571 30.319L68.7314 29.0693ZM68.5438 29.0643L68.6357 27.8177L68.1039 27.7785L68.012 29.0251L67.9202 30.2717L68.4519 30.3109L68.5438 29.0643ZM68.012 29.0251L68.1039 27.7785L67.5722 27.7393L67.4803 28.9859L67.3884 30.2325L67.9202 30.2717L68.012 29.0251ZM67.4803 28.9859L67.5722 27.7393C67.3305 27.7215 67.097 27.7561 66.8816 27.8312L67.2931 29.0115L67.7047 30.1918C67.6137 30.2235 67.505 30.2411 67.3884 30.2325L67.4803 28.9859ZM67.2931 29.0115L66.8816 27.8312L66.3527 28.0156L66.7642 29.1959L67.1757 30.3763L67.7047 30.1918L67.2931 29.0115ZM66.7642 29.1959L66.3527 28.0156L65.8237 28.2L66.2353 29.3804L66.6468 30.5607L67.1757 30.3763L66.7642 29.1959ZM66.2353 29.3804L65.8237 28.2C65.9345 28.1614 66.0653 28.1438 66.2018 28.1608L66.048 29.4013L65.8942 30.6418C66.156 30.6742 66.4116 30.6427 66.6468 30.5607L66.2353 29.3804ZM66.048 29.4013L66.2018 28.1608L65.6697 28.0948L65.5159 29.3353L65.3621 30.5758L65.8942 30.6418L66.048 29.4013ZM65.5159 29.3353L65.6697 28.0948L65.1376 28.0288L64.9838 29.2693L64.83 30.5098L65.3621 30.5758L65.5159 29.3353ZM64.9838 29.2693L65.1376 28.0288C65.1621 28.0318 65.1833 28.0371 65.2003 28.0429L64.7977 29.2263L64.3952 30.4097C64.535 30.4573 64.6803 30.4912 64.83 30.5098L64.9838 29.2693ZM64.7977 29.2263L65.2003 28.0429L64.678 27.8653L64.2755 29.0487L63.873 30.2321L64.3952 30.4097L64.7977 29.2263ZM64.2755 29.0487L64.678 27.8653L64.1558 27.6876L63.7533 28.871L63.3507 30.0544L63.873 30.2321L64.2755 29.0487ZM63.7533 28.871L64.1558 27.6876C63.9431 27.6153 63.7161 27.5832 63.4836 27.5988L63.5669 28.846L63.6502 30.0932C63.5433 30.1003 63.4405 30.085 63.3507 30.0544L63.7533 28.871ZM63.5669 28.846L63.4836 27.5988L62.9496 27.6344L63.0329 28.8816L63.1162 30.1289L63.6502 30.0932L63.5669 28.846ZM63.0329 28.8816L62.9496 27.6344L62.4157 27.6701L62.4989 28.9173L62.5822 30.1645L63.1162 30.1289L63.0329 28.8816ZM62.4989 28.9173L62.4157 27.6701C62.4103 27.6704 62.4059 27.6704 62.402 27.6701L62.3113 28.9168L62.2206 30.1635C62.3413 30.1723 62.462 30.1725 62.5822 30.1645L62.4989 28.9173ZM62.3113 28.9168L62.402 27.6701L61.8727 27.6316L61.782 28.8783L61.6913 30.125L62.2206 30.1635L62.3113 28.9168ZM61.782 28.8783L61.8727 27.6316L61.3433 27.5931L61.2527 28.8398L61.162 30.0865L61.6913 30.125L61.782 28.8783ZM61.2527 28.8398L61.3433 27.5931C61.3757 27.5954 61.4077 27.6015 61.4377 27.6108L61.0694 28.8053L60.7011 29.9998C60.8509 30.046 61.0051 30.0751 61.162 30.0865L61.2527 28.8398ZM61.0694 28.8053L61.4377 27.6108L60.9285 27.4538L60.5602 28.6483L60.1919 29.8428L60.7011 29.9998L61.0694 28.8053ZM60.5602 28.6483L60.9285 27.4538L60.4193 27.2968L60.051 28.4913L59.6827 29.6858L60.1919 29.8428L60.5602 28.6483ZM60.051 28.4913L60.4193 27.2968C60.2609 27.2479 60.0983 27.2192 59.9339 27.2103L59.8665 28.4585L59.799 29.7066C59.7609 29.7046 59.7213 29.6977 59.6827 29.6858L60.051 28.4913ZM59.8665 28.4585L59.9339 27.2103L59.3975 27.1813L59.33 28.4295L59.2626 29.6776L59.799 29.7066L59.8665 28.4585ZM59.33 28.4295L59.3975 27.1813L58.861 27.1523L58.7936 28.4005L58.7261 29.6487L59.2626 29.6776L59.33 28.4295ZM58.7936 28.4005L58.861 27.1523C58.8288 27.1506 58.7963 27.1476 58.7637 27.1434L58.6045 28.3832L58.4452 29.623C58.5385 29.635 58.6322 29.6436 58.7261 29.6487L58.7936 28.4005ZM58.6045 28.3832L58.7637 27.1434L58.2284 27.0747L58.0692 28.3145L57.9099 29.5543L58.4452 29.623L58.6045 28.3832ZM58.0692 28.3145L58.2284 27.0747L57.6932 27.0059L57.5339 28.2457L57.3746 29.4855L57.9099 29.5543L58.0692 28.3145ZM57.5339 28.2457L57.6932 27.0059C57.754 27.0137 57.8149 27.031 57.8716 27.0568L57.3531 28.1942L56.8345 29.3316C57.0064 29.4099 57.1879 29.4615 57.3746 29.4855L57.5339 28.2457ZM57.3531 28.1942L57.8716 27.0568L57.3822 26.8337L56.8637 27.9711L56.3451 29.1084L56.8345 29.3316L57.3531 28.1942ZM56.8637 27.9711L57.3822 26.8337L56.8928 26.6106L56.3743 27.7479L55.8557 28.8853L56.3451 29.1084L56.8637 27.9711ZM56.3743 27.7479L56.8928 26.6106C56.9174 26.6218 56.9397 26.6352 56.9587 26.6494L56.2108 27.651L55.4629 28.6526C55.5847 28.7435 55.716 28.8216 55.8557 28.8853L56.3743 27.7479ZM56.2108 27.651L56.9587 26.6494L56.5218 26.3232L55.7739 27.3248L55.0261 28.3264L55.4629 28.6526L56.2108 27.651ZM55.7739 27.3248L56.5218 26.3232L56.0849 25.997L55.3371 26.9986L54.5892 28.0002L55.0261 28.3264L55.7739 27.3248ZM55.3371 26.9986L56.0849 25.997C55.9128 25.8685 55.7185 25.7715 55.5077 25.7121L55.1689 26.9154L54.8301 28.1186C54.7407 28.0934 54.6585 28.0519 54.5892 28.0002L55.3371 26.9986ZM55.1689 26.9154L55.5077 25.7122L54.9915 25.5668L54.6528 26.77L54.314 27.9733L54.8301 28.1186L55.1689 26.9154ZM54.6528 26.77L54.9915 25.5668L54.4754 25.4215L54.1366 26.6247L53.7978 27.8279L54.314 27.9733L54.6528 26.77ZM54.1366 26.6247L54.4754 25.4215C54.5158 25.4329 54.5566 25.4499 54.5951 25.4725L53.9646 26.5518L53.3341 27.6311C53.4806 27.7167 53.636 27.7824 53.7978 27.8279L54.1366 26.6247ZM53.9646 26.5518L54.5952 25.4725L54.1367 25.2046L53.5062 26.284L52.8757 27.3633L53.3341 27.6311L53.9646 26.5518ZM53.5062 26.284L54.1367 25.2046L53.6782 24.9368L53.0477 26.0162L52.4172 27.0955L52.8757 27.3633L53.5062 26.284ZM53.0477 26.0162L53.6782 24.9368C53.7251 24.9642 53.7681 24.9983 53.8048 25.0367L52.9017 25.9009L51.9986 26.7652C52.1221 26.8941 52.2624 27.0051 52.4172 27.0955L53.0477 26.0162ZM52.9017 25.9009L53.8048 25.0367L53.4362 24.6514L52.5331 25.5157L51.63 26.3799L51.9986 26.7651L52.9017 25.9009ZM52.5331 25.5157L53.4362 24.6514L53.0675 24.2662L52.1644 25.1304L51.2613 25.9947L51.63 26.3799L52.5331 25.5157ZM52.1644 25.1304L53.0675 24.2662C53.0177 24.2142 52.9677 24.1631 52.9175 24.1129L52.0343 24.9975L51.151 25.882C51.1876 25.9185 51.2243 25.9561 51.2613 25.9947L52.1644 25.1304ZM52.0343 24.9975L52.9175 24.1129L52.5487 23.7447L51.6655 24.6292L50.7822 25.5138L51.151 25.882L52.0343 24.9975ZM51.6655 24.6292L52.5487 23.7447L52.1799 23.3764L51.2967 24.261L50.4134 25.1455L50.7822 25.5138L51.6655 24.6292ZM51.2967 24.261L52.1799 23.3764C52.1162 23.3128 52.0503 23.2514 51.9823 23.1921L51.1606 24.1341L50.339 25.0762C50.3656 25.0994 50.3904 25.1225 50.4134 25.1455L51.2967 24.261ZM51.1606 24.1341L51.9823 23.1921L51.5803 22.8415L50.7587 23.7836L49.937 24.7256L50.339 25.0762L51.1606 24.1341ZM50.7587 23.7836L51.5803 22.8415L51.1784 22.4909L50.3567 23.433L49.5351 24.375L49.937 24.7256L50.7587 23.7836ZM50.3567 23.433L51.1784 22.491C51.2335 22.539 51.2819 22.5973 51.3195 22.6621L50.2388 23.2902L49.1581 23.9183C49.2584 24.091 49.3855 24.2445 49.5351 24.375L50.3567 23.433ZM50.2388 23.2902L51.3195 22.6621L51.053 22.2034L49.9722 22.8316L48.8915 23.4597L49.158 23.9183L50.2388 23.2902ZM49.9722 22.8316L51.053 22.2034L50.7864 21.7448L49.7057 22.3729L48.625 23.0011L48.8915 23.4597L49.9722 22.8316ZM49.7057 22.3729L50.7864 21.7448C50.7462 21.6757 50.7045 21.6072 50.6612 21.5393L49.6073 22.2116L48.5535 22.8838C48.5786 22.9232 48.6024 22.9623 48.625 23.0011L49.7057 22.3729ZM49.6073 22.2116L50.6612 21.5393L50.3703 21.0833L49.3165 21.7556L48.2626 22.4279L48.5535 22.8838L49.6073 22.2116ZM49.3165 21.7556L50.3703 21.0833L50.0794 20.6274L49.0256 21.2997L47.9718 21.9719L48.2626 22.4279L49.3165 21.7556ZM49.0256 21.2997L50.0794 20.6274C50.1292 20.7054 50.1649 20.7941 50.1829 20.8862L48.956 21.1258L47.7292 21.3655C47.7715 21.582 47.8536 21.7866 47.9718 21.9719L49.0256 21.2997ZM48.956 21.1258L50.1829 20.8862L50.0795 20.3572L48.8527 20.5968L47.6259 20.8364L47.7292 21.3655L48.956 21.1258ZM48.8527 20.5968L50.0795 20.3572L49.9762 19.8281L48.7494 20.0678L47.5226 20.3074L47.6259 20.8364L48.8527 20.5968ZM48.7494 20.0678L49.9762 19.8281C49.9565 19.7276 49.9322 19.6282 49.9033 19.53L48.7042 19.8828L47.505 20.2357C47.5121 20.2596 47.5179 20.2834 47.5226 20.3074L48.7494 20.0678ZM48.7042 19.8828L49.9033 19.53L49.7507 19.0111L48.5515 19.364L47.3523 19.7168L47.505 20.2357L48.7042 19.8828ZM48.5515 19.364L49.7507 19.0111L49.598 18.4922L48.3988 18.8451L47.1997 19.198L47.3523 19.7168L48.5515 19.364ZM48.3988 18.8451L49.598 18.4922C49.6492 18.6663 49.645 18.8435 49.6022 18.9958L48.3988 18.6578L47.1953 18.3197C47.1167 18.5997 47.1125 18.9018 47.1997 19.198L48.3988 18.8451ZM48.3988 18.6578L49.6022 18.9958L49.7546 18.4531L48.5512 18.1151L47.3478 17.7771L47.1953 18.3198L48.3988 18.6578ZM48.5512 18.1151L49.7546 18.4531L49.907 17.9105L48.7036 17.5725L47.5002 17.2345L47.3478 17.7771L48.5512 18.1151ZM48.7036 17.5725L49.907 17.9105C50.0032 17.568 49.9756 17.2189 49.8483 16.9078L48.6914 17.3813L47.5346 17.8548C47.4593 17.6709 47.4398 17.4493 47.5002 17.2345L48.7036 17.5725ZM48.6914 17.3813L49.8483 16.9078L49.6269 16.3668L48.47 16.8403L47.3132 17.3138L47.5346 17.8547L48.6914 17.3813ZM48.47 16.8403L49.6269 16.3668L49.4055 15.8259L48.2486 16.2994L47.0918 16.7729L47.3132 17.3138L48.47 16.8403ZM48.2486 16.2994L49.4055 15.8259C49.4697 15.9828 49.4987 16.187 49.4475 16.4017L48.2316 16.1115L47.0158 15.8213C46.9351 16.1592 46.9755 16.4888 47.0918 16.7729L48.2486 16.2994ZM48.2316 16.1115L49.4475 16.4017L49.5726 15.8775L48.3567 15.5874L47.1409 15.2972L47.0158 15.8213L48.2316 16.1115ZM48.3567 15.5874L49.5726 15.8775L49.6977 15.3534L48.4818 15.0632L47.266 14.7731L47.1409 15.2972L48.3567 15.5874ZM48.4818 15.0632L49.6977 15.3534C49.7065 15.3163 49.7165 15.2797 49.7274 15.2438L48.5314 14.8802L47.3354 14.5167C47.3097 14.6014 47.2865 14.6869 47.266 14.7731L48.4818 15.0632ZM48.5314 14.8802L49.7274 15.2438L49.8833 14.7308L48.6873 14.3673L47.4914 14.0038L47.3354 14.5167L48.5314 14.8802ZM48.6873 14.3673L49.8833 14.7308L50.0392 14.2178L48.8432 13.8543L47.6473 13.4908L47.4914 14.0038L48.6873 14.3673ZM48.8432 13.8543L50.0392 14.2178C50.0314 14.2437 50.0218 14.2651 50.0128 14.2812L48.9181 13.6779L47.8233 13.0746C47.7513 13.2053 47.6918 13.3442 47.6473 13.4908L48.8432 13.8543ZM48.9181 13.6779L50.0128 14.2812L50.2811 13.7946L49.1863 13.1912L48.0915 12.5879L47.8233 13.0746L48.9181 13.6779ZM49.1863 13.1912L50.2811 13.7946L50.5493 13.3079L49.4545 12.7046L48.3597 12.1012L48.0915 12.5879L49.1863 13.1912ZM49.4545 12.7046L50.5493 13.3079C50.6861 13.0597 50.7539 12.7848 50.7505 12.5046L49.5006 12.5198L48.2507 12.5349C48.2489 12.3867 48.2861 12.2349 48.3597 12.1012L49.4545 12.7046ZM49.5006 12.5198L50.7505 12.5046L50.7438 11.9443L49.4939 11.9594L48.2439 11.9746L48.2507 12.5349L49.5006 12.5198ZM49.4939 11.9594L50.7438 11.9443L50.737 11.3839L49.4871 11.3991L48.2372 11.4142L48.2439 11.9746L49.4939 11.9594ZM49.4871 11.3991L50.737 11.3839C50.7381 11.4801 50.7203 11.5869 50.6766 11.6921L49.5222 11.2127L48.3678 10.7333C48.2757 10.9552 48.2344 11.1863 48.2372 11.4142L49.4871 11.3991ZM49.5222 11.2127L50.6766 11.6921L50.8825 11.1962L49.7281 10.7169L48.5737 10.2375L48.3678 10.7333L49.5222 11.2127ZM49.7281 10.7169L50.8825 11.1962L51.0884 10.7004L49.934 10.221L48.7796 9.74167L48.5737 10.2375L49.7281 10.7169ZM49.934 10.221L51.0884 10.7004C51.0404 10.8161 50.9689 10.9134 50.8891 10.9867L50.0428 10.0669L49.1964 9.14702C49.02 9.30928 48.876 9.50931 48.7796 9.74167L49.934 10.221ZM50.0428 10.0669L50.8891 10.9867L51.2997 10.609L50.4533 9.68912L49.6069 8.76926L49.1964 9.14702L50.0428 10.0669ZM50.4533 9.68912L51.2997 10.609L51.7103 10.2312L50.8639 9.31136L50.0175 8.3915L49.6069 8.76926L50.4533 9.68912ZM50.8639 9.31136L51.7103 10.2312C51.8321 10.1191 51.9441 9.9891 52.0393 9.83994L50.9855 9.16756L49.9318 8.49518C49.9613 8.44887 49.9923 8.41473 50.0175 8.39151L50.8639 9.31136ZM50.9855 9.16756L52.0393 9.83993L52.3182 9.4028L51.2645 8.73043L50.2107 8.05805L49.9318 8.49518L50.9855 9.16756ZM51.2645 8.73043L52.3182 9.4028L52.5971 8.96567L51.5434 8.2933L50.4896 7.62092L50.2107 8.05805L51.2645 8.73043ZM51.5434 8.2933L52.5971 8.96567C52.6819 8.83289 52.7485 8.6947 52.7998 8.5551L51.6266 8.12364L50.4535 7.69218C50.4594 7.67594 50.4705 7.65085 50.4896 7.62093L51.5434 8.2933ZM51.6266 8.12364L52.7998 8.5551L52.9926 8.03083L51.8194 7.59937L50.6463 7.16791L50.4535 7.69218L51.6266 8.12364ZM51.8194 7.59937L52.9926 8.03083L53.1854 7.50656L52.0123 7.0751L50.8391 6.64364L50.6463 7.16791L51.8194 7.59937ZM52.0123 7.0751L53.1854 7.50656C53.1451 7.61629 53.0762 7.72757 52.9778 7.82147L52.1147 6.91728L51.2516 6.01308C51.062 6.19406 50.9248 6.41056 50.8391 6.64364L52.0123 7.0751ZM52.1147 6.91728L52.9778 7.82147L53.3655 7.45139L52.5024 6.5472L51.6393 5.64301L51.2516 6.01308L52.1147 6.91728ZM52.5024 6.5472L53.3655 7.45139L53.7532 7.08132L52.8901 6.17712L52.027 5.27293L51.6393 5.64301L52.5024 6.5472ZM52.8901 6.17712L53.7532 7.08131C53.8237 7.01403 53.8913 6.94394 53.956 6.87117L53.0221 6.04038L52.0881 5.20958C52.0681 5.23206 52.0477 5.25314 52.027 5.27293L52.8901 6.17712ZM53.0221 6.04038L53.956 6.87117L54.3161 6.46635L53.3822 5.63556L52.4482 4.80476L52.0881 5.20958L53.0221 6.04038ZM53.3822 5.63556L54.3161 6.46635L54.6762 6.06153L53.7423 5.23074L52.8083 4.39994L52.4482 4.80476L53.3822 5.63556ZM53.7423 5.23074L54.6762 6.06153C54.6829 6.05402 54.6902 6.04677 54.6984 6.03963L53.8783 5.09626L53.0582 4.15289C52.9698 4.2298 52.8863 4.3122 52.8083 4.39995L53.7423 5.23074ZM53.8783 5.09626L54.6984 6.03963L55.1093 5.68243L54.2892 4.73907L53.4691 3.7957L53.0582 4.1529L53.8783 5.09626ZM54.2892 4.73907L55.1093 5.68243L55.5202 5.32524L54.7001 4.38187L53.88 3.4385L53.4691 3.7957L54.2892 4.73907ZM54.7001 4.38187L55.5202 5.32523C55.3262 5.49384 55.1017 5.55809 54.9239 5.56431L54.8802 4.31507L54.8366 3.06583C54.5153 3.07707 54.1706 3.18585 53.88 3.4385L54.7001 4.38187ZM54.8802 4.31507L54.9239 5.56431L55.5338 5.54298L55.4901 4.29374L55.4464 3.04451L54.8366 3.06583L54.8802 4.31507ZM55.4901 4.29374L55.5338 5.54298L56.1437 5.52165L56.1 4.27242L56.0563 3.02318L55.4464 3.04451L55.4901 4.29374ZM56.1 4.27242L56.1437 5.52165C56.6029 5.5056 57.0259 5.28157 57.2948 4.89476L56.2683 4.1814L55.2418 3.46804C55.3208 3.35446 55.4387 3.2362 55.6012 3.14832C55.7631 3.06074 55.9239 3.02781 56.0563 3.02318L56.1 4.27242ZM56.2683 4.1814L57.2948 4.89476L57.6384 4.4003L56.6119 3.68694L55.5855 2.97359L55.2418 3.46804L56.2683 4.1814ZM56.6119 3.68694L57.6384 4.4003L57.982 3.90585L56.9556 3.19249L55.9291 2.47913L55.5855 2.97359L56.6119 3.68694ZM56.9556 3.19249L57.982 3.90584C57.9223 3.99174 57.8332 4.08885 57.707 4.17096C57.5788 4.25442 57.4396 4.30447 57.3044 4.32546L57.1126 3.09026L56.9209 1.85506C56.4867 1.92246 56.1454 2.16788 55.9291 2.47913L56.9556 3.19249ZM57.1126 3.09026L57.3044 4.32546L57.8508 4.24063L57.6591 3.00543L57.4673 1.77022L56.9209 1.85506L57.1126 3.09026ZM57.6591 3.00543L57.8508 4.24063L58.3973 4.15579L58.2055 2.92059L58.0137 1.68539L57.4673 1.77022L57.6591 3.00543ZM58.2055 2.92059L58.3973 4.15579C58.436 4.14978 58.4739 4.14513 58.511 4.14174L58.3976 2.8969L58.2841 1.65206C58.1937 1.6603 58.1036 1.67144 58.0137 1.68539L58.2055 2.92059ZM58.3976 2.8969L58.511 4.14174L59.053 4.09234L58.9395 2.8475L58.8261 1.60266L58.2841 1.65206L58.3976 2.8969ZM58.9395 2.8475L59.053 4.09234L59.595 4.04293L59.4815 2.79809L59.368 1.55325L58.8261 1.60266L58.9395 2.8475ZM59.4815 2.79809L59.595 4.04293C59.8524 4.01946 60.0966 3.93725 60.314 3.80376L59.6598 2.7386L59.0057 1.67344C59.1128 1.60764 59.2381 1.5651 59.368 1.55325L59.4815 2.79809ZM59.6598 2.7386L60.314 3.80376L60.7825 3.51603L60.1283 2.45087L59.4742 1.38571L59.0057 1.67344L59.6598 2.7386ZM60.1283 2.45087L60.7825 3.51603L61.251 3.2283L60.5968 2.16314L59.9427 1.09798L59.4742 1.38571L60.1283 2.45087ZM60.5968 2.16314L61.251 3.2283C61.1714 3.27718 61.0756 3.31474 60.9705 3.33163L60.7722 2.09747L60.5739 0.863297C60.3452 0.900053 60.1325 0.981399 59.9426 1.09798L60.5968 2.16314ZM60.7722 2.09747L60.9705 3.33163L61.496 3.2472L61.2976 2.01304L61.0993 0.778867L60.5739 0.863297L60.7722 2.09747ZM61.2976 2.01304L61.496 3.2472L62.0214 3.16277L61.8231 1.92861L61.6248 0.694437L61.0993 0.778867L61.2976 2.01304ZM61.8231 1.92861L62.0214 3.16277C61.9987 3.16641 61.9769 3.16748 61.9573 3.16664L62.011 1.91779L62.0646 0.668946C61.9181 0.662653 61.771 0.670931 61.6248 0.694438L61.8231 1.92861ZM62.011 1.91779L61.9573 3.16664L62.4967 3.18981L62.5503 1.94096L62.604 0.692113L62.0646 0.668946L62.011 1.91779ZM62.5503 1.94096L62.4967 3.18981L63.036 3.21298L63.0896 1.96413L63.1433 0.71528L62.604 0.692113L62.5503 1.94096ZM63.0896 1.96413L63.036 3.21298C63.3557 3.22671 63.6513 3.14265 63.9004 2.99821L63.2734 1.91683L62.6465 0.83545C62.7774 0.759525 62.9505 0.706997 63.1433 0.71528L63.0896 1.96413ZM63.2734 1.91683L63.9004 2.99821L64.4027 2.70702L63.7757 1.62564L63.1487 0.544259L62.6465 0.835451L63.2734 1.91683ZM63.7757 1.62564L64.4027 2.70702L64.9049 2.41582L64.2779 1.33445L63.6509 0.253066L63.1487 0.544258L63.7757 1.62564ZM64.2779 1.33445L64.9049 2.41582C64.7989 2.4773 64.6581 2.52538 64.4962 2.52992L64.4612 1.28041L64.4262 0.0308962C64.138 0.0389694 63.8751 0.123073 63.6509 0.253067L64.2779 1.33445ZM64.4612 1.28041L64.4962 2.52992L65.0327 2.51489L64.9977 1.26538L64.9627 0.0158664L64.4262 0.0308962L64.4612 1.28041ZM64.9977 1.26538L65.0327 2.51489L65.5691 2.49986L65.5341 1.25035L65.4991 0.000836606L64.9627 0.0158664L64.9977 1.26538ZM65.5341 1.25035L65.5691 2.49986C65.5422 2.50061 65.5166 2.49836 65.4936 2.49407L65.7233 1.26535L65.953 0.0366371C65.804 0.00879799 65.6523 -0.00345378 65.4991 0.00083661L65.5341 1.25035ZM65.7233 1.26535L65.4936 2.49407L66.0289 2.59414L66.2586 1.36543L66.4883 0.13671L65.953 0.0366374L65.7233 1.26535ZM66.2586 1.36543L66.0289 2.59414L66.5643 2.69422L66.794 1.4655L67.0236 0.236782L66.4883 0.13671L66.2586 1.36543ZM66.794 1.4655L66.5643 2.69421C66.5991 2.70072 66.6334 2.70838 66.6673 2.71717L66.9812 1.50721L67.295 0.29725C67.2053 0.273974 67.1148 0.253821 67.0237 0.236782L66.794 1.4655ZM66.9812 1.50721L66.6673 2.71717L67.1928 2.85347L67.5066 1.6435L67.8205 0.433544L67.295 0.29725L66.9812 1.50721ZM67.5066 1.6435L67.1928 2.85347L67.7182 2.98976L68.0321 1.7798L68.3459 0.569839L67.8205 0.433544L67.5066 1.6435ZM68.0321 1.7798L67.7182 2.98976C67.9465 3.04898 68.1829 3.06043 68.4165 3.02309L68.2192 1.78876L68.0218 0.554439C68.1296 0.537212 68.2413 0.542692 68.3459 0.569839L68.0321 1.7798ZM68.2192 1.78876L68.4165 3.02309L68.9513 2.93759L68.754 1.70326L68.5566 0.468941L68.0218 0.55444L68.2192 1.78876ZM68.754 1.70326L68.9513 2.93759L69.4861 2.85209L69.2887 1.61777L69.0914 0.383442L68.5566 0.468941L68.754 1.70326ZM69.2887 1.61777L69.4861 2.85209C69.4673 2.85508 69.4459 2.85655 69.4231 2.85557L69.477 1.60673L69.5309 0.357893C69.3828 0.351504 69.2359 0.360331 69.0914 0.383442L69.2887 1.61777ZM69.477 1.60673L69.4231 2.85557L69.9551 2.87853L70.0091 1.6297L70.063 0.380858L69.5309 0.357893L69.477 1.60673ZM70.0091 1.6297L69.9551 2.87853L70.4872 2.9015L70.5411 1.65266L70.595 0.403823L70.063 0.380858L70.0091 1.6297ZM70.5411 1.65266L70.4872 2.9015C70.4833 2.90133 70.4792 2.90082 70.4754 2.90003L70.7271 1.67564L70.9788 0.451243C70.8522 0.425227 70.7241 0.409394 70.595 0.403823L70.5411 1.65266ZM70.7271 1.67564L70.4754 2.90003L70.997 3.00728L71.2488 1.78288L71.5005 0.558489L70.9788 0.451243L70.7271 1.67564ZM71.2488 1.78288L70.997 3.00728L71.5187 3.11452L71.7704 1.89013L72.0221 0.665734L71.5005 0.558489L71.2488 1.78288ZM71.7704 1.89013L71.5187 3.11452C71.5607 3.12314 71.6022 3.13273 71.6434 3.14326L71.9533 1.93229L72.2632 0.721309C72.1833 0.700872 72.103 0.682348 72.0221 0.665734L71.7704 1.89013ZM71.9533 1.93229L71.6434 3.14326L72.1578 3.27491L72.4677 2.06393L72.7776 0.852956L72.2632 0.72131L71.9533 1.93229ZM72.4677 2.06393L72.1578 3.27491L72.6722 3.40655L72.9821 2.19558L73.292 0.984602L72.7776 0.852956L72.4677 2.06393ZM72.9821 2.19558L72.6722 3.40655C72.8344 3.44806 72.9987 3.46843 73.1624 3.46931L73.1691 2.21933L73.1758 0.969344C73.2112 0.969535 73.2509 0.974067 73.292 0.984602L72.9821 2.19558ZM73.1691 2.21933L73.1624 3.46931L73.7074 3.47224L73.7141 2.22225L73.7209 0.972271L73.1758 0.969344L73.1691 2.21933ZM73.7141 2.22225L73.7074 3.47224L74.2525 3.47516L74.2592 2.22518L74.2659 0.975198L73.7209 0.972271L73.7141 2.22225ZM74.2592 2.22518L74.2525 3.47516C74.1042 3.47437 73.9572 3.43507 73.8304 3.36422L74.4398 2.27287L75.0493 1.18152C74.8098 1.04778 74.5424 0.976683 74.2659 0.975198L74.2592 2.22518ZM74.4398 2.27287L73.8304 3.36421L74.309 3.63152L74.9185 2.54017L75.528 1.44883L75.0493 1.18152L74.4398 2.27287ZM74.9185 2.54017L74.309 3.63152L74.7876 3.89883L75.3971 2.80748L76.0066 1.71614L75.528 1.44883L74.9185 2.54017ZM75.3971 2.80748L74.7876 3.89882C74.8711 3.94541 74.9562 3.98886 75.0429 4.02891L75.5668 2.89396L76.0906 1.75901C76.0638 1.74665 76.0358 1.73244 76.0066 1.71614L75.3971 2.80748ZM75.5668 2.89396L75.0429 4.02891L75.5255 4.25164L76.0494 3.11669L76.5732 1.98174L76.0906 1.75901L75.5668 2.89396ZM76.0494 3.11669L75.5255 4.25164L76.0081 4.47438L76.532 3.33943L77.0558 2.20448L76.5732 1.98174L76.0494 3.11669ZM76.532 3.33943L76.0081 4.47438C76.2994 4.60883 76.5987 4.63953 76.868 4.60784L76.7219 3.3664L76.5759 2.12497C76.7054 2.10972 76.878 2.12243 77.0558 2.20448L76.532 3.33943ZM76.7219 3.3664L76.868 4.60784L77.4619 4.53795L77.3158 3.29652L77.1698 2.05508L76.5759 2.12497L76.7219 3.3664ZM77.3158 3.29652L77.4619 4.53795L78.0558 4.46807L77.9098 3.22663L77.7637 1.9852L77.1698 2.05508L77.3158 3.29652ZM77.9098 3.22663L78.0558 4.46807C77.9321 4.48263 77.7758 4.47655 77.608 4.42015C77.4386 4.36319 77.3023 4.26996 77.2019 4.16945L78.0861 3.28591L78.9704 2.40237C78.6391 2.07081 78.1949 1.93446 77.7637 1.9852L77.9098 3.22663ZM78.0861 3.28591L77.2019 4.16944L77.6074 4.57522L78.4916 3.69169L79.3758 2.80816L78.9704 2.40238L78.0861 3.28591ZM78.4916 3.69169L77.6074 4.57522L78.0128 4.981L78.8971 4.09747L79.7813 3.21394L79.3758 2.80816L78.4916 3.69169ZM78.8971 4.09747L78.0128 4.981C78.1633 5.13163 78.3457 5.2617 78.5596 5.35397L79.0547 4.2062L79.5498 3.05843C79.6489 3.1012 79.7262 3.15879 79.7813 3.21394L78.8971 4.09747ZM79.0547 4.2062L78.5596 5.35397L79.0472 5.56433L79.5423 4.41656L80.0374 3.26879L79.5498 3.05843L79.0547 4.2062ZM79.5423 4.41656L79.0472 5.56433L79.5349 5.7747L80.03 4.62693L80.5251 3.47916L80.0374 3.26879L79.5423 4.41656ZM80.03 4.62693L79.5349 5.7747C79.4571 5.74114 79.3879 5.69476 79.3312 5.6416L80.1858 4.72939L81.0404 3.81717C80.8907 3.6769 80.7177 3.56221 80.5251 3.47916L80.03 4.62693ZM80.1858 4.72939L79.3312 5.64159L79.7264 6.01184L80.581 5.09964L81.4356 4.18743L81.0404 3.81718L80.1858 4.72939ZM80.581 5.09964L79.7264 6.01185L80.1216 6.3821L80.9762 5.46989L81.8308 4.55768L81.4356 4.18743L80.581 5.09964ZM80.9762 5.46989L80.1216 6.38209C80.3401 6.58676 80.6019 6.71784 80.8775 6.77783L81.1433 5.55642L81.4092 4.33501C81.555 4.36674 81.7054 4.44013 81.8308 4.55768L80.9762 5.46989ZM81.1433 5.55642L80.8775 6.77783L81.4293 6.89792L81.6951 5.67651L81.961 4.4551L81.4092 4.33501L81.1433 5.55642ZM81.6951 5.67651L81.4293 6.89792L81.9811 7.01801L82.2469 5.7966L82.5127 4.57519L81.9609 4.4551L81.6951 5.67651ZM82.2469 5.7966L81.9811 7.01801C81.9082 7.00213 81.8275 6.97136 81.7493 6.92117L82.4241 5.86899L83.099 4.8168C82.9143 4.69835 82.7155 4.61932 82.5127 4.57519L82.2469 5.7966ZM82.4241 5.86899L81.7493 6.92117L82.2016 7.21128L82.8765 6.1591L83.5513 5.10691L83.099 4.8168L82.4241 5.86899ZM82.8765 6.1591L82.2016 7.21128L82.6539 7.50139L83.3288 6.44921L84.0036 5.39702L83.5513 5.10691L82.8765 6.1591ZM83.3288 6.44921L82.6539 7.50139C82.5152 7.41243 82.4125 7.29232 82.348 7.16937L83.4549 6.58866L84.5618 6.00796C84.4356 5.76733 84.2487 5.55424 84.0036 5.39703L83.3288 6.44921ZM83.4549 6.58866L82.348 7.16936L82.6103 7.66949L83.7173 7.0888L84.8242 6.5081L84.5618 6.00797L83.4549 6.58866ZM83.7173 7.0888L82.6103 7.6695L82.8727 8.16963L83.9797 7.58893L85.0866 7.00824L84.8242 6.5081L83.7173 7.0888ZM83.9797 7.58893L82.8727 8.16962C82.9458 8.30888 83.0365 8.44497 83.1481 8.57179L84.0864 7.74591L85.0247 6.92003C85.0557 6.95523 85.0753 6.98666 85.0866 7.00825L83.9797 7.58893ZM84.0864 7.74591L83.1481 8.57178L83.4908 8.96117L84.4292 8.13531L85.3675 7.30944L85.0248 6.92004L84.0864 7.74591ZM84.4292 8.13531L83.4908 8.96118L83.8336 9.35057L84.7719 8.5247L85.7102 7.69883L85.3675 7.30944L84.4292 8.13531ZM84.7719 8.5247L83.8336 9.35057C83.9327 9.46322 84.0414 9.56249 84.1564 9.64933L84.9096 8.65172L85.6628 7.65412C85.6748 7.66322 85.6917 7.67781 85.7102 7.69884L84.7719 8.5247ZM84.9096 8.65172L84.1564 9.64932L84.594 9.97972L85.3472 8.98212L86.1004 7.98452L85.6628 7.65413L84.9096 8.65172ZM85.3472 8.98212L84.594 9.97972L85.0316 10.3101L85.7848 9.31251L86.538 8.31491L86.1004 7.98452L85.3472 8.98212ZM85.7848 9.31251L85.0316 10.3101C84.8971 10.2086 84.7858 10.0639 84.7227 9.89365L85.8949 9.45951L87.0671 9.02536C86.9602 8.73683 86.7755 8.4942 86.538 8.31491L85.7848 9.31251ZM85.8949 9.45951L84.7227 9.89364L84.9088 10.3962L86.081 9.96208L87.2532 9.52795L87.0671 9.02537L85.8949 9.45951ZM86.081 9.96208L84.9088 10.3962L85.095 10.8988L86.2672 10.4647L87.4393 10.0305L87.2532 9.52795L86.081 9.96208ZM86.2672 10.4647L85.095 10.8988C85.1668 11.0929 85.269 11.2664 85.3916 11.4179L86.363 10.6311L87.3344 9.84441C87.373 9.89215 87.4113 9.95469 87.4394 10.0305L86.2672 10.4647ZM86.363 10.6311L85.3916 11.4179L85.7486 11.8587L86.72 11.0719L87.6914 10.2852L87.3344 9.84442L86.363 10.6311ZM86.72 11.0719L85.7486 11.8587L86.1056 12.2994L87.077 11.5127L88.0484 10.726L87.6914 10.2852L86.72 11.0719ZM87.077 11.5127L86.1056 12.2994C85.99 12.1567 85.9123 11.9704 85.8991 11.7697L87.1464 11.6876L88.3937 11.6056C88.372 11.2754 88.248 10.9725 88.0484 10.726L87.077 11.5127ZM87.1464 11.6876L85.8991 11.7696L85.9353 12.32L87.1826 12.2379L88.4299 12.1559L88.3937 11.6056L87.1464 11.6876ZM87.1826 12.2379L85.9353 12.32L85.9715 12.8703L87.2188 12.7883L88.4661 12.7062L88.4299 12.1559L87.1826 12.2379ZM87.2188 12.7883L85.9715 12.8703C85.9699 12.8461 85.9707 12.8188 85.9751 12.7902L87.2107 12.9798L88.4462 13.1693C88.4699 13.0149 88.4762 12.8599 88.4661 12.7063L87.2188 12.7883ZM87.2107 12.9798L85.9751 12.7902L85.8931 13.3249L87.1286 13.5145L88.3642 13.7041L88.4462 13.1693L87.2107 12.9798ZM87.1286 13.5145L85.8931 13.3249L85.811 13.8597L87.0466 14.0493L88.2821 14.2389L88.3642 13.7041L87.1286 13.5145ZM87.0466 14.0493L85.811 13.8597C85.7914 13.9878 85.7819 14.1169 85.7826 14.2463L87.0326 14.2393L88.2826 14.2323C88.2826 14.2342 88.2824 14.2366 88.2821 14.2389L87.0466 14.0493ZM87.0326 14.2393L85.7826 14.2463L85.7857 14.7885L87.0356 14.7815L88.2856 14.7745L88.2826 14.2323L87.0326 14.2393ZM87.0356 14.7815L85.7857 14.7885L85.7887 15.3306L87.0387 15.3236L88.2887 15.3166L88.2856 14.7745L87.0356 14.7815ZM87.0387 15.3236L85.7887 15.3306C85.7886 15.3088 85.7907 15.2849 85.7958 15.2604L87.0202 15.5118L88.2447 15.7631C88.275 15.6153 88.2895 15.466 88.2887 15.3166L87.0387 15.3236ZM87.0202 15.5118L85.7958 15.2604L85.6882 15.7844L86.9127 16.0357L88.1372 16.2871L88.2447 15.7631L87.0202 15.5118ZM86.9127 16.0357L85.6882 15.7844L85.5807 16.3084L86.8051 16.5597L88.0296 16.811L88.1372 16.2871L86.9127 16.0357ZM86.8051 16.5597L85.5807 16.3083C85.5631 16.394 85.548 16.4803 85.5354 16.5672L86.7724 16.747L88.0094 16.9268C88.0151 16.8872 88.0219 16.8486 88.0296 16.8111L86.8051 16.5597ZM86.7724 16.747L85.5354 16.5671L85.4572 17.1044L86.6942 17.2843L87.9312 17.4641L88.0094 16.9268L86.7724 16.747ZM86.6942 17.2843L85.4572 17.1045L85.3791 17.6418L86.6161 17.8216L87.8531 18.0014L87.9312 17.4641L86.6942 17.2843ZM86.6161 17.8216L85.3791 17.6417C85.3975 17.5156 85.4447 17.3976 85.511 17.2991L86.5478 17.9974L87.5846 18.6957C87.7236 18.4892 87.8164 18.254 87.8531 18.0015L86.6161 17.8216ZM86.5478 17.9974L85.511 17.2991L85.2018 17.7582L86.2386 18.4565L87.2754 19.1547L87.5845 18.6957L86.5478 17.9974ZM86.2386 18.4565L85.2018 17.7582L84.8927 18.2172L85.9294 18.9155L86.9662 19.6138L87.2754 19.1547L86.2386 18.4565ZM85.9294 18.9155L84.8927 18.2172C84.8098 18.3402 84.7383 18.4729 84.681 18.6146L85.8397 19.0834L86.9985 19.5522C86.988 19.5781 86.9764 19.5987 86.9662 19.6138L85.9294 18.9155ZM85.8397 19.0834L84.681 18.6146L84.4817 19.1072L85.6404 19.576L86.7992 20.0448L86.9985 19.5522L85.8397 19.0834ZM85.6404 19.576L84.4817 19.1072L84.2824 19.5998L85.4411 20.0686L86.5999 20.5374L86.7992 20.0448L85.6404 19.576ZM85.4411 20.0686L84.2824 19.5998C84.3257 19.4927 84.389 19.4029 84.4584 19.3344L85.3362 20.2243L86.214 21.1143C86.3764 20.9541 86.5096 20.7605 86.5999 20.5374L85.4411 20.0686ZM85.3362 20.2243L84.4585 19.3344L84.0633 19.7241L84.9411 20.614L85.8189 21.504L86.214 21.1143L85.3362 20.2243ZM84.9411 20.614L84.0633 19.7241L83.6682 20.1138L84.546 21.0038L85.4238 21.8937L85.8189 21.504L84.9411 20.614ZM84.546 21.0038L83.6682 20.1138C83.5025 20.2773 83.3673 20.476 83.2778 20.7053L84.4422 21.1598L85.6067 21.6143C85.5626 21.7273 85.4966 21.8219 85.4238 21.8937L84.546 21.0038ZM84.4422 21.1598L83.2778 20.7053L83.0847 21.1998L84.2492 21.6543L85.4136 22.1089L85.6066 21.6143L84.4422 21.1598ZM84.2492 21.6543L83.0847 21.1998L82.8917 21.6943L84.0561 22.1488L85.2206 22.6034L85.4136 22.1088L84.2492 21.6543ZM84.0561 22.1488L82.8917 21.6943C82.9151 21.6343 82.9489 21.5752 82.9922 21.5217L83.964 22.308L84.9357 23.0942C85.0565 22.9449 85.1517 22.7797 85.2206 22.6034L84.0561 22.1488ZM83.964 22.308L82.9922 21.5217L82.6628 21.9288L83.6345 22.7151L84.6063 23.5013L84.9357 23.0942L83.964 22.308ZM83.6345 22.7151L82.6628 21.9288L82.3334 22.3359L83.3051 23.1222L84.2769 23.9084L84.6063 23.5013L83.6345 22.7151ZM83.3051 23.1222L82.3334 22.3359C82.1714 22.5361 82.0699 22.7567 82.0124 22.9726L83.2203 23.2942L84.4283 23.6157C84.4064 23.6981 84.3614 23.804 84.2769 23.9084L83.3051 23.1222ZM83.2203 23.2942L82.0124 22.9726L81.8613 23.5401L83.0692 23.8617L84.2772 24.1833L84.4283 23.6158L83.2203 23.2942ZM83.0692 23.8617L81.8613 23.5402L81.7102 24.1077L82.9181 24.4293L84.126 24.7509L84.2772 24.1833L83.0692 23.8617ZM82.9181 24.4293L81.7102 24.1077C81.7431 23.9841 81.8127 23.8444 81.9317 23.7229L82.8245 24.5978L83.7174 25.4726C83.9256 25.2601 84.0576 25.0081 84.126 24.7509L82.9181 24.4293ZM82.8245 24.5978L81.9317 23.7229L81.5526 24.1098L82.4454 24.9847L83.3383 25.8595L83.7174 25.4726L82.8245 24.5978ZM82.4454 24.9847L81.5526 24.1098L81.1735 24.4968L82.0663 25.3716L82.9592 26.2464L83.3383 25.8595L82.4454 24.9847ZM82.0663 25.3716L81.1735 24.4967C81.2474 24.4213 81.3321 24.366 81.4155 24.3302L81.9083 25.479L82.401 26.6277C82.606 26.5398 82.796 26.4129 82.9591 26.2464L82.0663 25.3716ZM81.9083 25.479L81.4155 24.3302L80.899 24.5518L81.3917 25.7005L81.8845 26.8493L82.401 26.6278L81.9083 25.479ZM81.3917 25.7005L80.8989 24.5518L80.3824 24.7733L80.8752 25.9221L81.3679 27.0709L81.8845 26.8493L81.3917 25.7005ZM80.8752 25.9221L80.3824 24.7733C80.312 24.8035 80.2428 24.8343 80.1749 24.8655L80.6979 26.0009L81.2208 27.1362C81.2678 27.1146 81.3168 27.0928 81.3679 27.0709L80.8752 25.9221ZM80.6979 26.0009L80.175 24.8655L79.687 25.0903L80.2099 26.2256L80.7329 27.361L81.2208 27.1362L80.6979 26.0009ZM80.2099 26.2256L79.687 25.0903L79.199 25.315L79.722 26.4504L80.2449 27.5857L80.7329 27.361L80.2099 26.2256ZM79.722 26.4504L79.199 25.315C79.0709 25.3741 78.9476 25.4453 78.8309 25.5292L79.5609 26.544L80.2908 27.5587C80.2741 27.5707 80.2582 27.5796 80.2449 27.5857L79.722 26.4504ZM79.5609 26.544L78.831 25.5292L78.4061 25.8348L79.1361 26.8495L79.866 27.8643L80.2908 27.5587L79.5609 26.544ZM79.1361 26.8495L78.4061 25.8348L77.9813 26.1404L78.7112 27.1551L79.4412 28.1699L79.866 27.8643L79.1361 26.8495ZM78.7112 27.1551L77.9813 26.1404C77.9812 26.1405 77.9809 26.1407 77.9801 26.1411L78.5539 27.2516L79.1277 28.3621C79.2367 28.3058 79.3414 28.2417 79.4412 28.1699L78.7112 27.1551ZM78.5539 27.2516L77.9801 26.1411L77.5135 26.3822L78.0873 27.4927L78.6611 28.6032L79.1277 28.3621L78.5539 27.2516ZM78.0873 27.4927L77.5135 26.3822L77.0468 26.6233L77.6206 27.7338L78.1944 28.8444L78.6611 28.6032L78.0873 27.4927ZM77.6206 27.7338L77.0468 26.6233C76.9554 26.6705 76.8665 26.7222 76.7802 26.7781L77.4599 27.8272L78.1395 28.8763C78.1578 28.8644 78.176 28.8538 78.1944 28.8444L77.6206 27.7338ZM77.4599 27.8272L76.7802 26.7781L76.336 27.0659L77.0156 28.115L77.6952 29.1641L78.1395 28.8763L77.4599 27.8272ZM77.0156 28.115L76.336 27.0659L75.8917 27.3537L76.5714 28.4028L77.251 29.4519L77.6953 29.1641L77.0156 28.115ZM76.5714 28.4028L75.8917 27.3537C75.7662 27.435 75.652 27.5276 75.5488 27.6285L76.4228 28.5222L77.2967 29.4159C77.2871 29.4253 77.272 29.4383 77.251 29.4519L76.5714 28.4028ZM76.4228 28.5222L75.5488 27.6285L75.1509 28.0176L76.0249 28.9113L76.8988 29.805L77.2967 29.4159L76.4228 28.5222ZM76.0249 28.9113L75.1509 28.0176L74.753 28.4067L75.627 29.3004L76.5009 30.1941L76.8988 29.805L76.0249 28.9113ZM75.627 29.3004L74.753 28.4067C74.8996 28.2634 75.0898 28.1723 75.2846 28.145L75.4582 29.3829L75.6318 30.6208C75.958 30.575 76.2607 30.429 76.5009 30.1941L75.627 29.3004ZM75.4582 29.3829L75.2846 28.145L74.7264 28.2233L74.9 29.4611L75.0736 30.699L75.6318 30.6208L75.4582 29.3829ZM74.9 29.4611L74.7264 28.2233L74.1682 28.3015L74.3418 29.5394L74.5154 30.7773L75.0736 30.699L74.9 29.4611ZM74.3418 29.5394L74.1682 28.3015C73.9668 28.3298 73.7679 28.3913 73.5796 28.4897L74.1586 29.5975L74.7375 30.7053C74.6622 30.7447 74.5854 30.7675 74.5154 30.7773L74.3418 29.5394ZM74.1586 29.5975L73.5796 28.4897L73.0996 28.7405L73.6785 29.8484L74.2575 30.9562L74.7375 30.7054L74.1586 29.5975ZM73.6785 29.8484L73.0996 28.7405L72.6196 28.9914L73.1985 30.0992L73.7775 31.2071L74.2575 30.9562L73.6785 29.8484ZM73.1985 30.0992L72.6196 28.9914C72.4644 29.0725 72.3224 29.1729 72.1954 29.29L73.0425 30.2092L73.8895 31.1284C73.8576 31.1579 73.8197 31.185 73.7775 31.2071L73.1985 30.0992ZM73.0425 30.2092L72.1954 29.29L71.7912 29.6625L72.6382 30.5817L73.4853 31.501L73.8895 31.1285L73.0425 30.2092ZM72.6382 30.5817L71.7912 29.6625L71.3869 30.035L72.234 30.9542L73.0811 31.8735L73.4853 31.501L72.6382 30.5817ZM72.234 30.9542L71.3869 30.035C71.3445 30.0741 71.1555 30.2425 71.0302 30.4892L72.1449 31.055L73.2595 31.6208C73.2238 31.6911 73.1886 31.7426 73.1668 31.7724C73.1439 31.8039 73.1243 31.8269 73.1124 31.8403C73.0898 31.866 73.0762 31.8779 73.0811 31.8735L72.234 30.9542ZM72.1449 31.055L71.0303 30.4892L70.9294 30.6879L72.044 31.2537L73.1586 31.8195L73.2595 31.6208L72.1449 31.055ZM72.044 31.2537L70.8141 31.0302L70.7811 31.2122L72.0109 31.4357L73.2408 31.6593L73.2739 31.4772L72.044 31.2537ZM72.0109 31.4357L71.3643 30.366L71.2787 30.4177L71.9253 31.4875L72.5719 32.5572L72.6575 32.5055L72.0109 31.4357Z" fill="var(--stroke-0, #FD9476)"/>
</g>
</svg>
