<svg preserveAspectRatio="none" width="100%" height="100%" overflow="visible" style="display: block;" viewBox="0 0 19 12" fill="none" xmlns="http://www.w3.org/2000/svg">
<path id="Cellular Connection" fill-rule="evenodd" clip-rule="evenodd" d="M18.3206 1.09373C18.3206 0.489678 17.8649 0 17.3028 0H16.285C15.7229 0 15.2672 0.489678 15.2672 1.09373V10.5727C15.2672 11.1767 15.7229 11.6664 16.285 11.6664H17.3028C17.8649 11.6664 18.3206 11.1767 18.3206 10.5727V1.09373ZM11.227 2.33328H12.2448C12.8069 2.33328 13.2626 2.83472 13.2626 3.45326V10.5464C13.2626 11.165 12.8069 11.6664 12.2448 11.6664H11.227C10.6649 11.6664 10.2092 11.165 10.2092 10.5464V3.45326C10.2092 2.83472 10.6649 2.33328 11.227 2.33328ZM7.09362 4.861H6.07581C5.51369 4.861 5.058 5.36882 5.058 5.99524V10.5322C5.058 11.1586 5.51369 11.6664 6.07581 11.6664H7.09362C7.65574 11.6664 8.11143 11.1586 8.11143 10.5322V5.99524C8.11143 5.36882 7.65574 4.861 7.09362 4.861ZM2.03562 7.1943H1.01781C0.45569 7.1943 0 7.69486 0 8.31233V10.5484C0 11.1659 0.45569 11.6664 1.01781 11.6664H2.03562C2.59775 11.6664 3.05344 11.1659 3.05344 10.5484V8.31233C3.05344 7.69486 2.59775 7.1943 2.03562 7.1943Z" fill="var(--fill-0, black)"/>
</svg>
