<svg preserveAspectRatio="none" width="100%" height="100%" overflow="visible" style="display: block;" viewBox="0 0 45 33" fill="none" xmlns="http://www.w3.org/2000/svg">
<path id="Vector 22" d="M41.6297 26.2716C42.2918 26.0762 42.6702 25.3811 42.4748 24.719C42.2794 24.0568 41.5842 23.6785 40.9221 23.8738L41.2759 25.0727L41.6297 26.2716ZM41.18 25.101L40.8262 23.9021L40.6847 23.9439L40.5569 24.0174L41.18 25.101ZM40.325 25.5926L40.9481 26.6763L40.9481 26.6763L40.325 25.5926ZM40.082 25.7005L40.3608 26.919L40.3608 26.919L40.082 25.7005ZM39.5598 25.8199L39.281 24.6014L39.281 24.6014L39.5598 25.8199ZM39.0377 25.9394L39.3165 27.1579L39.3165 27.1579L39.0377 25.9394ZM38.8627 26.0098L39.5021 27.0839L39.5022 27.0839L38.8627 26.0098ZM38.3932 26.2893L37.7538 25.2153L37.7538 25.2153L38.3932 26.2893ZM37.9238 26.5688L38.5632 27.6429L38.5632 27.6429L37.9238 26.5688ZM37.7474 26.635L37.9695 27.8651L37.9695 27.8651L37.7474 26.635ZM37.2171 26.7308L36.9949 25.5007L36.9949 25.5007L37.2171 26.7308ZM36.6868 26.8266L36.909 28.0567L36.909 28.0567L36.6868 26.8266ZM36.497 26.8464L36.5346 28.0958L36.5346 28.0958L36.497 26.8464ZM35.9515 26.8628L35.914 25.6133L35.914 25.6133L35.9515 26.8628ZM35.4061 26.8792L35.4436 28.1286L35.4436 28.1286L35.4061 26.8792ZM35.225 26.9288L35.8281 28.0237L35.8281 28.0237L35.225 26.9288ZM34.7444 27.1935L34.1413 26.0986L34.1413 26.0986L34.7444 27.1935ZM34.2638 27.4582L34.8669 28.5531L34.8669 28.5531L34.2638 27.4582ZM34.086 27.5204L34.2914 28.7534L34.2914 28.7534L34.086 27.5204ZM33.559 27.6082L33.3536 26.3752L33.3536 26.3752L33.559 27.6082ZM33.032 27.696L33.2374 28.929L33.2374 28.929L33.032 27.696ZM32.8424 27.7069L32.783 28.9555L32.783 28.9555L32.8424 27.7069ZM32.2949 27.6808L32.3543 26.4322L32.3543 26.4322L32.2949 27.6808ZM31.7473 27.6547L31.6878 28.9033L31.6879 28.9033L31.7473 27.6547ZM31.5604 27.6756L31.8994 28.8787L31.8994 28.8787L31.5604 27.6756ZM31.0489 27.8197L30.7099 26.6165L30.7099 26.6165L31.0489 27.8197ZM30.5373 27.9638L30.8763 29.167L30.8763 29.167L30.5373 27.9638ZM30.3522 27.9885L30.3423 29.2384L30.3423 29.2384L30.3522 27.9885ZM29.8146 27.9842L29.8244 26.7343L29.8244 26.7343L29.8146 27.9842ZM29.277 27.98L29.2671 29.23L29.2672 29.23L29.277 27.98ZM29.0933 28.0182L29.5951 29.163L29.5951 29.163L29.0933 28.0182ZM28.5902 28.2387L28.0884 27.0938L28.0884 27.0938L28.5902 28.2387ZM28.0871 28.4592L28.5889 29.6041L28.5889 29.6041L28.0871 28.4592ZM27.9037 28.4961L27.8768 29.7458L27.8768 29.7458L27.9037 28.4961ZM27.3677 28.4845L27.3946 27.2348L27.3946 27.2348L27.3677 28.4845ZM26.8317 28.473L26.8047 29.7227L26.8047 29.7227L26.8317 28.473ZM26.6454 28.4945L26.9568 29.7051L26.9568 29.7051L26.6454 28.4945ZM26.1259 28.6281L25.8145 27.4175L25.8145 27.4175L26.1259 28.6281ZM25.6063 28.7618L25.9177 29.9724L25.9177 29.9724L25.6063 28.7618ZM25.421 28.7888L25.4667 30.038L25.4668 30.038L25.421 28.7888ZM24.8902 28.8082L24.8445 27.5591L24.8445 27.5591L24.8902 28.8082ZM24.3595 28.8277L24.4052 30.0768L24.4052 30.0768L24.3595 28.8277ZM24.1717 28.8261L24.1056 30.0744L24.1057 30.0744L24.1717 28.8261ZM23.6386 28.7979L23.7047 27.5496L23.7047 27.5496L23.6386 28.7979ZM23.1054 28.7696L23.0393 30.0179L23.0393 30.0179L23.1054 28.7696ZM22.9187 28.7996L23.3595 29.9693L23.3595 29.9693L22.9187 28.7996ZM22.3938 28.9974L21.953 27.8277L21.953 27.8277L22.3938 28.9974ZM21.8689 29.1951L22.3097 30.3649L22.3097 30.3649L21.8689 29.1951ZM21.6823 29.2213L21.5664 30.4659L21.5664 30.4659L21.6823 29.2213ZM21.1498 29.1717L21.2657 27.9271L21.2657 27.9271L21.1498 29.1717ZM20.6173 29.1221L20.5014 30.3667L20.5014 30.3667L20.6173 29.1221ZM20.43 29.0854L20.0717 30.283L20.0717 30.283L20.43 29.0854ZM19.9012 28.9272L20.2596 27.7297L20.2596 27.7297L19.9012 28.9272ZM19.3725 28.769L19.0141 29.9665L19.0141 29.9665L19.3725 28.769ZM19.1851 28.7515L19.3229 29.9939L19.3229 29.9939L19.1851 28.7515ZM18.6523 28.8106L18.5145 27.5682L18.5145 27.5682L18.6523 28.8106ZM18.1195 28.8697L18.2573 30.1121L18.2573 30.1121L18.1195 28.8697ZM17.9318 28.8782L17.9063 30.128L17.9063 30.128L17.9318 28.8782ZM17.4011 28.8674L17.4266 27.6177L17.4266 27.6177L17.4011 28.8674ZM16.8704 28.8566L16.8449 30.1063L16.8449 30.1063L16.8704 28.8566ZM16.6852 28.8326L16.3915 30.0476L16.3915 30.0476L16.6852 28.8326ZM16.1664 28.7072L16.4601 27.4922L16.4601 27.4922L16.1664 28.7072ZM15.6476 28.5818L15.3539 29.7968L15.3539 29.7968L15.6476 28.5818ZM15.4611 28.5614L15.4842 29.8112L15.4843 29.8112L15.4611 28.5614ZM14.9229 28.5714L14.8997 27.3216L14.8997 27.3216L14.9229 28.5714ZM14.3847 28.5814L14.4078 29.8312L14.4078 29.8312L14.3847 28.5814ZM14.1947 28.5792L14.1429 29.8281L14.1429 29.8281L14.1947 28.5792ZM13.6565 28.5568L13.7083 27.3079L13.7083 27.3079L13.6565 28.5568ZM13.1182 28.5345L13.0664 29.7834L13.0664 29.7834L13.1182 28.5345ZM12.9336 28.5002L12.5327 29.6842L12.5327 29.6842L12.9336 28.5002ZM12.4259 28.3283L12.8268 27.1443L12.8268 27.1443L12.4259 28.3283ZM11.9182 28.1564L11.5172 29.3403L11.5173 29.3403L11.9182 28.1564ZM11.7452 28.0781L11.1225 29.162L11.1225 29.162L11.7452 28.0781ZM11.2729 27.8068L11.8956 26.7229L11.8956 26.7229L11.2729 27.8068ZM10.8006 27.5354L10.1779 28.6193L10.1779 28.6193L10.8006 27.5354ZM10.6231 27.475L10.4572 28.7139L10.4572 28.7139L10.6231 27.475ZM10.0897 27.4035L10.2556 26.1646L10.2556 26.1646L10.0897 27.4035ZM9.55618 27.3321L9.39026 28.571L9.39027 28.571L9.55618 27.3321ZM9.37417 27.2862L8.93183 28.4553L8.93184 28.4553L9.37417 27.2862ZM8.87622 27.0978L9.31855 25.9287L9.31855 25.9287L8.87622 27.0978ZM8.37827 26.9094L7.93594 28.0786L7.93594 28.0786L8.37827 26.9094ZM8.2131 26.8219L7.49512 27.8452L7.49513 27.8452L8.2131 26.8219ZM7.77506 26.5146L8.49304 25.4914L8.49304 25.4914L7.77506 26.5146ZM7.33702 26.2072L6.61904 27.2305L6.61905 27.2305L7.33702 26.2072ZM7.18135 26.1039L6.51759 27.1631L6.5176 27.1631L7.18135 26.1039ZM6.73723 25.8256L7.401 24.7664L7.40099 24.7664L6.73723 25.8256ZM6.29312 25.5473L5.62935 26.6065L5.62936 26.6065L6.29312 25.5473ZM6.13036 25.4559L5.57041 26.5734L5.57042 26.5734L6.13036 25.4559ZM5.65218 25.2163L6.21213 24.0987L6.21213 24.0987L5.65218 25.2163ZM5.174 24.9767L4.61404 26.0943L4.61405 26.0943L5.174 24.9767ZM5.02229 24.8693L4.15333 25.7679L4.15333 25.7679L5.02229 24.8693ZM4.64076 24.5003L5.50972 23.6018L5.50971 23.6018L4.64076 24.5003ZM4.25923 24.1314L3.39028 25.03L3.39028 25.03L4.25923 24.1314ZM4.11986 24.0037L3.29986 24.9471L3.29987 24.9471L4.11986 24.0037ZM3.71161 23.6488L4.53161 22.7054L4.53161 22.7054L3.71161 23.6488ZM3.30336 23.294L2.48335 24.2374L2.48336 24.2375L3.30336 23.294ZM3.18753 23.1469L2.07768 23.722L2.07768 23.722L3.18753 23.1469ZM2.93943 22.6681L4.04928 22.093L4.04928 22.093L2.93943 22.6681ZM2.69133 22.1893L1.58148 22.7644L1.58149 22.7644L2.69133 22.1893ZM2.59724 22.0236L1.53477 22.6822L1.53478 22.6822L2.59724 22.0236ZM2.31211 21.5636L3.37457 20.9051L3.37457 20.9051L2.31211 21.5636ZM2.02698 21.1036L0.964516 21.7622L0.964519 21.7622L2.02698 21.1036ZM1.97991 20.9235L3.22924 20.9645L3.22924 20.9645L1.97991 20.9235ZM1.99831 20.3627L0.74898 20.3217L0.74898 20.3217L1.99831 20.3627ZM2.01671 19.802L3.26604 19.843L3.26604 19.843L2.01671 19.802ZM1.96185 19.6179L0.92955 20.3228L0.929552 20.3228L1.96185 19.6179ZM1.63257 19.1357L2.66486 18.4308L2.66486 18.4308L1.63257 19.1357ZM1.30329 18.6535L0.270991 19.3584L0.270994 19.3584L1.30329 18.6535ZM1.25045 18.4719L2.49859 18.54L2.49859 18.54L1.25045 18.4719ZM1.28031 17.9249L0.0321672 17.8567L0.0321672 17.8567L1.28031 17.9249ZM1.31017 17.3779L2.55831 17.446L2.55831 17.446L1.31017 17.3779ZM1.32941 17.187L2.56592 17.3702L2.56592 17.3702L1.32941 17.187ZM1.40858 16.6525L0.172072 16.4693L0.172072 16.4693L1.40858 16.6525ZM1.48775 16.118L2.72426 16.3011L2.72426 16.3011L1.48775 16.118ZM1.53792 15.9353L2.69459 16.4092L2.69459 16.4092L1.53792 15.9353ZM1.74303 15.4347L0.586354 14.9608L0.586354 14.9608L1.74303 15.4347ZM1.94813 14.9341L3.10481 15.4081L3.10481 15.408L1.94813 14.9341ZM1.97125 14.7483L0.732353 14.9145L0.732353 14.9145L1.97125 14.7483ZM1.89716 14.196L3.13606 14.0298L3.13606 14.0298L1.89716 14.196ZM1.82306 13.6437L0.584158 13.8099L0.584158 13.8099L1.82306 13.6437ZM1.83427 13.4532L3.04376 13.7688L3.04376 13.7688L1.83427 13.4532ZM1.9719 12.9258L0.762412 12.6101L0.762412 12.6101L1.9719 12.9258ZM2.10954 12.3984L3.31903 12.714L3.31903 12.714L2.10954 12.3984ZM2.19561 12.228L3.17203 13.0084L3.17203 13.0084L2.19561 12.228ZM2.54573 11.79L1.5693 11.0095L1.5693 11.0095L2.54573 11.79ZM2.89584 11.3519L3.87226 12.1324L3.87226 12.1324L2.89584 11.3519ZM2.9946 11.1905L4.13903 11.6932L4.13903 11.6932L2.9946 11.1905ZM3.20412 10.7135L2.05968 10.2108L2.05968 10.2108L3.20412 10.7135ZM3.41364 10.2366L4.55807 10.7394L4.55807 10.7394L3.41364 10.2366ZM3.46967 10.0562L4.69589 10.2988L4.69589 10.2988L3.46967 10.0562ZM3.57764 9.51054L2.35142 9.26788L2.35142 9.26788L3.57764 9.51054ZM3.68562 8.96492L4.91184 9.20758L4.91184 9.20758L3.68562 8.96492ZM3.76212 8.79362L4.75456 9.55359L4.75456 9.55359L3.76212 8.79362ZM4.08761 8.36856L3.09517 7.60858L3.09517 7.60858L4.08761 8.36856ZM4.41311 7.9435L5.40555 8.70347L5.40555 8.70347L4.41311 7.9435ZM4.52265 7.78805L5.57176 8.46766L5.57176 8.46766L4.52265 7.78805ZM4.8179 7.33228L3.76879 6.65267L3.76878 6.65267L4.8179 7.33228ZM5.11314 6.8765L6.16226 7.55611L6.16226 7.55611L5.11314 6.8765ZM5.22766 6.72301L6.17811 7.53488L6.17811 7.53488L5.22766 6.72301ZM5.58133 6.30897L4.63088 5.49709L4.63088 5.49709L5.58133 6.30897ZM5.935 5.89493L6.88545 6.70681L6.88545 6.7068L5.935 5.89493ZM6.10337 5.8028L6.32474 7.03304L6.32475 7.03304L6.10337 5.8028ZM6.70376 5.69476L6.48238 4.46452L6.48238 4.46452L6.70376 5.69476ZM7.30416 5.58672L7.52554 6.81696L7.52554 6.81696L7.30416 5.58672ZM7.45836 5.47279L8.57253 6.03948L8.57253 6.03948L7.45836 5.47279ZM7.73176 4.93526L6.61759 4.36857L6.61759 4.36858L7.73176 4.93526ZM8.00516 4.39772L9.11932 4.96441L9.11933 4.9644L8.00516 4.39772ZM8.14696 4.27533L8.49987 5.47448L8.49987 5.47448L8.14696 4.27533ZM8.67713 4.1193L8.32422 2.92015L8.32422 2.92015L8.67713 4.1193ZM9.20731 3.96327L9.56022 5.16241L9.56022 5.16241L9.20731 3.96327ZM9.39445 3.91501L9.66472 5.13544L9.66472 5.13544L9.39445 3.91501ZM9.92476 3.79757L9.65449 2.57714L9.65449 2.57714L9.92476 3.79757ZM10.4551 3.68013L10.7253 4.90056L10.7253 4.90056L10.4551 3.68013ZM10.6245 3.59884L11.4046 4.57554L11.4046 4.57554L10.6245 3.59884ZM11.0541 3.25568L10.274 2.27898L10.274 2.27898L11.0541 3.25568ZM11.4838 2.91251L12.2639 3.88921L12.2639 3.88921L11.4838 2.91251ZM11.65 2.82604L11.9944 4.02767L11.9944 4.02766L11.65 2.82604ZM12.1624 2.67919L11.818 1.47756L11.818 1.47756L12.1624 2.67919ZM12.6748 2.53234L13.0192 3.73396L13.0192 3.73396L12.6748 2.53234ZM12.8601 2.49942L12.9521 3.74602L12.9521 3.74602L12.8601 2.49942ZM13.3975 2.45973L13.3054 1.21313L13.3054 1.21313L13.3975 2.45973ZM13.9349 2.42005L14.027 3.66665L14.027 3.66665L13.9349 2.42005ZM14.1118 2.35182L14.8591 3.35387L14.8591 3.35386L14.1118 2.35182ZM14.5771 2.00488L13.8298 1.00283L13.8298 1.00283L14.5771 2.00488ZM15.0423 1.65793L15.7896 2.65998L15.7896 2.65997L15.0423 1.65793ZM15.2183 1.58326L15.3955 2.82064L15.3955 2.82064L15.2183 1.58326ZM15.7506 1.50704L15.5734 0.269659L15.5734 0.26966L15.7506 1.50704ZM16.2829 1.43082L16.4601 2.6682L16.4601 2.6682L16.2829 1.43082ZM16.4726 1.4242L16.5615 0.177364L16.5615 0.177364L16.4726 1.4242ZM17.015 1.46288L16.9261 2.70971L16.9261 2.70971L17.015 1.46288ZM17.5575 1.50156L17.6464 0.254724L17.6464 0.254724L17.5575 1.50156ZM17.7481 1.52168L17.9216 0.283778L17.9216 0.283777L17.7481 1.52168ZM18.2858 1.59703L18.1123 2.83493L18.1123 2.83493L18.2858 1.59703ZM18.8234 1.67237L18.9969 0.434471L18.9969 0.434471L18.8234 1.67237ZM19.0104 1.65976L19.3488 2.86309L19.3488 2.86309L19.0104 1.65976ZM19.5325 1.51295L19.1941 0.309624L19.1941 0.309625L19.5325 1.51295ZM20.0546 1.36614L20.393 2.56946L20.393 2.56946L20.0546 1.36614ZM20.2403 1.33319L20.3341 2.57966L20.3341 2.57966L20.2403 1.33319ZM20.7708 1.29328L20.677 0.0468036L20.677 0.0468036L20.7708 1.29328ZM21.3012 1.25338L21.395 2.49985L21.395 2.49985L21.3012 1.25338ZM21.4885 1.25398L21.5902 0.00812658L21.5902 0.00812651L21.4885 1.25398ZM22.0192 1.29731L21.9175 2.54317L21.9175 2.54317L22.0192 1.29731ZM22.5499 1.34064L22.6516 0.0947903L22.6516 0.0947903L22.5499 1.34064ZM22.7366 1.35999L22.8926 0.119763L22.8926 0.119763L22.7366 1.35999ZM23.2637 1.42629L23.1077 2.66652L23.1077 2.66652L23.2637 1.42629ZM23.7909 1.49259L23.9469 0.252363L23.9468 0.252363L23.7909 1.49259ZM23.9794 1.4923L24.1352 2.73255L24.1352 2.73255L23.9794 1.4923ZM24.5207 1.42432L24.365 0.184057L24.365 0.184057L24.5207 1.42432ZM25.0621 1.35634L25.2178 2.59659L25.2178 2.59659L25.0621 1.35634ZM25.2476 1.37953L25.7028 0.215371L25.7028 0.215369L25.2476 1.37953ZM25.7576 1.57895L25.3024 2.74311L25.3024 2.74311L25.7576 1.57895ZM26.2676 1.77837L26.7228 0.614212L26.7228 0.614211L26.2676 1.77837ZM26.4475 1.84017L26.8022 0.641569L26.8022 0.641568L26.4475 1.84017ZM26.9569 1.99094L26.6021 3.18955L26.6021 3.18955L26.9569 1.99094ZM27.4663 2.14172L27.821 0.943117L27.821 0.943116L27.4663 2.14172ZM27.6581 2.14009L27.9919 3.34471L27.9919 3.3447L27.6581 2.14009ZM28.2356 1.98009L27.9018 0.775471L27.9018 0.775471L28.2356 1.98009ZM28.813 1.82008L29.1468 3.0247L29.1468 3.0247L28.813 1.82008ZM28.9974 1.85072L29.7236 0.833257L29.7236 0.833253L28.9974 1.85072ZM29.4649 2.18434L28.7388 3.2018L28.7388 3.2018L29.4649 2.18434ZM29.9324 2.51795L30.6585 1.50049L30.6585 1.50049L29.9324 2.51795ZM30.1059 2.59789L30.3878 1.38009L30.3878 1.38009L30.1059 2.59789ZM30.6217 2.71728L30.3398 3.93508L30.3398 3.93508L30.6217 2.71728ZM31.1374 2.83667L31.4193 1.61887L31.4193 1.61887L31.1374 2.83667ZM31.3099 2.90826L31.9689 1.8461L31.9689 1.84609L31.3099 2.90826ZM31.7713 3.19456L31.1123 4.25673L31.1123 4.25673L31.7713 3.19456ZM32.2328 3.48086L32.8918 2.4187L32.8918 2.41869L32.2328 3.48086ZM32.4143 3.53116L32.417 4.78116L32.417 4.78116L32.4143 3.53116ZM32.9814 3.52991L32.9786 2.27991L32.9786 2.27991L32.9814 3.52991ZM33.5485 3.52866L33.5513 4.77865L33.5513 4.77865L33.5485 3.52866ZM33.7382 3.55871L34.1384 2.37451L34.1384 2.37451L33.7382 3.55871ZM34.2458 3.73027L33.8456 4.91447L33.8456 4.91447L34.2458 3.73027ZM34.7534 3.90183L35.1536 2.71763L35.1536 2.71763L34.7534 3.90183ZM34.9115 4.00434L35.8182 3.14384L35.8182 3.14383L34.9115 4.00434ZM35.3 4.41364L34.3933 5.27414L34.3933 5.27414L35.3 4.41364ZM35.6885 4.82294L36.5951 3.96245L36.5951 3.96244L35.6885 4.82294ZM35.8371 4.94224L36.4706 3.8647L36.4706 3.8647L35.8371 4.94224ZM36.2906 5.20892L35.657 6.28645L35.657 6.28645L36.2906 5.20892ZM36.7442 5.4756L37.3777 4.39807L37.3777 4.39807L36.7442 5.4756ZM36.9178 5.54973L37.2649 4.34889L37.2649 4.34889L36.9178 5.54973ZM37.4485 5.70313L37.1014 6.90397L37.1014 6.90397L37.4485 5.70313ZM37.9792 5.85652L38.3263 4.65568L38.3263 4.65568L37.9792 5.85652ZM38.1397 5.95082L39.0263 5.0697L39.0263 5.06969L38.1397 5.95082ZM38.5183 6.3318L37.6317 7.21293L37.6317 7.21293L38.5183 6.3318ZM38.8969 6.71278L39.7835 5.83166L39.7835 5.83166L38.8969 6.71278ZM39.0558 6.81797L39.5321 5.66228L39.5321 5.66228L39.0558 6.81797ZM39.5777 7.03305L39.1013 8.18874L39.1013 8.18874L39.5777 7.03305ZM40.0995 7.24814L40.5758 6.09245L40.5758 6.09245L40.0995 7.24814ZM40.2484 7.36368L41.257 6.62528L41.257 6.62527L40.2484 7.36368ZM40.5703 7.80332L39.5617 8.54171L39.5617 8.54172L40.5703 7.80332ZM40.8921 8.24296L41.9007 7.50457L41.9007 7.50456L40.8921 8.24296ZM40.9927 8.40527L42.1034 7.83189L42.1034 7.83188L40.9927 8.40527ZM41.2405 8.88536L40.1298 9.45874L40.1298 9.45875L41.2405 8.88536ZM41.4883 9.36546L42.5991 8.79209L42.5991 8.79208L41.4883 9.36546ZM41.5912 9.52472L42.5704 8.74782L42.5704 8.74781L41.5912 9.52472ZM41.9263 9.94708L40.947 10.724L40.947 10.724L41.9263 9.94708ZM42.2614 10.3694L43.2406 9.59255L43.2406 9.59254L42.2614 10.3694ZM42.3571 10.5323L43.5119 10.0538L43.5119 10.0538L42.3571 10.5323ZM42.5643 11.0325L41.4095 11.5109L41.4095 11.5109L42.5643 11.0325ZM42.7716 11.5327L43.9264 11.0543L43.9264 11.0543L42.7716 11.5327ZM42.8389 11.7141L44.0258 11.3219L44.0258 11.3219L42.8389 11.7141ZM43.0133 12.2419L41.8265 12.6341L41.8265 12.6341L43.0133 12.2419ZM43.1877 12.7696L44.3746 12.3773L44.3746 12.3773L43.1877 12.7696ZM43.1938 12.9587L44.4043 13.2705L44.4043 13.2705L43.1938 12.9587ZM43.0536 13.5029L41.8431 13.1911L41.8431 13.1911L43.0536 13.5029ZM42.9135 14.047L44.124 14.3588L44.124 14.3588L42.9135 14.047ZM42.8731 14.2368L44.1061 14.4425L44.1061 14.4425L42.8731 14.2368ZM42.7844 14.7683L41.5515 14.5627L41.5515 14.5627L42.7844 14.7683ZM42.6957 15.2999L43.9287 15.5056L43.9287 15.5056L42.6957 15.2999ZM42.6256 15.4755L43.6659 16.1685L43.6659 16.1685L42.6256 15.4755ZM42.3166 15.9393L41.2763 15.2463L41.2763 15.2463L42.3166 15.9393ZM42.0076 16.4032L43.0479 17.0962L43.048 17.0962L42.0076 16.4032ZM41.9391 16.5779L43.1752 16.764L43.1752 16.764L41.9391 16.5779ZM41.8599 17.1041L40.6238 16.9179L40.6238 16.918L41.8599 17.1041ZM41.7806 17.6303L43.0167 17.8165L43.0167 17.8165L41.7806 17.6303ZM41.7272 17.8074L42.8595 18.3371L42.8595 18.3371L41.7272 17.8074ZM41.5041 18.2844L40.3719 17.7547L40.3719 17.7547L41.5041 18.2844ZM41.2809 18.7614L42.4131 19.2912L42.4131 19.2911L41.2809 18.7614ZM41.2417 18.9488L42.4917 18.947L42.4917 18.947L41.2417 18.9488ZM41.2425 19.5338L39.9925 19.5356L39.9925 19.5356L41.2425 19.5338ZM41.2434 20.1187L42.4934 20.1168L42.4934 20.1168L41.2434 20.1187ZM41.1975 20.3056L42.293 20.9077L42.293 20.9077L41.1975 20.3056ZM40.9368 20.78L39.8414 20.1779L39.8414 20.1779L40.9368 20.78ZM40.6761 21.2543L41.7715 21.8564L41.7716 21.8564L40.6761 21.2543ZM40.5532 21.4008L41.3434 22.3693L41.3434 22.3693L40.5532 21.4008ZM40.1172 21.7565L39.327 20.7879L39.327 20.788L40.1172 21.7565ZM39.6812 22.1122L40.4714 23.0807L40.4714 23.0807L39.6812 22.1122ZM39.5325 22.2363L40.3444 23.1867L40.3445 23.1867L39.5325 22.2363ZM39.1258 22.5837L38.3139 21.6333L38.3139 21.6333L39.1258 22.5837ZM38.7192 22.9311L39.5311 23.8815L39.5311 23.8815L38.7192 22.9311ZM38.5893 23.0637L39.5582 23.8535L39.5582 23.8534L38.5893 23.0637ZM38.2599 23.4678L37.291 22.678L37.291 22.678L38.2599 23.4678ZM37.9305 23.8719L38.8994 24.6617L38.8995 24.6616L37.9305 23.8719ZM37.8031 24.0034L38.6225 24.9473L38.6225 24.9473L37.8031 24.0034ZM37.4102 24.3445L36.5907 23.4005L36.5907 23.4005L37.4102 24.3445ZM37.0173 24.6855L37.8367 25.6295L37.8367 25.6295L37.0173 24.6855ZM36.8821 24.8105L37.7586 25.7017L37.7586 25.7017L36.8821 24.8105ZM36.5089 25.1775L35.6324 24.2863L35.6324 24.2863L36.5089 25.1775ZM36.1357 25.5446L37.0122 26.4358L37.0122 26.4358L36.1357 25.5446ZM36.0108 25.6876L37.0087 26.4403L37.0088 26.4403L36.0108 25.6876ZM35.6762 26.1311L34.6783 25.3784L34.6783 25.3784L35.6762 26.1311ZM35.3417 26.5747L36.3396 27.3274L36.3396 27.3274L35.3417 26.5747ZM35.186 26.6744L35.4569 27.8947L35.4569 27.8947L35.186 26.6744ZM34.6383 26.796L34.3674 25.5757L34.3674 25.5757L34.6383 26.796ZM34.0906 26.9175L34.3615 28.1378L34.3615 28.1378L34.0906 26.9175ZM33.9111 26.9805L34.4715 28.0979L34.4715 28.0979L33.9111 26.9805ZM33.4417 27.216L32.8813 26.0986L32.8813 26.0986L33.4417 27.216ZM32.9722 27.4514L33.5325 28.5688L33.5325 28.5688L32.9722 27.4514ZM32.8116 27.5454L33.511 28.5815L33.511 28.5815L32.8116 27.5454ZM32.3709 27.8429L31.6715 26.8069L31.6715 26.8069L32.3709 27.8429ZM31.9302 28.1404L32.6296 29.1765L32.6296 29.1764L31.9302 28.1404ZM31.7786 28.2557L32.5881 29.2081L32.5881 29.2081L31.7786 28.2557ZM31.36 28.6115L30.5504 27.659L30.5504 27.659L31.36 28.6115ZM30.9414 28.9673L31.7509 29.9197L31.7509 29.9197L30.9414 28.9673ZM30.7725 29.0488L31.0144 30.2752L31.0144 30.2752L30.7725 29.0488ZM30.2343 29.155L29.9924 27.9286L29.9924 27.9286L30.2343 29.155ZM29.6961 29.2611L29.938 30.4875L29.9381 30.4875L29.6961 29.2611ZM29.51 29.3096L29.8974 30.498L29.8974 30.498L29.51 29.3096ZM28.9933 29.478L28.6059 28.2895L28.6059 28.2895L28.9933 29.478ZM28.4766 29.6464L28.864 30.8349L28.864 30.8349L28.4766 29.6464ZM28.3144 29.743L29.1714 30.653L29.1714 30.653L28.3144 29.743ZM27.912 30.1219L27.0551 29.2119L27.0551 29.2119L27.912 30.1219ZM27.5096 30.5009L28.3665 31.4109L28.3665 31.4109L27.5096 30.5009ZM27.3947 30.6443L28.4791 31.2661L28.4791 31.2661L27.3947 30.6443ZM27.1459 31.0783L26.0615 30.4565L26.0615 30.4565L27.1459 31.0783ZM26.8971 31.5122L27.9814 32.134L27.9814 32.134L26.8971 31.5122ZM26.8346 31.5685L25.9124 32.4123L25.9124 32.4123L26.8346 31.5685ZM26.7292 31.4533L25.5032 31.697L25.5713 32.0395L25.807 32.2971L26.7292 31.4533ZM26.6926 31.2692L27.9186 31.0255L27.5838 29.3413L26.084 30.1773L26.6926 31.2692ZM25.9966 30.226C25.3936 30.5621 25.1773 31.3235 25.5134 31.9265C25.8495 32.5295 26.6108 32.7458 27.2139 32.4097L26.6052 31.3179L25.9966 30.226ZM41.2759 25.0727L40.9221 23.8738L40.8262 23.9021L41.18 25.101L41.5337 26.2999L41.6297 26.2716L41.2759 25.0727ZM41.18 25.101L40.5569 24.0174L39.7019 24.509L40.325 25.5926L40.9481 26.6763L41.8031 26.1847L41.18 25.101ZM40.325 25.5926L39.7019 24.509C39.6785 24.5225 39.6727 24.5245 39.6818 24.5204C39.6869 24.5181 39.6992 24.5129 39.7177 24.5064C39.7358 24.5 39.7649 24.4907 39.8032 24.482L40.082 25.7005L40.3608 26.919C40.6049 26.8631 40.8142 26.7532 40.9481 26.6763L40.325 25.5926ZM40.082 25.7005L39.8032 24.482L39.281 24.6014L39.5598 25.8199L39.8386 27.0385L40.3608 26.919L40.082 25.7005ZM39.5598 25.8199L39.281 24.6014L38.7589 24.7209L39.0377 25.9394L39.3165 27.1579L39.8386 27.0385L39.5598 25.8199ZM39.0377 25.9394L38.7589 24.7209C38.5679 24.7646 38.3881 24.8376 38.2232 24.9358L38.8627 26.0098L39.5022 27.0839C39.4477 27.1163 39.3846 27.1423 39.3165 27.1579L39.0377 25.9394ZM38.8627 26.0098L38.2232 24.9358L37.7538 25.2153L38.3932 26.2893L39.0327 27.3634L39.5021 27.0839L38.8627 26.0098ZM38.3932 26.2893L37.7538 25.2153L37.2843 25.4948L37.9238 26.5688L38.5632 27.6429L39.0327 27.3634L38.3932 26.2893ZM37.9238 26.5688L37.2843 25.4948C37.3559 25.4521 37.4382 25.4207 37.5252 25.4049L37.7474 26.635L37.9695 27.8651C38.1813 27.8269 38.3812 27.7512 38.5632 27.6429L37.9238 26.5688ZM37.7474 26.635L37.5252 25.4049L36.9949 25.5007L37.2171 26.7308L37.4393 27.9609L37.9695 27.8651L37.7474 26.635ZM37.2171 26.7308L36.9949 25.5007L36.4647 25.5965L36.6868 26.8266L36.909 28.0567L37.4393 27.9609L37.2171 26.7308ZM36.6868 26.8266L36.4647 25.5965C36.464 25.5966 36.4625 25.5968 36.4594 25.5969L36.497 26.8464L36.5346 28.0958C36.6599 28.092 36.7849 28.0791 36.909 28.0567L36.6868 26.8266ZM36.497 26.8464L36.4594 25.5969L35.914 25.6133L35.9515 26.8628L35.9891 28.1122L36.5346 28.0958L36.497 26.8464ZM35.9515 26.8628L35.914 25.6133L35.3685 25.6297L35.4061 26.8792L35.4436 28.1286L35.9891 28.1122L35.9515 26.8628ZM35.4061 26.8792L35.3685 25.6297C35.1051 25.6377 34.8511 25.7077 34.6219 25.8339L35.225 26.9288L35.8281 28.0237C35.712 28.0876 35.5787 28.1245 35.4436 28.1286L35.4061 26.8792ZM35.225 26.9288L34.6219 25.8339L34.1413 26.0986L34.7444 27.1935L35.3475 28.2884L35.8281 28.0237L35.225 26.9288ZM34.7444 27.1935L34.1413 26.0986L33.6607 26.3633L34.2638 27.4582L34.8669 28.5531L35.3475 28.2884L34.7444 27.1935ZM34.2638 27.4582L33.6608 26.3633C33.7246 26.3281 33.7994 26.3009 33.8806 26.2874L34.086 27.5204L34.2914 28.7534C34.4966 28.7192 34.69 28.6506 34.8669 28.5531L34.2638 27.4582ZM34.086 27.5204L33.8806 26.2874L33.3536 26.3752L33.559 27.6082L33.7644 28.8412L34.2914 28.7534L34.086 27.5204ZM33.559 27.6082L33.3536 26.3752L32.8266 26.463L33.032 27.696L33.2374 28.929L33.7644 28.8412L33.559 27.6082ZM33.032 27.696L32.8267 26.463C32.8544 26.4584 32.88 26.4573 32.9019 26.4583L32.8424 27.7069L32.783 28.9555C32.9337 28.9626 33.0857 28.9543 33.2374 28.929L33.032 27.696ZM32.8424 27.7069L32.9019 26.4583L32.3543 26.4322L32.2949 27.6808L32.2354 28.9294L32.783 28.9555L32.8424 27.7069ZM32.2949 27.6808L32.3543 26.4322L31.8068 26.4061L31.7473 27.6547L31.6879 28.9033L32.2354 28.9294L32.2949 27.6808ZM31.7473 27.6547L31.8068 26.4061C31.6122 26.3969 31.4152 26.4178 31.2214 26.4724L31.5604 27.6756L31.8994 28.8787C31.826 28.8994 31.7535 28.9064 31.6878 28.9033L31.7473 27.6547ZM31.5604 27.6756L31.2215 26.4724L30.7099 26.6165L31.0489 27.8197L31.3878 29.0228L31.8994 28.8787L31.5604 27.6756ZM31.0489 27.8197L30.7099 26.6165L30.1984 26.7606L30.5373 27.9638L30.8763 29.167L31.3878 29.0228L31.0489 27.8197ZM30.5373 27.9638L30.1984 26.7606C30.253 26.7452 30.3088 26.7381 30.362 26.7385L30.3522 27.9885L30.3423 29.2384C30.5221 29.2399 30.7013 29.2163 30.8763 29.167L30.5373 27.9638ZM30.3522 27.9885L30.362 26.7385L29.8244 26.7343L29.8146 27.9842L29.8047 29.2342L30.3423 29.2384L30.3522 27.9885ZM29.8146 27.9842L29.8244 26.7343L29.2869 26.73L29.277 27.98L29.2672 29.23L29.8047 29.2342L29.8146 27.9842ZM29.277 27.98L29.2869 26.73C29.0437 26.7281 28.8084 26.7783 28.5915 26.8733L29.0933 28.0182L29.5951 29.163C29.4967 29.2062 29.3838 29.2309 29.2671 29.23L29.277 27.98ZM29.0933 28.0182L28.5916 26.8733L28.0884 27.0938L28.5902 28.2387L29.092 29.3835L29.5951 29.163L29.0933 28.0182ZM28.5902 28.2387L28.0884 27.0938L27.5853 27.3143L28.0871 28.4592L28.5889 29.6041L29.092 29.3835L28.5902 28.2387ZM28.0871 28.4592L27.5853 27.3143C27.6884 27.2691 27.8074 27.2437 27.9307 27.2464L27.9037 28.4961L27.8768 29.7458C28.1262 29.7512 28.3674 29.7011 28.5889 29.6041L28.0871 28.4592ZM27.9037 28.4961L27.9307 27.2464L27.3946 27.2348L27.3677 28.4845L27.3408 29.7342L27.8768 29.7458L27.9037 28.4961ZM27.3677 28.4845L27.3946 27.2348L26.8586 27.2232L26.8317 28.473L26.8047 29.7227L27.3408 29.7342L27.3677 28.4845ZM26.8317 28.473L26.8586 27.2232C26.6815 27.2194 26.5055 27.2398 26.334 27.2839L26.6454 28.4945L26.9568 29.7051C26.9075 29.7178 26.8558 29.7238 26.8047 29.7227L26.8317 28.473ZM26.6454 28.4945L26.334 27.2839L25.8145 27.4175L26.1259 28.6281L26.4373 29.8387L26.9568 29.7051L26.6454 28.4945ZM26.1259 28.6281L25.8145 27.4175L25.2949 27.5512L25.6063 28.7618L25.9177 29.9724L26.4373 29.8387L26.1259 28.6281ZM25.6063 28.7618L25.295 27.5512C25.3199 27.5448 25.3471 27.5407 25.3752 27.5396L25.421 28.7888L25.4668 30.038C25.6198 30.0323 25.7706 30.0102 25.9177 29.9724L25.6063 28.7618ZM25.421 28.7888L25.3753 27.5396L24.8445 27.5591L24.8902 28.8082L24.936 30.0574L25.4667 30.038L25.421 28.7888ZM24.8902 28.8082L24.8445 27.5591L24.3137 27.5785L24.3595 28.8277L24.4052 30.0768L24.936 30.0574L24.8902 28.8082ZM24.3595 28.8277L24.3138 27.5785C24.2888 27.5794 24.2635 27.5792 24.2378 27.5779L24.1717 28.8261L24.1057 30.0744C24.2054 30.0796 24.3053 30.0805 24.4052 30.0768L24.3595 28.8277ZM24.1717 28.8261L24.2378 27.5779L23.7047 27.5496L23.6386 28.7979L23.5725 30.0461L24.1056 30.0744L24.1717 28.8261ZM23.6386 28.7979L23.7047 27.5496L23.1715 27.5214L23.1054 28.7696L23.0393 30.0179L23.5725 30.0461L23.6386 28.7979ZM23.1054 28.7696L23.1715 27.5214C22.9275 27.5085 22.693 27.5488 22.4779 27.6299L22.9187 28.7996L23.3595 29.9693C23.2678 30.0038 23.1578 30.0242 23.0393 30.0179L23.1054 28.7696ZM22.9187 28.7996L22.4779 27.6299L21.953 27.8277L22.3938 28.9974L22.8346 30.1671L23.3595 29.9693L22.9187 28.7996ZM22.3938 28.9974L21.953 27.8277L21.4281 28.0254L21.8689 29.1951L22.3097 30.3649L22.8346 30.1671L22.3938 28.9974ZM21.8689 29.1951L21.4282 28.0254C21.535 27.9852 21.6628 27.9641 21.7982 27.9767L21.6823 29.2213L21.5664 30.4659C21.8271 30.4902 22.0794 30.4517 22.3097 30.3649L21.8689 29.1951ZM21.6823 29.2213L21.7982 27.9767L21.2657 27.9271L21.1498 29.1717L21.0339 30.4163L21.5664 30.4659L21.6823 29.2213ZM21.1498 29.1717L21.2657 27.9271L20.7332 27.8775L20.6173 29.1221L20.5014 30.3667L21.0339 30.4163L21.1498 29.1717ZM20.6173 29.1221L20.7332 27.8775C20.7553 27.8796 20.774 27.8836 20.7883 27.8879L20.43 29.0854L20.0717 30.283C20.2104 30.3245 20.354 30.353 20.5014 30.3667L20.6173 29.1221ZM20.43 29.0854L20.7883 27.8879L20.2596 27.7297L19.9012 28.9272L19.5429 30.1248L20.0717 30.283L20.43 29.0854ZM19.9012 28.9272L20.2596 27.7297L19.7308 27.5715L19.3725 28.769L19.0141 29.9665L19.5429 30.1248L19.9012 28.9272ZM19.3725 28.769L19.7308 27.5715C19.5127 27.5062 19.2817 27.4831 19.0473 27.5091L19.1851 28.7515L19.3229 29.9939C19.2139 30.006 19.1077 29.9946 19.0141 29.9665L19.3725 28.769ZM19.1851 28.7515L19.0473 27.5091L18.5145 27.5682L18.6523 28.8106L18.7901 30.053L19.3229 29.9939L19.1851 28.7515ZM18.6523 28.8106L18.5145 27.5682L17.9817 27.6273L18.1195 28.8697L18.2573 30.1121L18.7901 30.053L18.6523 28.8106ZM18.1195 28.8697L17.9817 27.6273C17.9727 27.6283 17.9646 27.6287 17.9573 27.6285L17.9318 28.8782L17.9063 30.128C18.0238 30.1304 18.1409 30.125 18.2573 30.1121L18.1195 28.8697ZM17.9318 28.8782L17.9573 27.6285L17.4266 27.6177L17.4011 28.8674L17.3756 30.1172L17.9063 30.128L17.9318 28.8782ZM17.4011 28.8674L17.4266 27.6177L16.8959 27.6069L16.8704 28.8566L16.8449 30.1063L17.3756 30.1172L17.4011 28.8674ZM16.8704 28.8566L16.8959 27.6069C16.9243 27.6074 16.9525 27.6112 16.9789 27.6176L16.6852 28.8326L16.3915 30.0476C16.5399 30.0835 16.6916 30.1032 16.8449 30.1063L16.8704 28.8566ZM16.6852 28.8326L16.9789 27.6176L16.4601 27.4922L16.1664 28.7072L15.8727 29.9222L16.3915 30.0476L16.6852 28.8326ZM16.1664 28.7072L16.4601 27.4922L15.9413 27.3668L15.6476 28.5818L15.3539 29.7968L15.8727 29.9222L16.1664 28.7072ZM15.6476 28.5818L15.9413 27.3668C15.7757 27.3267 15.607 27.3085 15.4379 27.3116L15.4611 28.5614L15.4843 29.8112C15.4418 29.812 15.3975 29.8073 15.3539 29.7968L15.6476 28.5818ZM15.4611 28.5614L15.4379 27.3116L14.8997 27.3216L14.9229 28.5714L14.946 29.8212L15.4842 29.8112L15.4611 28.5614ZM14.9229 28.5714L14.8997 27.3216L14.3615 27.3316L14.3847 28.5814L14.4078 29.8312L14.946 29.8212L14.9229 28.5714ZM14.3847 28.5814L14.3615 27.3316C14.3232 27.3323 14.2849 27.3319 14.2465 27.3303L14.1947 28.5792L14.1429 29.8281C14.2312 29.8318 14.3195 29.8328 14.4078 29.8312L14.3847 28.5814ZM14.1947 28.5792L14.2466 27.3303L13.7083 27.3079L13.6565 28.5568L13.6046 29.8058L14.1429 29.8281L14.1947 28.5792ZM13.6565 28.5568L13.7083 27.3079L13.1701 27.2856L13.1182 28.5345L13.0664 29.7834L13.6046 29.8058L13.6565 28.5568ZM13.1182 28.5345L13.1701 27.2856C13.225 27.2879 13.2811 27.2981 13.3346 27.3163L12.9336 28.5002L12.5327 29.6842C12.7057 29.7428 12.8848 29.7759 13.0664 29.7834L13.1182 28.5345ZM12.9336 28.5002L13.3346 27.3163L12.8268 27.1443L12.4259 28.3283L12.025 29.5122L12.5327 29.6842L12.9336 28.5002ZM12.4259 28.3283L12.8268 27.1443L12.3191 26.9724L11.9182 28.1564L11.5173 29.3403L12.025 29.5123L12.4259 28.3283ZM11.9182 28.1564L12.3191 26.9724C12.3376 26.9787 12.3541 26.9863 12.3679 26.9943L11.7452 28.0781L11.1225 29.162C11.2474 29.2338 11.3793 29.2936 11.5172 29.3403L11.9182 28.1564ZM11.7452 28.0781L12.3679 26.9943L11.8956 26.7229L11.2729 27.8068L10.6502 28.8906L11.1225 29.162L11.7452 28.0781ZM11.2729 27.8068L11.8956 26.7229L11.4233 26.4516L10.8006 27.5354L10.1779 28.6193L10.6502 28.8906L11.2729 27.8068ZM10.8006 27.5354L11.4233 26.4516C11.2288 26.3398 11.0147 26.2662 10.789 26.236L10.6231 27.475L10.4572 28.7139C10.3572 28.7005 10.2614 28.6673 10.1779 28.6193L10.8006 27.5354ZM10.6231 27.475L10.7891 26.236L10.2556 26.1646L10.0897 27.4035L9.92375 28.6425L10.4572 28.7139L10.6231 27.475ZM10.0897 27.4035L10.2556 26.1646L9.72209 26.0931L9.55618 27.3321L9.39027 28.571L9.92376 28.6425L10.0897 27.4035ZM9.55618 27.3321L9.7221 26.0931C9.75279 26.0972 9.78492 26.1052 9.81649 26.1171L9.37417 27.2862L8.93184 28.4553C9.08058 28.5116 9.23405 28.5501 9.39026 28.571L9.55618 27.3321ZM9.37417 27.2862L9.8165 26.1171L9.31855 25.9287L8.87622 27.0978L8.43389 28.2669L8.93183 28.4553L9.37417 27.2862ZM8.87622 27.0978L9.31855 25.9287L8.8206 25.7403L8.37827 26.9094L7.93594 28.0786L8.43389 28.2669L8.87622 27.0978ZM8.37827 26.9094L8.82061 25.7403C8.86014 25.7553 8.89762 25.7752 8.93107 25.7987L8.2131 26.8219L7.49513 27.8452C7.63165 27.941 7.77925 28.0193 7.93594 28.0786L8.37827 26.9094ZM8.2131 26.8219L8.93108 25.7987L8.49304 25.4914L7.77506 26.5146L7.05709 27.5378L7.49512 27.8452L8.2131 26.8219ZM7.77506 26.5146L8.49304 25.4914L8.055 25.184L7.33702 26.2072L6.61905 27.2305L7.05709 27.5378L7.77506 26.5146ZM7.33702 26.2072L8.05501 25.184C7.98608 25.1356 7.91612 25.0892 7.84511 25.0447L7.18135 26.1039L6.5176 27.1631C6.55108 27.1841 6.5849 27.2065 6.61904 27.2305L7.33702 26.2072ZM7.18135 26.1039L7.84511 25.0447L7.401 24.7664L6.73723 25.8256L6.07347 26.8848L6.51759 27.1631L7.18135 26.1039ZM6.73723 25.8256L7.40099 24.7664L6.95688 24.488L6.29312 25.5473L5.62936 26.6065L6.07347 26.8848L6.73723 25.8256ZM6.29312 25.5473L6.95688 24.4881C6.87029 24.4338 6.78135 24.3839 6.6903 24.3383L6.13036 25.4559L5.57042 26.5734C5.59188 26.5842 5.61144 26.5952 5.62935 26.6065L6.29312 25.5473ZM6.13036 25.4559L6.69031 24.3383L6.21213 24.0987L5.65218 25.2163L5.09223 26.3338L5.57041 26.5734L6.13036 25.4559ZM5.65218 25.2163L6.21213 24.0987L5.73395 23.8591L5.174 24.9767L4.61405 26.0943L5.09223 26.3338L5.65218 25.2163ZM5.174 24.9767L5.73395 23.8591C5.79033 23.8874 5.84413 23.9252 5.89124 23.9707L5.02229 24.8693L4.15333 25.7679C4.29021 25.9002 4.44515 26.0096 4.61404 26.0943L5.174 24.9767ZM5.02229 24.8693L5.89124 23.9707L5.50972 23.6018L4.64076 24.5003L3.7718 25.3989L4.15333 25.7679L5.02229 24.8693ZM4.64076 24.5003L5.50971 23.6018L5.12819 23.2328L4.25923 24.1314L3.39028 25.03L3.77181 25.3989L4.64076 24.5003ZM4.25923 24.1314L5.12819 23.2328C5.06709 23.1737 5.00428 23.1162 4.93986 23.0602L4.11986 24.0037L3.29987 24.9471C3.3315 24.9746 3.36161 25.0022 3.39028 25.03L4.25923 24.1314ZM4.11986 24.0037L4.93986 23.0602L4.53161 22.7054L3.71161 23.6488L2.89161 24.5923L3.29986 24.9471L4.11986 24.0037ZM3.71161 23.6488L4.53161 22.7054L4.12335 22.3505L3.30336 23.294L2.48336 24.2375L2.89161 24.5923L3.71161 23.6488ZM3.30336 23.294L4.12336 22.3506C4.19393 22.4119 4.25381 22.4877 4.29738 22.5718L3.18753 23.1469L2.07768 23.722C2.17962 23.9187 2.31672 24.0926 2.48335 24.2374L3.30336 23.294ZM3.18753 23.1469L4.29738 22.5718L4.04928 22.093L2.93943 22.6681L1.82958 23.2432L2.07768 23.722L3.18753 23.1469ZM2.93943 22.6681L4.04928 22.093L3.80118 21.6142L2.69133 22.1893L1.58149 22.7644L1.82958 23.2432L2.93943 22.6681ZM2.69133 22.1893L3.80118 21.6142C3.75722 21.5294 3.71004 21.4463 3.65969 21.3651L2.59724 22.0236L1.53478 22.6822C1.55152 22.7092 1.56707 22.7366 1.58148 22.7644L2.69133 22.1893ZM2.59724 22.0236L3.6597 21.3651L3.37457 20.9051L2.31211 21.5636L1.24965 22.2222L1.53477 22.6822L2.59724 22.0236ZM2.31211 21.5636L3.37457 20.9051L3.08944 20.4451L2.02698 21.1036L0.964519 21.7622L1.24965 22.2222L2.31211 21.5636ZM2.02698 21.1036L3.08944 20.4451C3.19078 20.6086 3.23485 20.7935 3.22924 20.9645L1.97991 20.9235L0.730581 20.8825C0.720642 21.1854 0.796085 21.4904 0.964516 21.7622L2.02698 21.1036ZM1.97991 20.9235L3.22924 20.9645L3.24764 20.4037L1.99831 20.3627L0.74898 20.3217L0.730581 20.8825L1.97991 20.9235ZM1.99831 20.3627L3.24764 20.4037L3.26604 19.843L2.01671 19.802L0.76738 19.761L0.74898 20.3217L1.99831 20.3627ZM2.01671 19.802L3.26604 19.843C3.27728 19.5003 3.17608 19.1795 2.99414 18.913L1.96185 19.6179L0.929552 20.3228C0.825086 20.1698 0.760466 19.9717 0.76738 19.761L2.01671 19.802ZM1.96185 19.6179L2.99414 18.913L2.66486 18.4308L1.63257 19.1357L0.600271 19.8406L0.92955 20.3228L1.96185 19.6179ZM1.63257 19.1357L2.66486 18.4308L2.33559 17.9486L1.30329 18.6535L0.270994 19.3584L0.600272 19.8406L1.63257 19.1357ZM1.30329 18.6535L2.33559 17.9486C2.4409 18.1028 2.51108 18.3112 2.49859 18.54L1.25045 18.4719L0.00230901 18.4037C-0.017203 18.7612 0.0881982 19.0907 0.270991 19.3584L1.30329 18.6535ZM1.25045 18.4719L2.49859 18.54L2.52845 17.993L1.28031 17.9249L0.0321672 17.8567L0.002309 18.4037L1.25045 18.4719ZM1.28031 17.9249L2.52845 17.993L2.55831 17.446L1.31017 17.3779L0.0620254 17.3097L0.0321672 17.8567L1.28031 17.9249ZM1.31017 17.3779L2.55831 17.446C2.55975 17.4196 2.56233 17.3944 2.56592 17.3702L1.32941 17.187L0.0928986 17.0039C0.0778575 17.1054 0.0676106 17.2074 0.0620253 17.3097L1.31017 17.3779ZM1.32941 17.187L2.56592 17.3702L2.64509 16.8356L1.40858 16.6525L0.172072 16.4693L0.0928984 17.0039L1.32941 17.187ZM1.40858 16.6525L2.64509 16.8356L2.72426 16.3011L1.48775 16.118L0.251245 15.9348L0.172072 16.4693L1.40858 16.6525ZM1.48775 16.118L2.72426 16.3011C2.71878 16.3381 2.70867 16.3749 2.69459 16.4092L1.53792 15.9353L0.381249 15.4614C0.318914 15.6135 0.275357 15.772 0.251245 15.9348L1.48775 16.118ZM1.53792 15.9353L2.69459 16.4092L2.8997 15.9086L1.74303 15.4347L0.586354 14.9608L0.381248 15.4614L1.53792 15.9353ZM1.74303 15.4347L2.8997 15.9086L3.10481 15.4081L1.94813 14.9341L0.791461 14.4602L0.586354 14.9608L1.74303 15.4347ZM1.94813 14.9341L3.10481 15.408C3.21448 15.1404 3.24706 14.8572 3.21015 14.5821L1.97125 14.7483L0.732353 14.9145C0.712887 14.7694 0.730048 14.6101 0.79146 14.4602L1.94813 14.9341ZM1.97125 14.7483L3.21015 14.5821L3.13606 14.0298L1.89716 14.196L0.658256 14.3622L0.732353 14.9145L1.97125 14.7483ZM1.89716 14.196L3.13606 14.0298L3.06196 13.4775L1.82306 13.6437L0.584158 13.8099L0.658256 14.3622L1.89716 14.196ZM1.82306 13.6437L3.06196 13.4775C3.07435 13.5698 3.06952 13.6701 3.04376 13.7688L1.83427 13.4532L0.624778 13.1375C0.566638 13.3603 0.554336 13.5876 0.584158 13.8099L1.82306 13.6437ZM1.83427 13.4532L3.04376 13.7688L3.1814 13.2414L1.9719 12.9258L0.762412 12.6101L0.624778 13.1375L1.83427 13.4532ZM1.9719 12.9258L3.1814 13.2414L3.31903 12.714L2.10954 12.3984L0.900046 12.0827L0.762412 12.6101L1.9719 12.9258ZM2.10954 12.3984L3.31903 12.714C3.28968 12.8265 3.23702 12.9271 3.17203 13.0084L2.19561 12.228L1.21919 11.4475C1.07182 11.6319 0.961777 11.8462 0.900046 12.0827L2.10954 12.3984ZM2.19561 12.228L3.17203 13.0084L3.52215 12.5704L2.54573 11.79L1.5693 11.0095L1.21919 11.4475L2.19561 12.228ZM2.54573 11.79L3.52215 12.5704L3.87226 12.1324L2.89584 11.3519L1.91942 10.5715L1.5693 11.0095L2.54573 11.79ZM2.89584 11.3519L3.87226 12.1324C3.97613 12.0024 4.06748 11.8561 4.13903 11.6932L2.9946 11.1905L1.85016 10.6877C1.87241 10.6371 1.89793 10.5984 1.91941 10.5715L2.89584 11.3519ZM2.9946 11.1905L4.13903 11.6932L4.34855 11.2163L3.20412 10.7135L2.05968 10.2108L1.85016 10.6877L2.9946 11.1905ZM3.20412 10.7135L4.34855 11.2163L4.55807 10.7394L3.41364 10.2366L2.2692 9.73385L2.05968 10.2108L3.20412 10.7135ZM3.41364 10.2366L4.55807 10.7394C4.62177 10.5944 4.66668 10.4464 4.69589 10.2988L3.46967 10.0562L2.24345 9.8135C2.24725 9.79428 2.2548 9.76663 2.2692 9.73386L3.41364 10.2366ZM3.46967 10.0562L4.69589 10.2988L4.80386 9.7532L3.57764 9.51054L2.35142 9.26788L2.24345 9.8135L3.46967 10.0562ZM3.57764 9.51054L4.80386 9.7532L4.91184 9.20758L3.68562 8.96492L2.4594 8.72225L2.35142 9.26788L3.57764 9.51054ZM3.68562 8.96492L4.91184 9.20758C4.88882 9.32393 4.83742 9.44538 4.75456 9.55359L3.76212 8.79362L2.76968 8.03364C2.61023 8.24187 2.50783 8.47752 2.4594 8.72225L3.68562 8.96492ZM3.76212 8.79362L4.75456 9.55359L5.08005 9.12853L4.08761 8.36856L3.09517 7.60858L2.76967 8.03365L3.76212 8.79362ZM4.08761 8.36856L5.08005 9.12853L5.40555 8.70347L4.41311 7.9435L3.42066 7.18352L3.09517 7.60858L4.08761 8.36856ZM4.41311 7.9435L5.40555 8.70347C5.46406 8.62705 5.51945 8.54841 5.57176 8.46766L4.52265 7.78805L3.47354 7.10844C3.45638 7.13494 3.43874 7.15992 3.42066 7.18352L4.41311 7.9435ZM4.52265 7.78805L5.57176 8.46766L5.86701 8.01188L4.8179 7.33228L3.76878 6.65267L3.47354 7.10845L4.52265 7.78805ZM4.8179 7.33228L5.86701 8.01188L6.16226 7.55611L5.11314 6.8765L4.06403 6.1969L3.76879 6.65267L4.8179 7.33228ZM5.11314 6.8765L6.16226 7.55611C6.16697 7.54883 6.17217 7.54184 6.17811 7.53488L5.22766 6.72301L4.27721 5.91113C4.19993 6.00159 4.12879 6.09693 4.06403 6.1969L5.11314 6.8765ZM5.22766 6.72301L6.17811 7.53488L6.53178 7.12084L5.58133 6.30897L4.63088 5.49709L4.27721 5.91113L5.22766 6.72301ZM5.58133 6.30897L6.53178 7.12084L6.88545 6.70681L5.935 5.89493L4.98455 5.08305L4.63088 5.49709L5.58133 6.30897ZM5.935 5.89493L6.88545 6.7068C6.717 6.90401 6.50187 7.00117 6.32474 7.03304L6.10337 5.8028L5.88199 4.57256C5.5636 4.62985 5.23622 4.78843 4.98455 5.08306L5.935 5.89493ZM6.10337 5.8028L6.32475 7.03304L6.92514 6.925L6.70376 5.69476L6.48238 4.46452L5.88199 4.57256L6.10337 5.8028ZM6.70376 5.69476L6.92514 6.925L7.52554 6.81696L7.30416 5.58672L7.08278 4.35648L6.48238 4.46452L6.70376 5.69476ZM7.30416 5.58672L7.52554 6.81696C7.97597 6.7359 8.3606 6.45615 8.57253 6.03948L7.45836 5.47279L6.34419 4.90611C6.40632 4.78396 6.50586 4.65197 6.6529 4.54333C6.79951 4.43501 6.95277 4.37987 7.08278 4.35648L7.30416 5.58672ZM7.45836 5.47279L8.57253 6.03948L8.84593 5.50194L7.73176 4.93526L6.61759 4.36858L6.34419 4.90611L7.45836 5.47279ZM7.73176 4.93526L8.84592 5.50194L9.11932 4.96441L8.00516 4.39772L6.89099 3.83104L6.61759 4.36857L7.73176 4.93526ZM8.00516 4.39772L9.11933 4.9644C9.07181 5.05783 8.99629 5.16687 8.88147 5.26597C8.76469 5.36677 8.63232 5.4355 8.49987 5.47448L8.14696 4.27533L7.79405 3.07618C7.3697 3.20107 7.06327 3.4923 6.89099 3.83104L8.00516 4.39772ZM8.14696 4.27533L8.49987 5.47448L9.03005 5.31845L8.67713 4.1193L8.32422 2.92015L7.79405 3.07618L8.14696 4.27533ZM8.67713 4.1193L9.03005 5.31845L9.56022 5.16241L9.20731 3.96327L8.85439 2.76412L8.32422 2.92015L8.67713 4.1193ZM9.20731 3.96327L9.56022 5.16241C9.59577 5.15195 9.63059 5.143 9.66472 5.13544L9.39445 3.91501L9.12418 2.69458C9.03353 2.71465 8.94359 2.73787 8.85439 2.76412L9.20731 3.96327ZM9.39445 3.91501L9.66472 5.13544L10.195 5.018L9.92476 3.79757L9.65449 2.57714L9.12418 2.69458L9.39445 3.91501ZM9.92476 3.79757L10.195 5.018L10.7253 4.90056L10.4551 3.68013L10.1848 2.4597L9.65449 2.57714L9.92476 3.79757ZM10.4551 3.68013L10.7253 4.90056C10.9764 4.84495 11.2068 4.73348 11.4046 4.57554L10.6245 3.59884L9.84437 2.62215C9.94103 2.54495 10.0585 2.48767 10.1848 2.4597L10.4551 3.68013ZM10.6245 3.59884L11.4046 4.57554L11.8342 4.23237L11.0541 3.25568L10.274 2.27898L9.84437 2.62215L10.6245 3.59884ZM11.0541 3.25568L11.8342 4.23237L12.2639 3.88921L11.4838 2.91251L10.7037 1.93582L10.274 2.27898L11.0541 3.25568ZM11.4838 2.91251L12.2639 3.88921C12.1896 3.94852 12.0978 3.99802 11.9944 4.02767L11.65 2.82604L11.3056 1.62441C11.0816 1.68861 10.879 1.79576 10.7037 1.93582L11.4838 2.91251ZM11.65 2.82604L11.9944 4.02766L12.5068 3.88081L12.1624 2.67919L11.818 1.47756L11.3056 1.62441L11.65 2.82604ZM12.1624 2.67919L12.5068 3.88081L13.0192 3.73396L12.6748 2.53234L12.3305 1.33071L11.818 1.47756L12.1624 2.67919ZM12.6748 2.53234L13.0192 3.73396C12.9962 3.74054 12.9734 3.74445 12.9521 3.74602L12.8601 2.49942L12.768 1.25281C12.6203 1.26372 12.474 1.28958 12.3305 1.33071L12.6748 2.53234ZM12.8601 2.49942L12.9521 3.74602L13.4895 3.70634L13.3975 2.45973L13.3054 1.21313L12.768 1.25281L12.8601 2.49942ZM13.3975 2.45973L13.4895 3.70634L14.027 3.66665L13.9349 2.42005L13.8428 1.17344L13.3054 1.21313L13.3975 2.45973ZM13.9349 2.42005L14.027 3.66665C14.3458 3.64311 14.629 3.52547 14.8591 3.35387L14.1118 2.35182L13.3646 1.34978C13.4852 1.25981 13.6505 1.18765 13.8428 1.17344L13.9349 2.42005ZM14.1118 2.35182L14.8591 3.35386L15.3243 3.00692L14.5771 2.00488L13.8298 1.00283L13.3646 1.34978L14.1118 2.35182ZM14.5771 2.00488L15.3243 3.00692L15.7896 2.65998L15.0423 1.65793L14.295 0.655887L13.8298 1.00283L14.5771 2.00488ZM15.0423 1.65793L15.7896 2.65997C15.6906 2.73382 15.5558 2.79768 15.3955 2.82064L15.2183 1.58326L15.0412 0.345876C14.7556 0.386761 14.5035 0.500411 14.295 0.65589L15.0423 1.65793ZM15.2183 1.58326L15.3955 2.82064L15.9278 2.74442L15.7506 1.50704L15.5734 0.26966L15.0412 0.345876L15.2183 1.58326ZM15.7506 1.50704L15.9278 2.74442L16.4601 2.6682L16.2829 1.43082L16.1057 0.193443L15.5734 0.269659L15.7506 1.50704ZM16.2829 1.43082L16.4601 2.6682C16.4336 2.67199 16.4076 2.67274 16.3837 2.67103L16.4726 1.4242L16.5615 0.177364C16.4099 0.166556 16.2575 0.171717 16.1057 0.193443L16.2829 1.43082ZM16.4726 1.4242L16.3837 2.67103L16.9261 2.70971L17.015 1.46288L17.1039 0.216044L16.5615 0.177364L16.4726 1.4242ZM17.015 1.46288L16.9261 2.70971L17.4686 2.74839L17.5575 1.50156L17.6464 0.254724L17.1039 0.216044L17.015 1.46288ZM17.5575 1.50156L17.4686 2.74839C17.5042 2.75093 17.5395 2.75466 17.5746 2.75958L17.7481 1.52168L17.9216 0.283777C17.8302 0.270971 17.7385 0.261288 17.6464 0.254724L17.5575 1.50156ZM17.7481 1.52168L17.5746 2.75958L18.1123 2.83493L18.2858 1.59703L18.4592 0.359124L17.9216 0.283778L17.7481 1.52168ZM18.2858 1.59703L18.1123 2.83493L18.6499 2.91028L18.8234 1.67237L18.9969 0.434471L18.4592 0.359124L18.2858 1.59703ZM18.8234 1.67237L18.6499 2.91028C18.8842 2.9431 19.1208 2.92721 19.3488 2.86309L19.0104 1.65976L18.672 0.456437C18.7772 0.426864 18.8892 0.419373 18.9969 0.434471L18.8234 1.67237ZM19.0104 1.65976L19.3488 2.86309L19.8709 2.71628L19.5325 1.51295L19.1941 0.309625L18.672 0.456437L19.0104 1.65976ZM19.5325 1.51295L19.8709 2.71628L20.393 2.56946L20.0546 1.36614L19.7162 0.162812L19.1941 0.309624L19.5325 1.51295ZM20.0546 1.36614L20.393 2.56946C20.376 2.57422 20.356 2.57801 20.3341 2.57966L20.2403 1.33319L20.1465 0.086709C19.9998 0.0977508 19.8559 0.123508 19.7162 0.162812L20.0546 1.36614ZM20.2403 1.33319L20.3341 2.57966L20.8645 2.53976L20.7708 1.29328L20.677 0.0468036L20.1465 0.086709L20.2403 1.33319ZM20.7708 1.29328L20.8645 2.53976L21.395 2.49985L21.3012 1.25338L21.2075 0.00689827L20.677 0.0468036L20.7708 1.29328ZM21.3012 1.25338L21.395 2.49985C21.3923 2.50006 21.3893 2.50004 21.3868 2.49984L21.4885 1.25398L21.5902 0.00812651C21.4628 -0.00227691 21.335 -0.00269726 21.2075 0.00689832L21.3012 1.25338ZM21.4885 1.25398L21.3868 2.49984L21.9175 2.54317L22.0192 1.29731L22.1209 0.0514584L21.5902 0.00812658L21.4885 1.25398ZM22.0192 1.29731L21.9175 2.54317L22.4482 2.5865L22.5499 1.34064L22.6516 0.0947903L22.1209 0.0514584L22.0192 1.29731ZM22.5499 1.34064L22.4482 2.5865C22.4926 2.59012 22.5367 2.59469 22.5806 2.60022L22.7366 1.35999L22.8926 0.119763C22.8125 0.109688 22.7322 0.101365 22.6516 0.0947903L22.5499 1.34064ZM22.7366 1.35999L22.5806 2.60022L23.1077 2.66652L23.2637 1.42629L23.4197 0.186063L22.8926 0.119763L22.7366 1.35999ZM23.2637 1.42629L23.1077 2.66652L23.6349 2.73282L23.7909 1.49259L23.9468 0.252363L23.4197 0.186063L23.2637 1.42629ZM23.7909 1.49259L23.6349 2.73282C23.8031 2.75399 23.9708 2.7532 24.1352 2.73255L23.9794 1.4923L23.8237 0.252036C23.8607 0.247388 23.9026 0.246797 23.9469 0.252363L23.7909 1.49259ZM23.9794 1.4923L24.1352 2.73255L24.6765 2.66457L24.5207 1.42432L24.365 0.184057L23.8237 0.252036L23.9794 1.4923ZM24.5207 1.42432L24.6765 2.66457L25.2178 2.59659L25.0621 1.35634L24.9063 0.116077L24.365 0.184057L24.5207 1.42432ZM25.0621 1.35634L25.2178 2.59659C25.0739 2.61467 24.9258 2.59585 24.7924 2.54369L25.2476 1.37953L25.7028 0.215369C25.4494 0.116292 25.1776 0.0820078 24.9063 0.116077L25.0621 1.35634ZM25.2476 1.37953L24.7924 2.54369L25.3024 2.74311L25.7576 1.57895L26.2128 0.414791L25.7028 0.215371L25.2476 1.37953ZM25.7576 1.57895L25.3024 2.74311L25.8123 2.94253L26.2676 1.77837L26.7228 0.614211L26.2128 0.414791L25.7576 1.57895ZM26.2676 1.77837L25.8123 2.94253C25.9043 2.9785 25.9978 3.01068 26.0927 3.03877L26.4475 1.84017L26.8022 0.641568C26.7773 0.634185 26.7508 0.625168 26.7228 0.614212L26.2676 1.77837ZM26.4475 1.84017L26.0927 3.03877L26.6021 3.18955L26.9569 1.99094L27.3116 0.792343L26.8022 0.641569L26.4475 1.84017ZM26.9569 1.99094L26.6021 3.18955L27.1115 3.34032L27.4663 2.14172L27.821 0.943116L27.3116 0.792343L26.9569 1.99094ZM27.4663 2.14172L27.1115 3.34032C27.4237 3.4327 27.728 3.41781 27.9919 3.34471L27.6581 2.14009L27.3243 0.935474C27.4523 0.900019 27.6288 0.886211 27.821 0.943117L27.4663 2.14172ZM27.6581 2.14009L27.9919 3.3447L28.5693 3.1847L28.2356 1.98009L27.9018 0.775471L27.3243 0.935475L27.6581 2.14009ZM28.2356 1.98009L28.5693 3.1847L29.1468 3.0247L28.813 1.82008L28.4793 0.615467L27.9018 0.775471L28.2356 1.98009ZM28.813 1.82008L29.1468 3.0247C29.0285 3.05747 28.8762 3.07513 28.7052 3.04672C28.5325 3.01803 28.3855 2.94971 28.2713 2.86819L28.9974 1.85072L29.7236 0.833253C29.3465 0.564177 28.8924 0.500987 28.4793 0.615468L28.813 1.82008ZM28.9974 1.85072L28.2713 2.86818L28.7388 3.2018L29.4649 2.18434L30.191 1.16687L29.7236 0.833257L28.9974 1.85072ZM29.4649 2.18434L28.7388 3.2018L29.2062 3.53542L29.9324 2.51795L30.6585 1.50049L30.191 1.16687L29.4649 2.18434ZM29.9324 2.51795L29.2062 3.53541C29.3833 3.6618 29.5904 3.76163 29.824 3.8157L30.1059 2.59789L30.3878 1.38009C30.5 1.40607 30.5914 1.4526 30.6585 1.50049L29.9324 2.51795ZM30.1059 2.59789L29.824 3.8157L30.3398 3.93508L30.6217 2.71728L30.9035 1.49948L30.3878 1.38009L30.1059 2.59789ZM30.6217 2.71728L30.3398 3.93508L30.8555 4.05447L31.1374 2.83667L31.4193 1.61887L30.9035 1.49948L30.6217 2.71728ZM31.1374 2.83667L30.8555 4.05447C30.7794 4.03685 30.7099 4.00704 30.6509 3.97043L31.3099 2.90826L31.9689 1.84609C31.8013 1.74212 31.6168 1.66459 31.4193 1.61887L31.1374 2.83667ZM31.3099 2.90826L30.6509 3.97043L31.1123 4.25673L31.7713 3.19456L32.4303 2.1324L31.9689 1.8461L31.3099 2.90826ZM31.7713 3.19456L31.1123 4.25673L31.5737 4.54303L32.2328 3.48086L32.8918 2.41869L32.4303 2.13239L31.7713 3.19456ZM32.2328 3.48086L31.5737 4.54302C31.8358 4.70559 32.1274 4.7818 32.417 4.78116L32.4143 3.53116L32.4115 2.28117C32.5677 2.28082 32.7383 2.32349 32.8918 2.4187L32.2328 3.48086ZM32.4143 3.53116L32.417 4.78116L32.9841 4.77991L32.9814 3.52991L32.9786 2.27991L32.4115 2.28117L32.4143 3.53116ZM32.9814 3.52991L32.9841 4.77991L33.5513 4.77865L33.5485 3.52866L33.5457 2.27866L32.9786 2.27991L32.9814 3.52991ZM33.5485 3.52866L33.5513 4.77865C33.489 4.77879 33.4154 4.7691 33.3379 4.74291L33.7382 3.55871L34.1384 2.37451C33.9414 2.30795 33.7414 2.27823 33.5457 2.27866L33.5485 3.52866ZM33.7382 3.55871L33.3379 4.74291L33.8456 4.91447L34.2458 3.73027L34.646 2.54607L34.1384 2.37451L33.7382 3.55871ZM34.2458 3.73027L33.8456 4.91447L34.3532 5.08603L34.7534 3.90183L35.1536 2.71763L34.646 2.54607L34.2458 3.73027ZM34.7534 3.90183L34.3532 5.08603C34.21 5.03763 34.0915 4.95608 34.0049 4.86484L34.9115 4.00434L35.8182 3.14383C35.6402 2.95629 35.4163 2.8064 35.1536 2.71763L34.7534 3.90183ZM34.9115 4.00434L34.0049 4.86483L34.3933 5.27414L35.3 4.41364L36.2067 3.55314L35.8182 3.14384L34.9115 4.00434ZM35.3 4.41364L34.3933 5.27414L34.7818 5.68345L35.6885 4.82294L36.5951 3.96244L36.2067 3.55314L35.3 4.41364ZM35.6885 4.82294L34.7818 5.68344C34.9021 5.81022 35.0424 5.92504 35.2035 6.01977L35.8371 4.94224L36.4706 3.8647C36.525 3.89669 36.5662 3.93197 36.5951 3.96245L35.6885 4.82294ZM35.8371 4.94224L35.2035 6.01977L35.657 6.28645L36.2906 5.20892L36.9242 4.13139L36.4706 3.8647L35.8371 4.94224ZM36.2906 5.20892L35.657 6.28645L36.1106 6.55314L36.7442 5.4756L37.3777 4.39807L36.9242 4.13139L36.2906 5.20892ZM36.7442 5.4756L36.1106 6.55313C36.2583 6.63999 36.413 6.70499 36.5707 6.75058L36.9178 5.54973L37.2649 4.34889C37.2978 4.35838 37.3367 4.37397 37.3777 4.39807L36.7442 5.4756ZM36.9178 5.54973L36.5707 6.75058L37.1014 6.90397L37.4485 5.70313L37.7956 4.50229L37.2649 4.34889L36.9178 5.54973ZM37.4485 5.70313L37.1014 6.90397L37.6321 7.05736L37.9792 5.85652L38.3263 4.65568L37.7956 4.50229L37.4485 5.70313ZM37.9792 5.85652L37.6321 7.05736C37.4965 7.01817 37.3626 6.94223 37.253 6.83195L38.1397 5.95082L39.0263 5.06969C38.8276 4.86978 38.5868 4.73097 38.3263 4.65568L37.9792 5.85652ZM38.1397 5.95082L37.253 6.83195L37.6317 7.21293L38.5183 6.3318L39.4049 5.45068L39.0263 5.0697L38.1397 5.95082ZM38.5183 6.3318L37.6317 7.21293L38.0103 7.59391L38.8969 6.71278L39.7835 5.83166L39.4049 5.45068L38.5183 6.3318ZM38.8969 6.71278L38.0103 7.5939C38.1779 7.76257 38.3724 7.8883 38.5795 7.97366L39.0558 6.81797L39.5321 5.66228C39.6164 5.69703 39.705 5.75264 39.7835 5.83166L38.8969 6.71278ZM39.0558 6.81797L38.5795 7.97366L39.1013 8.18874L39.5777 7.03305L40.054 5.87736L39.5321 5.66228L39.0558 6.81797ZM39.5777 7.03305L39.1013 8.18874L39.6232 8.40383L40.0995 7.24814L40.5758 6.09245L40.054 5.87736L39.5777 7.03305ZM40.0995 7.24814L39.6232 8.40382C39.4802 8.34488 39.3427 8.24258 39.2398 8.10208L40.2484 7.36368L41.257 6.62527C41.0784 6.38133 40.8416 6.202 40.5758 6.09245L40.0995 7.24814ZM40.2484 7.36368L39.2398 8.10207L39.5617 8.54171L40.5703 7.80332L41.5789 7.06492L41.257 6.62528L40.2484 7.36368ZM40.5703 7.80332L39.5617 8.54172L39.8835 8.98136L40.8921 8.24296L41.9007 7.50456L41.5789 7.06492L40.5703 7.80332ZM40.8921 8.24296L39.8835 8.98135C39.8835 8.98138 39.8833 8.98111 39.883 8.98055C39.8827 8.98 39.8823 8.97934 39.8819 8.97866L40.9927 8.40527L42.1034 7.83188C42.0443 7.71735 41.9765 7.60812 41.9007 7.50457L40.8921 8.24296ZM40.9927 8.40527L39.8819 8.97865L40.1298 9.45874L41.2405 8.88536L42.3512 8.31199L42.1034 7.83189L40.9927 8.40527ZM41.2405 8.88536L40.1298 9.45875L40.3776 9.93884L41.4883 9.36546L42.5991 8.79208L42.3512 8.31198L41.2405 8.88536ZM41.4883 9.36546L40.3776 9.93883C40.4438 10.0671 40.5221 10.1884 40.612 10.3016L41.5912 9.52472L42.5704 8.74781C42.5814 8.76168 42.5912 8.77678 42.5991 8.79209L41.4883 9.36546ZM41.5912 9.52472L40.6119 10.3016L40.947 10.724L41.9263 9.94708L42.9055 9.17018L42.5704 8.74782L41.5912 9.52472ZM41.9263 9.94708L40.947 10.724L41.2821 11.1463L42.2614 10.3694L43.2406 9.59254L42.9055 9.17018L41.9263 9.94708ZM42.2614 10.3694L41.2821 11.1463C41.2491 11.1048 41.2221 11.0585 41.2023 11.0107L42.3571 10.5323L43.5119 10.0538C43.4433 9.88829 43.3524 9.7335 43.2406 9.59255L42.2614 10.3694ZM42.3571 10.5323L41.2023 11.0107L41.4095 11.5109L42.5643 11.0325L43.7191 10.5541L43.5119 10.0538L42.3571 10.5323ZM42.5643 11.0325L41.4095 11.5109L41.6167 12.0112L42.7716 11.5327L43.9264 11.0543L43.7191 10.5541L42.5643 11.0325ZM42.7716 11.5327L41.6167 12.0112C41.6291 12.041 41.6409 12.0727 41.6521 12.1064L42.8389 11.7141L44.0258 11.3219C43.9959 11.2315 43.9628 11.1422 43.9264 11.0543L42.7716 11.5327ZM42.8389 11.7141L41.6521 12.1064L41.8265 12.6341L43.0133 12.2419L44.2002 11.8496L44.0258 11.3219L42.8389 11.7141ZM43.0133 12.2419L41.8265 12.6341L42.0009 13.1619L43.1877 12.7696L44.3746 12.3773L44.2002 11.8496L43.0133 12.2419ZM43.1877 12.7696L42.0009 13.1618C41.9453 12.9937 41.9407 12.8123 41.9833 12.6469L43.1938 12.9587L44.4043 13.2705C44.4799 12.9771 44.4712 12.6696 44.3746 12.3773L43.1877 12.7696ZM43.1938 12.9587L41.9833 12.6469L41.8431 13.1911L43.0536 13.5029L44.2641 13.8147L44.4043 13.2705L43.1938 12.9587ZM43.0536 13.5029L41.8431 13.1911L41.703 13.7352L42.9135 14.047L44.124 14.3588L44.2641 13.8147L43.0536 13.5029ZM42.9135 14.047L41.703 13.7352C41.6779 13.8327 41.6568 13.9314 41.6401 14.0311L42.8731 14.2368L44.1061 14.4425C44.1103 14.4171 44.1161 14.3893 44.124 14.3588L42.9135 14.047ZM42.8731 14.2368L41.6401 14.0311L41.5515 14.5627L42.7844 14.7683L44.0174 14.974L44.1061 14.4425L42.8731 14.2368ZM42.7844 14.7683L41.5515 14.5627L41.4628 15.0942L42.6957 15.2999L43.9287 15.5056L44.0174 14.974L42.7844 14.7683ZM42.6957 15.2999L41.4628 15.0942C41.4824 14.9765 41.5271 14.8698 41.5853 14.7825L42.6256 15.4755L43.6659 16.1685C43.7967 15.9721 43.8882 15.7483 43.9287 15.5056L42.6957 15.2999ZM42.6256 15.4755L41.5853 14.7825L41.2763 15.2463L42.3166 15.9393L43.3569 16.6323L43.6659 16.1685L42.6256 15.4755ZM42.3166 15.9393L41.2763 15.2463L40.9673 15.7102L42.0076 16.4032L43.048 17.0962L43.3569 16.6323L42.3166 15.9393ZM42.0076 16.4032L40.9673 15.7102C40.8343 15.9099 40.741 16.14 40.7031 16.3917L41.9391 16.5779L43.1752 16.764C43.1559 16.8919 43.1083 17.0056 43.0479 17.0962L42.0076 16.4032ZM41.9391 16.5779L40.7031 16.3917L40.6238 16.9179L41.8599 17.1041L43.0959 17.2903L43.1752 16.764L41.9391 16.5779ZM41.8599 17.1041L40.6238 16.918L40.5446 17.4442L41.7806 17.6303L43.0167 17.8165L43.0959 17.2903L41.8599 17.1041ZM41.7806 17.6303L40.5446 17.4442C40.553 17.3884 40.5698 17.3316 40.595 17.2777L41.7272 17.8074L42.8595 18.3371C42.9372 18.1709 42.9896 17.9961 43.0167 17.8165L41.7806 17.6303ZM41.7272 17.8074L40.595 17.2777L40.3719 17.7547L41.5041 18.2844L42.6363 18.8141L42.8595 18.3371L41.7272 17.8074ZM41.5041 18.2844L40.3719 17.7547L40.1487 18.2317L41.2809 18.7614L42.4131 19.2911L42.6363 18.8141L41.5041 18.2844ZM41.2809 18.7614L40.1487 18.2317C40.0363 18.4718 39.9913 18.7187 39.9917 18.9507L41.2417 18.9488L42.4917 18.947C42.4918 19.0414 42.4729 19.1633 42.4131 19.2912L41.2809 18.7614ZM41.2417 18.9488L39.9917 18.9507L39.9925 19.5356L41.2425 19.5338L42.4925 19.5319L42.4917 18.947L41.2417 18.9488ZM41.2425 19.5338L39.9925 19.5356L39.9934 20.1205L41.2434 20.1187L42.4934 20.1168L42.4925 19.5319L41.2425 19.5338ZM41.2434 20.1187L39.9934 20.1205C39.9932 19.9957 40.0229 19.8475 40.1021 19.7035L41.1975 20.3056L42.293 20.9077C42.4334 20.6521 42.4938 20.3793 42.4934 20.1168L41.2434 20.1187ZM41.1975 20.3056L40.1021 19.7035L39.8414 20.1779L40.9368 20.78L42.0323 21.382L42.293 20.9077L41.1975 20.3056ZM40.9368 20.78L39.8414 20.1779L39.5807 20.6522L40.6761 21.2543L41.7716 21.8564L42.0323 21.382L40.9368 20.78ZM40.6761 21.2543L39.5807 20.6522C39.6303 20.5619 39.6949 20.4878 39.7629 20.4323L40.5532 21.4008L41.3434 22.3693C41.514 22.2301 41.6605 22.0583 41.7715 21.8564L40.6761 21.2543ZM40.5532 21.4008L39.7629 20.4323L39.327 20.7879L40.1172 21.7565L40.9074 22.725L41.3434 22.3693L40.5532 21.4008ZM40.1172 21.7565L39.327 20.788L38.891 21.1437L39.6812 22.1122L40.4714 23.0807L40.9074 22.725L40.1172 21.7565ZM39.6812 22.1122L38.891 21.1436C38.8328 21.1911 38.776 21.2385 38.7206 21.2859L39.5325 22.2363L40.3445 23.1867C40.3848 23.1522 40.4271 23.1169 40.4714 23.0807L39.6812 22.1122ZM39.5325 22.2363L38.7206 21.2858L38.3139 21.6333L39.1258 22.5837L39.9378 23.5341L40.3444 23.1867L39.5325 22.2363ZM39.1258 22.5837L38.3139 21.6333L37.9073 21.9807L38.7192 22.9311L39.5311 23.8815L39.9378 23.5341L39.1258 22.5837ZM38.7192 22.9311L37.9073 21.9807C37.8039 22.069 37.7077 22.1668 37.6204 22.274L38.5893 23.0637L39.5582 23.8534C39.5483 23.8656 39.5388 23.8749 39.5311 23.8815L38.7192 22.9311ZM38.5893 23.0637L37.6204 22.2739L37.291 22.678L38.2599 23.4678L39.2288 24.2575L39.5582 23.8535L38.5893 23.0637ZM38.2599 23.4678L37.291 22.678L36.9616 23.0821L37.9305 23.8719L38.8995 24.6616L39.2288 24.2575L38.2599 23.4678ZM37.9305 23.8719L36.9616 23.0821C36.9681 23.0742 36.9756 23.0664 36.9836 23.0595L37.8031 24.0034L38.6225 24.9473C38.723 24.8601 38.8155 24.7647 38.8994 24.6617L37.9305 23.8719ZM37.8031 24.0034L36.9836 23.0594L36.5907 23.4005L37.4102 24.3445L38.2296 25.2884L38.6225 24.9473L37.8031 24.0034ZM37.4102 24.3445L36.5907 23.4005L36.1978 23.7416L37.0173 24.6855L37.8367 25.6295L38.2296 25.2884L37.4102 24.3445ZM37.0173 24.6855L36.1978 23.7416C36.1319 23.7988 36.0678 23.8581 36.0056 23.9193L36.8821 24.8105L37.7586 25.7017C37.7841 25.6766 37.8102 25.6525 37.8367 25.6295L37.0173 24.6855ZM36.8821 24.8105L36.0056 23.9193L35.6324 24.2863L36.5089 25.1775L37.3854 26.0687L37.7586 25.7017L36.8821 24.8105ZM36.5089 25.1775L35.6324 24.2863L35.2592 24.6533L36.1357 25.5446L37.0122 26.4358L37.3854 26.0687L36.5089 25.1775ZM36.1357 25.5446L35.2592 24.6533C35.1689 24.7422 35.087 24.8366 35.0129 24.9349L36.0108 25.6876L37.0088 26.4403C37.0133 26.4343 37.0147 26.4333 37.0122 26.4358L36.1357 25.5446ZM36.0108 25.6876L35.0129 24.9348L34.6783 25.3784L35.6762 26.1311L36.6742 26.8839L37.0087 26.4403L36.0108 25.6876ZM35.6762 26.1311L34.6783 25.3784L34.3438 25.8219L35.3417 26.5747L36.3396 27.3274L36.6742 26.8839L35.6762 26.1311ZM35.3417 26.5747L34.3438 25.8219C34.4079 25.7369 34.4928 25.6542 34.599 25.5862C34.7052 25.5182 34.8143 25.4765 34.9151 25.4541L35.186 26.6744L35.4569 27.8947C35.8084 27.8167 36.1193 27.6195 36.3396 27.3274L35.3417 26.5747ZM35.186 26.6744L34.9151 25.4541L34.3674 25.5757L34.6383 26.796L34.9092 28.0163L35.4569 27.8947L35.186 26.6744ZM34.6383 26.796L34.3674 25.5757L33.8198 25.6972L34.0906 26.9175L34.3615 28.1378L34.9092 28.0163L34.6383 26.796ZM34.0906 26.9175L33.8198 25.6972C33.6618 25.7323 33.5039 25.7864 33.3508 25.8632L33.9111 26.9805L34.4715 28.0979C34.4288 28.1193 34.3906 28.1314 34.3615 28.1378L34.0906 26.9175ZM33.9111 26.9805L33.3508 25.8632L32.8813 26.0986L33.4417 27.216L34.002 28.3333L34.4715 28.0979L33.9111 26.9805ZM33.4417 27.216L32.8813 26.0986L32.4118 26.334L32.9722 27.4514L33.5325 28.5688L34.002 28.3333L33.4417 27.216ZM32.9722 27.4514L32.4119 26.334C32.308 26.3861 32.208 26.4447 32.1122 26.5094L32.8116 27.5454L33.511 28.5815C33.5188 28.5762 33.5259 28.5721 33.5325 28.5688L32.9722 27.4514ZM32.8116 27.5454L32.1122 26.5094L31.6715 26.8069L32.3709 27.8429L33.0703 28.879L33.511 28.5815L32.8116 27.5454ZM32.3709 27.8429L31.6715 26.8069L31.2308 27.1044L31.9302 28.1404L32.6296 29.1764L33.0703 28.879L32.3709 27.8429ZM31.9302 28.1404L31.2308 27.1044C31.1395 27.166 31.0522 27.2325 30.969 27.3033L31.7786 28.2557L32.5881 29.2081C32.6034 29.1952 32.6172 29.1848 32.6296 29.1765L31.9302 28.1404ZM31.7786 28.2557L30.969 27.3033L30.5504 27.659L31.36 28.6115L32.1695 29.5639L32.5881 29.2081L31.7786 28.2557ZM31.36 28.6115L30.5504 27.659L30.1318 28.0148L30.9414 28.9673L31.7509 29.9197L32.1695 29.5639L31.36 28.6115ZM30.9414 28.9673L30.1318 28.0148C30.245 27.9186 30.3841 27.8513 30.5306 27.8224L30.7725 29.0488L31.0144 30.2752C31.2876 30.2213 31.5392 30.0997 31.7509 29.9197L30.9414 28.9673ZM30.7725 29.0488L30.5306 27.8224L29.9924 27.9286L30.2343 29.155L30.4762 30.3813L31.0144 30.2752L30.7725 29.0488ZM30.2343 29.155L29.9924 27.9286L29.4542 28.0348L29.6961 29.2611L29.9381 30.4875L30.4762 30.3813L30.2343 29.155ZM29.6961 29.2611L29.4542 28.0348C29.3422 28.0569 29.2315 28.0856 29.1226 28.1211L29.51 29.3096L29.8974 30.498C29.91 30.4939 29.9235 30.4904 29.938 30.4875L29.6961 29.2611ZM29.51 29.3096L29.1226 28.1211L28.6059 28.2895L28.9933 29.478L29.3807 30.6665L29.8974 30.498L29.51 29.3096ZM28.9933 29.478L28.6059 28.2895L28.0892 28.458L28.4766 29.6464L28.864 30.8349L29.3807 30.6665L28.9933 29.478ZM28.4766 29.6464L28.0892 28.458C27.8503 28.5358 27.6365 28.6644 27.4575 28.833L28.3144 29.743L29.1714 30.653C29.087 30.7325 28.9814 30.7966 28.864 30.8349L28.4766 29.6464ZM28.3144 29.743L27.4575 28.833L27.0551 29.2119L27.912 30.1219L28.7689 31.032L29.1714 30.653L28.3144 29.743ZM27.912 30.1219L27.0551 29.2119L26.6527 29.5908L27.5096 30.5009L28.3665 31.4109L28.769 31.032L27.912 30.1219ZM27.5096 30.5009L26.6527 29.5908C26.525 29.711 26.4068 29.8542 26.3103 30.0226L27.3947 30.6443L28.4791 31.2661C28.4411 31.3324 28.3995 31.3799 28.3665 31.4109L27.5096 30.5009ZM27.3947 30.6443L26.3103 30.0225L26.0615 30.4565L27.1459 31.0783L28.2303 31.7L28.4791 31.2661L27.3947 30.6443ZM27.1459 31.0783L26.0615 30.4565L25.8127 30.8904L26.8971 31.5122L27.9814 32.134L28.2303 31.7L27.1459 31.0783ZM26.8971 31.5122L25.8127 30.8904C25.8194 30.8787 25.8356 30.8513 25.8612 30.8155C25.8828 30.7855 25.9363 30.7137 26.0232 30.6355C26.0904 30.575 26.3054 30.3919 26.6519 30.3376C27.1047 30.2667 27.5077 30.4525 27.7567 30.7246L26.8346 31.5685L25.9124 32.4123C26.1676 32.6912 26.5778 32.8798 27.039 32.8075C27.3938 32.7519 27.6181 32.5635 27.6957 32.4936C27.8631 32.343 27.9569 32.1768 27.9814 32.134L26.8971 31.5122ZM26.8346 31.5685L27.7567 30.7246L27.6514 30.6095L26.7292 31.4533L25.807 32.2971L25.9124 32.4123L26.8346 31.5685ZM26.7292 31.4533L27.9552 31.2096L27.9186 31.0255L26.6926 31.2692L25.4666 31.5129L25.5032 31.697L26.7292 31.4533ZM26.6926 31.2692L26.084 30.1773L25.9966 30.226L26.6052 31.3179L27.2139 32.4097L27.3012 32.361L26.6926 31.2692Z" fill="var(--stroke-0, #FD9476)"/>
</svg>
