<svg preserveAspectRatio="none" width="100%" height="100%" overflow="visible" style="display: block;" viewBox="0 0 50 50" fill="none" xmlns="http://www.w3.org/2000/svg">
<g id="lucide/sun">
<path id="Vector" d="M26.15 4.16667C26.15 3.53154 25.6351 3.01667 25 3.01667C24.3649 3.01667 23.85 3.53154 23.85 4.16667H25H26.15ZM25 4.26667H23.85V4.4359L23.8988 4.59795L25 4.26667ZM25.1509 4.76817L26.2521 4.43689L26.2521 4.43688L25.1509 4.76817ZM25.1668 4.90842L26.2931 5.14076L26.2931 5.14075L25.1668 4.90842ZM25.1063 5.20167L23.98 4.96932L23.98 4.96932L25.1063 5.20167ZM25.0458 5.49492L26.1721 5.72728L26.1721 5.72726L25.0458 5.49492ZM25.0445 5.59842L26.1763 5.3946L26.1763 5.39458L25.0445 5.59842ZM25.0973 5.89167L23.9655 6.09549L23.9655 6.09549L25.0973 5.89167ZM25.1501 6.18492L26.2819 5.98111L26.2819 5.98109L25.1501 6.18492ZM25.1676 6.28842L26.3035 6.10905L26.3035 6.10903L25.1676 6.28842ZM25.2139 6.58167L24.078 6.76104L24.078 6.76104L25.2139 6.58167ZM25.2602 6.87492L26.3961 6.69556L26.3961 6.69554L25.2602 6.87492ZM25.231 6.97842L26.1634 7.65158L26.1634 7.65157L25.231 6.97842ZM25.0193 7.27167L24.0869 6.5985L24.0869 6.59851L25.0193 7.27167ZM24.8076 7.56492L25.7399 8.23809L25.74 8.23808L24.8076 7.56492ZM24.8104 7.66842L25.7188 6.96319L25.7188 6.96319L24.8104 7.66842ZM25.038 7.96167L24.1297 8.66689L24.1297 8.66689L25.038 7.96167ZM25.2657 8.25492L26.1741 7.5497L26.1741 7.54969L25.2657 8.25492ZM25.2829 8.30867L25.3828 9.45432L25.3828 9.45432L25.2829 8.30867ZM25.1529 8.32L24.586 9.32052L24.8969 9.49669L25.2528 9.46565L25.1529 8.32ZM25 8.23333L25.567 7.23281L23.85 6.25986V8.23333H25ZM23.85 8.33333C23.85 8.96846 24.3649 9.48333 25 9.48333C25.6351 9.48333 26.15 8.96846 26.15 8.33333H25H23.85ZM26.15 41.6667C26.15 41.0315 25.6351 40.5167 25 40.5167C24.3649 40.5167 23.85 41.0315 23.85 41.6667H25H26.15ZM25 41.7667H23.85V41.8722L23.8692 41.9759L25 41.7667ZM25.0928 42.2682L26.2236 42.0589L26.2236 42.0589L25.0928 42.2682ZM25.0767 42.4084L26.0508 43.0197L26.0508 43.0197L25.0767 42.4084ZM24.8927 42.7017L23.9186 42.0904L23.9186 42.0904L24.8927 42.7017ZM24.7086 42.9949L25.6827 43.6062L25.6827 43.6062L24.7086 42.9949ZM24.6913 43.0984L25.7952 42.7762L25.7952 42.7762L24.6913 43.0984ZM24.7769 43.3917L23.6729 43.7139L23.6729 43.7139L24.7769 43.3917ZM24.8625 43.6849L25.9664 43.3627L25.9664 43.3627L24.8625 43.6849ZM24.8617 43.7884L25.961 44.1261L25.961 44.126L24.8617 43.7884ZM24.7716 44.0817L23.6723 43.744L23.6723 43.744L24.7716 44.0817ZM24.6815 44.3749L25.7809 44.7126L25.7809 44.7126L24.6815 44.3749ZM24.6926 44.4784L23.6726 45.0095L23.6726 45.0095L24.6926 44.4784ZM24.8453 44.7717L25.8653 44.2406L25.8653 44.2406L24.8453 44.7717ZM24.9979 45.0649L23.9779 45.596L23.9779 45.596L24.9979 45.0649ZM25.0376 45.1684L26.1542 44.8931L26.1542 44.8931L25.0376 45.1684ZM25.1099 45.4617L23.9934 45.737L23.9934 45.737L25.1099 45.4617ZM25.1823 45.7549L26.2988 45.4796L26.2988 45.4796L25.1823 45.7549ZM25.1804 45.8087L25.3362 46.9481L25.3363 46.9481L25.1804 45.8087ZM25.0975 45.82L24.3335 46.6796L24.729 47.0311L25.2533 46.9594L25.0975 45.82ZM25 45.7333L25.764 44.8738L23.85 43.1726V45.7333H25ZM23.85 45.8333C23.85 46.4685 24.3649 46.9833 25 46.9833C25.6351 46.9833 26.15 46.4685 26.15 45.8333H25H23.85ZM11.084 9.45766C10.6349 9.00856 9.90676 9.00856 9.45766 9.45766C9.00856 9.90676 9.00856 10.6349 9.45766 11.084L10.2708 10.2708L11.084 9.45766ZM10.3415 10.3415L9.52837 11.1547L9.61983 11.2462L9.72931 11.315L10.3415 10.3415ZM10.7769 10.6154L10.1647 11.5889L10.1647 11.5889L10.7769 10.6154ZM10.8865 10.7042L11.7807 9.98102L11.7807 9.98102L10.8865 10.7042ZM11.0719 10.9334L10.1777 11.6566L10.1777 11.6566L11.0719 10.9334ZM11.2574 11.1627L12.1515 10.4396L12.1515 10.4396L11.2574 11.1627ZM11.3384 11.2281L10.8111 12.2501L10.8111 12.2501L11.3384 11.2281ZM11.6119 11.3692L12.1392 10.3472L12.1392 10.3472L11.6119 11.3692ZM11.8855 11.5104L11.3583 12.5324L11.3583 12.5324L11.8855 11.5104ZM11.9521 11.5901L13.0429 11.2258L13.0429 11.2258L11.9521 11.5901ZM12.056 11.901L10.9652 12.2654L10.9652 12.2654L12.056 11.901ZM12.1598 12.2119L13.2506 11.8475L13.2506 11.8475L12.1598 12.2119ZM12.2326 12.2854L11.8592 13.3731L11.8592 13.3731L12.2326 12.2854ZM12.5414 12.3914L12.9148 11.3038L12.9148 11.3038L12.5414 12.3914ZM12.8501 12.4974L12.4767 13.5851L12.4767 13.5851L12.8501 12.4974ZM12.9427 12.5512L12.1633 13.3969L12.1633 13.3969L12.9427 12.5512ZM13.1585 12.7501L13.9378 11.9045L13.9378 11.9045L13.1585 12.7501ZM13.3743 12.949L12.5949 13.7947L12.5949 13.7947L13.3743 12.949ZM13.3971 13.001L14.2476 13.775L14.2476 13.775L13.3971 13.001ZM13.3104 13.0962L13.5783 14.2146L13.9226 14.1321L14.1609 13.8703L13.3104 13.0962ZM13.1376 13.1376L12.8697 12.0193L10.8717 12.498L12.3245 13.9508L13.1376 13.1376ZM12.3952 14.0215C12.8443 14.4706 13.5724 14.4706 14.0215 14.0215C14.4706 13.5724 14.4706 12.8443 14.0215 12.3952L13.2083 13.2083L12.3952 14.0215ZM37.6048 35.9785C37.1557 35.5294 36.4276 35.5294 35.9785 35.9785C35.5294 36.4276 35.5294 37.1557 35.9785 37.6048L36.7917 36.7917L37.6048 35.9785ZM36.8624 36.8624L37.9279 36.4298L37.8403 36.2139L37.6756 36.0492L36.8624 36.8624ZM37.0672 37.3668L38.1327 36.9342L38.1327 36.9342L37.0672 37.3668ZM37.1478 37.4846L36.5236 38.4504L36.5236 38.4504L37.1478 37.4846ZM37.3997 37.6473L38.0239 36.6815L38.0239 36.6815L37.3997 37.6473ZM37.6516 37.8101L37.0275 38.776L37.0275 38.776L37.6516 37.8101ZM37.7284 37.8798L38.6309 37.1671L38.6309 37.1671L37.7284 37.8798ZM37.9114 38.1115L37.0088 38.8242L37.0088 38.8242L37.9114 38.1115ZM38.0944 38.3432L38.9969 37.6305L38.9969 37.6305L38.0944 38.3432ZM38.1685 38.4154L37.4802 39.3366L37.4802 39.3366L38.1685 38.4154ZM38.4059 38.5928L39.0943 37.6715L39.0943 37.6715L38.4059 38.5928ZM38.6433 38.7701L37.9549 39.6913L37.9549 39.6914L38.6433 38.7701ZM38.7228 38.8369L37.9344 39.6741L37.9344 39.6741L38.7228 38.8369ZM38.9364 39.0381L39.7249 38.2009L39.7249 38.2009L38.9364 39.0381ZM39.15 39.2392L38.3615 40.0764L38.3615 40.0764L39.15 39.2392ZM39.2215 39.3141L40.0944 38.5654L40.0943 38.5654L39.2215 39.3141ZM39.4129 39.5373L38.54 40.286L38.54 40.286L39.4129 39.5373ZM39.6044 39.7606L40.4773 39.0119L40.4773 39.0119L39.6044 39.7606ZM39.645 39.7947L40.3513 40.7023L40.3515 40.7021L39.645 39.7947ZM39.6837 39.7646L40.3901 40.672L40.9735 40.2179L40.8025 39.4986L39.6837 39.7646ZM39.6585 39.6585L40.4716 38.8453L37.6007 35.9743L38.5396 39.9244L39.6585 39.6585ZM38.916 40.5423C39.3651 40.9914 40.0932 40.9914 40.5423 40.5423C40.9914 40.0932 40.9914 39.3651 40.5423 38.916L39.7292 39.7292L38.916 40.5423ZM4.16667 23.85C3.53154 23.85 3.01667 24.3649 3.01667 25C3.01667 25.6351 3.53154 26.15 4.16667 26.15V25V23.85ZM4.26667 25L4.70106 23.9352L4.49222 23.85H4.26667V25ZM4.76817 25.2046L4.33378 26.2694L4.33378 26.2694L4.76817 25.2046ZM4.90842 25.2034L5.58026 26.1368L5.58027 26.1368L4.90842 25.2034ZM5.20167 24.9923L4.52981 24.059L4.52981 24.059L5.20167 24.9923ZM5.49492 24.7813L6.16677 25.7146L6.16678 25.7146L5.49492 24.7813ZM5.59842 24.7638L5.18734 25.8378L5.18736 25.8378L5.59842 24.7638ZM5.89167 24.876L6.30273 23.802L6.30273 23.802L5.89167 24.876ZM6.18492 24.9883L5.77385 26.0623L5.77387 26.0623L6.18492 24.9883ZM6.28842 25.0044L6.37103 26.1514L6.37105 26.1514L6.28842 25.0044ZM6.58167 24.9832L6.49904 23.8362L6.49904 23.8362L6.58167 24.9832ZM6.87492 24.9621L6.95754 26.1091L6.95756 26.1091L6.87492 24.9621ZM6.97842 24.973L6.66588 26.0797L6.6659 26.0797L6.97842 24.973ZM7.27167 25.0558L7.58419 23.9491L7.58419 23.9491L7.27167 25.0558ZM7.56492 25.1386L7.25239 26.2453L7.25241 26.2453L7.56492 25.1386ZM7.66842 25.145L7.84833 26.2809L7.84835 26.2809L7.66842 25.145ZM7.96167 25.0986L7.78174 23.9627L7.78174 23.9627L7.96167 25.0986ZM8.25492 25.0521L8.43484 26.188L8.43486 26.188L8.25492 25.0521ZM8.30867 25.0406L9.29161 25.6376L9.29169 25.6374L8.30867 25.0406ZM8.32 25.022L9.30302 25.6188L10.1102 24.2892L8.60248 23.9072L8.32 25.022ZM8.23333 25V23.85L7.95085 26.1148L8.23333 25ZM8.33333 26.15C8.96846 26.15 9.48333 25.6351 9.48333 25C9.48333 24.3649 8.96846 23.85 8.33333 23.85V25V26.15ZM41.6667 23.85C41.0315 23.85 40.5167 24.3649 40.5167 25C40.5167 25.6351 41.0315 26.15 41.6667 26.15V25V23.85ZM41.7667 25V26.15H41.9742L42.1686 26.0775L41.7667 25ZM42.2682 24.8129L42.6701 25.8904L42.6701 25.8904L42.2682 24.8129ZM42.4084 24.8039L41.9239 25.8469L41.9239 25.8469L42.4084 24.8039ZM42.7017 24.9402L43.1862 23.8972L43.1862 23.8972L42.7017 24.9402ZM42.9949 25.0764L42.5104 26.1194L42.5104 26.1194L42.9949 25.0764ZM43.0984 25.0964L43.1888 26.2428L43.1888 26.2428L43.0984 25.0964ZM43.3917 25.0732L43.3013 23.9268L43.3013 23.9268L43.3917 25.0732ZM43.6849 25.0501L43.7753 26.1966L43.7753 26.1966L43.6849 25.0501ZM43.7884 25.0288L44.1513 26.1201L44.1513 26.1201L43.7884 25.0288ZM44.0817 24.9313L43.7188 23.8401L43.7188 23.8401L44.0817 24.9313ZM44.3749 24.8338L44.7378 25.9251L44.7378 25.9251L44.3749 24.8338ZM44.4784 24.8373L44.0508 25.9049L44.0508 25.9049L44.4784 24.8373ZM44.7717 24.9548L45.1993 23.8873L45.1993 23.8873L44.7717 24.9548ZM45.0649 25.0723L44.6373 26.1398L44.6373 26.1398L45.0649 25.0723ZM45.1684 25.0863L45.316 26.2268L45.316 26.2268L45.1684 25.0863ZM45.4617 25.0484L45.3141 23.9079L45.3141 23.9079L45.4617 25.0484ZM45.7549 25.0104L45.9025 26.1509L45.9025 26.1509L45.7549 25.0104ZM45.8087 25.0035L45.9676 26.1424L45.9681 26.1423L45.8087 25.0035ZM45.82 25.0019L45.9795 26.1408L45.8448 23.8521L45.82 25.0019ZM45.7333 25V23.85L45.7086 26.1497L45.7333 25ZM45.8333 26.15C46.4685 26.15 46.9833 25.6351 46.9833 25C46.9833 24.3649 46.4685 23.85 45.8333 23.85V25V26.15ZM14.0215 37.6048C14.4706 37.1557 14.4706 36.4276 14.0215 35.9785C13.5724 35.5294 12.8443 35.5294 12.3952 35.9785L13.2083 36.7917L14.0215 37.6048ZM13.1376 36.8624L13.9264 37.6992L13.9388 37.6876L13.9508 37.6756L13.1376 36.8624ZM12.7725 37.2065L13.5613 38.0434L13.5613 38.0434L12.7725 37.2065ZM12.6719 37.3042L13.4929 38.1094L13.493 38.1093L12.6719 37.3042ZM12.4665 37.5136L11.6454 36.7084L11.6454 36.7084L12.4665 37.5136ZM12.2612 37.723L13.0823 38.5281L13.0823 38.5281L12.2612 37.723ZM12.1881 37.7963L12.9966 38.6141L12.9966 38.6141L12.1881 37.7963ZM11.9796 38.0024L11.1711 37.1846L11.1711 37.1846L11.9796 38.0024ZM11.771 38.2086L12.5795 39.0265L12.5795 39.0265L11.771 38.2086ZM11.6836 38.2676L12.1526 39.3176L12.1526 39.3176L11.6836 38.2676ZM11.397 38.3956L10.928 37.3456L10.928 37.3456L11.397 38.3956ZM11.1103 38.5236L11.5792 39.5737L11.5792 39.5737L11.1103 38.5236ZM11.0421 38.6018L12.1385 38.9487L12.1385 38.9487L11.0421 38.6018ZM10.9424 38.9169L9.84598 38.5701L9.84598 38.5701L10.9424 38.9169ZM10.8428 39.232L11.9392 39.5788L11.9392 39.5788L10.8428 39.232ZM10.7989 39.3345L11.8029 39.8954L11.8029 39.8954L10.7989 39.3345ZM10.6503 39.6006L9.64637 39.0396L9.64637 39.0396L10.6503 39.6006ZM10.5016 39.8666L11.5055 40.4276L11.5055 40.4276L10.5016 39.8666ZM10.4601 39.8997L9.69005 40.7539L9.69008 40.7539L10.4601 39.8997ZM10.3731 39.8214L9.24411 40.0401L9.31732 40.4179L9.60311 40.6755L10.3731 39.8214ZM10.3415 39.6585L11.4705 39.4397L11.0588 37.3149L9.52837 38.8453L10.3415 39.6585ZM9.45766 38.916C9.00856 39.3651 9.00856 40.0932 9.45766 40.5423C9.90676 40.9914 10.6349 40.9914 11.084 40.5423L10.2708 39.7292L9.45766 38.916ZM40.5423 11.084C40.9914 10.6349 40.9914 9.90676 40.5423 9.45766C40.0932 9.00856 39.3651 9.00856 38.916 9.45766L39.7292 10.2708L40.5423 11.084ZM39.6585 10.3415L40.4631 11.1632L40.4716 11.1547L39.6585 10.3415ZM39.3001 10.6924L40.1047 11.5141L40.1047 11.5141L39.3001 10.6924ZM39.1875 10.7782L39.6872 11.8139L39.6872 11.8139L39.1875 10.7782ZM38.9078 10.9131L38.4081 9.87738L38.4081 9.87739L38.9078 10.9131ZM38.628 11.0481L39.1277 12.0839L39.1277 12.0839L38.628 11.0481ZM38.5666 11.1331L39.6951 11.3546L39.6951 11.3546L38.5666 11.1331ZM38.4986 11.4798L37.3701 11.2583L37.3701 11.2583L38.4986 11.4798ZM38.4305 11.8264L39.559 12.048L39.559 12.048L38.4305 11.8264ZM38.3586 11.9009L38.6066 13.0238L38.6066 13.0238L38.3586 11.9009ZM38.0189 11.9759L37.7709 10.8529L37.7709 10.8529L38.0189 11.9759ZM37.6792 12.0509L37.9271 13.1738L37.9272 13.1738L37.6792 12.0509ZM37.5854 12.1035L38.4579 12.8526L38.458 12.8526L37.5854 12.1035ZM37.3938 12.3266L36.5213 11.5775L36.5213 11.5775L37.3938 12.3266ZM37.2023 12.5498L38.0748 13.2989L38.0748 13.2989L37.2023 12.5498ZM37.1374 12.6313L38.0626 13.3143L38.0626 13.3142L37.1374 12.6313ZM36.9612 12.8698L36.036 12.1868L36.036 12.1868L36.9612 12.8698ZM36.7851 13.1084L37.7103 13.7915L37.7103 13.7914L36.7851 13.1084ZM36.7568 13.1549L37.7205 12.5273L37.7204 12.5272L36.7568 13.1549ZM36.7728 13.1794L35.8092 13.807L36.3543 14.6441L37.2594 14.2214L36.7728 13.1794ZM36.8624 13.1376L37.6756 13.9508L36.3758 12.0956L36.8624 13.1376ZM35.9785 12.3952C35.5294 12.8443 35.5294 13.5724 35.9785 14.0215C36.4276 14.4706 37.1557 14.4706 37.6048 14.0215L36.7917 13.2083L35.9785 12.3952ZM33.3578 25.3481L32.2106 25.4287L32.2106 25.4287L33.3578 25.3481ZM33.3786 25.6439L34.5258 25.5633L34.5258 25.5633L33.3786 25.6439ZM33.3745 25.7477L34.5115 25.9199L34.5115 25.9199L33.3745 25.7477ZM33.3302 26.04L32.1932 25.8678L32.1932 25.8678L33.3302 26.04ZM33.2859 26.3323L34.423 26.5045L34.423 26.5045L33.2859 26.3323ZM33.2783 26.4376L34.4283 26.4338L34.4283 26.4337L33.2783 26.4376ZM33.2793 26.742L32.1293 26.7458L32.1293 26.7458L33.2793 26.742ZM33.2803 27.0465L34.4303 27.0427L34.4303 27.0427L33.2803 27.0465ZM33.2446 27.1439L34.1336 27.8734L34.1336 27.8734L33.2446 27.1439ZM33.0413 27.3916L32.1523 26.6621L32.1523 26.6621L33.0413 27.3916ZM32.838 27.6393L33.727 28.3689L33.727 28.3689L32.838 27.6393ZM32.7935 27.7352L33.9281 27.9229L33.9281 27.9229L32.7935 27.7352ZM32.7447 28.0304L31.6101 27.8426L31.6101 27.8426L32.7447 28.0304ZM32.6958 28.3256L33.8304 28.5134L33.8304 28.5134L32.6958 28.3256ZM32.6685 28.4268L33.7433 28.8358L33.7433 28.8358L32.6685 28.4268ZM32.5626 28.705L31.4878 28.296L31.4878 28.296L32.5626 28.705ZM32.4568 28.9832L33.5316 29.3923L33.5316 29.3923L32.4568 28.9832ZM32.4127 29.0785L33.4206 29.6323L33.4206 29.6323L32.4127 29.0785ZM32.2691 29.3399L31.2612 28.7861L31.2612 28.7861L32.2691 29.3399ZM32.1254 29.6014L33.1333 30.1552L33.1333 30.1552L32.1254 29.6014ZM32.0413 29.6684L32.4272 30.7518L32.4272 30.7517L32.0413 29.6684ZM31.7086 29.787L31.3227 28.7036L31.3227 28.7036L31.7086 29.787ZM31.3758 29.9055L31.7617 30.9888L31.7617 30.9888L31.3758 29.9055ZM31.2975 29.9759L32.3666 30.3996L32.3666 30.3996L31.2975 29.9759ZM31.1862 30.2566L30.1171 29.8329L30.1171 29.8329L31.1862 30.2566ZM31.075 30.5372L32.1441 30.9609L32.1441 30.9609L31.075 30.5372ZM31.0329 30.6378L32.0854 31.1013L32.0854 31.1012L31.0329 30.6378ZM30.9055 30.9272L29.853 30.4637L29.853 30.4637L30.9055 30.9272ZM30.778 31.2166L31.8305 31.6801L31.8305 31.68L30.778 31.2166ZM30.7128 31.2986L31.3873 32.23L31.3873 32.23L30.7128 31.2986ZM30.4704 31.4742L29.7959 30.5427L29.7959 30.5428L30.4704 31.4742ZM30.228 31.6497L30.9025 32.5811L30.9026 32.5811L30.228 31.6497ZM30.1335 31.6973L30.4855 32.7921L30.4855 32.7921L30.1335 31.6973ZM29.8401 31.7916L29.4881 30.6968L29.4881 30.6968L29.8401 31.7916ZM29.5467 31.886L29.8987 32.9808L29.8987 32.9808L29.5467 31.886ZM29.4595 31.9445L30.3376 32.6871L30.3377 32.6871L29.4595 31.9445ZM29.2587 32.182L28.3806 31.4394L28.3806 31.4394L29.2587 32.182ZM29.0579 32.4195L29.936 33.162L29.936 33.162L29.0579 32.4195ZM28.9772 32.4892L29.5801 33.4685L29.5801 33.4685L28.9772 32.4892ZM28.7211 32.6469L28.1183 31.6675L28.1182 31.6675L28.7211 32.6469ZM28.4649 32.8046L29.0677 33.7839L29.0677 33.7839L28.4649 32.8046ZM28.3602 32.8222L28.1657 33.9556L28.1657 33.9556L28.3602 32.8222ZM28.0231 32.7643L28.2176 31.6309L28.2176 31.6309L28.0231 32.7643ZM27.686 32.7065L27.4915 33.8399L27.4915 33.8399L27.686 32.7065ZM27.5801 32.7183L28.0728 33.7574L28.0728 33.7574L27.5801 32.7183ZM27.3167 32.8432L26.824 31.8041L26.824 31.8041L27.3167 32.8432ZM27.0534 32.968L27.5461 34.0072L27.5461 34.0071L27.0534 32.968ZM26.9596 33.0171L27.5301 34.0156L27.5302 34.0156L26.9596 33.0171ZM26.6913 33.1704L26.1208 32.1719L26.1208 32.1719L26.6913 33.1704ZM26.4231 33.3237L26.9936 34.3222L26.9937 34.3222L26.4231 33.3237ZM26.3238 33.3598L26.521 34.4927L26.521 34.4927L26.3238 33.3598ZM26.0296 33.411L25.8325 32.278L25.8325 32.278L26.0296 33.411ZM25.7354 33.4622L25.9325 34.5951L25.9325 34.5951L25.7354 33.4622ZM25.6307 33.4638L25.4713 34.6027L25.4713 34.6027L25.6307 33.4638ZM25.3319 33.422L25.4914 32.2831L25.4914 32.2831L25.3319 33.422ZM25.033 33.3801L24.8735 34.519L24.8736 34.519L25.033 33.3801ZM24.9285 33.3683L24.8297 34.514L24.8297 34.514L24.9285 33.3683ZM24.6351 33.3429L24.734 32.1972L24.734 32.1972L24.6351 33.3429ZM24.3417 33.3176L24.2429 34.4634L24.2429 34.4634L24.3417 33.3176ZM24.2416 33.2887L23.7224 34.3148L23.7224 34.3148L24.2416 33.2887ZM23.9676 33.15L24.4869 32.1239L24.4868 32.1239L23.9676 33.15ZM23.6936 33.0114L23.1743 34.0375L23.1743 34.0375L23.6936 33.0114ZM23.5925 32.9905L23.671 34.1378L23.671 34.1378L23.5925 32.9905ZM23.2936 33.011L23.2151 31.8636L23.2151 31.8636L23.2936 33.011ZM22.9947 33.0314L23.0732 34.1787L23.0732 34.1787L22.9947 33.0314ZM22.8844 33.0439L23.0598 34.1804L23.0599 34.1804L22.8844 33.0439ZM22.5584 33.0942L22.3829 31.9577L22.3829 31.9577L22.5584 33.0942ZM22.2324 33.1446L22.4078 34.2811L22.4078 34.2811L22.2324 33.1446ZM22.1315 33.119L21.4159 34.0193L21.4159 34.0193L22.1315 33.119ZM21.8862 32.924L22.6018 32.0238L22.6018 32.0238L21.8862 32.924ZM21.6408 32.729L20.9252 33.6292L20.9252 33.6292L21.6408 32.729ZM21.5431 32.6854L21.353 33.8196L21.353 33.8196L21.5431 32.6854ZM21.2345 32.6337L21.4246 31.4995L21.4246 31.4995L21.2345 32.6337ZM20.9259 32.582L20.7357 33.7162L20.7358 33.7162L20.9259 32.582ZM20.8334 32.5334L20.0051 33.3311L20.0051 33.3311L20.8334 32.5334ZM20.6178 32.3095L21.4461 31.5118L21.4461 31.5118L20.6178 32.3095ZM20.4022 32.0857L19.5739 32.8835L19.574 32.8835L20.4022 32.0857ZM20.338 31.9948L21.3628 31.4729L21.3628 31.4729L20.338 31.9948ZM20.1897 31.7036L19.165 32.2255L19.165 32.2255L20.1897 31.7036ZM20.0414 31.4124L21.0662 30.8905L21.0662 30.8905L20.0414 31.4124ZM19.9753 31.3304L19.2755 32.243L19.2755 32.243L19.9753 31.3304ZM19.7488 31.1568L20.4486 30.2442L20.4486 30.2442L19.7488 31.1568ZM19.5224 30.9831L18.8226 31.8958L18.8226 31.8958L19.5224 30.9831ZM19.4409 30.9222L18.7637 31.8517L18.7637 31.8517L19.4409 30.9222ZM19.2055 30.7508L19.8827 29.8213L19.8827 29.8213L19.2055 30.7508ZM18.9702 30.5793L18.293 31.5088L18.293 31.5088L18.9702 30.5793ZM18.9083 30.5003L19.9695 30.0572L19.9695 30.0572L18.9083 30.5003ZM18.7929 30.224L17.7317 30.667L17.7317 30.667L18.7929 30.224ZM18.6775 29.9477L19.7388 29.5046L19.7388 29.5046L18.6775 29.9477ZM18.608 29.8716L18.0494 30.8768L18.0494 30.8768L18.608 29.8716ZM18.3292 29.7166L18.8878 28.7114L18.8878 28.7114L18.3292 29.7166ZM18.0504 29.5617L17.4918 30.567L17.4919 30.567L18.0504 29.5617ZM17.9578 29.499L17.232 30.391L17.232 30.391L17.9578 29.499ZM17.7115 29.2986L18.4373 28.4066L18.4373 28.4066L17.7115 29.2986ZM17.4651 29.0982L16.7393 29.9902L16.7393 29.9902L17.4651 29.0982ZM17.4067 29.0111L18.5114 28.6914L18.5114 28.6914L17.4067 29.0111ZM17.322 28.7184L16.2173 29.0381L16.2173 29.0381L17.322 28.7184ZM17.2373 28.4257L18.342 28.106L18.342 28.106L17.2373 28.4257ZM17.2268 28.3171L18.3733 28.4066L18.3733 28.4066L17.2268 28.3171ZM17.252 27.994L16.1055 27.9045L16.1055 27.9045L17.252 27.994ZM17.2772 27.6709L18.4238 27.7604L18.4238 27.7604L17.2772 27.6709ZM17.2301 27.5746L16.534 28.4901L16.534 28.4901L17.2301 27.5746ZM16.9375 27.3522L17.6335 26.4367L17.6335 26.4367L16.9375 27.3522ZM16.6448 27.1297L15.9488 28.0451L15.9488 28.0451L16.6448 27.1297ZM16.6207 27.0315L17.6627 27.5181L17.6627 27.5181L16.6207 27.0315ZM16.7764 26.698L15.7344 26.2115L15.7344 26.2115L16.7764 26.698ZM16.9321 26.3645L17.9741 26.851L17.9742 26.851L16.9321 26.3645ZM16.9249 26.2577L15.9935 26.9322L15.9935 26.9322L16.9249 26.2577ZM16.728 25.9858L17.6594 25.3113L17.6594 25.3113L16.728 25.9858ZM16.5311 25.714L15.5997 26.3885L15.5997 26.3885L16.5311 25.714ZM16.5167 25.6132L17.5903 26.0253L17.5903 26.0253L16.5167 25.6132ZM16.6316 25.3136L15.558 24.9015L15.558 24.9015L16.6316 25.3136ZM16.7466 25.0141L17.8202 25.4262L17.8203 25.4262L16.7466 25.0141ZM16.76 24.9093L17.8998 24.757L17.8998 24.757L16.76 24.9093ZM16.7207 24.6153L15.5808 24.7676L15.5808 24.7676L16.7207 24.6153ZM16.6814 24.3212L17.8213 24.1689L17.8213 24.1689L16.6814 24.3212ZM16.6731 24.2165L17.8228 24.1875L17.8228 24.1875L16.6731 24.2165ZM16.6656 23.9172L15.5159 23.9462L15.5159 23.9463L16.6656 23.9172ZM16.658 23.6179L17.8076 23.5889L17.8076 23.5889L16.658 23.6179ZM16.6602 23.5118L17.8077 23.5871L17.8077 23.5871L16.6602 23.5118ZM16.68 23.2098L15.5325 23.1345L15.5325 23.1345L16.68 23.2098ZM16.6998 22.9077L17.8473 22.983L17.8473 22.983L16.6998 22.9077ZM16.737 22.8098L17.6547 23.5029L17.6547 23.5029L16.737 22.8098ZM16.9277 22.5573L16.01 21.8642L16.01 21.8642L16.9277 22.5573ZM17.1185 22.3047L18.0362 22.9977L18.0362 22.9977L17.1185 22.3047ZM17.1861 22.2188L18.0735 22.9503L18.0735 22.9503L17.1861 22.2188ZM17.3789 21.985L16.4915 21.2535L16.4915 21.2535L17.3789 21.985ZM17.5717 21.7511L18.4591 22.4825L18.4591 22.4825L17.5717 21.7511ZM17.6042 21.6517L18.7538 21.6214L18.7538 21.6214L17.6042 21.6517ZM17.5955 21.3225L16.4459 21.3529L16.4459 21.3529L17.5955 21.3225ZM17.5868 20.9933L18.7364 20.963L18.7364 20.963L17.5868 20.9933ZM17.6266 20.8997L18.3769 21.7712L18.3769 21.7712L17.6266 20.8997ZM17.8606 20.6982L17.1103 19.8267L17.1102 19.8267L17.8606 20.6982ZM18.0946 20.4967L18.8449 21.3682L18.8449 21.3682L18.0946 20.4967ZM18.1398 20.3993L19.2875 20.4717L19.2875 20.4717L18.1398 20.3993ZM18.1619 20.0484L17.0142 19.9759L17.0142 19.9759L18.1619 20.0484ZM18.1841 19.6975L19.3318 19.7699L19.3318 19.7699L18.1841 19.6975ZM18.2583 19.6275L18.3891 20.77L18.3891 20.77L18.2583 19.6275ZM18.6563 19.5819L18.5255 18.4394L18.5255 18.4394L18.6563 19.5819ZM19.0544 19.5363L19.1852 20.6789L19.1852 20.6789L19.0544 19.5363ZM19.1358 19.4666L20.2674 19.6717L20.2674 19.6717L19.1358 19.4666ZM19.1992 19.1168L18.0677 18.9117L18.0677 18.9117L19.1992 19.1168ZM19.2626 18.7671L20.3942 18.9722L20.3942 18.9722L19.2626 18.7671ZM19.3338 18.6968L19.4964 19.8353L19.4964 19.8353L19.3338 18.6968ZM19.6739 18.6483L19.5113 17.5098L19.5113 17.5098L19.6739 18.6483ZM20.0139 18.5997L20.1765 19.7382L20.1765 19.7382L20.0139 18.5997ZM20.1008 18.5402L21.1183 19.0761L21.1183 19.0761L20.1008 18.5402ZM20.2527 18.2518L19.2352 17.7159L19.2352 17.7159L20.2527 18.2518ZM20.4046 17.9633L21.4221 18.4992L21.4221 18.4992L20.4046 17.9633ZM20.4915 17.9138L20.4643 19.0635L20.4643 19.0635L20.4915 17.9138ZM20.8318 17.9218L20.859 16.7722L20.859 16.7722L20.8318 17.9218ZM21.1722 17.9299L21.145 19.0796L21.145 19.0796L21.1722 17.9299ZM21.269 17.8912L22.117 18.668L22.117 18.668L21.269 17.8912ZM21.4774 17.6637L20.6294 16.8869L20.6294 16.8869L21.4774 17.6637ZM21.6858 17.4362L22.5338 18.213L22.5338 18.213L21.6858 17.4362ZM21.7705 17.3775L22.1865 18.4496L22.1865 18.4496L21.7705 17.3775ZM22.042 17.2721L21.6259 16.2L21.6259 16.2L22.042 17.2721ZM22.3135 17.1668L22.7295 18.2389L22.7295 18.2389L22.3135 17.1668ZM22.4104 17.1325L22.7606 18.2279L22.7606 18.2279L22.4104 17.1325ZM22.6883 17.0436L22.3381 15.9482L22.3381 15.9482L22.6883 17.0436ZM22.9663 16.9548L23.3165 18.0501L23.3165 18.0501L22.9663 16.9548ZM23.0625 16.9078L23.6985 17.8659L23.6985 17.8659L23.0625 16.9078ZM23.3298 16.7304L22.6938 15.7722L22.6938 15.7722L23.3298 16.7304ZM23.597 16.5529L24.233 17.5111L24.2331 17.511L23.597 16.5529ZM23.6977 16.523L23.6681 17.6726L23.6681 17.6726L23.6977 16.523ZM24.0007 16.5308L24.0303 15.3812L24.0303 15.3812L24.0007 16.5308ZM24.3038 16.5386L24.2742 17.6882L24.2742 17.6882L24.3038 16.5386ZM24.41 16.5247L24.7299 17.6293L24.7299 17.6293L24.41 16.5247ZM24.7092 16.438L24.3893 15.3334L24.3893 15.3334L24.7092 16.438ZM25.0083 16.3514L25.3282 17.456L25.3282 17.456L25.0083 16.3514ZM25.1134 16.3551L24.7206 17.436L24.7206 17.436L25.1134 16.3551ZM25.4095 16.4627L25.8023 15.3819L25.8023 15.3819L25.4095 16.4627ZM25.7056 16.5703L25.3128 17.6512L25.3128 17.6512L25.7056 16.5703ZM25.8086 16.6031L25.5071 17.7129L25.5071 17.7129L25.8086 16.6031ZM26.0963 16.6813L26.3979 15.5715L26.3979 15.5715L26.0963 16.6813ZM26.3841 16.7595L26.0825 17.8692L26.0825 17.8692L26.3841 16.7595ZM26.4915 16.7612L26.732 17.8857L26.732 17.8857L26.4915 16.7612ZM26.8125 16.6925L26.572 15.5679L26.572 15.5679L26.8125 16.6925ZM27.1336 16.6238L27.3741 17.7484L27.3741 17.7484L27.1336 16.6238ZM27.2272 16.6689L28.1931 16.0447L28.1931 16.0447L27.2272 16.6689ZM27.4364 16.9927L26.4705 17.6168L26.4705 17.6168L27.4364 16.9927ZM27.6456 17.3165L28.6116 16.6924L28.6115 16.6924L27.6456 17.3165ZM27.7409 17.3662L27.8872 18.5068L27.8872 18.5068L27.7409 17.3662ZM28.0712 17.3238L27.9248 16.1831L27.9248 16.1831L28.0712 17.3238ZM28.4015 17.2814L28.5479 18.422L28.5479 18.422L28.4015 17.2814ZM28.4936 17.3212L29.4282 16.6511L29.4282 16.6511L28.4936 17.3212ZM28.6856 17.5889L27.751 18.259L27.751 18.259L28.6856 17.5889ZM28.8776 17.8566L29.8121 17.1865L29.8121 17.1865L28.8776 17.8566ZM28.9542 17.9302L29.5571 16.9509L29.5571 16.9509L28.9542 17.9302ZM29.1969 18.0796L28.594 19.0589L28.594 19.0589L29.1969 18.0796ZM29.4396 18.229L30.0424 17.2497L30.0424 17.2497L29.4396 18.229ZM29.5383 18.2656L29.3304 19.3967L29.3304 19.3967L29.5383 18.2656ZM29.8554 18.3239L30.0633 17.1929L30.0633 17.1929L29.8554 18.3239ZM30.1724 18.3822L29.9644 19.5133L29.9644 19.5133L30.1724 18.3822ZM30.2627 18.4322L31.1323 17.6797L31.1323 17.6797L30.2627 18.4322ZM30.4576 18.6574L29.588 19.4099L29.588 19.4099L30.4576 18.6574ZM30.6524 18.8826L31.5221 18.1301L31.5221 18.1301L30.6524 18.8826ZM30.7117 18.9695L31.7284 18.432L31.7284 18.432L30.7117 18.9695ZM30.8529 19.2364L29.8362 19.7739L29.8362 19.7739L30.8529 19.2364ZM30.994 19.5034L32.0107 18.9659L32.0107 18.9659L30.994 19.5034ZM31.0621 19.5809L31.7239 18.6404L31.7239 18.6404L31.0621 19.5809ZM31.3067 19.753L30.6449 20.6935L30.6449 20.6935L31.3067 19.753ZM31.5514 19.9252L32.2132 18.9847L32.2132 18.9847L31.5514 19.9252ZM31.6374 19.9892L32.3484 19.0854L32.3484 19.0854L31.6374 19.9892ZM31.8801 20.1802L31.1691 21.084L31.1691 21.084L31.8801 20.1802ZM32.1228 20.3711L32.8338 19.4672L32.8338 19.4672L32.1228 20.3711ZM32.1823 20.4557L33.2754 20.0987L33.2754 20.0987L32.1823 20.4557ZM32.2766 20.7444L31.1834 21.1015L31.1834 21.1015L32.2766 20.7444ZM32.3709 21.0332L33.464 20.6761L33.464 20.6761L32.3709 21.0332ZM32.4093 21.1312L33.4534 20.6493L33.4534 20.6493L32.4093 21.1312ZM32.5325 21.3981L31.4883 21.8801L31.4883 21.8801L32.5325 21.3981ZM32.6557 21.6651L33.6998 21.1831L33.6998 21.1831L32.6557 21.6651ZM32.7159 21.7539L33.562 20.9751L33.562 20.9751L32.7159 21.7539ZM32.9337 21.9906L32.0876 22.7695L32.0876 22.7695L32.9337 21.9906ZM33.1516 22.2273L33.9977 21.4485L33.9977 21.4485L33.1516 22.2273ZM33.204 22.3208L34.3143 22.0212L34.3143 22.0212L33.204 22.3208ZM33.2831 22.6139L32.1728 22.9135L32.1728 22.9135L33.2831 22.6139ZM33.3622 22.907L34.4725 22.6074L34.4725 22.6074L33.3622 22.907ZM33.344 23.0179L34.3542 23.5673L34.3542 23.5673L33.344 23.0179ZM33.1616 23.3532L32.1513 22.8038L32.1513 22.8038L33.1616 23.3532ZM32.9793 23.6885L33.9895 24.2379L33.9896 24.2379L32.9793 23.6885ZM32.9506 23.7974L34.0977 23.7157L34.0977 23.7156L32.9506 23.7974ZM32.9707 24.0793L31.8236 24.161L31.8236 24.1611L32.9707 24.0793ZM32.9908 24.3612L34.1379 24.2795L34.1379 24.2795L32.9908 24.3612ZM32.9975 24.4552L34.1446 24.3729L34.1446 24.3729L32.9975 24.4552ZM33.0155 24.7055L31.8684 24.7877L31.8684 24.7877L33.0155 24.7055ZM33.0334 24.9558L34.1805 24.8736L34.1805 24.8736L33.0334 24.9558ZM33.0588 25L33.0588 26.15L33.0588 26.15L33.0588 25ZM33.185 25L33.185 23.85L33.185 23.85L33.185 25ZM33.3111 25L33.3111 26.15L33.3111 26.15L33.3111 25ZM33.337 25.0522L34.4842 24.9716L34.4842 24.9715L33.337 25.0522ZM25 4.16667H23.85V4.26667H25H26.15V4.16667H25ZM25 4.26667L23.8988 4.59795L24.0496 5.09945L25.1509 4.76817L26.2521 4.43688L26.1013 3.93538L25 4.26667ZM25.1509 4.76817L24.0496 5.09944C24.0444 5.08211 24.0326 5.03941 24.0255 4.9774C24.0188 4.91786 24.0128 4.81034 24.0405 4.67608L25.1668 4.90842L26.2931 5.14075C26.3578 4.82717 26.2893 4.56042 26.2521 4.43689L25.1509 4.76817ZM25.1668 4.90842L24.0405 4.67607L23.98 4.96932L25.1063 5.20167L26.2326 5.43401L26.2931 5.14076L25.1668 4.90842ZM25.1063 5.20167L23.98 4.96932L23.9195 5.26257L25.0458 5.49492L26.1721 5.72726L26.2326 5.43401L25.1063 5.20167ZM25.0458 5.49492L23.9195 5.26256C23.8829 5.44005 23.8803 5.62261 23.9127 5.80225L25.0445 5.59842L26.1763 5.39458C26.1962 5.50522 26.1945 5.61878 26.1721 5.72728L25.0458 5.49492ZM25.0445 5.59842L23.9127 5.80224L23.9655 6.09549L25.0973 5.89167L26.2291 5.68785L26.1763 5.3946L25.0445 5.59842ZM25.0973 5.89167L23.9655 6.09549L24.0183 6.38874L25.1501 6.18492L26.2819 5.98109L26.2291 5.68784L25.0973 5.89167ZM25.1501 6.18492L24.0183 6.38873C24.023 6.41513 24.0275 6.44149 24.0317 6.4678L25.1676 6.28842L26.3035 6.10903C26.2968 6.06635 26.2896 6.0237 26.2819 5.98111L25.1501 6.18492ZM25.1676 6.28842L24.0317 6.46779L24.078 6.76104L25.2139 6.58167L26.3498 6.4023L26.3035 6.10905L25.1676 6.28842ZM25.2139 6.58167L24.078 6.76104L24.1243 7.05429L25.2602 6.87492L26.3961 6.69554L26.3498 6.40229L25.2139 6.58167ZM25.2602 6.87492L24.1243 7.05428C24.0724 6.72575 24.1871 6.45975 24.2986 6.30526L25.231 6.97842L26.1634 7.65157C26.3247 7.42808 26.4589 7.09308 26.3961 6.69556L25.2602 6.87492ZM25.231 6.97842L24.2986 6.30525L24.0869 6.5985L25.0193 7.27167L25.9517 7.94483L26.1634 7.65158L25.231 6.97842ZM25.0193 7.27167L24.0869 6.59851L23.8752 6.89176L24.8076 7.56492L25.74 8.23808L25.9517 7.94483L25.0193 7.27167ZM24.8076 7.56492L23.8752 6.89175C23.7502 7.0649 23.6312 7.32429 23.64 7.64792C23.6487 7.96801 23.7787 8.21486 23.902 8.37365L24.8104 7.66842L25.7188 6.96319C25.8152 7.08747 25.9314 7.29983 25.9392 7.58541C25.947 7.87454 25.8401 8.09943 25.7399 8.23809L24.8076 7.56492ZM24.8104 7.66842L23.902 8.37364L24.1297 8.66689L25.038 7.96167L25.9464 7.25644L25.7188 6.96319L24.8104 7.66842ZM25.038 7.96167L24.1297 8.66689L24.3573 8.96014L25.2657 8.25492L26.1741 7.54969L25.9464 7.25644L25.038 7.96167ZM25.2657 8.25492L24.3573 8.96013C24.3486 8.94893 24.3285 8.9224 24.3047 8.88407C24.2864 8.85458 24.2347 8.76904 24.195 8.64537C24.1683 8.56205 24.0586 8.20013 24.2602 7.79354C24.5076 7.29489 24.9754 7.18112 25.1831 7.16301L25.2829 8.30867L25.3828 9.45432C25.5981 9.43555 26.071 9.31904 26.3207 8.81558C26.5248 8.40418 26.4148 8.03537 26.3852 7.94309C26.3145 7.72277 26.1897 7.56975 26.1741 7.5497L25.2657 8.25492ZM25.2829 8.30867L25.1831 7.16301L25.0531 7.17435L25.1529 8.32L25.2528 9.46565L25.3828 9.45432L25.2829 8.30867ZM25.1529 8.32L25.7199 7.31948L25.567 7.23281L25 8.23333L24.433 9.23386L24.586 9.32052L25.1529 8.32ZM25 8.23333H23.85V8.33333H25H26.15V8.23333H25ZM25 41.6667H23.85V41.7667H25H26.15V41.6667H25ZM25 41.7667L23.8692 41.9759L23.962 42.4774L25.0928 42.2682L26.2236 42.0589L26.1308 41.5574L25 41.7667ZM25.0928 42.2682L23.962 42.4774C23.9449 42.3848 23.9122 42.1006 24.1026 41.7971L25.0767 42.4084L26.0508 43.0197C26.2845 42.6472 26.2626 42.2696 26.2236 42.0589L25.0928 42.2682ZM25.0767 42.4084L24.1027 41.7971L23.9186 42.0904L24.8927 42.7017L25.8667 43.313L26.0508 43.0197L25.0767 42.4084ZM24.8927 42.7017L23.9186 42.0904L23.7346 42.3836L24.7086 42.9949L25.6827 43.6062L25.8667 43.313L24.8927 42.7017ZM24.7086 42.9949L23.7346 42.3836C23.5641 42.6552 23.4724 43.0269 23.5873 43.4207L24.6913 43.0984L25.7952 42.7762C25.8374 42.9206 25.8488 43.0785 25.8222 43.237C25.7962 43.3918 25.7394 43.5159 25.6827 43.6062L24.7086 42.9949ZM24.6913 43.0984L23.5873 43.4207L23.6729 43.7139L24.7769 43.3917L25.8808 43.0694L25.7952 42.7762L24.6913 43.0984ZM24.7769 43.3917L23.6729 43.7139L23.7585 44.0072L24.8625 43.6849L25.9664 43.3627L25.8808 43.0694L24.7769 43.3917ZM24.8625 43.6849L23.7585 44.0072C23.7054 43.825 23.7073 43.6301 23.7624 43.4508L24.8617 43.7884L25.961 44.126C26.0373 43.8777 26.0397 43.6138 25.9664 43.3627L24.8625 43.6849ZM24.8617 43.7884L23.7624 43.4508L23.6723 43.744L24.7716 44.0817L25.8709 44.4193L25.961 44.1261L24.8617 43.7884ZM24.7716 44.0817L23.6723 43.744L23.5822 44.0373L24.6815 44.3749L25.7809 44.7126L25.8709 44.4193L24.7716 44.0817ZM24.6815 44.3749L23.5822 44.0373C23.4756 44.3843 23.5271 44.73 23.6726 45.0095L24.6926 44.4784L25.7126 43.9474C25.762 44.0422 25.8047 44.1627 25.8199 44.3046C25.8352 44.4482 25.8193 44.5873 25.7809 44.7126L24.6815 44.3749ZM24.6926 44.4784L23.6726 45.0095L23.8252 45.3027L24.8453 44.7717L25.8653 44.2406L25.7126 43.9474L24.6926 44.4784ZM24.8453 44.7717L23.8252 45.3027L23.9779 45.596L24.9979 45.0649L26.018 44.5339L25.8653 44.2406L24.8453 44.7717ZM24.9979 45.0649L23.9779 45.596C23.9576 45.5569 23.9364 45.5059 23.9211 45.4437L25.0376 45.1684L26.1542 44.8931C26.1218 44.7619 26.0742 44.6419 26.018 44.5339L24.9979 45.0649ZM25.0376 45.1684L23.9211 45.4437L23.9934 45.737L25.1099 45.4617L26.2265 45.1864L26.1542 44.8931L25.0376 45.1684ZM25.1099 45.4617L23.9934 45.737L24.0657 46.0302L25.1823 45.7549L26.2988 45.4796L26.2265 45.1863L25.1099 45.4617ZM25.1823 45.7549L24.0657 46.0302C24.0643 46.0245 24.0334 45.9106 24.0389 45.7543C24.0414 45.6818 24.0538 45.4814 24.1736 45.2591C24.3242 44.9796 24.6186 44.7248 25.0245 44.6693L25.1804 45.8087L25.3363 46.9481C25.747 46.8919 26.0452 46.6343 26.1984 46.35C26.3208 46.1229 26.3347 45.9156 26.3375 45.8341C26.3435 45.6599 26.3087 45.5198 26.2988 45.4796L25.1823 45.7549ZM25.1804 45.8087L25.0246 44.6693L24.9417 44.6806L25.0975 45.82L25.2533 46.9594L25.3362 46.9481L25.1804 45.8087ZM25.0975 45.82L25.8615 44.9604L25.764 44.8738L25 45.7333L24.236 46.5929L24.3335 46.6796L25.0975 45.82ZM25 45.7333H23.85V45.8333H25H26.15V45.7333H25ZM10.2708 10.2708L9.45766 11.084L9.52837 11.1547L10.3415 10.3415L11.1547 9.52837L11.084 9.45766L10.2708 10.2708ZM10.3415 10.3415L9.72931 11.315L10.1647 11.5889L10.7769 10.6154L11.3892 9.64189L10.9538 9.36806L10.3415 10.3415ZM10.7769 10.6154L10.1647 11.5889C10.1619 11.5871 10.1445 11.5761 10.1187 11.5552C10.0949 11.5359 10.0462 11.494 9.99232 11.4273L10.8865 10.7042L11.7807 9.98102C11.6413 9.80861 11.4803 9.69916 11.3892 9.64189L10.7769 10.6154ZM10.8865 10.7042L9.99232 11.4273L10.1777 11.6566L11.0719 10.9334L11.9661 10.2103L11.7807 9.98102L10.8865 10.7042ZM11.0719 10.9334L10.1777 11.6566L10.3632 11.8859L11.2574 11.1627L12.1515 10.4396L11.9661 10.2103L11.0719 10.9334ZM11.2574 11.1627L10.3632 11.8859C10.4897 12.0423 10.6436 12.1637 10.8111 12.2501L11.3384 11.2281L11.8656 10.2061C11.9688 10.2593 12.0687 10.3371 12.1515 10.4396L11.2574 11.1627ZM11.3384 11.2281L10.8111 12.2501L11.0847 12.3913L11.6119 11.3692L12.1392 10.3472L11.8656 10.2061L11.3384 11.2281ZM11.6119 11.3692L11.0847 12.3913L11.3583 12.5324L11.8855 11.5104L12.4128 10.4883L12.1392 10.3472L11.6119 11.3692ZM11.8855 11.5104L11.3583 12.5324C11.2444 12.4736 11.1353 12.3896 11.0436 12.2799C10.9529 12.1712 10.8956 12.057 10.8614 11.9545L11.9521 11.5901L13.0429 11.2258C12.9425 10.9252 12.7298 10.6519 12.4128 10.4883L11.8855 11.5104ZM11.9521 11.5901L10.8614 11.9545L10.9652 12.2654L12.056 11.901L13.1467 11.5366L13.0429 11.2258L11.9521 11.5901ZM12.056 11.901L10.9652 12.2654L11.0691 12.5762L12.1598 12.2119L13.2506 11.8475L13.1467 11.5366L12.056 11.901ZM12.1598 12.2119L11.0691 12.5762C11.1942 12.9508 11.4826 13.2438 11.8592 13.3731L12.2326 12.2854L12.6061 11.1978C12.7362 11.2424 12.8787 11.3215 13.0046 11.4487C13.1304 11.5759 13.2075 11.7185 13.2506 11.8475L12.1598 12.2119ZM12.2326 12.2854L11.8592 13.3731L12.1679 13.4791L12.5414 12.3914L12.9148 11.3038L12.6061 11.1978L12.2326 12.2854ZM12.5414 12.3914L12.1679 13.4791L12.4767 13.5851L12.8501 12.4974L13.2235 11.4097L12.9148 11.3038L12.5414 12.3914ZM12.8501 12.4974L12.4767 13.5851C12.3793 13.5517 12.2675 13.4929 12.1633 13.3969L12.9427 12.5512L13.722 11.7056C13.567 11.5628 13.3935 11.4681 13.2235 11.4097L12.8501 12.4974ZM12.9427 12.5512L12.1633 13.3969L12.3791 13.5958L13.1585 12.7501L13.9378 11.9045L13.722 11.7056L12.9427 12.5512ZM13.1585 12.7501L12.3791 13.5958L12.5949 13.7947L13.3743 12.949L14.1536 12.1034L13.9378 11.9045L13.1585 12.7501ZM13.3743 12.949L12.5949 13.7947C12.5716 13.7732 12.4388 13.6533 12.346 13.4417C12.2939 13.323 12.234 13.129 12.2562 12.8867C12.28 12.6258 12.3912 12.3976 12.5465 12.2269L13.3971 13.001L14.2476 13.775C14.408 13.5987 14.5221 13.3641 14.5466 13.0961C14.5694 12.8467 14.508 12.6448 14.4521 12.5174C14.3517 12.2886 14.2024 12.1483 14.1536 12.1034L13.3743 12.949ZM13.3971 13.001L12.5466 12.2269L12.4598 12.3222L13.3104 13.0962L14.1609 13.8703L14.2476 13.775L13.3971 13.001ZM13.3104 13.0962L13.0424 11.9779L12.8697 12.0193L13.1376 13.1376L13.4056 14.256L13.5783 14.2146L13.3104 13.0962ZM13.1376 13.1376L12.3245 13.9508L12.3952 14.0215L13.2083 13.2083L14.0215 12.3952L13.9508 12.3245L13.1376 13.1376ZM36.7917 36.7917L35.9785 37.6048L36.0492 37.6756L36.8624 36.8624L37.6756 36.0492L37.6048 35.9785L36.7917 36.7917ZM36.8624 36.8624L35.7969 37.295L36.0017 37.7994L37.0672 37.3668L38.1327 36.9342L37.9279 36.4298L36.8624 36.8624ZM37.0672 37.3668L36.0017 37.7994C36.0516 37.9225 36.1905 38.2351 36.5236 38.4504L37.1478 37.4846L37.7719 36.5187C37.9215 36.6153 38.0098 36.7261 38.0544 36.7912C38.1003 36.8582 38.1237 36.912 38.1327 36.9342L37.0672 37.3668ZM37.1478 37.4846L36.5236 38.4504L36.7756 38.6132L37.3997 37.6473L38.0239 36.6815L37.7719 36.5187L37.1478 37.4846ZM37.3997 37.6473L36.7756 38.6132L37.0275 38.776L37.6516 37.8101L38.2758 36.8442L38.0239 36.6815L37.3997 37.6473ZM37.6516 37.8101L37.0275 38.776C36.9528 38.7277 36.8838 38.6659 36.8259 38.5925L37.7284 37.8798L38.6309 37.1671C38.5299 37.0391 38.4098 36.9308 38.2758 36.8442L37.6516 37.8101ZM37.7284 37.8798L36.8259 38.5925L37.0088 38.8242L37.9114 38.1115L38.8139 37.3988L38.6309 37.1671L37.7284 37.8798ZM37.9114 38.1115L37.0088 38.8242L37.1918 39.0559L38.0944 38.3432L38.9969 37.6305L38.8139 37.3988L37.9114 38.1115ZM38.0944 38.3432L37.1918 39.0559C37.2756 39.162 37.3724 39.2561 37.4802 39.3366L38.1685 38.4154L38.8569 37.4942C38.9089 37.533 38.9562 37.579 38.9969 37.6305L38.0944 38.3432ZM38.1685 38.4154L37.4802 39.3366L37.7175 39.514L38.4059 38.5928L39.0943 37.6715L38.8569 37.4942L38.1685 38.4154ZM38.4059 38.5928L37.7175 39.514L37.9549 39.6913L38.6433 38.7701L39.3316 37.8489L39.0943 37.6715L38.4059 38.5928ZM38.6433 38.7701L37.9549 39.6914C37.9482 39.6864 37.9413 39.6806 37.9344 39.6741L38.7228 38.8369L39.5113 37.9998C39.4541 37.9459 39.3941 37.8956 39.3316 37.8489L38.6433 38.7701ZM38.7228 38.8369L37.9344 39.6741L38.1479 39.8752L38.9364 39.0381L39.7249 38.2009L39.5113 37.9998L38.7228 38.8369ZM38.9364 39.0381L38.1479 39.8752L38.3615 40.0764L39.15 39.2392L39.9384 38.4021L39.7249 38.2009L38.9364 39.0381ZM39.15 39.2392L38.3615 40.0764C38.3569 40.072 38.3525 40.0674 38.3486 40.0628L39.2215 39.3141L40.0943 38.5654C40.0453 38.5083 39.9933 38.4538 39.9384 38.4021L39.15 39.2392ZM39.2215 39.3141L38.3486 40.0628L38.54 40.286L39.4129 39.5373L40.2858 38.7886L40.0944 38.5654L39.2215 39.3141ZM39.4129 39.5373L38.54 40.286L38.7315 40.5093L39.6044 39.7606L40.4773 39.0119L40.2858 38.7886L39.4129 39.5373ZM39.6044 39.7606L38.7315 40.5093C38.7527 40.534 38.8111 40.6017 38.8922 40.6697C38.9247 40.697 39.0284 40.783 39.1835 40.8501C39.288 40.8953 39.8312 41.107 40.3513 40.7023L39.645 39.7947L38.9388 38.8871C39.4566 38.4842 39.9964 38.6958 40.0964 38.739C40.2469 38.8041 40.345 38.8863 40.3707 38.9079C40.4102 38.9411 40.4377 38.9691 40.4498 38.9817C40.4638 38.9963 40.4733 39.0072 40.4773 39.0119L39.6044 39.7606ZM39.645 39.7947L40.3515 40.7021L40.3901 40.672L39.6837 39.7646L38.9772 38.8571L38.9386 38.8872L39.645 39.7947ZM39.6837 39.7646L40.8025 39.4986L40.7773 39.3925L39.6585 39.6585L38.5396 39.9244L38.5649 40.0305L39.6837 39.7646ZM39.6585 39.6585L38.8453 40.4716L38.916 40.5423L39.7292 39.7292L40.5423 38.916L40.4716 38.8453L39.6585 39.6585ZM4.16667 25V26.15H4.26667V25V23.85H4.16667V25ZM4.26667 25L3.83228 26.0648L4.33378 26.2694L4.76817 25.2046L5.20256 24.1398L4.70106 23.9352L4.26667 25ZM4.76817 25.2046L4.33378 26.2694C4.5635 26.3631 5.08353 26.4943 5.58026 26.1368L4.90842 25.2034L4.23657 24.2701C4.6643 23.9622 5.09083 24.0942 5.20255 24.1398L4.76817 25.2046ZM4.90842 25.2034L5.58027 26.1368L5.87352 25.9257L5.20167 24.9923L4.52981 24.059L4.23656 24.2701L4.90842 25.2034ZM5.20167 24.9923L5.87352 25.9257L6.16677 25.7146L5.49492 24.7813L4.82306 23.8479L4.52981 24.059L5.20167 24.9923ZM5.49492 24.7813L6.16678 25.7146C6.07148 25.7832 5.92737 25.8603 5.73781 25.8923C5.54111 25.9254 5.35073 25.9004 5.18734 25.8378L5.59842 24.7638L6.00949 23.6898C5.55402 23.5155 5.11653 23.6367 4.82305 23.8479L5.49492 24.7813ZM5.59842 24.7638L5.18736 25.8378L5.48061 25.9501L5.89167 24.876L6.30273 23.802L6.00948 23.6898L5.59842 24.7638ZM5.89167 24.876L5.4806 25.9501L5.77385 26.0623L6.18492 24.9883L6.59598 23.9143L6.30273 23.802L5.89167 24.876ZM6.18492 24.9883L5.77387 26.0623C5.9547 26.1315 6.15736 26.1668 6.37103 26.1514L6.28842 25.0044L6.2058 23.8573C6.35047 23.8469 6.48413 23.8714 6.59597 23.9143L6.18492 24.9883ZM6.28842 25.0044L6.37105 26.1514L6.6643 26.1303L6.58167 24.9832L6.49904 23.8362L6.20579 23.8573L6.28842 25.0044ZM6.58167 24.9832L6.66429 26.1303L6.95754 26.1091L6.87492 24.9621L6.79229 23.8151L6.49904 23.8362L6.58167 24.9832ZM6.87492 24.9621L6.95756 26.1091C6.85417 26.1166 6.75503 26.1049 6.66588 26.0797L6.97842 24.973L7.29095 23.8663C7.1328 23.8216 6.96467 23.8027 6.79228 23.8151L6.87492 24.9621ZM6.97842 24.973L6.6659 26.0797L6.95915 26.1625L7.27167 25.0558L7.58419 23.9491L7.29094 23.8663L6.97842 24.973ZM7.27167 25.0558L6.95914 26.1625L7.25239 26.2453L7.56492 25.1386L7.87744 24.0319L7.58419 23.9491L7.27167 25.0558ZM7.56492 25.1386L7.25241 26.2453C7.44267 26.2991 7.64512 26.3131 7.84833 26.2809L7.66842 25.145L7.4885 24.0092C7.62271 23.9879 7.75616 23.9976 7.87743 24.0319L7.56492 25.1386ZM7.66842 25.145L7.84835 26.2809L8.1416 26.2344L7.96167 25.0986L7.78174 23.9627L7.48849 24.0092L7.66842 25.145ZM7.96167 25.0986L8.14159 26.2344L8.43484 26.188L8.25492 25.0521L8.07499 23.9163L7.78174 23.9627L7.96167 25.0986ZM8.25492 25.0521L8.43486 26.188C8.45775 26.1843 8.49508 26.1782 8.53467 26.1697C8.5508 26.1663 8.59493 26.1567 8.64813 26.1401C8.67185 26.1326 8.73054 26.1137 8.80108 26.0802C8.83631 26.0634 8.899 26.0316 8.9706 25.9811C9.02935 25.9397 9.17399 25.8312 9.29161 25.6376L8.30867 25.0406L7.32572 24.4437C7.44317 24.2503 7.58752 24.1421 7.64585 24.101C7.71702 24.0508 7.77915 24.0193 7.81369 24.0029C7.88286 23.97 7.93967 23.9518 7.96099 23.9451C8.00937 23.93 8.04662 23.9221 8.05379 23.9206C8.07546 23.9159 8.08658 23.9144 8.07498 23.9163L8.25492 25.0521ZM8.30867 25.0406L9.29169 25.6374L9.30302 25.6188L8.32 25.022L7.33698 24.4252L7.32565 24.4438L8.30867 25.0406ZM8.32 25.022L8.60248 23.9072L8.51582 23.8852L8.23333 25L7.95085 26.1148L8.03752 26.1367L8.32 25.022ZM8.23333 25V26.15H8.33333V25V23.85H8.23333V25ZM41.6667 25V26.15H41.7667V25V23.85H41.6667V25ZM41.7667 25L42.1686 26.0775L42.6701 25.8904L42.2682 24.8129L41.8662 23.7354L41.3647 23.9225L41.7667 25ZM42.2682 24.8129L42.6701 25.8904C42.6279 25.9061 42.541 25.9341 42.4209 25.9418C42.2963 25.9498 42.1169 25.9365 41.9239 25.8469L42.4084 24.8039L42.8929 23.761C42.4438 23.5523 42.0339 23.6729 41.8662 23.7355L42.2682 24.8129ZM42.4084 24.8039L41.9239 25.8469L42.2172 25.9831L42.7017 24.9402L43.1862 23.8972L42.8929 23.761L42.4084 24.8039ZM42.7017 24.9402L42.2172 25.9831L42.5104 26.1194L42.9949 25.0764L43.4794 24.0335L43.1862 23.8972L42.7017 24.9402ZM42.9949 25.0764L42.5104 26.1194C42.7062 26.2103 42.9378 26.2626 43.1888 26.2428L43.0984 25.0964L43.008 23.9499C43.19 23.9356 43.3527 23.9746 43.4794 24.0335L42.9949 25.0764ZM43.0984 25.0964L43.1888 26.2428L43.4821 26.2197L43.3917 25.0732L43.3013 23.9268L43.008 23.9499L43.0984 25.0964ZM43.3917 25.0732L43.4821 26.2197L43.7753 26.1966L43.6849 25.0501L43.5945 23.9037L43.3013 23.9268L43.3917 25.0732ZM43.6849 25.0501L43.7753 26.1966C43.9071 26.1862 44.033 26.1594 44.1513 26.1201L43.7884 25.0288L43.4256 23.9376C43.4749 23.9212 43.5317 23.9086 43.5945 23.9037L43.6849 25.0501ZM43.7884 25.0288L44.1513 26.1201L44.4445 26.0226L44.0817 24.9313L43.7188 23.8401L43.4256 23.9376L43.7884 25.0288ZM44.0817 24.9313L44.4445 26.0226L44.7378 25.9251L44.3749 24.8338L44.0121 23.7426L43.7188 23.8401L44.0817 24.9313ZM44.3749 24.8338L44.7378 25.9251C44.5081 26.0015 44.2625 25.9897 44.0508 25.9049L44.4784 24.8373L44.9061 23.7698C44.6253 23.6573 44.3108 23.6432 44.012 23.7426L44.3749 24.8338ZM44.4784 24.8373L44.0508 25.9049L44.344 26.0223L44.7717 24.9548L45.1993 23.8873L44.9061 23.7698L44.4784 24.8373ZM44.7717 24.9548L44.344 26.0223L44.6373 26.1398L45.0649 25.0723L45.4926 24.0047L45.1993 23.8873L44.7717 24.9548ZM45.0649 25.0723L44.6373 26.1398C44.8413 26.2215 45.0734 26.2582 45.316 26.2268L45.1684 25.0863L45.0209 23.9458C45.1945 23.9234 45.3576 23.9507 45.4926 24.0047L45.0649 25.0723ZM45.1684 25.0863L45.316 26.2268L45.6092 26.1889L45.4617 25.0484L45.3141 23.9079L45.0209 23.9458L45.1684 25.0863ZM45.4617 25.0484L45.6092 26.1889L45.9025 26.1509L45.7549 25.0104L45.6074 23.8699L45.3141 23.9079L45.4617 25.0484ZM45.7549 25.0104L45.9025 26.1509C45.9305 26.1473 45.9587 26.1437 45.9676 26.1424L45.8087 25.0035L45.6497 23.8645C45.6522 23.8641 45.6542 23.8639 45.6547 23.8638C45.6555 23.8637 45.6562 23.8636 45.6565 23.8636C45.6568 23.8635 45.6571 23.8635 45.6572 23.8635C45.6573 23.8635 45.6574 23.8634 45.6574 23.8634C45.6574 23.8634 45.6574 23.8635 45.6573 23.8635C45.6572 23.8635 45.6571 23.8635 45.657 23.8635C45.6567 23.8635 45.6563 23.8636 45.6558 23.8637C45.6538 23.8639 45.6506 23.8643 45.6462 23.8649C45.6375 23.866 45.6245 23.8677 45.6073 23.8699L45.7549 25.0104ZM45.8087 25.0035L45.9681 26.1423L45.9795 26.1408L45.82 25.0019L45.6606 23.863L45.6492 23.8646L45.8087 25.0035ZM45.82 25.0019L45.8448 23.8521L45.7581 23.8503L45.7333 25L45.7086 26.1497L45.7953 26.1516L45.82 25.0019ZM45.7333 25V26.15H45.8333V25V23.85H45.7333V25ZM13.2083 36.7917L12.3952 35.9785L12.3245 36.0492L13.1376 36.8624L13.9508 37.6756L14.0215 37.6048L13.2083 36.7917ZM13.1376 36.8624L12.3489 36.0255L11.9838 36.3696L12.7725 37.2065L13.5613 38.0434L13.9264 37.6992L13.1376 36.8624ZM12.7725 37.2065L11.9838 36.3696C11.9363 36.4143 11.8903 36.4587 11.8508 36.499L12.6719 37.3042L13.493 38.1093C13.5017 38.1004 13.5228 38.0797 13.5613 38.0434L12.7725 37.2065ZM12.6719 37.3042L11.8508 36.499L11.6454 36.7084L12.4665 37.5136L13.2876 38.3187L13.4929 38.1094L12.6719 37.3042ZM12.4665 37.5136L11.6454 36.7084L11.4401 36.9178L12.2612 37.723L13.0823 38.5281L13.2876 38.3187L12.4665 37.5136ZM12.2612 37.723L11.4401 36.9178C11.4201 36.9381 11.4 36.9584 11.3797 36.9785L12.1881 37.7963L12.9966 38.6141C13.0254 38.5857 13.0539 38.557 13.0823 38.5281L12.2612 37.723ZM12.1881 37.7963L11.3797 36.9784L11.1711 37.1846L11.9796 38.0024L12.7881 38.8203L12.9966 38.6141L12.1881 37.7963ZM11.9796 38.0024L11.1711 37.1846L10.9626 37.3908L11.771 38.2086L12.5795 39.0265L12.7881 38.8203L11.9796 38.0024ZM11.771 38.2086L10.9626 37.3908C11.0431 37.3112 11.1312 37.2548 11.2147 37.2176L11.6836 38.2676L12.1526 39.3176C12.3036 39.2502 12.4499 39.1546 12.5795 39.0265L11.771 38.2086ZM11.6836 38.2676L11.2147 37.2175L10.928 37.3456L11.397 38.3956L11.8659 39.4457L12.1526 39.3176L11.6836 38.2676ZM11.397 38.3956L10.928 37.3456L10.6413 37.4736L11.1103 38.5236L11.5792 39.5737L11.8659 39.4457L11.397 38.3956ZM11.1103 38.5236L10.6414 37.4736C10.2902 37.6304 10.0506 37.9233 9.94564 38.255L11.0421 38.6018L12.1385 38.9487C12.1027 39.0621 12.0394 39.1903 11.9347 39.3103C11.829 39.4315 11.7041 39.5179 11.5792 39.5737L11.1103 38.5236ZM11.0421 38.6018L9.94564 38.255L9.84598 38.5701L10.9424 38.9169L12.0389 39.2637L12.1385 38.9487L11.0421 38.6018ZM10.9424 38.9169L9.84598 38.5701L9.74632 38.8851L10.8428 39.232L11.9392 39.5788L12.0389 39.2637L10.9424 38.9169ZM10.8428 39.232L9.74632 38.8851C9.75615 38.854 9.77147 38.8157 9.79503 38.7736L10.7989 39.3345L11.8029 39.8954C11.8614 39.7907 11.9059 39.684 11.9392 39.5788L10.8428 39.232ZM10.7989 39.3345L9.79503 38.7736L9.64637 39.0396L10.6503 39.6006L11.6542 40.1615L11.8029 39.8954L10.7989 39.3345ZM10.6503 39.6006L9.64637 39.0396L9.49771 39.3057L10.5016 39.8666L11.5055 40.4276L11.6542 40.1615L10.6503 39.6006ZM10.5016 39.8666L9.49772 39.3057C9.50263 39.2969 9.58412 39.1403 9.76156 38.9989C9.8586 38.9216 10.0705 38.7797 10.3817 38.7561C10.7373 38.7292 11.0349 38.8696 11.23 39.0456L10.4601 39.8997L9.69008 40.7539C9.89034 40.9345 10.1935 41.0769 10.5551 41.0496C10.8724 41.0256 11.0907 40.8807 11.1947 40.7978C11.386 40.6455 11.4831 40.4677 11.5055 40.4276L10.5016 39.8666ZM10.4601 39.8997L11.2301 39.0456L11.1431 38.9672L10.3731 39.8214L9.60311 40.6755L9.69005 40.7539L10.4601 39.8997ZM10.3731 39.8214L11.5021 39.6026L11.4705 39.4397L10.3415 39.6585L9.21255 39.8772L9.24411 40.0401L10.3731 39.8214ZM10.3415 39.6585L9.52837 38.8453L9.45766 38.916L10.2708 39.7292L11.084 40.5423L11.1547 40.4716L10.3415 39.6585ZM39.7292 10.2708L38.916 9.45766L38.8453 9.52837L39.6585 10.3415L40.4716 11.1547L40.5423 11.084L39.7292 10.2708ZM39.6585 10.3415L38.8538 9.5199L38.4955 9.8708L39.3001 10.6924L40.1047 11.5141L40.4631 11.1632L39.6585 10.3415ZM39.3001 10.6924L38.4955 9.87079C38.5004 9.86598 38.5166 9.85052 38.5437 9.82989C38.5696 9.81014 38.6181 9.77608 38.6878 9.74243L39.1875 10.7782L39.6872 11.8139C39.8804 11.7208 40.0211 11.596 40.1047 11.5141L39.3001 10.6924ZM39.1875 10.7782L38.6878 9.74242L38.4081 9.87738L38.9078 10.9131L39.4075 11.9489L39.6872 11.8139L39.1875 10.7782ZM38.9078 10.9131L38.4081 9.87739L38.1283 10.0123L38.628 11.0481L39.1277 12.0839L39.4075 11.9489L38.9078 10.9131ZM38.628 11.0481L38.1283 10.0123C37.7213 10.2087 37.505 10.5713 37.4382 10.9116L38.5666 11.1331L39.6951 11.3546C39.6731 11.4667 39.624 11.611 39.5203 11.7545C39.4135 11.9024 39.2752 12.0127 39.1277 12.0839L38.628 11.0481ZM38.5666 11.1331L37.4382 10.9116L37.3701 11.2583L38.4986 11.4798L39.6271 11.7013L39.6951 11.3546L38.5666 11.1331ZM38.4986 11.4798L37.3701 11.2583L37.3021 11.6049L38.4305 11.8264L39.559 12.048L39.6271 11.7013L38.4986 11.4798ZM38.4305 11.8264L37.3021 11.6049C37.332 11.4526 37.4086 11.2534 37.5798 11.0762C37.7521 10.8981 37.9519 10.813 38.1106 10.7779L38.3586 11.9009L38.6066 13.0238C38.8053 12.9799 39.037 12.878 39.2333 12.675C39.4285 12.4731 39.5211 12.2411 39.559 12.048L38.4305 11.8264ZM38.3586 11.9009L38.1106 10.7779L37.7709 10.8529L38.0189 11.9759L38.2669 13.0988L38.6066 13.0238L38.3586 11.9009ZM38.0189 11.9759L37.7709 10.8529L37.4312 10.9279L37.6792 12.0509L37.9272 13.1738L38.2669 13.0988L38.0189 11.9759ZM37.6792 12.0509L37.4312 10.9279C37.194 10.9803 36.9258 11.1063 36.7129 11.3544L37.5854 12.1035L38.458 12.8526C38.2901 13.0482 38.0844 13.1391 37.9271 13.1738L37.6792 12.0509ZM37.5854 12.1035L36.7129 11.3544L36.5213 11.5775L37.3938 12.3266L38.2664 13.0758L38.4579 12.8526L37.5854 12.1035ZM37.3938 12.3266L36.5213 11.5775L36.3297 11.8006L37.2023 12.5498L38.0748 13.2989L38.2664 13.0758L37.3938 12.3266ZM37.2023 12.5498L36.3297 11.8006C36.2887 11.8485 36.2495 11.8977 36.2122 11.9483L37.1374 12.6313L38.0626 13.3142C38.0667 13.3087 38.0708 13.3036 38.0748 13.2989L37.2023 12.5498ZM37.1374 12.6313L36.2122 11.9482L36.036 12.1868L36.9612 12.8698L37.8864 13.5529L38.0626 13.3143L37.1374 12.6313ZM36.9612 12.8698L36.036 12.1868L35.8599 12.4254L36.7851 13.1084L37.7103 13.7914L37.8864 13.5528L36.9612 12.8698ZM36.7851 13.1084L35.8599 12.4254C35.8441 12.4468 35.8121 12.4907 35.7801 12.5433C35.7675 12.564 35.7289 12.6277 35.6936 12.7138C35.6774 12.7534 35.6403 12.8485 35.6204 12.9758C35.6071 13.0609 35.5561 13.4186 35.7933 13.7826L36.7568 13.1549L37.7204 12.5272C37.9571 12.8904 37.906 13.247 37.8929 13.3306C37.8733 13.4564 37.8368 13.5495 37.8215 13.5869C37.7881 13.6683 37.7528 13.7259 37.7449 13.7389C37.7316 13.7608 37.7211 13.7761 37.7173 13.7816C37.7148 13.7851 37.713 13.7877 37.712 13.7892C37.7109 13.7906 37.7103 13.7914 37.7103 13.7915L36.7851 13.1084ZM36.7568 13.1549L35.7932 13.7824L35.8092 13.807L36.7728 13.1794L37.7365 12.5519L37.7205 12.5273L36.7568 13.1549ZM36.7728 13.1794L37.2594 14.2214L37.349 14.1796L36.8624 13.1376L36.3758 12.0956L36.2863 12.1375L36.7728 13.1794ZM36.8624 13.1376L36.0492 12.3245L35.9785 12.3952L36.7917 13.2083L37.6048 14.0215L37.6756 13.9508L36.8624 13.1376ZM33.3578 25.3481L32.2106 25.4287L32.2314 25.7246L33.3786 25.6439L34.5258 25.5633L34.505 25.2674L33.3578 25.3481ZM33.3786 25.6439L32.2314 25.7246C32.228 25.6752 32.2299 25.625 32.2374 25.5755L33.3745 25.7477L34.5115 25.9199C34.5294 25.8016 34.5341 25.6822 34.5258 25.5633L33.3786 25.6439ZM33.3745 25.7477L32.2374 25.5755L32.1932 25.8678L33.3302 26.04L34.4672 26.2122L34.5115 25.9199L33.3745 25.7477ZM33.3302 26.04L32.1932 25.8678L32.1489 26.16L33.2859 26.3323L34.423 26.5045L34.4672 26.2122L33.3302 26.04ZM33.2859 26.3323L32.1489 26.16C32.1346 26.2544 32.128 26.3484 32.1283 26.4414L33.2783 26.4376L34.4283 26.4337C34.4284 26.4551 34.4268 26.4789 34.423 26.5045L33.2859 26.3323ZM33.2783 26.4376L32.1283 26.4414L32.1293 26.7458L33.2793 26.742L34.4293 26.7382L34.4283 26.4338L33.2783 26.4376ZM33.2793 26.742L32.1293 26.7458L32.1303 27.0503L33.2803 27.0465L34.4303 27.0427L34.4293 26.7382L33.2793 26.742ZM33.2803 27.0465L32.1303 27.0503C32.1295 26.8039 32.2196 26.5802 32.3556 26.4144L33.2446 27.1439L34.1336 27.8734C34.3175 27.6494 34.4313 27.3607 34.4303 27.0427L33.2803 27.0465ZM33.2446 27.1439L32.3556 26.4144L32.1523 26.6621L33.0413 27.3916L33.9303 28.1212L34.1336 27.8734L33.2446 27.1439ZM33.0413 27.3916L32.1523 26.6621L31.9491 26.9098L32.838 27.6393L33.727 28.3689L33.9303 28.1212L33.0413 27.3916ZM32.838 27.6393L31.9491 26.9098C31.8066 27.0834 31.7 27.2995 31.659 27.5474L32.7935 27.7352L33.9281 27.9229C33.8986 28.1013 33.8217 28.2535 33.727 28.3689L32.838 27.6393ZM32.7935 27.7352L31.659 27.5474L31.6101 27.8426L32.7447 28.0304L33.8792 28.2182L33.9281 27.9229L32.7935 27.7352ZM32.7447 28.0304L31.6101 27.8426L31.5613 28.1378L32.6958 28.3256L33.8304 28.5134L33.8792 28.2181L32.7447 28.0304ZM32.6958 28.3256L31.5613 28.1378C31.568 28.0974 31.5788 28.057 31.5937 28.0178L32.6685 28.4268L33.7433 28.8358C33.7832 28.7311 33.8122 28.6233 33.8304 28.5134L32.6958 28.3256ZM32.6685 28.4268L31.5937 28.0178L31.4878 28.296L32.5626 28.705L33.6374 29.114L33.7433 28.8358L32.6685 28.4268ZM32.5626 28.705L31.4878 28.296L31.3819 28.5742L32.4568 28.9832L33.5316 29.3923L33.6374 29.114L32.5626 28.705ZM32.4568 28.9832L31.382 28.5742C31.3885 28.5571 31.3962 28.5405 31.4048 28.5247L32.4127 29.0785L33.4206 29.6323C33.4631 29.555 33.5001 29.4749 33.5316 29.3923L32.4568 28.9832ZM32.4127 29.0785L31.4049 28.5247L31.2612 28.7861L32.2691 29.3399L33.2769 29.8937L33.4206 29.6323L32.4127 29.0785ZM32.2691 29.3399L31.2612 28.7861L31.1175 29.0476L32.1254 29.6014L33.1333 30.1552L33.2769 29.8937L32.2691 29.3399ZM32.1254 29.6014L31.1175 29.0476C31.2604 28.7876 31.481 28.6473 31.6554 28.5851L32.0413 29.6684L32.4272 30.7517C32.68 30.6617 32.9566 30.4767 33.1333 30.1552L32.1254 29.6014ZM32.0413 29.6684L31.6554 28.5851L31.3227 28.7036L31.7086 29.787L32.0945 30.8703L32.4272 30.7518L32.0413 29.6684ZM31.7086 29.787L31.3227 28.7036L30.9899 28.8222L31.3758 29.9055L31.7617 30.9888L32.0945 30.8703L31.7086 29.787ZM31.3758 29.9055L30.9899 28.8222C30.6972 28.9264 30.3847 29.1578 30.2283 29.5523L31.2975 29.9759L32.3666 30.3996C32.3084 30.5463 32.2162 30.6804 32.0957 30.7888C31.9787 30.8939 31.858 30.9545 31.7617 30.9888L31.3758 29.9055ZM31.2975 29.9759L30.2284 29.5522L30.1171 29.8329L31.1862 30.2566L32.2553 30.6803L32.3666 30.3996L31.2975 29.9759ZM31.1862 30.2566L30.1171 29.8329L30.0059 30.1135L31.075 30.5372L32.1441 30.9609L32.2553 30.6803L31.1862 30.2566ZM31.075 30.5372L30.0059 30.1135C29.9984 30.1325 29.9899 30.1528 29.9804 30.1744L31.0329 30.6378L32.0854 31.1012C32.1059 31.0547 32.1255 31.0079 32.1441 30.9609L31.075 30.5372ZM31.0329 30.6378L29.9804 30.1743L29.853 30.4637L30.9055 30.9272L31.9579 31.3906L32.0854 31.1013L31.0329 30.6378ZM30.9055 30.9272L29.853 30.4637L29.7256 30.7531L30.778 31.2166L31.8305 31.68L31.9579 31.3906L30.9055 30.9272ZM30.778 31.2166L29.7256 30.7531C29.788 30.6114 29.892 30.4731 30.0382 30.3672L30.7128 31.2986L31.3873 32.23C31.5906 32.0828 31.7381 31.8898 31.8305 31.6801L30.778 31.2166ZM30.7128 31.2986L30.0383 30.3672L29.7959 30.5427L30.4704 31.4742L31.1449 32.4056L31.3873 32.23L30.7128 31.2986ZM30.4704 31.4742L29.7959 30.5428L29.5535 30.7183L30.228 31.6497L30.9026 32.5811L31.1449 32.4056L30.4704 31.4742ZM30.228 31.6497L29.5535 30.7183C29.6261 30.6657 29.704 30.6274 29.7815 30.6025L30.1335 31.6973L30.4855 32.7921C30.632 32.745 30.7729 32.675 30.9025 32.5811L30.228 31.6497ZM30.1335 31.6973L29.7815 30.6025L29.4881 30.6968L29.8401 31.7916L30.1921 32.8864L30.4855 32.7921L30.1335 31.6973ZM29.8401 31.7916L29.4881 30.6968L29.1947 30.7912L29.5467 31.886L29.8987 32.9808L30.1921 32.8864L29.8401 31.7916ZM29.5467 31.886L29.1948 30.7911C28.9534 30.8687 28.7426 31.0113 28.5814 31.202L29.4595 31.9445L30.3377 32.6871C30.2237 32.8219 30.0711 32.9254 29.8987 32.9808L29.5467 31.886ZM29.4595 31.9445L28.5814 31.2019L28.3806 31.4394L29.2587 32.182L30.1368 32.9245L30.3376 32.6871L29.4595 31.9445ZM29.2587 32.182L28.3806 31.4394L28.1798 31.6769L29.0579 32.4195L29.936 33.162L30.1368 32.9245L29.2587 32.182ZM29.0579 32.4195L28.1798 31.6769C28.2321 31.615 28.2973 31.5573 28.3744 31.5099L28.9772 32.4892L29.5801 33.4685C29.7174 33.384 29.8364 33.2798 29.936 33.162L29.0579 32.4195ZM28.9772 32.4892L28.3744 31.5098L28.1183 31.6675L28.7211 32.6469L29.3239 33.6262L29.5801 33.4685L28.9772 32.4892ZM28.7211 32.6469L28.1182 31.6675L27.8621 31.8252L28.4649 32.8046L29.0677 33.7839L29.3239 33.6262L28.7211 32.6469ZM28.4649 32.8046L27.8621 31.8252C28.1028 31.6771 28.359 31.6552 28.5547 31.6887L28.3602 32.8222L28.1657 33.9556C28.4407 34.0028 28.7667 33.9692 29.0677 33.7839L28.4649 32.8046ZM28.3602 32.8222L28.5547 31.6887L28.2176 31.6309L28.0231 32.7643L27.8286 33.8978L28.1657 33.9556L28.3602 32.8222ZM28.0231 32.7643L28.2176 31.6309L27.8805 31.5731L27.686 32.7065L27.4915 33.8399L27.8286 33.8978L28.0231 32.7643ZM27.686 32.7065L27.8805 31.5731C27.6492 31.5334 27.3675 31.5464 27.0874 31.6792L27.5801 32.7183L28.0728 33.7574C27.8546 33.8609 27.6435 33.866 27.4915 33.8399L27.686 32.7065ZM27.5801 32.7183L27.0874 31.6792L26.824 31.8041L27.3167 32.8432L27.8094 33.8823L28.0728 33.7574L27.5801 32.7183ZM27.3167 32.8432L26.824 31.8041L26.5607 31.9289L27.0534 32.968L27.5461 34.0071L27.8094 33.8823L27.3167 32.8432ZM27.0534 32.968L26.5607 31.9289C26.5017 31.9569 26.4445 31.9869 26.389 32.0186L26.9596 33.0171L27.5302 34.0156C27.5378 34.0112 27.5431 34.0086 27.5461 34.0072L27.0534 32.968ZM26.9596 33.0171L26.389 32.0186L26.1208 32.1719L26.6913 33.1704L27.2619 34.1689L27.5301 34.0156L26.9596 33.0171ZM26.6913 33.1704L26.1208 32.1719L25.8525 32.3252L26.4231 33.3237L26.9937 34.3222L27.2619 34.1689L26.6913 33.1704ZM26.4231 33.3237L25.8526 32.3252C25.9327 32.2794 26.0255 32.2444 26.1267 32.2268L26.3238 33.3598L26.521 34.4927C26.6915 34.4631 26.8504 34.404 26.9936 34.3222L26.4231 33.3237ZM26.3238 33.3598L26.1267 32.2268L25.8325 32.278L26.0296 33.411L26.2268 34.5439L26.521 34.4927L26.3238 33.3598ZM26.0296 33.411L25.8325 32.278L25.5382 32.3292L25.7354 33.4622L25.9325 34.5951L26.2268 34.5439L26.0296 33.411ZM25.7354 33.4622L25.5383 32.3292C25.6227 32.3145 25.7082 32.3134 25.7902 32.3249L25.6307 33.4638L25.4713 34.6027C25.6236 34.624 25.7788 34.6219 25.9325 34.5951L25.7354 33.4622ZM25.6307 33.4638L25.7902 32.3249L25.4914 32.2831L25.3319 33.422L25.1724 34.5608L25.4713 34.6027L25.6307 33.4638ZM25.3319 33.422L25.4914 32.2831L25.1925 32.2412L25.033 33.3801L24.8736 34.519L25.1724 34.5608L25.3319 33.422ZM25.033 33.3801L25.1925 32.2412C25.1377 32.2335 25.0826 32.2273 25.0274 32.2225L24.9285 33.3683L24.8297 34.514C24.8434 34.5152 24.858 34.5168 24.8735 34.519L25.033 33.3801ZM24.9285 33.3683L25.0274 32.2225L24.734 32.1972L24.6351 33.3429L24.5363 34.4887L24.8297 34.514L24.9285 33.3683ZM24.6351 33.3429L24.734 32.1972L24.4406 32.1719L24.3417 33.3176L24.2429 34.4634L24.5363 34.4887L24.6351 33.3429ZM24.3417 33.3176L24.4406 32.1719C24.5588 32.1821 24.6676 32.2154 24.7609 32.2626L24.2416 33.2887L23.7224 34.3148C23.8801 34.3946 24.0556 34.4472 24.2429 34.4634L24.3417 33.3176ZM24.2416 33.2887L24.7609 32.2626L24.4869 32.1239L23.9676 33.15L23.4483 34.1761L23.7224 34.3148L24.2416 33.2887ZM23.9676 33.15L24.4868 32.1239L24.2128 31.9853L23.6936 33.0114L23.1743 34.0375L23.4484 34.1761L23.9676 33.15ZM23.6936 33.0114L24.2128 31.9853C24.0007 31.8779 23.761 31.8263 23.5139 31.8432L23.5925 32.9905L23.671 34.1378C23.4943 34.1499 23.322 34.1122 23.1743 34.0375L23.6936 33.0114ZM23.5925 32.9905L23.514 31.8432L23.2151 31.8636L23.2936 33.011L23.3721 34.1583L23.671 34.1378L23.5925 32.9905ZM23.2936 33.011L23.2151 31.8636L22.9161 31.8841L22.9947 33.0314L23.0732 34.1787L23.3721 34.1583L23.2936 33.011ZM22.9947 33.0314L22.9162 31.8841C22.8455 31.8889 22.7762 31.897 22.7089 31.9074L22.8844 33.0439L23.0599 34.1804C23.0692 34.179 23.0735 34.1787 23.0732 34.1787L22.9947 33.0314ZM22.8844 33.0439L22.7089 31.9074L22.3829 31.9577L22.5584 33.0942L22.7338 34.2308L23.0598 34.1804L22.8844 33.0439ZM22.5584 33.0942L22.3829 31.9577L22.0569 32.008L22.2324 33.1446L22.4078 34.2811L22.7338 34.2308L22.5584 33.0942ZM22.2324 33.1446L22.0569 32.008C22.172 31.9903 22.311 31.9899 22.4607 32.0278C22.6118 32.0661 22.7422 32.1354 22.8471 32.2188L22.1315 33.119L21.4159 34.0193C21.7103 34.2533 22.0712 34.3331 22.4078 34.2811L22.2324 33.1446ZM22.1315 33.119L22.8471 32.2188L22.6018 32.0238L21.8862 32.924L21.1706 33.8242L21.4159 34.0193L22.1315 33.119ZM21.8862 32.924L22.6018 32.0238L22.3565 31.8288L21.6408 32.729L20.9252 33.6292L21.1706 33.8242L21.8862 32.924ZM21.6408 32.729L22.3565 31.8288C22.1753 31.6848 21.962 31.5896 21.7332 31.5513L21.5431 32.6854L21.353 33.8196C21.1968 33.7934 21.0486 33.7273 20.9252 33.6292L21.6408 32.729ZM21.5431 32.6854L21.7332 31.5513L21.4246 31.4995L21.2345 32.6337L21.0444 33.7679L21.353 33.8196L21.5431 32.6854ZM21.2345 32.6337L21.4246 31.4995L21.116 31.4478L20.9259 32.582L20.7358 33.7162L21.0444 33.7679L21.2345 32.6337ZM20.9259 32.582L21.116 31.4478C21.3212 31.4822 21.5146 31.5829 21.6617 31.7356L20.8334 32.5334L20.0051 33.3311C20.2029 33.5365 20.458 33.6696 20.7357 33.7162L20.9259 32.582ZM20.8334 32.5334L21.6617 31.7356L21.4461 31.5118L20.6178 32.3095L19.7895 33.1073L20.0051 33.3311L20.8334 32.5334ZM20.6178 32.3095L21.4461 31.5118L21.2305 31.2879L20.4022 32.0857L19.574 32.8835L19.7895 33.1073L20.6178 32.3095ZM20.4022 32.0857L21.2305 31.288C21.2879 31.3475 21.3314 31.4113 21.3628 31.4729L20.338 31.9948L19.3133 32.5167C19.3796 32.6469 19.4659 32.7713 19.5739 32.8835L20.4022 32.0857ZM20.338 31.9948L21.3628 31.4729L21.2145 31.1817L20.1897 31.7036L19.165 32.2255L19.3133 32.5167L20.338 31.9948ZM20.1897 31.7036L21.2145 31.1817L21.0662 30.8905L20.0414 31.4124L19.0167 31.9343L19.165 32.2255L20.1897 31.7036ZM20.0414 31.4124L21.0662 30.8905C20.9822 30.7256 20.8563 30.5568 20.675 30.4178L19.9753 31.3304L19.2755 32.243C19.1476 32.1449 19.0657 32.0307 19.0167 31.9343L20.0414 31.4124ZM19.9753 31.3304L20.675 30.4178L20.4486 30.2442L19.7488 31.1568L19.0491 32.0694L19.2755 32.243L19.9753 31.3304ZM19.7488 31.1568L20.4486 30.2442L20.2221 30.0705L19.5224 30.9831L18.8226 31.8958L19.0491 32.0694L19.7488 31.1568ZM19.5224 30.9831L20.2221 30.0705C20.1879 30.0443 20.1532 30.0183 20.118 29.9928L19.4409 30.9222L18.7637 31.8517C18.7839 31.8665 18.8036 31.8812 18.8226 31.8958L19.5224 30.9831ZM19.4409 30.9222L20.118 29.9928L19.8827 29.8213L19.2055 30.7508L18.5283 31.6802L18.7637 31.8517L19.4409 30.9222ZM19.2055 30.7508L19.8827 29.8213L19.6473 29.6498L18.9702 30.5793L18.293 31.5088L18.5283 31.6802L19.2055 30.7508ZM18.9702 30.5793L19.6474 29.6498C19.7948 29.7572 19.9044 29.9013 19.9695 30.0572L18.9083 30.5003L17.847 30.9433C17.9393 31.1643 18.0902 31.361 18.293 31.5088L18.9702 30.5793ZM18.9083 30.5003L19.9695 30.0572L19.8541 29.7809L18.7929 30.224L17.7317 30.667L17.8471 30.9433L18.9083 30.5003ZM18.7929 30.224L19.8541 29.7809L19.7388 29.5046L18.6775 29.9477L17.6163 30.3907L17.7317 30.667L18.7929 30.224ZM18.6775 29.9477L19.7388 29.5046C19.6189 29.2174 19.4096 29.0014 19.1666 28.8663L18.608 29.8716L18.0494 30.8768C17.872 30.7782 17.7091 30.6129 17.6163 30.3907L18.6775 29.9477ZM18.608 29.8716L19.1666 28.8663L18.8878 28.7114L18.3292 29.7166L17.7706 30.7219L18.0494 30.8768L18.608 29.8716ZM18.3292 29.7166L18.8878 28.7114L18.609 28.5565L18.0504 29.5617L17.4919 30.567L17.7706 30.7219L18.3292 29.7166ZM18.0504 29.5617L18.609 28.5565C18.6349 28.5709 18.66 28.5878 18.6836 28.607L17.9578 29.499L17.232 30.391C17.3135 30.4574 17.4004 30.5161 17.4918 30.567L18.0504 29.5617ZM17.9578 29.499L18.6836 28.607L18.4373 28.4066L17.7115 29.2986L16.9856 30.1906L17.232 30.391L17.9578 29.499ZM17.7115 29.2986L18.4373 28.4066L18.1909 28.2062L17.4651 29.0982L16.7393 29.9902L16.9856 30.1906L17.7115 29.2986ZM17.4651 29.0982L18.191 28.2062C18.3354 28.3237 18.4534 28.4911 18.5114 28.6914L17.4067 29.0111L16.302 29.3308C16.3799 29.6 16.5369 29.8255 16.7393 29.9902L17.4651 29.0982ZM17.4067 29.0111L18.5114 28.6914L18.4267 28.3987L17.322 28.7184L16.2173 29.0381L16.302 29.3308L17.4067 29.0111ZM17.322 28.7184L18.4267 28.3987L18.342 28.106L17.2373 28.4257L16.1326 28.7454L16.2173 29.0381L17.322 28.7184ZM17.2373 28.4257L18.342 28.106C18.3728 28.2126 18.3804 28.3156 18.3733 28.4066L17.2268 28.3171L16.0803 28.2275C16.0672 28.3945 16.0818 28.57 16.1326 28.7454L17.2373 28.4257ZM17.2268 28.3171L18.3733 28.4066L18.3985 28.0835L17.252 27.994L16.1055 27.9045L16.0803 28.2275L17.2268 28.3171ZM17.252 27.994L18.3985 28.0835L18.4238 27.7604L17.2772 27.6709L16.1307 27.5814L16.1055 27.9045L17.252 27.994ZM17.2772 27.6709L18.4238 27.7604C18.4617 27.2748 18.2226 26.8846 17.9261 26.6592L17.2301 27.5746L16.534 28.4901C16.4382 28.4173 16.3208 28.2995 16.235 28.1244C16.1463 27.9433 16.1173 27.7533 16.1307 27.5814L17.2772 27.6709ZM17.2301 27.5746L17.9261 26.6592L17.6335 26.4367L16.9375 27.3522L16.2414 28.2676L16.534 28.4901L17.2301 27.5746ZM16.9375 27.3522L17.6335 26.4367L17.3409 26.2142L16.6448 27.1297L15.9488 28.0451L16.2414 28.2676L16.9375 27.3522ZM16.6448 27.1297L17.3409 26.2142C17.4727 26.3144 17.6548 26.5066 17.7296 26.8106C17.8044 27.1143 17.7324 27.3688 17.6627 27.5181L16.6207 27.0315L15.5787 26.545C15.4906 26.7336 15.4135 27.024 15.4963 27.3604C15.5792 27.6971 15.7826 27.9187 15.9488 28.0451L16.6448 27.1297ZM16.6207 27.0315L17.6627 27.5181L17.8184 27.1845L16.7764 26.698L15.7344 26.2115L15.5787 26.545L16.6207 27.0315ZM16.7764 26.698L17.8184 27.1845L17.9741 26.851L16.9321 26.3645L15.8901 25.878L15.7344 26.2115L16.7764 26.698ZM16.9321 26.3645L17.9742 26.851C18.1483 26.4781 18.152 25.9915 17.8563 25.5831L16.9249 26.2577L15.9935 26.9322C15.8924 26.7927 15.8116 26.6062 15.7967 26.3864C15.7822 26.1728 15.8344 25.9973 15.8901 25.878L16.9321 26.3645ZM16.9249 26.2577L17.8563 25.5831L17.6594 25.3113L16.728 25.9858L15.7966 26.6604L15.9935 26.9322L16.9249 26.2577ZM16.728 25.9858L17.6594 25.3113L17.4625 25.0395L16.5311 25.714L15.5997 26.3885L15.7966 26.6604L16.728 25.9858ZM16.5311 25.714L17.4625 25.0395C17.5425 25.1499 17.6204 25.3057 17.6485 25.5016C17.6769 25.7 17.6458 25.8807 17.5903 26.0253L16.5167 25.6132L15.4431 25.2011C15.2827 25.6189 15.3612 26.0591 15.5997 26.3885L16.5311 25.714ZM16.5167 25.6132L17.5903 26.0253L17.7053 25.7257L16.6316 25.3136L15.558 24.9015L15.443 25.2011L16.5167 25.6132ZM16.6316 25.3136L17.7053 25.7257L17.8202 25.4262L16.7466 25.0141L15.673 24.602L15.558 24.9015L16.6316 25.3136ZM16.7466 25.0141L17.8203 25.4262C17.897 25.2264 17.932 24.9977 17.8998 24.757L16.76 24.9093L15.6201 25.0616C15.5972 24.8902 15.6233 24.7314 15.673 24.602L16.7466 25.0141ZM16.76 24.9093L17.8998 24.757L17.8606 24.463L16.7207 24.6153L15.5808 24.7676L15.6201 25.0617L16.76 24.9093ZM16.7207 24.6153L17.8606 24.463L17.8213 24.1689L16.6814 24.3212L15.5415 24.4735L15.5808 24.7676L16.7207 24.6153ZM16.6814 24.3212L17.8213 24.1689C17.8221 24.1756 17.8226 24.1818 17.8228 24.1875L16.6731 24.2165L15.5235 24.2455C15.5254 24.3216 15.5314 24.3977 15.5415 24.4735L16.6814 24.3212ZM16.6731 24.2165L17.8228 24.1875L17.8152 23.8882L16.6656 23.9172L15.5159 23.9463L15.5235 24.2455L16.6731 24.2165ZM16.6656 23.9172L17.8152 23.8882L17.8076 23.5889L16.658 23.6179L15.5084 23.647L15.5159 23.9462L16.6656 23.9172ZM16.658 23.6179L17.8076 23.5889C17.8076 23.5888 17.8076 23.5883 17.8077 23.5871L16.6602 23.5118L15.5126 23.4365C15.508 23.5064 15.5066 23.5766 15.5084 23.647L16.658 23.6179ZM16.6602 23.5118L17.8077 23.5871L17.8275 23.2851L16.68 23.2098L15.5325 23.1345L15.5126 23.4365L16.6602 23.5118ZM16.68 23.2098L17.8275 23.2851L17.8473 22.983L16.6998 22.9077L15.5523 22.8324L15.5325 23.1345L16.68 23.2098ZM16.6998 22.9077L17.8473 22.983C17.8343 23.182 17.761 23.3622 17.6547 23.5029L16.737 22.8098L15.8193 22.1168C15.6681 22.317 15.57 22.5624 15.5523 22.8324L16.6998 22.9077ZM16.737 22.8098L17.6547 23.5029L17.8454 23.2503L16.9277 22.5573L16.01 21.8642L15.8193 22.1168L16.737 22.8098ZM16.9277 22.5573L17.8454 23.2503L18.0362 22.9977L17.1185 22.3047L16.2008 21.6116L16.01 21.8642L16.9277 22.5573ZM17.1185 22.3047L18.0362 22.9977C18.0492 22.9805 18.0617 22.9647 18.0735 22.9503L17.1861 22.2188L16.2987 21.4874C16.2652 21.528 16.2326 21.5695 16.2008 21.6116L17.1185 22.3047ZM17.1861 22.2188L18.0735 22.9503L18.2663 22.7164L17.3789 21.985L16.4915 21.2535L16.2987 21.4874L17.1861 22.2188ZM17.3789 21.985L18.2663 22.7164L18.4591 22.4825L17.5717 21.7511L16.6843 21.0196L16.4915 21.2535L17.3789 21.985ZM17.5717 21.7511L18.4591 22.4825C18.674 22.2218 18.7614 21.9114 18.7538 21.6214L17.6042 21.6517L16.4546 21.682C16.449 21.4694 16.5148 21.2253 16.6843 21.0196L17.5717 21.7511ZM17.6042 21.6517L18.7538 21.6214L18.7451 21.2922L17.5955 21.3225L16.4459 21.3529L16.4546 21.6821L17.6042 21.6517ZM17.5955 21.3225L18.7451 21.2922L18.7364 20.963L17.5868 20.9933L16.4372 21.0237L16.4459 21.3529L17.5955 21.3225ZM17.5868 20.9933L18.7364 20.963C18.7396 21.0848 18.7208 21.2342 18.6545 21.3903C18.5873 21.5486 18.4872 21.6762 18.3769 21.7712L17.6266 20.8997L16.8763 20.0282C16.5676 20.2939 16.4278 20.6659 16.4372 21.0237L17.5868 20.9933ZM17.6266 20.8997L18.3769 21.7712L18.6109 21.5697L17.8606 20.6982L17.1102 19.8267L16.8762 20.0282L17.6266 20.8997ZM17.8606 20.6982L18.6109 21.5697L18.8449 21.3682L18.0946 20.4967L17.3443 19.6252L17.1103 19.8267L17.8606 20.6982ZM18.0946 20.4967L18.8449 21.3682C19.1403 21.1139 19.2683 20.7752 19.2875 20.4717L18.1398 20.3993L16.9921 20.3268C16.9984 20.2268 17.0222 20.1024 17.0833 19.9708C17.1457 19.8362 17.2357 19.7187 17.3442 19.6252L18.0946 20.4967ZM18.1398 20.3993L19.2875 20.4717L19.3097 20.1208L18.1619 20.0484L17.0142 19.9759L16.9921 20.3268L18.1398 20.3993ZM18.1619 20.0484L19.3097 20.1208L19.3318 19.7699L18.1841 19.6975L17.0364 19.625L17.0142 19.9759L18.1619 20.0484ZM18.1841 19.6975L19.3318 19.7699C19.319 19.9736 19.2375 20.2556 18.9938 20.4855C18.7673 20.6991 18.5189 20.7552 18.3891 20.77L18.2583 19.6275L18.1274 18.485C17.9507 18.5052 17.6666 18.5756 17.4154 18.8126C17.147 19.0658 17.0519 19.3801 17.0364 19.625L18.1841 19.6975ZM18.2583 19.6275L18.3891 20.77L18.7872 20.7245L18.6563 19.5819L18.5255 18.4394L18.1274 18.485L18.2583 19.6275ZM18.6563 19.5819L18.7872 20.7245L19.1852 20.6789L19.0544 19.5363L18.9236 18.3938L18.5255 18.4394L18.6563 19.5819ZM19.0544 19.5363L19.1852 20.6789C19.3651 20.6583 19.6225 20.59 19.858 20.3882C20.1055 20.1763 20.2249 19.9062 20.2674 19.6717L19.1358 19.4666L18.0043 19.2614C18.0393 19.0681 18.1414 18.8302 18.3617 18.6415C18.5701 18.463 18.7906 18.409 18.9235 18.3938L19.0544 19.5363ZM19.1358 19.4666L20.2674 19.6717L20.3308 19.322L19.1992 19.1168L18.0677 18.9117L18.0043 19.2614L19.1358 19.4666ZM19.1992 19.1168L20.3308 19.322L20.3942 18.9722L19.2626 18.7671L18.1311 18.562L18.0677 18.9117L19.1992 19.1168ZM19.2626 18.7671L20.3942 18.9722C20.3665 19.125 20.2889 19.3446 20.0939 19.5371C19.896 19.7325 19.6673 19.8109 19.4964 19.8353L19.3338 18.6968L19.1713 17.5584C18.9603 17.5885 18.6998 17.6814 18.4781 17.9003C18.2594 18.1162 18.1662 18.3681 18.1311 18.562L19.2626 18.7671ZM19.3338 18.6968L19.4964 19.8353L19.8364 19.7867L19.6739 18.6483L19.5113 17.5098L19.1713 17.5584L19.3338 18.6968ZM19.6739 18.6483L19.8364 19.7867L20.1765 19.7382L20.0139 18.5997L19.8514 17.4613L19.5113 17.5098L19.6739 18.6483ZM20.0139 18.5997L20.1765 19.7382C20.5586 19.6836 20.918 19.4564 21.1183 19.0761L20.1008 18.5402L19.0833 18.0043C19.1532 17.8716 19.2619 17.7372 19.4157 17.6318C19.5677 17.5278 19.7231 17.4796 19.8514 17.4613L20.0139 18.5997ZM20.1008 18.5402L21.1183 19.0761L21.2702 18.7876L20.2527 18.2518L19.2352 17.7159L19.0833 18.0044L20.1008 18.5402ZM20.2527 18.2518L21.2702 18.7877L21.4221 18.4992L20.4046 17.9633L19.3871 17.4274L19.2352 17.7159L20.2527 18.2518ZM20.4046 17.9633L21.4221 18.4992C21.3447 18.6462 21.2125 18.8087 21.009 18.9247C20.8085 19.0389 20.6108 19.0669 20.4643 19.0635L20.4915 17.9138L20.5187 16.7641C20.3322 16.7597 20.1 16.7955 19.8705 16.9262C19.638 17.0587 19.4825 17.2464 19.3871 17.4274L20.4046 17.9633ZM20.4915 17.9138L20.4643 19.0635L20.8047 19.0715L20.8318 17.9218L20.859 16.7722L20.5187 16.7641L20.4915 17.9138ZM20.8318 17.9218L20.8047 19.0715L21.145 19.0796L21.1722 17.9299L21.1993 16.7802L20.859 16.7722L20.8318 17.9218ZM21.1722 17.9299L21.145 19.0796C21.4784 19.0874 21.8434 18.9666 22.117 18.668L21.269 17.8912L20.421 17.1143C20.5202 17.0061 20.6481 16.9136 20.7994 16.8531C20.9479 16.7938 21.0874 16.7776 21.1993 16.7802L21.1722 17.9299ZM21.269 17.8912L22.117 18.668L22.3254 18.4405L21.4774 17.6637L20.6294 16.8869L20.421 17.1143L21.269 17.8912ZM21.4774 17.6637L22.3254 18.4405L22.5338 18.213L21.6858 17.4362L20.8378 16.6594L20.6294 16.8869L21.4774 17.6637ZM21.6858 17.4362L22.5338 18.213C22.4462 18.3086 22.329 18.3943 22.1865 18.4496L21.7705 17.3775L21.3544 16.3054C21.148 16.3855 20.9744 16.5102 20.8378 16.6594L21.6858 17.4362ZM21.7705 17.3775L22.1865 18.4496L22.458 18.3442L22.042 17.2721L21.6259 16.2L21.3544 16.3054L21.7705 17.3775ZM22.042 17.2721L22.458 18.3442L22.7295 18.2389L22.3135 17.1668L21.8974 16.0946L21.6259 16.2L22.042 17.2721ZM22.3135 17.1668L22.7295 18.2389C22.7397 18.2349 22.7501 18.2312 22.7606 18.2279L22.4104 17.1325L22.0602 16.0371C22.0054 16.0546 21.9511 16.0738 21.8974 16.0947L22.3135 17.1668ZM22.4104 17.1325L22.7606 18.2279L23.0386 18.139L22.6883 17.0436L22.3381 15.9482L22.0602 16.0371L22.4104 17.1325ZM22.6883 17.0436L23.0385 18.139L23.3165 18.0501L22.9663 16.9548L22.6161 15.8594L22.3381 15.9482L22.6883 17.0436ZM22.9663 16.9548L23.3165 18.0501C23.4598 18.0043 23.5873 17.9397 23.6985 17.8659L23.0625 16.9078L22.4265 15.9496C22.4748 15.9176 22.5381 15.8843 22.616 15.8594L22.9663 16.9548ZM23.0625 16.9078L23.6985 17.8659L23.9658 17.6885L23.3298 16.7304L22.6938 15.7722L22.4265 15.9496L23.0625 16.9078ZM23.3298 16.7304L23.9658 17.6885L24.233 17.5111L23.597 16.5529L22.961 15.5948L22.6938 15.7722L23.3298 16.7304ZM23.597 16.5529L24.2331 17.511C24.0797 17.6128 23.8829 17.6781 23.6681 17.6726L23.6977 16.523L23.7272 15.3734C23.4412 15.366 23.1772 15.4513 22.961 15.5948L23.597 16.5529ZM23.6977 16.523L23.6681 17.6726L23.9712 17.6804L24.0007 16.5308L24.0303 15.3812L23.7272 15.3734L23.6977 16.523ZM24.0007 16.5308L23.9712 17.6804L24.2742 17.6882L24.3038 16.5386L24.3333 15.389L24.0303 15.3812L24.0007 16.5308ZM24.3038 16.5386L24.2742 17.6882C24.4312 17.6922 24.5844 17.6714 24.7299 17.6293L24.41 16.5247L24.0902 15.42C24.1653 15.3983 24.2477 15.3867 24.3333 15.389L24.3038 16.5386ZM24.41 16.5247L24.7299 17.6293L25.0291 17.5426L24.7092 16.438L24.3893 15.3334L24.0902 15.42L24.41 16.5247ZM24.7092 16.438L25.0291 17.5426L25.3282 17.456L25.0083 16.3514L24.6884 15.2468L24.3893 15.3334L24.7092 16.438ZM25.0083 16.3514L25.3282 17.456C25.1264 17.5145 24.9119 17.5055 24.7206 17.436L25.1134 16.3551L25.5062 15.2743C25.2452 15.1794 24.9606 15.168 24.6884 15.2468L25.0083 16.3514ZM25.1134 16.3551L24.7206 17.436L25.0167 17.5436L25.4095 16.4627L25.8023 15.3819L25.5061 15.2743L25.1134 16.3551ZM25.4095 16.4627L25.0167 17.5436L25.3128 17.6512L25.7056 16.5703L26.0984 15.4895L25.8023 15.3819L25.4095 16.4627ZM25.7056 16.5703L25.3128 17.6512C25.376 17.6741 25.4407 17.6949 25.5071 17.7129L25.8086 16.6031L26.1102 15.4934C26.1088 15.493 26.1049 15.4919 26.0984 15.4895L25.7056 16.5703ZM25.8086 16.6031L25.5071 17.7129L25.7948 17.7911L26.0963 16.6813L26.3979 15.5715L26.1102 15.4934L25.8086 16.6031ZM26.0963 16.6813L25.7948 17.7911L26.0825 17.8692L26.3841 16.7595L26.6856 15.6497L26.3979 15.5715L26.0963 16.6813ZM26.3841 16.7595L26.0825 17.8692C26.3106 17.9312 26.5334 17.9282 26.732 17.8857L26.4915 16.7612L26.251 15.6366C26.374 15.6103 26.5252 15.6061 26.6856 15.6497L26.3841 16.7595ZM26.4915 16.7612L26.732 17.8857L27.0531 17.8171L26.8125 16.6925L26.572 15.5679L26.251 15.6366L26.4915 16.7612ZM26.8125 16.6925L27.0531 17.8171L27.3741 17.7484L27.1336 16.6238L26.893 15.4993L26.572 15.5679L26.8125 16.6925ZM27.1336 16.6238L27.3741 17.7484C27.1741 17.7912 26.9274 17.7812 26.6867 17.6653C26.461 17.5567 26.329 17.3978 26.2613 17.293L27.2272 16.6689L28.1931 16.0447C28.1007 15.9019 27.9408 15.7164 27.6839 15.5928C27.412 15.4619 27.1308 15.4484 26.893 15.4993L27.1336 16.6238ZM27.2272 16.6689L26.2612 17.293L26.4705 17.6168L27.4364 16.9927L28.4023 16.3686L28.1931 16.0447L27.2272 16.6689ZM27.4364 16.9927L26.4705 17.6168L26.6797 17.9406L27.6456 17.3165L28.6115 16.6924L28.4023 16.3686L27.4364 16.9927ZM27.6456 17.3165L26.6797 17.9406C26.7717 18.083 26.9226 18.2553 27.1561 18.3771C27.4 18.5044 27.6578 18.5363 27.8872 18.5068L27.7409 17.3662L27.5945 16.2255C27.7851 16.2011 28.0075 16.2272 28.2198 16.3379C28.4215 16.4431 28.5442 16.5881 28.6116 16.6924L27.6456 17.3165ZM27.7409 17.3662L27.8872 18.5068L28.2175 18.4644L28.0712 17.3238L27.9248 16.1831L27.5945 16.2255L27.7409 17.3662ZM28.0712 17.3238L28.2175 18.4644L28.5479 18.422L28.4015 17.2814L28.2551 16.1408L27.9248 16.1831L28.0712 17.3238ZM28.4015 17.2814L28.5479 18.422C28.398 18.4413 28.2024 18.4317 27.9981 18.3435C27.7931 18.2551 27.6499 18.118 27.5591 17.9913L28.4936 17.3212L29.4282 16.6511C29.3148 16.4929 29.145 16.3334 28.9092 16.2317C28.6742 16.1303 28.4438 16.1165 28.2551 16.1408L28.4015 17.2814ZM28.4936 17.3212L27.5591 17.9913L27.751 18.259L28.6856 17.5889L29.6202 16.9188L29.4282 16.6511L28.4936 17.3212ZM28.6856 17.5889L27.751 18.259L27.943 18.5267L28.8776 17.8566L29.8121 17.1865L29.6202 16.9188L28.6856 17.5889ZM28.8776 17.8566L27.943 18.5267C28.0408 18.6631 28.1741 18.8004 28.3514 18.9095L28.9542 17.9302L29.5571 16.9509C29.6773 17.0249 29.7595 17.1131 29.8121 17.1865L28.8776 17.8566ZM28.9542 17.9302L28.3514 18.9095L28.594 19.0589L29.1969 18.0796L29.7998 17.1003L29.5571 16.9509L28.9542 17.9302ZM29.1969 18.0796L28.594 19.0589L28.8367 19.2083L29.4396 18.229L30.0424 17.2497L29.7998 17.1003L29.1969 18.0796ZM29.4396 18.229L28.8367 19.2083C29.0012 19.3096 29.1714 19.3674 29.3304 19.3967L29.5383 18.2656L29.7463 17.1346C29.8307 17.1501 29.935 17.1836 30.0424 17.2497L29.4396 18.229ZM29.5383 18.2656L29.3304 19.3967L29.6474 19.455L29.8554 18.3239L30.0633 17.1929L29.7463 17.1346L29.5383 18.2656ZM29.8554 18.3239L29.6474 19.455L29.9644 19.5133L30.1724 18.3822L30.3804 17.2512L30.0633 17.1929L29.8554 18.3239ZM30.1724 18.3822L29.9644 19.5133C29.7672 19.477 29.5558 19.3727 29.3931 19.1848L30.2627 18.4322L31.1323 17.6797C30.9238 17.4388 30.6522 17.3011 30.3803 17.2512L30.1724 18.3822ZM30.2627 18.4322L29.3931 19.1848L29.588 19.4099L30.4576 18.6574L31.3272 17.9049L31.1323 17.6797L30.2627 18.4322ZM30.4576 18.6574L29.588 19.4099L29.7828 19.6351L30.6524 18.8826L31.5221 18.1301L31.3272 17.9049L30.4576 18.6574ZM30.6524 18.8826L29.7828 19.6351C29.748 19.5948 29.7186 19.5515 29.6951 19.5069L30.7117 18.9695L31.7284 18.432C31.6717 18.3246 31.6028 18.2234 31.5221 18.1301L30.6524 18.8826ZM30.7117 18.9695L29.6951 19.5069L29.8362 19.7739L30.8529 19.2364L31.8695 18.6989L31.7284 18.432L30.7117 18.9695ZM30.8529 19.2364L29.8362 19.7739L29.9773 20.0408L30.994 19.5034L32.0107 18.9659L31.8695 18.6989L30.8529 19.2364ZM30.994 19.5034L29.9773 20.0408C30.0779 20.2311 30.2216 20.3956 30.4003 20.5214L31.0621 19.5809L31.7239 18.6404C31.845 18.7256 31.9433 18.8384 32.0107 18.9659L30.994 19.5034ZM31.0621 19.5809L30.4003 20.5214L30.6449 20.6935L31.3067 19.753L31.9685 18.8125L31.7239 18.6404L31.0621 19.5809ZM31.3067 19.753L30.6449 20.6935L30.8896 20.8657L31.5514 19.9252L32.2132 18.9847L31.9685 18.8125L31.3067 19.753ZM31.5514 19.9252L30.8896 20.8657C30.9011 20.8738 30.9134 20.8829 30.9264 20.8931L31.6374 19.9892L32.3484 19.0854C32.3043 19.0507 32.2592 19.0171 32.2132 18.9847L31.5514 19.9252ZM31.6374 19.9892L30.9264 20.8931L31.1691 21.084L31.8801 20.1802L32.5911 19.2763L32.3484 19.0854L31.6374 19.9892ZM31.8801 20.1802L31.1691 21.084L31.4118 21.2749L32.1228 20.3711L32.8338 19.4672L32.5911 19.2763L31.8801 20.1802ZM32.1228 20.3711L31.4118 21.2749C31.2649 21.1594 31.1498 20.9987 31.0891 20.8128L32.1823 20.4557L33.2754 20.0987C33.1925 19.8449 33.0378 19.6277 32.8338 19.4672L32.1228 20.3711ZM32.1823 20.4557L31.0891 20.8128L31.1834 21.1015L32.2766 20.7444L33.3697 20.3874L33.2754 20.0987L32.1823 20.4557ZM32.2766 20.7444L31.1834 21.1015L31.2777 21.3902L32.3709 21.0332L33.464 20.6761L33.3697 20.3874L32.2766 20.7444ZM32.3709 21.0332L31.2777 21.3902C31.3022 21.4653 31.3313 21.5398 31.3651 21.6132L32.4093 21.1312L33.4534 20.6493C33.4583 20.6598 33.4617 20.6689 33.464 20.6761L32.3709 21.0332ZM32.4093 21.1312L31.3651 21.6131L31.4883 21.8801L32.5325 21.3981L33.5766 20.9162L33.4534 20.6493L32.4093 21.1312ZM32.5325 21.3981L31.4883 21.8801L31.6115 22.147L32.6557 21.6651L33.6998 21.1831L33.5766 20.9162L32.5325 21.3981ZM32.6557 21.6651L31.6115 22.147C31.6807 22.2968 31.7707 22.4251 31.8698 22.5328L32.7159 21.7539L33.562 20.9751C33.6098 21.027 33.6597 21.0961 33.6998 21.1831L32.6557 21.6651ZM32.7159 21.7539L31.8698 22.5328L32.0876 22.7695L32.9337 21.9906L33.7798 21.2118L33.562 20.9751L32.7159 21.7539ZM32.9337 21.9906L32.0876 22.7695L32.3055 23.0062L33.1516 22.2273L33.9977 21.4485L33.7798 21.2118L32.9337 21.9906ZM33.1516 22.2273L32.3055 23.0062C32.2135 22.9062 32.1355 22.7753 32.0937 22.6204L33.204 22.3208L34.3143 22.0212C34.2539 21.7974 34.141 21.6041 33.9977 21.4485L33.1516 22.2273ZM33.204 22.3208L32.0937 22.6204L32.1728 22.9135L33.2831 22.6139L34.3934 22.3143L34.3143 22.0212L33.204 22.3208ZM33.2831 22.6139L32.1728 22.9135L32.2519 23.2066L33.3622 22.907L34.4725 22.6074L34.3934 22.3143L33.2831 22.6139ZM33.3622 22.907L32.2519 23.2066C32.1657 22.8872 32.252 22.6188 32.3337 22.4685L33.344 23.0179L34.3542 23.5673C34.4789 23.3381 34.5773 22.9958 34.4725 22.6074L33.3622 22.907ZM33.344 23.0179L32.3337 22.4685L32.1513 22.8038L33.1616 23.3532L34.1719 23.9026L34.3542 23.5673L33.344 23.0179ZM33.1616 23.3532L32.1513 22.8038L31.969 23.1391L32.9793 23.6885L33.9896 24.2379L34.1719 23.9026L33.1616 23.3532ZM32.9793 23.6885L31.969 23.1391C31.8783 23.3058 31.781 23.5626 31.8036 23.8792L32.9506 23.7974L34.0977 23.7156C34.1156 23.9659 34.0373 24.1501 33.9895 24.2379L32.9793 23.6885ZM32.9506 23.7974L31.8036 23.8791L31.8236 24.161L32.9707 24.0793L34.1178 23.9976L34.0977 23.7157L32.9506 23.7974ZM32.9707 24.0793L31.8236 24.1611L31.8437 24.443L32.9908 24.3612L34.1379 24.2795L34.1178 23.9976L32.9707 24.0793ZM32.9908 24.3612L31.8437 24.4429C31.8461 24.4763 31.8483 24.5077 31.8505 24.5374L32.9975 24.4552L34.1446 24.3729C34.1425 24.3437 34.1403 24.3125 34.1379 24.2795L32.9908 24.3612ZM32.9975 24.4552L31.8505 24.5374L31.8684 24.7877L33.0155 24.7055L34.1625 24.6233L34.1446 24.3729L32.9975 24.4552ZM33.0155 24.7055L31.8684 24.7877L31.8864 25.038L33.0334 24.9558L34.1805 24.8736L34.1625 24.6233L33.0155 24.7055ZM33.0334 24.9558L31.8864 25.038C31.8919 25.116 31.912 25.3321 32.0446 25.5626C32.2184 25.8645 32.5731 26.15 33.0588 26.15L33.0588 25L33.0589 23.85C33.2553 23.85 33.4681 23.9018 33.6631 24.025C33.8508 24.1435 33.9683 24.2941 34.0381 24.4154C34.1623 24.6311 34.177 24.8251 34.1805 24.8736L33.0334 24.9558ZM33.0588 25L33.0588 26.15L33.185 26.15L33.185 25L33.185 23.85L33.0588 23.85L33.0588 25ZM33.185 25L33.185 26.15L33.3111 26.15L33.3111 25L33.3111 23.85L33.185 23.85L33.185 25ZM33.3111 25L33.3111 26.15C33.0723 26.15 32.8347 26.0742 32.6363 25.9272C32.4531 25.7914 32.3518 25.6316 32.2987 25.5245C32.2027 25.3311 32.1921 25.1652 32.1898 25.1329L33.337 25.0522L34.4842 24.9715C34.4795 24.9044 34.4634 24.7124 34.3587 24.5016C34.231 24.2445 33.8946 23.85 33.311 23.85L33.3111 25ZM33.337 25.0522L32.1898 25.1329L32.2106 25.4287L33.3578 25.3481L34.505 25.2674L34.4842 24.9716L33.337 25.0522Z" fill="var(--stroke-0, #4B5767)"/>
</g>
</svg>
