<svg preserveAspectRatio="none" width="100%" height="100%" overflow="visible" style="display: block;" viewBox="0 0 63 20" fill="none" xmlns="http://www.w3.org/2000/svg">
<g id="Vector 24">
<path d="M17.2262 13.6235C16.6398 12.5408 17.9591 12.158 18.692 12.1019C19.2557 11.5948 21.1725 11.9326 21.4543 12.6091C21.7362 13.2856 21.2852 13.7366 19.9323 14.9768C18.5793 16.2171 17.9591 14.9768 17.2262 13.6235Z" fill="var(--fill-0, #EEE4C9)"/>
<path d="M0.0160111 6.50117C-0.119286 5.23839 0.636124 5.37369 1.03074 5.59919C1.48173 5.91848 2.38371 6.68108 2.38371 7.17717C2.38371 7.79728 1.9891 8.1919 1.08712 8.47377C0.185134 8.75563 0.185133 8.07963 0.0160111 6.50117Z" fill="var(--fill-0, #EEE4C9)"/>
<path d="M58.9727 7.39272C58.8374 6.17504 59.5177 6.09612 59.8747 6.20887C60.1942 6.43452 60.8105 7.05494 60.7203 7.73143C60.6076 8.57704 59.1419 8.91481 58.9727 7.39272Z" fill="var(--fill-0, #EEE4C9)"/>
<path d="M60.1066 1.25497C59.836 0.668683 60.4073 0.221451 60.7267 0.071121C61.1589 -0.0227313 62.1586 -0.097688 62.6998 0.353303C63.3763 0.917041 62.587 1.76265 61.5723 2.32639C60.5576 2.89013 60.4448 1.98783 60.1066 1.25497Z" fill="var(--fill-0, #EEE4C9)"/>
<path d="M27.2823 12.6028C27.1131 11.3062 28.2406 11.3062 28.8044 11.2498C29.0486 11.3625 29.6161 11.712 29.9318 12.2081C30.3265 12.8282 29.9318 13.1665 29.0299 14.4067C28.1279 15.6469 27.4514 13.8994 27.2823 12.6028Z" fill="var(--fill-0, #EEE4C9)"/>
<path d="M5.55958 11.1037C5.10859 10.3144 5.89783 9.9198 6.1797 9.9198C6.8186 9.93859 8.01748 10.2468 7.70179 11.3291C7.30717 12.6821 6.01058 11.8929 5.55958 11.1037Z" fill="var(--fill-0, #EEE4C9)"/>
<path d="M11.8056 17.3349C11.3095 16.4329 12.0875 16.1699 12.5385 16.1511C13.3698 15.7462 14.7934 15.8692 14.7934 17.8987C14.7934 19.9281 12.4257 18.4624 11.8056 17.3349Z" fill="var(--fill-0, #EEE4C9)"/>
<path d="M23.7565 19.4316C23.3507 18.9806 24.0008 18.4544 24.3767 18.2477C24.4894 18.3981 24.7713 18.8002 24.9968 19.2061C25.2786 19.7135 24.2639 19.9953 23.7565 19.4316Z" fill="var(--fill-0, #EEE4C9)"/>
</g>
</svg>
