<svg preserveAspectRatio="none" width="100%" height="100%" overflow="visible" style="display: block;" viewBox="0 0 17 12" fill="none" xmlns="http://www.w3.org/2000/svg">
<path id="Wifi" fill-rule="evenodd" clip-rule="evenodd" d="M8.17872 2.35332C10.5519 2.35342 12.8344 3.23327 14.5543 4.81102C14.6838 4.93283 14.8909 4.93129 15.0184 4.80758L16.2565 3.60198C16.3211 3.53923 16.3571 3.45423 16.3565 3.3658C16.356 3.27736 16.319 3.19278 16.2536 3.13076C11.7393 -1.04359 4.61743 -1.04359 0.103107 3.13076C0.0377137 3.19273 0.000610464 3.27729 7.46563e-06 3.36572C-0.000595533 3.45416 0.0353514 3.53918 0.0998939 3.60198L1.33831 4.80758C1.46579 4.93148 1.67297 4.93302 1.80241 4.81102C3.52258 3.23317 5.80529 2.35332 8.17872 2.35332ZM8.17552 6.3803C9.47067 6.38022 10.7196 6.86852 11.6796 7.75033C11.8095 7.87547 12.014 7.87276 12.1406 7.74421L13.3689 6.48533C13.4336 6.4193 13.4695 6.32972 13.4686 6.23664C13.4677 6.14355 13.43 6.05473 13.364 5.99005C10.4405 3.23161 5.91305 3.23161 2.98955 5.99005C2.92351 6.05473 2.88583 6.1436 2.88497 6.23671C2.8841 6.32982 2.92012 6.41939 2.98494 6.48533L4.21291 7.74421C4.33949 7.87276 4.54403 7.87547 4.67388 7.75033C5.63328 6.86911 6.88123 6.38085 8.17552 6.3803ZM10.5843 9.04591C10.5862 9.14643 10.5508 9.24335 10.4866 9.31377L8.40961 11.6561C8.34872 11.7249 8.26572 11.7637 8.1791 11.7637C8.09249 11.7637 8.00948 11.7249 7.9486 11.6561L5.87128 9.31377C5.80711 9.2433 5.77181 9.14635 5.77371 9.04582C5.77562 8.9453 5.81455 8.8501 5.88134 8.78272C7.20777 7.52901 9.15044 7.52901 10.4769 8.78272C10.5436 8.85016 10.5825 8.94538 10.5843 9.04591Z" fill="var(--fill-0, black)"/>
</svg>
