<svg preserveAspectRatio="none" width="100%" height="100%" overflow="visible" style="display: block;" viewBox="0 0 110 4" fill="none" xmlns="http://www.w3.org/2000/svg">
<path id="Vector 21" d="M0.176339 2.75266L0.334749 1.76529L0.217801 1.74653L0.0997059 1.7556L0.176339 2.75266ZM5.30695 2.5025L5.17836 3.4942L5.30695 2.5025ZM6.44031 2.54129L6.28008 1.55421L6.44031 2.54129ZM7.91791 2.20915L7.53516 1.2853L7.91791 2.20915ZM8.65035 1.9057L8.2676 0.981849L8.65035 1.9057ZM10.9206 2.08618L10.6697 1.11816L10.9206 2.08618ZM13.1651 2.08749L12.9199 3.05695L13.1651 2.08749ZM15.4047 1.66653L15.2773 2.65839L15.4047 1.66653ZM16.1554 1.76294L16.028 2.7548L16.1554 1.76294ZM16.9114 1.91915L16.6386 2.8812L16.9114 1.91915ZM17.2922 2.02716L17.0193 2.9892L17.2922 2.02716ZM17.6729 2.13516L17.9458 1.17312L17.6729 2.13516ZM18.4221 2.09222L18.043 1.16688L18.4221 2.09222ZM18.7905 1.94128L19.1697 2.86663L18.7905 1.94128ZM19.159 1.79033L19.5381 2.71568L19.159 1.79033ZM19.9071 1.69515L19.7619 2.68454L19.9071 1.69515ZM20.6667 1.80668L20.5214 2.79607L20.6667 1.80668ZM21.7879 1.7619L21.6535 0.77097L21.7879 1.7619ZM22.1586 1.71163L22.0242 0.720697L22.1586 1.71163ZM22.9085 1.70589L22.7919 2.69906L22.9085 1.70589ZM23.2877 1.75042L23.1711 2.74359L23.2877 1.75042ZM23.6669 1.79495L23.7836 0.801777L23.6669 1.79495ZM24.4176 1.82139L24.3689 0.822574L24.4176 1.82139ZM25.909 1.71297L25.7669 0.723115L25.909 1.71297ZM27.4122 1.50655L27.2947 0.513479L27.4122 1.50655ZM28.156 1.4185L28.2735 2.41157L28.156 1.4185ZM30.4136 1.7844L30.3989 2.78429L30.4136 1.7844ZM31.1601 1.79536L31.1454 2.79525L31.1601 1.79536ZM31.9094 1.8076L31.8914 2.80744L31.9094 1.8076ZM33.4121 1.89803L33.2281 2.88096L33.4121 1.89803ZM33.7869 1.96821L33.6029 2.95113L33.7869 1.96821ZM34.1618 2.03839L34.3458 1.05547L34.1618 2.03839ZM36.4103 1.88746L36.3228 2.88362L36.4103 1.88746ZM37.1623 1.9535L37.2498 0.957339L37.1623 1.9535ZM37.9116 1.84378L38.2687 2.77784L37.9116 1.84378ZM38.6583 1.55829L38.3012 0.624234L38.6583 1.55829ZM40.1645 1.73429L39.8936 2.69691L40.1645 1.73429ZM40.9147 1.78472L41.0628 2.77368L40.9147 1.78472ZM41.6598 1.67308L41.5116 0.68412L41.6598 1.67308ZM42.7848 1.56195L42.7115 0.564639L42.7848 1.56195ZM43.1611 1.53429L43.0877 0.536983L43.1611 1.53429ZM43.9119 1.41281L44.1548 2.38285L43.9119 1.41281ZM44.2865 1.31899L44.0435 0.348954L44.2865 1.31899ZM44.6611 1.22517L44.904 2.1952L44.6611 1.22517ZM45.4103 1.21077L45.203 2.18903L45.4103 1.21077ZM46.1597 1.36961L46.367 0.391352L46.1597 1.36961ZM46.9112 1.3173L46.5812 0.373318L46.9112 1.3173ZM47.288 1.18556L46.958 0.24158L47.288 1.18556ZM48.4144 1.11307L47.9584 2.00305L48.4144 1.11307ZM49.1599 1.49503L49.6159 0.605049L49.1599 1.49503ZM49.9099 1.53457L50.2825 2.46258L49.9099 1.53457ZM50.2872 1.38313L49.9146 0.455119L50.2872 1.38313ZM50.6644 1.23168L50.2919 0.303674L50.6644 1.23168ZM51.4149 1.2248L51.0537 2.1573L51.4149 1.2248ZM52.1614 1.51394L51.8002 2.44643L52.1614 1.51394ZM52.9096 1.66421L52.8943 2.66409L52.9096 1.66421ZM54.4096 1.79524L54.7001 0.83838L54.4096 1.79524ZM55.16 2.02308L54.8694 2.97994L55.16 2.02308ZM55.9108 1.90399L56.4379 2.75377L55.9108 1.90399ZM56.6621 1.43795L56.1349 0.588173L56.6621 1.43795ZM57.7862 1.62155L57.2999 2.49532L57.7862 1.62155ZM58.1605 1.82986L58.6468 0.956091L58.1605 1.82986ZM59.6637 1.44916L59.2011 0.56257L59.6637 1.44916ZM60.4137 1.36548L60.7023 0.408043L60.4137 1.36548ZM61.1611 1.5908L61.4497 0.63336L61.1611 1.5908ZM61.912 1.62088L62.1259 2.59775L61.912 1.62088ZM62.6665 1.45572L62.4527 0.478852L62.6665 1.45572ZM63.4156 1.54325L63.8316 0.63389L63.4156 1.54325ZM64.1593 1.88347L63.7433 2.79283L64.1593 1.88347ZM64.9069 2.0322L64.8501 1.03381L64.9069 2.0322ZM65.2826 2.01082L65.2258 1.01243L65.2826 2.01082ZM65.6583 1.98944L65.7151 2.98782L65.6583 1.98944ZM66.411 1.82096L66.0475 0.889358L66.411 1.82096ZM67.9147 1.52511L68.2783 0.593564L67.9147 1.52511ZM68.2874 1.67057L67.9237 2.60212L68.2874 1.67057ZM68.66 1.81602L68.2964 2.74757L68.66 1.81602ZM70.1593 2.05177L70.0794 3.04857L70.1593 2.05177ZM70.9122 1.86629L71.4083 2.73456L70.9122 1.86629ZM71.6668 1.43514L71.1707 0.566864L71.6668 1.43514ZM72.4157 1.46965L71.8573 2.29922L72.4157 1.46965ZM73.1587 1.96983L73.7171 1.14026L73.1587 1.96983ZM74.6572 2.27514L74.6083 3.27394L74.6572 2.27514ZM75.4079 2.23608L75.2564 1.24762L75.4079 2.23608ZM76.1578 2.12116L76.3093 3.10962L76.1578 2.12116ZM78.4071 2.20944L78.6305 3.18419L78.4071 2.20944ZM78.7838 2.12316L78.5605 1.14841L78.7838 2.12316ZM79.9107 2.01078L79.7516 2.99805L79.9107 2.01078ZM80.2843 2.07098L80.4434 1.08371L80.2843 2.07098ZM80.658 2.13117L80.4989 3.11844L80.658 2.13117ZM81.4061 2.25161L81.5649 1.2643L81.4061 2.25161ZM82.1552 2.37209L81.9964 3.3594L82.1552 2.37209ZM82.9092 2.15735L82.3223 1.34767L82.9092 2.15735ZM83.6679 1.6074L84.2548 2.41709L83.6679 1.6074ZM84.4193 1.50531L83.998 2.41219L84.4193 1.50531ZM84.7914 1.67818L84.37 2.58506L84.7914 1.67818ZM85.1635 1.85106L85.5848 0.944177L85.1635 1.85106ZM86.6667 1.7682L86.4462 0.792814L86.6667 1.7682ZM88.9068 2.30932L89.1124 1.3307L88.9068 2.30932ZM89.6542 2.46637L89.4486 3.445L89.6542 2.46637ZM90.4057 2.40933L90.7434 3.35058L90.4057 2.40933ZM90.7835 2.27377L90.4458 1.33252L90.7835 2.27377ZM91.1613 2.13821L90.8236 1.19696L91.1613 2.13821ZM91.9124 2.08474L92.1272 1.10808L91.9124 2.08474ZM92.659 2.24893L92.4443 3.22559L92.659 2.24893ZM93.4087 2.2642L93.2339 1.27959L93.4087 2.2642ZM94.1614 2.13055L94.3363 3.11516L94.1614 2.13055ZM94.9141 2.00858L95.0591 2.998L94.9141 2.00858ZM95.6665 1.89827L95.5215 0.908845L95.6665 1.89827ZM96.4179 1.83256L96.446 2.83216L96.4179 1.83256ZM97.1683 1.81144L97.1401 0.811841L97.1683 1.81144ZM97.9196 1.7481L97.7807 0.757804L97.9196 1.7481ZM98.672 1.64253L98.8109 2.63283L98.672 1.64253ZM99.4209 1.71832L99.0948 2.66365L99.4209 1.71832ZM99.7936 1.84688L100.12 0.901547L99.7936 1.84688ZM100.166 1.97545L99.8402 2.92079L100.166 1.97545ZM100.912 2.19166L101.141 1.21811L100.912 2.19166ZM101.659 2.36692L101.431 3.34047L101.659 2.36692ZM102.411 2.2773L102.835 3.18291L102.411 2.2773ZM103.168 1.92278L102.744 1.01717L103.168 1.92278ZM103.918 1.93557L103.463 2.82584L103.918 1.93557ZM104.661 2.31566L105.117 1.42539L104.661 2.31566ZM105.406 2.57314L105.229 3.55725L105.406 2.57314ZM105.78 2.64057L105.958 1.65646L105.78 2.64057ZM106.154 2.708L106.332 1.72389L106.154 2.708ZM106.899 2.74872L106.827 1.7513L106.899 2.74872ZM107.27 2.72199L107.198 1.72458L107.27 2.72199ZM107.64 2.69527L107.712 3.69269L107.64 2.69527ZM108.013 2.58984L109.013 2.60951L108.013 2.58984ZM108.014 2.51114L109.014 2.5308L109.02 2.24007L108.869 1.99161L108.014 2.51114ZM107.918 2.35179L107.937 1.35198L106.118 1.31687L107.063 2.87132L107.918 2.35179ZM0.0766333 2.76033L0.153267 3.75739L0.252972 3.74972L0.176339 2.75266L0.0997059 1.7556L1.77461e-09 1.76327L0.0766333 2.76033ZM0.176339 2.75266L0.017929 3.74004L0.726595 3.85373L0.885006 2.86636L1.04342 1.87898L0.334749 1.76529L0.176339 2.75266ZM0.885006 2.86636L0.726595 3.85373C1.228 3.93418 1.72539 3.97271 2.14425 3.89478L1.96134 2.91165L1.77844 1.92852C1.70706 1.9418 1.4869 1.95013 1.04342 1.87898L0.885006 2.86636ZM1.96134 2.91165L2.14425 3.89478L2.51192 3.82638L2.32901 2.84325L2.14611 1.86012L1.77844 1.92852L1.96134 2.91165ZM2.32901 2.84325L2.51192 3.82638L2.87959 3.75797L2.69668 2.77484L2.51378 1.79171L2.14611 1.86012L2.32901 2.84325ZM2.69668 2.77484L2.87959 3.75797C3.13064 3.71127 3.38238 3.66208 3.63479 3.61042L3.43428 2.63073L3.23376 1.65104C2.99295 1.70033 2.75295 1.74722 2.51378 1.79171L2.69668 2.77484ZM3.43428 2.63073L3.63479 3.61042L4.00472 3.5347L3.8042 2.55501L3.60368 1.57532L3.23376 1.65104L3.43428 2.63073ZM3.8042 2.55501L4.00472 3.5347L4.37464 3.45899L4.17412 2.4793L3.9736 1.49961L3.60368 1.57532L3.8042 2.55501ZM4.17412 2.4793L4.37464 3.45899C4.51093 3.43109 4.65014 3.42571 4.79691 3.44474L4.92549 2.45304L5.05408 1.46135C4.69225 1.41443 4.33053 1.42655 3.9736 1.49961L4.17412 2.4793ZM4.92549 2.45304L4.79691 3.44474L5.17836 3.4942L5.30695 2.5025L5.43553 1.5108L5.05408 1.46135L4.92549 2.45304ZM5.30695 2.5025L5.17836 3.4942L5.55982 3.54366L5.6884 2.55196L5.81698 1.56026L5.43553 1.5108L5.30695 2.5025ZM5.6884 2.55196L5.55982 3.54366C5.9077 3.58877 6.25566 3.58435 6.60055 3.52836L6.44031 2.54129L6.28008 1.55421C6.13102 1.5784 5.97771 1.5811 5.81698 1.56026L5.6884 2.55196ZM6.44031 2.54129L6.60055 3.52836L6.971 3.46823L6.81077 2.48115L6.65054 1.49407L6.28008 1.55421L6.44031 2.54129ZM6.81077 2.48115L6.971 3.46823L7.34146 3.40809L7.18123 2.42101L7.021 1.43393L6.65054 1.49407L6.81077 2.48115ZM7.18123 2.42101L7.34146 3.40809C7.66896 3.35493 7.98904 3.26211 8.30066 3.133L7.91791 2.20915L7.53516 1.2853C7.35849 1.35849 7.18744 1.40691 7.021 1.43393L7.18123 2.42101ZM7.91791 2.20915L8.30066 3.133L8.66688 2.98128L8.28413 2.05743L7.90138 1.13357L7.53516 1.2853L7.91791 2.20915ZM8.28413 2.05743L8.66688 2.98128L9.0331 2.82955L8.65035 1.9057L8.2676 0.981849L7.90138 1.13357L8.28413 2.05743ZM8.65035 1.9057L9.0331 2.82955C9.06957 2.81445 9.09028 2.8126 9.132 2.82423L9.4004 1.86092L9.66879 0.897607C9.19875 0.766647 8.71944 0.794657 8.2676 0.981849L8.65035 1.9057ZM9.4004 1.86092L9.132 2.82423L9.51582 2.93116L9.78422 1.96785L10.0526 1.00455L9.66879 0.897607L9.4004 1.86092ZM9.78422 1.96785L9.51582 2.93116L9.89964 3.0381L10.168 2.07479L10.4364 1.11148L10.0526 1.00455L9.78422 1.96785ZM10.168 2.07479L9.89964 3.0381C10.317 3.15439 10.7471 3.16416 11.1714 3.0542L10.9206 2.08618L10.6697 1.11816C10.6024 1.13561 10.5308 1.13778 10.4364 1.11148L10.168 2.07479ZM10.9206 2.08618L11.1714 3.0542L11.5401 2.95865L11.2893 1.99063L11.0384 1.02261L10.6697 1.11816L10.9206 2.08618ZM11.2893 1.99063L11.5401 2.95865L11.9089 2.8631L11.658 1.89508L11.4071 0.927054L11.0384 1.02261L11.2893 1.99063ZM11.658 1.89508L11.9089 2.8631C11.9874 2.84274 12.0661 2.841 12.161 2.86498L12.4062 1.89551L12.6514 0.926046C12.2403 0.822046 11.8202 0.820014 11.4071 0.927054L11.658 1.89508ZM12.4062 1.89551L12.161 2.86498L12.5404 2.96097L12.7857 1.9915L13.0309 1.02203L12.6514 0.926046L12.4062 1.89551ZM12.7857 1.9915L12.5404 2.96097L12.9199 3.05695L13.1651 2.08749L13.4104 1.11802L13.0309 1.02203L12.7857 1.9915ZM13.1651 2.08749L12.9199 3.05695C13.3751 3.17211 13.8351 3.14289 14.2715 2.97678L13.9158 2.04219L13.5601 1.1076C13.5016 1.12987 13.4611 1.13085 13.4104 1.11802L13.1651 2.08749ZM13.9158 2.04219L14.2715 2.97678L14.6427 2.83549L14.287 1.9009L13.9313 0.966312L13.5601 1.1076L13.9158 2.04219ZM14.287 1.9009L14.6427 2.83549L15.0139 2.69421L14.6582 1.75962L14.3025 0.825025L13.9313 0.966312L14.287 1.9009ZM14.6582 1.75962L15.0139 2.69421C15.1154 2.65558 15.1986 2.64827 15.2773 2.65839L15.4047 1.66653L15.5321 0.674682C15.1104 0.620521 14.6959 0.675272 14.3025 0.825025L14.6582 1.75962ZM15.4047 1.66653L15.2773 2.65839L15.6527 2.70659L15.78 1.71474L15.9074 0.722887L15.5321 0.674682L15.4047 1.66653ZM15.78 1.71474L15.6527 2.70659L16.028 2.7548L16.1554 1.76294L16.2828 0.771092L15.9074 0.722887L15.78 1.71474ZM16.1554 1.76294L16.028 2.7548C16.2268 2.78034 16.4302 2.82211 16.6386 2.8812L16.9114 1.91915L17.1843 0.957111C16.885 0.872195 16.5843 0.809826 16.2828 0.771092L16.1554 1.76294ZM16.9114 1.91915L16.6386 2.8812L17.0193 2.9892L17.2922 2.02716L17.5651 1.06512L17.1843 0.957111L16.9114 1.91915ZM17.2922 2.02716L17.0193 2.9892L17.4001 3.09721L17.6729 2.13516L17.9458 1.17312L17.5651 1.06512L17.2922 2.02716ZM17.6729 2.13516L17.4001 3.09721C17.8706 3.23069 18.3499 3.2025 18.8012 3.01757L18.4221 2.09222L18.043 1.16688C18.0031 1.18321 17.983 1.18365 17.9458 1.17312L17.6729 2.13516ZM18.4221 2.09222L18.8012 3.01757L19.1697 2.86663L18.7905 1.94128L18.4114 1.01593L18.043 1.16688L18.4221 2.09222ZM18.7905 1.94128L19.1697 2.86663L19.5381 2.71568L19.159 1.79033L18.7798 0.864989L18.4114 1.01593L18.7905 1.94128ZM19.159 1.79033L19.5381 2.71568C19.6243 2.68037 19.6929 2.67441 19.7619 2.68454L19.9071 1.69515L20.0524 0.705762C19.6151 0.641545 19.1849 0.699036 18.7798 0.864989L19.159 1.79033ZM19.9071 1.69515L19.7619 2.68454L20.1416 2.74031L20.2869 1.75092L20.4322 0.761526L20.0524 0.705762L19.9071 1.69515ZM20.2869 1.75092L20.1416 2.74031L20.5214 2.79607L20.6667 1.80668L20.812 0.817289L20.4322 0.761526L20.2869 1.75092ZM20.6667 1.80668L20.5214 2.79607C20.8649 2.8465 21.2092 2.84953 21.5516 2.8031L21.4172 1.81217L21.2828 0.821242C21.1309 0.841842 20.9749 0.841213 20.812 0.817289L20.6667 1.80668ZM21.4172 1.81217L21.5516 2.8031L21.9223 2.75283L21.7879 1.7619L21.6535 0.77097L21.2828 0.821242L21.4172 1.81217ZM21.7879 1.7619L21.9223 2.75283L22.293 2.70256L22.1586 1.71163L22.0242 0.720697L21.6535 0.77097L21.7879 1.7619ZM22.1586 1.71163L22.293 2.70256C22.4552 2.68056 22.6208 2.67897 22.7919 2.69906L22.9085 1.70589L23.0252 0.712712C22.6906 0.673429 22.3563 0.675662 22.0242 0.720697L22.1586 1.71163ZM22.9085 1.70589L22.7919 2.69906L23.1711 2.74359L23.2877 1.75042L23.4044 0.757245L23.0252 0.712712L22.9085 1.70589ZM23.2877 1.75042L23.1711 2.74359L23.5503 2.78813L23.6669 1.79495L23.7836 0.801777L23.4044 0.757245L23.2877 1.75042ZM23.6669 1.79495L23.5503 2.78813C23.8565 2.82408 24.162 2.83503 24.4662 2.8202L24.4176 1.82139L24.3689 0.822574C24.1779 0.831879 23.983 0.825196 23.7836 0.801777L23.6669 1.79495ZM24.4176 1.82139L24.4662 2.8202L24.8377 2.80211L24.789 1.80329L24.7404 0.804478L24.3689 0.822574L24.4176 1.82139ZM24.789 1.80329L24.8377 2.80211L25.2091 2.78401L25.1604 1.7852L25.1118 0.786383L24.7404 0.804478L24.789 1.80329ZM25.1604 1.7852L25.2091 2.78401C25.4887 2.77039 25.7694 2.74325 26.0511 2.70282L25.909 1.71297L25.7669 0.723115C25.5457 0.754865 25.3274 0.775879 25.1118 0.786383L25.1604 1.7852ZM25.909 1.71297L26.0511 2.70282L26.4282 2.64869L26.2861 1.65884L26.144 0.668981L25.7669 0.723115L25.909 1.71297ZM26.2861 1.65884L26.4282 2.64869L26.8053 2.59456L26.6632 1.6047L26.5211 0.614847L26.144 0.668981L26.2861 1.65884ZM26.6632 1.6047L26.8053 2.59456C27.0487 2.55962 27.2902 2.52797 27.5298 2.49961L27.4122 1.50655L27.2947 0.513479C27.0384 0.543814 26.7806 0.577607 26.5211 0.614847L26.6632 1.6047ZM27.4122 1.50655L27.5298 2.49961L27.9017 2.45559L27.7841 1.46252L27.6665 0.469457L27.2947 0.513479L27.4122 1.50655ZM27.7841 1.46252L27.9017 2.45559L28.2735 2.41157L28.156 1.4185L28.0384 0.425434L27.6665 0.469457L27.7841 1.46252ZM28.156 1.4185L28.2735 2.41157C28.3899 2.39779 28.5124 2.40548 28.6476 2.44164L28.906 1.47559L29.1643 0.50953C28.7954 0.410883 28.4179 0.380516 28.0384 0.425434L28.156 1.4185ZM28.906 1.47559L28.6476 2.44164L29.0258 2.54275L29.2841 1.5767L29.5424 0.610639L29.1643 0.50953L28.906 1.47559ZM29.2841 1.5767L29.0258 2.54275L29.4039 2.64386L29.6622 1.67781L29.9205 0.711749L29.5424 0.610639L29.2841 1.5767ZM29.6622 1.67781L29.4039 2.64386C29.7316 2.7315 30.0639 2.77937 30.3989 2.78429L30.4136 1.7844L30.4283 0.784505C30.2656 0.782116 30.0969 0.758922 29.9205 0.711749L29.6622 1.67781ZM30.4136 1.7844L30.3989 2.78429L30.7722 2.78977L30.7869 1.78988L30.8015 0.789987L30.4283 0.784505L30.4136 1.7844ZM30.7869 1.78988L30.7722 2.78977L31.1454 2.79525L31.1601 1.79536L31.1748 0.795469L30.8015 0.789987L30.7869 1.78988ZM31.1601 1.79536L31.1454 2.79525C31.3932 2.79889 31.6418 2.80295 31.8914 2.80744L31.9094 1.8076L31.9273 0.807758C31.6756 0.803236 31.4248 0.79914 31.1748 0.795469L31.1601 1.79536ZM31.9094 1.8076L31.8914 2.80744L32.2674 2.81419L32.2853 1.81435L32.3033 0.814512L31.9273 0.807758L31.9094 1.8076ZM32.2853 1.81435L32.2674 2.81419L32.6433 2.82094L32.6613 1.8211L32.6793 0.821266L32.3033 0.814512L32.2853 1.81435ZM32.6613 1.8211L32.6433 2.82094C32.8375 2.82443 33.0322 2.84428 33.2281 2.88096L33.4121 1.89803L33.5961 0.915113C33.2922 0.858217 32.9864 0.826783 32.6793 0.821266L32.6613 1.8211ZM33.4121 1.89803L33.2281 2.88096L33.6029 2.95113L33.7869 1.96821L33.971 0.985289L33.5961 0.915113L33.4121 1.89803ZM33.7869 1.96821L33.6029 2.95113L33.9777 3.02131L34.1618 2.03839L34.3458 1.05547L33.971 0.985289L33.7869 1.96821ZM34.1618 2.03839L33.9777 3.02131C34.3432 3.08972 34.7118 3.09312 35.0783 3.03094L34.911 2.04503L34.7438 1.05912C34.611 1.08165 34.4802 1.08062 34.3458 1.05547L34.1618 2.03839ZM34.911 2.04503L35.0783 3.03094L35.4528 2.96741L35.2855 1.9815L35.1182 0.99559L34.7438 1.05912L34.911 2.04503ZM35.2855 1.9815L35.4528 2.96741L35.8272 2.90388L35.6599 1.91797L35.4926 0.932057L35.1182 0.99559L35.2855 1.9815ZM35.6599 1.91797L35.8272 2.90388C35.9932 2.87571 36.1577 2.86912 36.3228 2.88362L36.4103 1.88746L36.4978 0.891292C36.1616 0.861762 35.8259 0.875516 35.4926 0.932057L35.6599 1.91797ZM36.4103 1.88746L36.3228 2.88362L36.6988 2.91665L36.7863 1.92048L36.8738 0.924316L36.4978 0.891292L36.4103 1.88746ZM36.7863 1.92048L36.6988 2.91665L37.0748 2.94967L37.1623 1.9535L37.2498 0.957339L36.8738 0.924316L36.7863 1.92048ZM37.1623 1.9535L37.0748 2.94967C37.4853 2.98573 37.8868 2.92386 38.2687 2.77784L37.9116 1.84378L37.5545 0.909723C37.4386 0.95403 37.3406 0.965313 37.2498 0.957339L37.1623 1.9535ZM37.9116 1.84378L38.2687 2.77784L38.6421 2.6351L38.285 1.70104L37.9279 0.766978L37.5545 0.909723L37.9116 1.84378ZM38.285 1.70104L38.6421 2.6351L39.0155 2.49235L38.6583 1.55829L38.3012 0.624234L37.9279 0.766978L38.285 1.70104ZM38.6583 1.55829L39.0155 2.49235C39.0677 2.4724 39.0978 2.47299 39.1384 2.48442L39.4093 1.5218L39.6802 0.559178C39.2173 0.428934 38.7468 0.453864 38.3012 0.624234L38.6583 1.55829ZM39.4093 1.5218L39.1384 2.48442L39.516 2.59066L39.7869 1.62805L40.0578 0.665426L39.6802 0.559178L39.4093 1.5218ZM39.7869 1.62805L39.516 2.59066L39.8936 2.69691L40.1645 1.73429L40.4354 0.771674L40.0578 0.665426L39.7869 1.62805ZM40.1645 1.73429L39.8936 2.69691C40.2759 2.80446 40.6687 2.83274 41.0628 2.77368L40.9147 1.78472L40.7665 0.79576C40.6639 0.811134 40.5566 0.805791 40.4354 0.771674L40.1645 1.73429ZM40.9147 1.78472L41.0628 2.77368L41.4354 2.71786L41.2872 1.7289L41.139 0.73994L40.7665 0.79576L40.9147 1.78472ZM41.2872 1.7289L41.4354 2.71786L41.808 2.66204L41.6598 1.67308L41.5116 0.68412L41.139 0.73994L41.2872 1.7289ZM41.6598 1.67308L41.808 2.66204C42.0315 2.62856 42.2561 2.60351 42.4819 2.58691L42.4086 1.5896L42.3353 0.592296C42.0594 0.612572 41.7849 0.643179 41.5116 0.68412L41.6598 1.67308ZM42.4086 1.5896L42.4819 2.58691L42.8581 2.55926L42.7848 1.56195L42.7115 0.564639L42.3353 0.592296L42.4086 1.5896ZM42.7848 1.56195L42.8581 2.55926L43.2344 2.5316L43.1611 1.53429L43.0877 0.536983L42.7115 0.564639L42.7848 1.56195ZM43.1611 1.53429L43.2344 2.5316C43.5438 2.50886 43.8508 2.45901 44.1548 2.38285L43.9119 1.41281L43.6689 0.442777C43.4735 0.491714 43.28 0.522851 43.0877 0.536983L43.1611 1.53429ZM43.9119 1.41281L44.1548 2.38285L44.5294 2.28903L44.2865 1.31899L44.0435 0.348954L43.6689 0.442777L43.9119 1.41281ZM44.2865 1.31899L44.5294 2.28903L44.904 2.1952L44.6611 1.22517L44.4181 0.255131L44.0435 0.348954L44.2865 1.31899ZM44.6611 1.22517L44.904 2.1952C45.0075 2.16929 45.1032 2.16789 45.203 2.18903L45.4103 1.21077L45.6177 0.232507C45.2179 0.147748 44.8141 0.15595 44.4181 0.255131L44.6611 1.22517ZM45.4103 1.21077L45.203 2.18903L45.5776 2.26845L45.785 1.29019L45.9924 0.311929L45.6177 0.232507L45.4103 1.21077ZM45.785 1.29019L45.5776 2.26845L45.9523 2.34787L46.1597 1.36961L46.367 0.391352L45.9924 0.311929L45.785 1.29019ZM46.1597 1.36961L45.9523 2.34787C46.3887 2.44039 46.825 2.40677 47.2412 2.26128L46.9112 1.3173L46.5812 0.373318C46.4949 0.403471 46.4302 0.404731 46.367 0.391352L46.1597 1.36961ZM46.9112 1.3173L47.2412 2.26128L47.618 2.12954L47.288 1.18556L46.958 0.24158L46.5812 0.373318L46.9112 1.3173ZM47.288 1.18556L47.618 2.12954L47.9948 1.9978L47.6648 1.05382L47.3348 0.109842L46.958 0.24158L47.288 1.18556ZM47.6648 1.05382L47.9948 1.9978C47.9976 1.99684 47.9949 1.99803 47.9876 1.99902C47.9802 2.00003 47.9712 2.00039 47.9619 1.99965C47.9526 1.99892 47.9466 1.9974 47.9448 1.99685C47.9431 1.99637 47.9476 1.9975 47.9584 2.00305L48.4144 1.11307L48.8704 0.223081C48.3918 -0.0221512 47.8583 -0.0731652 47.3348 0.109842L47.6648 1.05382ZM48.4144 1.11307L47.9584 2.00305L48.3312 2.19404L48.7872 1.30405L49.2432 0.414065L48.8704 0.223081L48.4144 1.11307ZM48.7872 1.30405L48.3312 2.19404L48.704 2.38502L49.1599 1.49503L49.6159 0.605049L49.2432 0.414065L48.7872 1.30405ZM49.1599 1.49503L48.704 2.38502C49.2012 2.63977 49.7531 2.67509 50.2825 2.46258L49.9099 1.53457L49.5374 0.606564C49.5349 0.607553 49.5391 0.605636 49.5492 0.603871C49.5595 0.602063 49.5724 0.601057 49.5865 0.601798C49.6005 0.602536 49.6113 0.604779 49.6179 0.606624C49.6241 0.608388 49.6236 0.60898 49.6159 0.605049L49.1599 1.49503ZM49.9099 1.53457L50.2825 2.46258L50.6597 2.31114L50.2872 1.38313L49.9146 0.455119L49.5374 0.606564L49.9099 1.53457ZM50.2872 1.38313L50.6597 2.31114L51.037 2.15969L50.6644 1.23168L50.2919 0.303674L49.9146 0.455119L50.2872 1.38313ZM50.6644 1.23168L51.037 2.15969C51.0477 2.15538 51.0534 2.15414 51.0544 2.15393C51.0553 2.15375 51.0534 2.15417 51.0498 2.1542C51.0462 2.15423 51.0435 2.15385 51.0427 2.15371C51.0421 2.15359 51.0456 2.15415 51.0537 2.1573L51.4149 1.2248L51.7761 0.292308C51.2869 0.102827 50.7744 0.109932 50.2919 0.303674L50.6644 1.23168ZM51.4149 1.2248L51.0537 2.1573L51.4269 2.30187L51.7881 1.36937L52.1493 0.436875L51.7761 0.292308L51.4149 1.2248ZM51.7881 1.36937L51.4269 2.30187L51.8002 2.44643L52.1614 1.51394L52.5225 0.581441L52.1493 0.436875L51.7881 1.36937ZM52.1614 1.51394L51.8002 2.44643C52.1519 2.58268 52.5182 2.65837 52.8943 2.66409L52.9096 1.66421L52.9248 0.664323C52.801 0.66244 52.6684 0.637948 52.5225 0.581441L52.1614 1.51394ZM52.9096 1.66421L52.8943 2.66409L53.2693 2.6698L53.2845 1.66991L53.2997 0.670028L52.9248 0.664323L52.9096 1.66421ZM53.2845 1.66991L53.2693 2.6698L53.6443 2.6755L53.6595 1.67562L53.6747 0.675733L53.2997 0.670028L53.2845 1.66991ZM53.6595 1.67562L53.6443 2.6755C53.7967 2.67782 53.9542 2.70204 54.1191 2.7521L54.4096 1.79524L54.7001 0.83838C54.3648 0.736553 54.0222 0.68102 53.6747 0.675733L53.6595 1.67562ZM54.4096 1.79524L54.1191 2.7521L54.4942 2.86602L54.7848 1.90916L55.0753 0.952299L54.7001 0.83838L54.4096 1.79524ZM54.7848 1.90916L54.4942 2.86602L54.8694 2.97994L55.16 2.02308L55.4505 1.06622L55.0753 0.952299L54.7848 1.90916ZM55.16 2.02308L54.8694 2.97994C55.4316 3.15065 55.9777 3.03923 56.4379 2.75377L55.9108 1.90399L55.3836 1.0542C55.3533 1.07303 55.3527 1.06673 55.3786 1.06261C55.3909 1.06066 55.4052 1.05991 55.4198 1.06097C55.4344 1.06202 55.445 1.06454 55.4505 1.06622L55.16 2.02308ZM55.9108 1.90399L56.4379 2.75377L56.8136 2.52075L56.2864 1.67097L55.7593 0.821188L55.3836 1.0542L55.9108 1.90399ZM56.2864 1.67097L56.8136 2.52075L57.1892 2.28774L56.6621 1.43795L56.1349 0.588173L55.7593 0.821188L56.2864 1.67097ZM56.6621 1.43795L57.1892 2.28774C57.1923 2.2858 57.1492 2.31213 57.0703 2.31473C56.9895 2.31739 56.9364 2.29305 56.9256 2.28702L57.4119 1.41325L57.8983 0.539477C57.638 0.394577 57.3352 0.304914 57.0044 0.315813C56.6755 0.32665 56.3822 0.434767 56.1349 0.588173L56.6621 1.43795ZM57.4119 1.41325L56.9256 2.28702L57.2999 2.49532L57.7862 1.62155L58.2725 0.747784L57.8983 0.539477L57.4119 1.41325ZM57.7862 1.62155L57.2999 2.49532L57.6741 2.70363L58.1605 1.82986L58.6468 0.956091L58.2725 0.747784L57.7862 1.62155ZM58.1605 1.82986L57.6741 2.70363C58.2144 3.00434 58.8211 3.01666 59.3736 2.72842L58.911 1.84183L58.4485 0.955243C58.4482 0.95539 58.4581 0.950235 58.4775 0.945316C58.4975 0.940257 58.5227 0.936682 58.5512 0.937135C58.6129 0.938119 58.6481 0.956801 58.6468 0.956091L58.1605 1.82986ZM58.911 1.84183L59.3736 2.72842L59.7499 2.53209L59.2873 1.6455L58.8248 0.758906L58.4485 0.955243L58.911 1.84183ZM59.2873 1.6455L59.7499 2.53209L60.1262 2.33575L59.6637 1.44916L59.2011 0.56257L58.8248 0.758906L59.2873 1.6455ZM59.6637 1.44916L60.1262 2.33575C60.1414 2.32782 60.1506 2.32459 60.1538 2.32355C60.1569 2.32258 60.1555 2.32332 60.1502 2.32391C60.1448 2.3245 60.1386 2.3246 60.1325 2.32402C60.1265 2.32345 60.1238 2.32253 60.125 2.32292L60.4137 1.36548L60.7023 0.408043C60.1801 0.250612 59.6613 0.322484 59.2011 0.56257L59.6637 1.44916ZM60.4137 1.36548L60.125 2.32292L60.4987 2.43558L60.7874 1.47814L61.076 0.520702L60.7023 0.408043L60.4137 1.36548ZM60.7874 1.47814L60.4987 2.43558L60.8724 2.54824L61.1611 1.5908L61.4497 0.63336L61.076 0.520702L60.7874 1.47814ZM61.1611 1.5908L60.8724 2.54824C61.2829 2.67196 61.7061 2.68963 62.1259 2.59775L61.912 1.62088L61.6982 0.644009C61.615 0.662229 61.5376 0.659847 61.4497 0.63336L61.1611 1.5908ZM61.912 1.62088L62.1259 2.59775L62.5031 2.51517L62.2893 1.5383L62.0755 0.56143L61.6982 0.644009L61.912 1.62088ZM62.2893 1.5383L62.5031 2.51517L62.8804 2.43259L62.6665 1.45572L62.4527 0.478852L62.0755 0.56143L62.2893 1.5383ZM62.6665 1.45572L62.8804 2.43259C62.9072 2.42671 62.9364 2.42371 62.9996 2.45261L63.4156 1.54325L63.8316 0.63389C63.399 0.435986 62.9288 0.374628 62.4527 0.478852L62.6665 1.45572ZM63.4156 1.54325L62.9996 2.45261L63.3715 2.62272L63.7875 1.71336L64.2035 0.803999L63.8316 0.63389L63.4156 1.54325ZM63.7875 1.71336L63.3715 2.62272L63.7433 2.79283L64.1593 1.88347L64.5753 0.974107L64.2035 0.803999L63.7875 1.71336ZM64.1593 1.88347L63.7433 2.79283C64.1261 2.96795 64.5369 3.05487 64.9637 3.03058L64.9069 2.0322L64.8501 1.03381C64.7759 1.03803 64.6883 1.0258 64.5753 0.974107L64.1593 1.88347ZM64.9069 2.0322L64.9637 3.03058L65.3394 3.0092L65.2826 2.01082L65.2258 1.01243L64.8501 1.03381L64.9069 2.0322ZM65.2826 2.01082L65.3394 3.0092L65.7151 2.98782L65.6583 1.98944L65.6015 0.991054L65.2258 1.01243L65.2826 2.01082ZM65.6583 1.98944L65.7151 2.98782C66.0783 2.96715 66.4325 2.88601 66.7745 2.75256L66.411 1.82096L66.0475 0.889358C65.8869 0.952045 65.7392 0.983216 65.6015 0.991054L65.6583 1.98944ZM66.411 1.82096L66.7745 2.75256L67.1515 2.60546L66.788 1.67386L66.4246 0.742259L66.0475 0.889358L66.411 1.82096ZM66.788 1.67386L67.1515 2.60546L67.5285 2.45836L67.1651 1.52676L66.8016 0.595159L66.4246 0.742259L66.788 1.67386ZM67.1651 1.52676L67.5285 2.45836C67.5392 2.45419 67.545 2.45294 67.5463 2.45268C67.5475 2.45245 67.5462 2.45279 67.5432 2.4528C67.5418 2.4528 67.5406 2.45273 67.5395 2.45263C67.5385 2.45253 67.538 2.45243 67.5381 2.45246C67.5382 2.45248 67.5424 2.45327 67.5511 2.45666L67.9147 1.52511L68.2783 0.593564C67.7931 0.40417 67.2837 0.407057 66.8016 0.595159L67.1651 1.52676ZM67.9147 1.52511L67.5511 2.45666L67.9237 2.60212L68.2874 1.67057L68.651 0.739018L68.2783 0.593564L67.9147 1.52511ZM68.2874 1.67057L67.9237 2.60212L68.2964 2.74757L68.66 1.81602L69.0236 0.884473L68.651 0.739018L68.2874 1.67057ZM68.66 1.81602L68.2964 2.74757C68.6301 2.87783 68.9749 2.96005 69.3283 2.98838L69.4082 1.99157L69.4881 0.99477C69.3408 0.982966 69.1868 0.948158 69.0236 0.884473L68.66 1.81602ZM69.4082 1.99157L69.3283 2.98838L69.7039 3.01848L69.7838 2.02167L69.8637 1.02487L69.4881 0.99477L69.4082 1.99157ZM69.7838 2.02167L69.7039 3.01848L70.0794 3.04857L70.1593 2.05177L70.2392 1.05496L69.8637 1.02487L69.7838 2.02167ZM70.1593 2.05177L70.0794 3.04857C70.5599 3.08707 71.0097 2.96232 71.4083 2.73456L70.9122 1.86629L70.4161 0.998017C70.3117 1.05769 70.2595 1.05659 70.2392 1.05496L70.1593 2.05177ZM70.9122 1.86629L71.4083 2.73456L71.7856 2.51898L71.2895 1.65071L70.7934 0.78244L70.4161 0.998017L70.9122 1.86629ZM71.2895 1.65071L71.7856 2.51898L72.1629 2.30341L71.6668 1.43514L71.1707 0.566864L70.7934 0.78244L71.2895 1.65071ZM71.6668 1.43514L72.1629 2.30341C72.1508 2.31033 72.0899 2.33921 71.9967 2.33492C71.9055 2.33071 71.8556 2.29811 71.8573 2.29922L72.4157 1.46965L72.9741 0.640078C72.728 0.474458 72.4295 0.352741 72.0887 0.337036C71.7459 0.321234 71.4344 0.416224 71.1707 0.566864L71.6668 1.43514ZM72.4157 1.46965L71.8573 2.29922L72.2288 2.54931L72.7872 1.71974L73.3456 0.890167L72.9741 0.640078L72.4157 1.46965ZM72.7872 1.71974L72.2288 2.54931L72.6003 2.7994L73.1587 1.96983L73.7171 1.14026L73.3456 0.890167L72.7872 1.71974ZM73.1587 1.96983L72.6003 2.7994C72.9702 3.04835 73.3924 3.21436 73.857 3.23713L73.9059 2.23832L73.9549 1.23952C73.9186 1.23775 73.8427 1.22476 73.7171 1.14026L73.1587 1.96983ZM73.9059 2.23832L73.857 3.23713L74.2326 3.25553L74.2816 2.25673L74.3305 1.25793L73.9549 1.23952L73.9059 2.23832ZM74.2816 2.25673L74.2326 3.25553L74.6083 3.27394L74.6572 2.27514L74.7062 1.27634L74.3305 1.25793L74.2816 2.25673ZM74.6572 2.27514L74.6083 3.27394C74.9263 3.28952 75.2436 3.27292 75.5593 3.22454L75.4079 2.23608L75.2564 1.24762C75.0721 1.27586 74.889 1.2853 74.7062 1.27634L74.6572 2.27514ZM75.4079 2.23608L75.5593 3.22454L75.9343 3.16708L75.7828 2.17862L75.6314 1.19016L75.2564 1.24762L75.4079 2.23608ZM75.7828 2.17862L75.9343 3.16708L76.3093 3.10962L76.1578 2.12116L76.0063 1.13269L75.6314 1.19016L75.7828 2.17862ZM76.1578 2.12116L76.3093 3.10962C76.4585 3.08676 76.6056 3.08689 76.7541 3.10991L76.9072 2.1217L77.0603 1.13349C76.7097 1.07916 76.3571 1.07894 76.0063 1.13269L76.1578 2.12116ZM76.9072 2.1217L76.7541 3.10991L77.1286 3.16792L77.2817 2.17971L77.4348 1.1915L77.0603 1.13349L76.9072 2.1217ZM77.2817 2.17971L77.1286 3.16792L77.503 3.22593L77.6561 2.23772L77.8092 1.24951L77.4348 1.1915L77.2817 2.17971ZM77.6561 2.23772L77.503 3.22593C77.8803 3.28439 78.2584 3.26943 78.6305 3.18419L78.4071 2.20944L78.1838 1.2347C78.0537 1.2645 77.9311 1.2684 77.8092 1.24951L77.6561 2.23772ZM78.4071 2.20944L78.6305 3.18419L79.0071 3.0979L78.7838 2.12316L78.5605 1.14841L78.1838 1.2347L78.4071 2.20944ZM78.7838 2.12316L79.0071 3.0979L79.3837 3.01162L79.1604 2.03687L78.9371 1.06213L78.5605 1.14841L78.7838 2.12316ZM79.1604 2.03687L79.3837 3.01162C79.512 2.98222 79.6323 2.97883 79.7516 2.99805L79.9107 2.01078L80.0697 1.02351C79.6909 0.962474 79.3109 0.976472 78.9371 1.06213L79.1604 2.03687ZM79.9107 2.01078L79.7516 2.99805L80.1253 3.05825L80.2843 2.07098L80.4434 1.08371L80.0697 1.02351L79.9107 2.01078ZM80.2843 2.07098L80.1253 3.05825L80.4989 3.11844L80.658 2.13117L80.817 1.1439L80.4434 1.08371L80.2843 2.07098ZM80.658 2.13117L80.4989 3.11844C80.7481 3.15859 80.9976 3.19875 81.2474 3.23892L81.4061 2.25161L81.5649 1.2643C81.3153 1.22415 81.066 1.18402 80.817 1.1439L80.658 2.13117ZM81.4061 2.25161L81.2474 3.23892L81.6219 3.29916L81.7807 2.31185L81.9395 1.32454L81.5649 1.2643L81.4061 2.25161ZM81.7807 2.31185L81.6219 3.29916L81.9964 3.3594L82.1552 2.37209L82.314 1.38478L81.9395 1.32454L81.7807 2.31185ZM82.1552 2.37209L81.9964 3.3594C82.5673 3.45121 83.0817 3.26737 83.496 2.96704L82.9092 2.15735L82.3223 1.34767C82.2725 1.38379 82.2507 1.38857 82.2571 1.38677C82.2603 1.38584 82.2684 1.38396 82.2802 1.38322C82.2921 1.38247 82.3038 1.38314 82.314 1.38478L82.1552 2.37209ZM82.9092 2.15735L83.496 2.96704L83.8754 2.69206L83.2885 1.88238L82.7017 1.07269L82.3223 1.34767L82.9092 2.15735ZM83.2885 1.88238L83.8754 2.69206L84.2548 2.41709L83.6679 1.6074L83.081 0.797716L82.7017 1.07269L83.2885 1.88238ZM83.6679 1.6074L84.2548 2.41709C84.2788 2.39971 84.2524 2.42546 84.1801 2.43529C84.1447 2.4401 84.1076 2.43963 84.0721 2.43384C84.0371 2.42815 84.0119 2.41868 83.998 2.41219L84.4193 1.50531L84.8407 0.598423C84.2111 0.305847 83.5772 0.438094 83.081 0.797716L83.6679 1.6074ZM84.4193 1.50531L83.998 2.41219L84.37 2.58506L84.7914 1.67818L85.2128 0.7713L84.8407 0.598423L84.4193 1.50531ZM84.7914 1.67818L84.37 2.58506L84.7421 2.75794L85.1635 1.85106L85.5848 0.944177L85.2128 0.7713L84.7914 1.67818ZM85.1635 1.85106L84.7421 2.75794C85.1775 2.96026 85.6524 3.02276 86.1331 2.91407L85.9126 1.93869L85.6921 0.963306C85.6701 0.968281 85.6455 0.972366 85.5848 0.944177L85.1635 1.85106ZM85.9126 1.93869L86.1331 2.91407L86.5102 2.82883L86.2897 1.85344L86.0691 0.87806L85.6921 0.963306L85.9126 1.93869ZM86.2897 1.85344L86.5102 2.82883L86.8872 2.74358L86.6667 1.7682L86.4462 0.792814L86.0691 0.87806L86.2897 1.85344ZM86.6667 1.7682L86.8872 2.74358C86.9453 2.73046 86.9987 2.73188 87.0709 2.75843L87.4161 1.81991L87.7614 0.881398C87.3371 0.72533 86.8909 0.692272 86.4462 0.792814L86.6667 1.7682ZM87.4161 1.81991L87.0709 2.75843L87.4432 2.89539L87.7885 1.95688L88.1337 1.01836L87.7614 0.881398L87.4161 1.81991ZM87.7885 1.95688L87.4432 2.89539L87.8156 3.03236L88.1608 2.09384L88.506 1.15532L88.1337 1.01836L87.7885 1.95688ZM88.1608 2.09384L87.8156 3.03236C88.1075 3.13975 88.4028 3.22526 88.7012 3.28795L88.9068 2.30932L89.1124 1.3307C88.9126 1.2887 88.7105 1.23054 88.506 1.15532L88.1608 2.09384ZM88.9068 2.30932L88.7012 3.28795L89.0749 3.36648L89.2805 2.38785L89.4861 1.40922L89.1124 1.3307L88.9068 2.30932ZM89.2805 2.38785L89.0749 3.36648L89.4486 3.445L89.6542 2.46637L89.8598 1.48774L89.4861 1.40922L89.2805 2.38785ZM89.6542 2.46637L89.4486 3.445C89.8882 3.53738 90.3267 3.5001 90.7434 3.35058L90.4057 2.40933L90.068 1.46809C89.981 1.49931 89.9184 1.50005 89.8598 1.48774L89.6542 2.46637ZM90.4057 2.40933L90.7434 3.35058L91.1212 3.21502L90.7835 2.27377L90.4458 1.33252L90.068 1.46809L90.4057 2.40933ZM90.7835 2.27377L91.1212 3.21502L91.4991 3.07946L91.1613 2.13821L90.8236 1.19696L90.4458 1.33252L90.7835 2.27377ZM91.1613 2.13821L91.4991 3.07946C91.5831 3.04931 91.6421 3.04918 91.6977 3.06141L91.9124 2.08474L92.1272 1.10808C91.6851 1.01085 91.2433 1.04637 90.8236 1.19696L91.1613 2.13821ZM91.9124 2.08474L91.6977 3.06141L92.071 3.1435L92.2857 2.16683L92.5005 1.19017L92.1272 1.10808L91.9124 2.08474ZM92.2857 2.16683L92.071 3.1435L92.4443 3.22559L92.659 2.24893L92.8738 1.27226L92.5005 1.19017L92.2857 2.16683ZM92.659 2.24893L92.4443 3.22559C92.8212 3.30849 93.2035 3.31627 93.5835 3.2488L93.4087 2.2642L93.2339 1.27959C93.1121 1.30122 92.9946 1.29882 92.8738 1.27226L92.659 2.24893ZM93.4087 2.2642L93.5835 3.2488L93.9599 3.18198L93.7851 2.19738L93.6103 1.21277L93.2339 1.27959L93.4087 2.2642ZM93.7851 2.19738L93.9599 3.18198L94.3363 3.11516L94.1614 2.13055L93.9866 1.14595L93.6103 1.21277L93.7851 2.19738ZM94.1614 2.13055L94.3363 3.11516C94.5773 3.07236 94.8183 3.03331 95.0591 2.998L94.9141 2.00858L94.769 1.01915C94.5082 1.05739 94.2474 1.09966 93.9866 1.14595L94.1614 2.13055ZM94.9141 2.00858L95.0591 2.998L95.4353 2.94285L95.2903 1.95342L95.1452 0.963999L94.769 1.01915L94.9141 2.00858ZM95.2903 1.95342L95.4353 2.94285L95.8116 2.8877L95.6665 1.89827L95.5215 0.908845L95.1452 0.963999L95.2903 1.95342ZM95.6665 1.89827L95.8116 2.8877C96.0242 2.85653 96.2356 2.83809 96.446 2.83216L96.4179 1.83256L96.3898 0.832955C96.1 0.841109 95.8105 0.866472 95.5215 0.908845L95.6665 1.89827ZM96.4179 1.83256L96.446 2.83216L96.8212 2.82161L96.7931 1.822L96.765 0.822398L96.3898 0.832955L96.4179 1.83256ZM96.7931 1.822L96.8212 2.82161L97.1964 2.81105L97.1683 1.81144L97.1401 0.811841L96.765 0.822398L96.7931 1.822ZM97.1683 1.81144L97.1964 2.81105C97.484 2.80296 97.7715 2.77868 98.0586 2.7384L97.9196 1.7481L97.7807 0.757804C97.5662 0.787901 97.3527 0.805859 97.1401 0.811841L97.1683 1.81144ZM97.9196 1.7481L98.0586 2.7384L98.4348 2.68562L98.2958 1.69532L98.1568 0.705018L97.7807 0.757804L97.9196 1.7481ZM98.2958 1.69532L98.4348 2.68562L98.8109 2.63283L98.672 1.64253L98.533 0.652233L98.1568 0.705018L98.2958 1.69532ZM98.672 1.64253L98.8109 2.63283C98.8993 2.62043 98.9898 2.62742 99.0948 2.66365L99.4209 1.71832L99.747 0.772978C99.3551 0.637784 98.9462 0.594255 98.533 0.652233L98.672 1.64253ZM99.4209 1.71832L99.0948 2.66365L99.4675 2.79222L99.7936 1.84688L100.12 0.901547L99.747 0.772978L99.4209 1.71832ZM99.7936 1.84688L99.4675 2.79222L99.8402 2.92079L100.166 1.97545L100.492 1.03012L100.12 0.901547L99.7936 1.84688ZM100.166 1.97545L99.8402 2.92079C100.12 3.01725 100.401 3.09883 100.684 3.1652L100.912 2.19166L101.141 1.21811C100.926 1.16764 100.71 1.10508 100.492 1.03012L100.166 1.97545ZM100.912 2.19166L100.684 3.1652L101.057 3.25284L101.286 2.27929L101.514 1.30574L101.141 1.21811L100.912 2.19166ZM101.286 2.27929L101.057 3.25284L101.431 3.34047L101.659 2.36692L101.888 1.39337L101.514 1.30574L101.286 2.27929ZM101.659 2.36692L101.431 3.34047C101.919 3.45499 102.399 3.38736 102.835 3.18291L102.411 2.2773L101.987 1.37168C101.919 1.40358 101.898 1.3957 101.888 1.39337L101.659 2.36692ZM102.411 2.2773L102.835 3.18291L103.214 3.00565L102.79 2.10004L102.366 1.19442L101.987 1.37168L102.411 2.2773ZM102.79 2.10004L103.214 3.00565L103.592 2.82839L103.168 1.92278L102.744 1.01717L102.366 1.19442L102.79 2.10004ZM103.168 1.92278L103.592 2.82839C103.596 2.82644 103.572 2.83795 103.528 2.8372C103.484 2.83645 103.459 2.82408 103.463 2.82584L103.918 1.93557L104.374 1.0453C103.85 0.777618 103.276 0.768207 102.744 1.01717L103.168 1.92278ZM103.918 1.93557L103.463 2.82584L103.834 3.01588L104.29 2.12561L104.745 1.23534L104.374 1.0453L103.918 1.93557ZM104.29 2.12561L103.834 3.01588L104.206 3.20593L104.661 2.31566L105.117 1.42539L104.745 1.23534L104.29 2.12561ZM104.661 2.31566L104.206 3.20593C104.532 3.37302 104.874 3.49322 105.229 3.55725L105.406 2.57314L105.584 1.58903C105.441 1.56315 105.285 1.5117 105.117 1.42539L104.661 2.31566ZM105.406 2.57314L105.229 3.55725L105.603 3.62468L105.78 2.64057L105.958 1.65646L105.584 1.58903L105.406 2.57314ZM105.78 2.64057L105.603 3.62468L105.976 3.69212L106.154 2.708L106.332 1.72389L105.958 1.65646L105.78 2.64057ZM106.154 2.708L105.976 3.69212C106.306 3.75159 106.638 3.77008 106.971 3.74613L106.899 2.74872L106.827 1.7513C106.665 1.76298 106.5 1.75433 106.332 1.72389L106.154 2.708ZM106.899 2.74872L106.971 3.74613L107.341 3.71941L107.27 2.72199L107.198 1.72458L106.827 1.7513L106.899 2.74872ZM107.27 2.72199L107.341 3.71941L107.712 3.69269L107.64 2.69527L107.569 1.69786L107.198 1.72458L107.27 2.72199ZM107.64 2.69527L107.712 3.69269C107.854 3.68249 108.029 3.66377 108.191 3.61775C108.267 3.59647 108.413 3.54956 108.562 3.44522C108.714 3.33911 109.004 3.06938 109.013 2.60951L108.013 2.58984L107.013 2.57018C107.022 2.13654 107.295 1.89088 107.416 1.80668C107.533 1.72424 107.634 1.69707 107.647 1.69336C107.685 1.68248 107.674 1.69024 107.569 1.69786L107.64 2.69527ZM108.013 2.58984L109.013 2.60951L109.014 2.5308L108.014 2.51114L107.015 2.49147L107.013 2.57018L108.013 2.58984ZM108.014 2.51114L108.869 1.99161L108.772 1.83226L107.918 2.35179L107.063 2.87132L107.16 3.03067L108.014 2.51114ZM107.918 2.35179L107.898 3.35161L107.998 3.35354L108.018 2.35372L108.037 1.35391L107.937 1.35198L107.918 2.35179Z" fill="var(--stroke-0, #FD9476)"/>
</svg>
