<svg preserveAspectRatio="none" width="100%" height="100%" overflow="visible" style="display: block;" viewBox="0 0 103 4" fill="none" xmlns="http://www.w3.org/2000/svg">
<path id="Vector 20" d="M0.179651 2.73813L0.331682 1.74975L0.216173 1.73199L0.0996797 1.74133L0.179651 2.73813ZM0.890541 2.84748L0.738511 3.83585L0.890541 2.84748ZM1.96877 2.88688L1.78171 1.90453L1.96877 2.88688ZM3.4396 2.60022L3.64349 3.57921L3.4396 2.60022ZM3.80842 2.5234L3.60452 1.54441L3.80842 2.5234ZM7.92865 2.16821L7.54305 1.24554L7.92865 2.16821ZM8.65627 1.86412L8.27067 0.941456L8.65627 1.86412ZM9.40093 1.81884L9.67086 0.855964L9.40093 1.81884ZM9.78179 1.92561L9.51186 2.88849L9.78179 1.92561ZM11.292 1.9472L11.5404 2.91586L11.292 1.9472ZM11.6663 1.85123L11.4179 0.88257L11.6663 1.85123ZM13.9151 1.99823L13.5599 1.06346L13.9151 1.99823ZM14.2869 1.85694L14.6422 2.79171L14.2869 1.85694ZM14.6587 1.71565L14.3034 0.780884L14.6587 1.71565ZM16.1595 1.71919L16.0322 2.71106L16.1595 1.71919ZM16.9133 1.87572L16.6376 2.83697L16.9133 1.87572ZM17.6683 2.09225L17.944 1.13099L17.6683 2.09225ZM18.4187 2.04968L18.7937 2.97672L18.4187 2.04968ZM19.1645 1.74803L18.7895 0.820993L19.1645 1.74803ZM19.9118 1.65337L19.7635 2.6423L19.9118 1.65337ZM20.6608 1.7657L20.8091 0.776758L20.6608 1.7657ZM21.412 1.7718L21.2803 0.780515L21.412 1.7718ZM22.1655 1.67168L22.2972 2.66297L22.1655 1.67168ZM22.9154 1.66664L22.7956 2.65944L22.9154 1.66664ZM24.4125 1.7839L24.3655 0.785009L24.4125 1.7839ZM25.9171 1.67696L25.7742 0.687219L25.9171 1.67696ZM26.2885 1.62336L26.4314 2.6131L26.2885 1.62336ZM26.66 1.56975L26.5171 0.580005L26.66 1.56975ZM27.4088 1.47254L27.2941 0.479146L27.4088 1.47254ZM28.9145 1.44339L28.6516 2.40824L28.9145 1.44339ZM29.6609 1.64673L29.9238 0.681886L29.6609 1.64673ZM30.7888 1.76037L30.773 2.76025L30.7888 1.76037ZM31.1662 1.76636L31.182 0.766487L31.1662 1.76636ZM32.289 1.78702L32.2694 2.78683L32.289 1.78702ZM33.4114 1.87245L33.5959 0.889618L33.4114 1.87245ZM34.1651 2.01395L34.3496 1.03112L34.1651 2.01395ZM35.2885 1.95885L35.1222 0.972761L35.2885 1.95885ZM35.6617 1.89592L35.828 2.88201L35.6617 1.89592ZM37.1624 1.93394L37.0732 2.92996L37.1624 1.93394ZM37.9126 1.82548L38.2674 2.76042L37.9126 1.82548ZM38.2871 1.68337L37.9322 0.748437L38.2871 1.68337ZM38.6615 1.54127L38.3067 0.606329L38.6615 1.54127ZM39.4109 1.50606L39.6851 0.544403L39.4109 1.50606ZM40.9112 1.77163L40.766 0.782235L40.9112 1.77163ZM41.6627 1.66133L41.8079 2.65073L41.6627 1.66133ZM42.4125 1.57921L42.4844 2.57662L42.4125 1.57921ZM42.7867 1.55223L42.8586 2.54964L42.7867 1.55223ZM43.1608 1.52525L43.0889 0.527844L43.1608 1.52525ZM43.9122 1.40516L43.6725 0.434305L43.9122 1.40516ZM44.6666 1.21892L44.9063 2.18978L44.6666 1.21892ZM45.4167 1.20592L45.6268 0.228233L45.4167 1.20592ZM46.1626 1.36617L45.9526 2.34386L46.1626 1.36617ZM46.9126 1.31527L46.5844 0.37066L46.9126 1.31527ZM47.6668 1.05324L47.3386 0.108624L47.6668 1.05324ZM48.4169 1.11393L47.9597 2.00329L48.4169 1.11393ZM49.1627 1.49734L49.6199 0.60798L49.1627 1.49734ZM49.9119 1.53834L49.5402 0.610014L49.9119 1.53834ZM50.2883 1.38762L49.9165 0.459299L50.2883 1.38762ZM50.6646 1.23691L51.0364 2.16523L50.6646 1.23691ZM51.4153 1.23151L51.7772 0.299273L51.4153 1.23151ZM51.7897 1.37682L51.4279 2.30906L51.7897 1.37682ZM52.1641 1.52214L51.8022 2.45438L52.1641 1.52214ZM52.9127 1.6739L52.8954 2.67376L52.9127 1.6739ZM53.661 1.6868L53.6438 2.68665L53.661 1.6868ZM54.4108 1.80793L54.7028 0.85153L54.4108 1.80793ZM55.1618 2.03729L54.8698 2.99369L55.1618 2.03729ZM55.9132 1.91971L55.3875 1.06903L55.9132 1.91971ZM56.2891 1.68746L56.8147 2.53815L56.2891 1.68746ZM56.6649 1.45521L56.1392 0.604519L56.6649 1.45521ZM57.4141 1.43202L56.9255 2.30453L57.4141 1.43202ZM57.7874 1.64108L57.2988 2.51359L57.7874 1.64108ZM58.9113 1.86366L58.4511 0.975868L58.9113 1.86366ZM59.6658 1.47254L59.2055 0.584753L59.6658 1.47254ZM60.4163 1.39041L60.1256 2.34722L60.4163 1.39041ZM60.7896 1.50384L61.0804 0.547029L60.7896 1.50384ZM61.9136 1.6489L61.7017 0.671603L61.9136 1.6489ZM62.6682 1.4853L62.4563 0.508007L62.6682 1.4853ZM63.4171 1.57439L62.9994 2.48295L63.4171 1.57439ZM64.9079 2.06644L64.9626 3.06495L64.9079 2.06644ZM65.6594 2.02525L65.6047 1.02675L65.6594 2.02525ZM66.4123 1.85834L66.0505 0.926071L66.4123 1.85834ZM66.7893 1.71203L67.1511 2.64429L66.7893 1.71203ZM67.1664 1.56571L67.5282 2.49798L67.1664 1.56571ZM67.9161 1.56563L68.2814 0.634751L67.9161 1.56563ZM68.6613 1.85811L68.296 2.78899L68.6613 1.85811ZM70.1607 2.097L70.2427 1.10036L70.1607 2.097ZM70.9138 1.91309L71.4083 2.78223L70.9138 1.91309ZM71.6687 1.48351L71.1741 0.614381L71.6687 1.48351ZM72.4175 1.51959L71.8577 2.34825L72.4175 1.51959ZM73.9065 2.29139L73.9576 1.2927L73.9065 2.29139ZM74.2813 2.31057L74.2302 3.30927L74.2813 2.31057ZM74.6561 2.32975L74.7072 1.33106L74.6561 2.32975ZM75.4066 2.29226L75.2574 1.30345L75.4066 2.29226ZM76.1579 2.17892L76.3071 3.16773L76.1579 2.17892ZM76.9083 2.18104L76.7532 3.16895L76.9083 2.18104ZM77.283 2.23983L77.438 1.25192L77.283 2.23983ZM77.6577 2.29863L77.5026 3.28654L77.6577 2.29863ZM78.4084 2.27191L78.1866 1.29681L78.4084 2.27191ZM79.1605 2.10087L79.3822 3.07598L79.1605 2.10087ZM79.9105 2.07633L80.0714 1.08936L79.9105 2.07633ZM80.2846 2.13731L80.1237 3.12428L80.2846 2.13731ZM80.6587 2.19829L80.8196 1.21132L80.6587 2.19829ZM81.4069 2.32028L81.246 3.30725L81.4069 2.32028ZM82.1554 2.44229L82.3163 1.45532L82.1554 2.44229ZM82.9094 2.2291L82.3241 1.41833L82.9094 2.2291ZM83.669 1.6807L84.2544 2.49147L83.669 1.6807ZM84.4209 1.58015L84.8438 0.673932L84.4209 1.58015ZM85.1653 1.92743L84.7424 2.83365L85.1653 1.92743ZM86.2906 1.93209L86.0717 0.956348L86.2906 1.93209ZM86.6672 1.8476L86.8861 2.82334L86.6672 1.8476ZM87.4162 1.90082L87.763 0.962897L87.4162 1.90082ZM88.161 2.17626L88.5078 1.23833L88.161 2.17626ZM88.9072 2.39325L88.6997 3.37149L88.9072 2.39325ZM89.6548 2.5518L89.8623 1.57355L89.6548 2.5518ZM90.4061 2.49625L90.0698 1.5545L90.4061 2.49625ZM91.1612 2.2266L91.4975 3.16835L91.1612 2.2266ZM91.9122 2.17461L92.1287 1.19833L91.9122 2.17461ZM92.2857 2.25744L92.5022 1.28116L92.2857 2.25744ZM92.6592 2.34028L92.4427 3.31656L92.6592 2.34028ZM93.4092 2.35702L93.5821 3.34196L93.4092 2.35702ZM94.1622 2.22484L93.9893 1.2399L94.1622 2.22484ZM94.9148 2.10431L94.7716 1.11462L94.9148 2.10431ZM95.6672 1.99545L95.8104 2.98514L95.6672 1.99545ZM96.4187 1.93117L96.3925 0.931517L96.4187 1.93117ZM96.794 1.92133L96.8202 2.92099L96.794 1.92133ZM97.9209 1.84957L97.7838 0.859015L97.9209 1.84957ZM98.6735 1.74541L98.8106 2.73597L98.6735 1.74541ZM99.4222 1.82259L99.75 0.877873L99.4222 1.82259ZM100.167 2.08111L100.495 1.13639L100.167 2.08111ZM100.826 2.29687L100.537 3.25424L100.826 2.29687ZM101.4 2.46988L101.688 1.51251L101.4 2.46988ZM101.687 2.50217L102.687 2.52306L101.687 2.50217ZM101.688 2.44795L102.688 2.46884L102.696 2.07816L102.438 1.78545L101.688 2.44795ZM101.591 2.33748L101.611 1.33769L99.3302 1.29098L100.842 2.99998L101.591 2.33748ZM0.0799714 2.74613L0.159943 3.74292L0.259622 3.73493L0.179651 2.73813L0.0996797 1.74133L-2.48668e-09 1.74933L0.0799714 2.74613ZM0.179651 2.73813L0.0276204 3.72651L0.738511 3.83585L0.890541 2.84748L1.04257 1.8591L0.331682 1.74975L0.179651 2.73813ZM0.890541 2.84748L0.738511 3.83585C1.24096 3.91314 1.73833 3.94873 2.15583 3.86923L1.96877 2.88688L1.78171 1.90453C1.70943 1.91829 1.48797 1.92761 1.04257 1.8591L0.890541 2.84748ZM1.96877 2.88688L2.15583 3.86923L2.52317 3.79928L2.33611 2.81693L2.14905 1.83458L1.78171 1.90453L1.96877 2.88688ZM2.33611 2.81693L2.52317 3.79928L2.89051 3.72933L2.70345 2.74698L2.51639 1.76463L2.14905 1.83458L2.33611 2.81693ZM2.70345 2.74698L2.89051 3.72933C3.14106 3.68162 3.39206 3.63158 3.64349 3.57921L3.4396 2.60022L3.2357 1.62122C2.99539 1.67128 2.75561 1.71908 2.51639 1.76463L2.70345 2.74698ZM3.4396 2.60022L3.64349 3.57921L4.01231 3.5024L3.80842 2.5234L3.60452 1.54441L3.2357 1.62122L3.4396 2.60022ZM3.80842 2.5234L4.01231 3.5024L4.38113 3.42558L4.17723 2.44659L3.97334 1.4676L3.60452 1.54441L3.80842 2.5234ZM4.17723 2.44659L4.38113 3.42558C4.51634 3.39742 4.65399 3.39178 4.79879 3.41034L4.92589 2.41845L5.05299 1.42656C4.69133 1.38022 4.32987 1.39334 3.97334 1.4676L4.17723 2.44659ZM4.92589 2.41845L4.79879 3.41034L5.17864 3.45901L5.30573 2.46712L5.43283 1.47523L5.05299 1.42656L4.92589 2.41845ZM5.30573 2.46712L5.17864 3.45901L5.55848 3.50768L5.68558 2.51579L5.81267 1.5239L5.43283 1.47523L5.30573 2.46712ZM5.68558 2.51579L5.55848 3.50768C5.90659 3.55229 6.25511 3.54674 6.60103 3.4904L6.44028 2.50341L6.27952 1.51641C6.12563 1.54148 5.97102 1.54419 5.81267 1.5239L5.68558 2.51579ZM6.44028 2.50341L6.60103 3.4904L6.97588 3.42935L6.81513 2.44236L6.65438 1.45536L6.27952 1.51641L6.44028 2.50341ZM6.81513 2.44236L6.97588 3.42935L7.35074 3.3683L7.18999 2.3813L7.02924 1.39431L6.65438 1.45536L6.81513 2.44236ZM7.18999 2.3813L7.35074 3.3683C7.68075 3.31455 8.0023 3.22125 8.31425 3.09087L7.92865 2.16821L7.54305 1.24554C7.36993 1.31789 7.19904 1.36665 7.02924 1.39431L7.18999 2.3813ZM7.92865 2.16821L8.31425 3.09087L8.67806 2.93883L8.29246 2.01616L7.90686 1.0935L7.54305 1.24554L7.92865 2.16821ZM8.29246 2.01616L8.67806 2.93883L9.04187 2.78679L8.65627 1.86412L8.27067 0.941456L7.90686 1.0935L8.29246 2.01616ZM8.65627 1.86412L9.04187 2.78679C9.07595 2.77254 9.09317 2.77112 9.131 2.78173L9.40093 1.81884L9.67086 0.855964C9.20089 0.724216 8.72166 0.752975 8.27067 0.941456L8.65627 1.86412ZM9.40093 1.81884L9.131 2.78173L9.51186 2.88849L9.78179 1.92561L10.0517 0.96273L9.67086 0.855964L9.40093 1.81884ZM9.78179 1.92561L9.51186 2.88849L9.89271 2.99526L10.1626 2.03238L10.4326 1.0695L10.0517 0.96273L9.78179 1.92561ZM10.1626 2.03238L9.89271 2.99526C10.3117 3.11271 10.7422 3.12055 11.1661 3.01183L10.9178 2.04317L10.6694 1.07451C10.5943 1.09376 10.5214 1.0944 10.4326 1.0695L10.1626 2.03238ZM10.9178 2.04317L11.1661 3.01183L11.5404 2.91586L11.292 1.9472L11.0436 0.978542L10.6694 1.07451L10.9178 2.04317ZM11.292 1.9472L11.5404 2.91586L11.9147 2.81989L11.6663 1.85123L11.4179 0.88257L11.0436 0.978542L11.292 1.9472ZM11.6663 1.85123L11.9147 2.81989C12.0008 2.7978 12.0802 2.79756 12.1685 2.82015L12.4162 1.85132L12.664 0.88249C12.2514 0.776992 11.8307 0.776697 11.4179 0.88257L11.6663 1.85123ZM12.4162 1.85132L12.1685 2.82015L12.5442 2.91622L12.792 1.94739L13.0397 0.978556L12.664 0.88249L12.4162 1.85132ZM12.792 1.94739L12.5442 2.91622L12.9199 3.01229L13.1677 2.04345L13.4154 1.07462L13.0397 0.978556L12.792 1.94739ZM13.1677 2.04345L12.9199 3.01229C13.3755 3.12877 13.8351 3.09842 14.2704 2.933L13.9151 1.99823L13.5599 1.06346C13.4995 1.08643 13.4608 1.08623 13.4154 1.07462L13.1677 2.04345ZM13.9151 1.99823L14.2704 2.933L14.6422 2.79171L14.2869 1.85694L13.9317 0.922173L13.5599 1.06346L13.9151 1.99823ZM14.2869 1.85694L14.6422 2.79171L15.0139 2.65042L14.6587 1.71565L14.3034 0.780884L13.9317 0.922173L14.2869 1.85694ZM14.6587 1.71565L15.0139 2.65042C15.1158 2.61173 15.1997 2.60427 15.2796 2.61451L15.4068 1.62264L15.534 0.630765C15.1121 0.576646 14.6973 0.631194 14.3034 0.780884L14.6587 1.71565ZM15.4068 1.62264L15.2796 2.61451L15.6559 2.66279L15.7831 1.67091L15.9104 0.679039L15.534 0.630765L15.4068 1.62264ZM15.7831 1.67091L15.6559 2.66279L16.0322 2.71106L16.1595 1.71919L16.2867 0.727312L15.9104 0.679039L15.7831 1.67091ZM16.1595 1.71919L16.0322 2.71106C16.2312 2.73658 16.4329 2.77826 16.6376 2.83697L16.9133 1.87572L17.189 0.914469C16.8904 0.828834 16.5895 0.766153 16.2867 0.727312L16.1595 1.71919ZM16.9133 1.87572L16.6376 2.83697L17.0152 2.94524L17.2908 1.98398L17.5665 1.02273L17.189 0.914469L16.9133 1.87572ZM17.2908 1.98398L17.0152 2.94524L17.3927 3.0535L17.6683 2.09225L17.944 1.13099L17.5665 1.02273L17.2908 1.98398ZM17.6683 2.09225L17.3927 3.0535C17.8645 3.18882 18.3436 3.1588 18.7937 2.97672L18.4187 2.04968L18.0438 1.12265C17.9967 1.14167 17.9755 1.14003 17.944 1.13099L17.6683 2.09225ZM18.4187 2.04968L18.7937 2.97672L19.1666 2.82589L18.7916 1.89885L18.4166 0.97182L18.0438 1.12265L18.4187 2.04968ZM18.7916 1.89885L19.1666 2.82589L19.5395 2.67506L19.1645 1.74803L18.7895 0.820993L18.4166 0.97182L18.7916 1.89885ZM19.1645 1.74803L19.5395 2.67506C19.633 2.63722 19.7018 2.63305 19.7635 2.6423L19.9118 1.65337L20.0602 0.664427C19.6226 0.598796 19.1931 0.657729 18.7895 0.820993L19.1645 1.74803ZM19.9118 1.65337L19.7635 2.6423L20.138 2.69847L20.2863 1.70953L20.4346 0.720593L20.0602 0.664427L19.9118 1.65337ZM20.2863 1.70953L20.138 2.69847L20.5125 2.75464L20.6608 1.7657L20.8091 0.776758L20.4346 0.720593L20.2863 1.70953ZM20.6608 1.7657L20.5125 2.75464C20.8552 2.80605 21.1999 2.80877 21.5437 2.76309L21.412 1.7718L21.2803 0.780515C21.1218 0.801578 20.9656 0.800235 20.8091 0.776758L20.6608 1.7657ZM21.412 1.7718L21.5437 2.76309L21.9205 2.71303L21.7888 1.72174L21.657 0.730455L21.2803 0.780515L21.412 1.7718ZM21.7888 1.72174L21.9205 2.71303L22.2972 2.66297L22.1655 1.67168L22.0338 0.680395L21.657 0.730455L21.7888 1.72174ZM22.1655 1.67168L22.2972 2.66297C22.4659 2.64056 22.6314 2.63962 22.7956 2.65944L22.9154 1.66664L23.0352 0.673834C22.7019 0.633632 22.3674 0.63606 22.0338 0.680395L22.1655 1.67168ZM22.9154 1.66664L22.7956 2.65944L23.1688 2.70445L23.2885 1.71165L23.4083 0.718849L23.0352 0.673834L22.9154 1.66664ZM23.2885 1.71165L23.1688 2.70445L23.5419 2.74947L23.6617 1.75667L23.7815 0.763864L23.4083 0.718849L23.2885 1.71165ZM23.6617 1.75667L23.5419 2.74947C23.8463 2.78619 24.1524 2.79725 24.4596 2.7828L24.4125 1.7839L24.3655 0.785009C24.169 0.794257 23.9746 0.787159 23.7815 0.763864L23.6617 1.75667ZM24.4125 1.7839L24.4596 2.7828L24.8373 2.76502L24.7902 1.76613L24.7432 0.767232L24.3655 0.785009L24.4125 1.7839ZM24.7902 1.76613L24.8373 2.76502L25.215 2.74724L25.168 1.74835L25.1209 0.749454L24.7432 0.767232L24.7902 1.76613ZM25.168 1.74835L25.215 2.74724C25.4986 2.73389 25.7803 2.70707 26.0599 2.66671L25.9171 1.67696L25.7742 0.687219C25.5586 0.718336 25.3409 0.7391 25.1209 0.749454L25.168 1.74835ZM25.9171 1.67696L26.0599 2.66671L26.4314 2.6131L26.2885 1.62336L26.1457 0.633612L25.7742 0.687219L25.9171 1.67696ZM26.2885 1.62336L26.4314 2.6131L26.8028 2.5595L26.66 1.56975L26.5171 0.580005L26.1457 0.633612L26.2885 1.62336ZM26.66 1.56975L26.8028 2.5595C27.041 2.52512 27.2812 2.49393 27.5236 2.46593L27.4088 1.47254L27.2941 0.479146C27.0332 0.509285 26.7742 0.542902 26.5171 0.580005L26.66 1.56975ZM27.4088 1.47254L27.5236 2.46593L27.9011 2.42233L27.7863 1.42893L27.6715 0.435541L27.2941 0.479146L27.4088 1.47254ZM27.7863 1.42893L27.9011 2.42233L28.2785 2.37872L28.1638 1.38533L28.049 0.391936L27.6715 0.435541L27.7863 1.42893ZM28.1638 1.38533L28.2785 2.37872C28.4013 2.36454 28.5234 2.37332 28.6516 2.40824L28.9145 1.44339L29.1773 0.478548C28.8078 0.377913 28.4295 0.347981 28.049 0.391936L28.1638 1.38533ZM28.9145 1.44339L28.6516 2.40824L29.0249 2.50991L29.2877 1.54506L29.5505 0.580217L29.1773 0.478548L28.9145 1.44339ZM29.2877 1.54506L29.0249 2.50991L29.3981 2.61158L29.6609 1.64673L29.9238 0.681886L29.5505 0.580217L29.2877 1.54506ZM29.6609 1.64673L29.3981 2.61158C29.7255 2.70074 30.0586 2.74891 30.3956 2.75426L30.4115 1.75439L30.4274 0.754513C30.2614 0.751879 30.0941 0.728282 29.9238 0.681886L29.6609 1.64673ZM30.4115 1.75439L30.3956 2.75426L30.773 2.76025L30.7888 1.76037L30.8047 0.7605L30.4274 0.754513L30.4115 1.75439ZM30.7888 1.76037L30.773 2.76025L31.1503 2.76623L31.1662 1.76636L31.182 0.766487L30.8047 0.7605L30.7888 1.76037ZM31.1662 1.76636L31.1503 2.76623C31.4006 2.77021 31.6494 2.77462 31.8966 2.77949L31.9163 1.77968L31.9359 0.779878C31.6861 0.774961 31.4348 0.770498 31.182 0.766487L31.1662 1.76636ZM31.9163 1.77968L31.8966 2.77949L32.2694 2.78683L32.289 1.78702L32.3087 0.787215L31.9359 0.779878L31.9163 1.77968ZM32.289 1.78702L32.2694 2.78683L32.6421 2.79416L32.6618 1.79436L32.6815 0.794552L32.3087 0.787215L32.289 1.78702ZM32.6618 1.79436L32.6421 2.79416C32.8338 2.79794 33.0285 2.81803 33.2269 2.85527L33.4114 1.87245L33.5959 0.889618C33.2919 0.832529 32.9869 0.800562 32.6815 0.794552L32.6618 1.79436ZM33.4114 1.87245L33.2269 2.85527L33.6037 2.92602L33.7883 1.9432L33.9728 0.960369L33.5959 0.889618L33.4114 1.87245ZM33.7883 1.9432L33.6037 2.92602L33.9806 2.99677L34.1651 2.01395L34.3496 1.03112L33.9728 0.960369L33.7883 1.9432ZM34.1651 2.01395L33.9806 2.99677C34.3461 3.0654 34.7149 3.06965 35.0814 3.00786L34.9152 2.02177L34.749 1.03569C34.6178 1.05779 34.4865 1.05683 34.3496 1.03112L34.1651 2.01395ZM34.9152 2.02177L35.0814 3.00786L35.4547 2.94494L35.2885 1.95885L35.1222 0.972761L34.749 1.03569L34.9152 2.02177ZM35.2885 1.95885L35.4547 2.94494L35.828 2.88201L35.6617 1.89592L35.4955 0.909836L35.1222 0.972761L35.2885 1.95885ZM35.6617 1.89592L35.828 2.88201C35.9928 2.85423 36.1566 2.84789 36.3216 2.86266L36.4108 1.86665L36.5 0.870631C36.164 0.840544 35.8284 0.853713 35.4955 0.909836L35.6617 1.89592ZM36.4108 1.86665L36.3216 2.86266L36.6974 2.89631L36.7866 1.90029L36.8758 0.904279L36.5 0.870631L36.4108 1.86665ZM36.7866 1.90029L36.6974 2.89631L37.0732 2.92996L37.1624 1.93394L37.2515 0.937927L36.8758 0.904279L36.7866 1.90029ZM37.1624 1.93394L37.0732 2.92996C37.4836 2.96671 37.8852 2.90546 38.2674 2.76042L37.9126 1.82548L37.5578 0.890545C37.4407 0.934978 37.3421 0.946038 37.2515 0.937927L37.1624 1.93394ZM37.9126 1.82548L38.2674 2.76042L38.6419 2.61831L38.2871 1.68337L37.9322 0.748437L37.5578 0.890545L37.9126 1.82548ZM38.2871 1.68337L38.6419 2.61831L39.0163 2.4762L38.6615 1.54127L38.3067 0.606329L37.9322 0.748437L38.2871 1.68337ZM38.6615 1.54127L39.0163 2.4762C39.0706 2.45562 39.0998 2.45723 39.1366 2.46773L39.4109 1.50606L39.6851 0.544403C39.2221 0.412359 38.7517 0.437433 38.3067 0.606329L38.6615 1.54127ZM39.4109 1.50606L39.1366 2.46773L39.5115 2.57463L39.7857 1.61297L40.06 0.65131L39.6851 0.544403L39.4109 1.50606ZM39.7857 1.61297L39.5115 2.57463L39.8864 2.68154L40.1606 1.71988L40.4349 0.758216L40.06 0.65131L39.7857 1.61297ZM40.1606 1.71988L39.8864 2.68154C40.2689 2.79061 40.662 2.81893 41.0564 2.76103L40.9112 1.77163L40.766 0.782235C40.6595 0.797867 40.5522 0.791684 40.4349 0.758216L40.1606 1.71988ZM40.9112 1.77163L41.0564 2.76103L41.4322 2.70588L41.2869 1.71648L41.1417 0.727085L40.766 0.782235L40.9112 1.77163ZM41.2869 1.71648L41.4322 2.70588L41.8079 2.65073L41.6627 1.66133L41.5174 0.671935L41.1417 0.727085L41.2869 1.71648ZM41.6627 1.66133L41.8079 2.65073C42.0343 2.61749 42.2598 2.59281 42.4844 2.57662L42.4125 1.57921L42.3406 0.581796C42.0664 0.60157 41.7919 0.631641 41.5174 0.671935L41.6627 1.66133ZM42.4125 1.57921L42.4844 2.57662L42.8586 2.54964L42.7867 1.55223L42.7148 0.55482L42.3406 0.581796L42.4125 1.57921ZM42.7867 1.55223L42.8586 2.54964L43.2328 2.52267L43.1608 1.52525L43.0889 0.527844L42.7148 0.55482L42.7867 1.55223ZM43.1608 1.52525L43.2328 2.52267C43.5407 2.50046 43.8473 2.4512 44.1519 2.37601L43.9122 1.40516L43.6725 0.434305C43.4742 0.483275 43.2798 0.514081 43.0889 0.527844L43.1608 1.52525ZM43.9122 1.40516L44.1519 2.37601L44.5291 2.28289L44.2894 1.31204L44.0497 0.341187L43.6725 0.434305L43.9122 1.40516ZM44.2894 1.31204L44.5291 2.28289L44.9063 2.18978L44.6666 1.21892L44.4269 0.248068L44.0497 0.341187L44.2894 1.31204ZM44.6666 1.21892L44.9063 2.18978C45.0131 2.1634 45.1094 2.16271 45.2067 2.18362L45.4167 1.20592L45.6268 0.228233C45.2269 0.142312 44.823 0.150289 44.4269 0.248068L44.6666 1.21892ZM45.4167 1.20592L45.2067 2.18362L45.5796 2.26374L45.7897 1.28605L45.9997 0.308355L45.6268 0.228233L45.4167 1.20592ZM45.7897 1.28605L45.5796 2.26374L45.9526 2.34386L46.1626 1.36617L46.3727 0.388476L45.9997 0.308355L45.7897 1.28605ZM46.1626 1.36617L45.9526 2.34386C46.3888 2.43757 46.8249 2.40441 47.2408 2.25988L46.9126 1.31527L46.5844 0.37066C46.4976 0.400828 46.4337 0.40159 46.3727 0.388476L46.1626 1.36617ZM46.9126 1.31527L47.2408 2.25988L47.6179 2.12886L47.2897 1.18425L46.9615 0.239642L46.5844 0.37066L46.9126 1.31527ZM47.2897 1.18425L47.6179 2.12886L47.995 1.99785L47.6668 1.05324L47.3386 0.108624L46.9615 0.239642L47.2897 1.18425ZM47.6668 1.05324L47.995 1.99785C47.9977 1.99691 47.9951 1.99808 47.9878 1.99906C47.9804 2.00005 47.9714 2.00039 47.9622 1.99964C47.9531 1.9989 47.9472 1.99739 47.9455 1.99688C47.944 1.99645 47.9487 1.99764 47.9597 2.00329L48.4169 1.11393L48.8741 0.224562C48.3959 -0.0212228 47.8626 -0.0734214 47.3386 0.108624L47.6668 1.05324ZM48.4169 1.11393L47.9597 2.00329L48.3326 2.195L48.7898 1.30563L49.247 0.416271L48.8741 0.224562L48.4169 1.11393ZM48.7898 1.30563L48.3326 2.195L48.7055 2.38671L49.1627 1.49734L49.6199 0.60798L49.247 0.416271L48.7898 1.30563ZM49.1627 1.49734L48.7055 2.38671C49.2016 2.64176 49.7535 2.67899 50.2837 2.46666L49.9119 1.53834L49.5402 0.610014C49.5382 0.610824 49.5427 0.608803 49.5531 0.606997C49.5638 0.605147 49.5769 0.604165 49.5911 0.60494C49.6052 0.605711 49.616 0.607986 49.6224 0.609805C49.6286 0.611542 49.6278 0.612058 49.6199 0.60798L49.1627 1.49734ZM49.9119 1.53834L50.2837 2.46666L50.6601 2.31595L50.2883 1.38762L49.9165 0.459299L49.5402 0.610014L49.9119 1.53834ZM50.2883 1.38762L50.6601 2.31595L51.0364 2.16523L50.6646 1.23691L50.2928 0.308584L49.9165 0.459299L50.2883 1.38762ZM50.6646 1.23691L51.0364 2.16523C51.0466 2.16113 51.0519 2.16 51.0526 2.15985C51.0532 2.15974 51.0513 2.16015 51.0477 2.16018C51.046 2.16019 51.0445 2.16011 51.0432 2.16C51.0426 2.15994 51.0421 2.15988 51.0417 2.15983C51.0415 2.1598 51.0414 2.15978 51.0413 2.15976C51.0412 2.15975 51.0412 2.15974 51.0412 2.15974C51.0412 2.15974 51.0412 2.15975 51.0413 2.15977C51.0414 2.15979 51.0416 2.15983 51.0418 2.15989C51.0423 2.15999 51.043 2.16018 51.044 2.16046C51.0459 2.16102 51.0491 2.16203 51.0535 2.16375L51.4153 1.23151L51.7772 0.299273C51.2889 0.10975 50.7765 0.114902 50.2928 0.308584L50.6646 1.23691ZM51.4153 1.23151L51.0535 2.16375L51.4279 2.30906L51.7897 1.37682L52.1516 0.444589L51.7772 0.299273L51.4153 1.23151ZM51.7897 1.37682L51.4279 2.30906L51.8022 2.45438L52.1641 1.52214L52.5259 0.589905L52.1516 0.444589L51.7897 1.37682ZM52.1641 1.52214L51.8022 2.45438C52.1537 2.59081 52.5196 2.66728 52.8954 2.67376L52.9127 1.6739L52.9299 0.674053C52.8068 0.671931 52.6736 0.647226 52.5259 0.589905L52.1641 1.52214ZM52.9127 1.6739L52.8954 2.67376L53.2696 2.6802L53.2868 1.68035L53.3041 0.6805L52.9299 0.674053L52.9127 1.6739ZM53.2868 1.68035L53.2696 2.6802L53.6438 2.68665L53.661 1.6868L53.6783 0.686948L53.3041 0.6805L53.2868 1.68035ZM53.661 1.6868L53.6438 2.68665C53.7956 2.68927 53.9531 2.71375 54.1187 2.76433L54.4108 1.80793L54.7028 0.85153C54.3677 0.749196 54.0254 0.69293 53.6783 0.686948L53.661 1.6868ZM54.4108 1.80793L54.1187 2.76433L54.4942 2.87901L54.7863 1.92261L55.0784 0.96621L54.7028 0.85153L54.4108 1.80793ZM54.7863 1.92261L54.4942 2.87901L54.8698 2.99369L55.1618 2.03729L55.4539 1.08089L55.0784 0.96621L54.7863 1.92261ZM55.1618 2.03729L54.8698 2.99369C55.4314 3.16521 55.9778 3.05533 56.4389 2.7704L55.9132 1.91971L55.3875 1.06903C55.3574 1.08763 55.3569 1.08131 55.3828 1.07726C55.3951 1.07533 55.4093 1.07462 55.4238 1.0757C55.4382 1.07677 55.4486 1.07928 55.4539 1.08089L55.1618 2.03729ZM55.9132 1.91971L56.4389 2.7704L56.8147 2.53815L56.2891 1.68746L55.7634 0.836774L55.3875 1.06903L55.9132 1.91971ZM56.2891 1.68746L56.8147 2.53815L57.1906 2.30589L56.6649 1.45521L56.1392 0.604519L55.7634 0.836774L56.2891 1.68746ZM56.6649 1.45521L57.1906 2.30589C57.1937 2.30399 57.1503 2.33035 57.0711 2.3328C56.9899 2.33532 56.9366 2.31073 56.9255 2.30453L57.4141 1.43202L57.9027 0.559505C57.6427 0.413921 57.3401 0.323517 57.0092 0.333759C56.6802 0.343943 56.3867 0.451588 56.1392 0.604519L56.6649 1.45521ZM57.4141 1.43202L56.9255 2.30453L57.2988 2.51359L57.7874 1.64108L58.276 0.768571L57.9027 0.559505L57.4141 1.43202ZM57.7874 1.64108L57.2988 2.51359L57.6722 2.72266L58.1608 1.85015L58.6494 0.977637L58.276 0.768571L57.7874 1.64108ZM58.1608 1.85015L57.6722 2.72266C58.2121 3.02503 58.8189 3.038 59.3716 2.75145L58.9113 1.86366L58.4511 0.975868C58.4506 0.976116 58.4603 0.971051 58.4796 0.966211C58.4995 0.961233 58.5247 0.957709 58.5531 0.958221C58.6148 0.959332 58.6502 0.978116 58.6494 0.977637L58.1608 1.85015ZM58.9113 1.86366L59.3716 2.75145L59.7488 2.55589L59.2886 1.6681L58.8283 0.780311L58.4511 0.975868L58.9113 1.86366ZM59.2886 1.6681L59.7488 2.55589L60.126 2.36033L59.6658 1.47254L59.2055 0.584753L58.8283 0.780311L59.2886 1.6681ZM59.6658 1.47254L60.126 2.36033C60.1414 2.35236 60.1507 2.34909 60.1541 2.34802C60.1573 2.34701 60.156 2.34773 60.1508 2.3483C60.1455 2.34888 60.1393 2.34896 60.1332 2.34837C60.1272 2.34779 60.1244 2.34686 60.1256 2.34722L60.4163 1.39041L60.707 0.433601C60.185 0.275004 59.6661 0.345984 59.2055 0.584753L59.6658 1.47254ZM60.4163 1.39041L60.1256 2.34722L60.4989 2.46065L60.7896 1.50384L61.0804 0.547029L60.707 0.433601L60.4163 1.39041ZM60.7896 1.50384L60.4989 2.46065L60.8723 2.57408L61.163 1.61727L61.4537 0.660457L61.0804 0.547029L60.7896 1.50384ZM61.163 1.61727L60.8723 2.57408C61.2824 2.69868 61.7056 2.71723 62.1255 2.6262L61.9136 1.6489L61.7017 0.671603C61.6186 0.689628 61.5413 0.687091 61.4537 0.660457L61.163 1.61727ZM61.9136 1.6489L62.1255 2.6262L62.5028 2.5444L62.2909 1.5671L62.079 0.589805L61.7017 0.671603L61.9136 1.6489ZM62.2909 1.5671L62.5028 2.5444L62.8801 2.4626L62.6682 1.4853L62.4563 0.508007L62.079 0.589805L62.2909 1.5671ZM62.6682 1.4853L62.8801 2.4626C62.9067 2.45682 62.936 2.4538 62.9994 2.48295L63.4171 1.57439L63.8349 0.665827C63.4027 0.46713 62.9327 0.404727 62.4563 0.508007L62.6682 1.4853ZM63.4171 1.57439L62.9994 2.48295L63.371 2.65383L63.7888 1.74527L64.2065 0.836711L63.8349 0.665827L63.4171 1.57439ZM63.7888 1.74527L63.371 2.65383L63.7427 2.82472L64.1604 1.91616L64.5782 1.00759L64.2065 0.836711L63.7888 1.74527ZM64.1604 1.91616L63.7427 2.82472C64.1251 3.00057 64.5358 3.08834 64.9626 3.06495L64.9079 2.06644L64.8532 1.06794C64.779 1.07201 64.6913 1.05959 64.5782 1.00759L64.1604 1.91616ZM64.9079 2.06644L64.9626 3.06495L65.3384 3.04435L65.2837 2.04585L65.2289 1.04735L64.8532 1.06794L64.9079 2.06644ZM65.2837 2.04585L65.3384 3.04435L65.7142 3.02375L65.6594 2.02525L65.6047 1.02675L65.2289 1.04735L65.2837 2.04585ZM65.6594 2.02525L65.7142 3.02375C66.0775 3.00384 66.4318 2.92342 66.774 2.79061L66.4123 1.85834L66.0505 0.926071C65.89 0.988348 65.7425 1.0192 65.6047 1.02675L65.6594 2.02525ZM66.4123 1.85834L66.774 2.79061L67.1511 2.64429L66.7893 1.71203L66.4276 0.779755L66.0505 0.926071L66.4123 1.85834ZM66.7893 1.71203L67.1511 2.64429L67.5282 2.49798L67.1664 1.56571L66.8046 0.63344L66.4276 0.779755L66.7893 1.71203ZM67.1664 1.56571L67.5282 2.49798C67.5387 2.49387 67.5444 2.49266 67.5457 2.49241C67.5468 2.4922 67.5454 2.49253 67.5424 2.49253C67.5394 2.49253 67.5375 2.4922 67.5375 2.4922C67.5377 2.49223 67.5419 2.49306 67.5508 2.49651L67.9161 1.56563L68.2814 0.634751C67.7967 0.444532 67.2873 0.446157 66.8046 0.63344L67.1664 1.56571ZM67.9161 1.56563L67.5508 2.49651L67.9234 2.64275L68.2887 1.71187L68.654 0.780989L68.2814 0.634751L67.9161 1.56563ZM68.2887 1.71187L67.9234 2.64275L68.296 2.78899L68.6613 1.85811L69.0267 0.927227L68.654 0.780989L68.2887 1.71187ZM68.6613 1.85811L68.296 2.78899C68.6295 2.91988 68.9742 3.00281 69.3276 3.03187L69.4096 2.03523L69.4915 1.0386C69.3441 1.02648 69.19 0.991323 69.0267 0.927227L68.6613 1.85811ZM69.4096 2.03523L69.3276 3.03187L69.7032 3.06275L69.7851 2.06612L69.8671 1.06948L69.4915 1.0386L69.4096 2.03523ZM69.7851 2.06612L69.7032 3.06275L70.0788 3.09364L70.1607 2.097L70.2427 1.10036L69.8671 1.06948L69.7851 2.06612ZM70.1607 2.097L70.0788 3.09364C70.5591 3.13314 71.0092 3.00935 71.4083 2.78223L70.9138 1.91309L70.4192 1.04396C70.315 1.10323 70.2631 1.10204 70.2427 1.10036L70.1607 2.097ZM70.9138 1.91309L71.4083 2.78223L71.7858 2.56744L71.2912 1.6983L70.7966 0.829172L70.4192 1.04396L70.9138 1.91309ZM71.2912 1.6983L71.7858 2.56744L72.1632 2.35264L71.6687 1.48351L71.1741 0.614381L70.7966 0.829172L71.2912 1.6983ZM71.6687 1.48351L72.1632 2.35264C72.1508 2.35971 72.0897 2.38847 71.9965 2.38398C71.9054 2.37959 71.8558 2.34694 71.8577 2.34825L72.4175 1.51959L72.9773 0.690942C72.7316 0.524998 72.4334 0.402711 72.0927 0.386297C71.7499 0.369777 71.4381 0.46412 71.1741 0.614381L71.6687 1.48351ZM72.4175 1.51959L71.8577 2.34825L72.2291 2.59912L72.7889 1.77047L73.3486 0.941815L72.9773 0.690942L72.4175 1.51959ZM72.7889 1.77047L72.2291 2.59912L72.6005 2.84999L73.1603 2.02134L73.72 1.19269L73.3486 0.941815L72.7889 1.77047ZM73.1603 2.02134L72.6005 2.84999C72.9695 3.09926 73.3911 3.26633 73.8554 3.29009L73.9065 2.29139L73.9576 1.2927C73.9221 1.29088 73.8462 1.27791 73.72 1.19269L73.1603 2.02134ZM73.9065 2.29139L73.8554 3.29009L74.2302 3.30927L74.2813 2.31057L74.3324 1.31188L73.9576 1.2927L73.9065 2.29139ZM74.2813 2.31057L74.2302 3.30927L74.605 3.32844L74.6561 2.32975L74.7072 1.33106L74.3324 1.31188L74.2813 2.31057ZM74.6561 2.32975L74.605 3.32844C74.9227 3.3447 75.2399 3.32872 75.5558 3.28107L75.4066 2.29226L75.2574 1.30345C75.0725 1.33136 74.8894 1.34038 74.7072 1.33106L74.6561 2.32975ZM75.4066 2.29226L75.5558 3.28107L75.9314 3.2244L75.7823 2.23559L75.6331 1.24678L75.2574 1.30345L75.4066 2.29226ZM75.7823 2.23559L75.9314 3.2244L76.3071 3.16773L76.1579 2.17892L76.0087 1.1901L75.6331 1.24678L75.7823 2.23559ZM76.1579 2.17892L76.3071 3.16773C76.4568 3.14513 76.6044 3.14559 76.7532 3.16895L76.9083 2.18104L77.0633 1.19313C76.7126 1.13809 76.3599 1.13713 76.0087 1.1901L76.1579 2.17892ZM76.9083 2.18104L76.7532 3.16895L77.1279 3.22775L77.283 2.23983L77.438 1.25192L77.0633 1.19313L76.9083 2.18104ZM77.283 2.23983L77.1279 3.22775L77.5026 3.28654L77.6577 2.29863L77.8127 1.31072L77.438 1.25192L77.283 2.23983ZM77.6577 2.29863L77.5026 3.28654C77.8798 3.34573 78.2579 3.33166 78.6301 3.24701L78.4084 2.27191L78.1866 1.29681C78.0575 1.32618 77.9351 1.32992 77.8127 1.31072L77.6577 2.29863ZM78.4084 2.27191L78.6301 3.24701L79.0062 3.16149L78.7844 2.18639L78.5627 1.21129L78.1866 1.29681L78.4084 2.27191ZM78.7844 2.18639L79.0062 3.16149L79.3822 3.07598L79.1605 2.10087L78.9387 1.12577L78.5627 1.21129L78.7844 2.18639ZM79.1605 2.10087L79.3822 3.07598C79.5096 3.04701 79.6297 3.04375 79.7497 3.06331L79.9105 2.07633L80.0714 1.08936C79.6927 1.02762 79.3127 1.04071 78.9387 1.12577L79.1605 2.10087ZM79.9105 2.07633L79.7497 3.06331L80.1237 3.12428L80.2846 2.13731L80.4455 1.15034L80.0714 1.08936L79.9105 2.07633ZM80.2846 2.13731L80.1237 3.12428L80.4978 3.18526L80.6587 2.19829L80.8196 1.21132L80.4455 1.15034L80.2846 2.13731ZM80.6587 2.19829L80.4978 3.18526C80.7471 3.22592 80.9966 3.26658 81.246 3.30725L81.4069 2.32028L81.5678 1.33331C81.3184 1.29263 81.0689 1.25197 80.8196 1.21132L80.6587 2.19829ZM81.4069 2.32028L81.246 3.30725L81.6203 3.36826L81.7812 2.38129L81.9421 1.39431L81.5678 1.33331L81.4069 2.32028ZM81.7812 2.38129L81.6203 3.36826L81.9945 3.42926L82.1554 2.44229L82.3163 1.45532L81.9421 1.39431L81.7812 2.38129ZM82.1554 2.44229L81.9945 3.42926C82.5652 3.5223 83.0799 3.33938 83.4948 3.03987L82.9094 2.2291L82.3241 1.41833C82.2742 1.45434 82.2525 1.45903 82.2589 1.45722C82.2623 1.45628 82.2704 1.4544 82.2823 1.45368C82.2943 1.45296 82.3061 1.45365 82.3163 1.45532L82.1554 2.44229ZM82.9094 2.2291L83.4948 3.03987L83.8746 2.76567L83.2892 1.9549L82.7038 1.14413L82.3241 1.41833L82.9094 2.2291ZM83.2892 1.9549L83.8746 2.76567L84.2544 2.49147L83.669 1.6807L83.0836 0.869931L82.7038 1.14413L83.2892 1.9549ZM83.669 1.6807L84.2544 2.49147C84.2782 2.47427 84.2517 2.49998 84.1794 2.50964C84.144 2.51437 84.107 2.51382 84.0717 2.50799C84.0369 2.50226 84.0119 2.49279 83.9981 2.48636L84.4209 1.58015L84.8438 0.673932C84.2149 0.380521 83.5808 0.510955 83.0836 0.869931L83.669 1.6807ZM84.4209 1.58015L83.9981 2.48636L84.3703 2.66L84.7931 1.75379L85.2159 0.847576L84.8438 0.673932L84.4209 1.58015ZM84.7931 1.75379L84.3703 2.66L84.7424 2.83365L85.1653 1.92743L85.5881 1.02122L85.2159 0.847576L84.7931 1.75379ZM85.1653 1.92743L84.7424 2.83365C85.1772 3.03648 85.6518 3.10027 86.1329 2.99232L85.914 2.01658L85.6951 1.04084C85.6741 1.04556 85.6496 1.04991 85.5881 1.02122L85.1653 1.92743ZM85.914 2.01658L86.1329 2.99232L86.5095 2.90783L86.2906 1.93209L86.0717 0.956348L85.6951 1.04084L85.914 2.01658ZM86.2906 1.93209L86.5095 2.90783L86.8861 2.82334L86.6672 1.8476L86.4483 0.871854L86.0717 0.956348L86.2906 1.93209ZM86.6672 1.8476L86.8861 2.82334C86.9432 2.81052 86.9965 2.81182 87.0693 2.83874L87.4162 1.90082L87.763 0.962897C87.3393 0.806192 86.8932 0.77201 86.4483 0.871854L86.6672 1.8476ZM87.4162 1.90082L87.0693 2.83874L87.4417 2.97646L87.7886 2.03854L88.1354 1.10062L87.763 0.962897L87.4162 1.90082ZM87.7886 2.03854L87.4417 2.97646L87.8141 3.11418L88.161 2.17626L88.5078 1.23833L88.1354 1.10062L87.7886 2.03854ZM88.161 2.17626L87.8141 3.11418C88.1061 3.22214 88.4014 3.30821 88.6997 3.37149L88.9072 2.39325L89.1147 1.41501C88.9147 1.37259 88.7125 1.314 88.5078 1.23833L88.161 2.17626ZM88.9072 2.39325L88.6997 3.37149L89.0735 3.45077L89.281 2.47252L89.4885 1.49428L89.1147 1.41501L88.9072 2.39325ZM89.281 2.47252L89.0735 3.45077L89.4473 3.53004L89.6548 2.5518L89.8623 1.57355L89.4885 1.49428L89.281 2.47252ZM89.6548 2.5518L89.4473 3.53004C89.8868 3.62323 90.3253 3.58695 90.7424 3.438L90.4061 2.49625L90.0698 1.5545C89.9835 1.58531 89.9212 1.58606 89.8623 1.57355L89.6548 2.5518ZM90.4061 2.49625L90.7424 3.438L91.12 3.30318L90.7837 2.36143L90.4473 1.41967L90.0698 1.5545L90.4061 2.49625ZM90.7837 2.36143L91.12 3.30318L91.4975 3.16835L91.1612 2.2266L90.8249 1.28485L90.4473 1.41967L90.7837 2.36143ZM91.1612 2.2266L91.4975 3.16835C91.5808 3.13863 91.6396 3.13844 91.6957 3.15089L91.9122 2.17461L92.1287 1.19833C91.6869 1.10034 91.245 1.13482 90.8249 1.28485L91.1612 2.2266ZM91.9122 2.17461L91.6957 3.15089L92.0692 3.23373L92.2857 2.25744L92.5022 1.28116L92.1287 1.19833L91.9122 2.17461ZM92.2857 2.25744L92.0692 3.23373L92.4427 3.31656L92.6592 2.34028L92.8758 1.364L92.5022 1.28116L92.2857 2.25744ZM92.6592 2.34028L92.4427 3.31656C92.8196 3.40013 93.2019 3.4087 93.5821 3.34196L93.4092 2.35702L93.2363 1.37208C93.1146 1.39345 92.9969 1.39086 92.8758 1.364L92.6592 2.34028ZM93.4092 2.35702L93.5821 3.34196L93.9586 3.27587L93.7857 2.29093L93.6128 1.30599L93.2363 1.37208L93.4092 2.35702ZM93.7857 2.29093L93.9586 3.27587L94.3351 3.20978L94.1622 2.22484L93.9893 1.2399L93.6128 1.30599L93.7857 2.29093ZM94.1622 2.22484L94.3351 3.20978C94.5762 3.16744 94.8172 3.12885 95.058 3.09401L94.9148 2.10431L94.7716 1.11462C94.5109 1.15235 94.2501 1.19412 93.9893 1.2399L94.1622 2.22484ZM94.9148 2.10431L95.058 3.09401L95.4342 3.03957L95.291 2.04988L95.1478 1.06019L94.7716 1.11462L94.9148 2.10431ZM95.291 2.04988L95.4342 3.03957L95.8104 2.98514L95.6672 1.99545L95.524 1.00576L95.1478 1.06019L95.291 2.04988ZM95.6672 1.99545L95.8104 2.98514C96.0229 2.95439 96.2343 2.93635 96.4449 2.93083L96.4187 1.93117L96.3925 0.931517C96.1026 0.939117 95.8131 0.963926 95.524 1.00576L95.6672 1.99545ZM96.4187 1.93117L96.4449 2.93083L96.8202 2.92099L96.794 1.92133L96.7678 0.921676L96.3925 0.931517L96.4187 1.93117ZM96.794 1.92133L96.8202 2.92099L97.1956 2.91115L97.1694 1.91149L97.1431 0.911835L96.7678 0.921676L96.794 1.92133ZM97.1694 1.91149L97.1956 2.91115C97.4833 2.9036 97.7709 2.87988 98.058 2.84013L97.9209 1.84957L97.7838 0.859015C97.5693 0.888705 97.3558 0.906259 97.1431 0.911835L97.1694 1.91149ZM97.9209 1.84957L98.058 2.84013L98.4343 2.78805L98.2972 1.79749L98.1601 0.806935L97.7838 0.859015L97.9209 1.84957ZM98.2972 1.79749L98.4343 2.78805L98.8106 2.73597L98.6735 1.74541L98.5364 0.754856L98.1601 0.806935L98.2972 1.79749ZM98.6735 1.74541L98.8106 2.73597C98.899 2.72373 98.9894 2.7309 99.0943 2.76731L99.4222 1.82259L99.75 0.877873C99.3584 0.741942 98.9497 0.697652 98.5364 0.754856L98.6735 1.74541ZM99.4222 1.82259L99.0943 2.76731L99.4667 2.89657L99.7946 1.95185L100.122 1.00713L99.75 0.877873L99.4222 1.82259ZM99.7946 1.95185L99.4667 2.89657L99.8391 3.02583L100.167 2.08111L100.495 1.13639L100.122 1.00713L99.7946 1.95185ZM100.167 2.08111L99.8391 3.02583C100.097 3.11517 100.33 3.19161 100.537 3.25424L100.826 2.29687L101.115 1.3395C100.94 1.28679 100.734 1.21939 100.495 1.13639L100.167 2.08111ZM100.826 2.29687L100.537 3.25424L100.824 3.34074L101.113 2.38338L101.402 1.42601L101.115 1.3395L100.826 2.29687ZM101.113 2.38338L100.824 3.34074L101.111 3.42725L101.4 2.46988L101.688 1.51251L101.402 1.42601L101.113 2.38338ZM101.4 2.46988L101.111 3.42725C101.217 3.4592 101.361 3.49895 101.503 3.51497C101.557 3.52104 101.726 3.53927 101.923 3.48772C102.028 3.46003 102.216 3.39319 102.388 3.22258C102.583 3.02821 102.682 2.77382 102.687 2.52306L101.687 2.50217L100.688 2.48128C100.693 2.23956 100.788 1.99274 100.977 1.80448C101.143 1.63996 101.322 1.57776 101.415 1.55325C101.587 1.50804 101.72 1.52675 101.726 1.52744C101.773 1.5327 101.774 1.53824 101.688 1.51251L101.4 2.46988ZM101.687 2.50217L102.687 2.52306L102.688 2.46884L101.688 2.44795L100.689 2.42707L100.688 2.48128L101.687 2.50217ZM101.688 2.44795L102.438 1.78545L102.34 1.67497L101.591 2.33748L100.842 2.99998L100.939 3.11046L101.688 2.44795ZM101.591 2.33748L101.57 3.33727L101.67 3.33931L101.691 2.33952L101.711 1.33973L101.611 1.33769L101.591 2.33748Z" fill="var(--stroke-0, #FD9476)"/>
</svg>
