<svg preserveAspectRatio="none" width="100%" height="100%" overflow="visible" style="display: block;" viewBox="0 0 77 8" fill="none" xmlns="http://www.w3.org/2000/svg">
<g id="Group 1707481741">
<path id="Vector 20" d="M2.17616 3.14577L2.20284 2.14613L2.1093 2.14363L2.01691 2.15853L2.17616 3.14577ZM3.96385 3.07874L3.68223 2.11922L3.96385 3.07874ZM5.40095 2.65805L5.67988 3.61836L5.40095 2.65805ZM6.12502 2.44774L5.84609 1.48743L6.12502 2.44774ZM6.86776 2.36767L6.802 3.36551L6.86776 2.36767ZM8.37729 2.36348L8.16593 1.38607L8.37729 2.36348ZM9.11214 2.20457L8.90077 1.22716L9.11214 2.20457ZM9.84098 1.95798L9.42125 1.05033L9.84098 1.95798ZM10.2024 1.79084L10.6221 2.69849L10.2024 1.79084ZM10.5638 1.6237L10.1441 0.716054L10.5638 1.6237ZM11.3104 1.55075L11.5479 0.57937L11.3104 1.55075ZM13.5742 1.5169L13.2997 0.555308L13.5742 1.5169ZM14.323 1.49984L14.096 2.47374L14.323 1.49984ZM15.0816 1.67667L15.3086 0.702774L15.0816 1.67667ZM15.8285 1.61834L16.1993 2.54705L15.8285 1.61834ZM16.5635 1.32486L16.1927 0.396151L16.5635 1.32486ZM17.3089 1.22238L17.1926 2.21559L17.3089 1.22238ZM18.0646 1.31089L18.1809 0.31768L18.0646 1.31089ZM18.8225 1.46085L19.0905 0.497428L18.8225 1.46085ZM19.2025 1.56656L18.9345 2.52998L19.2025 1.56656ZM19.5825 1.67226L19.3145 2.63568L19.5825 1.67226ZM20.3318 1.62607L20.7122 2.55087L20.3318 1.62607ZM20.701 1.47417L20.3206 0.549365L20.701 1.47417ZM21.8154 1.22651L21.6677 2.21555L21.8154 1.22651ZM23.3183 1.34597L23.1889 0.354376L23.3183 1.34597ZM24.0687 1.24805L24.1981 2.23964L24.0687 1.24805ZM27.0668 1.34261L27.0272 0.343395L27.0668 1.34261ZM27.8168 1.27782L27.685 0.286541L27.8168 1.27782ZM28.5685 1.17791L28.7002 2.16919L28.5685 1.17791ZM30.0682 1.01051L29.9643 0.0159238L30.0682 1.01051ZM30.8171 1.0781L30.5428 2.03975L30.8171 1.0781ZM31.5656 1.29158L31.8399 0.329929L31.5656 1.29158ZM34.5645 1.48599L34.5282 2.48533L34.5645 1.48599ZM35.312 1.57713L35.109 2.5563L35.312 1.57713ZM36.06 1.73225L36.2631 0.753075L36.06 1.73225ZM36.81 1.75417L36.6636 0.764942L36.81 1.75417ZM37.186 1.69854L37.3323 2.68777L37.186 1.69854ZM37.5619 1.64291L37.7083 2.63214L37.5619 1.64291ZM38.3114 1.62865L38.4215 0.634724L38.3114 1.62865ZM39.0584 1.71138L38.9483 2.70531L39.0584 1.71138ZM39.8108 1.61885L40.144 2.5617L39.8108 1.61885ZM40.5685 1.35105L40.2352 0.408208L40.5685 1.35105ZM41.3188 1.33255L41.6155 0.377569L41.3188 1.33255ZM42.0617 1.56334L41.765 2.51832L42.0617 1.56334ZM42.8097 1.63251L42.6879 0.639962L42.8097 1.63251ZM43.5628 1.54006L43.6847 2.5326L43.5628 1.54006ZM44.315 1.47609L44.2678 0.477207L44.315 1.47609ZM44.6906 1.45836L44.7377 2.45725L44.6906 1.45836ZM45.0661 1.44062L45.019 0.441737L45.0661 1.44062ZM47.3249 1.17861L47.0905 2.15077L47.3249 1.17861ZM47.698 1.26855L47.9323 0.296393L47.698 1.26855ZM48.8228 1.32753L48.5187 0.37489L48.8228 1.32753ZM49.5802 1.08575L49.8843 2.03838L49.5802 1.08575ZM50.328 1.16681L49.848 2.04408L50.328 1.16681ZM50.6971 1.36877L50.2171 2.24604L50.6971 1.36877ZM51.0662 1.57073L50.5862 2.44799L51.0662 1.57073ZM51.815 1.63259L52.1611 2.57078L51.815 1.63259ZM52.1947 1.4925L51.8486 0.554312L52.1947 1.4925ZM52.5744 1.3524L52.2283 0.414217L52.5744 1.3524ZM53.3241 1.36829L52.9355 2.28972L53.3241 1.36829ZM54.0639 1.68026L54.4524 0.758835L54.0639 1.68026ZM54.8082 1.85363L54.7619 2.85255L54.8082 1.85363ZM56.302 2.03146L56.6233 1.08451L56.302 2.03146ZM56.6723 2.15715L56.3509 3.1041L56.6723 2.15715ZM57.0426 2.28284L56.7213 3.22979L57.0426 2.28284ZM57.7973 2.18773L58.2955 3.05479L57.7973 2.18773ZM58.5658 1.74613L58.0676 0.879078L58.5658 1.74613ZM59.6824 1.96591L59.1668 2.82279L59.6824 1.96591ZM60.0485 2.1862L60.564 1.32933L60.0485 2.1862ZM60.798 2.22263L61.2305 3.12427L60.798 2.22263ZM61.1813 2.03876L60.7488 1.13713L61.1813 2.03876ZM62.3178 1.79599L61.9977 2.74338L62.3178 1.79599ZM63.0574 2.04591L63.3775 1.09853L63.0574 2.04591ZM65.3091 2.07337L64.8638 2.96879L65.3091 2.07337ZM66.7862 2.61227L66.7631 1.61254L66.7862 2.61227ZM68.2953 2.45187L68.6272 3.39517L68.2953 2.45187ZM68.6768 2.31761L68.3449 1.3743L68.6768 2.31761ZM70.1762 2.3652L69.7817 3.28409L70.1762 2.3652ZM71.2859 2.72412L71.3998 1.73063L71.2859 2.72412ZM71.6592 2.76694L71.7732 1.77345L71.6592 2.76694ZM72.0326 2.80975L71.9187 3.80324L72.0326 2.80975ZM72.5739 2.76874L73.0206 3.66339L72.5739 2.76874ZM72.7417 2.68491L73.1885 3.57956L73.2637 3.54202L73.3315 3.49245L72.7417 2.68491ZM72.9775 2.51267L73.0235 1.51373L72.6719 1.49757L72.3877 1.70513L72.9775 2.51267ZM2.07744 3.1617L2.23669 4.14893L2.33541 4.13301L2.17616 3.14577L2.01691 2.15853L1.91819 2.17446L2.07744 3.1617ZM2.17616 3.14577L2.14948 4.14542L2.86415 4.16449L2.89083 3.16485L2.91751 2.1652L2.20284 2.14613L2.17616 3.14577ZM2.89083 3.16485L2.86415 4.16449C3.36787 4.17793 3.85268 4.15355 4.24548 4.03827L3.96385 3.07874L3.68223 2.11922C3.59722 2.14417 3.36668 2.17719 2.91751 2.1652L2.89083 3.16485ZM3.96385 3.07874L4.24548 4.03827L4.60383 3.93309L4.32221 2.97356L4.04058 2.01404L3.68223 2.11922L3.96385 3.07874ZM4.32221 2.97356L4.60383 3.93309L4.96219 3.82791L4.68056 2.86838L4.39894 1.90886L4.04058 2.01404L4.32221 2.97356ZM4.68056 2.86838L4.96219 3.82791C5.20019 3.75806 5.43942 3.68821 5.67988 3.61836L5.40095 2.65805L5.12202 1.69774C4.87978 1.7681 4.63875 1.83847 4.39894 1.90886L4.68056 2.86838ZM5.40095 2.65805L5.67988 3.61836L6.04192 3.51321L5.76299 2.55289L5.48406 1.59258L5.12202 1.69774L5.40095 2.65805ZM5.76299 2.55289L6.04192 3.51321L6.40395 3.40805L6.12502 2.44774L5.84609 1.48743L5.48406 1.59258L5.76299 2.55289ZM6.12502 2.44774L6.40395 3.40805C6.53211 3.37083 6.66298 3.35635 6.802 3.36551L6.86776 2.36767L6.93351 1.36984C6.56493 1.34555 6.20064 1.38444 5.84609 1.48743L6.12502 2.44774ZM6.86776 2.36767L6.802 3.36551L7.18271 3.39059L7.24846 2.39276L7.31422 1.39492L6.93351 1.36984L6.86776 2.36767ZM7.24846 2.39276L7.18271 3.39059L7.56341 3.41568L7.62917 2.41785L7.69492 1.42001L7.31422 1.39492L7.24846 2.39276ZM7.62917 2.41785L7.56341 3.41568C7.90868 3.43843 8.25137 3.41382 8.58865 3.34089L8.37729 2.36348L8.16593 1.38607C8.01332 1.41907 7.85726 1.43071 7.69492 1.42001L7.62917 2.41785ZM8.37729 2.36348L8.58865 3.34089L8.95608 3.26143L8.74471 2.28403L8.53335 1.30662L8.16593 1.38607L8.37729 2.36348ZM8.74471 2.28403L8.95608 3.26143L9.3235 3.18198L9.11214 2.20457L8.90077 1.22716L8.53335 1.30662L8.74471 2.28403ZM9.11214 2.20457L9.3235 3.18198C9.64437 3.11259 9.95701 3.00607 10.2607 2.86563L9.84098 1.95798L9.42125 1.05033C9.24305 1.13274 9.0698 1.19061 8.90077 1.22716L9.11214 2.20457ZM9.84098 1.95798L10.2607 2.86563L10.6221 2.69849L10.2024 1.79084L9.78268 0.883193L9.42125 1.05033L9.84098 1.95798ZM10.2024 1.79084L10.6221 2.69849L10.9836 2.53135L10.5638 1.6237L10.1441 0.716054L9.78268 0.883193L10.2024 1.79084ZM10.5638 1.6237L10.9836 2.53135C11.0199 2.51453 11.0371 2.51338 11.0729 2.52212L11.3104 1.55075L11.5479 0.57937C11.0702 0.46253 10.5896 0.510019 10.1441 0.716054L10.5638 1.6237ZM11.3104 1.55075L11.0729 2.52212L11.458 2.61631L11.6955 1.64493L11.9331 0.673554L11.5479 0.57937L11.3104 1.55075ZM11.6955 1.64493L11.458 2.61631L11.8431 2.71049L12.0807 1.73911L12.3182 0.767737L11.9331 0.673554L11.6955 1.64493ZM12.0807 1.73911L11.8431 2.71049C12.2629 2.81314 12.691 2.80895 13.1098 2.68942L12.8353 1.72783L12.5608 0.766241C12.4869 0.787336 12.412 0.790661 12.3182 0.767737L12.0807 1.73911ZM12.8353 1.72783L13.1098 2.68942L13.4792 2.58395L13.2047 1.62236L12.9302 0.660774L12.5608 0.766241L12.8353 1.72783ZM13.2047 1.62236L13.4792 2.58395L13.8487 2.47849L13.5742 1.5169L13.2997 0.555308L12.9302 0.660774L13.2047 1.62236ZM13.5742 1.5169L13.8487 2.47849C13.9293 2.45548 14.0062 2.45282 14.096 2.47374L14.323 1.49984L14.55 0.525948C14.134 0.428986 13.7118 0.437688 13.2997 0.555308L13.5742 1.5169ZM14.323 1.49984L14.096 2.47374L14.4753 2.56215L14.7023 1.58826L14.9293 0.614361L14.55 0.525948L14.323 1.49984ZM14.7023 1.58826L14.4753 2.56215L14.8546 2.65057L15.0816 1.67667L15.3086 0.702774L14.9293 0.614361L14.7023 1.58826ZM15.0816 1.67667L14.8546 2.65057C15.3101 2.75673 15.7676 2.71942 16.1993 2.54705L15.8285 1.61834L15.4577 0.689631C15.3994 0.712914 15.3589 0.714497 15.3086 0.702774L15.0816 1.67667ZM15.8285 1.61834L16.1993 2.54705L16.5668 2.40031L16.196 1.4716L15.8252 0.542891L15.4577 0.689631L15.8285 1.61834ZM16.196 1.4716L16.5668 2.40031L16.9343 2.25357L16.5635 1.32486L16.1927 0.396151L15.8252 0.542891L16.196 1.4716ZM16.5635 1.32486L16.9343 2.25357C17.0313 2.21485 17.1127 2.20623 17.1926 2.21559L17.3089 1.22238L17.4252 0.229168C17.0014 0.179521 16.5858 0.239217 16.1927 0.396151L16.5635 1.32486ZM17.3089 1.22238L17.1926 2.21559L17.5704 2.25984L17.6868 1.26663L17.8031 0.273424L17.4252 0.229168L17.3089 1.22238ZM17.6868 1.26663L17.5704 2.25984L17.9483 2.3041L18.0646 1.31089L18.1809 0.31768L17.8031 0.273424L17.6868 1.26663ZM18.0646 1.31089L17.9483 2.3041C18.1471 2.32739 18.349 2.36712 18.5545 2.42427L18.8225 1.46085L19.0905 0.497428C18.7892 0.413639 18.4859 0.353402 18.1809 0.31768L18.0646 1.31089ZM18.8225 1.46085L18.5545 2.42427L18.9345 2.52998L19.2025 1.56656L19.4705 0.603133L19.0905 0.497428L18.8225 1.46085ZM19.2025 1.56656L18.9345 2.52998L19.3145 2.63568L19.5825 1.67226L19.8505 0.708838L19.4705 0.603133L19.2025 1.56656ZM19.5825 1.67226L19.3145 2.63568C19.7851 2.76658 20.2629 2.73569 20.7122 2.55087L20.3318 1.62607L19.9513 0.701263C19.9083 0.718981 19.8866 0.718879 19.8505 0.708838L19.5825 1.67226ZM20.3318 1.62607L20.7122 2.55087L21.0814 2.39898L20.701 1.47417L20.3206 0.549365L19.9513 0.701263L20.3318 1.62607ZM20.701 1.47417L21.0814 2.39898L21.4507 2.24708L21.0703 1.32227L20.6898 0.397468L20.3206 0.549365L20.701 1.47417ZM21.0703 1.32227L21.4507 2.24708C21.5386 2.2109 21.6049 2.20617 21.6677 2.21555L21.8154 1.22651L21.9631 0.237484C21.5247 0.172009 21.0942 0.231118 20.6898 0.397468L21.0703 1.32227ZM21.8154 1.22651L21.6677 2.21555L22.0436 2.27168L22.1913 1.28265L22.339 0.293623L21.9631 0.237484L21.8154 1.22651ZM22.1913 1.28265L22.0436 2.27168L22.4195 2.32782L22.5672 1.33879L22.7149 0.349762L22.339 0.293623L22.1913 1.28265ZM22.5672 1.33879L22.4195 2.32782C22.7615 2.3789 23.1051 2.38227 23.4477 2.33756L23.3183 1.34597L23.1889 0.354376C23.0312 0.374954 22.8741 0.373539 22.7149 0.349762L22.5672 1.33879ZM23.3183 1.34597L23.4477 2.33756L23.8229 2.2886L23.6935 1.29701L23.5641 0.305415L23.1889 0.354376L23.3183 1.34597ZM23.6935 1.29701L23.8229 2.2886L24.1981 2.23964L24.0687 1.24805L23.9393 0.256453L23.5641 0.305415L23.6935 1.29701ZM24.0687 1.24805L24.1981 2.23964C24.3641 2.21798 24.529 2.21756 24.6947 2.23833L24.8191 1.24609L24.9434 0.253849C24.609 0.211945 24.2736 0.212834 23.9393 0.256453L24.0687 1.24805ZM24.8191 1.24609L24.6947 2.23833L25.0699 2.28534L25.1942 1.2931L25.3185 0.300854L24.9434 0.253849L24.8191 1.24609ZM25.1942 1.2931L25.0699 2.28534L25.445 2.33234L25.5693 1.3401L25.6937 0.34786L25.3185 0.300854L25.1942 1.2931ZM25.5693 1.3401L25.445 2.33234C25.7489 2.37042 26.0535 2.38357 26.3582 2.37149L26.3186 1.37227L26.279 0.373059C26.0849 0.380755 25.8899 0.372451 25.6937 0.34786L25.5693 1.3401ZM26.3186 1.37227L26.3582 2.37149L26.7323 2.35666L26.6927 1.35744L26.6531 0.358227L26.279 0.373059L26.3186 1.37227ZM26.6927 1.35744L26.7323 2.35666L27.1064 2.34183L27.0668 1.34261L27.0272 0.343395L26.6531 0.358227L26.6927 1.35744ZM27.0668 1.34261L27.1064 2.34183C27.3871 2.3307 27.6678 2.30642 27.9485 2.26911L27.8168 1.27782L27.685 0.286541C27.4647 0.315832 27.2454 0.334744 27.0272 0.343395L27.0668 1.34261ZM27.8168 1.27782L27.9485 2.26911L28.3244 2.21915L28.1926 1.22787L28.0609 0.236585L27.685 0.286541L27.8168 1.27782ZM28.1926 1.22787L28.3244 2.21915L28.7002 2.16919L28.5685 1.17791L28.4367 0.18663L28.0609 0.236585L28.1926 1.22787ZM28.5685 1.17791L28.7002 2.16919C28.9416 2.13711 29.1825 2.10851 29.4229 2.08339L29.319 1.08881L29.215 0.0942229C28.9559 0.1213 28.6965 0.152104 28.4367 0.18663L28.5685 1.17791ZM29.319 1.08881L29.4229 2.08339L29.7975 2.04424L29.6936 1.04966L29.5897 0.0550733L29.215 0.0942229L29.319 1.08881ZM29.6936 1.04966L29.7975 2.04424L30.1722 2.00509L30.0682 1.01051L29.9643 0.0159238L29.5897 0.0550733L29.6936 1.04966ZM30.0682 1.01051L30.1722 2.00509C30.2907 1.99271 30.412 2.00243 30.5428 2.03975L30.8171 1.0781L31.0914 0.116448C30.7232 0.0114449 30.3453 -0.0238911 29.9643 0.0159238L30.0682 1.01051ZM30.8171 1.0781L30.5428 2.03975L30.9171 2.14649L31.1913 1.18484L31.4656 0.223189L31.0914 0.116448L30.8171 1.0781ZM31.1913 1.18484L30.9171 2.14649L31.2913 2.25323L31.5656 1.29158L31.8399 0.329929L31.4656 0.223189L31.1913 1.18484ZM31.5656 1.29158L31.2913 2.25323C31.6173 2.3462 31.949 2.39909 32.2848 2.40956L32.3159 1.41005L32.3471 0.410531C32.1814 0.405366 32.0129 0.379284 31.8399 0.329929L31.5656 1.29158ZM32.3159 1.41005L32.2848 2.40956L32.6609 2.42129L32.692 1.42177L32.7232 0.422256L32.3471 0.410531L32.3159 1.41005ZM32.692 1.42177L32.6609 2.42129L33.037 2.43301L33.0681 1.4335L33.0993 0.433982L32.7232 0.422256L32.692 1.42177ZM33.0681 1.4335L33.037 2.43301C33.286 2.44077 33.5341 2.44915 33.7813 2.45815L33.8177 1.45881L33.854 0.459472C33.6033 0.450349 33.3518 0.441853 33.0993 0.433982L33.0681 1.4335ZM33.8177 1.45881L33.7813 2.45815L34.1547 2.47174L34.1911 1.4724L34.2275 0.47306L33.854 0.459472L33.8177 1.45881ZM34.1911 1.4724L34.1547 2.47174L34.5282 2.48533L34.5645 1.48599L34.6009 0.486648L34.2275 0.47306L34.1911 1.4724ZM34.5645 1.48599L34.5282 2.48533C34.7199 2.4923 34.9133 2.51573 35.109 2.5563L35.312 1.57713L35.515 0.597962C35.212 0.535126 34.9071 0.49779 34.6009 0.486648L34.5645 1.48599ZM35.312 1.57713L35.109 2.5563L35.483 2.63386L35.686 1.65469L35.8891 0.675518L35.515 0.597962L35.312 1.57713ZM35.686 1.65469L35.483 2.63386L35.857 2.71142L36.06 1.73225L36.2631 0.753075L35.8891 0.675518L35.686 1.65469ZM36.06 1.73225L35.857 2.71142C36.2207 2.78684 36.589 2.79776 36.9564 2.7434L36.81 1.75417L36.6636 0.764942C36.5298 0.784752 36.398 0.781061 36.2631 0.753075L36.06 1.73225ZM36.81 1.75417L36.9564 2.7434L37.3323 2.68777L37.186 1.69854L37.0396 0.709311L36.6636 0.764942L36.81 1.75417ZM37.186 1.69854L37.3323 2.68777L37.7083 2.63214L37.5619 1.64291L37.4155 0.65368L37.0396 0.709311L37.186 1.69854ZM37.5619 1.64291L37.7083 2.63214C37.875 2.60747 38.0386 2.60455 38.2013 2.62257L38.3114 1.62865L38.4215 0.634724C38.0862 0.597587 37.7501 0.604169 37.4155 0.65368L37.5619 1.64291ZM38.3114 1.62865L38.2013 2.62257L38.5748 2.66394L38.6849 1.67002L38.795 0.676093L38.4215 0.634724L38.3114 1.62865ZM38.6849 1.67002L38.5748 2.66394L38.9483 2.70531L39.0584 1.71138L39.1685 0.717462L38.795 0.676093L38.6849 1.67002ZM39.0584 1.71138L38.9483 2.70531C39.3573 2.7506 39.7595 2.69761 40.144 2.5617L39.8108 1.61885L39.4775 0.676009C39.357 0.718624 39.2575 0.727323 39.1685 0.717462L39.0584 1.71138ZM39.8108 1.61885L40.144 2.5617L40.5229 2.42779L40.1896 1.48495L39.8564 0.542108L39.4775 0.676009L39.8108 1.61885ZM40.1896 1.48495L40.5229 2.42779L40.9017 2.29389L40.5685 1.35105L40.2352 0.408208L39.8564 0.542108L40.1896 1.48495ZM40.5685 1.35105L40.9017 2.29389C40.9583 2.27389 40.9874 2.27676 41.0221 2.28753L41.3188 1.33255L41.6155 0.377569C41.1549 0.234476 40.6838 0.249675 40.2352 0.408208L40.5685 1.35105ZM41.3188 1.33255L41.0221 2.28753L41.3936 2.40292L41.6902 1.44794L41.9869 0.492966L41.6155 0.377569L41.3188 1.33255ZM41.6902 1.44794L41.3936 2.40292L41.765 2.51832L42.0617 1.56334L42.3584 0.608363L41.9869 0.492966L41.6902 1.44794ZM42.0617 1.56334L41.765 2.51832C42.1444 2.63618 42.5363 2.67358 42.9316 2.62506L42.8097 1.63251L42.6879 0.639962C42.581 0.653079 42.4743 0.644362 42.3584 0.608363L42.0617 1.56334ZM42.8097 1.63251L42.9316 2.62506L43.3081 2.57883L43.1863 1.58628L43.0644 0.593735L42.6879 0.639962L42.8097 1.63251ZM43.1863 1.58628L43.3081 2.57883L43.6847 2.5326L43.5628 1.54006L43.441 0.547507L43.0644 0.593735L43.1863 1.58628ZM43.5628 1.54006L43.6847 2.5326C43.9112 2.5048 44.137 2.48561 44.3622 2.47498L44.315 1.47609L44.2678 0.477207C43.9922 0.490219 43.7166 0.513671 43.441 0.547507L43.5628 1.54006ZM44.315 1.47609L44.3622 2.47498L44.7377 2.45725L44.6906 1.45836L44.6434 0.459472L44.2678 0.477207L44.315 1.47609ZM44.6906 1.45836L44.7377 2.45725L45.1133 2.43951L45.0661 1.44062L45.019 0.441737L44.6434 0.459472L44.6906 1.45836ZM45.0661 1.44062L45.1133 2.43951C45.4221 2.42493 45.7297 2.38336 46.0353 2.31571L45.8192 1.33934L45.6031 0.362963C45.4055 0.406716 45.2109 0.432673 45.019 0.441737L45.0661 1.44062ZM45.8192 1.33934L46.0353 2.31571L46.4128 2.23216L46.1968 1.25578L45.9807 0.279411L45.6031 0.362963L45.8192 1.33934ZM46.1968 1.25578L46.4128 2.23216L46.7904 2.14861L46.5743 1.17223L46.3582 0.195859L45.9807 0.279411L46.1968 1.25578ZM46.5743 1.17223L46.7904 2.14861C46.8947 2.12552 46.9908 2.12673 47.0905 2.15077L47.3249 1.17861L47.5592 0.206459C47.1615 0.110582 46.7572 0.107545 46.3582 0.195859L46.5743 1.17223ZM47.3249 1.17861L47.0905 2.15077L47.4636 2.2407L47.698 1.26855L47.9323 0.296393L47.5592 0.206459L47.3249 1.17861ZM47.698 1.26855L47.4636 2.2407L47.8367 2.33064L48.0711 1.35848L48.3054 0.386327L47.9323 0.296393L47.698 1.26855ZM48.0711 1.35848L47.8367 2.33064C48.2699 2.43505 48.7067 2.41431 49.1269 2.28016L48.8228 1.32753L48.5187 0.37489C48.434 0.401924 48.3697 0.401819 48.3054 0.386327L48.0711 1.35848ZM48.8228 1.32753L49.1269 2.28016L49.5056 2.15927L49.2015 1.20664L48.8974 0.254001L48.5187 0.37489L48.8228 1.32753ZM49.2015 1.20664L49.5056 2.15927L49.8843 2.03838L49.5802 1.08575L49.2761 0.133111L48.8974 0.254001L49.2015 1.20664ZM49.5802 1.08575L49.8843 2.03838C49.8863 2.03776 49.8829 2.039 49.8751 2.03983C49.8672 2.04068 49.8579 2.04074 49.8487 2.03974C49.8396 2.03875 49.8339 2.0371 49.8326 2.03666C49.8315 2.03631 49.8365 2.03783 49.848 2.04408L50.328 1.16681L50.808 0.289551C50.3376 0.0321517 49.8058 -0.0359882 49.2761 0.133111L49.5802 1.08575ZM50.328 1.16681L49.848 2.04408L50.2171 2.24604L50.6971 1.36877L51.1771 0.491509L50.808 0.289551L50.328 1.16681ZM50.6971 1.36877L50.2171 2.24604L50.5862 2.44799L51.0662 1.57073L51.5462 0.693467L51.1771 0.491509L50.6971 1.36877ZM51.0662 1.57073L50.5862 2.44799C51.0744 2.71515 51.6247 2.76867 52.1611 2.57078L51.815 1.63259L51.4689 0.694406C51.4672 0.695038 51.472 0.693104 51.4825 0.691577C51.4933 0.690015 51.5064 0.689423 51.5203 0.69057C51.5341 0.69171 51.5444 0.694217 51.5503 0.696049C51.5559 0.697792 51.5546 0.698055 51.5462 0.693467L51.0662 1.57073ZM51.815 1.63259L52.1611 2.57078L52.5409 2.43068L52.1947 1.4925L51.8486 0.554312L51.4689 0.694406L51.815 1.63259ZM52.1947 1.4925L52.5409 2.43068L52.9206 2.29059L52.5744 1.3524L52.2283 0.414217L51.8486 0.554312L52.1947 1.4925ZM52.5744 1.3524L52.9206 2.29059C52.9307 2.28686 52.9357 2.28595 52.9362 2.28587C52.9365 2.28581 52.9343 2.28618 52.9305 2.2861C52.9267 2.28602 52.9241 2.28554 52.9235 2.28542C52.9231 2.28534 52.927 2.28612 52.9355 2.28972L53.3241 1.36829L53.7126 0.446868C53.23 0.243348 52.7174 0.233765 52.2283 0.414217L52.5744 1.3524ZM53.3241 1.36829L52.9355 2.28972L53.3054 2.4457L53.694 1.52428L54.0825 0.602852L53.7126 0.446868L53.3241 1.36829ZM53.694 1.52428L53.3054 2.4457L53.6753 2.60168L54.0639 1.68026L54.4524 0.758835L54.0825 0.602852L53.694 1.52428ZM54.0639 1.68026L53.6753 2.60168C54.0228 2.74821 54.3864 2.83512 54.7619 2.85255L54.8082 1.85363L54.8546 0.854702C54.7308 0.848955 54.5982 0.820292 54.4524 0.758835L54.0639 1.68026ZM54.8082 1.85363L54.7619 2.85255L55.1363 2.86993L55.1827 1.87101L55.2291 0.872084L54.8546 0.854702L54.8082 1.85363ZM55.1827 1.87101L55.1363 2.86993L55.5108 2.88732L55.5572 1.88839L55.6035 0.889467L55.2291 0.872084L55.1827 1.87101ZM55.5572 1.88839L55.5108 2.88732C55.6628 2.89437 55.8186 2.92344 55.9806 2.97841L56.302 2.03146L56.6233 1.08451C56.2915 0.971899 55.9508 0.905588 55.6035 0.889467L55.5572 1.88839ZM56.302 2.03146L55.9806 2.97841L56.3509 3.1041L56.6723 2.15715L56.9937 1.2102L56.6233 1.08451L56.302 2.03146ZM56.6723 2.15715L56.3509 3.1041L56.7213 3.22979L57.0426 2.28284L57.364 1.33589L56.9937 1.2102L56.6723 2.15715ZM57.0426 2.28284L56.7213 3.22979C57.278 3.41874 57.8271 3.32389 58.2955 3.05479L57.7973 2.18773L57.299 1.32068C57.2671 1.33905 57.2658 1.33298 57.2914 1.32976C57.3036 1.32822 57.3179 1.3279 57.3326 1.32945C57.3473 1.33098 57.3581 1.33389 57.364 1.33589L57.0426 2.28284ZM57.7973 2.18773L58.2955 3.05479L58.6797 2.83399L58.1815 1.96693L57.6833 1.09988L57.299 1.32068L57.7973 2.18773ZM58.1815 1.96693L58.6797 2.83399L59.064 2.61319L58.5658 1.74613L58.0676 0.879078L57.6833 1.09988L58.1815 1.96693ZM58.5658 1.74613L59.064 2.61319C59.0683 2.61074 59.025 2.63555 58.9462 2.63561C58.8652 2.63566 58.8124 2.60954 58.8007 2.6025L59.3162 1.74562L59.8317 0.888751C59.5759 0.734848 59.276 0.635382 58.9448 0.635607C58.6159 0.63583 58.3195 0.734331 58.0676 0.879078L58.5658 1.74613ZM59.3162 1.74562L58.8007 2.6025L59.1668 2.82279L59.6824 1.96591L60.1979 1.10904L59.8317 0.888751L59.3162 1.74562ZM59.6824 1.96591L59.1668 2.82279L59.533 3.04308L60.0485 2.1862L60.564 1.32933L60.1979 1.10904L59.6824 1.96591ZM60.0485 2.1862L59.533 3.04308C60.0636 3.36234 60.6696 3.39328 61.2305 3.12427L60.798 2.22263L60.3655 1.32099C60.3648 1.3213 60.3746 1.31658 60.3939 1.31236C60.4138 1.30801 60.4391 1.30525 60.4675 1.30664C60.5293 1.30964 60.5644 1.32956 60.564 1.32933L60.0485 2.1862ZM60.798 2.22263L61.2305 3.12427L61.6138 2.9404L61.1813 2.03876L60.7488 1.13713L60.3655 1.32099L60.798 2.22263ZM61.1813 2.03876L61.6138 2.9404L61.9971 2.75654L61.5646 1.8549L61.1321 0.95326L60.7488 1.13713L61.1813 2.03876ZM61.5646 1.8549L61.9971 2.75654C62.0128 2.74902 62.0222 2.74603 62.0257 2.74505C62.029 2.74413 62.0277 2.74479 62.0225 2.7452C62.0173 2.74561 62.0111 2.7455 62.0051 2.74473C61.9992 2.74397 61.9964 2.74296 61.9977 2.74338L62.3178 1.79599L62.6379 0.848609C62.1209 0.673951 61.6 0.728853 61.1321 0.95326L61.5646 1.8549ZM62.3178 1.79599L61.9977 2.74338L62.3675 2.86834L62.6876 1.92095L63.0077 0.973568L62.6379 0.848609L62.3178 1.79599ZM62.6876 1.92095L62.3675 2.86834L62.7373 2.9933L63.0574 2.04591L63.3775 1.09853L63.0077 0.973568L62.6876 1.92095ZM63.0574 2.04591L62.7373 2.9933C63.1431 3.13038 63.5653 3.1623 63.9877 3.0842L63.8059 2.10086L63.6241 1.11753C63.5417 1.13276 63.4649 1.12805 63.3775 1.09853L63.0574 2.04591ZM63.8059 2.10086L63.9877 3.0842L64.3664 3.01419L64.1846 2.03085L64.0028 1.04752L63.6241 1.11753L63.8059 2.10086ZM64.1846 2.03085L64.3664 3.01419L64.7451 2.94418L64.5633 1.96084L64.3815 0.977507L64.0028 1.04752L64.1846 2.03085ZM64.5633 1.96084L64.7451 2.94418C64.7703 2.93952 64.7997 2.9369 64.8638 2.96879L65.3091 2.07337L65.7543 1.17795C65.3289 0.966459 64.8612 0.888823 64.3815 0.977507L64.5633 1.96084ZM65.3091 2.07337L64.8638 2.96879L65.231 3.15133L65.6762 2.25591L66.1214 1.36049L65.7543 1.17795L65.3091 2.07337ZM65.6762 2.25591L65.231 3.15133L65.5981 3.33387L66.0433 2.43845L66.4885 1.54303L66.1214 1.36049L65.6762 2.25591ZM66.0433 2.43845L65.5981 3.33387C65.9747 3.52114 66.3822 3.62191 66.8094 3.612L66.7862 2.61227L66.7631 1.61254C66.6892 1.61426 66.6014 1.59914 66.4885 1.54303L66.0433 2.43845ZM66.7862 2.61227L66.8094 3.612L67.1853 3.60329L67.1621 2.60356L67.1389 1.60383L66.7631 1.61254L66.7862 2.61227ZM67.1621 2.60356L67.1853 3.60329L67.5611 3.59457L67.5379 2.59484L67.5147 1.59511L67.1389 1.60383L67.1621 2.60356ZM67.5379 2.59484L67.5611 3.59457C67.9246 3.58614 68.2811 3.51697 68.6272 3.39517L68.2953 2.45187L67.9634 1.50856C67.8008 1.56578 67.6523 1.59192 67.5147 1.59511L67.5379 2.59484ZM68.2953 2.45187L68.6272 3.39517L69.0088 3.26091L68.6768 2.31761L68.3449 1.3743L67.9634 1.50856L68.2953 2.45187ZM68.6768 2.31761L69.0088 3.26091L69.3903 3.12665L69.0584 2.18335L68.7264 1.24004L68.3449 1.3743L68.6768 2.31761ZM69.0584 2.18335L69.3903 3.12665C69.401 3.12289 69.4067 3.12186 69.408 3.12165C69.4091 3.12147 69.4078 3.12176 69.4049 3.12166C69.4019 3.12157 69.4001 3.12118 69.4002 3.1212C69.4004 3.12126 69.4047 3.12225 69.4136 3.12603L69.8081 2.20714L70.2026 1.28825C69.7242 1.08286 69.2149 1.06815 68.7264 1.24004L69.0584 2.18335ZM69.8081 2.20714L69.4136 3.12603L69.7817 3.28409L70.1762 2.3652L70.5707 1.44631L70.2026 1.28825L69.8081 2.20714ZM70.1762 2.3652L69.7817 3.28409L70.1498 3.44214L70.5443 2.52325L70.9389 1.60436L70.5707 1.44631L70.1762 2.3652ZM70.5443 2.52325L70.1498 3.44214C70.4788 3.58337 70.8202 3.67728 71.1719 3.71761L71.2859 2.72412L71.3998 1.73063C71.2537 1.71388 71.1008 1.67388 70.9389 1.60436L70.5443 2.52325ZM71.2859 2.72412L71.1719 3.71761L71.5453 3.76043L71.6592 2.76694L71.7732 1.77345L71.3998 1.73063L71.2859 2.72412ZM71.6592 2.76694L71.5453 3.76043L71.9187 3.80324L72.0326 2.80975L72.1465 1.81626L71.7732 1.77345L71.6592 2.76694ZM72.0326 2.80975L71.9187 3.80324C72.201 3.83561 72.633 3.85696 73.0206 3.66339L72.5739 2.76874L72.1271 1.87409C72.1797 1.84781 72.222 1.83551 72.2456 1.82989C72.2694 1.82423 72.2819 1.82355 72.2791 1.82376C72.2766 1.82395 72.2646 1.82465 72.2411 1.82384C72.2178 1.82303 72.1866 1.82086 72.1465 1.81626L72.0326 2.80975ZM72.5739 2.76874L73.0206 3.66339L73.1885 3.57956L72.7417 2.68491L72.295 1.79026L72.1271 1.87409L72.5739 2.76874ZM72.7417 2.68491L73.3315 3.49245L73.5674 3.32021L72.9775 2.51267L72.3877 1.70513L72.1519 1.87737L72.7417 2.68491ZM72.9775 2.51267L72.9316 3.51162L73.0315 3.51621L73.0774 2.51726L73.1233 1.51832L73.0235 1.51373L72.9775 2.51267Z" fill="var(--stroke-0, #FD9476)"/>
<path id="Vector 21" d="M0.17714 6.15395L0.324517 5.16487L0.212556 5.14819L0.0996997 5.15696L0.17714 6.15395ZM0.886869 6.25971L0.739492 7.24879L0.886869 6.25971ZM7.92445 5.60344L8.29925 6.53055L7.92445 5.60344ZM9.41288 5.265L9.13436 6.22544L9.41288 5.265ZM10.9214 5.5024L10.6794 4.53214L10.9214 5.5024ZM11.2923 5.40987L11.0502 4.43961L11.2923 5.40987ZM11.6632 5.31734L11.9052 6.28759L11.6632 5.31734ZM13.1678 5.52299L12.9134 6.4901L13.1678 5.52299ZM15.4132 5.12309L15.2769 6.11376L15.4132 5.12309ZM16.9194 5.39053L17.2051 4.43219L16.9194 5.39053ZM17.6705 5.61438L17.3848 6.57272L17.6705 5.61438ZM18.419 5.57913L18.786 6.50935L18.419 5.57913ZM19.1651 5.28478L18.7981 4.35455L19.1651 5.28478ZM19.9155 5.19739L19.759 6.18507L19.9155 5.19739ZM22.1659 5.23776L22.0426 4.24539L22.1659 5.23776ZM22.9144 5.24007L23.0428 4.24835L22.9144 5.24007ZM23.6657 5.33736L23.5373 6.32908L23.6657 5.33736ZM24.4172 5.37192L24.3798 4.37262L24.4172 5.37192ZM25.9182 5.2797L26.0508 6.27086L25.9182 5.2797ZM26.2918 5.2297L26.1591 4.23854L26.2918 5.2297ZM27.4149 5.08977L27.5205 6.08417L27.4149 5.08977ZM28.1667 5.00989L28.2724 6.00429L28.1667 5.00989ZM28.9173 5.07521L28.6467 6.03792L28.9173 5.07521ZM29.6665 5.28573L29.3959 6.24844L29.6665 5.28573ZM32.6679 5.46205L32.6389 6.46163L32.6679 5.46205ZM33.4172 5.54724L33.222 6.528L33.4172 5.54724ZM33.7905 5.62153L33.9857 4.64076L33.7905 5.62153ZM34.1638 5.69582L33.9686 6.67658L34.1638 5.69582ZM34.9132 5.7107L35.0692 6.69845L34.9132 5.7107ZM35.6655 5.59187L35.5095 4.60411L35.6655 5.59187ZM36.4157 5.56958L36.3169 6.56469L36.4157 5.56958ZM36.7897 5.6067L36.8884 4.61159L36.7897 5.6067ZM37.1637 5.64382L37.0649 6.63893L37.1637 5.64382ZM37.914 5.54229L37.5683 4.60394L37.914 5.54229ZM38.6667 5.26498L39.0124 6.20333L38.6667 5.26498ZM39.4172 5.23664L39.1344 6.19582L39.4172 5.23664ZM40.1655 5.45727L40.4483 4.4981L40.1655 5.45727ZM40.9148 5.51582L41.0515 6.50643L40.9148 5.51582ZM41.6652 5.41227L41.8019 6.40288L41.6652 5.41227ZM42.4164 5.33687L42.4791 6.33491L42.4164 5.33687ZM43.1686 5.28963L43.1059 4.2916L43.1686 5.28963ZM43.9201 5.17618L44.1528 6.14874L43.9201 5.17618ZM44.671 4.99654L44.9037 5.96909L44.671 4.99654ZM45.4214 4.99011L45.6385 4.01397L45.4214 4.99011ZM46.1713 5.15692L45.9541 6.13306L46.1713 5.15692ZM47.6744 4.85692L47.3526 3.9101L47.6744 4.85692ZM48.4232 4.92401L48.8865 4.0378L48.4232 4.92401ZM48.796 5.1189L48.3328 6.00511L48.796 5.1189ZM49.1689 5.31379L49.6321 4.42758L49.1689 5.31379ZM49.9186 5.36112L50.2831 6.29229L49.9186 5.36112ZM50.6724 5.06599L50.3078 4.13481L50.6724 5.06599ZM51.4223 5.06682L51.0527 5.99599L51.4223 5.06682ZM53.6654 5.54055L53.6401 6.54022L53.6654 5.54055ZM54.4133 5.66772L54.1125 6.62142L54.4133 5.66772ZM55.1595 5.90304L55.4603 4.94934L55.1595 5.90304ZM55.9118 5.79146L55.3944 4.93572L55.9118 5.79146ZM56.6701 5.33295L56.1527 4.47721L56.6701 5.33295ZM57.4204 5.31565L57.9163 4.44726L57.4204 5.31565ZM58.1628 5.73956L57.6669 6.60795L58.1628 5.73956ZM58.9128 5.75884L58.4594 4.8675L58.9128 5.75884ZM59.6704 5.37351L60.1238 6.26484L59.6704 5.37351ZM60.422 5.29707L60.1244 6.25174L60.422 5.29707ZM61.1676 5.52954L61.4653 4.57487L61.1676 5.52954ZM61.9172 5.56673L62.1225 6.54543L61.9172 5.56673ZM62.6708 5.40866L62.4655 4.42996L62.6708 5.40866ZM63.4191 5.5032L62.9958 6.40918L63.4191 5.5032ZM63.7906 5.67679L64.2139 4.77081L63.7906 5.67679ZM64.1621 5.85037L63.7388 6.75635L64.1621 5.85037ZM64.9091 6.00602L64.9569 7.00488L64.9091 6.00602ZM65.6603 5.97013L65.6125 4.97127L65.6603 5.97013ZM66.4139 5.80848L66.7692 6.74323L66.4139 5.80848ZM67.17 5.52108L66.8147 4.58633L67.17 5.52108ZM67.9201 5.52614L67.5488 6.45466L67.9201 5.52614ZM68.6641 5.82367L69.0354 4.89515L68.6641 5.82367ZM69.4105 6.00578L69.4992 5.00972L69.4105 6.00578ZM70.1592 6.07246L70.0705 7.06852L70.1592 6.07246ZM71.6728 5.46879L71.1848 4.59596L71.6728 5.46879ZM72.4222 5.50964L71.857 6.33462L72.4222 5.50964ZM72.7918 5.76283L73.3569 4.93785L72.7918 5.76283ZM73.1614 6.01602L72.5962 6.841L73.1614 6.01602ZM74.6545 6.33358L74.5973 7.33194L74.6545 6.33358ZM75.0411 6.22614L74.0455 6.13255L75.0411 6.22614ZM75.0532 6.09726L76.0488 6.19085L76.0667 6.00079L76.0133 5.81751L75.0532 6.09726ZM74.9775 5.8373L74.9993 4.83754L73.6359 4.80783L74.0174 6.11704L74.9775 5.8373ZM0.0774398 6.1617L0.15488 7.15869L0.254579 7.15095L0.17714 6.15395L0.0996997 5.15696L-1.06752e-09 5.1647L0.0774398 6.1617ZM0.17714 6.15395L0.0297622 7.14303L0.739492 7.24879L0.886869 6.25971L1.03425 5.27063L0.324517 5.16487L0.17714 6.15395ZM0.886869 6.25971L0.739492 7.24879C1.24145 7.32358 1.73632 7.35679 2.15143 7.27799L1.96492 6.29553L1.7784 5.31308C1.70243 5.32751 1.47859 5.33683 1.03425 5.27063L0.886869 6.25971ZM1.96492 6.29553L2.15143 7.27799L2.51975 7.20806L2.33323 6.22561L2.14672 5.24316L1.7784 5.31308L1.96492 6.29553ZM2.33323 6.22561L2.51975 7.20806L2.88807 7.13814L2.70155 6.15568L2.51503 5.17323L2.14672 5.24316L2.33323 6.22561ZM2.70155 6.15568L2.88807 7.13814C3.13824 7.09064 3.38889 7.04123 3.64002 6.98989L3.43975 6.01015L3.23947 5.03041C2.99743 5.07989 2.75595 5.12749 2.51503 5.17323L2.70155 6.15568ZM3.43975 6.01015L3.64002 6.98989L4.00991 6.91428L3.80963 5.93454L3.60935 4.9548L3.23947 5.03041L3.43975 6.01015ZM3.80963 5.93454L4.00991 6.91428L4.37979 6.83867L4.17951 5.85893L3.97924 4.87919L3.60935 4.9548L3.80963 5.93454ZM4.17951 5.85893L4.37979 6.83867C4.51537 6.81095 4.65233 6.80605 4.79544 6.82523L4.92827 5.83409L5.06109 4.84295C4.69904 4.79443 4.33683 4.80609 3.97924 4.87919L4.17951 5.85893ZM4.92827 5.83409L4.79544 6.82523L5.17431 6.87601L5.30714 5.88487L5.43997 4.89373L5.06109 4.84295L4.92827 5.83409ZM5.30714 5.88487L5.17431 6.87601L5.55318 6.92678L5.68601 5.93564L5.81884 4.9445L5.43997 4.89373L5.30714 5.88487ZM5.68601 5.93564L5.55318 6.92678C5.89996 6.97325 6.24731 6.97003 6.59218 6.91598L6.43734 5.92804L6.2825 4.9401C6.13076 4.96388 5.97722 4.96573 5.81884 4.9445L5.68601 5.93564ZM6.43734 5.92804L6.59218 6.91598L6.96464 6.8576L6.8098 5.86966L6.65496 4.88172L6.2825 4.9401L6.43734 5.92804ZM6.8098 5.86966L6.96464 6.8576L7.3371 6.79923L7.18226 5.81129L7.02742 4.82335L6.65496 4.88172L6.8098 5.86966ZM7.18226 5.81129L7.3371 6.79923C7.66503 6.74783 7.98608 6.65715 8.29925 6.53055L7.92445 5.60344L7.54965 4.67634C7.36985 4.74902 7.19611 4.79691 7.02742 4.82335L7.18226 5.81129ZM7.92445 5.60344L8.29925 6.53055L8.66898 6.38108L8.29418 5.45397L7.91938 4.52687L7.54965 4.67634L7.92445 5.60344ZM8.29418 5.45397L8.66898 6.38108L9.03871 6.23161L8.66391 5.3045L8.28911 4.37739L7.91938 4.52687L8.29418 5.45397ZM8.66391 5.3045L9.03871 6.23161C9.07958 6.21509 9.09921 6.21524 9.13436 6.22544L9.41288 5.265L9.6914 4.30457C9.2209 4.16813 8.74122 4.19462 8.28911 4.37739L8.66391 5.3045ZM9.41288 5.265L9.13436 6.22544L9.5136 6.33541L9.79212 5.37498L10.0706 4.41455L9.6914 4.30457L9.41288 5.265ZM9.79212 5.37498L9.5136 6.33541L9.89284 6.44539L10.1714 5.48495L10.4499 4.52452L10.0706 4.41455L9.79212 5.37498ZM10.1714 5.48495L9.89284 6.44539C10.3094 6.56619 10.7391 6.57855 11.1635 6.47265L10.9214 5.5024L10.6794 4.53214C10.6093 4.54962 10.5389 4.55035 10.4499 4.52452L10.1714 5.48495ZM10.9214 5.5024L11.1635 6.47265L11.5344 6.38012L11.2923 5.40987L11.0502 4.43961L10.6794 4.53214L10.9214 5.5024ZM11.2923 5.40987L11.5344 6.38012L11.9052 6.28759L11.6632 5.31734L11.4211 4.34708L11.0502 4.43961L11.2923 5.40987ZM11.6632 5.31734L11.9052 6.28759C11.9856 6.26754 12.0644 6.26681 12.1576 6.29131L12.4119 5.3242L12.6663 4.35709C12.2555 4.24906 11.8352 4.24376 11.4211 4.34708L11.6632 5.31734ZM12.4119 5.3242L12.1576 6.29131L12.5355 6.39071L12.7898 5.4236L13.0442 4.45649L12.6663 4.35709L12.4119 5.3242ZM12.7898 5.4236L12.5355 6.39071L12.9134 6.4901L13.1678 5.52299L13.4221 4.55588L13.0442 4.45649L12.7898 5.4236ZM13.1678 5.52299L12.9134 6.4901C13.3675 6.60953 13.8275 6.58435 14.2651 6.42254L13.9183 5.4846L13.5715 4.54667C13.5123 4.56857 13.4719 4.56898 13.4221 4.55588L13.1678 5.52299ZM13.9183 5.4846L14.2651 6.42254L14.6378 6.28475L14.291 5.34682L13.9442 4.40888L13.5715 4.54667L13.9183 5.4846ZM14.291 5.34682L14.6378 6.28475L15.0104 6.14697L14.6636 5.20903L14.3168 4.27109L13.9442 4.40888L14.291 5.34682ZM14.6636 5.20903L15.0104 6.14697C15.1117 6.10953 15.1958 6.10261 15.2769 6.11376L15.4132 5.12309L15.5494 4.13241C15.1279 4.07444 14.7124 4.12482 14.3168 4.27109L14.6636 5.20903ZM15.4132 5.12309L15.2769 6.11376L15.6538 6.1656L15.7901 5.17493L15.9263 4.18425L15.5494 4.13241L15.4132 5.12309ZM15.7901 5.17493L15.6538 6.1656L16.0307 6.21744L16.167 5.22677L16.3033 4.2361L15.9263 4.18425L15.7901 5.17493ZM16.167 5.22677L16.0307 6.21744C16.23 6.24485 16.4309 6.2884 16.6338 6.34887L16.9194 5.39053L17.2051 4.43219C16.9073 4.34344 16.6066 4.27781 16.3033 4.2361L16.167 5.22677ZM16.9194 5.39053L16.6338 6.34887L17.0093 6.46079L17.295 5.50246L17.5806 4.54412L17.2051 4.43219L16.9194 5.39053ZM17.295 5.50246L17.0093 6.46079L17.3848 6.57272L17.6705 5.61438L17.9561 4.65604L17.5806 4.54412L17.295 5.50246ZM17.6705 5.61438L17.3848 6.57272C17.8551 6.71288 18.3344 6.68754 18.786 6.50935L18.419 5.57913L18.052 4.6489C18.0063 4.66694 17.9865 4.6651 17.9561 4.65604L17.6705 5.61438ZM18.419 5.57913L18.786 6.50935L19.1591 6.36218L18.7921 5.43195L18.4251 4.50173L18.052 4.6489L18.419 5.57913ZM18.7921 5.43195L19.1591 6.36218L19.5321 6.215L19.1651 5.28478L18.7981 4.35455L18.4251 4.50173L18.7921 5.43195ZM19.1651 5.28478L19.5321 6.215C19.6232 6.17907 19.6929 6.17459 19.759 6.18507L19.9155 5.19739L20.072 4.20971C19.635 4.14047 19.2045 4.19426 18.7981 4.35455L19.1651 5.28478ZM19.9155 5.19739L19.759 6.18507L20.1363 6.24485L20.2928 5.25717L20.4493 4.26949L20.072 4.20971L19.9155 5.19739ZM20.2928 5.25717L20.1363 6.24485L20.5137 6.30463L20.6701 5.31695L20.8266 4.32927L20.4493 4.26949L20.2928 5.25717ZM20.6701 5.31695L20.5137 6.30463C20.8562 6.35891 21.2005 6.36542 21.5436 6.32278L21.4203 5.33041L21.297 4.33804C21.143 4.35717 20.9872 4.35471 20.8266 4.32927L20.6701 5.31695ZM21.4203 5.33041L21.5436 6.32278L21.9164 6.27645L21.7931 5.28408L21.6698 4.29171L21.297 4.33804L21.4203 5.33041ZM21.7931 5.28408L21.9164 6.27645L22.2892 6.23012L22.1659 5.23776L22.0426 4.24539L21.6698 4.29171L21.7931 5.28408ZM22.1659 5.23776L22.2892 6.23012C22.4535 6.20971 22.6184 6.21009 22.786 6.23179L22.9144 5.24007L23.0428 4.24835C22.7095 4.2052 22.3754 4.20403 22.0426 4.24539L22.1659 5.23776ZM22.9144 5.24007L22.786 6.23179L23.1616 6.28043L23.2901 5.28871L23.4185 4.29699L23.0428 4.24835L22.9144 5.24007ZM23.2901 5.28871L23.1616 6.28043L23.5373 6.32908L23.6657 5.33736L23.7941 4.34563L23.4185 4.29699L23.2901 5.28871ZM23.6657 5.33736L23.5373 6.32908C23.8423 6.36857 24.1483 6.38269 24.4546 6.37122L24.4172 5.37192L24.3798 4.37262C24.185 4.37992 23.99 4.371 23.7941 4.34563L23.6657 5.33736ZM24.4172 5.37192L24.4546 6.37122L24.8304 6.35714L24.793 5.35784L24.7556 4.35854L24.3798 4.37262L24.4172 5.37192ZM24.793 5.35784L24.8304 6.35714L25.2062 6.34307L25.1688 5.34377L25.1313 4.34447L24.7556 4.35854L24.793 5.35784ZM25.1688 5.34377L25.2062 6.34307C25.4887 6.33248 25.7702 6.30841 26.0508 6.27086L25.9182 5.2797L25.7855 4.28853C25.568 4.31764 25.35 4.33628 25.1313 4.34447L25.1688 5.34377ZM25.9182 5.2797L26.0508 6.27086L26.4244 6.22087L26.2918 5.2297L26.1591 4.23854L25.7855 4.28853L25.9182 5.2797ZM26.2918 5.2297L26.4244 6.22087L26.798 6.17087L26.6653 5.17971L26.5327 4.18854L26.1591 4.23854L26.2918 5.2297ZM26.6653 5.17971L26.798 6.17087C27.038 6.13875 27.2789 6.10985 27.5205 6.08417L27.4149 5.08977L27.3092 4.09537C27.0496 4.12295 26.7908 4.15401 26.5327 4.18854L26.6653 5.17971ZM27.4149 5.08977L27.5205 6.08417L27.8965 6.04423L27.7908 5.04983L27.6852 4.05543L27.3092 4.09537L27.4149 5.08977ZM27.7908 5.04983L27.8965 6.04423L28.2724 6.00429L28.1667 5.00989L28.0611 4.01548L27.6852 4.05543L27.7908 5.04983ZM28.1667 5.00989L28.2724 6.00429C28.393 5.99147 28.5156 6.00107 28.6467 6.03792L28.9173 5.07521L29.1878 4.11249C28.8195 4.00899 28.4417 3.97504 28.0611 4.01548L28.1667 5.00989ZM28.9173 5.07521L28.6467 6.03792L29.0213 6.14318L29.2919 5.18047L29.5624 4.21776L29.1878 4.11249L28.9173 5.07521ZM29.2919 5.18047L29.0213 6.14318L29.3959 6.24844L29.6665 5.28573L29.937 4.32302L29.5624 4.21776L29.2919 5.18047ZM29.6665 5.28573L29.3959 6.24844C29.7224 6.34018 30.0544 6.39166 30.3901 6.40026L30.4157 5.40059L30.4413 4.40092C30.2775 4.39672 30.11 4.37163 29.937 4.32302L29.6665 5.28573ZM30.4157 5.40059L30.3901 6.40026L30.7647 6.40985L30.7903 5.41018L30.8159 4.41051L30.4413 4.40092L30.4157 5.40059ZM30.7903 5.41018L30.7647 6.40985L31.1394 6.41945L31.165 5.41978L31.1906 4.4201L30.8159 4.41051L30.7903 5.41018ZM31.165 5.41978L31.1394 6.41945C31.388 6.42582 31.6372 6.43262 31.8868 6.43985L31.9157 5.44027L31.9447 4.44069C31.6928 4.43339 31.4415 4.42653 31.1906 4.4201L31.165 5.41978ZM31.9157 5.44027L31.8868 6.43985L32.2628 6.45074L32.2918 5.45116L32.3207 4.45158L31.9447 4.44069L31.9157 5.44027ZM32.2918 5.45116L32.2628 6.45074L32.6389 6.46163L32.6679 5.46205L32.6968 4.46247L32.3207 4.45158L32.2918 5.45116ZM32.6679 5.46205L32.6389 6.46163C32.8331 6.46726 33.0273 6.48925 33.222 6.528L33.4172 5.54724L33.6124 4.56647C33.3094 4.50617 33.004 4.47137 32.6968 4.46247L32.6679 5.46205ZM33.4172 5.54724L33.222 6.528L33.5953 6.60229L33.7905 5.62153L33.9857 4.64076L33.6124 4.56647L33.4172 5.54724ZM33.7905 5.62153L33.5953 6.60229L33.9686 6.67658L34.1638 5.69582L34.359 4.71506L33.9857 4.64076L33.7905 5.62153ZM34.1638 5.69582L33.9686 6.67658C34.3332 6.74916 34.7019 6.75646 35.0692 6.69845L34.9132 5.7107L34.7572 4.72294C34.6229 4.74415 34.492 4.74153 34.359 4.71506L34.1638 5.69582ZM34.9132 5.7107L35.0692 6.69845L35.4454 6.63904L35.2894 5.65128L35.1334 4.66353L34.7572 4.72294L34.9132 5.7107ZM35.2894 5.65128L35.4454 6.63904L35.8215 6.57962L35.6655 5.59187L35.5095 4.60411L35.1334 4.66353L35.2894 5.65128ZM35.6655 5.59187L35.8215 6.57962C35.9892 6.55315 36.1536 6.54848 36.3169 6.56469L36.4157 5.56958L36.5145 4.57447C36.1791 4.54118 35.8434 4.55137 35.5095 4.60411L35.6655 5.59187ZM36.4157 5.56958L36.3169 6.56469L36.6909 6.60181L36.7897 5.6067L36.8884 4.61159L36.5145 4.57447L36.4157 5.56958ZM36.7897 5.6067L36.6909 6.60181L37.0649 6.63893L37.1637 5.64382L37.2624 4.64871L36.8884 4.61159L36.7897 5.6067ZM37.1637 5.64382L37.0649 6.63893C37.4748 6.67962 37.8766 6.62178 38.2597 6.48064L37.914 5.54229L37.5683 4.60394C37.4496 4.64768 37.3512 4.65752 37.2624 4.64871L37.1637 5.64382ZM37.914 5.54229L38.2597 6.48064L38.6361 6.34198L38.2904 5.40364L37.9447 4.46529L37.5683 4.60394L37.914 5.54229ZM38.2904 5.40364L38.6361 6.34198L39.0124 6.20333L38.6667 5.26498L38.321 4.32663L37.9447 4.46529L38.2904 5.40364ZM38.6667 5.26498L39.0124 6.20333C39.0676 6.18298 39.0975 6.18492 39.1344 6.19582L39.4172 5.23664L39.7 4.27747C39.2382 4.14128 38.7676 4.1621 38.321 4.32663L38.6667 5.26498ZM39.4172 5.23664L39.1344 6.19582L39.5086 6.30613L39.7914 5.34696L40.0742 4.38778L39.7 4.27747L39.4172 5.23664ZM39.7914 5.34696L39.5086 6.30613L39.8827 6.41645L40.1655 5.45727L40.4483 4.4981L40.0742 4.38778L39.7914 5.34696ZM40.1655 5.45727L39.8827 6.41645C40.264 6.52887 40.6567 6.56092 41.0515 6.50643L40.9148 5.51582L40.7781 4.5252C40.6728 4.53975 40.5659 4.53277 40.4483 4.4981L40.1655 5.45727ZM40.9148 5.51582L41.0515 6.50643L41.4267 6.45465L41.29 5.46404L41.1533 4.47343L40.7781 4.5252L40.9148 5.51582ZM41.29 5.46404L41.4267 6.45465L41.8019 6.40288L41.6652 5.41227L41.5285 4.42166L41.1533 4.47343L41.29 5.46404ZM41.6652 5.41227L41.8019 6.40288C42.0276 6.37174 42.2533 6.34909 42.4791 6.33491L42.4164 5.33687L42.3538 4.33884C42.0782 4.35615 41.803 4.38377 41.5285 4.42166L41.6652 5.41227ZM42.4164 5.33687L42.4791 6.33491L42.8552 6.31128L42.7925 5.31325L42.7298 4.31522L42.3538 4.33884L42.4164 5.33687ZM42.7925 5.31325L42.8552 6.31128L43.2313 6.28766L43.1686 5.28963L43.1059 4.2916L42.7298 4.31522L42.7925 5.31325ZM43.1686 5.28963L43.2313 6.28766C43.5407 6.26823 43.848 6.22165 44.1528 6.14874L43.9201 5.17618L43.6874 4.20363C43.4916 4.25048 43.2979 4.27953 43.1059 4.2916L43.1686 5.28963ZM43.9201 5.17618L44.1528 6.14874L44.5282 6.05891L44.2955 5.08636L44.0629 4.11381L43.6874 4.20363L43.9201 5.17618ZM44.2955 5.08636L44.5282 6.05891L44.9037 5.96909L44.671 4.99654L44.4383 4.02398L44.0629 4.11381L44.2955 5.08636ZM44.671 4.99654L44.9037 5.96909C45.007 5.94436 45.1033 5.94381 45.2042 5.96626L45.4214 4.99011L45.6385 4.01397C45.2395 3.92522 44.8355 3.92894 44.4383 4.02398L44.671 4.99654ZM45.4214 4.99011L45.2042 5.96626L45.5792 6.04966L45.7963 5.07352L46.0135 4.09737L45.6385 4.01397L45.4214 4.99011ZM45.7963 5.07352L45.5792 6.04966L45.9541 6.13306L46.1713 5.15692L46.3884 4.18077L46.0135 4.09737L45.7963 5.07352ZM46.1713 5.15692L45.9541 6.13306C46.3893 6.22986 46.826 6.20141 47.244 6.05933L46.9223 5.11252L46.6005 4.1657C46.5172 4.19403 46.4532 4.19518 46.3884 4.18077L46.1713 5.15692ZM46.9223 5.11252L47.244 6.05933L47.6201 5.93153L47.2983 4.98472L46.9765 4.0379L46.6005 4.1657L46.9223 5.11252ZM47.2983 4.98472L47.6201 5.93153L47.9961 5.80373L47.6744 4.85692L47.3526 3.9101L46.9765 4.0379L47.2983 4.98472ZM47.6744 4.85692L47.9961 5.80373C47.998 5.8031 47.9946 5.80441 47.9868 5.80539C47.9788 5.80639 47.9696 5.80663 47.9604 5.8058C47.9512 5.80498 47.9456 5.80344 47.9443 5.80304C47.9432 5.80272 47.9484 5.80417 47.96 5.81022L48.4232 4.92401L48.8865 4.0378C48.4116 3.78955 47.8789 3.73123 47.3526 3.9101L47.6744 4.85692ZM48.4232 4.92401L47.96 5.81022L48.3328 6.00511L48.796 5.1189L49.2593 4.23269L48.8865 4.0378L48.4232 4.92401ZM48.796 5.1189L48.3328 6.00511L48.7056 6.20001L49.1689 5.31379L49.6321 4.42758L49.2593 4.23269L48.796 5.1189ZM49.1689 5.31379L48.7056 6.20001C49.199 6.45797 49.7505 6.50081 50.2831 6.29229L49.9186 5.36112L49.554 4.42994C49.5523 4.4306 49.5572 4.42855 49.5677 4.42681C49.5786 4.42503 49.5917 4.42417 49.6057 4.42506C49.6196 4.42593 49.6301 4.42826 49.6361 4.43C49.6418 4.43166 49.6405 4.43198 49.6321 4.42758L49.1689 5.31379ZM49.9186 5.36112L50.2831 6.29229L50.66 6.14473L50.2955 5.21355L49.9309 4.28238L49.554 4.42994L49.9186 5.36112ZM50.2955 5.21355L50.66 6.14473L51.037 5.99716L50.6724 5.06599L50.3078 4.13481L49.9309 4.28238L50.2955 5.21355ZM50.6724 5.06599L51.037 5.99716C51.047 5.99321 51.0521 5.99219 51.0527 5.99208C51.053 5.992 51.0509 5.99241 51.0472 5.99241C51.0434 5.99241 51.0409 5.99199 51.0404 5.99189C51.0401 5.99183 51.044 5.99255 51.0527 5.99599L51.4223 5.06682L51.792 4.13765C51.3055 3.94412 50.7931 3.94482 50.3078 4.13481L50.6724 5.06599ZM51.4223 5.06682L51.0527 5.99599L51.4257 6.14439L51.7953 5.21522L52.165 4.28606L51.792 4.13765L51.4223 5.06682ZM51.7953 5.21522L51.4257 6.14439L51.7987 6.2928L52.1684 5.36363L52.538 4.43446L52.165 4.28606L51.7953 5.21522ZM52.1684 5.36363L51.7987 6.2928C52.1492 6.43225 52.5147 6.51168 52.8907 6.52121L52.9161 5.52153L52.9414 4.52186C52.8178 4.51872 52.6848 4.49287 52.538 4.43446L52.1684 5.36363ZM52.9161 5.52153L52.8907 6.52121L53.2654 6.53072L53.2908 5.53104L53.3161 4.53136L52.9414 4.52186L52.9161 5.52153ZM53.2908 5.53104L53.2654 6.53072L53.6401 6.54022L53.6654 5.54055L53.6908 4.54087L53.3161 4.53136L53.2908 5.53104ZM53.6654 5.54055L53.6401 6.54022C53.7924 6.54409 53.949 6.56987 54.1125 6.62142L54.4133 5.66772L54.714 4.71401C54.38 4.60868 54.0381 4.54968 53.6908 4.54087L53.6654 5.54055ZM54.4133 5.66772L54.1125 6.62142L54.4856 6.73908L54.7864 5.78538L55.0871 4.83168L54.714 4.71401L54.4133 5.66772ZM54.7864 5.78538L54.4856 6.73908L54.8587 6.85675L55.1595 5.90304L55.4603 4.94934L55.0871 4.83168L54.7864 5.78538ZM55.1595 5.90304L54.8587 6.85675C55.4196 7.03361 55.9667 6.92683 56.4292 6.6472L55.9118 5.79146L55.3944 4.93572C55.363 4.95471 55.3618 4.94861 55.3874 4.9448C55.3996 4.94299 55.4139 4.94236 55.4287 4.94359C55.4434 4.9448 55.4543 4.94748 55.4603 4.94934L55.1595 5.90304ZM55.9118 5.79146L56.4292 6.6472L56.8083 6.41794L56.2909 5.56221L55.7735 4.70647L55.3944 4.93572L55.9118 5.79146ZM56.2909 5.56221L56.8083 6.41794L57.1875 6.18869L56.6701 5.33295L56.1527 4.47721L55.7735 4.70647L56.2909 5.56221ZM56.6701 5.33295L57.1875 6.18869C57.1916 6.18619 57.149 6.21192 57.0703 6.21374C56.9895 6.2156 56.9363 6.19073 56.9246 6.18405L57.4204 5.31565L57.9163 4.44726C57.6571 4.29927 57.3551 4.20664 57.0242 4.21427C56.6954 4.22185 56.4013 4.32688 56.1527 4.47721L56.6701 5.33295ZM57.4204 5.31565L56.9246 6.18405L57.2957 6.396L57.7916 5.52761L58.2875 4.65921L57.9163 4.44726L57.4204 5.31565ZM57.7916 5.52761L57.2957 6.396L57.6669 6.60795L58.1628 5.73956L58.6587 4.87116L58.2875 4.65921L57.7916 5.52761ZM58.1628 5.73956L57.6669 6.60795C58.2047 6.91504 58.8114 6.93231 59.3661 6.65018L58.9128 5.75884L58.4594 4.8675C58.4589 4.86779 58.4686 4.86281 58.4879 4.85812C58.5078 4.8533 58.5331 4.84995 58.5616 4.85068C58.6236 4.85228 58.6591 4.87143 58.6587 4.87116L58.1628 5.73956ZM58.9128 5.75884L59.3661 6.65018L59.7449 6.45751L59.2916 5.56617L58.8383 4.67484L58.4594 4.8675L58.9128 5.75884ZM59.2916 5.56617L59.7449 6.45751L60.1238 6.26484L59.6704 5.37351L59.2171 4.48217L58.8383 4.67484L59.2916 5.56617ZM59.6704 5.37351L60.1238 6.26484C60.1392 6.25698 60.1486 6.25378 60.152 6.25272C60.1553 6.25172 60.154 6.25241 60.1489 6.25293C60.1437 6.25346 60.1376 6.2535 60.1316 6.25287C60.1257 6.25226 60.123 6.25133 60.1244 6.25174L60.422 5.29707L60.7197 4.3424C60.199 4.18005 59.6796 4.24694 59.2171 4.48217L59.6704 5.37351ZM60.422 5.29707L60.1244 6.25174L60.4972 6.36798L60.7948 5.41331L61.0925 4.45863L60.7197 4.3424L60.422 5.29707ZM60.7948 5.41331L60.4972 6.36798L60.87 6.48421L61.1676 5.52954L61.4653 4.57487L61.0925 4.45863L60.7948 5.41331ZM61.1676 5.52954L60.87 6.48421C61.2789 6.61172 61.7019 6.63367 62.1225 6.54543L61.9172 5.56673L61.7119 4.58803C61.6301 4.60518 61.5534 4.60234 61.4653 4.57487L61.1676 5.52954ZM61.9172 5.56673L62.1225 6.54543L62.4993 6.4664L62.294 5.4877L62.0887 4.509L61.7119 4.58803L61.9172 5.56673ZM62.294 5.4877L62.4993 6.4664L62.8761 6.38736L62.6708 5.40866L62.4655 4.42996L62.0887 4.509L62.294 5.4877ZM62.6708 5.40866L62.8761 6.38736C62.9012 6.3821 62.9307 6.37876 62.9958 6.40918L63.4191 5.5032L63.8424 4.59723C63.4122 4.39621 62.9428 4.32983 62.4655 4.42996L62.6708 5.40866ZM63.4191 5.5032L62.9958 6.40918L63.3673 6.58277L63.7906 5.67679L64.2139 4.77081L63.8424 4.59723L63.4191 5.5032ZM63.7906 5.67679L63.3673 6.58277L63.7388 6.75635L64.1621 5.85037L64.5854 4.9444L64.2139 4.77081L63.7906 5.67679ZM64.1621 5.85037L63.7388 6.75635C64.1199 6.93447 64.5299 7.02528 64.9569 7.00488L64.9091 6.00602L64.8614 5.00716C64.7877 5.01068 64.6996 4.99773 64.5854 4.9444L64.1621 5.85037ZM64.9091 6.00602L64.9569 7.00488L65.3324 6.98693L65.2847 5.98807L65.237 4.98921L64.8614 5.00716L64.9091 6.00602ZM65.2847 5.98807L65.3324 6.98693L65.708 6.96899L65.6603 5.97013L65.6125 4.97127L65.237 4.98921L65.2847 5.98807ZM65.6603 5.97013L65.708 6.96899C66.0713 6.95163 66.4261 6.87364 66.7692 6.74323L66.4139 5.80848L66.0586 4.87373C65.8976 4.93492 65.75 4.9647 65.6125 4.97127L65.6603 5.97013ZM66.4139 5.80848L66.7692 6.74323L67.1472 6.59953L66.7919 5.66478L66.4366 4.73003L66.0586 4.87373L66.4139 5.80848ZM66.7919 5.66478L67.1472 6.59953L67.5253 6.45583L67.17 5.52108L66.8147 4.58633L66.4366 4.73003L66.7919 5.66478ZM67.17 5.52108L67.5253 6.45583C67.5359 6.4518 67.5416 6.45063 67.5429 6.45039C67.544 6.45017 67.5427 6.45049 67.5398 6.45047C67.5369 6.45045 67.535 6.45011 67.5352 6.45014C67.5355 6.4502 67.5399 6.45109 67.5488 6.45466L67.9201 5.52614L68.2914 4.59763C67.8081 4.40437 67.2987 4.40236 66.8147 4.58633L67.17 5.52108ZM67.9201 5.52614L67.5488 6.45466L67.9208 6.60342L68.2921 5.6749L68.6634 4.74639L68.2914 4.59763L67.9201 5.52614ZM68.2921 5.6749L67.9208 6.60342L68.2928 6.75218L68.6641 5.82367L69.0354 4.89515L68.6634 4.74639L68.2921 5.6749ZM68.6641 5.82367L68.2928 6.75218C68.6253 6.88512 68.969 6.97041 69.3218 7.00183L69.4105 6.00578L69.4992 5.00972C69.3528 4.99668 69.199 4.96057 69.0354 4.89515L68.6641 5.82367ZM69.4105 6.00578L69.3218 7.00183L69.6961 7.03517L69.7848 6.03912L69.8736 5.04306L69.4992 5.00972L69.4105 6.00578ZM69.7848 6.03912L69.6961 7.03517L70.0705 7.06852L70.1592 6.07246L70.2479 5.0764L69.8736 5.04306L69.7848 6.03912ZM70.1592 6.07246L70.0705 7.06852C70.5505 7.11127 71.0011 6.99006 71.4013 6.7663L70.9133 5.89347L70.4253 5.02064C70.3191 5.07999 70.267 5.07811 70.2479 5.0764L70.1592 6.07246ZM70.9133 5.89347L71.4013 6.7663L71.7811 6.55396L71.2931 5.68113L70.8051 4.8083L70.4253 5.02064L70.9133 5.89347ZM71.2931 5.68113L71.7811 6.55396L72.1609 6.34162L71.6728 5.46879L71.1848 4.59596L70.8051 4.8083L71.2931 5.68113ZM71.6728 5.46879L72.1609 6.34162C72.1491 6.34821 72.0884 6.37641 71.9956 6.37135C71.9049 6.36641 71.8554 6.33354 71.857 6.33462L72.4222 5.50964L72.9874 4.68467C72.7425 4.51696 72.445 4.39288 72.1045 4.37432C71.7619 4.35565 71.4498 4.44782 71.1848 4.59596L71.6728 5.46879ZM72.4222 5.50964L71.857 6.33462L72.2266 6.58781L72.7918 5.76283L73.3569 4.93785L72.9874 4.68467L72.4222 5.50964ZM72.7918 5.76283L72.2266 6.58781L72.5962 6.841L73.1614 6.01602L73.7265 5.19104L73.3569 4.93785L72.7918 5.76283ZM73.1614 6.01602L72.5962 6.841C72.9635 7.09266 73.3841 7.26244 73.8483 7.28903L73.9054 6.29067L73.9626 5.2923C73.9275 5.29029 73.8519 5.27697 73.7265 5.19104L73.1614 6.01602ZM73.9054 6.29067L73.8483 7.28903L74.2228 7.31048L74.28 6.31212L74.3372 5.31376L73.9626 5.2923L73.9054 6.29067ZM74.28 6.31212L74.2228 7.31048L74.5973 7.33194L74.6545 6.33358L74.7117 5.33521L74.3372 5.31376L74.28 6.31212ZM74.6545 6.33358L74.5973 7.33194C74.7537 7.3409 74.9806 7.3436 75.2061 7.28094C75.4164 7.2225 75.974 6.98687 76.0367 6.31973L75.0411 6.22614L74.0455 6.13255C74.0687 5.88549 74.1887 5.67536 74.348 5.53378C74.4851 5.41197 74.6184 5.36848 74.6706 5.35395C74.7673 5.3271 74.8049 5.34055 74.7117 5.33521L74.6545 6.33358ZM75.0411 6.22614L76.0367 6.31973L76.0488 6.19085L75.0532 6.09726L74.0576 6.00366L74.0455 6.13255L75.0411 6.22614ZM75.0532 6.09726L76.0133 5.81751L75.9375 5.55756L74.9775 5.8373L74.0174 6.11704L74.0931 6.377L75.0532 6.09726ZM74.9775 5.8373L74.9557 6.83706L75.0557 6.83924L75.0774 5.83948L75.0992 4.83972L74.9993 4.83754L74.9775 5.8373Z" fill="var(--stroke-0, #FD9476)"/>
</g>
</svg>
