<svg preserveAspectRatio="none" width="100%" height="100%" overflow="visible" style="display: block;" viewBox="0 0 40 40" fill="none" xmlns="http://www.w3.org/2000/svg">
<g id="lucide/loader">
<path id="Vector" d="M21.15 3.33333C21.15 2.69821 20.6351 2.18333 20 2.18333C19.3649 2.18333 18.85 2.69821 18.85 3.33333H20H21.15ZM20 3.43333H18.85V3.56763L18.8809 3.69831L20 3.43333ZM20.1187 3.93483L21.2378 3.66987L21.2378 3.66986L20.1187 3.93483ZM20.1131 4.07508L21.1356 4.60132L21.1356 4.60131L20.1131 4.07508ZM19.9622 4.36833L18.9396 3.8421L18.9396 3.8421L19.9622 4.36833ZM19.8112 4.66158L20.8338 5.18782L20.8338 5.18781L19.8112 4.66158ZM19.8092 4.76508L20.848 4.27186L20.848 4.27185L19.8092 4.76508ZM19.9484 5.05833L18.9095 5.55155L18.9095 5.55156L19.9484 5.05833ZM20.0876 5.35158L21.1265 4.85837L21.1265 4.85836L20.0876 5.35158ZM20.1224 5.45508L21.2507 5.23276L21.2507 5.23275L20.1224 5.45508ZM20.1802 5.74833L19.0519 5.97066L19.0519 5.97066L20.1802 5.74833ZM20.238 6.04158L21.3663 5.81927L21.3663 5.81925L20.238 6.04158ZM20.2285 6.14508L21.3034 6.5537L21.3034 6.55369L20.2285 6.14508ZM20.117 6.43833L19.0421 6.02971L19.0421 6.02972L20.117 6.43833ZM20.0055 6.73158L21.0805 7.14021L21.0805 7.1402L20.0055 6.73158ZM19.985 6.83508L21.1348 6.85451L21.1348 6.8545L19.985 6.83508ZM19.98 7.12833L18.8302 7.1089L18.8302 7.10891L19.98 7.12833ZM19.9751 7.42158L21.1249 7.44102L21.1249 7.44101L19.9751 7.42158ZM19.9924 7.52508L21.0775 7.14418L21.0775 7.14417L19.9924 7.52508ZM20.0953 7.81833L19.0102 8.19924L19.0102 8.19924L20.0953 7.81833ZM20.1983 8.11158L21.2834 7.73068L21.2833 7.73067L20.1983 8.11158ZM20.2093 8.21508L21.3485 8.37208L21.3485 8.37207L20.2093 8.21508ZM20.1689 8.50833L19.0297 8.35133L19.0297 8.35134L20.1689 8.50833ZM20.1285 8.80158L21.2677 8.95859L21.2677 8.95858L20.1285 8.80158ZM20.0914 8.90508L21.0869 9.48091L21.0869 9.4809L20.0914 8.90508ZM19.9218 9.19833L18.9263 8.62251L18.9263 8.62251L19.9218 9.19833ZM19.7521 9.49158L20.7476 10.0674L20.7476 10.0674L19.7521 9.49158ZM19.7638 9.57758L20.495 8.69002L20.495 8.69001L19.7638 9.57758ZM19.9994 9.77167L19.2681 10.6592L19.2681 10.6592L19.9994 9.77167ZM20.2349 9.96575L20.9662 9.07818L20.9662 9.07818L20.2349 9.96575ZM20.2558 10L20.2558 11.15L20.2558 11.15L20.2558 10ZM20.1382 10L19.4643 10.9318L19.7659 11.15L20.1382 11.15L20.1382 10ZM20 9.9L20.674 8.96821L18.85 7.64885V9.9H20ZM18.85 10C18.85 10.6351 19.3649 11.15 20 11.15C20.6351 11.15 21.15 10.6351 21.15 10H20H18.85ZM26.1672 12.2069C25.7292 12.6669 25.747 13.3948 26.2069 13.8328C26.6669 14.2708 27.3948 14.253 27.8328 13.7931L27 13L26.1672 12.2069ZM27.069 12.9276L27.9017 13.7207L27.9821 13.6363L28.0438 13.5376L27.069 12.9276ZM27.3405 12.4937L28.3154 13.1037L28.3154 13.1037L27.3405 12.4937ZM27.4364 12.3913L27.9808 13.4043L27.9808 13.4043L27.4364 12.3913ZM27.7082 12.2452L27.1639 11.2322L27.1639 11.2322L27.7082 12.2452ZM27.9801 12.0991L28.5244 13.1121L28.5244 13.1121L27.9801 12.0991ZM28.0548 12.0274L29.0488 12.6057L29.0488 12.6057L28.0548 12.0274ZM28.2064 11.7668L27.2124 11.1885L27.2124 11.1885L28.2064 11.7668ZM28.358 11.5062L29.352 12.0845L29.352 12.0845L28.358 11.5062ZM28.4302 11.4321L29.0363 12.4094L29.0363 12.4094L28.4302 11.4321ZM28.6877 11.2724L28.0817 10.295L28.0817 10.295L28.6877 11.2724ZM28.9453 11.1127L29.5513 12.09L29.5513 12.09L28.9453 11.1127ZM29.0259 11.0466L29.8683 11.8294L29.8684 11.8294L29.0259 11.0466ZM29.2256 10.8317L28.3832 10.0489L28.3832 10.0489L29.2256 10.8317ZM29.4252 10.6169L30.2676 11.3997L30.2676 11.3997L29.4252 10.6169ZM29.5077 10.5526L30.0689 11.5564L30.0689 11.5564L29.5077 10.5526ZM29.7757 10.4028L29.2145 9.39897L29.2145 9.39897L29.7757 10.4028ZM30.0436 10.253L30.6048 11.2568L30.6048 11.2568L30.0436 10.253ZM30.1071 10.1705L31.212 10.4893L31.212 10.4892L30.1071 10.1705ZM30.1987 9.85282L29.0938 9.53407L29.0938 9.53408L30.1987 9.85282ZM30.2904 9.53514L31.3953 9.85388L31.3953 9.85386L30.2904 9.53514ZM30.3388 9.43833L31.2405 10.152L31.2405 10.152L30.3388 9.43833ZM30.5215 9.20742L29.6198 8.49371L29.6198 8.49372L30.5215 9.20742ZM30.7043 8.97651L31.606 9.69022L31.606 9.6902L30.7043 8.97651ZM30.7932 8.91823L31.1333 10.0168L31.1333 10.0168L30.7932 8.91823ZM31.1141 8.81888L30.774 7.72032L30.774 7.72032L31.1141 8.81888ZM31.435 8.71953L31.7751 9.81808L31.7751 9.81808L31.435 8.71953ZM31.512 8.64991L32.5831 9.06848L32.5831 9.06846L31.512 8.64991ZM31.6273 8.35478L30.5562 7.93623L30.5562 7.93623L31.6273 8.35478ZM31.7426 8.05966L32.8137 8.47821L32.8137 8.47819L31.7426 8.05966ZM31.7724 7.98027L32.8589 8.35729L32.8589 8.35725L31.7724 7.98027ZM31.8261 7.82558L30.7397 7.44859L30.7397 7.4486L31.8261 7.82558ZM31.8798 7.67088L32.9662 8.04786L32.9663 8.04783L31.8798 7.67088ZM31.8976 7.65151L32.6907 6.81873L32.6906 6.81869L31.8976 7.65151ZM31.9448 7.69646L33.0882 7.81902L33.1487 7.25493L32.7379 6.86369L31.9448 7.69646ZM31.9314 7.82176L30.7879 7.69921L30.4267 11.0693L32.7641 8.61484L31.9314 7.82176ZM32.8331 8.54243C33.2711 8.08249 33.2533 7.35457 32.7934 6.91657C32.3335 6.47856 31.6055 6.49634 31.1675 6.95627L32.0003 7.74935L32.8331 8.54243ZM30 18.85C29.3649 18.85 28.85 19.3649 28.85 20C28.85 20.6351 29.3649 21.15 30 21.15V20V18.85ZM30.1 20L30.1709 18.8522L30.1355 18.85H30.1V20ZM30.6015 20.031L30.5306 21.1788L30.5306 21.1788L30.6015 20.031ZM30.7418 20.0373L30.7224 21.1872L30.7224 21.1872L30.7418 20.0373ZM31.035 20.0422L31.0543 18.8924L31.0543 18.8924L31.035 20.0422ZM31.3283 20.0472L31.3089 21.197L31.3089 21.197L31.3283 20.0472ZM31.4318 20.0577L31.2209 21.1882L31.2209 21.1882L31.4318 20.0577ZM31.725 20.1124L31.9358 18.9819L31.9358 18.9819L31.725 20.1124ZM32.0183 20.1671L31.8074 21.2976L31.8074 21.2976L32.0183 20.1671ZM32.1218 20.1837L31.9674 21.3233L31.9674 21.3233L32.1218 20.1837ZM32.415 20.2234L32.5694 19.0839L32.5694 19.0839L32.415 20.2234ZM32.7083 20.2632L32.5539 21.4028L32.5539 21.4028L32.7083 20.2632ZM32.8118 20.23L33.5164 21.1389L33.5164 21.1389L32.8118 20.23ZM33.105 20.0027L32.4003 19.0939L32.4003 19.0939L33.105 20.0027ZM33.3983 19.7753L34.1029 20.6841L34.1029 20.6841L33.3983 19.7753ZM33.5018 19.7421L33.3495 20.882L33.3495 20.882L33.5018 19.7421ZM33.795 19.7813L33.9473 18.6414L33.9473 18.6414L33.795 19.7813ZM34.0883 19.8204L33.936 20.9603L33.936 20.9603L34.0883 19.8204ZM34.1918 19.8486L33.7556 20.9127L33.7556 20.9127L34.1918 19.8486ZM34.485 19.9688L34.9211 18.9047L34.9211 18.9047L34.485 19.9688ZM34.7783 20.089L34.3421 21.153L34.3421 21.1531L34.7783 20.089ZM34.8818 20.1081L34.9287 21.2571L34.9287 21.2571L34.8818 20.1081ZM35.175 20.0961L35.1281 18.947L35.128 18.947L35.175 20.0961ZM35.4683 20.0841L35.5152 21.2331L35.5152 21.2331L35.4683 20.0841ZM35.5718 20.0649L35.9329 21.1567L35.9329 21.1567L35.5718 20.0649ZM35.865 19.9678L35.5038 18.876L35.5038 18.876L35.865 19.9678ZM36.1583 19.8708L36.5194 20.9626L36.5195 20.9626L36.1583 19.8708ZM36.2443 19.8441L36.554 20.9516L36.554 20.9516L36.2443 19.8441ZM36.4383 19.7898L36.1286 18.6824L36.1285 18.6824L36.4383 19.7898ZM36.6324 19.7356L36.9422 20.843L36.9422 20.843L36.6324 19.7356ZM36.6667 19.7465L37.8167 19.7465L37.8167 19.7465L36.6667 19.7465ZM36.6667 19.863L37.5956 20.541L37.8167 20.238L37.8167 19.863L36.6667 19.863ZM36.5667 20L35.6378 19.322L34.3036 21.15H36.5667V20ZM36.6667 21.15C37.3018 21.15 37.8167 20.6351 37.8167 20C37.8167 19.3649 37.3018 18.85 36.6667 18.85V20V21.15ZM27.8132 26.1868C27.3641 25.7377 26.6359 25.7377 26.1868 26.1868C25.7377 26.6359 25.7377 27.3641 26.1868 27.8132L27 27L27.8132 26.1868ZM27.0707 27.0707L26.2575 27.8839L26.3867 28.0131L26.5496 28.0959L27.0707 27.0707ZM27.5409 27.3097L27.0198 28.3349L27.0198 28.3349L27.5409 27.3097ZM27.6591 27.3899L28.5034 26.6091L28.5034 26.6091L27.6591 27.3899ZM27.8583 27.6054L27.014 28.3862L27.014 28.3862L27.8583 27.6054ZM28.0576 27.8209L28.9019 27.0401L28.9019 27.0401L28.0576 27.8209ZM28.126 27.8988L29.0102 27.1636L29.0102 27.1636L28.126 27.8988ZM28.3143 28.1253L27.43 28.8605L27.43 28.8605L28.3143 28.1253ZM28.5025 28.3517L29.3868 27.6164L29.3868 27.6164L28.5025 28.3517ZM28.5839 28.4167L28.0524 29.4365L28.0524 29.4365L28.5839 28.4167ZM28.8565 28.5588L29.388 27.539L29.388 27.539L28.8565 28.5588ZM29.1291 28.7009L28.5976 29.7207L28.5976 29.7207L29.1291 28.7009ZM29.1836 28.7929L30.3285 28.6847L30.3285 28.6847L29.1836 28.7929ZM29.2194 29.1718L28.0745 29.2799L28.0745 29.2799L29.2194 29.1718ZM29.2552 29.5507L30.4001 29.4426L30.4001 29.4425L29.2552 29.5507ZM29.2938 29.6585L30.1964 28.9459L30.1964 28.9459L29.2938 29.6585ZM29.4767 29.8902L28.5741 30.6028L28.5741 30.6028L29.4767 29.8902ZM29.6597 30.122L30.5623 29.4094L30.5623 29.4094L29.6597 30.122ZM29.7511 30.1769L29.4861 31.2959L29.4862 31.2959L29.7511 30.1769ZM30.0865 30.2563L30.3515 29.1372L30.3515 29.1372L30.0865 30.2563ZM30.4218 30.3357L30.1568 31.4547L30.1568 31.4547L30.4218 30.3357ZM30.4964 30.4075L31.6075 30.1109L31.6075 30.1109L30.4964 30.4075ZM30.5837 30.7348L29.4726 31.0314L29.4726 31.0314L30.5837 30.7348ZM30.6711 31.0622L31.7822 30.7656L31.7822 30.7656L30.6711 31.0622ZM30.7453 31.1344L30.4706 32.2511L30.4706 32.2511L30.7453 31.1344ZM31.0781 31.2162L31.3528 30.0995L31.3528 30.0995L31.0781 31.2162ZM31.411 31.2981L31.1363 32.4148L31.1363 32.4148L31.411 31.2981ZM31.4833 31.3653L32.597 31.079L32.597 31.079L31.4833 31.3653ZM31.5601 31.6643L30.4464 31.9507L30.4464 31.9507L31.5601 31.6643ZM31.637 31.9633L32.7508 31.677L32.7508 31.677L31.637 31.9633ZM31.6643 32.0024L32.4774 32.8156L32.4775 32.8155L31.6643 32.0024ZM31.742 31.9247L32.5551 32.7379L32.833 32.46L32.8827 32.0702L31.742 31.9247ZM31.7626 31.7626L32.5758 30.9495L30.9183 29.292L30.6219 31.6172L31.7626 31.7626ZM31.0202 32.6465C31.4693 33.0956 32.1974 33.0956 32.6465 32.6465C33.0956 32.1974 33.0956 31.4693 32.6465 31.0202L31.8333 31.8333L31.0202 32.6465ZM21.15 30C21.15 29.3649 20.6351 28.85 20 28.85C19.3649 28.85 18.85 29.3649 18.85 30H20H21.15ZM20 30.1L21.12 30.3608L21.15 30.2321V30.1H20ZM19.8832 30.6015L21.0033 30.8623L21.0033 30.8623L19.8832 30.6015ZM19.8541 30.7418L20.9887 30.9292L20.9887 30.9292L19.8541 30.7418ZM19.8056 31.035L18.671 30.8476L18.671 30.8476L19.8056 31.035ZM19.7572 31.3283L20.8918 31.5157L20.8918 31.5157L19.7572 31.3283ZM19.7824 31.4318L18.819 32.0598L18.819 32.0598L19.7824 31.4318ZM19.9735 31.725L20.9369 31.097L20.9369 31.097L19.9735 31.725ZM20.1647 32.0183L19.2013 32.6463L19.2013 32.6463L20.1647 32.0183ZM20.186 32.1218L21.3044 32.3898L21.3044 32.3898L20.186 32.1218ZM20.1157 32.415L18.9974 32.1469L18.9974 32.1469L20.1157 32.415ZM20.0455 32.7083L21.1638 32.9763L21.1638 32.9763L20.0455 32.7083ZM20.0535 32.8118L21.1229 32.3886L21.1229 32.3886L20.0535 32.8118ZM20.1696 33.105L19.1002 33.5281L19.1002 33.5281L20.1696 33.105ZM20.2856 33.3983L21.3549 32.9751L21.3549 32.9751L20.2856 33.3983ZM20.277 33.5018L21.2799 34.0646L21.2799 34.0646L20.277 33.5018ZM20.1124 33.795L19.1096 33.2322L19.1096 33.2322L20.1124 33.795ZM19.9479 34.0883L20.9507 34.6511L20.9507 34.6511L19.9479 34.0883ZM19.926 34.1918L21.0651 34.0334L21.0651 34.0333L19.926 34.1918ZM19.9668 34.485L18.8278 34.6434L18.8278 34.6434L19.9668 34.485ZM20.0076 34.7783L21.1466 34.6199L21.1466 34.6199L20.0076 34.7783ZM20.0152 34.8818L21.1652 34.8713L21.1652 34.8713L20.0152 34.8818ZM20.0179 35.175L18.868 35.1855L18.868 35.1855L20.0179 35.175ZM20.0206 35.4683L21.1705 35.4578L21.1705 35.4578L20.0206 35.4683ZM20.0335 35.5718L21.1517 35.3031L21.1517 35.3031L20.0335 35.5718ZM20.1039 35.865L18.9858 36.1337L18.9858 36.1337L20.1039 35.865ZM20.1744 36.1583L21.2926 35.8896L21.2926 35.8896L20.1744 36.1583ZM20.1819 36.2443L21.3201 36.4084L21.3201 36.4084L20.1819 36.2443ZM20.1539 36.4383L19.0157 36.2742L19.0157 36.2742L20.1539 36.4383ZM20.1259 36.6324L21.2641 36.7966L21.2641 36.7966L20.1259 36.6324ZM20.1119 36.6667L20.1119 37.8167L20.112 37.8167L20.1119 36.6667ZM20.0605 36.6667L19.0765 37.2618L19.4121 37.8167L20.0605 37.8167L20.0605 36.6667ZM20 36.5667L20.984 35.9715L18.85 32.4433V36.5667H20ZM18.85 36.6667C18.85 37.3018 19.3649 37.8167 20 37.8167C20.6351 37.8167 21.15 37.3018 21.15 36.6667H20H18.85ZM7.35349 31.0202C6.90439 31.4693 6.90439 32.1974 7.35349 32.6465C7.8026 33.0956 8.53074 33.0956 8.97984 32.6465L8.16667 31.8333L7.35349 31.0202ZM8.23738 31.7626L9.05055 32.5758L9.0714 32.555L9.09115 32.5331L8.23738 31.7626ZM8.5738 31.3898L9.42757 32.1603L9.42757 32.1603L8.5738 31.3898ZM8.68528 31.303L9.11634 32.3691L9.11636 32.3691L8.68528 31.303ZM8.98059 31.1836L8.54952 30.1174L8.54952 30.1174L8.98059 31.1836ZM9.27591 31.0641L9.70698 32.1303L9.707 32.1303L9.27591 31.0641ZM9.35844 31.0003L10.2956 31.6669L10.2956 31.6669L9.35844 31.0003ZM9.53082 30.758L8.5937 30.0914L8.59369 30.0914L9.53082 30.758ZM9.70319 30.5156L10.6403 31.1822L10.6403 31.1822L9.70319 30.5156ZM9.75203 30.4181L10.842 30.7846L10.842 30.7846L9.75203 30.4181ZM9.85639 30.1077L8.76637 29.7412L8.76637 29.7412L9.85639 30.1077ZM9.96075 29.7974L11.0508 30.1639L11.0508 30.1639L9.96075 29.7974ZM10.0326 29.7228L10.4315 30.8014L10.4316 30.8014L10.0326 29.7228ZM10.3353 29.6109L9.93638 28.5323L9.93637 28.5323L10.3353 29.6109ZM10.6381 29.4989L11.037 30.5775L11.037 30.5775L10.6381 29.4989ZM10.7203 29.4348L11.6843 30.0619L11.6843 30.0619L10.7203 29.4348ZM10.8838 29.1835L9.91985 28.5564L9.91985 28.5564L10.8838 29.1835ZM11.0473 28.9323L12.0112 29.5594L12.0112 29.5594L11.0473 28.9323ZM11.1003 28.839L12.1312 29.3487L12.1312 29.3486L11.1003 28.839ZM11.2375 28.5614L10.2066 28.0518L10.2066 28.0518L11.2375 28.5614ZM11.3747 28.2839L12.4056 28.7936L12.4056 28.7936L11.3747 28.2839ZM11.4344 28.1972L12.2733 28.9838L12.2733 28.9837L11.4344 28.1972ZM11.635 27.9831L10.7961 27.1966L10.7961 27.1966L11.635 27.9831ZM11.8357 27.7691L12.6747 28.5557L12.6747 28.5556L11.8357 27.7691ZM11.906 27.693L12.7564 28.4671L12.7564 28.4671L11.906 27.693ZM12.1036 27.4759L11.2532 26.7018L11.2532 26.7018L12.1036 27.4759ZM12.3012 27.2588L13.1517 28.0329L13.1517 28.0329L12.3012 27.2588ZM12.3699 27.188L13.1673 28.0166L13.1673 28.0166L12.3699 27.188ZM12.5615 27.0037L11.7641 26.175L11.7641 26.175L12.5615 27.0037ZM12.753 26.8193L13.5504 27.648L13.5504 27.648L12.753 26.8193ZM12.8028 26.8028L11.9896 27.616L11.9896 27.616L12.8028 26.8028ZM12.8934 26.8934L14.0205 26.6653L13.9518 26.3254L13.7066 26.0802L12.8934 26.8934ZM12.9293 27.0707L11.8021 27.2988L12.2272 29.3991L13.7425 27.8839L12.9293 27.0707ZM13.8132 27.8132C14.2623 27.3641 14.2623 26.6359 13.8132 26.1868C13.3641 25.7377 12.6359 25.7377 12.1868 26.1868L13 27L13.8132 27.8132ZM3.33333 18.85C2.69821 18.85 2.18333 19.3649 2.18333 20C2.18333 20.6351 2.69821 21.15 3.33333 21.15V20V18.85ZM3.43333 20L3.45 18.8501L3.44167 18.85H3.43333V20ZM3.93483 20.0073L3.91817 21.1571L3.91817 21.1571L3.93483 20.0073ZM4.07508 19.9933L4.39944 21.0967L4.39945 21.0966L4.07508 19.9933ZM4.36833 19.9071L4.04397 18.8038L4.04397 18.8038L4.36833 19.9071ZM4.66158 19.8209L4.98594 20.9242L4.98596 20.9242L4.66158 19.8209ZM4.76508 19.8314L4.25312 20.8612L4.25313 20.8612L4.76508 19.8314ZM5.05833 19.9772L5.57029 18.9475L5.57029 18.9475L5.05833 19.9772ZM5.35158 20.123L4.83963 21.1528L4.83964 21.1528L5.35158 20.123ZM5.45508 20.1554L5.30795 21.296L5.30797 21.296L5.45508 20.1554ZM5.74833 20.1932L5.89545 19.0527L5.89545 19.0527L5.74833 20.1932ZM6.04158 20.2311L5.89446 21.3716L5.89448 21.3716L6.04158 20.2311ZM6.14508 20.2387L6.12465 21.3885L6.12466 21.3885L6.14508 20.2387ZM6.43833 20.2439L6.45876 19.094L6.45875 19.094L6.43833 20.2439ZM6.73158 20.2491L6.71116 21.3989L6.71117 21.3989L6.73158 20.2491ZM6.83508 20.2056L7.58405 21.0782L7.58406 21.0782L6.83508 20.2056ZM7.12833 19.9539L6.37936 19.0812L6.37936 19.0812L7.12833 19.9539ZM7.42158 19.7022L8.17056 20.5749L8.17056 20.5749L7.42158 19.7022ZM7.52508 19.673L7.20091 20.7764L7.20092 20.7764L7.52508 19.673ZM7.81833 19.7592L8.1425 18.6558L8.14249 18.6558L7.81833 19.7592ZM8.11158 19.8453L7.78742 20.9487L7.78743 20.9487L8.11158 19.8453ZM8.21508 19.8661L8.09128 21.0094L8.09129 21.0094L8.21508 19.8661ZM8.50833 19.8979L8.63213 18.7546L8.63213 18.7546L8.50833 19.8979ZM8.80158 19.9296L8.67778 21.0729L8.6778 21.0729L8.80158 19.9296ZM8.90508 19.9355L8.89903 21.0855L8.89905 21.0855L8.90508 19.9355ZM9.19833 19.937L9.20437 18.7871L9.20437 18.7871L9.19833 19.937ZM9.49158 19.9386L9.48554 21.0886L9.48555 21.0886L9.49158 19.9386ZM9.59508 19.9577L9.20187 21.0384L9.20188 21.0384L9.59508 19.9577ZM9.88833 20.0644L10.2815 18.9837L10.2815 18.9837L9.88833 20.0644ZM10.1816 20.1711L9.78838 21.2518L9.78839 21.2518L10.1816 20.1711ZM10.2534 20.1757L10.9199 21.1128L10.9199 21.1128L10.2534 20.1757ZM10.3668 20.095L11.0334 21.0321L11.3302 20.821L11.4513 20.4775L10.3668 20.095ZM10.4003 20V18.85H9.58655L9.31583 19.6174L10.4003 20ZM10.5003 21.15C11.1355 21.15 11.6503 20.6351 11.6503 20C11.6503 19.3649 11.1355 18.85 10.5003 18.85V20V21.15ZM9.00002 7.37419C8.56235 6.91394 7.83444 6.89564 7.37419 7.33331C6.91394 7.77098 6.89564 8.49889 7.33331 8.95914L8.16667 8.16667L9.00002 7.37419ZM8.23558 8.23913L9.32002 7.85641L9.23825 7.62471L9.06893 7.44666L8.23558 8.23913ZM8.41845 8.75729L9.50289 8.37456L9.50289 8.37456L8.41845 8.75729ZM8.50328 8.87015L8.06915 9.93506L8.06916 9.93507L8.50328 8.87015ZM8.80114 8.99158L9.23526 7.92667L9.23526 7.92667L8.80114 8.99158ZM9.099 9.11301L8.66488 10.1779L8.66488 10.1779L9.099 9.11301ZM9.19981 9.15997L8.66189 10.1764L8.66189 10.1764L9.19981 9.15997ZM9.47321 9.30465L10.0111 8.28822L10.0111 8.28822L9.47321 9.30465ZM9.7466 9.44934L9.20868 10.4658L9.20869 10.4658L9.7466 9.44934ZM9.81584 9.52633L10.8807 9.0921L10.8807 9.0921L9.81584 9.52633ZM9.93474 9.81793L8.86988 10.2522L8.86988 10.2522L9.93474 9.81793ZM10.0537 10.1095L11.1185 9.6753L11.1185 9.67529L10.0537 10.1095ZM10.0966 10.2115L11.1511 9.75252L11.1511 9.75252L10.0966 10.2115ZM10.2212 10.4977L9.16676 10.9567L9.16676 10.9567L10.2212 10.4977ZM10.3458 10.7839L11.4002 10.3249L11.4002 10.3249L10.3458 10.7839ZM10.4322 10.8446L10.2527 11.9805L10.2527 11.9805L10.4322 10.8446ZM10.7971 10.9022L10.9766 9.76634L10.9766 9.76634L10.7971 10.9022ZM11.162 10.9599L10.9825 12.0958L10.9825 12.0958L11.162 10.9599ZM11.2397 11.0288L12.3611 10.7739L12.3611 10.7739L11.2397 11.0288ZM11.3154 11.3615L10.194 11.6165L10.194 11.6165L11.3154 11.3615ZM11.391 11.6943L12.5124 11.4394L12.5124 11.4394L11.391 11.6943ZM11.4321 11.798L12.411 11.1944L12.411 11.1944L11.4321 11.798ZM11.5894 12.0531L10.6106 12.6567L10.6106 12.6567L11.5894 12.0531ZM11.7468 12.3082L12.7256 11.7045L12.7256 11.7045L11.7468 12.3082ZM11.8168 12.3844L11.1342 13.3099L11.1342 13.3099L11.8168 12.3844ZM12.0565 12.5612L12.7391 11.6356L12.7391 11.6356L12.0565 12.5612ZM12.2961 12.7379L11.6135 13.6634L11.6135 13.6634L12.2961 12.7379ZM12.3826 12.7985L11.7451 13.7557L11.7451 13.7557L12.3826 12.7985ZM12.6329 12.9652L13.2703 12.0081L13.2703 12.0081L12.6329 12.9652ZM12.8831 13.1319L12.2457 14.089L12.2457 14.089L12.8831 13.1319ZM12.9328 13.1679L13.8196 12.4357L13.8196 12.4357L12.9328 13.1679ZM12.9637 13.2053L12.2072 14.0715L13.8505 12.4732L12.9637 13.2053ZM12.9311 13.1769L13.6876 12.3107L12.0977 13.9694L12.9311 13.1769ZM12.1666 14.0418C12.6043 14.5021 13.3322 14.5204 13.7925 14.0827C14.2527 13.645 14.271 12.9171 13.8334 12.4569L13 13.2493L12.1666 14.0418ZM20 3.33333H18.85V3.43333H20H21.15V3.33333H20ZM20 3.43333L18.8809 3.69831L18.9997 4.19981L20.1187 3.93483L21.2378 3.66986L21.1191 3.16836L20 3.43333ZM20.1187 3.93483L18.9997 4.1998C18.9843 4.13469 18.929 3.86278 19.0905 3.54886L20.1131 4.07508L21.1356 4.60131C21.3327 4.21839 21.2812 3.85298 21.2378 3.66987L20.1187 3.93483ZM20.1131 4.07508L19.0905 3.54885L18.9396 3.8421L19.9622 4.36833L20.9847 4.89457L21.1356 4.60132L20.1131 4.07508ZM19.9622 4.36833L18.9396 3.8421L18.7887 4.13535L19.8112 4.66158L20.8338 5.18781L20.9847 4.89456L19.9622 4.36833ZM19.8112 4.66158L18.7887 4.13534C18.61 4.48257 18.5973 4.89399 18.7703 5.25831L19.8092 4.76508L20.848 4.27185C20.9081 4.39828 20.9508 4.55683 20.9472 4.73625C20.9436 4.91501 20.8951 5.06874 20.8338 5.18782L19.8112 4.66158ZM19.8092 4.76508L18.7703 5.2583L18.9095 5.55155L19.9484 5.05833L20.9873 4.56511L20.848 4.27186L19.8092 4.76508ZM19.9484 5.05833L18.9095 5.55156L19.0488 5.84481L20.0876 5.35158L21.1265 4.85836L20.9873 4.56511L19.9484 5.05833ZM20.0876 5.35158L19.0488 5.8448C19.0277 5.80042 19.0073 5.74423 18.9941 5.67742L20.1224 5.45508L21.2507 5.23275C21.2239 5.09693 21.1803 4.97175 21.1265 4.85837L20.0876 5.35158ZM20.1224 5.45508L18.9941 5.67741L19.0519 5.97066L20.1802 5.74833L21.3085 5.52601L21.2507 5.23276L20.1224 5.45508ZM20.1802 5.74833L19.0519 5.97066L19.1097 6.26391L20.238 6.04158L21.3663 5.81925L21.3085 5.526L20.1802 5.74833ZM20.238 6.04158L19.1097 6.2639C19.0727 6.07652 19.0942 5.89268 19.1535 5.73647L20.2285 6.14508L21.3034 6.55369C21.3891 6.32848 21.4168 6.07564 21.3663 5.81927L20.238 6.04158ZM20.2285 6.14508L19.1535 5.73646L19.0421 6.02971L20.117 6.43833L21.192 6.84695L21.3034 6.5537L20.2285 6.14508ZM20.117 6.43833L19.0421 6.02972L18.9306 6.32297L20.0055 6.73158L21.0805 7.1402L21.192 6.84695L20.117 6.43833ZM20.0055 6.73158L18.9306 6.32295C18.8735 6.47317 18.8381 6.63906 18.8352 6.81567L19.985 6.83508L21.1348 6.8545C21.133 6.9621 21.1114 7.059 21.0805 7.14021L20.0055 6.73158ZM19.985 6.83508L18.8352 6.81565L18.8302 7.1089L19.98 7.12833L21.1299 7.14776L21.1348 6.85451L19.985 6.83508ZM19.98 7.12833L18.8302 7.10891L18.8253 7.40216L19.9751 7.42158L21.1249 7.44101L21.1299 7.14776L19.98 7.12833ZM19.9751 7.42158L18.8253 7.40214C18.8222 7.58085 18.8528 7.75068 18.9073 7.906L19.9924 7.52508L21.0775 7.14417C21.1078 7.23049 21.1268 7.33132 21.1249 7.44102L19.9751 7.42158ZM19.9924 7.52508L18.9073 7.90599L19.0102 8.19924L20.0953 7.81833L21.1804 7.43743L21.0775 7.14418L19.9924 7.52508ZM20.0953 7.81833L19.0102 8.19924L19.1132 8.49249L20.1983 8.11158L21.2833 7.73067L21.1804 7.43742L20.0953 7.81833ZM20.1983 8.11158L19.1132 8.49248C19.0679 8.36341 19.0486 8.21374 19.0701 8.0581L20.2093 8.21508L21.3485 8.37207C21.3795 8.14743 21.3529 7.92876 21.2834 7.73068L20.1983 8.11158ZM20.2093 8.21508L19.0701 8.05809L19.0297 8.35133L20.1689 8.50833L21.3081 8.66533L21.3485 8.37208L20.2093 8.21508ZM20.1689 8.50833L19.0297 8.35134L18.9892 8.64459L20.1285 8.80158L21.2677 8.95858L21.3081 8.66533L20.1689 8.50833ZM20.1285 8.80158L18.9892 8.64458C19.0076 8.51171 19.052 8.40526 19.096 8.32927L20.0914 8.90508L21.0869 9.4809C21.1707 9.3359 21.2399 9.16045 21.2677 8.95859L20.1285 8.80158ZM20.0914 8.90508L19.096 8.32926L18.9263 8.62251L19.9218 9.19833L20.9172 9.77416L21.0869 9.48091L20.0914 8.90508ZM19.9218 9.19833L18.9263 8.62251L18.7567 8.91576L19.7521 9.49158L20.7476 10.0674L20.9172 9.77416L19.9218 9.19833ZM19.7521 9.49158L18.7567 8.91575C18.6666 9.07151 18.5535 9.34603 18.6005 9.69316C18.6501 10.0598 18.8515 10.316 19.0325 10.4652L19.7638 9.57758L20.495 8.69001C20.6483 8.81633 20.834 9.04679 20.8797 9.38476C20.9228 9.70322 20.8177 9.94616 20.7476 10.0674L19.7521 9.49158ZM19.7638 9.57758L19.0325 10.4652L19.2681 10.6592L19.9994 9.77167L20.7306 8.8841L20.495 8.69002L19.7638 9.57758ZM19.9994 9.77167L19.2681 10.6592L19.5037 10.8533L20.2349 9.96575L20.9662 9.07818L20.7306 8.8841L19.9994 9.77167ZM20.2349 9.96575L19.5037 10.8533C19.4951 10.8463 19.4723 10.8272 19.4435 10.7987C19.4261 10.7816 19.3501 10.7069 19.2784 10.5891C19.243 10.5308 19.1724 10.4041 19.1359 10.2258C19.0968 10.0345 19.0871 9.71984 19.2772 9.40431C19.463 9.09613 19.7344 8.96202 19.8989 8.90761C20.0583 8.85492 20.1918 8.85 20.2557 8.85L20.2558 10L20.2558 11.15C20.3232 11.15 20.4595 11.1447 20.621 11.0913C20.7877 11.0362 21.0607 10.901 21.2472 10.5914C21.4382 10.2744 21.4288 9.95805 21.3892 9.76459C21.3523 9.58411 21.2806 9.45492 21.2434 9.39378C21.1683 9.27022 21.0862 9.18848 21.0601 9.16275C21.0226 9.12568 20.9886 9.09666 20.9662 9.07818L20.2349 9.96575ZM20.2558 10L20.2558 8.85L20.1383 8.85L20.1382 10L20.1382 11.15L20.2558 11.15L20.2558 10ZM20.1382 10L20.8122 9.06821L20.674 8.96821L20 9.9L19.326 10.8318L19.4643 10.9318L20.1382 10ZM20 9.9H18.85V10H20H21.15V9.9H20ZM27 13L27.8328 13.7931L27.9017 13.7207L27.069 12.9276L26.2362 12.1345L26.1672 12.2069L27 13ZM27.069 12.9276L28.0438 13.5376L28.3154 13.1037L27.3405 12.4937L26.3657 11.8836L26.0941 12.3175L27.069 12.9276ZM27.3405 12.4937L28.3154 13.1037C28.3026 13.1242 28.2746 13.166 28.2277 13.216C28.1816 13.2652 28.1011 13.3396 27.9808 13.4043L27.4364 12.3913L26.892 11.3783C26.6037 11.5333 26.4416 11.7622 26.3657 11.8836L27.3405 12.4937ZM27.4364 12.3913L27.9808 13.4043L28.2526 13.2582L27.7082 12.2452L27.1639 11.2322L26.892 11.3783L27.4364 12.3913ZM27.7082 12.2452L28.2526 13.2582L28.5244 13.1121L27.9801 12.0991L27.4357 11.0861L27.1639 11.2322L27.7082 12.2452ZM27.9801 12.0991L28.5244 13.1121C28.7389 12.9969 28.9215 12.8245 29.0488 12.6057L28.0548 12.0274L27.0608 11.4491C27.1524 11.2916 27.2852 11.167 27.4357 11.0862L27.9801 12.0991ZM28.0548 12.0274L29.0488 12.6057L29.2004 12.3451L28.2064 11.7668L27.2124 11.1885L27.0608 11.4491L28.0548 12.0274ZM28.2064 11.7668L29.2004 12.3451L29.352 12.0845L28.358 11.5062L27.364 10.9279L27.2124 11.1885L28.2064 11.7668ZM28.358 11.5062L29.352 12.0845C29.2746 12.2175 29.1651 12.3295 29.0363 12.4094L28.4302 11.4321L27.8241 10.4547C27.6347 10.5722 27.477 10.7336 27.364 10.9279L28.358 11.5062ZM28.4302 11.4321L29.0363 12.4094L29.2938 12.2497L28.6877 11.2724L28.0817 10.295L27.8241 10.4547L28.4302 11.4321ZM28.6877 11.2724L29.2938 12.2497L29.5513 12.09L28.9453 11.1127L28.3392 10.1353L28.0817 10.295L28.6877 11.2724ZM28.9453 11.1127L29.5513 12.09C29.6658 12.019 29.7728 11.9322 29.8683 11.8294L29.0259 11.0466L28.1835 10.2637C28.2321 10.2115 28.2853 10.1687 28.3392 10.1353L28.9453 11.1127ZM29.0259 11.0466L29.8684 11.8294L30.068 11.6146L29.2256 10.8317L28.3832 10.0489L28.1835 10.2637L29.0259 11.0466ZM29.2256 10.8317L30.068 11.6146L30.2676 11.3997L29.4252 10.6169L28.5828 9.83406L28.3832 10.0489L29.2256 10.8317ZM29.4252 10.6169L30.2676 11.3997C30.2057 11.4664 30.1371 11.5182 30.0689 11.5564L29.5077 10.5526L28.9466 9.54875C28.8153 9.62216 28.6917 9.71688 28.5828 9.83408L29.4252 10.6169ZM29.5077 10.5526L30.0689 11.5564L30.3368 11.4066L29.7757 10.4028L29.2145 9.39897L28.9466 9.54876L29.5077 10.5526ZM29.7757 10.4028L30.3368 11.4066L30.6048 11.2568L30.0436 10.253L29.4825 9.24919L29.2145 9.39897L29.7757 10.4028ZM30.0436 10.253L30.6048 11.2568C30.9224 11.0792 31.1244 10.7929 31.212 10.4893L30.1071 10.1705L29.0021 9.85174C29.0319 9.74868 29.0843 9.63149 29.1716 9.51799C29.26 9.40308 29.3678 9.31328 29.4825 9.24919L30.0436 10.253ZM30.1071 10.1705L31.212 10.4892L31.3037 10.1716L30.1987 9.85282L29.0938 9.53408L29.0021 9.85176L30.1071 10.1705ZM30.1987 9.85282L31.3037 10.1716L31.3953 9.85388L30.2904 9.53514L29.1854 9.21639L29.0938 9.53407L30.1987 9.85282ZM30.2904 9.53514L31.3953 9.85386C31.3697 9.94252 31.3225 10.0485 31.2405 10.152L30.3388 9.43833L29.4371 8.72461C29.3121 8.88252 29.2325 9.053 29.1854 9.21641L30.2904 9.53514ZM30.3388 9.43833L31.2405 10.152L31.4233 9.92112L30.5215 9.20742L29.6198 8.49372L29.437 8.72462L30.3388 9.43833ZM30.5215 9.20742L31.4233 9.92113L31.606 9.69022L30.7043 8.97651L29.8026 8.2628L29.6198 8.49371L30.5215 9.20742ZM30.7043 8.97651L31.606 9.6902C31.4638 9.86988 31.285 9.96981 31.1333 10.0168L30.7932 8.91823L30.4531 7.81967C30.2258 7.89003 29.9878 8.02881 29.8026 8.26282L30.7043 8.97651ZM30.7932 8.91823L31.1333 10.0168L31.4542 9.91743L31.1141 8.81888L30.774 7.72032L30.4531 7.81968L30.7932 8.91823ZM31.1141 8.81888L31.4542 9.91743L31.7751 9.81808L31.435 8.71953L31.0949 7.62097L30.774 7.72032L31.1141 8.81888ZM31.435 8.71953L31.7751 9.81808C32.1241 9.71002 32.4335 9.4513 32.5831 9.06848L31.512 8.64991L30.4408 8.23134C30.4938 8.09577 30.5817 7.95751 30.7112 7.8404C30.8391 7.72478 30.9766 7.65759 31.0949 7.62097L31.435 8.71953ZM31.512 8.64991L32.5831 9.06846L32.6984 8.77333L31.6273 8.35478L30.5562 7.93623L30.4408 8.23136L31.512 8.64991ZM31.6273 8.35478L32.6984 8.77334L32.8137 8.47821L31.7426 8.05966L30.6715 7.6411L30.5562 7.93623L31.6273 8.35478ZM31.7426 8.05966L32.8137 8.47819C32.8287 8.43988 32.8451 8.39689 32.8589 8.35729L31.7724 7.98027L30.686 7.60326C30.6871 7.60002 30.6867 7.60141 30.6837 7.60931C30.681 7.61663 30.677 7.62707 30.6715 7.64112L31.7426 8.05966ZM31.7724 7.98027L32.8589 8.35725L32.9126 8.20255L31.8261 7.82558L30.7397 7.4486L30.686 7.6033L31.7724 7.98027ZM31.8261 7.82558L32.9126 8.20256L32.9662 8.04786L31.8798 7.67088L30.7933 7.29389L30.7397 7.44859L31.8261 7.82558ZM31.8798 7.67088L32.9663 8.04783C32.965 8.05143 32.906 8.24529 32.7356 8.43065C32.6421 8.53237 32.4024 8.75395 32.0096 8.79386C31.576 8.8379 31.2616 8.63388 31.1045 8.48433L31.8976 7.65151L32.6906 6.81869C32.5308 6.66649 32.2136 6.4613 31.7771 6.50563C31.3814 6.54583 31.1388 6.76918 31.0423 6.87412C30.866 7.06593 30.8009 7.27213 30.7933 7.29393L31.8798 7.67088ZM31.8976 7.65151L31.1045 8.48429L31.1517 8.52924L31.9448 7.69646L32.7379 6.86369L32.6907 6.81873L31.8976 7.65151ZM31.9448 7.69646L30.8013 7.57391L30.7879 7.69921L31.9314 7.82176L33.0748 7.94432L33.0882 7.81902L31.9448 7.69646ZM31.9314 7.82176L32.7641 8.61484L32.8331 8.54243L32.0003 7.74935L31.1675 6.95627L31.0986 7.02869L31.9314 7.82176ZM30 20V21.15H30.1V20V18.85H30V20ZM30.1 20L30.0291 21.1478L30.5306 21.1788L30.6015 20.031L30.6724 18.8832L30.1709 18.8522L30.1 20ZM30.6015 20.031L30.5306 21.1788C30.5966 21.1829 30.6629 21.1862 30.7224 21.1872L30.7418 20.0373L30.7611 18.8875C30.7516 18.8873 30.7244 18.8864 30.6724 18.8832L30.6015 20.031ZM30.7418 20.0373L30.7224 21.1872L31.0157 21.1921L31.035 20.0422L31.0543 18.8924L30.7611 18.8875L30.7418 20.0373ZM31.035 20.0422L31.0157 21.1921L31.3089 21.197L31.3283 20.0472L31.3476 18.8973L31.0543 18.8924L31.035 20.0422ZM31.3283 20.0472L31.3089 21.197C31.2781 21.1965 31.2485 21.1933 31.2209 21.1882L31.4318 20.0577L31.6426 18.9272C31.546 18.9092 31.4474 18.899 31.3476 18.8973L31.3283 20.0472ZM31.4318 20.0577L31.2209 21.1882L31.5142 21.2429L31.725 20.1124L31.9358 18.9819L31.6426 18.9272L31.4318 20.0577ZM31.725 20.1124L31.5142 21.2429L31.8074 21.2976L32.0183 20.1671L32.2291 19.0366L31.9358 18.9819L31.725 20.1124ZM32.0183 20.1671L31.8074 21.2976C31.8605 21.3075 31.9138 21.3161 31.9674 21.3233L32.1218 20.1837L32.2761 19.0441C32.2607 19.042 32.245 19.0395 32.2291 19.0366L32.0183 20.1671ZM32.1218 20.1837L31.9674 21.3233L32.2606 21.363L32.415 20.2234L32.5694 19.0839L32.2761 19.0441L32.1218 20.1837ZM32.415 20.2234L32.2606 21.363L32.5539 21.4028L32.7083 20.2632L32.8626 19.1236L32.5694 19.0839L32.415 20.2234ZM32.7083 20.2632L32.5539 21.4028C32.9675 21.4588 33.3036 21.3039 33.5164 21.1389L32.8118 20.23L32.1071 19.3212C32.2509 19.2097 32.518 19.0769 32.8626 19.1236L32.7083 20.2632ZM32.8118 20.23L33.5164 21.1389L33.8097 20.9115L33.105 20.0027L32.4003 19.0939L32.1071 19.3212L32.8118 20.23ZM33.105 20.0027L33.8097 20.9115L34.1029 20.6841L33.3983 19.7753L32.6936 18.8665L32.4003 19.0939L33.105 20.0027ZM33.3983 19.7753L34.1029 20.6841C33.9596 20.7953 33.6933 20.9279 33.3495 20.882L33.5018 19.7421L33.654 18.6022C33.2412 18.5471 32.9059 18.7018 32.6936 18.8665L33.3983 19.7753ZM33.5018 19.7421L33.3495 20.882L33.6427 20.9211L33.795 19.7813L33.9473 18.6414L33.654 18.6022L33.5018 19.7421ZM33.795 19.7813L33.6427 20.9211L33.936 20.9603L34.0883 19.8204L34.2405 18.6806L33.9473 18.6414L33.795 19.7813ZM34.0883 19.8204L33.936 20.9603C33.8663 20.951 33.8057 20.9332 33.7556 20.9127L34.1918 19.8486L34.6279 18.7845C34.5088 18.7357 34.3792 18.6991 34.2405 18.6806L34.0883 19.8204ZM34.1918 19.8486L33.7556 20.9127L34.0489 21.0329L34.485 19.9688L34.9211 18.9047L34.6279 18.7845L34.1918 19.8486ZM34.485 19.9688L34.0489 21.0329L34.3421 21.153L34.7783 20.089L35.2144 19.0249L34.9211 18.9047L34.485 19.9688ZM34.7783 20.089L34.3421 21.1531C34.5173 21.2248 34.716 21.2658 34.9287 21.2571L34.8818 20.1081L34.8348 18.959C34.9785 18.9531 35.1082 18.9814 35.2144 19.0249L34.7783 20.089ZM34.8818 20.1081L34.9287 21.2571L35.222 21.2451L35.175 20.0961L35.128 18.947L34.8348 18.959L34.8818 20.1081ZM35.175 20.0961L35.2219 21.2451L35.5152 21.2331L35.4683 20.0841L35.4213 18.9351L35.1281 18.947L35.175 20.0961ZM35.4683 20.0841L35.5152 21.2331C35.6621 21.2271 35.8022 21.1999 35.9329 21.1567L35.5718 20.0649L35.2106 18.973C35.2723 18.9526 35.3434 18.9382 35.4213 18.9351L35.4683 20.0841ZM35.5718 20.0649L35.9329 21.1567L36.2262 21.0597L35.865 19.9678L35.5038 18.876L35.2106 18.9731L35.5718 20.0649ZM35.865 19.9678L36.2262 21.0597L36.5194 20.9626L36.1583 19.8708L35.7971 18.779L35.5038 18.876L35.865 19.9678ZM36.1583 19.8708L36.5195 20.9626C36.5313 20.9587 36.5403 20.9559 36.5466 20.9539C36.5532 20.9519 36.5554 20.9513 36.554 20.9516L36.2443 19.8441L35.9345 18.7366C35.8879 18.7497 35.8407 18.7646 35.797 18.779L36.1583 19.8708ZM36.2443 19.8441L36.554 20.9516L36.7481 20.8973L36.4383 19.7898L36.1285 18.6824L35.9345 18.7366L36.2443 19.8441ZM36.4383 19.7898L36.7481 20.8973L36.9422 20.843L36.6324 19.7356L36.3226 18.6281L36.1286 18.6824L36.4383 19.7898ZM36.6324 19.7356L36.9422 20.843C36.9128 20.8513 36.6408 20.9355 36.3073 20.8287C36.1003 20.7624 35.8685 20.6206 35.7037 20.3701C35.548 20.1334 35.5167 19.8974 35.5167 19.7466L36.6667 19.7465L37.8167 19.7465C37.8167 19.5888 37.7839 19.3472 37.6253 19.1062C37.4577 18.8514 37.2216 18.7064 37.0089 18.6383C36.664 18.5278 36.3749 18.6135 36.3226 18.6281L36.6324 19.7356ZM36.6667 19.7465L35.5167 19.7465L35.5167 19.863L36.6667 19.863L37.8167 19.863L37.8167 19.7465L36.6667 19.7465ZM36.6667 19.863L35.7378 19.185L35.6378 19.322L36.5667 20L37.4956 20.678L37.5956 20.541L36.6667 19.863ZM36.5667 20V21.15H36.6667V20V18.85H36.5667V20ZM27 27L26.1868 27.8132L26.2575 27.8839L27.0707 27.0707L27.8839 26.2575L27.8132 26.1868L27 27ZM27.0707 27.0707L26.5496 28.0959L27.0198 28.3349L27.5409 27.3097L28.062 26.2846L27.5918 26.0456L27.0707 27.0707ZM27.5409 27.3097L27.0198 28.3349C27.0165 28.3332 26.9962 28.3228 26.966 28.3023C26.9384 28.2836 26.88 28.2413 26.8148 28.1707L27.6591 27.3899L28.5034 26.6091C28.3413 26.4339 28.1579 26.3333 28.062 26.2846L27.5409 27.3097ZM27.6591 27.3899L26.8148 28.1707L27.014 28.3862L27.8583 27.6054L28.7026 26.8246L28.5034 26.6091L27.6591 27.3899ZM27.8583 27.6054L27.014 28.3862L27.2133 28.6017L28.0576 27.8209L28.9019 27.0401L28.7026 26.8246L27.8583 27.6054ZM28.0576 27.8209L27.2133 28.6017C27.223 28.6121 27.2324 28.6229 27.2417 28.6341L28.126 27.8988L29.0102 27.1636C28.9752 27.1215 28.9391 27.0803 28.9019 27.0401L28.0576 27.8209ZM28.126 27.8988L27.2417 28.6341L27.43 28.8605L28.3143 28.1253L29.1985 27.39L29.0102 27.1636L28.126 27.8988ZM28.3143 28.1253L27.43 28.8605L27.6183 29.087L28.5025 28.3517L29.3868 27.6164L29.1985 27.39L28.3143 28.1253ZM28.5025 28.3517L27.6183 29.087C27.7423 29.2361 27.8911 29.3525 28.0524 29.4365L28.5839 28.4167L29.1154 27.3969C29.2125 27.4476 29.3071 27.5206 29.3868 27.6164L28.5025 28.3517ZM28.5839 28.4167L28.0524 29.4365L28.325 29.5786L28.8565 28.5588L29.388 27.539L29.1154 27.3969L28.5839 28.4167ZM28.8565 28.5588L28.325 29.5786L28.5976 29.7207L29.1291 28.7009L29.6607 27.6811L29.388 27.539L28.8565 28.5588ZM29.1291 28.7009L28.5976 29.7207C28.4266 29.6316 28.2791 29.4945 28.1772 29.3223C28.0807 29.1592 28.0485 29.0053 28.0387 28.901L29.1836 28.7929L30.3285 28.6847C30.2976 28.3576 30.1232 27.9222 29.6606 27.6811L29.1291 28.7009ZM29.1836 28.7929L28.0387 28.901L28.0745 29.2799L29.2194 29.1718L30.3643 29.0636L30.3285 28.6847L29.1836 28.7929ZM29.2194 29.1718L28.0745 29.2799L28.1103 29.6589L29.2552 29.5507L30.4001 29.4425L30.3643 29.0636L29.2194 29.1718ZM29.2552 29.5507L28.1102 29.6588C28.1293 29.861 28.1977 30.1261 28.3911 30.3711L29.2938 29.6585L30.1964 28.9459C30.3467 29.1363 30.3894 29.3295 30.4001 29.4426L29.2552 29.5507ZM29.2938 29.6585L28.3911 30.3711L28.5741 30.6028L29.4767 29.8902L30.3793 29.1776L30.1964 28.9459L29.2938 29.6585ZM29.4767 29.8902L28.5741 30.6028L28.7571 30.8346L29.6597 30.122L30.5623 29.4094L30.3793 29.1776L29.4767 29.8902ZM29.6597 30.122L28.7571 30.8346C28.9652 31.0982 29.2384 31.2373 29.4861 31.2959L29.7511 30.1769L30.0161 29.0578C30.185 29.0978 30.3972 29.2003 30.5623 29.4094L29.6597 30.122ZM29.7511 30.1769L29.4862 31.2959L29.8215 31.3753L30.0865 30.2563L30.3515 29.1372L30.0161 29.0578L29.7511 30.1769ZM30.0865 30.2563L29.8215 31.3753L30.1568 31.4547L30.4218 30.3357L30.6868 29.2166L30.3515 29.1372L30.0865 30.2563ZM30.4218 30.3357L30.1568 31.4547C30.0116 31.4204 29.8326 31.3433 29.6726 31.1893C29.5117 31.0345 29.4257 30.8555 29.3853 30.7041L30.4964 30.4075L31.6075 30.1109C31.5568 29.921 31.4532 29.7107 31.2674 29.532C31.0825 29.3541 30.8714 29.2604 30.6868 29.2166L30.4218 30.3357ZM30.4964 30.4075L29.3853 30.704L29.4726 31.0314L30.5837 30.7348L31.6948 30.4382L31.6075 30.1109L30.4964 30.4075ZM30.5837 30.7348L29.4726 31.0314L29.56 31.3587L30.6711 31.0622L31.7822 30.7656L31.6948 30.4382L30.5837 30.7348ZM30.6711 31.0622L29.56 31.3587C29.6102 31.5468 29.7123 31.755 29.895 31.933C30.0772 32.1104 30.2861 32.2057 30.4706 32.2511L30.7453 31.1344L31.02 30.0177C31.1653 30.0534 31.3422 30.1319 31.4997 30.2852C31.6577 30.4391 31.7423 30.616 31.7822 30.7656L30.6711 31.0622ZM30.7453 31.1344L30.4706 32.2511L30.8034 32.333L31.0781 31.2162L31.3528 30.0995L31.02 30.0177L30.7453 31.1344ZM31.0781 31.2162L30.8034 32.333L31.1363 32.4148L31.411 31.2981L31.6857 30.1814L31.3528 30.0995L31.0781 31.2162ZM31.411 31.2981L31.1363 32.4148C31.0083 32.3834 30.8356 32.3134 30.6754 32.1644C30.5098 32.0105 30.4139 31.8243 30.3695 31.6517L31.4833 31.3653L32.597 31.079C32.5436 30.8712 32.4311 30.6562 32.2414 30.4799C32.0571 30.3085 31.8528 30.2225 31.6857 30.1814L31.411 31.2981ZM31.4833 31.3653L30.3695 31.6517L30.4464 31.9507L31.5601 31.6643L32.6739 31.378L32.597 31.079L31.4833 31.3653ZM31.5601 31.6643L30.4464 31.9507L30.5232 32.2497L31.637 31.9633L32.7508 31.677L32.6739 31.378L31.5601 31.6643ZM31.637 31.9633L30.5232 32.2497C30.5292 32.273 30.5737 32.4659 30.7077 32.6579C30.768 32.7441 30.9873 33.0382 31.4179 33.1299C31.9387 33.2408 32.3166 32.9764 32.4774 32.8156L31.6643 32.0024L30.8512 31.1892C31.0074 31.0329 31.3807 30.7704 31.897 30.8803C32.3231 30.971 32.5378 31.2613 32.5935 31.3411C32.6693 31.4496 32.7067 31.545 32.7201 31.5806C32.737 31.6255 32.7465 31.6605 32.7508 31.677L31.637 31.9633ZM31.6643 32.0024L32.4775 32.8155L32.5551 32.7379L31.742 31.9247L30.9288 31.1115L30.8511 31.1892L31.6643 32.0024ZM31.742 31.9247L32.8827 32.0702L32.9034 31.9081L31.7626 31.7626L30.6219 31.6172L30.6012 31.7793L31.742 31.9247ZM31.7626 31.7626L30.9495 32.5758L31.0202 32.6465L31.8333 31.8333L32.6465 31.0202L32.5758 30.9495L31.7626 31.7626ZM20 30H18.85V30.1H20H21.15V30H20ZM20 30.1L18.88 29.8392L18.7632 30.3407L19.8832 30.6015L21.0033 30.8623L21.12 30.3608L20 30.1ZM19.8832 30.6015L18.7632 30.3407C18.7472 30.4092 18.7311 30.4838 18.7194 30.5543L19.8541 30.7418L20.9887 30.9292C20.9882 30.932 20.9889 30.9279 20.9916 30.9149C20.9942 30.9024 20.9979 30.8851 21.0033 30.8623L19.8832 30.6015ZM19.8541 30.7418L18.7195 30.5543L18.671 30.8476L19.8056 31.035L20.9403 31.2224L20.9887 30.9292L19.8541 30.7418ZM19.8056 31.035L18.671 30.8476L18.6226 31.1408L19.7572 31.3283L20.8918 31.5157L20.9403 31.2224L19.8056 31.035ZM19.7572 31.3283L18.6226 31.1408C18.5619 31.5084 18.6692 31.8299 18.819 32.0598L19.7824 31.4318L20.7458 30.8037C20.8506 30.9646 20.9411 31.2171 20.8918 31.5157L19.7572 31.3283ZM19.7824 31.4318L18.819 32.0598L19.0102 32.353L19.9735 31.725L20.9369 31.097L20.7458 30.8037L19.7824 31.4318ZM19.9735 31.725L19.0102 32.353L19.2013 32.6463L20.1647 32.0183L21.1281 31.3902L20.9369 31.097L19.9735 31.725ZM20.1647 32.0183L19.2013 32.6463C19.147 32.563 19.0906 32.4476 19.0606 32.3021C19.0298 32.1529 19.0328 31.9993 19.0677 31.8537L20.186 32.1218L21.3044 32.3898C21.3983 31.998 21.2929 31.643 21.1281 31.3902L20.1647 32.0183ZM20.186 32.1218L19.0677 31.8537L18.9974 32.1469L20.1157 32.415L21.2341 32.6831L21.3044 32.3898L20.186 32.1218ZM20.1157 32.415L18.9974 32.1469L18.9271 32.4402L20.0455 32.7083L21.1638 32.9763L21.2341 32.6831L20.1157 32.415ZM20.0455 32.7083L18.9271 32.4402C18.8611 32.7156 18.8878 32.9912 18.9842 33.2349L20.0535 32.8118L21.1229 32.3886C21.192 32.5633 21.2132 32.7699 21.1638 32.9763L20.0455 32.7083ZM20.0535 32.8118L18.9842 33.2349L19.1002 33.5281L20.1696 33.105L21.2389 32.6819L21.1229 32.3886L20.0535 32.8118ZM20.1696 33.105L19.1002 33.5281L19.2163 33.8214L20.2856 33.3983L21.3549 32.9751L21.2389 32.6819L20.1696 33.105ZM20.2856 33.3983L19.2163 33.8214C19.1628 33.6862 19.1334 33.5266 19.1476 33.3551C19.1616 33.186 19.2146 33.0451 19.2742 32.9389L20.277 33.5018L21.2799 34.0646C21.4558 33.7512 21.5053 33.3553 21.3549 32.9751L20.2856 33.3983ZM20.277 33.5018L19.2742 32.9389L19.1096 33.2322L20.1124 33.795L21.1153 34.3578L21.2799 34.0646L20.277 33.5018ZM20.1124 33.795L19.1096 33.2322L18.945 33.5254L19.9479 34.0883L20.9507 34.6511L21.1153 34.3578L20.1124 33.795ZM19.9479 34.0883L18.945 33.5254C18.8202 33.7478 18.743 34.0336 18.787 34.3502L19.926 34.1918L21.0651 34.0333C21.0995 34.2809 21.0368 34.4977 20.9507 34.6511L19.9479 34.0883ZM19.926 34.1918L18.787 34.3501L18.8278 34.6434L19.9668 34.485L21.1058 34.3266L21.0651 34.0334L19.926 34.1918ZM19.9668 34.485L18.8278 34.6434L18.8685 34.9366L20.0076 34.7783L21.1466 34.6199L21.1058 34.3266L19.9668 34.485ZM20.0076 34.7783L18.8685 34.9366C18.8666 34.9226 18.8654 34.9077 18.8653 34.8922L20.0152 34.8818L21.1652 34.8713C21.1644 34.7868 21.1582 34.7029 21.1466 34.6199L20.0076 34.7783ZM20.0152 34.8818L18.8653 34.8922L18.868 35.1855L20.0179 35.175L21.1679 35.1645L21.1652 34.8713L20.0152 34.8818ZM20.0179 35.175L18.868 35.1855L18.8706 35.4787L20.0206 35.4683L21.1705 35.4578L21.1679 35.1645L20.0179 35.175ZM20.0206 35.4683L18.8706 35.4787C18.8718 35.6027 18.8873 35.7237 18.9153 35.8404L20.0335 35.5718L21.1517 35.3031C21.1631 35.3508 21.17 35.4029 21.1705 35.4578L20.0206 35.4683ZM20.0335 35.5718L18.9153 35.8404L18.9858 36.1337L20.1039 35.865L21.2221 35.5963L21.1517 35.3031L20.0335 35.5718ZM20.1039 35.865L18.9858 36.1337L19.0562 36.4269L20.1744 36.1583L21.2926 35.8896L21.2221 35.5963L20.1039 35.865ZM20.1744 36.1583L19.0562 36.4269C19.05 36.4009 19.0415 36.3593 19.0368 36.3055C19.0322 36.2524 19.0301 36.1745 19.0437 36.0801L20.1819 36.2443L21.3201 36.4084C21.3523 36.1852 21.3185 35.9976 21.2926 35.8896L20.1744 36.1583ZM20.1819 36.2443L19.0437 36.0801L19.0157 36.2742L20.1539 36.4383L21.2921 36.6025L21.3201 36.4084L20.1819 36.2443ZM20.1539 36.4383L19.0157 36.2742L18.9877 36.4682L20.1259 36.6324L21.2641 36.7966L21.2921 36.6025L20.1539 36.4383ZM20.1259 36.6324L18.9877 36.4682C18.99 36.4522 19.0038 36.3493 19.0556 36.2226C19.0805 36.1616 19.1438 36.0201 19.2778 35.8774C19.4263 35.7192 19.709 35.5167 20.1118 35.5167L20.1119 36.6667L20.112 37.8167C20.5178 37.8166 20.8034 37.6127 20.9546 37.4517C21.0912 37.3061 21.157 37.1603 21.1843 37.0936C21.2408 36.9555 21.2585 36.8354 21.2641 36.7966L20.1259 36.6324ZM20.1119 36.6667L20.1119 35.5167L20.0605 35.5167L20.0605 36.6667L20.0605 37.8167L20.1119 37.8167L20.1119 36.6667ZM20.0605 36.6667L21.0445 36.0715L20.984 35.9715L20 36.5667L19.016 37.1618L19.0765 37.2618L20.0605 36.6667ZM20 36.5667H18.85V36.6667H20H21.15V36.5667H20ZM8.16667 31.8333L8.97984 32.6465L9.05055 32.5758L8.23738 31.7626L7.4242 30.9495L7.35349 31.0202L8.16667 31.8333ZM8.23738 31.7626L9.09115 32.5331L9.42757 32.1603L8.5738 31.3898L7.72003 30.6194L7.38361 30.9922L8.23738 31.7626ZM8.5738 31.3898L9.42757 32.1603C9.41321 32.1762 9.38377 32.2068 9.33816 32.2424C9.29318 32.2774 9.21935 32.3275 9.11634 32.3691L8.68528 31.303L8.25422 30.2368C7.99136 30.3431 7.81602 30.513 7.72002 30.6194L8.5738 31.3898ZM8.68528 31.303L9.11636 32.3691L9.41167 32.2497L8.98059 31.1836L8.54952 30.1174L8.2542 30.2368L8.68528 31.303ZM8.98059 31.1836L9.41167 32.2497L9.70698 32.1303L9.27591 31.0641L8.84484 29.998L8.54952 30.1174L8.98059 31.1836ZM9.27591 31.0641L9.707 32.1303C9.92996 32.0401 10.139 31.8869 10.2956 31.6669L9.35844 31.0003L8.42133 30.3337C8.5373 30.1707 8.69134 30.0601 8.84482 29.998L9.27591 31.0641ZM9.35844 31.0003L10.2956 31.6669L10.4679 31.4245L9.53082 30.758L8.59369 30.0914L8.42132 30.3338L9.35844 31.0003ZM9.53082 30.758L10.4679 31.4245L10.6403 31.1822L9.70319 30.5156L8.76607 29.8491L8.5937 30.0914L9.53082 30.758ZM9.70319 30.5156L10.6403 31.1822C10.7322 31.0529 10.7974 30.9174 10.842 30.7846L9.75203 30.4181L8.66201 30.0515C8.6821 29.9918 8.7147 29.9213 8.76606 29.8491L9.70319 30.5156ZM9.75203 30.4181L10.842 30.7846L10.9464 30.4743L9.85639 30.1077L8.76637 29.7412L8.66201 30.0515L9.75203 30.4181ZM9.85639 30.1077L10.9464 30.4743L11.0508 30.1639L9.96075 29.7974L8.87073 29.4308L8.76637 29.7412L9.85639 30.1077ZM9.96075 29.7974L11.0508 30.1639C11.009 30.2882 10.9353 30.4256 10.8159 30.5495C10.6961 30.6737 10.5595 30.7541 10.4315 30.8014L10.0326 29.7228L9.63365 28.6443C9.26642 28.7801 8.99199 29.0702 8.87073 29.4308L9.96075 29.7974ZM10.0326 29.7228L10.4316 30.8014L10.7343 30.6894L10.3353 29.6109L9.93637 28.5323L9.63363 28.6443L10.0326 29.7228ZM10.3353 29.6109L10.7343 30.6894L11.037 30.5775L10.6381 29.4989L10.2391 28.4203L9.93638 28.5323L10.3353 29.6109ZM10.6381 29.4989L11.037 30.5775C11.2857 30.4855 11.5196 30.3151 11.6843 30.0619L10.7203 29.4348L9.75639 28.8076C9.88264 28.6136 10.0617 28.486 10.2391 28.4203L10.6381 29.4989ZM10.7203 29.4348L11.6843 30.0619L11.8478 29.8107L10.8838 29.1835L9.91985 28.5564L9.75638 28.8077L10.7203 29.4348ZM10.8838 29.1835L11.8478 29.8107L12.0112 29.5594L11.0473 28.9323L10.0833 28.3051L9.91985 28.5564L10.8838 29.1835ZM11.0473 28.9323L12.0112 29.5594C12.0558 29.4908 12.0957 29.4204 12.1312 29.3487L11.1003 28.839L10.0694 28.3293C10.0726 28.3228 10.0772 28.3146 10.0833 28.3052L11.0473 28.9323ZM11.1003 28.839L12.1312 29.3486L12.2684 29.0711L11.2375 28.5614L10.2066 28.0518L10.0694 28.3293L11.1003 28.839ZM11.2375 28.5614L12.2684 29.0711L12.4056 28.7936L11.3747 28.2839L10.3439 27.7743L10.2066 28.0518L11.2375 28.5614ZM11.3747 28.2839L12.4056 28.7936C12.3745 28.8566 12.3311 28.9221 12.2733 28.9838L11.4344 28.1972L10.5954 27.4106C10.4904 27.5226 10.4073 27.646 10.3438 27.7743L11.3747 28.2839ZM11.4344 28.1972L12.2733 28.9837L12.474 28.7697L11.635 27.9831L10.7961 27.1966L10.5954 27.4106L11.4344 28.1972ZM11.635 27.9831L12.474 28.7697L12.6747 28.5557L11.8357 27.7691L10.9968 26.9826L10.7961 27.1966L11.635 27.9831ZM11.8357 27.7691L12.6747 28.5556C12.7021 28.5264 12.7294 28.4969 12.7564 28.4671L11.906 27.693L11.0556 26.9189C11.0361 26.9403 11.0165 26.9615 10.9967 26.9826L11.8357 27.7691ZM11.906 27.693L12.7564 28.4671L12.9541 28.25L12.1036 27.4759L11.2532 26.7018L11.0556 26.9189L11.906 27.693ZM12.1036 27.4759L12.9541 28.25L13.1517 28.0329L12.3012 27.2588L11.4508 26.4847L11.2532 26.7018L12.1036 27.4759ZM12.3012 27.2588L13.1517 28.0329C13.1596 28.0242 13.1648 28.019 13.1673 28.0166L12.3699 27.188L11.5725 26.3593C11.5299 26.4003 11.4894 26.4423 11.4508 26.4847L12.3012 27.2588ZM12.3699 27.188L13.1673 28.0166L13.3588 27.8323L12.5615 27.0037L11.7641 26.175L11.5725 26.3593L12.3699 27.188ZM12.5615 27.0037L13.3588 27.8323L13.5504 27.648L12.753 26.8193L11.9556 25.9907L11.7641 26.175L12.5615 27.0037ZM12.753 26.8193L13.5504 27.648C13.5207 27.6765 13.3812 27.8118 13.1448 27.8903C13.011 27.9348 12.8129 27.9718 12.5803 27.9279C12.3366 27.8818 12.1356 27.7619 11.9896 27.616L12.8028 26.8028L13.616 25.9896C13.4647 25.8383 13.2576 25.7151 13.0071 25.6678C12.7677 25.6226 12.562 25.6603 12.4199 25.7076C12.1669 25.7916 12.0078 25.9404 11.9556 25.9907L12.753 26.8193ZM12.8028 26.8028L11.9896 27.616L12.0802 27.7066L12.8934 26.8934L13.7066 26.0802L13.616 25.9896L12.8028 26.8028ZM12.8934 26.8934L11.7663 27.1215L11.8021 27.2988L12.9293 27.0707L14.0564 26.8426L14.0205 26.6653L12.8934 26.8934ZM12.9293 27.0707L13.7425 27.8839L13.8132 27.8132L13 27L12.1868 26.1868L12.1161 26.2575L12.9293 27.0707ZM3.33333 20V21.15H3.43333V20V18.85H3.33333V20ZM3.43333 20L3.41667 21.1499L3.91817 21.1571L3.93483 20.0073L3.9515 18.8574L3.45 18.8501L3.43333 20ZM3.93483 20.0073L3.91817 21.1571C4.02872 21.1588 4.20626 21.1534 4.39944 21.0967L4.07508 19.9933L3.75073 18.89C3.81945 18.8698 3.87285 18.8628 3.90047 18.8601C3.9297 18.8572 3.94794 18.8573 3.95149 18.8574L3.93483 20.0073ZM4.07508 19.9933L4.39945 21.0966L4.6927 21.0104L4.36833 19.9071L4.04397 18.8038L3.75072 18.89L4.07508 19.9933ZM4.36833 19.9071L4.69269 21.0104L4.98594 20.9242L4.66158 19.8209L4.33722 18.7176L4.04397 18.8038L4.36833 19.9071ZM4.66158 19.8209L4.98596 20.9242C4.86575 20.9596 4.73347 20.9739 4.59711 20.96C4.46218 20.9463 4.34611 20.9074 4.25312 20.8612L4.76508 19.8314L5.27704 18.8017C5.00328 18.6656 4.67079 18.6195 4.33721 18.7176L4.66158 19.8209ZM4.76508 19.8314L4.25313 20.8612L4.54638 21.007L5.05833 19.9772L5.57029 18.9475L5.27704 18.8017L4.76508 19.8314ZM5.05833 19.9772L4.54638 21.007L4.83963 21.1528L5.35158 20.123L5.86354 19.0933L5.57029 18.9475L5.05833 19.9772ZM5.35158 20.123L4.83964 21.1528C4.97648 21.2208 5.13364 21.2735 5.30795 21.296L5.45508 20.1554L5.60221 19.0149C5.70753 19.0285 5.79569 19.0595 5.86353 19.0932L5.35158 20.123ZM5.45508 20.1554L5.30797 21.296L5.60122 21.3338L5.74833 20.1932L5.89545 19.0527L5.6022 19.0149L5.45508 20.1554ZM5.74833 20.1932L5.60121 21.3338L5.89446 21.3716L6.04158 20.2311L6.1887 19.0905L5.89545 19.0527L5.74833 20.1932ZM6.04158 20.2311L5.89448 21.3716C5.97066 21.3814 6.04745 21.3871 6.12465 21.3885L6.14508 20.2387L6.16551 19.0888C6.17372 19.089 6.18151 19.0896 6.18869 19.0905L6.04158 20.2311ZM6.14508 20.2387L6.12466 21.3885L6.41791 21.3937L6.43833 20.2439L6.45875 19.094L6.1655 19.0888L6.14508 20.2387ZM6.43833 20.2439L6.41791 21.3937L6.71116 21.3989L6.73158 20.2491L6.75201 19.0993L6.45876 19.094L6.43833 20.2439ZM6.73158 20.2491L6.71117 21.3989C7.10697 21.4059 7.40496 21.232 7.58405 21.0782L6.83508 20.2056L6.08612 19.3329C6.19621 19.2384 6.42519 19.0935 6.75199 19.0993L6.73158 20.2491ZM6.83508 20.2056L7.58406 21.0782L7.87731 20.8266L7.12833 19.9539L6.37936 19.0812L6.08611 19.3329L6.83508 20.2056ZM7.12833 19.9539L7.87731 20.8266L8.17056 20.5749L7.42158 19.7022L6.67261 18.8295L6.37936 19.0812L7.12833 19.9539ZM7.42158 19.7022L8.17056 20.5749C8.09392 20.6406 7.96635 20.7285 7.7857 20.7795C7.594 20.8336 7.39062 20.8321 7.20091 20.7764L7.52508 19.673L7.84925 18.5696C7.34129 18.4204 6.914 18.6224 6.6726 18.8296L7.42158 19.7022ZM7.52508 19.673L7.20092 20.7764L7.49417 20.8625L7.81833 19.7592L8.14249 18.6558L7.84924 18.5696L7.52508 19.673ZM7.81833 19.7592L7.49417 20.8625L7.78742 20.9487L8.11158 19.8453L8.43575 18.7419L8.1425 18.6558L7.81833 19.7592ZM8.11158 19.8453L7.78743 20.9487C7.88503 20.9774 7.98654 20.9981 8.09128 21.0094L8.21508 19.8661L8.33889 18.7228C8.37463 18.7267 8.40713 18.7335 8.43574 18.7419L8.11158 19.8453ZM8.21508 19.8661L8.09129 21.0094L8.38454 21.0412L8.50833 19.8979L8.63213 18.7546L8.33888 18.7228L8.21508 19.8661ZM8.50833 19.8979L8.38453 21.0412L8.67778 21.0729L8.80158 19.9296L8.92538 18.7863L8.63213 18.7546L8.50833 19.8979ZM8.80158 19.9296L8.6778 21.0729C8.75117 21.0809 8.82497 21.0851 8.89903 21.0855L8.90508 19.9355L8.91113 18.7855C8.9162 18.7855 8.92099 18.7858 8.92537 18.7863L8.80158 19.9296ZM8.90508 19.9355L8.89905 21.0855L9.1923 21.087L9.19833 19.937L9.20437 18.7871L8.91112 18.7855L8.90508 19.9355ZM9.19833 19.937L9.19229 21.087L9.48554 21.0886L9.49158 19.9386L9.49763 18.7886L9.20437 18.7871L9.19833 19.937ZM9.49158 19.9386L9.48555 21.0886C9.37971 21.088 9.28348 21.0681 9.20187 21.0384L9.59508 19.9577L9.9883 18.877C9.83768 18.8222 9.67246 18.7895 9.49761 18.7886L9.49158 19.9386ZM9.59508 19.9577L9.20188 21.0384L9.49513 21.1451L9.88833 20.0644L10.2815 18.9837L9.98829 18.877L9.59508 19.9577ZM9.88833 20.0644L9.49513 21.1451L9.78838 21.2518L10.1816 20.1711L10.5748 19.0904L10.2815 18.9837L9.88833 20.0644ZM10.1816 20.1711L9.78839 21.2518C9.86008 21.2779 9.98916 21.3189 10.1521 21.3293C10.3092 21.3393 10.618 21.3275 10.9199 21.1128L10.2534 20.1757L9.58683 19.2385C9.87532 19.0333 10.1655 19.0255 10.2987 19.034C10.4377 19.0429 10.5376 19.0768 10.5748 19.0904L10.1816 20.1711ZM10.2534 20.1757L10.9199 21.1128L11.0334 21.0321L10.3668 20.095L9.70028 19.1578L9.58681 19.2385L10.2534 20.1757ZM10.3668 20.095L11.4513 20.4775L11.4848 20.3826L10.4003 20L9.31583 19.6174L9.28233 19.7124L10.3668 20.095ZM10.4003 20V21.15H10.5003V20V18.85H10.4003V20ZM8.16667 8.16667L7.33331 8.95914L7.40222 9.03161L8.23558 8.23913L9.06893 7.44666L9.00002 7.37419L8.16667 8.16667ZM8.23558 8.23913L7.15113 8.62186L7.334 9.14001L8.41845 8.75729L9.50289 8.37456L9.32002 7.85641L8.23558 8.23913ZM8.41845 8.75729L7.334 9.14001C7.39109 9.30178 7.57188 9.73234 8.06915 9.93506L8.50328 8.87015L8.9374 7.80524C9.15423 7.89363 9.2945 8.03307 9.37507 8.14026C9.45216 8.24283 9.48811 8.33267 9.50289 8.37456L8.41845 8.75729ZM8.50328 8.87015L8.06916 9.93507L8.36702 10.0565L8.80114 8.99158L9.23526 7.92667L8.9374 7.80524L8.50328 8.87015ZM8.80114 8.99158L8.36702 10.0565L8.66488 10.1779L9.099 9.11301L9.53312 8.04809L9.23526 7.92667L8.80114 8.99158ZM9.099 9.11301L8.66488 10.1779C8.66594 10.1783 8.66481 10.1779 8.66189 10.1764L9.19981 9.15997L9.73773 8.14353C9.67048 8.10794 9.60215 8.07623 9.53312 8.04809L9.099 9.11301ZM9.19981 9.15997L8.66189 10.1764L8.93529 10.3211L9.47321 9.30465L10.0111 8.28822L9.73773 8.14353L9.19981 9.15997ZM9.47321 9.30465L8.93529 10.3211L9.20868 10.4658L9.7466 9.44934L10.2845 8.43291L10.0111 8.28822L9.47321 9.30465ZM9.7466 9.44934L9.20869 10.4658C8.99766 10.3541 8.83687 10.1712 8.75097 9.96057L9.81584 9.52633L10.8807 9.0921C10.7668 8.81284 10.5599 8.57863 10.2845 8.43291L9.7466 9.44934ZM9.81584 9.52633L8.75097 9.96057L8.86988 10.2522L9.93474 9.81793L10.9996 9.3837L10.8807 9.0921L9.81584 9.52633ZM9.93474 9.81793L8.86988 10.2522L8.98879 10.5438L10.0537 10.1095L11.1185 9.67529L10.9996 9.38369L9.93474 9.81793ZM10.0537 10.1095L8.98879 10.5438C9.00613 10.5863 9.02392 10.6285 9.04219 10.6705L10.0966 10.2115L11.1511 9.75252C11.14 9.72712 11.1292 9.70139 11.1185 9.6753L10.0537 10.1095ZM10.0966 10.2115L9.04218 10.6705L9.16676 10.9567L10.2212 10.4977L11.2756 10.0387L11.1511 9.75252L10.0966 10.2115ZM10.2212 10.4977L9.16676 10.9567L9.29134 11.2429L10.3458 10.7839L11.4002 10.3249L11.2756 10.0387L10.2212 10.4977ZM10.3458 10.7839L9.29134 11.2429C9.49365 11.7076 9.90453 11.9255 10.2527 11.9805L10.4322 10.8446L10.6117 9.70868C10.7236 9.72636 10.8805 9.77168 11.0394 9.88331C11.2057 10.0001 11.3271 10.1568 11.4002 10.3249L10.3458 10.7839ZM10.4322 10.8446L10.2527 11.9805L10.6176 12.0382L10.7971 10.9022L10.9766 9.76634L10.6116 9.70868L10.4322 10.8446ZM10.7971 10.9022L10.6176 12.0382L10.9825 12.0958L11.162 10.9599L11.3415 9.824L10.9766 9.76634L10.7971 10.9022ZM11.162 10.9599L10.9825 12.0958C10.8424 12.0737 10.6394 12.0099 10.4509 11.8429C10.2564 11.6705 10.1584 11.46 10.1184 11.2837L11.2397 11.0288L12.3611 10.7739C12.3122 10.5585 12.1968 10.3169 11.9763 10.1215C11.7619 9.93154 11.5245 9.85292 11.3415 9.824L11.162 10.9599ZM11.2397 11.0288L10.1184 11.2837L10.194 11.6165L11.3154 11.3615L12.4368 11.1066L12.3611 10.7739L11.2397 11.0288ZM11.3154 11.3615L10.194 11.6165L10.2696 11.9492L11.391 11.6943L12.5124 11.4394L12.4368 11.1066L11.3154 11.3615ZM11.391 11.6943L10.2696 11.9492C10.3027 12.0948 10.3599 12.2503 10.4533 12.4017L11.4321 11.798L12.411 11.1944C12.4673 11.2858 12.4971 11.3721 12.5124 11.4394L11.391 11.6943ZM11.4321 11.798L10.4533 12.4017L10.6106 12.6567L11.5894 12.0531L12.5683 11.4495L12.411 11.1944L11.4321 11.798ZM11.5894 12.0531L10.6106 12.6567L10.7679 12.9118L11.7468 12.3082L12.7256 11.7045L12.5683 11.4495L11.5894 12.0531ZM11.7468 12.3082L10.7679 12.9118C10.8632 13.0663 10.9868 13.2012 11.1342 13.3099L11.8168 12.3844L12.4994 11.4589C12.5904 11.526 12.6674 11.6101 12.7256 11.7045L11.7468 12.3082ZM11.8168 12.3844L11.1342 13.3099L11.3739 13.4867L12.0565 12.5612L12.7391 11.6356L12.4994 11.4589L11.8168 12.3844ZM12.0565 12.5612L11.3739 13.4867L11.6135 13.6634L12.2961 12.7379L12.9787 11.8124L12.7391 11.6356L12.0565 12.5612ZM12.2961 12.7379L11.6135 13.6634C11.6567 13.6952 11.7005 13.726 11.7451 13.7557L12.3826 12.7985L13.0201 11.8414C13.0058 11.8319 12.992 11.8222 12.9787 11.8124L12.2961 12.7379ZM12.3826 12.7985L11.7451 13.7557L11.9954 13.9224L12.6329 12.9652L13.2703 12.0081L13.0201 11.8414L12.3826 12.7985ZM12.6329 12.9652L11.9954 13.9224L12.2457 14.089L12.8831 13.1319L13.5206 12.1747L13.2703 12.0081L12.6329 12.9652ZM12.8831 13.1319L12.2457 14.089C12.2553 14.0955 12.2521 14.0936 12.2421 14.0862C12.2376 14.083 12.2222 14.0718 12.202 14.0553C12.1917 14.047 12.1741 14.0323 12.1528 14.0127C12.1357 13.9971 12.0933 13.9574 12.0459 13.9001L12.9328 13.1679L13.8196 12.4357C13.7398 12.3391 13.6595 12.2761 13.6533 12.271C13.6279 12.2504 13.6059 12.2342 13.5932 12.2249C13.5666 12.2056 13.5404 12.1879 13.5206 12.1747L12.8831 13.1319ZM12.9328 13.1679L12.0459 13.9001L12.0768 13.9375L12.9637 13.2053L13.8505 12.4732L13.8196 12.4357L12.9328 13.1679ZM12.9637 13.2053L13.7202 12.3392L13.6876 12.3107L12.9311 13.1769L12.1746 14.043L12.2072 14.0715L12.9637 13.2053ZM12.9311 13.1769L12.0977 13.9694L12.1666 14.0418L13 13.2493L13.8334 12.4569L13.7644 12.3844L12.9311 13.1769Z" fill="var(--stroke-0, #4B5767)"/>
</g>
</svg>
